<svg width="154" height="40" viewBox="0 0 154 40" fill="none" xmlns="http://www.w3.org/2000/svg">
<g clip-path="url(#clip0_0_70)">
<rect width="154" height="40" rx="4" fill="black" fill-opacity="0.32"/>
<path d="M63.44 24V12.8H65.568L68.672 19.888L71.728 12.8H73.904V24H72.384V14.736L69.392 21.472H67.888L64.88 14.736V24H63.44ZM77.0317 27.712C76.7117 27.712 76.4291 27.68 76.1837 27.616C75.9491 27.552 75.7624 27.4773 75.6237 27.392L75.9437 26.192C76.0717 26.2667 76.2317 26.3307 76.4237 26.384C76.6157 26.4373 76.8291 26.464 77.0637 26.464C77.5117 26.464 77.9117 26.32 78.2637 26.032C78.6157 25.744 78.9517 25.1787 79.2717 24.336L79.6398 23.376H78.8717L75.6237 16.064L76.9037 15.488L80.0078 22.416L82.4237 15.552L83.7517 16.064L80.6958 24.416C80.3864 25.2693 80.0504 25.936 79.6877 26.416C79.3251 26.896 78.9251 27.232 78.4878 27.424C78.0504 27.616 77.5651 27.712 77.0317 27.712ZM90.5556 24V12.8H92.0756V22.64H97.2116V24H90.5556ZM98.7675 24V15.68H100.207V24H98.7675ZM99.4875 14.256C99.2102 14.256 98.9702 14.1547 98.7675 13.952C98.5755 13.7493 98.4795 13.5147 98.4795 13.248C98.4795 12.9387 98.5702 12.6933 98.7515 12.512C98.9328 12.3307 99.1782 12.24 99.4875 12.24C99.7648 12.24 99.9995 12.3413 100.191 12.544C100.394 12.736 100.495 12.9707 100.495 13.248C100.495 13.5467 100.405 13.792 100.223 13.984C100.042 14.1653 99.7968 14.256 99.4875 14.256ZM105.208 24.192C104.578 24.192 104.008 24.112 103.496 23.952C102.994 23.792 102.578 23.584 102.248 23.328L102.856 22.128C103.133 22.3627 103.48 22.56 103.896 22.72C104.322 22.8693 104.776 22.944 105.256 22.944C105.853 22.944 106.301 22.848 106.6 22.656C106.909 22.4533 107.064 22.1973 107.064 21.888C107.064 21.664 107.005 21.4667 106.888 21.296C106.781 21.1253 106.578 20.96 106.28 20.8C105.981 20.6293 105.549 20.448 104.984 20.256C104.205 19.9893 103.618 19.6747 103.224 19.312C102.84 18.9387 102.648 18.4267 102.648 17.776C102.648 17.136 102.925 16.5973 103.48 16.16C104.045 15.712 104.824 15.488 105.816 15.488C106.349 15.488 106.824 15.5467 107.24 15.664C107.656 15.7707 108.029 15.9093 108.36 16.08L107.96 17.264C107.672 17.0933 107.341 16.9547 106.968 16.848C106.605 16.7413 106.2 16.688 105.752 16.688C105.197 16.688 104.776 16.8 104.488 17.024C104.2 17.248 104.056 17.4933 104.056 17.76C104.056 18.016 104.168 18.2347 104.392 18.416C104.616 18.5973 105.053 18.7947 105.704 19.008C106.76 19.36 107.496 19.7493 107.912 20.176C108.328 20.6027 108.536 21.136 108.536 21.776C108.536 22.5227 108.232 23.1147 107.624 23.552C107.026 23.9787 106.221 24.192 105.208 24.192ZM113.564 24.192C112.764 24.192 112.129 23.9307 111.66 23.408C111.201 22.8747 110.972 22.1173 110.972 21.136V17.232H109.532V15.984H111.004L111.308 13.36H112.412V15.984H114.716V17.232H112.412V21.248C112.412 21.8667 112.54 22.2987 112.796 22.544C113.063 22.7893 113.377 22.912 113.74 22.912C114.007 22.912 114.257 22.8693 114.492 22.784C114.737 22.6987 114.961 22.5973 115.164 22.48L115.564 23.632C115.351 23.76 115.063 23.8827 114.7 24C114.337 24.128 113.959 24.192 113.564 24.192Z" fill="white"/>
<path fill-rule="evenodd" clip-rule="evenodd" d="M50.375 19.375H45.625V14.625C45.625 13.728 44.897 13 44 13C43.103 13 42.375 13.728 42.375 14.625V19.375H37.625C36.728 19.375 36 20.103 36 21C36 21.897 36.728 22.625 37.625 22.625H42.375V27.375C42.375 28.272 43.103 29 44 29C44.897 29 45.625 28.272 45.625 27.375V22.625H50.375C51.272 22.625 52 21.897 52 21C52 20.103 51.272 19.375 50.375 19.375" fill="white"/>
</g>
<defs>
<clipPath id="clip0_0_70">
<rect width="154" height="40" fill="white"/>
</clipPath>
</defs>
</svg>
