<svg width="439" height="123" viewBox="0 0 439 123" fill="none" xmlns="http://www.w3.org/2000/svg">
<g clip-path="url(#clip0_0_62)">
<path d="M2.8 60V46H4.7V58.3H11.12V60H2.8ZM16.9748 60.24C15.4815 60.24 14.2948 59.7667 13.4148 58.82C12.5482 57.86 12.1148 56.52 12.1148 54.8C12.1148 53.76 12.3082 52.8333 12.6948 52.02C13.0948 51.1933 13.6482 50.5467 14.3548 50.08C15.0615 49.6 15.8815 49.36 16.8148 49.36C17.8148 49.36 18.6415 49.58 19.2948 50.02C19.9615 50.4467 20.4615 51.0267 20.7948 51.76C21.1282 52.4933 21.2948 53.3 21.2948 54.18C21.2948 54.6467 21.2748 55.1 21.2348 55.54H13.9548C14.0748 56.5133 14.4148 57.2733 14.9748 57.82C15.5348 58.3667 16.2748 58.64 17.1948 58.64C17.7948 58.64 18.3348 58.58 18.8148 58.46C19.2948 58.3267 19.7548 58.16 20.1948 57.96L20.6148 59.5C20.1348 59.7133 19.5948 59.8867 18.9948 60.02C18.3948 60.1667 17.7215 60.24 16.9748 60.24ZM13.9348 54.08H19.6348C19.6348 53.0667 19.3815 52.2867 18.8748 51.74C18.3682 51.1933 17.6682 50.92 16.7748 50.92C16.0015 50.92 15.3615 51.1933 14.8548 51.74C14.3482 52.2733 14.0415 53.0533 13.9348 54.08ZM33.8898 60.24C32.9032 60.24 32.0365 60.0133 31.2898 59.56C30.5565 59.0933 29.9898 58.4533 29.5898 57.64C29.1898 56.8133 28.9898 55.8667 28.9898 54.8C28.9898 53.8 29.1898 52.8867 29.5898 52.06C30.0032 51.2333 30.5898 50.58 31.3498 50.1C32.1098 49.6067 33.0032 49.36 34.0298 49.36C34.6165 49.36 35.1298 49.4133 35.5698 49.52C36.0232 49.6267 36.4565 49.78 36.8698 49.98L36.3298 51.5C35.9565 51.3133 35.5965 51.18 35.2498 51.1C34.9165 51.0067 34.5432 50.96 34.1298 50.96C33.1965 50.96 32.4098 51.3 31.7698 51.98C31.1432 52.6467 30.8298 53.5733 30.8298 54.76C30.8298 55.48 30.9632 56.1333 31.2298 56.72C31.4965 57.3067 31.8632 57.7733 32.3298 58.12C32.8098 58.4667 33.3698 58.64 34.0098 58.64C34.5165 58.64 34.9498 58.5867 35.3098 58.48C35.6698 58.36 36.0565 58.1933 36.4698 57.98L37.0298 59.5C36.6165 59.7267 36.1498 59.9067 35.6298 60.04C35.1232 60.1733 34.5432 60.24 33.8898 60.24ZM42.9081 60.24C42.0415 60.24 41.2548 60.02 40.5481 59.58C39.8415 59.14 39.2748 58.52 38.8481 57.72C38.4348 56.9067 38.2281 55.9533 38.2281 54.86C38.2281 53.82 38.4348 52.8867 38.8481 52.06C39.2748 51.2333 39.8548 50.58 40.5881 50.1C41.3348 49.6067 42.1881 49.36 43.1481 49.36C43.7481 49.36 44.2881 49.4667 44.7681 49.68C45.2615 49.88 45.6881 50.1333 46.0481 50.44V49.6H47.6881V57.48C47.6881 57.9867 47.8081 58.32 48.0481 58.48C48.3015 58.6267 48.5748 58.7 48.8681 58.7L48.4881 60.1C47.2081 60.1 46.4348 59.58 46.1681 58.54C45.8615 58.9667 45.4415 59.36 44.9081 59.72C44.3881 60.0667 43.7215 60.24 42.9081 60.24ZM43.3081 58.64C43.8148 58.64 44.2948 58.52 44.7481 58.28C45.2015 58.0267 45.5815 57.7133 45.8881 57.34V51.76C45.5281 51.5067 45.1281 51.3067 44.6881 51.16C44.2615 51 43.8081 50.92 43.3281 50.92C42.6881 50.92 42.1215 51.0867 41.6281 51.42C41.1481 51.74 40.7681 52.1933 40.4881 52.78C40.2081 53.3533 40.0681 54.0267 40.0681 54.8C40.0681 55.5467 40.2081 56.2133 40.4881 56.8C40.7681 57.3733 41.1548 57.8267 41.6481 58.16C42.1415 58.48 42.6948 58.64 43.3081 58.64ZM51.2719 60V49.6H53.0119V51.86C53.1852 51.42 53.4185 51.0133 53.7119 50.64C54.0052 50.2533 54.3719 49.9467 54.8119 49.72C55.2519 49.48 55.7652 49.36 56.3519 49.36C56.5519 49.36 56.7519 49.3733 56.9519 49.4C57.1519 49.4133 57.3185 49.44 57.4519 49.48L56.9119 51.34C56.6585 51.2333 56.3585 51.18 56.0119 51.18C55.5185 51.18 55.0452 51.32 54.5919 51.6C54.1519 51.88 53.7852 52.3133 53.4919 52.9C53.2119 53.4867 53.0719 54.2333 53.0719 55.14V60H51.2719ZM63.2908 60.24C62.2908 60.24 61.4974 59.9133 60.9108 59.26C60.3374 58.5933 60.0508 57.6467 60.0508 56.42V51.54H58.2508V49.98H60.0908L60.4708 46.7H61.8508V49.98H64.7308V51.54H61.8508V56.56C61.8508 57.3333 62.0108 57.8733 62.3308 58.18C62.6641 58.4867 63.0574 58.64 63.5108 58.64C63.8441 58.64 64.1574 58.5867 64.4508 58.48C64.7574 58.3733 65.0374 58.2467 65.2908 58.1L65.7908 59.54C65.5241 59.7 65.1641 59.8533 64.7108 60C64.2574 60.16 63.7841 60.24 63.2908 60.24ZM71.3694 60.24C69.876 60.24 68.6894 59.7667 67.8094 58.82C66.9427 57.86 66.5094 56.52 66.5094 54.8C66.5094 53.76 66.7027 52.8333 67.0894 52.02C67.4894 51.1933 68.0427 50.5467 68.7494 50.08C69.456 49.6 70.276 49.36 71.2094 49.36C72.2094 49.36 73.036 49.58 73.6894 50.02C74.356 50.4467 74.856 51.0267 75.1894 51.76C75.5227 52.4933 75.6894 53.3 75.6894 54.18C75.6894 54.6467 75.6694 55.1 75.6294 55.54H68.3494C68.4694 56.5133 68.8094 57.2733 69.3694 57.82C69.9294 58.3667 70.6694 58.64 71.5894 58.64C72.1894 58.64 72.7294 58.58 73.2094 58.46C73.6894 58.3267 74.1494 58.16 74.5894 57.96L75.0094 59.5C74.5294 59.7133 73.9894 59.8867 73.3894 60.02C72.7894 60.1667 72.116 60.24 71.3694 60.24ZM68.3294 54.08H74.0294C74.0294 53.0667 73.776 52.2867 73.2694 51.74C72.7627 51.1933 72.0627 50.92 71.1694 50.92C70.396 50.92 69.756 51.1933 69.2494 51.74C68.7427 52.2733 68.436 53.0533 68.3294 54.08ZM81.2483 60.24C80.6349 60.24 80.0816 60.1267 79.5883 59.9C79.0949 59.66 78.7016 59.28 78.4083 58.76C78.1283 58.24 77.9883 57.5667 77.9883 56.74V45.2H79.7883V56.56C79.7883 57.28 79.9349 57.8133 80.2283 58.16C80.5349 58.5067 80.9549 58.68 81.4883 58.68C81.7416 58.68 81.9883 58.6533 82.2283 58.6C82.4816 58.5333 82.6949 58.46 82.8683 58.38L83.3083 59.84C83.0683 59.9467 82.7683 60.04 82.4083 60.12C82.0616 60.2 81.6749 60.24 81.2483 60.24ZM94.9384 60.24C94.0851 60.24 93.3051 60.02 92.5984 59.58C91.8918 59.14 91.3318 58.52 90.9184 57.72C90.5051 56.9067 90.2984 55.9533 90.2984 54.86C90.2984 53.8067 90.5051 52.8667 90.9184 52.04C91.3451 51.2133 91.9051 50.56 92.5984 50.08C93.3051 49.6 94.0784 49.36 94.9184 49.36C95.6118 49.36 96.2051 49.5 96.6984 49.78C97.2051 50.06 97.5984 50.3467 97.8784 50.64V45.2H99.6784V57.48C99.6784 57.9867 99.7984 58.32 100.038 58.48C100.292 58.6267 100.565 58.7 100.858 58.7L100.478 60.1C99.2118 60.1 98.4384 59.5933 98.1584 58.58C97.8651 58.9933 97.4518 59.3733 96.9184 59.72C96.3984 60.0667 95.7384 60.24 94.9384 60.24ZM95.3384 58.64C95.8318 58.64 96.2984 58.5267 96.7384 58.3C97.1918 58.06 97.5718 57.7533 97.8784 57.38V52.22C97.6251 51.9 97.2718 51.6067 96.8184 51.34C96.3651 51.06 95.8651 50.92 95.3184 50.92C94.6784 50.92 94.1184 51.0933 93.6384 51.44C93.1584 51.7867 92.7851 52.2533 92.5184 52.84C92.2651 53.4133 92.1384 54.0667 92.1384 54.8C92.1384 55.5333 92.2784 56.1933 92.5584 56.78C92.8384 57.3533 93.2184 57.8067 93.6984 58.14C94.1918 58.4733 94.7384 58.64 95.3384 58.64ZM107.229 60.24C105.735 60.24 104.549 59.7667 103.669 58.82C102.802 57.86 102.369 56.52 102.369 54.8C102.369 53.76 102.562 52.8333 102.949 52.02C103.349 51.1933 103.902 50.5467 104.609 50.08C105.315 49.6 106.135 49.36 107.069 49.36C108.069 49.36 108.895 49.58 109.549 50.02C110.215 50.4467 110.715 51.0267 111.049 51.76C111.382 52.4933 111.549 53.3 111.549 54.18C111.549 54.6467 111.529 55.1 111.489 55.54H104.209C104.329 56.5133 104.669 57.2733 105.229 57.82C105.789 58.3667 106.529 58.64 107.449 58.64C108.049 58.64 108.589 58.58 109.069 58.46C109.549 58.3267 110.009 58.16 110.449 57.96L110.869 59.5C110.389 59.7133 109.849 59.8867 109.249 60.02C108.649 60.1667 107.975 60.24 107.229 60.24ZM104.189 54.08H109.889C109.889 53.0667 109.635 52.2867 109.129 51.74C108.622 51.1933 107.922 50.92 107.029 50.92C106.255 50.92 105.615 51.1933 105.109 51.74C104.602 52.2733 104.295 53.0533 104.189 54.08ZM125.524 60.24C124.31 60.24 123.237 59.9533 122.304 59.38C121.37 58.7933 120.644 57.9667 120.124 56.9C119.604 55.82 119.344 54.54 119.344 53.06C119.344 51.6333 119.604 50.3733 120.124 49.28C120.657 48.1733 121.404 47.3133 122.364 46.7C123.337 46.0733 124.47 45.76 125.764 45.76C126.43 45.76 127.037 45.8267 127.584 45.96C128.13 46.08 128.644 46.2533 129.124 46.48L128.544 48.08C128.13 47.88 127.704 47.72 127.264 47.6C126.837 47.48 126.33 47.42 125.744 47.42C124.89 47.42 124.124 47.64 123.444 48.08C122.777 48.52 122.25 49.1533 121.864 49.98C121.477 50.8067 121.284 51.8067 121.284 52.98C121.284 54.1 121.47 55.08 121.844 55.92C122.23 56.76 122.757 57.4133 123.424 57.88C124.104 58.3467 124.877 58.58 125.744 58.58C126.397 58.58 126.964 58.5 127.444 58.34C127.924 58.18 128.39 57.9733 128.844 57.72L129.424 59.3C128.93 59.5667 128.364 59.7933 127.724 59.98C127.097 60.1533 126.364 60.24 125.524 60.24ZM135.193 60.24C134.327 60.24 133.54 60.02 132.833 59.58C132.127 59.14 131.56 58.52 131.133 57.72C130.72 56.9067 130.513 55.9533 130.513 54.86C130.513 53.82 130.72 52.8867 131.133 52.06C131.56 51.2333 132.14 50.58 132.873 50.1C133.62 49.6067 134.473 49.36 135.433 49.36C136.033 49.36 136.573 49.4667 137.053 49.68C137.547 49.88 137.973 50.1333 138.333 50.44V49.6H139.973V57.48C139.973 57.9867 140.093 58.32 140.333 58.48C140.587 58.6267 140.86 58.7 141.153 58.7L140.773 60.1C139.493 60.1 138.72 59.58 138.453 58.54C138.147 58.9667 137.727 59.36 137.193 59.72C136.673 60.0667 136.007 60.24 135.193 60.24ZM135.593 58.64C136.1 58.64 136.58 58.52 137.033 58.28C137.487 58.0267 137.867 57.7133 138.173 57.34V51.76C137.813 51.5067 137.413 51.3067 136.973 51.16C136.547 51 136.093 50.92 135.613 50.92C134.973 50.92 134.407 51.0867 133.913 51.42C133.433 51.74 133.053 52.1933 132.773 52.78C132.493 53.3533 132.353 54.0267 132.353 54.8C132.353 55.5467 132.493 56.2133 132.773 56.8C133.053 57.3733 133.44 57.8267 133.933 58.16C134.427 58.48 134.98 58.64 135.593 58.64ZM146.717 60.24C146.104 60.24 145.55 60.1267 145.057 59.9C144.564 59.66 144.17 59.28 143.877 58.76C143.597 58.24 143.457 57.5667 143.457 56.74V45.2H145.257V56.56C145.257 57.28 145.404 57.8133 145.697 58.16C146.004 58.5067 146.424 58.68 146.957 58.68C147.21 58.68 147.457 58.6533 147.697 58.6C147.95 58.5333 148.164 58.46 148.337 58.38L148.777 59.84C148.537 59.9467 148.237 60.04 147.877 60.12C147.53 60.2 147.144 60.24 146.717 60.24ZM150.471 60V49.6H152.271V60H150.471ZM151.371 47.82C151.024 47.82 150.724 47.6933 150.471 47.44C150.231 47.1867 150.111 46.8933 150.111 46.56C150.111 46.1733 150.224 45.8667 150.451 45.64C150.678 45.4133 150.984 45.3 151.371 45.3C151.718 45.3 152.011 45.4267 152.251 45.68C152.504 45.92 152.631 46.2133 152.631 46.56C152.631 46.9333 152.518 47.24 152.291 47.48C152.064 47.7067 151.758 47.82 151.371 47.82ZM161.467 60V49.6H163.207V51.86C163.381 51.42 163.614 51.0133 163.907 50.64C164.201 50.2533 164.567 49.9467 165.007 49.72C165.447 49.48 165.961 49.36 166.547 49.36C166.747 49.36 166.947 49.3733 167.147 49.4C167.347 49.4133 167.514 49.44 167.647 49.48L167.107 51.34C166.854 51.2333 166.554 51.18 166.207 51.18C165.714 51.18 165.241 51.32 164.787 51.6C164.347 51.88 163.981 52.3133 163.687 52.9C163.407 53.4867 163.267 54.2333 163.267 55.14V60H161.467ZM173.01 60.24C171.517 60.24 170.33 59.7667 169.45 58.82C168.583 57.86 168.15 56.52 168.15 54.8C168.15 53.76 168.343 52.8333 168.73 52.02C169.13 51.1933 169.683 50.5467 170.39 50.08C171.097 49.6 171.917 49.36 172.85 49.36C173.85 49.36 174.677 49.58 175.33 50.02C175.997 50.4467 176.497 51.0267 176.83 51.76C177.163 52.4933 177.33 53.3 177.33 54.18C177.33 54.6467 177.31 55.1 177.27 55.54H169.99C170.11 56.5133 170.45 57.2733 171.01 57.82C171.57 58.3667 172.31 58.64 173.23 58.64C173.83 58.64 174.37 58.58 174.85 58.46C175.33 58.3267 175.79 58.16 176.23 57.96L176.65 59.5C176.17 59.7133 175.63 59.8867 175.03 60.02C174.43 60.1667 173.757 60.24 173.01 60.24ZM169.97 54.08H175.67C175.67 53.0667 175.417 52.2867 174.91 51.74C174.403 51.1933 173.703 50.92 172.81 50.92C172.037 50.92 171.397 51.1933 170.89 51.74C170.383 52.2733 170.077 53.0533 169.97 54.08ZM180.109 64.4V52.26C180.109 51.8067 179.996 51.4867 179.769 51.3C179.556 51.1 179.276 51 178.929 51L179.309 49.6C180.536 49.6 181.302 50.0867 181.609 51.06C181.742 50.86 181.956 50.6267 182.249 50.36C182.556 50.0933 182.929 49.86 183.369 49.66C183.822 49.46 184.336 49.36 184.909 49.36C185.709 49.36 186.456 49.5733 187.149 50C187.856 50.4133 188.422 51.02 188.849 51.82C189.276 52.6067 189.489 53.5667 189.489 54.7C189.489 55.8067 189.276 56.78 188.849 57.62C188.422 58.4467 187.862 59.0933 187.169 59.56C186.489 60.0133 185.749 60.24 184.949 60.24C184.336 60.24 183.762 60.12 183.229 59.88C182.696 59.6267 182.256 59.34 181.909 59.02V64.4H180.109ZM184.589 58.64C185.496 58.64 186.229 58.2867 186.789 57.58C187.362 56.86 187.649 55.92 187.649 54.76C187.649 53.96 187.502 53.2733 187.209 52.7C186.929 52.1267 186.549 51.6867 186.069 51.38C185.602 51.0733 185.082 50.92 184.509 50.92C183.936 50.92 183.416 51.0667 182.949 51.36C182.496 51.64 182.149 51.9467 181.909 52.28V57.4C182.256 57.76 182.656 58.06 183.109 58.3C183.562 58.5267 184.056 58.64 184.589 58.64ZM191.995 60V49.6H193.735V51.86C193.908 51.42 194.141 51.0133 194.435 50.64C194.728 50.2533 195.095 49.9467 195.535 49.72C195.975 49.48 196.488 49.36 197.075 49.36C197.275 49.36 197.475 49.3733 197.675 49.4C197.875 49.4133 198.041 49.44 198.175 49.48L197.635 51.34C197.381 51.2333 197.081 51.18 196.735 51.18C196.241 51.18 195.768 51.32 195.315 51.6C194.875 51.88 194.508 52.3133 194.215 52.9C193.935 53.4867 193.795 54.2333 193.795 55.14V60H191.995ZM203.537 60.24C202.044 60.24 200.857 59.7667 199.977 58.82C199.111 57.86 198.677 56.52 198.677 54.8C198.677 53.76 198.871 52.8333 199.257 52.02C199.657 51.1933 200.211 50.5467 200.917 50.08C201.624 49.6 202.444 49.36 203.377 49.36C204.377 49.36 205.204 49.58 205.857 50.02C206.524 50.4467 207.024 51.0267 207.357 51.76C207.691 52.4933 207.857 53.3 207.857 54.18C207.857 54.6467 207.837 55.1 207.797 55.54H200.517C200.637 56.5133 200.977 57.2733 201.537 57.82C202.097 58.3667 202.837 58.64 203.757 58.64C204.357 58.64 204.897 58.58 205.377 58.46C205.857 58.3267 206.317 58.16 206.757 57.96L207.177 59.5C206.697 59.7133 206.157 59.8867 205.557 60.02C204.957 60.1667 204.284 60.24 203.537 60.24ZM200.497 54.08H206.197C206.197 53.0667 205.944 52.2867 205.437 51.74C204.931 51.1933 204.231 50.92 203.337 50.92C202.564 50.92 201.924 51.1933 201.417 51.74C200.911 52.2733 200.604 53.0533 200.497 54.08ZM210.256 60V49.6H211.996V51.34C212.37 50.78 212.843 50.3133 213.416 49.94C214.003 49.5533 214.696 49.36 215.496 49.36C216.67 49.36 217.543 49.7133 218.116 50.42C218.703 51.1267 218.996 52.06 218.996 53.22V60H217.196V53.42C217.196 52.6733 217.016 52.0733 216.656 51.62C216.31 51.1667 215.823 50.94 215.196 50.94C214.583 50.94 214.003 51.16 213.456 51.6C212.91 52.0267 212.443 52.5333 212.056 53.12V60H210.256ZM226.032 60.24C225.179 60.24 224.399 60.02 223.692 59.58C222.986 59.14 222.426 58.52 222.012 57.72C221.599 56.9067 221.392 55.9533 221.392 54.86C221.392 53.8067 221.599 52.8667 222.012 52.04C222.439 51.2133 222.999 50.56 223.692 50.08C224.399 49.6 225.172 49.36 226.012 49.36C226.706 49.36 227.299 49.5 227.792 49.78C228.299 50.06 228.692 50.3467 228.972 50.64V45.2H230.772V57.48C230.772 57.9867 230.892 58.32 231.132 58.48C231.386 58.6267 231.659 58.7 231.952 58.7L231.572 60.1C230.306 60.1 229.532 59.5933 229.252 58.58C228.959 58.9933 228.546 59.3733 228.012 59.72C227.492 60.0667 226.832 60.24 226.032 60.24ZM226.432 58.64C226.926 58.64 227.392 58.5267 227.832 58.3C228.286 58.06 228.666 57.7533 228.972 57.38V52.22C228.719 51.9 228.366 51.6067 227.912 51.34C227.459 51.06 226.959 50.92 226.412 50.92C225.772 50.92 225.212 51.0933 224.732 51.44C224.252 51.7867 223.879 52.2533 223.612 52.84C223.359 53.4133 223.232 54.0667 223.232 54.8C223.232 55.5333 223.372 56.1933 223.652 56.78C223.932 57.3533 224.312 57.8067 224.792 58.14C225.286 58.4733 225.832 58.64 226.432 58.64ZM243.514 60.24C242.901 60.24 242.347 60.1267 241.854 59.9C241.361 59.66 240.967 59.28 240.674 58.76C240.394 58.24 240.254 57.5667 240.254 56.74V45.2H242.054V56.56C242.054 57.28 242.201 57.8133 242.494 58.16C242.801 58.5067 243.221 58.68 243.754 58.68C244.007 58.68 244.254 58.6533 244.494 58.6C244.747 58.5333 244.961 58.46 245.134 58.38L245.574 59.84C245.334 59.9467 245.034 60.04 244.674 60.12C244.327 60.2 243.941 60.24 243.514 60.24ZM251.135 60.24C249.642 60.24 248.455 59.7667 247.575 58.82C246.708 57.86 246.275 56.52 246.275 54.8C246.275 53.76 246.468 52.8333 246.855 52.02C247.255 51.1933 247.808 50.5467 248.515 50.08C249.222 49.6 250.042 49.36 250.975 49.36C251.975 49.36 252.802 49.58 253.455 50.02C254.122 50.4467 254.622 51.0267 254.955 51.76C255.288 52.4933 255.455 53.3 255.455 54.18C255.455 54.6467 255.435 55.1 255.395 55.54H248.115C248.235 56.5133 248.575 57.2733 249.135 57.82C249.695 58.3667 250.435 58.64 251.355 58.64C251.955 58.64 252.495 58.58 252.975 58.46C253.455 58.3267 253.915 58.16 254.355 57.96L254.775 59.5C254.295 59.7133 253.755 59.8867 253.155 60.02C252.555 60.1667 251.882 60.24 251.135 60.24ZM248.095 54.08H253.795C253.795 53.0667 253.542 52.2867 253.035 51.74C252.528 51.1933 251.828 50.92 250.935 50.92C250.162 50.92 249.522 51.1933 249.015 51.74C248.508 52.2733 248.202 53.0533 248.095 54.08ZM264.23 64.4V52.26C264.23 51.8067 264.117 51.4867 263.89 51.3C263.677 51.1 263.397 51 263.05 51L263.43 49.6C264.657 49.6 265.423 50.0867 265.73 51.06C265.863 50.86 266.077 50.6267 266.37 50.36C266.677 50.0933 267.05 49.86 267.49 49.66C267.943 49.46 268.457 49.36 269.03 49.36C269.83 49.36 270.577 49.5733 271.27 50C271.977 50.4133 272.543 51.02 272.97 51.82C273.397 52.6067 273.61 53.5667 273.61 54.7C273.61 55.8067 273.397 56.78 272.97 57.62C272.543 58.4467 271.983 59.0933 271.29 59.56C270.61 60.0133 269.87 60.24 269.07 60.24C268.457 60.24 267.883 60.12 267.35 59.88C266.817 59.6267 266.377 59.34 266.03 59.02V64.4H264.23ZM268.71 58.64C269.617 58.64 270.35 58.2867 270.91 57.58C271.483 56.86 271.77 55.92 271.77 54.76C271.77 53.96 271.623 53.2733 271.33 52.7C271.05 52.1267 270.67 51.6867 270.19 51.38C269.723 51.0733 269.203 50.92 268.63 50.92C268.057 50.92 267.537 51.0667 267.07 51.36C266.617 51.64 266.27 51.9467 266.03 52.28V57.4C266.377 57.76 266.777 58.06 267.23 58.3C267.683 58.5267 268.177 58.64 268.71 58.64ZM280.496 60.24C279.509 60.24 278.622 60.0133 277.836 59.56C277.049 59.0933 276.429 58.4533 275.976 57.64C275.536 56.8133 275.316 55.8667 275.316 54.8C275.316 53.68 275.542 52.7133 275.996 51.9C276.449 51.0867 277.069 50.46 277.856 50.02C278.642 49.58 279.522 49.36 280.496 49.36C281.469 49.36 282.342 49.58 283.116 50.02C283.902 50.46 284.522 51.0867 284.976 51.9C285.442 52.7 285.676 53.6533 285.676 54.76C285.676 55.8667 285.449 56.8333 284.996 57.66C284.542 58.4733 283.922 59.1067 283.136 59.56C282.362 60.0133 281.482 60.24 280.496 60.24ZM280.496 58.64C281.549 58.64 282.369 58.2867 282.956 57.58C283.542 56.86 283.836 55.9333 283.836 54.8C283.836 54.1067 283.689 53.4733 283.396 52.9C283.102 52.3133 282.702 51.8467 282.196 51.5C281.702 51.14 281.136 50.96 280.496 50.96C279.442 50.96 278.622 51.3067 278.036 52C277.449 52.6933 277.156 53.6133 277.156 54.76C277.156 55.4533 277.302 56.1 277.596 56.7C277.889 57.2867 278.282 57.76 278.776 58.12C279.282 58.4667 279.856 58.64 280.496 58.64ZM291.469 60.24C290.869 60.24 290.302 60.1133 289.769 59.86C289.235 59.6067 288.802 59.2 288.469 58.64C288.135 58.0667 287.969 57.3067 287.969 56.36V49.6H289.769V56.12C289.769 56.9333 289.942 57.56 290.289 58C290.635 58.4267 291.142 58.64 291.809 58.64C292.355 58.64 292.882 58.5333 293.389 58.32C293.909 58.0933 294.369 57.7933 294.769 57.42V49.6H296.569V57.3C296.569 57.8733 296.689 58.2533 296.929 58.44C297.182 58.6133 297.455 58.7 297.749 58.7L297.369 60.1C296.129 60.1 295.362 59.6067 295.069 58.62C294.602 59.1 294.062 59.4933 293.449 59.8C292.835 60.0933 292.175 60.24 291.469 60.24ZM302.528 60L298.348 50.08L299.988 49.4L303.528 57.96L307.068 49.4L308.608 50.08L304.408 60H302.528ZM314.402 60.24C313.415 60.24 312.529 60.0133 311.742 59.56C310.955 59.0933 310.335 58.4533 309.882 57.64C309.442 56.8133 309.222 55.8667 309.222 54.8C309.222 53.68 309.449 52.7133 309.902 51.9C310.355 51.0867 310.975 50.46 311.762 50.02C312.549 49.58 313.429 49.36 314.402 49.36C315.375 49.36 316.249 49.58 317.022 50.02C317.809 50.46 318.429 51.0867 318.882 51.9C319.349 52.7 319.582 53.6533 319.582 54.76C319.582 55.8667 319.355 56.8333 318.902 57.66C318.449 58.4733 317.829 59.1067 317.042 59.56C316.269 60.0133 315.389 60.24 314.402 60.24ZM314.402 58.64C315.455 58.64 316.275 58.2867 316.862 57.58C317.449 56.86 317.742 55.9333 317.742 54.8C317.742 54.1067 317.595 53.4733 317.302 52.9C317.009 52.3133 316.609 51.8467 316.102 51.5C315.609 51.14 315.042 50.96 314.402 50.96C313.349 50.96 312.529 51.3067 311.942 52C311.355 52.6933 311.062 53.6133 311.062 54.76C311.062 55.4533 311.209 56.1 311.502 56.7C311.795 57.2867 312.189 57.76 312.682 58.12C313.189 58.4667 313.762 58.64 314.402 58.64ZM321.975 60V49.6H323.775V60H321.975ZM322.875 47.82C322.528 47.82 322.228 47.6933 321.975 47.44C321.735 47.1867 321.615 46.8933 321.615 46.56C321.615 46.1733 321.728 45.8667 321.955 45.64C322.182 45.4133 322.488 45.3 322.875 45.3C323.222 45.3 323.515 45.4267 323.755 45.68C324.008 45.92 324.135 46.2133 324.135 46.56C324.135 46.9333 324.022 47.24 323.795 47.48C323.568 47.7067 323.262 47.82 322.875 47.82ZM326.975 60V49.6H328.715V51.86C328.888 51.42 329.122 51.0133 329.415 50.64C329.708 50.2533 330.075 49.9467 330.515 49.72C330.955 49.48 331.468 49.36 332.055 49.36C332.255 49.36 332.455 49.3733 332.655 49.4C332.855 49.4133 333.022 49.44 333.155 49.48L332.615 51.34C332.362 51.2333 332.062 51.18 331.715 51.18C331.222 51.18 330.748 51.32 330.295 51.6C329.855 51.88 329.488 52.3133 329.195 52.9C328.915 53.4867 328.775 54.2333 328.775 55.14V60H326.975ZM345.119 60.24C343.626 60.24 342.439 59.7667 341.559 58.82C340.693 57.86 340.259 56.52 340.259 54.8C340.259 53.76 340.453 52.8333 340.839 52.02C341.239 51.1933 341.793 50.5467 342.499 50.08C343.206 49.6 344.026 49.36 344.959 49.36C345.959 49.36 346.786 49.58 347.439 50.02C348.106 50.4467 348.606 51.0267 348.939 51.76C349.273 52.4933 349.439 53.3 349.439 54.18C349.439 54.6467 349.419 55.1 349.379 55.54H342.099C342.219 56.5133 342.559 57.2733 343.119 57.82C343.679 58.3667 344.419 58.64 345.339 58.64C345.939 58.64 346.479 58.58 346.959 58.46C347.439 58.3267 347.899 58.16 348.339 57.96L348.759 59.5C348.279 59.7133 347.739 59.8867 347.139 60.02C346.539 60.1667 345.866 60.24 345.119 60.24ZM342.079 54.08H347.779C347.779 53.0667 347.526 52.2867 347.019 51.74C346.513 51.1933 345.813 50.92 344.919 50.92C344.146 50.92 343.506 51.1933 342.999 51.74C342.493 52.2733 342.186 53.0533 342.079 54.08ZM351.838 60V49.6H353.578V51.34C353.952 50.78 354.425 50.3133 354.998 49.94C355.585 49.5533 356.278 49.36 357.078 49.36C358.252 49.36 359.125 49.7133 359.698 50.42C360.285 51.1267 360.578 52.06 360.578 53.22V60H358.778V53.42C358.778 52.6733 358.598 52.0733 358.238 51.62C357.892 51.1667 357.405 50.94 356.778 50.94C356.165 50.94 355.585 51.16 355.038 51.6C354.492 52.0267 354.025 52.5333 353.638 53.12V60H351.838ZM8.18 88.24C6.96667 88.24 5.89333 87.9533 4.96 87.38C4.02667 86.7933 3.3 85.9667 2.78 84.9C2.26 83.82 2 82.54 2 81.06C2 79.6333 2.26 78.3733 2.78 77.28C3.31333 76.1733 4.06 75.3133 5.02 74.7C5.99333 74.0733 7.12667 73.76 8.42 73.76C9.08667 73.76 9.69333 73.8267 10.24 73.96C10.7867 74.08 11.3 74.2533 11.78 74.48L11.2 76.08C10.7867 75.88 10.36 75.72 9.92 75.6C9.49333 75.48 8.98667 75.42 8.4 75.42C7.54667 75.42 6.78 75.64 6.1 76.08C5.43333 76.52 4.90667 77.1533 4.52 77.98C4.13333 78.8067 3.94 79.8067 3.94 80.98C3.94 82.1 4.12667 83.08 4.5 83.92C4.88667 84.76 5.41333 85.4133 6.08 85.88C6.76 86.3467 7.53333 86.58 8.4 86.58C9.05333 86.58 9.62 86.5 10.1 86.34C10.58 86.18 11.0467 85.9733 11.5 85.72L12.08 87.3C11.5867 87.5667 11.02 87.7933 10.38 87.98C9.75333 88.1533 9.02 88.24 8.18 88.24ZM18.2495 88.24C17.2629 88.24 16.3762 88.0133 15.5895 87.56C14.8029 87.0933 14.1829 86.4533 13.7295 85.64C13.2895 84.8133 13.0695 83.8667 13.0695 82.8C13.0695 81.68 13.2962 80.7133 13.7495 79.9C14.2029 79.0867 14.8229 78.46 15.6095 78.02C16.3962 77.58 17.2762 77.36 18.2495 77.36C19.2229 77.36 20.0962 77.58 20.8695 78.02C21.6562 78.46 22.2762 79.0867 22.7295 79.9C23.1962 80.7 23.4295 81.6533 23.4295 82.76C23.4295 83.8667 23.2029 84.8333 22.7495 85.66C22.2962 86.4733 21.6762 87.1067 20.8895 87.56C20.1162 88.0133 19.2362 88.24 18.2495 88.24ZM18.2495 86.64C19.3029 86.64 20.1229 86.2867 20.7095 85.58C21.2962 84.86 21.5895 83.9333 21.5895 82.8C21.5895 82.1067 21.4429 81.4733 21.1495 80.9C20.8562 80.3133 20.4562 79.8467 19.9495 79.5C19.4562 79.14 18.8895 78.96 18.2495 78.96C17.1962 78.96 16.3762 79.3067 15.7895 80C15.2029 80.6933 14.9095 81.6133 14.9095 82.76C14.9095 83.4533 15.0562 84.1 15.3495 84.7C15.6429 85.2867 16.0362 85.76 16.5295 86.12C17.0362 86.4667 17.6095 86.64 18.2495 86.64ZM28.9827 88.24C28.3693 88.24 27.816 88.1267 27.3227 87.9C26.8293 87.66 26.436 87.28 26.1427 86.76C25.8627 86.24 25.7227 85.5667 25.7227 84.74V73.2H27.5227V84.56C27.5227 85.28 27.6693 85.8133 27.9627 86.16C28.2693 86.5067 28.6893 86.68 29.2227 86.68C29.476 86.68 29.7227 86.6533 29.9627 86.6C30.216 86.5333 30.4293 86.46 30.6027 86.38L31.0427 87.84C30.8027 87.9467 30.5027 88.04 30.1427 88.12C29.796 88.2 29.4093 88.24 28.9827 88.24ZM36.8238 88.24C35.8371 88.24 34.9504 88.0133 34.1638 87.56C33.3771 87.0933 32.7571 86.4533 32.3038 85.64C31.8638 84.8133 31.6438 83.8667 31.6438 82.8C31.6438 81.68 31.8704 80.7133 32.3238 79.9C32.7771 79.0867 33.3971 78.46 34.1838 78.02C34.9704 77.58 35.8504 77.36 36.8238 77.36C37.7971 77.36 38.6704 77.58 39.4438 78.02C40.2304 78.46 40.8504 79.0867 41.3038 79.9C41.7704 80.7 42.0038 81.6533 42.0038 82.76C42.0038 83.8667 41.7771 84.8333 41.3238 85.66C40.8704 86.4733 40.2504 87.1067 39.4638 87.56C38.6904 88.0133 37.8104 88.24 36.8238 88.24ZM36.8238 86.64C37.8771 86.64 38.6971 86.2867 39.2838 85.58C39.8704 84.86 40.1638 83.9333 40.1638 82.8C40.1638 82.1067 40.0171 81.4733 39.7238 80.9C39.4304 80.3133 39.0304 79.8467 38.5238 79.5C38.0304 79.14 37.4638 78.96 36.8238 78.96C35.7704 78.96 34.9504 79.3067 34.3638 80C33.7771 80.6933 33.4837 81.6133 33.4837 82.76C33.4837 83.4533 33.6304 84.1 33.9238 84.7C34.2171 85.2867 34.6104 85.76 35.1038 86.12C35.6104 86.4667 36.1838 86.64 36.8238 86.64ZM44.3969 88V77.6H46.1369V79.34C46.5102 78.78 46.9835 78.3133 47.5569 77.94C48.1302 77.5533 48.7835 77.36 49.5169 77.36C50.3435 77.36 51.0169 77.56 51.5369 77.96C52.0702 78.36 52.4435 78.8933 52.6569 79.56C53.0702 78.9467 53.5569 78.4267 54.1169 78C54.6902 77.5733 55.3969 77.36 56.2369 77.36C57.3702 77.36 58.2102 77.72 58.7569 78.44C59.3169 79.1467 59.5969 80.0733 59.5969 81.22V88H57.7969V81.36C57.7969 80.64 57.6302 80.06 57.2969 79.62C56.9635 79.1667 56.5035 78.94 55.9169 78.94C55.3169 78.94 54.7569 79.1667 54.2369 79.62C53.7302 80.06 53.2835 80.58 52.8969 81.18V88H51.0969V81.36C51.0969 80.64 50.9302 80.06 50.5969 79.62C50.2635 79.1667 49.8035 78.94 49.2169 78.94C48.6302 78.94 48.0769 79.16 47.5569 79.6C47.0369 80.0267 46.5835 80.5333 46.1969 81.12V88H44.3969ZM67.3777 88.24C66.7777 88.24 66.211 88.1333 65.6777 87.92C65.1577 87.6933 64.7243 87.4333 64.3777 87.14V88H62.6977V73.2H64.4977V78.68C64.7643 78.3733 65.151 78.08 65.6577 77.8C66.1777 77.5067 66.791 77.36 67.4977 77.36C68.2977 77.36 69.0443 77.5733 69.7377 78C70.4443 78.4133 71.011 79.02 71.4377 79.82C71.8643 80.6067 72.0777 81.5667 72.0777 82.7C72.0777 83.5267 71.9443 84.28 71.6777 84.96C71.411 85.64 71.051 86.2267 70.5977 86.72C70.1577 87.2 69.6577 87.5733 69.0977 87.84C68.5377 88.1067 67.9643 88.24 67.3777 88.24ZM66.8977 86.64C67.551 86.64 68.1243 86.48 68.6177 86.16C69.1243 85.84 69.5177 85.3867 69.7977 84.8C70.091 84.2133 70.2377 83.5333 70.2377 82.76C70.2377 81.96 70.091 81.2733 69.7977 80.7C69.5177 80.1267 69.1377 79.6867 68.6577 79.38C68.191 79.0733 67.671 78.92 67.0977 78.92C66.5243 78.92 66.0043 79.0667 65.5377 79.36C65.0843 79.64 64.7377 79.9467 64.4977 80.28V85.84C64.8043 86.08 65.1643 86.2733 65.5777 86.42C65.991 86.5667 66.431 86.64 66.8977 86.64ZM74.5727 88V77.6H76.3727V88H74.5727ZM75.4727 75.82C75.126 75.82 74.826 75.6933 74.5727 75.44C74.3327 75.1867 74.2127 74.8933 74.2127 74.56C74.2127 74.1733 74.326 73.8667 74.5527 73.64C74.7793 73.4133 75.086 73.3 75.4727 73.3C75.8193 73.3 76.1127 73.4267 76.3527 73.68C76.606 73.92 76.7327 74.2133 76.7327 74.56C76.7327 74.9333 76.6193 75.24 76.3927 75.48C76.166 75.7067 75.8593 75.82 75.4727 75.82ZM83.7327 88.24C82.2393 88.24 81.0527 87.7667 80.1727 86.82C79.306 85.86 78.8727 84.52 78.8727 82.8C78.8727 81.76 79.066 80.8333 79.4527 80.02C79.8527 79.1933 80.406 78.5467 81.1127 78.08C81.8193 77.6 82.6393 77.36 83.5727 77.36C84.5727 77.36 85.3993 77.58 86.0527 78.02C86.7193 78.4467 87.2193 79.0267 87.5527 79.76C87.886 80.4933 88.0527 81.3 88.0527 82.18C88.0527 82.6467 88.0327 83.1 87.9927 83.54H80.7127C80.8327 84.5133 81.1727 85.2733 81.7327 85.82C82.2927 86.3667 83.0327 86.64 83.9527 86.64C84.5527 86.64 85.0927 86.58 85.5727 86.46C86.0527 86.3267 86.5127 86.16 86.9527 85.96L87.3727 87.5C86.8927 87.7133 86.3527 87.8867 85.7527 88.02C85.1527 88.1667 84.4793 88.24 83.7327 88.24ZM80.6927 82.08H86.3927C86.3927 81.0667 86.1393 80.2867 85.6327 79.74C85.126 79.1933 84.426 78.92 83.5327 78.92C82.7593 78.92 82.1193 79.1933 81.6127 79.74C81.106 80.2733 80.7993 81.0533 80.6927 82.08ZM91.8516 88.24C91.4916 88.24 91.1782 88.1067 90.9116 87.84C90.6449 87.5733 90.5116 87.26 90.5116 86.9C90.5116 86.4867 90.6316 86.16 90.8716 85.92C91.1116 85.68 91.4382 85.56 91.8516 85.56C92.1982 85.56 92.5049 85.6933 92.7716 85.96C93.0516 86.2267 93.1916 86.54 93.1916 86.9C93.1916 87.3 93.0649 87.6267 92.8116 87.88C92.5582 88.12 92.2382 88.24 91.8516 88.24ZM102.644 88V74H104.544V86.3H110.964V88H102.644ZM116.819 88.24C115.325 88.24 114.139 87.7667 113.259 86.82C112.392 85.86 111.959 84.52 111.959 82.8C111.959 81.76 112.152 80.8333 112.539 80.02C112.939 79.1933 113.492 78.5467 114.199 78.08C114.905 77.6 115.725 77.36 116.659 77.36C117.659 77.36 118.485 77.58 119.139 78.02C119.805 78.4467 120.305 79.0267 120.639 79.76C120.972 80.4933 121.139 81.3 121.139 82.18C121.139 82.6467 121.119 83.1 121.079 83.54H113.799C113.919 84.5133 114.259 85.2733 114.819 85.82C115.379 86.3667 116.119 86.64 117.039 86.64C117.639 86.64 118.179 86.58 118.659 86.46C119.139 86.3267 119.599 86.16 120.039 85.96L120.459 87.5C119.979 87.7133 119.439 87.8867 118.839 88.02C118.239 88.1667 117.565 88.24 116.819 88.24ZM113.779 82.08H119.479C119.479 81.0667 119.225 80.2867 118.719 79.74C118.212 79.1933 117.512 78.92 116.619 78.92C115.845 78.92 115.205 79.1933 114.699 79.74C114.192 80.2733 113.885 81.0533 113.779 82.08ZM126.338 88.24C125.551 88.24 124.838 88.14 124.198 87.94C123.571 87.74 123.051 87.48 122.638 87.16L123.398 85.66C123.744 85.9533 124.178 86.2 124.698 86.4C125.231 86.5867 125.798 86.68 126.398 86.68C127.144 86.68 127.704 86.56 128.078 86.32C128.464 86.0667 128.658 85.7467 128.658 85.36C128.658 85.08 128.584 84.8333 128.438 84.62C128.304 84.4067 128.051 84.2 127.678 84C127.304 83.7867 126.764 83.56 126.058 83.32C125.084 82.9867 124.351 82.5933 123.858 82.14C123.378 81.6733 123.138 81.0333 123.138 80.22C123.138 79.42 123.484 78.7467 124.178 78.2C124.884 77.64 125.858 77.36 127.098 77.36C127.764 77.36 128.358 77.4333 128.878 77.58C129.398 77.7133 129.864 77.8867 130.278 78.1L129.778 79.58C129.418 79.3667 129.004 79.1933 128.538 79.06C128.084 78.9267 127.578 78.86 127.018 78.86C126.324 78.86 125.798 79 125.438 79.28C125.078 79.56 124.898 79.8667 124.898 80.2C124.898 80.52 125.038 80.7933 125.318 81.02C125.598 81.2467 126.144 81.4933 126.958 81.76C128.278 82.2 129.198 82.6867 129.718 83.22C130.238 83.7533 130.498 84.42 130.498 85.22C130.498 86.1533 130.118 86.8933 129.358 87.44C128.611 87.9733 127.604 88.24 126.338 88.24ZM141.689 88.24C140.902 88.24 140.189 88.14 139.549 87.94C138.922 87.74 138.402 87.48 137.989 87.16L138.749 85.66C139.096 85.9533 139.529 86.2 140.049 86.4C140.582 86.5867 141.149 86.68 141.749 86.68C142.496 86.68 143.056 86.56 143.429 86.32C143.816 86.0667 144.009 85.7467 144.009 85.36C144.009 85.08 143.936 84.8333 143.789 84.62C143.656 84.4067 143.402 84.2 143.029 84C142.656 83.7867 142.116 83.56 141.409 83.32C140.436 82.9867 139.702 82.5933 139.209 82.14C138.729 81.6733 138.489 81.0333 138.489 80.22C138.489 79.42 138.836 78.7467 139.529 78.2C140.236 77.64 141.209 77.36 142.449 77.36C143.116 77.36 143.709 77.4333 144.229 77.58C144.749 77.7133 145.216 77.8867 145.629 78.1L145.129 79.58C144.769 79.3667 144.356 79.1933 143.889 79.06C143.436 78.9267 142.929 78.86 142.369 78.86C141.676 78.86 141.149 79 140.789 79.28C140.429 79.56 140.249 79.8667 140.249 80.2C140.249 80.52 140.389 80.7933 140.669 81.02C140.949 81.2467 141.496 81.4933 142.309 81.76C143.629 82.2 144.549 82.6867 145.069 83.22C145.589 83.7533 145.849 84.42 145.849 85.22C145.849 86.1533 145.469 86.8933 144.709 87.44C143.962 87.9733 142.956 88.24 141.689 88.24ZM151.645 88.24C151.045 88.24 150.478 88.1133 149.945 87.86C149.411 87.6067 148.978 87.2 148.645 86.64C148.311 86.0667 148.145 85.3067 148.145 84.36V77.6H149.945V84.12C149.945 84.9333 150.118 85.56 150.465 86C150.811 86.4267 151.318 86.64 151.985 86.64C152.531 86.64 153.058 86.5333 153.565 86.32C154.085 86.0933 154.545 85.7933 154.945 85.42V77.6H156.745V85.3C156.745 85.8733 156.865 86.2533 157.105 86.44C157.358 86.6133 157.631 86.7 157.925 86.7L157.545 88.1C156.305 88.1 155.538 87.6067 155.245 86.62C154.778 87.1 154.238 87.4933 153.625 87.8C153.011 88.0933 152.351 88.24 151.645 88.24ZM164.32 88.24C163.333 88.24 162.466 88.0133 161.72 87.56C160.986 87.0933 160.42 86.4533 160.02 85.64C159.62 84.8133 159.42 83.8667 159.42 82.8C159.42 81.8 159.62 80.8867 160.02 80.06C160.433 79.2333 161.02 78.58 161.78 78.1C162.54 77.6067 163.433 77.36 164.46 77.36C165.046 77.36 165.56 77.4133 166 77.52C166.453 77.6267 166.886 77.78 167.3 77.98L166.76 79.5C166.386 79.3133 166.026 79.18 165.68 79.1C165.346 79.0067 164.973 78.96 164.56 78.96C163.626 78.96 162.84 79.3 162.2 79.98C161.573 80.6467 161.26 81.5733 161.26 82.76C161.26 83.48 161.393 84.1333 161.66 84.72C161.926 85.3067 162.293 85.7733 162.76 86.12C163.24 86.4667 163.8 86.64 164.44 86.64C164.946 86.64 165.38 86.5867 165.74 86.48C166.1 86.36 166.486 86.1933 166.9 85.98L167.46 87.5C167.046 87.7267 166.58 87.9067 166.06 88.04C165.553 88.1733 164.973 88.24 164.32 88.24ZM173.558 88.24C172.571 88.24 171.704 88.0133 170.958 87.56C170.224 87.0933 169.658 86.4533 169.258 85.64C168.858 84.8133 168.658 83.8667 168.658 82.8C168.658 81.8 168.858 80.8867 169.258 80.06C169.671 79.2333 170.258 78.58 171.018 78.1C171.778 77.6067 172.671 77.36 173.698 77.36C174.284 77.36 174.798 77.4133 175.238 77.52C175.691 77.6267 176.124 77.78 176.538 77.98L175.998 79.5C175.624 79.3133 175.264 79.18 174.918 79.1C174.584 79.0067 174.211 78.96 173.798 78.96C172.864 78.96 172.078 79.3 171.438 79.98C170.811 80.6467 170.498 81.5733 170.498 82.76C170.498 83.48 170.631 84.1333 170.898 84.72C171.164 85.3067 171.531 85.7733 171.998 86.12C172.478 86.4667 173.038 86.64 173.678 86.64C174.184 86.64 174.618 86.5867 174.978 86.48C175.338 86.36 175.724 86.1933 176.138 85.98L176.698 87.5C176.284 87.7267 175.818 87.9067 175.298 88.04C174.791 88.1733 174.211 88.24 173.558 88.24ZM182.756 88.24C181.263 88.24 180.076 87.7667 179.196 86.82C178.329 85.86 177.896 84.52 177.896 82.8C177.896 81.76 178.089 80.8333 178.476 80.02C178.876 79.1933 179.429 78.5467 180.136 78.08C180.843 77.6 181.663 77.36 182.596 77.36C183.596 77.36 184.423 77.58 185.076 78.02C185.743 78.4467 186.243 79.0267 186.576 79.76C186.909 80.4933 187.076 81.3 187.076 82.18C187.076 82.6467 187.056 83.1 187.016 83.54H179.736C179.856 84.5133 180.196 85.2733 180.756 85.82C181.316 86.3667 182.056 86.64 182.976 86.64C183.576 86.64 184.116 86.58 184.596 86.46C185.076 86.3267 185.536 86.16 185.976 85.96L186.396 87.5C185.916 87.7133 185.376 87.8867 184.776 88.02C184.176 88.1667 183.503 88.24 182.756 88.24ZM179.716 82.08H185.416C185.416 81.0667 185.163 80.2867 184.656 79.74C184.149 79.1933 183.449 78.92 182.556 78.92C181.783 78.92 181.143 79.1933 180.636 79.74C180.129 80.2733 179.823 81.0533 179.716 82.08ZM192.275 88.24C191.488 88.24 190.775 88.14 190.135 87.94C189.508 87.74 188.988 87.48 188.575 87.16L189.335 85.66C189.682 85.9533 190.115 86.2 190.635 86.4C191.168 86.5867 191.735 86.68 192.335 86.68C193.082 86.68 193.642 86.56 194.015 86.32C194.402 86.0667 194.595 85.7467 194.595 85.36C194.595 85.08 194.522 84.8333 194.375 84.62C194.242 84.4067 193.988 84.2 193.615 84C193.242 83.7867 192.702 83.56 191.995 83.32C191.022 82.9867 190.288 82.5933 189.795 82.14C189.315 81.6733 189.075 81.0333 189.075 80.22C189.075 79.42 189.422 78.7467 190.115 78.2C190.822 77.64 191.795 77.36 193.035 77.36C193.702 77.36 194.295 77.4333 194.815 77.58C195.335 77.7133 195.802 77.8867 196.215 78.1L195.715 79.58C195.355 79.3667 194.942 79.1933 194.475 79.06C194.022 78.9267 193.515 78.86 192.955 78.86C192.262 78.86 191.735 79 191.375 79.28C191.015 79.56 190.835 79.8667 190.835 80.2C190.835 80.52 190.975 80.7933 191.255 81.02C191.535 81.2467 192.082 81.4933 192.895 81.76C194.215 82.2 195.135 82.6867 195.655 83.22C196.175 83.7533 196.435 84.42 196.435 85.22C196.435 86.1533 196.055 86.8933 195.295 87.44C194.548 87.9733 193.542 88.24 192.275 88.24ZM201.63 88.24C200.844 88.24 200.13 88.14 199.49 87.94C198.864 87.74 198.344 87.48 197.93 87.16L198.69 85.66C199.037 85.9533 199.47 86.2 199.99 86.4C200.524 86.5867 201.09 86.68 201.69 86.68C202.437 86.68 202.997 86.56 203.37 86.32C203.757 86.0667 203.95 85.7467 203.95 85.36C203.95 85.08 203.877 84.8333 203.73 84.62C203.597 84.4067 203.344 84.2 202.97 84C202.597 83.7867 202.057 83.56 201.35 83.32C200.377 82.9867 199.644 82.5933 199.15 82.14C198.67 81.6733 198.43 81.0333 198.43 80.22C198.43 79.42 198.777 78.7467 199.47 78.2C200.177 77.64 201.15 77.36 202.39 77.36C203.057 77.36 203.65 77.4333 204.17 77.58C204.69 77.7133 205.157 77.8867 205.57 78.1L205.07 79.58C204.71 79.3667 204.297 79.1933 203.83 79.06C203.377 78.9267 202.87 78.86 202.31 78.86C201.617 78.86 201.09 79 200.73 79.28C200.37 79.56 200.19 79.8667 200.19 80.2C200.19 80.52 200.33 80.7933 200.61 81.02C200.89 81.2467 201.437 81.4933 202.25 81.76C203.57 82.2 204.49 82.6867 205.01 83.22C205.53 83.7533 205.79 84.42 205.79 85.22C205.79 86.1533 205.41 86.8933 204.65 87.44C203.904 87.9733 202.897 88.24 201.63 88.24ZM212.346 88.24C210.853 88.24 209.666 87.7667 208.786 86.82C207.919 85.86 207.486 84.52 207.486 82.8C207.486 81.76 207.679 80.8333 208.066 80.02C208.466 79.1933 209.019 78.5467 209.726 78.08C210.433 77.6 211.253 77.36 212.186 77.36C213.186 77.36 214.013 77.58 214.666 78.02C215.333 78.4467 215.833 79.0267 216.166 79.76C216.499 80.4933 216.666 81.3 216.666 82.18C216.666 82.6467 216.646 83.1 216.606 83.54H209.326C209.446 84.5133 209.786 85.2733 210.346 85.82C210.906 86.3667 211.646 86.64 212.566 86.64C213.166 86.64 213.706 86.58 214.186 86.46C214.666 86.3267 215.126 86.16 215.566 85.96L215.986 87.5C215.506 87.7133 214.966 87.8867 214.366 88.02C213.766 88.1667 213.093 88.24 212.346 88.24ZM209.306 82.08H215.006C215.006 81.0667 214.753 80.2867 214.246 79.74C213.739 79.1933 213.039 78.92 212.146 78.92C211.373 78.92 210.733 79.1933 210.226 79.74C209.719 80.2733 209.413 81.0533 209.306 82.08ZM222.465 88.24C221.865 88.24 221.298 88.1133 220.765 87.86C220.232 87.6067 219.798 87.2 219.465 86.64C219.132 86.0667 218.965 85.3067 218.965 84.36V77.6H220.765V84.12C220.765 84.9333 220.938 85.56 221.285 86C221.632 86.4267 222.138 86.64 222.805 86.64C223.352 86.64 223.878 86.5333 224.385 86.32C224.905 86.0933 225.365 85.7933 225.765 85.42V77.6H227.565V85.3C227.565 85.8733 227.685 86.2533 227.925 86.44C228.178 86.6133 228.452 86.7 228.745 86.7L228.365 88.1C227.125 88.1 226.358 87.6067 226.065 86.62C225.598 87.1 225.058 87.4933 224.445 87.8C223.832 88.0933 223.172 88.24 222.465 88.24ZM231.135 88V77.6H232.875V79.86C233.048 79.42 233.282 79.0133 233.575 78.64C233.868 78.2533 234.235 77.9467 234.675 77.72C235.115 77.48 235.628 77.36 236.215 77.36C236.415 77.36 236.615 77.3733 236.815 77.4C237.015 77.4133 237.182 77.44 237.315 77.48L236.775 79.34C236.522 79.2333 236.222 79.18 235.875 79.18C235.382 79.18 234.908 79.32 234.455 79.6C234.015 79.88 233.648 80.3133 233.355 80.9C233.075 81.4867 232.935 82.2333 232.935 83.14V88H231.135ZM241.416 88.24C240.629 88.24 239.916 88.14 239.276 87.94C238.649 87.74 238.129 87.48 237.716 87.16L238.476 85.66C238.822 85.9533 239.256 86.2 239.776 86.4C240.309 86.5867 240.876 86.68 241.476 86.68C242.222 86.68 242.782 86.56 243.156 86.32C243.542 86.0667 243.736 85.7467 243.736 85.36C243.736 85.08 243.662 84.8333 243.516 84.62C243.382 84.4067 243.129 84.2 242.756 84C242.382 83.7867 241.842 83.56 241.136 83.32C240.162 82.9867 239.429 82.5933 238.936 82.14C238.456 81.6733 238.216 81.0333 238.216 80.22C238.216 79.42 238.562 78.7467 239.256 78.2C239.962 77.64 240.936 77.36 242.176 77.36C242.842 77.36 243.436 77.4333 243.956 77.58C244.476 77.7133 244.942 77.8867 245.356 78.1L244.856 79.58C244.496 79.3667 244.082 79.1933 243.616 79.06C243.162 78.9267 242.656 78.86 242.096 78.86C241.402 78.86 240.876 79 240.516 79.28C240.156 79.56 239.976 79.8667 239.976 80.2C239.976 80.52 240.116 80.7933 240.396 81.02C240.676 81.2467 241.222 81.4933 242.036 81.76C243.356 82.2 244.276 82.6867 244.796 83.22C245.316 83.7533 245.576 84.42 245.576 85.22C245.576 86.1533 245.196 86.8933 244.436 87.44C243.689 87.9733 242.682 88.24 241.416 88.24ZM257.907 88.24C257.054 88.24 256.274 88.02 255.567 87.58C254.861 87.14 254.301 86.52 253.887 85.72C253.474 84.9067 253.267 83.9533 253.267 82.86C253.267 81.8067 253.474 80.8667 253.887 80.04C254.314 79.2133 254.874 78.56 255.567 78.08C256.274 77.6 257.047 77.36 257.887 77.36C258.581 77.36 259.174 77.5 259.667 77.78C260.174 78.06 260.567 78.3467 260.847 78.64V73.2H262.647V85.48C262.647 85.9867 262.767 86.32 263.007 86.48C263.261 86.6267 263.534 86.7 263.827 86.7L263.447 88.1C262.181 88.1 261.407 87.5933 261.127 86.58C260.834 86.9933 260.421 87.3733 259.887 87.72C259.367 88.0667 258.707 88.24 257.907 88.24ZM258.307 86.64C258.801 86.64 259.267 86.5267 259.707 86.3C260.161 86.06 260.541 85.7533 260.847 85.38V80.22C260.594 79.9 260.241 79.6067 259.787 79.34C259.334 79.06 258.834 78.92 258.287 78.92C257.647 78.92 257.087 79.0933 256.607 79.44C256.127 79.7867 255.754 80.2533 255.487 80.84C255.234 81.4133 255.107 82.0667 255.107 82.8C255.107 83.5333 255.247 84.1933 255.527 84.78C255.807 85.3533 256.187 85.8067 256.667 86.14C257.161 86.4733 257.707 86.64 258.307 86.64ZM266.353 77.96L265.893 77.26C266.586 76.78 266.999 76.1733 267.133 75.44C267.013 75.4933 266.873 75.52 266.713 75.52C266.339 75.52 266.033 75.4 265.793 75.16C265.553 74.92 265.433 74.6133 265.433 74.24C265.433 73.8533 265.559 73.5467 265.813 73.32C266.066 73.08 266.386 72.96 266.773 72.96C267.239 72.96 267.619 73.1133 267.913 73.42C268.219 73.7267 268.373 74.1667 268.373 74.74C268.373 75.3533 268.193 75.96 267.833 76.56C267.486 77.1467 266.993 77.6133 266.353 77.96ZM270.964 88V74H279.364V75.64H272.864V79.9H278.464V81.5H272.864V86.36H279.364V88H270.964ZM284.463 88.24C283.676 88.24 282.963 88.14 282.323 87.94C281.696 87.74 281.176 87.48 280.763 87.16L281.523 85.66C281.869 85.9533 282.303 86.2 282.823 86.4C283.356 86.5867 283.923 86.68 284.523 86.68C285.269 86.68 285.829 86.56 286.203 86.32C286.589 86.0667 286.783 85.7467 286.783 85.36C286.783 85.08 286.709 84.8333 286.563 84.62C286.429 84.4067 286.176 84.2 285.803 84C285.429 83.7867 284.889 83.56 284.183 83.32C283.209 82.9867 282.476 82.5933 281.983 82.14C281.503 81.6733 281.263 81.0333 281.263 80.22C281.263 79.42 281.609 78.7467 282.303 78.2C283.009 77.64 283.983 77.36 285.223 77.36C285.889 77.36 286.483 77.4333 287.003 77.58C287.523 77.7133 287.989 77.8867 288.403 78.1L287.903 79.58C287.543 79.3667 287.129 79.1933 286.663 79.06C286.209 78.9267 285.703 78.86 285.143 78.86C284.449 78.86 283.923 79 283.563 79.28C283.203 79.56 283.023 79.8667 283.023 80.2C283.023 80.52 283.163 80.7933 283.443 81.02C283.723 81.2467 284.269 81.4933 285.083 81.76C286.403 82.2 287.323 82.6867 287.843 83.22C288.363 83.7533 288.623 84.42 288.623 85.22C288.623 86.1533 288.243 86.8933 287.483 87.44C286.736 87.9733 285.729 88.24 284.463 88.24ZM295.218 88.24C294.231 88.24 293.365 88.0133 292.618 87.56C291.885 87.0933 291.318 86.4533 290.918 85.64C290.518 84.8133 290.318 83.8667 290.318 82.8C290.318 81.8 290.518 80.8867 290.918 80.06C291.331 79.2333 291.918 78.58 292.678 78.1C293.438 77.6067 294.331 77.36 295.358 77.36C295.945 77.36 296.458 77.4133 296.898 77.52C297.351 77.6267 297.785 77.78 298.198 77.98L297.658 79.5C297.285 79.3133 296.925 79.18 296.578 79.1C296.245 79.0067 295.871 78.96 295.458 78.96C294.525 78.96 293.738 79.3 293.098 79.98C292.471 80.6467 292.158 81.5733 292.158 82.76C292.158 83.48 292.291 84.1333 292.558 84.72C292.825 85.3067 293.191 85.7733 293.658 86.12C294.138 86.4667 294.698 86.64 295.338 86.64C295.845 86.64 296.278 86.5867 296.638 86.48C296.998 86.36 297.385 86.1933 297.798 85.98L298.358 87.5C297.945 87.7267 297.478 87.9067 296.958 88.04C296.451 88.1733 295.871 88.24 295.218 88.24ZM304.636 88.24C303.65 88.24 302.763 88.0133 301.976 87.56C301.19 87.0933 300.57 86.4533 300.116 85.64C299.676 84.8133 299.456 83.8667 299.456 82.8C299.456 81.68 299.683 80.7133 300.136 79.9C300.59 79.0867 301.21 78.46 301.996 78.02C302.783 77.58 303.663 77.36 304.636 77.36C305.61 77.36 306.483 77.58 307.256 78.02C308.043 78.46 308.663 79.0867 309.116 79.9C309.583 80.7 309.816 81.6533 309.816 82.76C309.816 83.8667 309.59 84.8333 309.136 85.66C308.683 86.4733 308.063 87.1067 307.276 87.56C306.503 88.0133 305.623 88.24 304.636 88.24ZM304.636 86.64C305.69 86.64 306.51 86.2867 307.096 85.58C307.683 84.86 307.976 83.9333 307.976 82.8C307.976 82.1067 307.83 81.4733 307.536 80.9C307.243 80.3133 306.843 79.8467 306.336 79.5C305.843 79.14 305.276 78.96 304.636 78.96C303.583 78.96 302.763 79.3067 302.176 80C301.59 80.6933 301.296 81.6133 301.296 82.76C301.296 83.4533 301.443 84.1 301.736 84.7C302.03 85.2867 302.423 85.76 302.916 86.12C303.423 86.4667 303.996 86.64 304.636 86.64ZM316.889 88.24C316.289 88.24 315.723 88.1333 315.189 87.92C314.669 87.6933 314.236 87.4333 313.889 87.14V88H312.209V73.2H314.009V78.68C314.276 78.3733 314.663 78.08 315.169 77.8C315.689 77.5067 316.303 77.36 317.009 77.36C317.809 77.36 318.556 77.5733 319.249 78C319.956 78.4133 320.523 79.02 320.949 79.82C321.376 80.6067 321.589 81.5667 321.589 82.7C321.589 83.5267 321.456 84.28 321.189 84.96C320.923 85.64 320.563 86.2267 320.109 86.72C319.669 87.2 319.169 87.5733 318.609 87.84C318.049 88.1067 317.476 88.24 316.889 88.24ZM316.409 86.64C317.063 86.64 317.636 86.48 318.129 86.16C318.636 85.84 319.029 85.3867 319.309 84.8C319.603 84.2133 319.749 83.5333 319.749 82.76C319.749 81.96 319.603 81.2733 319.309 80.7C319.029 80.1267 318.649 79.6867 318.169 79.38C317.703 79.0733 317.183 78.92 316.609 78.92C316.036 78.92 315.516 79.0667 315.049 79.36C314.596 79.64 314.249 79.9467 314.009 80.28V85.84C314.316 86.08 314.676 86.2733 315.089 86.42C315.503 86.5667 315.943 86.64 316.409 86.64ZM328.064 88.24C327.198 88.24 326.411 88.02 325.704 87.58C324.998 87.14 324.431 86.52 324.004 85.72C323.591 84.9067 323.384 83.9533 323.384 82.86C323.384 81.82 323.591 80.8867 324.004 80.06C324.431 79.2333 325.011 78.58 325.744 78.1C326.491 77.6067 327.344 77.36 328.304 77.36C328.904 77.36 329.444 77.4667 329.924 77.68C330.418 77.88 330.844 78.1333 331.204 78.44V77.6H332.844V85.48C332.844 85.9867 332.964 86.32 333.204 86.48C333.458 86.6267 333.731 86.7 334.024 86.7L333.644 88.1C332.364 88.1 331.591 87.58 331.324 86.54C331.018 86.9667 330.598 87.36 330.064 87.72C329.544 88.0667 328.878 88.24 328.064 88.24ZM328.464 86.64C328.971 86.64 329.451 86.52 329.904 86.28C330.358 86.0267 330.738 85.7133 331.044 85.34V79.76C330.684 79.5067 330.284 79.3067 329.844 79.16C329.418 79 328.964 78.92 328.484 78.92C327.844 78.92 327.278 79.0867 326.784 79.42C326.304 79.74 325.924 80.1933 325.644 80.78C325.364 81.3533 325.224 82.0267 325.224 82.8C325.224 83.5467 325.364 84.2133 325.644 84.8C325.924 85.3733 326.311 85.8267 326.804 86.16C327.298 86.48 327.851 86.64 328.464 86.64ZM336.428 88V77.6H338.168V79.86C338.341 79.42 338.575 79.0133 338.868 78.64C339.161 78.2533 339.528 77.9467 339.968 77.72C340.408 77.48 340.921 77.36 341.508 77.36C341.708 77.36 341.908 77.3733 342.108 77.4C342.308 77.4133 342.475 77.44 342.608 77.48L342.068 79.34C341.815 79.2333 341.515 79.18 341.168 79.18C340.675 79.18 340.201 79.32 339.748 79.6C339.308 79.88 338.941 80.3133 338.648 80.9C338.368 81.4867 338.228 82.2333 338.228 83.14V88H336.428ZM350.793 92.4V80.26C350.793 79.8067 350.679 79.4867 350.453 79.3C350.239 79.1 349.959 79 349.613 79L349.993 77.6C351.219 77.6 351.986 78.0867 352.293 79.06C352.426 78.86 352.639 78.6267 352.933 78.36C353.239 78.0933 353.613 77.86 354.053 77.66C354.506 77.46 355.019 77.36 355.593 77.36C356.393 77.36 357.139 77.5733 357.833 78C358.539 78.4133 359.106 79.02 359.533 79.82C359.959 80.6067 360.173 81.5667 360.173 82.7C360.173 83.8067 359.959 84.78 359.533 85.62C359.106 86.4467 358.546 87.0933 357.853 87.56C357.173 88.0133 356.433 88.24 355.633 88.24C355.019 88.24 354.446 88.12 353.913 87.88C353.379 87.6267 352.939 87.34 352.593 87.02V92.4H350.793ZM355.273 86.64C356.179 86.64 356.913 86.2867 357.473 85.58C358.046 84.86 358.333 83.92 358.333 82.76C358.333 81.96 358.186 81.2733 357.893 80.7C357.613 80.1267 357.233 79.6867 356.753 79.38C356.286 79.0733 355.766 78.92 355.193 78.92C354.619 78.92 354.099 79.0667 353.633 79.36C353.179 79.64 352.833 79.9467 352.593 80.28V85.4C352.939 85.76 353.339 86.06 353.793 86.3C354.246 86.5267 354.739 86.64 355.273 86.64ZM366.658 88.24C365.791 88.24 365.005 88.02 364.298 87.58C363.591 87.14 363.025 86.52 362.598 85.72C362.185 84.9067 361.978 83.9533 361.978 82.86C361.978 81.82 362.185 80.8867 362.598 80.06C363.025 79.2333 363.605 78.58 364.338 78.1C365.085 77.6067 365.938 77.36 366.898 77.36C367.498 77.36 368.038 77.4667 368.518 77.68C369.011 77.88 369.438 78.1333 369.798 78.44V77.6H371.438V85.48C371.438 85.9867 371.558 86.32 371.798 86.48C372.051 86.6267 372.325 86.7 372.618 86.7L372.238 88.1C370.958 88.1 370.185 87.58 369.918 86.54C369.611 86.9667 369.191 87.36 368.658 87.72C368.138 88.0667 367.471 88.24 366.658 88.24ZM367.058 86.64C367.565 86.64 368.045 86.52 368.498 86.28C368.951 86.0267 369.331 85.7133 369.638 85.34V79.76C369.278 79.5067 368.878 79.3067 368.438 79.16C368.011 79 367.558 78.92 367.078 78.92C366.438 78.92 365.871 79.0867 365.378 79.42C364.898 79.74 364.518 80.1933 364.238 80.78C363.958 81.3533 363.818 82.0267 363.818 82.8C363.818 83.5467 363.958 84.2133 364.238 84.8C364.518 85.3733 364.905 85.8267 365.398 86.16C365.891 86.48 366.445 86.64 367.058 86.64ZM377.822 88.24C377.035 88.24 376.322 88.14 375.682 87.94C375.055 87.74 374.535 87.48 374.122 87.16L374.882 85.66C375.229 85.9533 375.662 86.2 376.182 86.4C376.715 86.5867 377.282 86.68 377.882 86.68C378.629 86.68 379.189 86.56 379.562 86.32C379.949 86.0667 380.142 85.7467 380.142 85.36C380.142 85.08 380.069 84.8333 379.922 84.62C379.789 84.4067 379.535 84.2 379.162 84C378.789 83.7867 378.249 83.56 377.542 83.32C376.569 82.9867 375.835 82.5933 375.342 82.14C374.862 81.6733 374.622 81.0333 374.622 80.22C374.622 79.42 374.969 78.7467 375.662 78.2C376.369 77.64 377.342 77.36 378.582 77.36C379.249 77.36 379.842 77.4333 380.362 77.58C380.882 77.7133 381.349 77.8867 381.762 78.1L381.262 79.58C380.902 79.3667 380.489 79.1933 380.022 79.06C379.569 78.9267 379.062 78.86 378.502 78.86C377.809 78.86 377.282 79 376.922 79.28C376.562 79.56 376.382 79.8667 376.382 80.2C376.382 80.52 376.522 80.7933 376.802 81.02C377.082 81.2467 377.629 81.4933 378.442 81.76C379.762 82.2 380.682 82.6867 381.202 83.22C381.722 83.7533 381.982 84.42 381.982 85.22C381.982 86.1533 381.602 86.8933 380.842 87.44C380.095 87.9733 379.089 88.24 377.822 88.24ZM387.177 88.24C386.391 88.24 385.677 88.14 385.037 87.94C384.411 87.74 383.891 87.48 383.477 87.16L384.237 85.66C384.584 85.9533 385.017 86.2 385.537 86.4C386.071 86.5867 386.637 86.68 387.237 86.68C387.984 86.68 388.544 86.56 388.917 86.32C389.304 86.0667 389.497 85.7467 389.497 85.36C389.497 85.08 389.424 84.8333 389.277 84.62C389.144 84.4067 388.891 84.2 388.517 84C388.144 83.7867 387.604 83.56 386.897 83.32C385.924 82.9867 385.191 82.5933 384.697 82.14C384.217 81.6733 383.977 81.0333 383.977 80.22C383.977 79.42 384.324 78.7467 385.017 78.2C385.724 77.64 386.697 77.36 387.937 77.36C388.604 77.36 389.197 77.4333 389.717 77.58C390.237 77.7133 390.704 77.8867 391.117 78.1L390.617 79.58C390.257 79.3667 389.844 79.1933 389.377 79.06C388.924 78.9267 388.417 78.86 387.857 78.86C387.164 78.86 386.637 79 386.277 79.28C385.917 79.56 385.737 79.8667 385.737 80.2C385.737 80.52 385.877 80.7933 386.157 81.02C386.437 81.2467 386.984 81.4933 387.797 81.76C389.117 82.2 390.037 82.6867 390.557 83.22C391.077 83.7533 391.337 84.42 391.337 85.22C391.337 86.1533 390.957 86.8933 390.197 87.44C389.451 87.9733 388.444 88.24 387.177 88.24ZM397.893 88.24C396.399 88.24 395.213 87.7667 394.333 86.82C393.466 85.86 393.033 84.52 393.033 82.8C393.033 81.76 393.226 80.8333 393.613 80.02C394.013 79.1933 394.566 78.5467 395.273 78.08C395.979 77.6 396.799 77.36 397.733 77.36C398.733 77.36 399.559 77.58 400.213 78.02C400.879 78.4467 401.379 79.0267 401.713 79.76C402.046 80.4933 402.213 81.3 402.213 82.18C402.213 82.6467 402.193 83.1 402.153 83.54H394.873C394.993 84.5133 395.333 85.2733 395.893 85.82C396.453 86.3667 397.193 86.64 398.113 86.64C398.713 86.64 399.253 86.58 399.733 86.46C400.213 86.3267 400.673 86.16 401.113 85.96L401.533 87.5C401.053 87.7133 400.513 87.8867 399.913 88.02C399.313 88.1667 398.639 88.24 397.893 88.24ZM394.853 82.08H400.553C400.553 81.0667 400.299 80.2867 399.793 79.74C399.286 79.1933 398.586 78.92 397.693 78.92C396.919 78.92 396.279 79.1933 395.773 79.74C395.266 80.2733 394.959 81.0533 394.853 82.08ZM404.612 88V77.6H406.352V79.34C406.725 78.78 407.198 78.3133 407.772 77.94C408.358 77.5533 409.052 77.36 409.852 77.36C411.025 77.36 411.898 77.7133 412.472 78.42C413.058 79.1267 413.352 80.06 413.352 81.22V88H411.552V81.42C411.552 80.6733 411.372 80.0733 411.012 79.62C410.665 79.1667 410.178 78.94 409.552 78.94C408.938 78.94 408.358 79.16 407.812 79.6C407.265 80.0267 406.798 80.5333 406.412 81.12V88H404.612ZM420.088 88.24C419.088 88.24 418.294 87.9133 417.708 87.26C417.134 86.5933 416.848 85.6467 416.848 84.42V79.54H415.048V77.98H416.888L417.268 74.7H418.648V77.98H421.528V79.54H418.648V84.56C418.648 85.3333 418.808 85.8733 419.128 86.18C419.461 86.4867 419.854 86.64 420.308 86.64C420.641 86.64 420.954 86.5867 421.248 86.48C421.554 86.3733 421.834 86.2467 422.088 86.1L422.588 87.54C422.321 87.7 421.961 87.8533 421.508 88C421.054 88.16 420.581 88.24 420.088 88.24ZM6.58 116.24C5.71333 116.24 4.92667 116.02 4.22 115.58C3.51333 115.14 2.94667 114.52 2.52 113.72C2.10667 112.907 1.9 111.953 1.9 110.86C1.9 109.82 2.10667 108.887 2.52 108.06C2.94667 107.233 3.52667 106.58 4.26 106.1C5.00667 105.607 5.86 105.36 6.82 105.36C7.42 105.36 7.96 105.467 8.44 105.68C8.93333 105.88 9.36 106.133 9.72 106.44V105.6H11.36V113.48C11.36 113.987 11.48 114.32 11.72 114.48C11.9733 114.627 12.2467 114.7 12.54 114.7L12.16 116.1C10.88 116.1 10.1067 115.58 9.84 114.54C9.53333 114.967 9.11333 115.36 8.58 115.72C8.06 116.067 7.39333 116.24 6.58 116.24ZM6.98 114.64C7.48667 114.64 7.96667 114.52 8.42 114.28C8.87333 114.027 9.25333 113.713 9.56 113.34V107.76C9.2 107.507 8.8 107.307 8.36 107.16C7.93333 107 7.48 106.92 7 106.92C6.36 106.92 5.79333 107.087 5.3 107.42C4.82 107.74 4.44 108.193 4.16 108.78C3.88 109.353 3.74 110.027 3.74 110.8C3.74 111.547 3.88 112.213 4.16 112.8C4.44 113.373 4.82667 113.827 5.32 114.16C5.81333 114.48 6.36667 114.64 6.98 114.64ZM8.86 104.5L4.86 102.46L5.7 100.78L9.48 103.28L8.86 104.5ZM24.0998 116.24C23.4865 116.24 22.9332 116.127 22.4398 115.9C21.9465 115.66 21.5532 115.28 21.2598 114.76C20.9798 114.24 20.8398 113.567 20.8398 112.74V101.2H22.6398V112.56C22.6398 113.28 22.7865 113.813 23.0798 114.16C23.3865 114.507 23.8065 114.68 24.3398 114.68C24.5932 114.68 24.8398 114.653 25.0798 114.6C25.3332 114.533 25.5465 114.46 25.7198 114.38L26.1598 115.84C25.9198 115.947 25.6198 116.04 25.2598 116.12C24.9132 116.2 24.5265 116.24 24.0998 116.24ZM26.9778 105.96L26.5178 105.26C27.2111 104.78 27.6245 104.173 27.7578 103.44C27.6378 103.493 27.4978 103.52 27.3378 103.52C26.9645 103.52 26.6578 103.4 26.4178 103.16C26.1778 102.92 26.0578 102.613 26.0578 102.24C26.0578 101.853 26.1845 101.547 26.4378 101.32C26.6911 101.08 27.0111 100.96 27.3978 100.96C27.8645 100.96 28.2445 101.113 28.5378 101.42C28.8445 101.727 28.9978 102.167 28.9978 102.74C28.9978 103.353 28.8178 103.96 28.4578 104.56C28.1111 105.147 27.6178 105.613 26.9778 105.96ZM35.3691 116.24C34.5024 116.24 33.7157 116.02 33.0091 115.58C32.3024 115.14 31.7357 114.52 31.3091 113.72C30.8957 112.907 30.6891 111.953 30.6891 110.86C30.6891 109.82 30.8957 108.887 31.3091 108.06C31.7357 107.233 32.3157 106.58 33.0491 106.1C33.7957 105.607 34.6491 105.36 35.6091 105.36C36.2091 105.36 36.7491 105.467 37.2291 105.68C37.7224 105.88 38.1491 106.133 38.5091 106.44V105.6H40.1491V113.48C40.1491 113.987 40.2691 114.32 40.5091 114.48C40.7624 114.627 41.0357 114.7 41.3291 114.7L40.9491 116.1C39.6691 116.1 38.8957 115.58 38.6291 114.54C38.3224 114.967 37.9024 115.36 37.3691 115.72C36.8491 116.067 36.1824 116.24 35.3691 116.24ZM35.7691 114.64C36.2757 114.64 36.7557 114.52 37.2091 114.28C37.6624 114.027 38.0424 113.713 38.3491 113.34V107.76C37.9891 107.507 37.5891 107.307 37.1491 107.16C36.7224 107 36.2691 106.92 35.7891 106.92C35.1491 106.92 34.5824 107.087 34.0891 107.42C33.6091 107.74 33.2291 108.193 32.9491 108.78C32.6691 109.353 32.5291 110.027 32.5291 110.8C32.5291 111.547 32.6691 112.213 32.9491 112.8C33.2291 113.373 33.6157 113.827 34.1091 114.16C34.6024 114.48 35.1557 114.64 35.7691 114.64ZM47.7375 116.24C46.7508 116.24 45.8842 116.013 45.1375 115.56C44.4042 115.093 43.8375 114.453 43.4375 113.64C43.0375 112.813 42.8375 111.867 42.8375 110.8C42.8375 109.8 43.0375 108.887 43.4375 108.06C43.8508 107.233 44.4375 106.58 45.1975 106.1C45.9575 105.607 46.8508 105.36 47.8775 105.36C48.4642 105.36 48.9775 105.413 49.4175 105.52C49.8708 105.627 50.3042 105.78 50.7175 105.98L50.1775 107.5C49.8042 107.313 49.4442 107.18 49.0975 107.1C48.7642 107.007 48.3908 106.96 47.9775 106.96C47.0442 106.96 46.2575 107.3 45.6175 107.98C44.9908 108.647 44.6775 109.573 44.6775 110.76C44.6775 111.48 44.8108 112.133 45.0775 112.72C45.3442 113.307 45.7108 113.773 46.1775 114.12C46.6575 114.467 47.2175 114.64 47.8575 114.64C48.3642 114.64 48.7975 114.587 49.1575 114.48C49.5175 114.36 49.9042 114.193 50.3175 113.98L50.8775 115.5C50.4642 115.727 49.9975 115.907 49.4775 116.04C48.9708 116.173 48.3908 116.24 47.7375 116.24ZM56.6111 116.24C55.6111 116.24 54.8178 115.913 54.2311 115.26C53.6578 114.593 53.3711 113.647 53.3711 112.42V107.54H51.5711V105.98H53.4111L53.7911 102.7H55.1711V105.98H58.0511V107.54H55.1711V112.56C55.1711 113.333 55.3311 113.873 55.6511 114.18C55.9844 114.487 56.3778 114.64 56.8311 114.64C57.1644 114.64 57.4778 114.587 57.7711 114.48C58.0778 114.373 58.3578 114.247 58.6111 114.1L59.1111 115.54C58.8444 115.7 58.4844 115.853 58.0311 116C57.5778 116.16 57.1044 116.24 56.6111 116.24ZM60.9203 116V105.6H62.7203V116H60.9203ZM61.8203 103.82C61.4736 103.82 61.1736 103.693 60.9203 103.44C60.6803 103.187 60.5603 102.893 60.5603 102.56C60.5603 102.173 60.6736 101.867 60.9003 101.64C61.127 101.413 61.4336 101.3 61.8203 101.3C62.167 101.3 62.4603 101.427 62.7003 101.68C62.9536 101.92 63.0803 102.213 63.0803 102.56C63.0803 102.933 62.967 103.24 62.7403 103.48C62.5136 103.707 62.207 103.82 61.8203 103.82ZM70.3003 116.24C69.3136 116.24 68.427 116.013 67.6403 115.56C66.8536 115.093 66.2336 114.453 65.7803 113.64C65.3403 112.813 65.1203 111.867 65.1203 110.8C65.1203 109.68 65.347 108.713 65.8003 107.9C66.2536 107.087 66.8736 106.46 67.6603 106.02C68.447 105.58 69.327 105.36 70.3003 105.36C71.2736 105.36 72.147 105.58 72.9203 106.02C73.707 106.46 74.327 107.087 74.7803 107.9C75.247 108.7 75.4803 109.653 75.4803 110.76C75.4803 111.867 75.2536 112.833 74.8003 113.66C74.347 114.473 73.727 115.107 72.9403 115.56C72.167 116.013 71.287 116.24 70.3003 116.24ZM70.3003 114.64C71.3536 114.64 72.1736 114.287 72.7603 113.58C73.347 112.86 73.6403 111.933 73.6403 110.8C73.6403 110.107 73.4936 109.473 73.2003 108.9C72.907 108.313 72.507 107.847 72.0003 107.5C71.507 107.14 70.9403 106.96 70.3003 106.96C69.247 106.96 68.427 107.307 67.8403 108C67.2536 108.693 66.9603 109.613 66.9603 110.76C66.9603 111.453 67.107 112.1 67.4003 112.7C67.6936 113.287 68.087 113.76 68.5803 114.12C69.087 114.467 69.6603 114.64 70.3003 114.64ZM77.8734 116V105.6H79.6134V107.34C79.9868 106.78 80.4601 106.313 81.0334 105.94C81.6201 105.553 82.3134 105.36 83.1134 105.36C84.2868 105.36 85.1601 105.713 85.7334 106.42C86.3201 107.127 86.6134 108.06 86.6134 109.22V116H84.8134V109.42C84.8134 108.673 84.6334 108.073 84.2734 107.62C83.9268 107.167 83.4401 106.94 82.8134 106.94C82.2001 106.94 81.6201 107.16 81.0734 107.6C80.5268 108.027 80.0601 108.533 79.6734 109.12V116H77.8734ZM99.8655 116.24C98.3721 116.24 97.1855 115.767 96.3055 114.82C95.4388 113.86 95.0055 112.52 95.0055 110.8C95.0055 109.76 95.1988 108.833 95.5855 108.02C95.9855 107.193 96.5388 106.547 97.2455 106.08C97.9521 105.6 98.7721 105.36 99.7055 105.36C100.705 105.36 101.532 105.58 102.185 106.02C102.852 106.447 103.352 107.027 103.685 107.76C104.019 108.493 104.185 109.3 104.185 110.18C104.185 110.647 104.165 111.1 104.125 111.54H96.8455C96.9655 112.513 97.3055 113.273 97.8655 113.82C98.4255 114.367 99.1655 114.64 100.085 114.64C100.685 114.64 101.225 114.58 101.705 114.46C102.185 114.327 102.645 114.16 103.085 113.96L103.505 115.5C103.025 115.713 102.485 115.887 101.885 116.02C101.285 116.167 100.612 116.24 99.8655 116.24ZM96.8255 110.08H102.525C102.525 109.067 102.272 108.287 101.765 107.74C101.259 107.193 100.559 106.92 99.6655 106.92C98.8921 106.92 98.2521 107.193 97.7455 107.74C97.2388 108.273 96.9321 109.053 96.8255 110.08ZM110.224 116.24C109.224 116.24 108.431 115.913 107.844 115.26C107.271 114.593 106.984 113.647 106.984 112.42V107.54H105.184V105.98H107.024L107.404 102.7H108.784V105.98H111.664V107.54H108.784V112.56C108.784 113.333 108.944 113.873 109.264 114.18C109.598 114.487 109.991 114.64 110.444 114.64C110.778 114.64 111.091 114.587 111.384 114.48C111.691 114.373 111.971 114.247 112.224 114.1L112.724 115.54C112.458 115.7 112.098 115.853 111.644 116C111.191 116.16 110.718 116.24 110.224 116.24ZM124.47 116.24C123.616 116.24 122.836 116.02 122.13 115.58C121.423 115.14 120.863 114.52 120.45 113.72C120.036 112.907 119.83 111.953 119.83 110.86C119.83 109.807 120.036 108.867 120.45 108.04C120.876 107.213 121.436 106.56 122.13 106.08C122.836 105.6 123.61 105.36 124.45 105.36C125.143 105.36 125.736 105.5 126.23 105.78C126.736 106.06 127.13 106.347 127.41 106.64V101.2H129.21V113.48C129.21 113.987 129.33 114.32 129.57 114.48C129.823 114.627 130.096 114.7 130.39 114.7L130.01 116.1C128.743 116.1 127.97 115.593 127.69 114.58C127.396 114.993 126.983 115.373 126.45 115.72C125.93 116.067 125.27 116.24 124.47 116.24ZM124.87 114.64C125.363 114.64 125.83 114.527 126.27 114.3C126.723 114.06 127.103 113.753 127.41 113.38V108.22C127.156 107.9 126.803 107.607 126.35 107.34C125.896 107.06 125.396 106.92 124.85 106.92C124.21 106.92 123.65 107.093 123.17 107.44C122.69 107.787 122.316 108.253 122.05 108.84C121.796 109.413 121.67 110.067 121.67 110.8C121.67 111.533 121.81 112.193 122.09 112.78C122.37 113.353 122.75 113.807 123.23 114.14C123.723 114.473 124.27 114.64 124.87 114.64ZM136.76 116.24C135.267 116.24 134.08 115.767 133.2 114.82C132.333 113.86 131.9 112.52 131.9 110.8C131.9 109.76 132.093 108.833 132.48 108.02C132.88 107.193 133.433 106.547 134.14 106.08C134.847 105.6 135.667 105.36 136.6 105.36C137.6 105.36 138.427 105.58 139.08 106.02C139.747 106.447 140.247 107.027 140.58 107.76C140.913 108.493 141.08 109.3 141.08 110.18C141.08 110.647 141.06 111.1 141.02 111.54H133.74C133.86 112.513 134.2 113.273 134.76 113.82C135.32 114.367 136.06 114.64 136.98 114.64C137.58 114.64 138.12 114.58 138.6 114.46C139.08 114.327 139.54 114.16 139.98 113.96L140.4 115.5C139.92 115.713 139.38 115.887 138.78 116.02C138.18 116.167 137.507 116.24 136.76 116.24ZM133.72 110.08H139.42C139.42 109.067 139.167 108.287 138.66 107.74C138.153 107.193 137.453 106.92 136.56 106.92C135.787 106.92 135.147 107.193 134.64 107.74C134.133 108.273 133.827 109.053 133.72 110.08ZM134.94 104.5L134.32 103.28L138.1 100.78L138.94 102.46L134.94 104.5ZM147.679 116.24C146.692 116.24 145.826 116.013 145.079 115.56C144.346 115.093 143.779 114.453 143.379 113.64C142.979 112.813 142.779 111.867 142.779 110.8C142.779 109.8 142.979 108.887 143.379 108.06C143.792 107.233 144.379 106.58 145.139 106.1C145.899 105.607 146.792 105.36 147.819 105.36C148.406 105.36 148.919 105.413 149.359 105.52C149.812 105.627 150.246 105.78 150.659 105.98L150.119 107.5C149.746 107.313 149.386 107.18 149.039 107.1C148.706 107.007 148.332 106.96 147.919 106.96C146.986 106.96 146.199 107.3 145.559 107.98C144.932 108.647 144.619 109.573 144.619 110.76C144.619 111.48 144.752 112.133 145.019 112.72C145.286 113.307 145.652 113.773 146.119 114.12C146.599 114.467 147.159 114.64 147.799 114.64C148.306 114.64 148.739 114.587 149.099 114.48C149.459 114.36 149.846 114.193 150.259 113.98L150.819 115.5C150.406 115.727 149.939 115.907 149.419 116.04C148.912 116.173 148.332 116.24 147.679 116.24ZM155.877 116.24C155.264 116.24 154.711 116.127 154.217 115.9C153.724 115.66 153.331 115.28 153.037 114.76C152.757 114.24 152.617 113.567 152.617 112.74V101.2H154.417V112.56C154.417 113.28 154.564 113.813 154.857 114.16C155.164 114.507 155.584 114.68 156.117 114.68C156.371 114.68 156.617 114.653 156.857 114.6C157.111 114.533 157.324 114.46 157.497 114.38L157.937 115.84C157.697 115.947 157.397 116.04 157.037 116.12C156.691 116.2 156.304 116.24 155.877 116.24ZM163.318 116.24C162.452 116.24 161.665 116.02 160.958 115.58C160.252 115.14 159.685 114.52 159.258 113.72C158.845 112.907 158.638 111.953 158.638 110.86C158.638 109.82 158.845 108.887 159.258 108.06C159.685 107.233 160.265 106.58 160.998 106.1C161.745 105.607 162.598 105.36 163.558 105.36C164.158 105.36 164.698 105.467 165.178 105.68C165.672 105.88 166.098 106.133 166.458 106.44V105.6H168.098V113.48C168.098 113.987 168.218 114.32 168.458 114.48C168.712 114.627 168.985 114.7 169.278 114.7L168.898 116.1C167.618 116.1 166.845 115.58 166.578 114.54C166.272 114.967 165.852 115.36 165.318 115.72C164.798 116.067 164.132 116.24 163.318 116.24ZM163.718 114.64C164.225 114.64 164.705 114.52 165.158 114.28C165.612 114.027 165.992 113.713 166.298 113.34V107.76C165.938 107.507 165.538 107.307 165.098 107.16C164.672 107 164.218 106.92 163.738 106.92C163.098 106.92 162.532 107.087 162.038 107.42C161.558 107.74 161.178 108.193 160.898 108.78C160.618 109.353 160.478 110.027 160.478 110.8C160.478 111.547 160.618 112.213 160.898 112.8C161.178 113.373 161.565 113.827 162.058 114.16C162.552 114.48 163.105 114.64 163.718 114.64ZM171.682 116V105.6H173.422V107.86C173.595 107.42 173.829 107.013 174.122 106.64C174.415 106.253 174.782 105.947 175.222 105.72C175.662 105.48 176.175 105.36 176.762 105.36C176.962 105.36 177.162 105.373 177.362 105.4C177.562 105.413 177.729 105.44 177.862 105.48L177.322 107.34C177.069 107.233 176.769 107.18 176.422 107.18C175.929 107.18 175.455 107.32 175.002 107.6C174.562 107.88 174.195 108.313 173.902 108.9C173.622 109.487 173.482 110.233 173.482 111.14V116H171.682ZM183.225 116.24C181.732 116.24 180.545 115.767 179.665 114.82C178.798 113.86 178.365 112.52 178.365 110.8C178.365 109.76 178.558 108.833 178.945 108.02C179.345 107.193 179.898 106.547 180.605 106.08C181.312 105.6 182.132 105.36 183.065 105.36C184.065 105.36 184.892 105.58 185.545 106.02C186.212 106.447 186.712 107.027 187.045 107.76C187.378 108.493 187.545 109.3 187.545 110.18C187.545 110.647 187.525 111.1 187.485 111.54H180.205C180.325 112.513 180.665 113.273 181.225 113.82C181.785 114.367 182.525 114.64 183.445 114.64C184.045 114.64 184.585 114.58 185.065 114.46C185.545 114.327 186.005 114.16 186.445 113.96L186.865 115.5C186.385 115.713 185.845 115.887 185.245 116.02C184.645 116.167 183.972 116.24 183.225 116.24ZM180.185 110.08H185.885C185.885 109.067 185.632 108.287 185.125 107.74C184.618 107.193 183.918 106.92 183.025 106.92C182.252 106.92 181.612 107.193 181.105 107.74C180.598 108.273 180.292 109.053 180.185 110.08ZM189.944 116V105.6H191.684V107.34C192.057 106.78 192.53 106.313 193.104 105.94C193.69 105.553 194.384 105.36 195.184 105.36C196.357 105.36 197.23 105.713 197.804 106.42C198.39 107.127 198.684 108.06 198.684 109.22V116H196.884V109.42C196.884 108.673 196.704 108.073 196.344 107.62C195.997 107.167 195.51 106.94 194.884 106.94C194.27 106.94 193.69 107.16 193.144 107.6C192.597 108.027 192.13 108.533 191.744 109.12V116H189.944ZM205.42 116.24C204.42 116.24 203.626 115.913 203.04 115.26C202.466 114.593 202.18 113.647 202.18 112.42V107.54H200.38V105.98H202.22L202.6 102.7H203.98V105.98H206.86V107.54H203.98V112.56C203.98 113.333 204.14 113.873 204.46 114.18C204.793 114.487 205.186 114.64 205.64 114.64C205.973 114.64 206.286 114.587 206.58 114.48C206.886 114.373 207.166 114.247 207.42 114.1L207.92 115.54C207.653 115.7 207.293 115.853 206.84 116C206.386 116.16 205.913 116.24 205.42 116.24ZM218.885 116.24C218.272 116.24 217.718 116.127 217.225 115.9C216.732 115.66 216.338 115.28 216.045 114.76C215.765 114.24 215.625 113.567 215.625 112.74V101.2H217.425V112.56C217.425 113.28 217.572 113.813 217.865 114.16C218.172 114.507 218.592 114.68 219.125 114.68C219.378 114.68 219.625 114.653 219.865 114.6C220.118 114.533 220.332 114.46 220.505 114.38L220.945 115.84C220.705 115.947 220.405 116.04 220.045 116.12C219.698 116.2 219.312 116.24 218.885 116.24ZM226.326 116.24C225.459 116.24 224.673 116.02 223.966 115.58C223.259 115.14 222.693 114.52 222.266 113.72C221.853 112.907 221.646 111.953 221.646 110.86C221.646 109.82 221.853 108.887 222.266 108.06C222.693 107.233 223.273 106.58 224.006 106.1C224.753 105.607 225.606 105.36 226.566 105.36C227.166 105.36 227.706 105.467 228.186 105.68C228.679 105.88 229.106 106.133 229.466 106.44V105.6H231.106V113.48C231.106 113.987 231.226 114.32 231.466 114.48C231.719 114.627 231.993 114.7 232.286 114.7L231.906 116.1C230.626 116.1 229.853 115.58 229.586 114.54C229.279 114.967 228.859 115.36 228.326 115.72C227.806 116.067 227.139 116.24 226.326 116.24ZM226.726 114.64C227.233 114.64 227.713 114.52 228.166 114.28C228.619 114.027 228.999 113.713 229.306 113.34V107.76C228.946 107.507 228.546 107.307 228.106 107.16C227.679 107 227.226 106.92 226.746 106.92C226.106 106.92 225.539 107.087 225.046 107.42C224.566 107.74 224.186 108.193 223.906 108.78C223.626 109.353 223.486 110.027 223.486 110.8C223.486 111.547 223.626 112.213 223.906 112.8C224.186 113.373 224.573 113.827 225.066 114.16C225.559 114.48 226.113 114.64 226.726 114.64ZM244.506 120.64C243.893 120.64 243.293 120.567 242.706 120.42C242.133 120.273 241.619 120.053 241.166 119.76L241.826 118.2C242.146 118.453 242.519 118.66 242.946 118.82C243.373 118.993 243.893 119.08 244.506 119.08C245.453 119.08 246.193 118.827 246.726 118.32C247.273 117.827 247.546 117.033 247.546 115.94V114.66C247.279 114.98 246.893 115.287 246.386 115.58C245.893 115.86 245.299 116 244.606 116C243.819 116 243.073 115.8 242.366 115.4C241.659 114.987 241.086 114.387 240.646 113.6C240.206 112.813 239.986 111.867 239.986 110.76C239.986 109.72 240.199 108.793 240.626 107.98C241.066 107.167 241.653 106.527 242.386 106.06C243.119 105.593 243.926 105.36 244.806 105.36C245.393 105.36 245.926 105.46 246.406 105.66C246.886 105.86 247.299 106.107 247.646 106.4V105.6H249.286V115.76C249.286 116.907 249.086 117.84 248.686 118.56C248.286 119.28 247.726 119.807 247.006 120.14C246.299 120.473 245.466 120.64 244.506 120.64ZM245.006 114.4C245.539 114.4 246.019 114.28 246.446 114.04C246.873 113.8 247.219 113.52 247.486 113.2V107.76C247.193 107.547 246.839 107.353 246.426 107.18C246.013 107.007 245.533 106.92 244.986 106.92C244.439 106.92 243.926 107.067 243.446 107.36C242.966 107.653 242.573 108.08 242.266 108.64C241.973 109.187 241.826 109.86 241.826 110.66C241.826 111.42 241.973 112.08 242.266 112.64C242.573 113.2 242.966 113.633 243.446 113.94C243.926 114.247 244.446 114.4 245.006 114.4ZM255.785 116.24C255.185 116.24 254.618 116.113 254.085 115.86C253.552 115.607 253.118 115.2 252.785 114.64C252.452 114.067 252.285 113.307 252.285 112.36V105.6H254.085V112.12C254.085 112.933 254.258 113.56 254.605 114C254.952 114.427 255.458 114.64 256.125 114.64C256.672 114.64 257.198 114.533 257.705 114.32C258.225 114.093 258.685 113.793 259.085 113.42V105.6H260.885V113.3C260.885 113.873 261.005 114.253 261.245 114.44C261.498 114.613 261.772 114.7 262.065 114.7L261.685 116.1C260.445 116.1 259.678 115.607 259.385 114.62C258.918 115.1 258.378 115.493 257.765 115.8C257.152 116.093 256.492 116.24 255.785 116.24ZM268.42 116.24C266.927 116.24 265.74 115.767 264.86 114.82C263.993 113.86 263.56 112.52 263.56 110.8C263.56 109.76 263.753 108.833 264.14 108.02C264.54 107.193 265.093 106.547 265.8 106.08C266.507 105.6 267.327 105.36 268.26 105.36C269.26 105.36 270.087 105.58 270.74 106.02C271.407 106.447 271.907 107.027 272.24 107.76C272.573 108.493 272.74 109.3 272.74 110.18C272.74 110.647 272.72 111.1 272.68 111.54H265.4C265.52 112.513 265.86 113.273 266.42 113.82C266.98 114.367 267.72 114.64 268.64 114.64C269.24 114.64 269.78 114.58 270.26 114.46C270.74 114.327 271.2 114.16 271.64 113.96L272.06 115.5C271.58 115.713 271.04 115.887 270.44 116.02C269.84 116.167 269.167 116.24 268.42 116.24ZM265.38 110.08H271.08C271.08 109.067 270.827 108.287 270.32 107.74C269.813 107.193 269.113 106.92 268.22 106.92C267.447 106.92 266.807 107.193 266.3 107.74C265.793 108.273 265.487 109.053 265.38 110.08ZM275.139 116V105.6H276.879V107.86C277.052 107.42 277.286 107.013 277.579 106.64C277.872 106.253 278.239 105.947 278.679 105.72C279.119 105.48 279.632 105.36 280.219 105.36C280.419 105.36 280.619 105.373 280.819 105.4C281.019 105.413 281.186 105.44 281.319 105.48L280.779 107.34C280.526 107.233 280.226 107.18 279.879 107.18C279.386 107.18 278.912 107.32 278.459 107.6C278.019 107.88 277.652 108.313 277.359 108.9C277.079 109.487 276.939 110.233 276.939 111.14V116H275.139ZM283.127 116V105.6H284.867V107.86C285.041 107.42 285.274 107.013 285.567 106.64C285.861 106.253 286.227 105.947 286.667 105.72C287.107 105.48 287.621 105.36 288.207 105.36C288.407 105.36 288.607 105.373 288.807 105.4C289.007 105.413 289.174 105.44 289.307 105.48L288.767 107.34C288.514 107.233 288.214 107.18 287.867 107.18C287.374 107.18 286.901 107.32 286.447 107.6C286.007 107.88 285.641 108.313 285.347 108.9C285.067 109.487 284.927 110.233 284.927 111.14V116H283.127ZM294.67 116.24C293.177 116.24 291.99 115.767 291.11 114.82C290.243 113.86 289.81 112.52 289.81 110.8C289.81 109.76 290.003 108.833 290.39 108.02C290.79 107.193 291.343 106.547 292.05 106.08C292.757 105.6 293.577 105.36 294.51 105.36C295.51 105.36 296.337 105.58 296.99 106.02C297.657 106.447 298.157 107.027 298.49 107.76C298.823 108.493 298.99 109.3 298.99 110.18C298.99 110.647 298.97 111.1 298.93 111.54H291.65C291.77 112.513 292.11 113.273 292.67 113.82C293.23 114.367 293.97 114.64 294.89 114.64C295.49 114.64 296.03 114.58 296.51 114.46C296.99 114.327 297.45 114.16 297.89 113.96L298.31 115.5C297.83 115.713 297.29 115.887 296.69 116.02C296.09 116.167 295.417 116.24 294.67 116.24ZM291.63 110.08H297.33C297.33 109.067 297.077 108.287 296.57 107.74C296.063 107.193 295.363 106.92 294.47 106.92C293.697 106.92 293.057 107.193 292.55 107.74C292.043 108.273 291.737 109.053 291.63 110.08ZM311.365 116.24C310.498 116.24 309.712 116.02 309.005 115.58C308.298 115.14 307.732 114.52 307.305 113.72C306.892 112.907 306.685 111.953 306.685 110.86C306.685 109.82 306.892 108.887 307.305 108.06C307.732 107.233 308.312 106.58 309.045 106.1C309.792 105.607 310.645 105.36 311.605 105.36C312.205 105.36 312.745 105.467 313.225 105.68C313.718 105.88 314.145 106.133 314.505 106.44V105.6H316.145V113.48C316.145 113.987 316.265 114.32 316.505 114.48C316.758 114.627 317.032 114.7 317.325 114.7L316.945 116.1C315.665 116.1 314.892 115.58 314.625 114.54C314.318 114.967 313.898 115.36 313.365 115.72C312.845 116.067 312.178 116.24 311.365 116.24ZM311.765 114.64C312.272 114.64 312.752 114.52 313.205 114.28C313.658 114.027 314.038 113.713 314.345 113.34V107.76C313.985 107.507 313.585 107.307 313.145 107.16C312.718 107 312.265 106.92 311.785 106.92C311.145 106.92 310.578 107.087 310.085 107.42C309.605 107.74 309.225 108.193 308.945 108.78C308.665 109.353 308.525 110.027 308.525 110.8C308.525 111.547 308.665 112.213 308.945 112.8C309.225 113.373 309.612 113.827 310.105 114.16C310.598 114.48 311.152 114.64 311.765 114.64ZM323.129 116.24C322.529 116.24 321.962 116.113 321.429 115.86C320.896 115.607 320.462 115.2 320.129 114.64C319.796 114.067 319.629 113.307 319.629 112.36V105.6H321.429V112.12C321.429 112.933 321.602 113.56 321.949 114C322.296 114.427 322.802 114.64 323.469 114.64C324.016 114.64 324.542 114.533 325.049 114.32C325.569 114.093 326.029 113.793 326.429 113.42V105.6H328.229V113.3C328.229 113.873 328.349 114.253 328.589 114.44C328.842 114.613 329.116 114.7 329.409 114.7L329.029 116.1C327.789 116.1 327.022 115.607 326.729 114.62C326.262 115.1 325.722 115.493 325.109 115.8C324.496 116.093 323.836 116.24 323.129 116.24ZM6.42 148.64C5.80667 148.64 5.20667 148.567 4.62 148.42C4.04667 148.273 3.53333 148.053 3.08 147.76L3.74 146.2C4.06 146.453 4.43333 146.66 4.86 146.82C5.28667 146.993 5.80667 147.08 6.42 147.08C7.36667 147.08 8.10667 146.827 8.64 146.32C9.18667 145.827 9.46 145.033 9.46 143.94V142.66C9.19333 142.98 8.80667 143.287 8.3 143.58C7.80667 143.86 7.21333 144 6.52 144C5.73333 144 4.98667 143.8 4.28 143.4C3.57333 142.987 3 142.387 2.56 141.6C2.12 140.813 1.9 139.867 1.9 138.76C1.9 137.72 2.11333 136.793 2.54 135.98C2.98 135.167 3.56667 134.527 4.3 134.06C5.03333 133.593 5.84 133.36 6.72 133.36C7.30667 133.36 7.84 133.46 8.32 133.66C8.8 133.86 9.21333 134.107 9.56 134.4V133.6H11.2V143.76C11.2 144.907 11 145.84 10.6 146.56C10.2 147.28 9.64 147.807 8.92 148.14C8.21333 148.473 7.38 148.64 6.42 148.64ZM6.92 142.4C7.45333 142.4 7.93333 142.28 8.36 142.04C8.78667 141.8 9.13333 141.52 9.4 141.2V135.76C9.10667 135.547 8.75333 135.353 8.34 135.18C7.92667 135.007 7.44667 134.92 6.9 134.92C6.35333 134.92 5.84 135.067 5.36 135.36C4.88 135.653 4.48667 136.08 4.18 136.64C3.88667 137.187 3.74 137.86 3.74 138.66C3.74 139.42 3.88667 140.08 4.18 140.64C4.48667 141.2 4.88 141.633 5.36 141.94C5.84 142.247 6.36 142.4 6.92 142.4ZM18.6792 144.24C17.6926 144.24 16.8059 144.013 16.0192 143.56C15.2326 143.093 14.6126 142.453 14.1592 141.64C13.7192 140.813 13.4992 139.867 13.4992 138.8C13.4992 137.68 13.7259 136.713 14.1792 135.9C14.6326 135.087 15.2526 134.46 16.0392 134.02C16.8259 133.58 17.7059 133.36 18.6792 133.36C19.6526 133.36 20.5259 133.58 21.2992 134.02C22.0859 134.46 22.7059 135.087 23.1592 135.9C23.6259 136.7 23.8592 137.653 23.8592 138.76C23.8592 139.867 23.6326 140.833 23.1792 141.66C22.7259 142.473 22.1059 143.107 21.3192 143.56C20.5459 144.013 19.6659 144.24 18.6792 144.24ZM18.6792 142.64C19.7326 142.64 20.5526 142.287 21.1392 141.58C21.7259 140.86 22.0192 139.933 22.0192 138.8C22.0192 138.107 21.8726 137.473 21.5792 136.9C21.2859 136.313 20.8859 135.847 20.3792 135.5C19.8859 135.14 19.3192 134.96 18.6792 134.96C17.6259 134.96 16.8059 135.307 16.2192 136C15.6326 136.693 15.3392 137.613 15.3392 138.76C15.3392 139.453 15.4859 140.1 15.7792 140.7C16.0726 141.287 16.4659 141.76 16.9592 142.12C17.4659 142.467 18.0392 142.64 18.6792 142.64ZM29.6523 144.24C29.0523 144.24 28.4857 144.113 27.9523 143.86C27.419 143.607 26.9857 143.2 26.6523 142.64C26.319 142.067 26.1523 141.307 26.1523 140.36V133.6H27.9523V140.12C27.9523 140.933 28.1257 141.56 28.4723 142C28.819 142.427 29.3257 142.64 29.9923 142.64C30.539 142.64 31.0657 142.533 31.5723 142.32C32.0923 142.093 32.5523 141.793 32.9523 141.42V133.6H34.7523V141.3C34.7523 141.873 34.8723 142.253 35.1123 142.44C35.3657 142.613 35.639 142.7 35.9323 142.7L35.5523 144.1C34.3123 144.1 33.5457 143.607 33.2523 142.62C32.7857 143.1 32.2457 143.493 31.6323 143.8C31.019 144.093 30.359 144.24 29.6523 144.24ZM40.712 144L36.532 134.08L38.172 133.4L41.712 141.96L45.252 133.4L46.792 134.08L42.592 144H40.712ZM52.3655 144.24C50.8721 144.24 49.6855 143.767 48.8055 142.82C47.9388 141.86 47.5055 140.52 47.5055 138.8C47.5055 137.76 47.6988 136.833 48.0855 136.02C48.4855 135.193 49.0388 134.547 49.7455 134.08C50.4521 133.6 51.2721 133.36 52.2055 133.36C53.2055 133.36 54.0321 133.58 54.6855 134.02C55.3521 134.447 55.8521 135.027 56.1855 135.76C56.5188 136.493 56.6855 137.3 56.6855 138.18C56.6855 138.647 56.6655 139.1 56.6255 139.54H49.3455C49.4655 140.513 49.8055 141.273 50.3655 141.82C50.9255 142.367 51.6655 142.64 52.5855 142.64C53.1855 142.64 53.7255 142.58 54.2055 142.46C54.6855 142.327 55.1455 142.16 55.5855 141.96L56.0055 143.5C55.5255 143.713 54.9855 143.887 54.3855 144.02C53.7855 144.167 53.1121 144.24 52.3655 144.24ZM49.3255 138.08H55.0255C55.0255 137.067 54.7721 136.287 54.2655 135.74C53.7588 135.193 53.0588 134.92 52.1655 134.92C51.3921 134.92 50.7521 135.193 50.2455 135.74C49.7388 136.273 49.4321 137.053 49.3255 138.08ZM59.0844 144V133.6H60.8244V135.86C60.9977 135.42 61.231 135.013 61.5244 134.64C61.8177 134.253 62.1844 133.947 62.6244 133.72C63.0644 133.48 63.5777 133.36 64.1644 133.36C64.3644 133.36 64.5644 133.373 64.7644 133.4C64.9644 133.413 65.131 133.44 65.2644 133.48L64.7244 135.34C64.471 135.233 64.171 135.18 63.8244 135.18C63.331 135.18 62.8577 135.32 62.4044 135.6C61.9644 135.88 61.5977 136.313 61.3044 136.9C61.0244 137.487 60.8844 138.233 60.8844 139.14V144H59.0844ZM67.0727 144V133.6H68.8127V135.34C69.186 134.78 69.6593 134.313 70.2327 133.94C70.8193 133.553 71.5127 133.36 72.3127 133.36C73.486 133.36 74.3593 133.713 74.9327 134.42C75.5193 135.127 75.8127 136.06 75.8127 137.22V144H74.0127V137.42C74.0127 136.673 73.8327 136.073 73.4727 135.62C73.126 135.167 72.6393 134.94 72.0127 134.94C71.3993 134.94 70.8193 135.16 70.2727 135.6C69.726 136.027 69.2593 136.533 68.8727 137.12V144H67.0727ZM83.0686 144.24C81.5753 144.24 80.3886 143.767 79.5086 142.82C78.6419 141.86 78.2086 140.52 78.2086 138.8C78.2086 137.76 78.4019 136.833 78.7886 136.02C79.1886 135.193 79.7419 134.547 80.4486 134.08C81.1553 133.6 81.9753 133.36 82.9086 133.36C83.9086 133.36 84.7353 133.58 85.3886 134.02C86.0553 134.447 86.5553 135.027 86.8886 135.76C87.2219 136.493 87.3886 137.3 87.3886 138.18C87.3886 138.647 87.3686 139.1 87.3286 139.54H80.0486C80.1686 140.513 80.5086 141.273 81.0686 141.82C81.6286 142.367 82.3686 142.64 83.2886 142.64C83.8886 142.64 84.4286 142.58 84.9086 142.46C85.3886 142.327 85.8486 142.16 86.2886 141.96L86.7086 143.5C86.2286 143.713 85.6886 143.887 85.0886 144.02C84.4886 144.167 83.8153 144.24 83.0686 144.24ZM80.0286 138.08H85.7286C85.7286 137.067 85.4753 136.287 84.9686 135.74C84.4619 135.193 83.7619 134.92 82.8686 134.92C82.0953 134.92 81.4553 135.193 80.9486 135.74C80.4419 136.273 80.1353 137.053 80.0286 138.08ZM89.7875 144V133.6H91.5275V135.34C91.9008 134.78 92.3742 134.313 92.9475 133.94C93.5208 133.553 94.1742 133.36 94.9075 133.36C95.7342 133.36 96.4075 133.56 96.9275 133.96C97.4608 134.36 97.8342 134.893 98.0475 135.56C98.4608 134.947 98.9475 134.427 99.5075 134C100.081 133.573 100.788 133.36 101.628 133.36C102.761 133.36 103.601 133.72 104.148 134.44C104.708 135.147 104.988 136.073 104.988 137.22V144H103.188V137.36C103.188 136.64 103.021 136.06 102.688 135.62C102.354 135.167 101.894 134.94 101.308 134.94C100.708 134.94 100.148 135.167 99.6275 135.62C99.1208 136.06 98.6742 136.58 98.2875 137.18V144H96.4875V137.36C96.4875 136.64 96.3208 136.06 95.9875 135.62C95.6542 135.167 95.1942 134.94 94.6075 134.94C94.0208 134.94 93.4675 135.16 92.9475 135.6C92.4275 136.027 91.9742 136.533 91.5875 137.12V144H89.7875ZM112.248 144.24C110.755 144.24 109.568 143.767 108.688 142.82C107.822 141.86 107.388 140.52 107.388 138.8C107.388 137.76 107.582 136.833 107.968 136.02C108.368 135.193 108.922 134.547 109.628 134.08C110.335 133.6 111.155 133.36 112.088 133.36C113.088 133.36 113.915 133.58 114.568 134.02C115.235 134.447 115.735 135.027 116.068 135.76C116.402 136.493 116.568 137.3 116.568 138.18C116.568 138.647 116.548 139.1 116.508 139.54H109.228C109.348 140.513 109.688 141.273 110.248 141.82C110.808 142.367 111.548 142.64 112.468 142.64C113.068 142.64 113.608 142.58 114.088 142.46C114.568 142.327 115.028 142.16 115.468 141.96L115.888 143.5C115.408 143.713 114.868 143.887 114.268 144.02C113.668 144.167 112.995 144.24 112.248 144.24ZM109.208 138.08H114.908C114.908 137.067 114.655 136.287 114.148 135.74C113.642 135.193 112.942 134.92 112.048 134.92C111.275 134.92 110.635 135.193 110.128 135.74C109.622 136.273 109.315 137.053 109.208 138.08ZM118.967 144V133.6H120.707V135.34C121.081 134.78 121.554 134.313 122.127 133.94C122.714 133.553 123.407 133.36 124.207 133.36C125.381 133.36 126.254 133.713 126.827 134.42C127.414 135.127 127.707 136.06 127.707 137.22V144H125.907V137.42C125.907 136.673 125.727 136.073 125.367 135.62C125.021 135.167 124.534 134.94 123.907 134.94C123.294 134.94 122.714 135.16 122.167 135.6C121.621 136.027 121.154 136.533 120.767 137.12V144H118.967ZM134.443 144.24C133.443 144.24 132.65 143.913 132.063 143.26C131.49 142.593 131.203 141.647 131.203 140.42V135.54H129.403V133.98H131.243L131.623 130.7H133.003V133.98H135.883V135.54H133.003V140.56C133.003 141.333 133.163 141.873 133.483 142.18C133.816 142.487 134.21 142.64 134.663 142.64C134.996 142.64 135.31 142.587 135.603 142.48C135.91 142.373 136.19 142.247 136.443 142.1L136.943 143.54C136.676 143.7 136.316 143.853 135.863 144C135.41 144.16 134.936 144.24 134.443 144.24ZM140.152 144.24C139.792 144.24 139.479 144.107 139.212 143.84C138.946 143.573 138.812 143.26 138.812 142.9C138.812 142.487 138.932 142.16 139.172 141.92C139.412 141.68 139.739 141.56 140.152 141.56C140.499 141.56 140.806 141.693 141.072 141.96C141.352 142.227 141.492 142.54 141.492 142.9C141.492 143.3 141.366 143.627 141.112 143.88C140.859 144.12 140.539 144.24 140.152 144.24Z" fill="white"/>
</g>
<defs>
<clipPath id="clip0_0_62">
<rect width="439" height="123" fill="white"/>
</clipPath>
</defs>
</svg>
