<svg width="99" height="21" viewBox="0 0 99 21" fill="none" xmlns="http://www.w3.org/2000/svg">
<path d="M0.432 20V1.08444H3.8368L12.1867 16.8114V1.08444H14.6187V20H11.2679L2.864 4.38116V20H0.432ZM19.4848 20V1.08444H30.8341V3.30027H22.0519V9.056H29.6181V11.2178H22.0519V17.7842H30.8341V20H19.4848ZM38.1217 20V3.35431H32.3119V1.08444H46.4986V3.35431H40.6888V20H38.1217ZM49.1987 20V1.08444H60.4129V3.30027H51.7658V9.08302H58.9807V11.1908H51.7658V20H49.1987ZM63.6598 20V1.08444H66.2269V17.7031H74.901V20H63.6598ZM77.4612 20V1.08444H80.0283V20H77.4612ZM96.5224 20.2702L90.5505 12.1636L84.7677 20.2162L82.7411 18.6759L89.0913 10.3801L83.0113 2.43555L85.146 0.841243L90.6315 8.51556L96.063 0.92231L98.0627 2.43555L92.1718 10.245L98.6031 18.6759L96.5224 20.2702Z" fill="white"/>
</svg>
