<svg width="123" height="12" viewBox="0 0 123 12" fill="none" xmlns="http://www.w3.org/2000/svg">
<path d="M7.994 11.14L6.902 8.34H2.366L1.274 11.112L0.14 10.65L3.976 1.2H5.432L9.212 10.65L7.994 11.14ZM2.786 7.22H6.468L4.634 2.516L2.786 7.22ZM12.8516 11.168C12.4316 11.168 12.0349 11.0793 11.6616 10.902C11.2882 10.7247 10.9849 10.44 10.7516 10.048C10.5182 9.64667 10.4016 9.11467 10.4016 8.452V3.72H11.6616V8.284C11.6616 8.85333 11.7829 9.292 12.0256 9.6C12.2682 9.89867 12.6229 10.048 13.0896 10.048C13.4722 10.048 13.8409 9.97333 14.1956 9.824C14.5596 9.66533 14.8816 9.45533 15.1616 9.194V3.72H16.4216V9.11C16.4216 9.51133 16.5056 9.77733 16.6736 9.908C16.8509 10.0293 17.0422 10.09 17.2476 10.09L16.9816 11.07C16.1136 11.07 15.5769 10.7247 15.3716 10.034C15.0449 10.37 14.6669 10.6453 14.2376 10.86C13.8082 11.0653 13.3462 11.168 12.8516 11.168ZM21.5421 11.168C20.9447 11.168 20.3987 11.014 19.9041 10.706C19.4094 10.398 19.0174 9.964 18.7281 9.404C18.4387 8.83467 18.2941 8.16733 18.2941 7.402C18.2941 6.66467 18.4387 6.00667 18.7281 5.428C19.0267 4.84933 19.4187 4.392 19.9041 4.056C20.3987 3.72 20.9401 3.552 21.5281 3.552C22.0134 3.552 22.4287 3.65 22.7741 3.846C23.1287 4.042 23.4041 4.24267 23.6001 4.448V0.64H24.8601V9.236C24.8601 9.59067 24.9441 9.824 25.1121 9.936C25.2894 10.0387 25.4807 10.09 25.6861 10.09L25.4201 11.07C24.5334 11.07 23.9921 10.7153 23.7961 10.006C23.5907 10.2953 23.3014 10.5613 22.9281 10.804C22.5641 11.0467 22.1021 11.168 21.5421 11.168ZM21.8221 10.048C22.1674 10.048 22.4941 9.96867 22.8021 9.81C23.1194 9.642 23.3854 9.42733 23.6001 9.166V5.554C23.4227 5.33 23.1754 5.12467 22.8581 4.938C22.5407 4.742 22.1907 4.644 21.8081 4.644C21.3601 4.644 20.9681 4.76533 20.6321 5.008C20.2961 5.25067 20.0347 5.57733 19.8481 5.988C19.6707 6.38933 19.5821 6.84667 19.5821 7.36C19.5821 7.87333 19.6801 8.33533 19.8761 8.746C20.0721 9.14733 20.3381 9.46467 20.6741 9.698C21.0194 9.93133 21.4021 10.048 21.8221 10.048ZM27.37 11V3.72H28.63V11H27.37ZM28 2.474C27.7573 2.474 27.5473 2.38533 27.37 2.208C27.202 2.03067 27.118 1.82533 27.118 1.592C27.118 1.32133 27.1973 1.10667 27.356 0.947999C27.5147 0.789333 27.7293 0.71 28 0.71C28.2427 0.71 28.448 0.798666 28.616 0.976C28.7933 1.144 28.882 1.34933 28.882 1.592C28.882 1.85333 28.8027 2.068 28.644 2.236C28.4853 2.39467 28.2707 2.474 28 2.474ZM33.936 11.168C33.2453 11.168 32.6247 11.0093 32.074 10.692C31.5233 10.3653 31.0893 9.91733 30.772 9.348C30.464 8.76933 30.31 8.10667 30.31 7.36C30.31 6.576 30.4687 5.89933 30.786 5.33C31.1033 4.76067 31.5373 4.322 32.088 4.014C32.6387 3.706 33.2547 3.552 33.936 3.552C34.6173 3.552 35.2287 3.706 35.77 4.014C36.3207 4.322 36.7547 4.76067 37.072 5.33C37.3987 5.89 37.562 6.55733 37.562 7.332C37.562 8.10667 37.4033 8.78333 37.086 9.362C36.7687 9.93133 36.3347 10.3747 35.784 10.692C35.2427 11.0093 34.6267 11.168 33.936 11.168ZM33.936 10.048C34.6733 10.048 35.2473 9.80067 35.658 9.306C36.0687 8.802 36.274 8.15333 36.274 7.36C36.274 6.87467 36.1713 6.43133 35.966 6.03C35.7607 5.61933 35.4807 5.29267 35.126 5.05C34.7807 4.798 34.384 4.672 33.936 4.672C33.1987 4.672 32.6247 4.91467 32.214 5.4C31.8033 5.88533 31.598 6.52933 31.598 7.332C31.598 7.81733 31.7007 8.27 31.906 8.69C32.1113 9.10067 32.3867 9.432 32.732 9.684C33.0867 9.92667 33.488 10.048 33.936 10.048ZM46.3465 11.168C45.3011 11.168 44.4705 10.8367 43.8545 10.174C43.2478 9.502 42.9445 8.564 42.9445 7.36C42.9445 6.632 43.0798 5.98333 43.3505 5.414C43.6305 4.83533 44.0178 4.38267 44.5125 4.056C45.0071 3.72 45.5811 3.552 46.2345 3.552C46.9345 3.552 47.5131 3.706 47.9705 4.014C48.4371 4.31267 48.7871 4.71867 49.0205 5.232C49.2538 5.74533 49.3705 6.31 49.3705 6.926C49.3705 7.25267 49.3565 7.57 49.3285 7.878H44.2325C44.3165 8.55933 44.5545 9.09133 44.9465 9.474C45.3385 9.85667 45.8565 10.048 46.5005 10.048C46.9205 10.048 47.2985 10.006 47.6345 9.922C47.9705 9.82867 48.2925 9.712 48.6005 9.572L48.8945 10.65C48.5585 10.7993 48.1805 10.9207 47.7605 11.014C47.3405 11.1167 46.8691 11.168 46.3465 11.168ZM44.2185 6.856H48.2085C48.2085 6.14667 48.0311 5.60067 47.6765 5.218C47.3218 4.83533 46.8318 4.644 46.2065 4.644C45.6651 4.644 45.2171 4.83533 44.8625 5.218C44.5078 5.59133 44.2931 6.13733 44.2185 6.856ZM53.5977 11.168C52.8977 11.168 52.3424 10.9393 51.9317 10.482C51.5304 10.0153 51.3297 9.35267 51.3297 8.494V5.078H50.0697V3.986H51.3577L51.6237 1.69H52.5897V3.986H54.6057V5.078H52.5897V8.592C52.5897 9.13333 52.7017 9.51133 52.9257 9.726C53.159 9.94067 53.4344 10.048 53.7517 10.048C53.985 10.048 54.2044 10.0107 54.4097 9.936C54.6244 9.86133 54.8204 9.77267 54.9977 9.67L55.3477 10.678C55.161 10.79 54.909 10.8973 54.5917 11C54.2744 11.112 53.943 11.168 53.5977 11.168ZM62.7714 11.168C62.2207 11.168 61.7214 11.098 61.2734 10.958C60.8347 10.818 60.4707 10.636 60.1814 10.412L60.7134 9.362C60.9561 9.56733 61.2594 9.74 61.6234 9.88C61.9967 10.0107 62.3934 10.076 62.8134 10.076C63.3361 10.076 63.7281 9.992 63.9894 9.824C64.2601 9.64667 64.3954 9.42267 64.3954 9.152C64.3954 8.956 64.3441 8.78333 64.2414 8.634C64.1481 8.48467 63.9707 8.34 63.7094 8.2C63.4481 8.05067 63.0701 7.892 62.5754 7.724C61.8941 7.49067 61.3807 7.21533 61.0354 6.898C60.6994 6.57133 60.5314 6.12333 60.5314 5.554C60.5314 4.994 60.7741 4.52267 61.2594 4.14C61.7541 3.748 62.4354 3.552 63.3034 3.552C63.7701 3.552 64.1854 3.60333 64.5494 3.706C64.9134 3.79933 65.2401 3.92067 65.5294 4.07L65.1794 5.106C64.9274 4.95667 64.6381 4.83533 64.3114 4.742C63.9941 4.64867 63.6394 4.602 63.2474 4.602C62.7621 4.602 62.3934 4.7 62.1414 4.896C61.8894 5.092 61.7634 5.30667 61.7634 5.54C61.7634 5.764 61.8614 5.95533 62.0574 6.114C62.2534 6.27267 62.6361 6.44533 63.2054 6.632C64.1294 6.94 64.7734 7.28067 65.1374 7.654C65.5014 8.02733 65.6834 8.494 65.6834 9.054C65.6834 9.70733 65.4174 10.2253 64.8854 10.608C64.3627 10.9813 63.6581 11.168 62.7714 11.168ZM70.4262 11.168C69.7356 11.168 69.1149 11.0093 68.5642 10.692C68.0136 10.3653 67.5796 9.91733 67.2622 9.348C66.9542 8.76933 66.8002 8.10667 66.8002 7.36C66.8002 6.576 66.9589 5.89933 67.2762 5.33C67.5936 4.76067 68.0276 4.322 68.5782 4.014C69.1289 3.706 69.7449 3.552 70.4262 3.552C71.1076 3.552 71.7189 3.706 72.2602 4.014C72.8109 4.322 73.2449 4.76067 73.5622 5.33C73.8889 5.89 74.0522 6.55733 74.0522 7.332C74.0522 8.10667 73.8936 8.78333 73.5762 9.362C73.2589 9.93133 72.8249 10.3747 72.2742 10.692C71.7329 11.0093 71.1169 11.168 70.4262 11.168ZM70.4262 10.048C71.1636 10.048 71.7376 9.80067 72.1482 9.306C72.5589 8.802 72.7642 8.15333 72.7642 7.36C72.7642 6.87467 72.6616 6.43133 72.4562 6.03C72.2509 5.61933 71.9709 5.29267 71.6162 5.05C71.2709 4.798 70.8742 4.672 70.4262 4.672C69.6889 4.672 69.1149 4.91467 68.7042 5.4C68.2936 5.88533 68.0882 6.52933 68.0882 7.332C68.0882 7.81733 68.1909 8.27 68.3962 8.69C68.6016 9.10067 68.8769 9.432 69.2222 9.684C69.5769 9.92667 69.9782 10.048 70.4262 10.048ZM78.1074 11.168C77.6874 11.168 77.2908 11.0793 76.9174 10.902C76.5441 10.7247 76.2408 10.44 76.0074 10.048C75.7741 9.64667 75.6574 9.11467 75.6574 8.452V3.72H76.9174V8.284C76.9174 8.85333 77.0388 9.292 77.2814 9.6C77.5241 9.89867 77.8788 10.048 78.3454 10.048C78.7281 10.048 79.0968 9.97333 79.4514 9.824C79.8154 9.66533 80.1374 9.45533 80.4174 9.194V3.72H81.6774V9.11C81.6774 9.51133 81.7614 9.77733 81.9294 9.908C82.1068 10.0293 82.2981 10.09 82.5034 10.09L82.2374 11.07C81.3694 11.07 80.8328 10.7247 80.6274 10.034C80.3008 10.37 79.9228 10.6453 79.4934 10.86C79.0641 11.0653 78.6021 11.168 78.1074 11.168ZM86.1366 11.168C85.586 11.168 85.0866 11.098 84.6386 10.958C84.2 10.818 83.836 10.636 83.5466 10.412L84.0786 9.362C84.3213 9.56733 84.6246 9.74 84.9886 9.88C85.362 10.0107 85.7586 10.076 86.1786 10.076C86.7013 10.076 87.0933 9.992 87.3546 9.824C87.6253 9.64667 87.7606 9.42267 87.7606 9.152C87.7606 8.956 87.7093 8.78333 87.6066 8.634C87.5133 8.48467 87.336 8.34 87.0746 8.2C86.8133 8.05067 86.4353 7.892 85.9406 7.724C85.2593 7.49067 84.746 7.21533 84.4006 6.898C84.0646 6.57133 83.8966 6.12333 83.8966 5.554C83.8966 4.994 84.1393 4.52267 84.6246 4.14C85.1193 3.748 85.8006 3.552 86.6686 3.552C87.1353 3.552 87.5506 3.60333 87.9146 3.706C88.2786 3.79933 88.6053 3.92067 88.8946 4.07L88.5446 5.106C88.2926 4.95667 88.0033 4.83533 87.6766 4.742C87.3593 4.64867 87.0046 4.602 86.6126 4.602C86.1273 4.602 85.7586 4.7 85.5066 4.896C85.2546 5.092 85.1286 5.30667 85.1286 5.54C85.1286 5.764 85.2266 5.95533 85.4226 6.114C85.6186 6.27267 86.0013 6.44533 86.5706 6.632C87.4946 6.94 88.1386 7.28067 88.5026 7.654C88.8666 8.02733 89.0486 8.494 89.0486 9.054C89.0486 9.70733 88.7826 10.2253 88.2506 10.608C87.728 10.9813 87.0233 11.168 86.1366 11.168ZM91.4255 6.772V5.624H96.1855V6.772H91.4255ZM101.668 11.168C100.968 11.168 100.413 10.9393 100.002 10.482C99.6007 10.0153 99.4 9.35267 99.4 8.494V5.078H98.14V3.986H99.428L99.694 1.69H100.66V3.986H102.676V5.078H100.66V8.592C100.66 9.13333 100.772 9.51133 100.996 9.726C101.229 9.94067 101.505 10.048 101.822 10.048C102.055 10.048 102.275 10.0107 102.48 9.936C102.695 9.86133 102.891 9.77267 103.068 9.67L103.418 10.678C103.231 10.79 102.979 10.8973 102.662 11C102.345 11.112 102.013 11.168 101.668 11.168ZM104.684 11V3.72H105.944V11H104.684ZM105.314 2.474C105.072 2.474 104.862 2.38533 104.684 2.208C104.516 2.03067 104.432 1.82533 104.432 1.592C104.432 1.32133 104.512 1.10667 104.67 0.947999C104.829 0.789333 105.044 0.71 105.314 0.71C105.557 0.71 105.762 0.798666 105.93 0.976C106.108 1.144 106.196 1.34933 106.196 1.592C106.196 1.85333 106.117 2.068 105.958 2.236C105.8 2.39467 105.585 2.474 105.314 2.474ZM110.732 11.168C110.032 11.168 109.477 10.9393 109.066 10.482C108.665 10.0153 108.464 9.35267 108.464 8.494V5.078H107.204V3.986H108.492L108.758 1.69H109.724V3.986H111.74V5.078H109.724V8.592C109.724 9.13333 109.836 9.51133 110.06 9.726C110.294 9.94067 110.569 10.048 110.886 10.048C111.12 10.048 111.339 10.0107 111.544 9.936C111.759 9.86133 111.955 9.77267 112.132 9.67L112.482 10.678C112.296 10.79 112.044 10.8973 111.726 11C111.409 11.112 111.078 11.168 110.732 11.168ZM113.749 11V3.72H114.967V5.302C115.088 4.994 115.252 4.70933 115.457 4.448C115.662 4.17733 115.919 3.96267 116.227 3.804C116.535 3.636 116.894 3.552 117.305 3.552C117.445 3.552 117.585 3.56133 117.725 3.58C117.865 3.58933 117.982 3.608 118.075 3.636L117.697 4.938C117.52 4.86333 117.31 4.826 117.067 4.826C116.722 4.826 116.39 4.924 116.073 5.12C115.765 5.316 115.508 5.61933 115.303 6.03C115.107 6.44067 115.009 6.96333 115.009 7.598V11H113.749ZM121.829 11.168C120.784 11.168 119.953 10.8367 119.337 10.174C118.73 9.502 118.427 8.564 118.427 7.36C118.427 6.632 118.562 5.98333 118.833 5.414C119.113 4.83533 119.5 4.38267 119.995 4.056C120.49 3.72 121.064 3.552 121.717 3.552C122.417 3.552 122.996 3.706 123.453 4.014C123.92 4.31267 124.27 4.71867 124.503 5.232C124.736 5.74533 124.853 6.31 124.853 6.926C124.853 7.25267 124.839 7.57 124.811 7.878H119.715C119.799 8.55933 120.037 9.09133 120.429 9.474C120.821 9.85667 121.339 10.048 121.983 10.048C122.403 10.048 122.781 10.006 123.117 9.922C123.453 9.82867 123.775 9.712 124.083 9.572L124.377 10.65C124.041 10.7993 123.663 10.9207 123.243 11.014C122.823 11.1167 122.352 11.168 121.829 11.168ZM119.701 6.856H123.691C123.691 6.14667 123.514 5.60067 123.159 5.218C122.804 4.83533 122.314 4.644 121.689 4.644C121.148 4.644 120.7 4.83533 120.345 5.218C119.99 5.59133 119.776 6.13733 119.701 6.856ZM128.492 11.168C127.941 11.168 127.442 11.098 126.994 10.958C126.555 10.818 126.191 10.636 125.902 10.412L126.434 9.362C126.677 9.56733 126.98 9.74 127.344 9.88C127.717 10.0107 128.114 10.076 128.534 10.076C129.057 10.076 129.449 9.992 129.71 9.824C129.981 9.64667 130.116 9.42267 130.116 9.152C130.116 8.956 130.065 8.78333 129.962 8.634C129.869 8.48467 129.691 8.34 129.43 8.2C129.169 8.05067 128.791 7.892 128.296 7.724C127.615 7.49067 127.101 7.21533 126.756 6.898C126.42 6.57133 126.252 6.12333 126.252 5.554C126.252 4.994 126.495 4.52267 126.98 4.14C127.475 3.748 128.156 3.552 129.024 3.552C129.491 3.552 129.906 3.60333 130.27 3.706C130.634 3.79933 130.961 3.92067 131.25 4.07L130.9 5.106C130.648 4.95667 130.359 4.83533 130.032 4.742C129.715 4.64867 129.36 4.602 128.968 4.602C128.483 4.602 128.114 4.7 127.862 4.896C127.61 5.092 127.484 5.30667 127.484 5.54C127.484 5.764 127.582 5.95533 127.778 6.114C127.974 6.27267 128.357 6.44533 128.926 6.632C129.85 6.94 130.494 7.28067 130.858 7.654C131.222 8.02733 131.404 8.494 131.404 9.054C131.404 9.70733 131.138 10.2253 130.606 10.608C130.083 10.9813 129.379 11.168 128.492 11.168Z" fill="#999999"/>
</svg>
