<svg width="104" height="15" viewBox="0 0 104 15" fill="none" xmlns="http://www.w3.org/2000/svg">
<path d="M7.994 11.14L6.902 8.34H2.366L1.274 11.112L0.14 10.65L3.976 1.2H5.432L9.212 10.65L7.994 11.14ZM2.786 7.22H6.468L4.634 2.516L2.786 7.22ZM12.8516 11.168C12.4316 11.168 12.0349 11.0793 11.6616 10.902C11.2882 10.7247 10.9849 10.44 10.7516 10.048C10.5182 9.64667 10.4016 9.11467 10.4016 8.452V3.72H11.6616V8.284C11.6616 8.85333 11.7829 9.292 12.0256 9.6C12.2682 9.89867 12.6229 10.048 13.0896 10.048C13.4722 10.048 13.8409 9.97333 14.1956 9.824C14.5596 9.66533 14.8816 9.45533 15.1616 9.194V3.72H16.4216V9.11C16.4216 9.51133 16.5056 9.77733 16.6736 9.908C16.8509 10.0293 17.0422 10.09 17.2476 10.09L16.9816 11.07C16.1136 11.07 15.5769 10.7247 15.3716 10.034C15.0449 10.37 14.6669 10.6453 14.2376 10.86C13.8082 11.0653 13.3462 11.168 12.8516 11.168ZM21.4688 11.168C20.7688 11.168 20.2134 10.9393 19.8028 10.482C19.4014 10.0153 19.2008 9.35267 19.2008 8.494V5.078H17.9408V3.986H19.2288L19.4948 1.69H20.4608V3.986H22.4768V5.078H20.4608V8.592C20.4608 9.13333 20.5728 9.51133 20.7968 9.726C21.0301 9.94067 21.3054 10.048 21.6228 10.048C21.8561 10.048 22.0754 10.0107 22.2808 9.936C22.4954 9.86133 22.6914 9.77267 22.8688 9.67L23.2188 10.678C23.0321 10.79 22.7801 10.8973 22.4628 11C22.1454 11.112 21.8141 11.168 21.4688 11.168ZM27.2778 11.168C26.5871 11.168 25.9665 11.0093 25.4158 10.692C24.8651 10.3653 24.4311 9.91733 24.1138 9.348C23.8058 8.76933 23.6518 8.10667 23.6518 7.36C23.6518 6.576 23.8105 5.89933 24.1278 5.33C24.4451 4.76067 24.8791 4.322 25.4298 4.014C25.9805 3.706 26.5965 3.552 27.2778 3.552C27.9591 3.552 28.5705 3.706 29.1118 4.014C29.6625 4.322 30.0965 4.76067 30.4138 5.33C30.7405 5.89 30.9038 6.55733 30.9038 7.332C30.9038 8.10667 30.7451 8.78333 30.4278 9.362C30.1105 9.93133 29.6765 10.3747 29.1258 10.692C28.5845 11.0093 27.9685 11.168 27.2778 11.168ZM27.2778 10.048C28.0151 10.048 28.5891 9.80067 28.9998 9.306C29.4105 8.802 29.6158 8.15333 29.6158 7.36C29.6158 6.87467 29.5131 6.43133 29.3078 6.03C29.1025 5.61933 28.8225 5.29267 28.4678 5.05C28.1225 4.798 27.7258 4.672 27.2778 4.672C26.5405 4.672 25.9665 4.91467 25.5558 5.4C25.1451 5.88533 24.9398 6.52933 24.9398 7.332C24.9398 7.81733 25.0425 8.27 25.2478 8.69C25.4531 9.10067 25.7285 9.432 26.0738 9.684C26.4285 9.92667 26.8298 10.048 27.2778 10.048ZM35.337 11.168C34.7397 11.168 34.1937 11.014 33.699 10.706C33.2043 10.398 32.8123 9.964 32.523 9.404C32.2337 8.83467 32.089 8.16733 32.089 7.402C32.089 6.66467 32.2337 6.00667 32.523 5.428C32.8217 4.84933 33.2137 4.392 33.699 4.056C34.1937 3.72 34.735 3.552 35.323 3.552C35.8083 3.552 36.2237 3.65 36.569 3.846C36.9237 4.042 37.199 4.24267 37.395 4.448V0.64H38.655V9.236C38.655 9.59067 38.739 9.824 38.907 9.936C39.0843 10.0387 39.2757 10.09 39.481 10.09L39.215 11.07C38.3283 11.07 37.787 10.7153 37.591 10.006C37.3857 10.2953 37.0963 10.5613 36.723 10.804C36.359 11.0467 35.897 11.168 35.337 11.168ZM35.617 10.048C35.9623 10.048 36.289 9.96867 36.597 9.81C36.9143 9.642 37.1803 9.42733 37.395 9.166V5.554C37.2177 5.33 36.9703 5.12467 36.653 4.938C36.3357 4.742 35.9857 4.644 35.603 4.644C35.155 4.644 34.763 4.76533 34.427 5.008C34.091 5.25067 33.8297 5.57733 33.643 5.988C33.4657 6.38933 33.377 6.84667 33.377 7.36C33.377 7.87333 33.475 8.33533 33.671 8.746C33.867 9.14733 34.133 9.46467 34.469 9.698C34.8143 9.93133 35.197 10.048 35.617 10.048ZM43.9402 11.168C42.8949 11.168 42.0642 10.8367 41.4482 10.174C40.8415 9.502 40.5382 8.564 40.5382 7.36C40.5382 6.632 40.6735 5.98333 40.9442 5.414C41.2242 4.83533 41.6115 4.38267 42.1062 4.056C42.6009 3.72 43.1749 3.552 43.8282 3.552C44.5282 3.552 45.1069 3.706 45.5642 4.014C46.0309 4.31267 46.3809 4.71867 46.6142 5.232C46.8475 5.74533 46.9642 6.31 46.9642 6.926C46.9642 7.25267 46.9502 7.57 46.9222 7.878H41.8262C41.9102 8.55933 42.1482 9.09133 42.5402 9.474C42.9322 9.85667 43.4502 10.048 44.0942 10.048C44.5142 10.048 44.8922 10.006 45.2282 9.922C45.5642 9.82867 45.8862 9.712 46.1942 9.572L46.4882 10.65C46.1522 10.7993 45.7742 10.9207 45.3542 11.014C44.9342 11.1167 44.4629 11.168 43.9402 11.168ZM41.8122 6.856H45.8022C45.8022 6.14667 45.6249 5.60067 45.2702 5.218C44.9155 4.83533 44.4255 4.644 43.8002 4.644C43.2589 4.644 42.8109 4.83533 42.4562 5.218C42.1015 5.59133 41.8869 6.13733 41.8122 6.856ZM50.6034 11.168C50.0528 11.168 49.5534 11.098 49.1054 10.958C48.6668 10.818 48.3028 10.636 48.0134 10.412L48.5454 9.362C48.7881 9.56733 49.0914 9.74 49.4554 9.88C49.8288 10.0107 50.2254 10.076 50.6454 10.076C51.1681 10.076 51.5601 9.992 51.8214 9.824C52.0921 9.64667 52.2274 9.42267 52.2274 9.152C52.2274 8.956 52.1761 8.78333 52.0734 8.634C51.9801 8.48467 51.8028 8.34 51.5414 8.2C51.2801 8.05067 50.9021 7.892 50.4074 7.724C49.7261 7.49067 49.2128 7.21533 48.8674 6.898C48.5314 6.57133 48.3634 6.12333 48.3634 5.554C48.3634 4.994 48.6061 4.52267 49.0914 4.14C49.5861 3.748 50.2674 3.552 51.1354 3.552C51.6021 3.552 52.0174 3.60333 52.3814 3.706C52.7454 3.79933 53.0721 3.92067 53.3614 4.07L53.0114 5.106C52.7594 4.95667 52.4701 4.83533 52.1434 4.742C51.8261 4.64867 51.4714 4.602 51.0794 4.602C50.5941 4.602 50.2254 4.7 49.9734 4.896C49.7214 5.092 49.5954 5.30667 49.5954 5.54C49.5954 5.764 49.6934 5.95533 49.8894 6.114C50.0854 6.27267 50.4681 6.44533 51.0374 6.632C51.9614 6.94 52.6054 7.28067 52.9694 7.654C53.3334 8.02733 53.5154 8.494 53.5154 9.054C53.5154 9.70733 53.2494 10.2253 52.7174 10.608C52.1948 10.9813 51.4901 11.168 50.6034 11.168ZM58.1323 11.168C57.4416 11.168 56.8349 11.0093 56.3123 10.692C55.7989 10.3653 55.4023 9.91733 55.1223 9.348C54.8423 8.76933 54.7023 8.10667 54.7023 7.36C54.7023 6.66 54.8423 6.02067 55.1223 5.442C55.4116 4.86333 55.8223 4.406 56.3543 4.07C56.8863 3.72467 57.5116 3.552 58.2303 3.552C58.6409 3.552 59.0003 3.58933 59.3083 3.664C59.6256 3.73867 59.9289 3.846 60.2183 3.986L59.8403 5.05C59.5789 4.91933 59.3269 4.826 59.0843 4.77C58.8509 4.70467 58.5896 4.672 58.3003 4.672C57.6469 4.672 57.0963 4.91 56.6483 5.386C56.2096 5.85267 55.9903 6.50133 55.9903 7.332C55.9903 7.836 56.0836 8.29333 56.2703 8.704C56.4569 9.11467 56.7136 9.44133 57.0403 9.684C57.3763 9.92667 57.7683 10.048 58.2163 10.048C58.5709 10.048 58.8743 10.0107 59.1263 9.936C59.3783 9.852 59.6489 9.73533 59.9383 9.586L60.3303 10.65C60.0409 10.8087 59.7143 10.9347 59.3503 11.028C58.9956 11.1213 58.5896 11.168 58.1323 11.168ZM61.7958 11V3.72H63.0138V5.302C63.1351 4.994 63.2984 4.70933 63.5038 4.448C63.7091 4.17733 63.9658 3.96267 64.2738 3.804C64.5818 3.636 64.9411 3.552 65.3518 3.552C65.4918 3.552 65.6318 3.56133 65.7718 3.58C65.9118 3.58933 66.0284 3.608 66.1218 3.636L65.7438 4.938C65.5664 4.86333 65.3564 4.826 65.1138 4.826C64.7684 4.826 64.4371 4.924 64.1198 5.12C63.8118 5.316 63.5551 5.61933 63.3498 6.03C63.1538 6.44067 63.0558 6.96333 63.0558 7.598V11H61.7958ZM67.3876 11V3.72H68.6476V11H67.3876ZM68.0176 2.474C67.7749 2.474 67.5649 2.38533 67.3876 2.208C67.2196 2.03067 67.1356 1.82533 67.1356 1.592C67.1356 1.32133 67.2149 1.10667 67.3736 0.947999C67.5322 0.789333 67.7469 0.71 68.0176 0.71C68.2602 0.71 68.4656 0.798666 68.6336 0.976C68.8109 1.144 68.8996 1.34933 68.8996 1.592C68.8996 1.85333 68.8202 2.068 68.6616 2.236C68.5029 2.39467 68.2882 2.474 68.0176 2.474ZM71.1536 14.08V5.582C71.1536 5.26467 71.0742 5.04067 70.9156 4.91C70.7662 4.77 70.5702 4.7 70.3276 4.7L70.5936 3.72C71.4522 3.72 71.9889 4.06067 72.2036 4.742C72.2969 4.602 72.4462 4.43867 72.6516 4.252C72.8662 4.06533 73.1276 3.902 73.4356 3.762C73.7529 3.622 74.1122 3.552 74.5136 3.552C75.0736 3.552 75.5962 3.70133 76.0816 4C76.5762 4.28933 76.9729 4.714 77.2716 5.274C77.5702 5.82467 77.7196 6.49667 77.7196 7.29C77.7196 8.06467 77.5702 8.746 77.2716 9.334C76.9729 9.91267 76.5809 10.3653 76.0956 10.692C75.6196 11.0093 75.1016 11.168 74.5416 11.168C74.1122 11.168 73.7109 11.084 73.3376 10.916C72.9642 10.7387 72.6562 10.538 72.4136 10.314V14.08H71.1536ZM74.2896 10.048C74.9242 10.048 75.4376 9.80067 75.8296 9.306C76.2309 8.802 76.4316 8.144 76.4316 7.332C76.4316 6.772 76.3289 6.29133 76.1236 5.89C75.9276 5.48867 75.6616 5.18067 75.3256 4.966C74.9989 4.75133 74.6349 4.644 74.2336 4.644C73.8322 4.644 73.4682 4.74667 73.1416 4.952C72.8242 5.148 72.5816 5.36267 72.4136 5.596V9.18C72.6562 9.432 72.9362 9.642 73.2536 9.81C73.5709 9.96867 73.9162 10.048 74.2896 10.048ZM82.0215 11.168C81.3215 11.168 80.7662 10.9393 80.3555 10.482C79.9542 10.0153 79.7535 9.35267 79.7535 8.494V5.078H78.4935V3.986H79.7815L80.0475 1.69H81.0135V3.986H83.0295V5.078H81.0135V8.592C81.0135 9.13333 81.1255 9.51133 81.3495 9.726C81.5828 9.94067 81.8582 10.048 82.1755 10.048C82.4088 10.048 82.6282 10.0107 82.8335 9.936C83.0482 9.86133 83.2442 9.77267 83.4215 9.67L83.7715 10.678C83.5848 10.79 83.3328 10.8973 83.0155 11C82.6982 11.112 82.3668 11.168 82.0215 11.168ZM85.038 11V3.72H86.298V11H85.038ZM85.668 2.474C85.4253 2.474 85.2153 2.38533 85.038 2.208C84.87 2.03067 84.786 1.82533 84.786 1.592C84.786 1.32133 84.8653 1.10667 85.024 0.947999C85.1826 0.789333 85.3973 0.71 85.668 0.71C85.9106 0.71 86.116 0.798666 86.284 0.976C86.4613 1.144 86.55 1.34933 86.55 1.592C86.55 1.85333 86.4706 2.068 86.312 2.236C86.1533 2.39467 85.9386 2.474 85.668 2.474ZM91.604 11.168C90.9133 11.168 90.2926 11.0093 89.742 10.692C89.1913 10.3653 88.7573 9.91733 88.44 9.348C88.132 8.76933 87.978 8.10667 87.978 7.36C87.978 6.576 88.1366 5.89933 88.454 5.33C88.7713 4.76067 89.2053 4.322 89.756 4.014C90.3066 3.706 90.9226 3.552 91.604 3.552C92.2853 3.552 92.8966 3.706 93.438 4.014C93.9886 4.322 94.4226 4.76067 94.74 5.33C95.0666 5.89 95.23 6.55733 95.23 7.332C95.23 8.10667 95.0713 8.78333 94.754 9.362C94.4366 9.93133 94.0026 10.3747 93.452 10.692C92.9106 11.0093 92.2946 11.168 91.604 11.168ZM91.604 10.048C92.3413 10.048 92.9153 9.80067 93.326 9.306C93.7366 8.802 93.942 8.15333 93.942 7.36C93.942 6.87467 93.8393 6.43133 93.634 6.03C93.4286 5.61933 93.1486 5.29267 92.794 5.05C92.4486 4.798 92.052 4.672 91.604 4.672C90.8666 4.672 90.2926 4.91467 89.882 5.4C89.4713 5.88533 89.266 6.52933 89.266 7.332C89.266 7.81733 89.3686 8.27 89.574 8.69C89.7793 9.10067 90.0546 9.432 90.4 9.684C90.7546 9.92667 91.156 10.048 91.604 10.048ZM96.9052 11V3.72H98.1232V4.938C98.3845 4.546 98.7158 4.21933 99.1172 3.958C99.5278 3.68733 100.013 3.552 100.573 3.552C101.394 3.552 102.006 3.79933 102.407 4.294C102.818 4.78867 103.023 5.442 103.023 6.254V11H101.763V6.394C101.763 5.87133 101.637 5.45133 101.385 5.134C101.142 4.81667 100.802 4.658 100.363 4.658C99.9338 4.658 99.5278 4.812 99.1452 5.12C98.7625 5.41867 98.4358 5.77333 98.1652 6.184V11H96.9052Z" fill="#999999"/>
</svg>
