<svg width="92" height="30" viewBox="0 0 92 30" fill="none" xmlns="http://www.w3.org/2000/svg">
<path d="M9.432 19.156C8.79933 19.156 8.223 19.0737 7.703 18.909C7.183 18.7357 6.74533 18.5103 6.39 18.233L7.014 17.193C7.326 17.453 7.677 17.6653 8.067 17.83C8.457 17.9947 8.912 18.077 9.432 18.077C10.056 18.077 10.55 17.947 10.914 17.687C11.278 17.427 11.46 17.076 11.46 16.634C11.46 16.3827 11.408 16.1617 11.304 15.971C11.2 15.7717 10.9963 15.581 10.693 15.399C10.3983 15.2083 9.96067 15.0047 9.38 14.788C8.756 14.5453 8.25767 14.3027 7.885 14.06C7.51233 13.8087 7.24367 13.527 7.079 13.215C6.923 12.8943 6.845 12.5173 6.845 12.084C6.845 11.6507 6.962 11.2607 7.196 10.914C7.43867 10.5587 7.78967 10.277 8.249 10.069C8.717 9.85233 9.28033 9.744 9.939 9.744C10.4763 9.744 10.9573 9.80033 11.382 9.913C11.8153 10.017 12.2357 10.1687 12.643 10.368L12.188 11.421C11.8933 11.2477 11.5467 11.1047 11.148 10.992C10.758 10.8707 10.3463 10.81 9.913 10.81C9.341 10.81 8.89033 10.9227 8.561 11.148C8.23167 11.3733 8.067 11.6637 8.067 12.019C8.067 12.2443 8.11467 12.4437 8.21 12.617C8.30533 12.7903 8.49167 12.9593 8.769 13.124C9.055 13.2887 9.47967 13.475 10.043 13.683C10.719 13.9343 11.252 14.1987 11.642 14.476C12.0407 14.7533 12.3223 15.0567 12.487 15.386C12.6517 15.7067 12.734 16.075 12.734 16.491C12.734 17.0543 12.591 17.5353 12.305 17.934C12.0277 18.3327 11.6377 18.636 11.135 18.844C10.641 19.052 10.0733 19.156 9.432 19.156ZM17.1327 19.156C16.162 19.156 15.3907 18.8483 14.8187 18.233C14.2553 17.609 13.9737 16.738 13.9737 15.62C13.9737 14.944 14.0993 14.3417 14.3507 13.813C14.6107 13.2757 14.9703 12.8553 15.4297 12.552C15.889 12.24 16.422 12.084 17.0287 12.084C17.6787 12.084 18.216 12.227 18.6407 12.513C19.074 12.7903 19.399 13.1673 19.6157 13.644C19.8323 14.1207 19.9407 14.645 19.9407 15.217C19.9407 15.5203 19.9277 15.815 19.9017 16.101H15.1697C15.2477 16.7337 15.4687 17.2277 15.8327 17.583C16.1967 17.9383 16.6777 18.116 17.2757 18.116C17.6657 18.116 18.0167 18.077 18.3287 17.999C18.6407 17.9123 18.9397 17.804 19.2257 17.674L19.4987 18.675C19.1867 18.8137 18.8357 18.9263 18.4457 19.013C18.0557 19.1083 17.618 19.156 17.1327 19.156ZM15.1567 15.152H18.8617C18.8617 14.4933 18.697 13.9863 18.3677 13.631C18.0383 13.2757 17.5833 13.098 17.0027 13.098C16.5 13.098 16.084 13.2757 15.7547 13.631C15.4253 13.9777 15.226 14.4847 15.1567 15.152ZM21.5 19V12.24H22.631V13.709C22.7436 13.423 22.8953 13.1587 23.086 12.916C23.2766 12.6647 23.515 12.4653 23.801 12.318C24.087 12.162 24.4206 12.084 24.802 12.084C24.932 12.084 25.062 12.0927 25.192 12.11C25.322 12.1187 25.4303 12.136 25.517 12.162L25.166 13.371C25.0013 13.3017 24.8063 13.267 24.581 13.267C24.2603 13.267 23.9526 13.358 23.658 13.54C23.372 13.722 23.1336 14.0037 22.943 14.385C22.761 14.7663 22.67 15.2517 22.67 15.841V19H21.5ZM28.4993 19L25.7823 12.552L26.8483 12.11L29.1493 17.674L31.4503 12.11L32.4513 12.552L29.7213 19H28.4993ZM33.624 19V12.24H34.794V19H33.624ZM34.209 11.083C33.9837 11.083 33.7887 11.0007 33.624 10.836C33.468 10.6713 33.39 10.4807 33.39 10.264C33.39 10.0127 33.4637 9.81333 33.611 9.666C33.7583 9.51867 33.9577 9.445 34.209 9.445C34.4343 9.445 34.625 9.52733 34.781 9.692C34.9457 9.848 35.028 10.0387 35.028 10.264C35.028 10.5067 34.9543 10.706 34.807 10.862C34.6597 11.0093 34.4603 11.083 34.209 11.083ZM39.604 19.156C38.9627 19.156 38.3993 19.0087 37.914 18.714C37.4373 18.4107 37.069 17.9947 36.809 17.466C36.549 16.9287 36.419 16.3133 36.419 15.62C36.419 14.97 36.549 14.3763 36.809 13.839C37.0777 13.3017 37.459 12.877 37.953 12.565C38.447 12.2443 39.0277 12.084 39.695 12.084C40.0763 12.084 40.41 12.1187 40.696 12.188C40.9907 12.2573 41.2723 12.357 41.541 12.487L41.19 13.475C40.9473 13.3537 40.7133 13.267 40.488 13.215C40.2713 13.1543 40.0287 13.124 39.76 13.124C39.1533 13.124 38.642 13.345 38.226 13.787C37.8187 14.2203 37.615 14.8227 37.615 15.594C37.615 16.062 37.7017 16.4867 37.875 16.868C38.0483 17.2493 38.2867 17.5527 38.59 17.778C38.902 18.0033 39.266 18.116 39.682 18.116C40.0113 18.116 40.293 18.0813 40.527 18.012C40.761 17.934 41.0123 17.8257 41.281 17.687L41.645 18.675C41.3763 18.8223 41.073 18.9393 40.735 19.026C40.4057 19.1127 40.0287 19.156 39.604 19.156ZM45.5829 19.156C44.6122 19.156 43.8409 18.8483 43.2689 18.233C42.7055 17.609 42.4239 16.738 42.4239 15.62C42.4239 14.944 42.5495 14.3417 42.8009 13.813C43.0609 13.2757 43.4205 12.8553 43.8799 12.552C44.3392 12.24 44.8722 12.084 45.4789 12.084C46.1289 12.084 46.6662 12.227 47.0909 12.513C47.5242 12.7903 47.8492 13.1673 48.0659 13.644C48.2825 14.1207 48.3909 14.645 48.3909 15.217C48.3909 15.5203 48.3779 15.815 48.3519 16.101H43.6199C43.6979 16.7337 43.9189 17.2277 44.2829 17.583C44.6469 17.9383 45.1279 18.116 45.7259 18.116C46.1159 18.116 46.4669 18.077 46.7789 17.999C47.0909 17.9123 47.3899 17.804 47.6759 17.674L47.9489 18.675C47.6369 18.8137 47.2859 18.9263 46.8959 19.013C46.5059 19.1083 46.0682 19.156 45.5829 19.156ZM43.6069 15.152H47.3119C47.3119 14.4933 47.1472 13.9863 46.8179 13.631C46.4885 13.2757 46.0335 13.098 45.4529 13.098C44.9502 13.098 44.5342 13.2757 44.2049 13.631C43.8755 13.9777 43.6762 14.4847 43.6069 15.152ZM57.4746 19.156C56.686 19.156 55.9883 18.9697 55.3816 18.597C54.775 18.2157 54.3026 17.6783 53.9646 16.985C53.6266 16.283 53.4576 15.451 53.4576 14.489C53.4576 13.5617 53.6266 12.7427 53.9646 12.032C54.3113 11.3127 54.7966 10.7537 55.4206 10.355C56.0533 9.94767 56.79 9.744 57.6306 9.744C58.064 9.744 58.4583 9.78733 58.8136 9.874C59.169 9.952 59.5026 10.0647 59.8146 10.212L59.4376 11.252C59.169 11.122 58.8916 11.018 58.6056 10.94C58.3283 10.862 57.999 10.823 57.6176 10.823C57.063 10.823 56.5646 10.966 56.1226 11.252C55.6893 11.538 55.347 11.9497 55.0956 12.487C54.8443 13.0243 54.7186 13.6743 54.7186 14.437C54.7186 15.165 54.84 15.802 55.0826 16.348C55.334 16.894 55.6763 17.3187 56.1096 17.622C56.5516 17.9253 57.0543 18.077 57.6176 18.077C58.0423 18.077 58.4106 18.025 58.7226 17.921C59.0346 17.817 59.338 17.6827 59.6326 17.518L60.0096 18.545C59.689 18.7183 59.3206 18.8657 58.9046 18.987C58.4973 19.0997 58.0206 19.156 57.4746 19.156ZM64.0198 19.156C63.3785 19.156 62.8021 19.0087 62.2908 18.714C61.7795 18.4107 61.3765 17.9947 61.0818 17.466C60.7958 16.9287 60.6528 16.3133 60.6528 15.62C60.6528 14.892 60.8001 14.2637 61.0948 13.735C61.3895 13.2063 61.7925 12.799 62.3038 12.513C62.8151 12.227 63.3871 12.084 64.0198 12.084C64.6525 12.084 65.2201 12.227 65.7228 12.513C66.2341 12.799 66.6371 13.2063 66.9318 13.735C67.2351 14.255 67.3868 14.8747 67.3868 15.594C67.3868 16.3133 67.2395 16.9417 66.9448 17.479C66.6501 18.0077 66.2471 18.4193 65.7358 18.714C65.2331 19.0087 64.6611 19.156 64.0198 19.156ZM64.0198 18.116C64.7045 18.116 65.2375 17.8863 65.6188 17.427C66.0001 16.959 66.1908 16.3567 66.1908 15.62C66.1908 15.1693 66.0955 14.7577 65.9048 14.385C65.7141 14.0037 65.4541 13.7003 65.1248 13.475C64.8041 13.241 64.4358 13.124 64.0198 13.124C63.3351 13.124 62.8021 13.3493 62.4208 13.8C62.0395 14.2507 61.8488 14.8487 61.8488 15.594C61.8488 16.0447 61.9441 16.465 62.1348 16.855C62.3255 17.2363 62.5811 17.544 62.9018 17.778C63.2311 18.0033 63.6038 18.116 64.0198 18.116ZM71.5033 19.156C70.9487 19.156 70.4417 19.013 69.9823 18.727C69.523 18.441 69.159 18.038 68.8903 17.518C68.6217 16.9893 68.4873 16.3697 68.4873 15.659C68.4873 14.9743 68.6217 14.3633 68.8903 13.826C69.1677 13.2887 69.5317 12.864 69.9823 12.552C70.4417 12.24 70.9443 12.084 71.4903 12.084C71.941 12.084 72.3267 12.175 72.6473 12.357C72.9767 12.539 73.2323 12.7253 73.4143 12.916V9.38H74.5843V17.362C74.5843 17.6913 74.6623 17.908 74.8183 18.012C74.983 18.1073 75.1607 18.155 75.3513 18.155L75.1043 19.065C74.281 19.065 73.7783 18.7357 73.5963 18.077C73.4057 18.3457 73.137 18.5927 72.7903 18.818C72.4523 19.0433 72.0233 19.156 71.5033 19.156ZM71.7633 18.116C72.084 18.116 72.3873 18.0423 72.6733 17.895C72.968 17.739 73.215 17.5397 73.4143 17.297V13.943C73.2497 13.735 73.02 13.5443 72.7253 13.371C72.4307 13.189 72.1057 13.098 71.7503 13.098C71.3343 13.098 70.9703 13.2107 70.6583 13.436C70.3463 13.6613 70.1037 13.9647 69.9303 14.346C69.7657 14.7187 69.6833 15.1433 69.6833 15.62C69.6833 16.0967 69.7743 16.5257 69.9563 16.907C70.1383 17.2797 70.3853 17.5743 70.6973 17.791C71.018 18.0077 71.3733 18.116 71.7633 18.116ZM79.492 19.156C78.5214 19.156 77.75 18.8483 77.178 18.233C76.6147 17.609 76.333 16.738 76.333 15.62C76.333 14.944 76.4587 14.3417 76.71 13.813C76.97 13.2757 77.3297 12.8553 77.789 12.552C78.2484 12.24 78.7814 12.084 79.388 12.084C80.038 12.084 80.5754 12.227 81 12.513C81.4334 12.7903 81.7584 13.1673 81.975 13.644C82.1917 14.1207 82.3 14.645 82.3 15.217C82.3 15.5203 82.287 15.815 82.261 16.101H77.529C77.607 16.7337 77.828 17.2277 78.192 17.583C78.556 17.9383 79.037 18.116 79.635 18.116C80.025 18.116 80.376 18.077 80.688 17.999C81 17.9123 81.299 17.804 81.585 17.674L81.858 18.675C81.546 18.8137 81.195 18.9263 80.805 19.013C80.415 19.1083 79.9774 19.156 79.492 19.156ZM77.516 15.152H81.221C81.221 14.4933 81.0564 13.9863 80.727 13.631C80.3977 13.2757 79.9427 13.098 79.362 13.098C78.8594 13.098 78.4434 13.2757 78.114 13.631C77.7847 13.9777 77.5854 14.4847 77.516 15.152Z" fill="#999999"/>
<rect x="0.5" y="0.5" width="90" height="29" stroke="#999999"/>
</svg>
