<svg width="102" height="12" viewBox="0 0 102 12" fill="none" xmlns="http://www.w3.org/2000/svg">
<path d="M5.026 11.168C4.17667 11.168 3.42533 10.9673 2.772 10.566C2.11867 10.1553 1.61 9.57667 1.246 8.83C0.882 8.074 0.7 7.178 0.7 6.142C0.7 5.14333 0.882 4.26133 1.246 3.496C1.61933 2.72133 2.142 2.11933 2.814 1.69C3.49533 1.25133 4.28867 1.032 5.194 1.032C5.66067 1.032 6.08533 1.07867 6.468 1.172C6.85067 1.256 7.21 1.37733 7.546 1.536L7.14 2.656C6.85067 2.516 6.552 2.404 6.244 2.32C5.94533 2.236 5.59067 2.194 5.18 2.194C4.58267 2.194 4.046 2.348 3.57 2.656C3.10333 2.964 2.73467 3.40733 2.464 3.986C2.19333 4.56467 2.058 5.26467 2.058 6.086C2.058 6.87 2.18867 7.556 2.45 8.144C2.72067 8.732 3.08933 9.18933 3.556 9.516C4.032 9.84267 4.57333 10.006 5.18 10.006C5.63733 10.006 6.034 9.95 6.37 9.838C6.706 9.726 7.03267 9.58133 7.35 9.404L7.756 10.51C7.41067 10.6967 7.014 10.8553 6.566 10.986C6.12733 11.1073 5.614 11.168 5.026 11.168ZM11.7947 11.168C11.188 11.168 10.6373 11.014 10.1427 10.706C9.64801 10.398 9.25134 9.964 8.95267 9.404C8.66334 8.83467 8.51867 8.16733 8.51867 7.402C8.51867 6.674 8.66334 6.02067 8.95267 5.442C9.25134 4.86333 9.65734 4.406 10.1707 4.07C10.6933 3.72467 11.2907 3.552 11.9627 3.552C12.3827 3.552 12.7607 3.62667 13.0967 3.776C13.442 3.916 13.7407 4.09333 13.9927 4.308V3.72H15.1407V9.236C15.1407 9.59067 15.2247 9.824 15.3927 9.936C15.57 10.0387 15.7613 10.09 15.9667 10.09L15.7007 11.07C14.8047 11.07 14.2633 10.706 14.0767 9.978C13.862 10.2767 13.568 10.552 13.1947 10.804C12.8307 11.0467 12.364 11.168 11.7947 11.168ZM12.0747 10.048C12.4293 10.048 12.7653 9.964 13.0827 9.796C13.4 9.61867 13.666 9.39933 13.8807 9.138V5.232C13.6287 5.05467 13.3487 4.91467 13.0407 4.812C12.742 4.7 12.4247 4.644 12.0887 4.644C11.6407 4.644 11.244 4.76067 10.8987 4.994C10.5627 5.218 10.2967 5.53533 10.1007 5.946C9.90467 6.34733 9.80667 6.81867 9.80667 7.36C9.80667 7.88267 9.90467 8.34933 10.1007 8.76C10.2967 9.16133 10.5673 9.47867 10.9127 9.712C11.258 9.936 11.6453 10.048 12.0747 10.048ZM17.6493 11V3.72H18.8673V5.302C18.9886 4.994 19.152 4.70933 19.3573 4.448C19.5626 4.17733 19.8193 3.96267 20.1273 3.804C20.4353 3.636 20.7946 3.552 21.2053 3.552C21.3453 3.552 21.4853 3.56133 21.6253 3.58C21.7653 3.58933 21.882 3.608 21.9753 3.636L21.5973 4.938C21.42 4.86333 21.21 4.826 20.9673 4.826C20.622 4.826 20.2906 4.924 19.9733 5.12C19.6653 5.316 19.4086 5.61933 19.2033 6.03C19.0073 6.44067 18.9093 6.96333 18.9093 7.598V11H17.6493ZM26.0625 11.168C25.3625 11.168 24.8072 10.9393 24.3965 10.482C23.9952 10.0153 23.7945 9.35267 23.7945 8.494V5.078H22.5345V3.986H23.8225L24.0885 1.69H25.0545V3.986H27.0705V5.078H25.0545V8.592C25.0545 9.13333 25.1665 9.51133 25.3905 9.726C25.6239 9.94067 25.8992 10.048 26.2165 10.048C26.4499 10.048 26.6692 10.0107 26.8745 9.936C27.0892 9.86133 27.2852 9.77267 27.4625 9.67L27.8125 10.678C27.6259 10.79 27.3739 10.8973 27.0565 11C26.7392 11.112 26.4079 11.168 26.0625 11.168ZM31.7175 11.168C30.6722 11.168 29.8415 10.8367 29.2255 10.174C28.6189 9.502 28.3155 8.564 28.3155 7.36C28.3155 6.632 28.4509 5.98333 28.7215 5.414C29.0015 4.83533 29.3889 4.38267 29.8835 4.056C30.3782 3.72 30.9522 3.552 31.6055 3.552C32.3055 3.552 32.8842 3.706 33.3415 4.014C33.8082 4.31267 34.1582 4.71867 34.3915 5.232C34.6249 5.74533 34.7415 6.31 34.7415 6.926C34.7415 7.25267 34.7275 7.57 34.6995 7.878H29.6035C29.6875 8.55933 29.9255 9.09133 30.3175 9.474C30.7095 9.85667 31.2275 10.048 31.8715 10.048C32.2915 10.048 32.6695 10.006 33.0055 9.922C33.3415 9.82867 33.6635 9.712 33.9715 9.572L34.2655 10.65C33.9295 10.7993 33.5515 10.9207 33.1315 11.014C32.7115 11.1167 32.2402 11.168 31.7175 11.168ZM29.5895 6.856H33.5795C33.5795 6.14667 33.4022 5.60067 33.0475 5.218C32.6929 4.83533 32.2029 4.644 31.5775 4.644C31.0362 4.644 30.5882 4.83533 30.2335 5.218C29.8789 5.59133 29.6642 6.13733 29.5895 6.856ZM38.3808 11.168C37.8301 11.168 37.3308 11.098 36.8828 10.958C36.4441 10.818 36.0801 10.636 35.7908 10.412L36.3228 9.362C36.5654 9.56733 36.8688 9.74 37.2328 9.88C37.6061 10.0107 38.0028 10.076 38.4228 10.076C38.9454 10.076 39.3374 9.992 39.5988 9.824C39.8694 9.64667 40.0048 9.42267 40.0048 9.152C40.0048 8.956 39.9534 8.78333 39.8508 8.634C39.7574 8.48467 39.5801 8.34 39.3188 8.2C39.0574 8.05067 38.6794 7.892 38.1848 7.724C37.5034 7.49067 36.9901 7.21533 36.6448 6.898C36.3088 6.57133 36.1408 6.12333 36.1408 5.554C36.1408 4.994 36.3834 4.52267 36.8688 4.14C37.3634 3.748 38.0448 3.552 38.9128 3.552C39.3794 3.552 39.7948 3.60333 40.1588 3.706C40.5228 3.79933 40.8494 3.92067 41.1388 4.07L40.7888 5.106C40.5368 4.95667 40.2474 4.83533 39.9208 4.742C39.6034 4.64867 39.2488 4.602 38.8568 4.602C38.3714 4.602 38.0028 4.7 37.7508 4.896C37.4988 5.092 37.3728 5.30667 37.3728 5.54C37.3728 5.764 37.4708 5.95533 37.6668 6.114C37.8628 6.27267 38.2454 6.44533 38.8148 6.632C39.7388 6.94 40.3828 7.28067 40.7468 7.654C41.1108 8.02733 41.2928 8.494 41.2928 9.054C41.2928 9.70733 41.0268 10.2253 40.4948 10.608C39.9721 10.9813 39.2674 11.168 38.3808 11.168ZM50.1069 11.168C49.4162 11.168 48.8095 11.0093 48.2869 10.692C47.7735 10.3653 47.3769 9.91733 47.0969 9.348C46.8169 8.76933 46.6769 8.10667 46.6769 7.36C46.6769 6.66 46.8169 6.02067 47.0969 5.442C47.3862 4.86333 47.7969 4.406 48.3289 4.07C48.8609 3.72467 49.4862 3.552 50.2049 3.552C50.6155 3.552 50.9749 3.58933 51.2829 3.664C51.6002 3.73867 51.9035 3.846 52.1929 3.986L51.8149 5.05C51.5535 4.91933 51.3015 4.826 51.0589 4.77C50.8255 4.70467 50.5642 4.672 50.2749 4.672C49.6215 4.672 49.0709 4.91 48.6229 5.386C48.1842 5.85267 47.9649 6.50133 47.9649 7.332C47.9649 7.836 48.0582 8.29333 48.2449 8.704C48.4315 9.11467 48.6882 9.44133 49.0149 9.684C49.3509 9.92667 49.7429 10.048 50.1909 10.048C50.5455 10.048 50.8489 10.0107 51.1009 9.936C51.3529 9.852 51.6235 9.73533 51.9129 9.586L52.3049 10.65C52.0155 10.8087 51.6889 10.9347 51.3249 11.028C50.9702 11.1213 50.5642 11.168 50.1069 11.168ZM56.4197 11.168C55.813 11.168 55.2623 11.014 54.7677 10.706C54.273 10.398 53.8763 9.964 53.5777 9.404C53.2883 8.83467 53.1437 8.16733 53.1437 7.402C53.1437 6.674 53.2883 6.02067 53.5777 5.442C53.8763 4.86333 54.2823 4.406 54.7957 4.07C55.3183 3.72467 55.9157 3.552 56.5877 3.552C57.0077 3.552 57.3857 3.62667 57.7217 3.776C58.067 3.916 58.3657 4.09333 58.6177 4.308V3.72H59.7657V9.236C59.7657 9.59067 59.8497 9.824 60.0177 9.936C60.195 10.0387 60.3863 10.09 60.5917 10.09L60.3257 11.07C59.4297 11.07 58.8883 10.706 58.7017 9.978C58.487 10.2767 58.193 10.552 57.8197 10.804C57.4557 11.0467 56.989 11.168 56.4197 11.168ZM56.6997 10.048C57.0543 10.048 57.3903 9.964 57.7077 9.796C58.025 9.61867 58.291 9.39933 58.5057 9.138V5.232C58.2537 5.05467 57.9737 4.91467 57.6657 4.812C57.367 4.7 57.0497 4.644 56.7137 4.644C56.2657 4.644 55.869 4.76067 55.5237 4.994C55.1877 5.218 54.9217 5.53533 54.7257 5.946C54.5297 6.34733 54.4317 6.81867 54.4317 7.36C54.4317 7.88267 54.5297 8.34933 54.7257 8.76C54.9217 9.16133 55.1923 9.47867 55.5377 9.712C55.883 9.936 56.2703 10.048 56.6997 10.048ZM64.8956 11.168C64.2982 11.168 63.7522 11.014 63.2576 10.706C62.7629 10.398 62.3709 9.964 62.0816 9.404C61.7922 8.83467 61.6476 8.16733 61.6476 7.402C61.6476 6.66467 61.7922 6.00667 62.0816 5.428C62.3802 4.84933 62.7722 4.392 63.2576 4.056C63.7522 3.72 64.2936 3.552 64.8816 3.552C65.3669 3.552 65.7822 3.65 66.1276 3.846C66.4822 4.042 66.7576 4.24267 66.9536 4.448V0.64H68.2136V9.236C68.2136 9.59067 68.2976 9.824 68.4656 9.936C68.6429 10.0387 68.8342 10.09 69.0396 10.09L68.7736 11.07C67.8869 11.07 67.3456 10.7153 67.1496 10.006C66.9442 10.2953 66.6549 10.5613 66.2816 10.804C65.9176 11.0467 65.4556 11.168 64.8956 11.168ZM65.1756 10.048C65.5209 10.048 65.8476 9.96867 66.1556 9.81C66.4729 9.642 66.7389 9.42733 66.9536 9.166V5.554C66.7762 5.33 66.5289 5.12467 66.2116 4.938C65.8942 4.742 65.5442 4.644 65.1616 4.644C64.7136 4.644 64.3216 4.76533 63.9856 5.008C63.6496 5.25067 63.3882 5.57733 63.2016 5.988C63.0242 6.38933 62.9356 6.84667 62.9356 7.36C62.9356 7.87333 63.0336 8.33533 63.2296 8.746C63.4256 9.14733 63.6916 9.46467 64.0276 9.698C64.3729 9.93133 64.7556 10.048 65.1756 10.048ZM73.4988 11.168C72.4535 11.168 71.6228 10.8367 71.0068 10.174C70.4001 9.502 70.0968 8.564 70.0968 7.36C70.0968 6.632 70.2321 5.98333 70.5028 5.414C70.7828 4.83533 71.1701 4.38267 71.6648 4.056C72.1595 3.72 72.7335 3.552 73.3868 3.552C74.0868 3.552 74.6655 3.706 75.1228 4.014C75.5895 4.31267 75.9395 4.71867 76.1728 5.232C76.4061 5.74533 76.5228 6.31 76.5228 6.926C76.5228 7.25267 76.5088 7.57 76.4808 7.878H71.3848C71.4688 8.55933 71.7068 9.09133 72.0988 9.474C72.4908 9.85667 73.0088 10.048 73.6528 10.048C74.0728 10.048 74.4508 10.006 74.7868 9.922C75.1228 9.82867 75.4448 9.712 75.7528 9.572L76.0468 10.65C75.7108 10.7993 75.3328 10.9207 74.9128 11.014C74.4928 11.1167 74.0215 11.168 73.4988 11.168ZM71.3708 6.856H75.3608C75.3608 6.14667 75.1835 5.60067 74.8288 5.218C74.4741 4.83533 73.9841 4.644 73.3588 4.644C72.8175 4.644 72.3695 4.83533 72.0148 5.218C71.6601 5.59133 71.4455 6.13733 71.3708 6.856ZM80.988 11.168C80.3814 11.168 79.8307 11.014 79.336 10.706C78.8414 10.398 78.4447 9.964 78.146 9.404C77.8567 8.83467 77.712 8.16733 77.712 7.402C77.712 6.674 77.8567 6.02067 78.146 5.442C78.4447 4.86333 78.8507 4.406 79.364 4.07C79.8867 3.72467 80.484 3.552 81.156 3.552C81.576 3.552 81.954 3.62667 82.29 3.776C82.6354 3.916 82.934 4.09333 83.186 4.308V3.72H84.334V9.236C84.334 9.59067 84.418 9.824 84.586 9.936C84.7634 10.0387 84.9547 10.09 85.16 10.09L84.894 11.07C83.998 11.07 83.4567 10.706 83.27 9.978C83.0554 10.2767 82.7614 10.552 82.388 10.804C82.024 11.0467 81.5574 11.168 80.988 11.168ZM81.268 10.048C81.6227 10.048 81.9587 9.964 82.276 9.796C82.5934 9.61867 82.8594 9.39933 83.074 9.138V5.232C82.822 5.05467 82.542 4.91467 82.234 4.812C81.9354 4.7 81.618 4.644 81.282 4.644C80.834 4.644 80.4374 4.76067 80.092 4.994C79.756 5.218 79.49 5.53533 79.294 5.946C79.098 6.34733 79 6.81867 79 7.36C79 7.88267 79.098 8.34933 79.294 8.76C79.49 9.16133 79.7607 9.47867 80.106 9.712C80.4514 9.936 80.8387 10.048 81.268 10.048ZM89.2227 11.168C88.8027 11.168 88.406 11.0793 88.0327 10.902C87.6593 10.7247 87.356 10.44 87.1227 10.048C86.8893 9.64667 86.7727 9.11467 86.7727 8.452V3.72H88.0327V8.284C88.0327 8.85333 88.154 9.292 88.3967 9.6C88.6393 9.89867 88.994 10.048 89.4607 10.048C89.8433 10.048 90.212 9.97333 90.5667 9.824C90.9307 9.66533 91.2527 9.45533 91.5327 9.194V3.72H92.7927V9.11C92.7927 9.51133 92.8767 9.77733 93.0447 9.908C93.222 10.0293 93.4133 10.09 93.6187 10.09L93.3527 11.07C92.4847 11.07 91.948 10.7247 91.7427 10.034C91.416 10.37 91.038 10.6453 90.6087 10.86C90.1793 11.0653 89.7173 11.168 89.2227 11.168ZM100.08 11.126L97.6299 8.088L95.2079 11.098L94.3119 10.314L96.9019 7.304L94.4099 4.42L95.3899 3.566L97.6439 6.478L99.8559 3.622L100.794 4.42L98.3719 7.248L101.032 10.314L100.08 11.126Z" fill="#999999"/>
</svg>
