<svg width="86" height="12" viewBox="0 0 86 12" fill="none" xmlns="http://www.w3.org/2000/svg">
<path d="M5.026 11.168C4.17667 11.168 3.42533 10.9673 2.772 10.566C2.11867 10.1553 1.61 9.57667 1.246 8.83C0.882 8.074 0.7 7.178 0.7 6.142C0.7 5.14333 0.882 4.26133 1.246 3.496C1.61933 2.72133 2.142 2.11933 2.814 1.69C3.49533 1.25133 4.28867 1.032 5.194 1.032C5.66067 1.032 6.08533 1.07867 6.468 1.172C6.85067 1.256 7.21 1.37733 7.546 1.536L7.14 2.656C6.85067 2.516 6.552 2.404 6.244 2.32C5.94533 2.236 5.59067 2.194 5.18 2.194C4.58267 2.194 4.046 2.348 3.57 2.656C3.10333 2.964 2.73467 3.40733 2.464 3.986C2.19333 4.56467 2.058 5.26467 2.058 6.086C2.058 6.87 2.18867 7.556 2.45 8.144C2.72067 8.732 3.08933 9.18933 3.556 9.516C4.032 9.84267 4.57333 10.006 5.18 10.006C5.63733 10.006 6.034 9.95 6.37 9.838C6.706 9.726 7.03267 9.58133 7.35 9.404L7.756 10.51C7.41067 10.6967 7.014 10.8553 6.566 10.986C6.12733 11.1073 5.614 11.168 5.026 11.168ZM11.9207 11.168C10.8753 11.168 10.0447 10.8367 9.42867 10.174C8.82201 9.502 8.51867 8.564 8.51867 7.36C8.51867 6.632 8.65401 5.98333 8.92467 5.414C9.20467 4.83533 9.59201 4.38267 10.0867 4.056C10.5813 3.72 11.1553 3.552 11.8087 3.552C12.5087 3.552 13.0873 3.706 13.5447 4.014C14.0113 4.31267 14.3613 4.71867 14.5947 5.232C14.828 5.74533 14.9447 6.31 14.9447 6.926C14.9447 7.25267 14.9307 7.57 14.9027 7.878H9.80667C9.89067 8.55933 10.1287 9.09133 10.5207 9.474C10.9127 9.85667 11.4307 10.048 12.0747 10.048C12.4947 10.048 12.8727 10.006 13.2087 9.922C13.5447 9.82867 13.8667 9.712 14.1747 9.572L14.4687 10.65C14.1327 10.7993 13.7547 10.9207 13.3347 11.014C12.9147 11.1167 12.4433 11.168 11.9207 11.168ZM9.79267 6.856H13.7827C13.7827 6.14667 13.6053 5.60067 13.2507 5.218C12.896 4.83533 12.406 4.644 11.7807 4.644C11.2393 4.644 10.7913 4.83533 10.4367 5.218C10.082 5.59133 9.86734 6.13733 9.79267 6.856ZM16.6239 11V3.72H17.8419V4.938C18.1032 4.546 18.4346 4.21933 18.8359 3.958C19.2466 3.68733 19.7319 3.552 20.2919 3.552C21.1132 3.552 21.7246 3.79933 22.1259 4.294C22.5366 4.78867 22.7419 5.442 22.7419 6.254V11H21.4819V6.394C21.4819 5.87133 21.3559 5.45133 21.1039 5.134C20.8612 4.81667 20.5206 4.658 20.0819 4.658C19.6526 4.658 19.2466 4.812 18.8639 5.12C18.4812 5.41867 18.1546 5.77333 17.8839 6.184V11H16.6239ZM27.4571 11.168C26.7571 11.168 26.2017 10.9393 25.7911 10.482C25.3897 10.0153 25.1891 9.35267 25.1891 8.494V5.078H23.9291V3.986H25.2171L25.4831 1.69H26.4491V3.986H28.4651V5.078H26.4491V8.592C26.4491 9.13333 26.5611 9.51133 26.7851 9.726C27.0184 9.94067 27.2937 10.048 27.6111 10.048C27.8444 10.048 28.0637 10.0107 28.2691 9.936C28.4837 9.86133 28.6797 9.77267 28.8571 9.67L29.2071 10.678C29.0204 10.79 28.7684 10.8973 28.4511 11C28.1337 11.112 27.8024 11.168 27.4571 11.168ZM30.4735 11V3.72H31.6915V5.302C31.8128 4.994 31.9762 4.70933 32.1815 4.448C32.3868 4.17733 32.6435 3.96267 32.9515 3.804C33.2595 3.636 33.6188 3.552 34.0295 3.552C34.1695 3.552 34.3095 3.56133 34.4495 3.58C34.5895 3.58933 34.7062 3.608 34.7995 3.636L34.4215 4.938C34.2442 4.86333 34.0342 4.826 33.7915 4.826C33.4462 4.826 33.1148 4.924 32.7975 5.12C32.4895 5.316 32.2328 5.61933 32.0275 6.03C31.8315 6.44067 31.7335 6.96333 31.7335 7.598V11H30.4735ZM38.5535 11.168C37.5082 11.168 36.6775 10.8367 36.0615 10.174C35.4548 9.502 35.1515 8.564 35.1515 7.36C35.1515 6.632 35.2868 5.98333 35.5575 5.414C35.8375 4.83533 36.2248 4.38267 36.7195 4.056C37.2142 3.72 37.7882 3.552 38.4415 3.552C39.1415 3.552 39.7202 3.706 40.1775 4.014C40.6442 4.31267 40.9942 4.71867 41.2275 5.232C41.4608 5.74533 41.5775 6.31 41.5775 6.926C41.5775 7.25267 41.5635 7.57 41.5355 7.878H36.4395C36.5235 8.55933 36.7615 9.09133 37.1535 9.474C37.5455 9.85667 38.0635 10.048 38.7075 10.048C39.1275 10.048 39.5055 10.006 39.8415 9.922C40.1775 9.82867 40.4995 9.712 40.8075 9.572L41.1015 10.65C40.7655 10.7993 40.3875 10.9207 39.9675 11.014C39.5475 11.1167 39.0762 11.168 38.5535 11.168ZM36.4255 6.856H40.4155C40.4155 6.14667 40.2382 5.60067 39.8835 5.218C39.5288 4.83533 39.0388 4.644 38.4135 4.644C37.8722 4.644 37.4242 4.83533 37.0695 5.218C36.7148 5.59133 36.5002 6.13733 36.4255 6.856ZM50.212 11.168C49.6147 11.168 49.0687 11.014 48.574 10.706C48.0793 10.398 47.6873 9.964 47.398 9.404C47.1087 8.83467 46.964 8.16733 46.964 7.402C46.964 6.66467 47.1087 6.00667 47.398 5.428C47.6967 4.84933 48.0887 4.392 48.574 4.056C49.0687 3.72 49.61 3.552 50.198 3.552C50.6833 3.552 51.0987 3.65 51.444 3.846C51.7987 4.042 52.074 4.24267 52.27 4.448V0.64H53.53V9.236C53.53 9.59067 53.614 9.824 53.782 9.936C53.9593 10.0387 54.1507 10.09 54.356 10.09L54.09 11.07C53.2033 11.07 52.662 10.7153 52.466 10.006C52.2607 10.2953 51.9713 10.5613 51.598 10.804C51.234 11.0467 50.772 11.168 50.212 11.168ZM50.492 10.048C50.8373 10.048 51.164 9.96867 51.472 9.81C51.7893 9.642 52.0553 9.42733 52.27 9.166V5.554C52.0927 5.33 51.8453 5.12467 51.528 4.938C51.2107 4.742 50.8607 4.644 50.478 4.644C50.03 4.644 49.638 4.76533 49.302 5.008C48.966 5.25067 48.7047 5.57733 48.518 5.988C48.3407 6.38933 48.252 6.84667 48.252 7.36C48.252 7.87333 48.35 8.33533 48.546 8.746C48.742 9.14733 49.008 9.46467 49.344 9.698C49.6893 9.93133 50.072 10.048 50.492 10.048ZM56.1239 3.972L55.8019 3.482C56.2873 3.146 56.5766 2.72133 56.6699 2.208C56.5859 2.24533 56.4879 2.264 56.3759 2.264C56.1146 2.264 55.8999 2.18 55.7319 2.012C55.5639 1.844 55.4799 1.62933 55.4799 1.368C55.4799 1.09733 55.5686 0.882666 55.7459 0.724C55.9233 0.556 56.1473 0.472 56.4179 0.472C56.7446 0.472 57.0106 0.579333 57.2159 0.794C57.4306 1.00867 57.5379 1.31667 57.5379 1.718C57.5379 2.14733 57.4119 2.572 57.1599 2.992C56.9173 3.40267 56.5719 3.72933 56.1239 3.972ZM61.9978 11.168C61.3911 11.168 60.8405 11.014 60.3458 10.706C59.8511 10.398 59.4545 9.964 59.1558 9.404C58.8665 8.83467 58.7218 8.16733 58.7218 7.402C58.7218 6.674 58.8665 6.02067 59.1558 5.442C59.4545 4.86333 59.8605 4.406 60.3738 4.07C60.8965 3.72467 61.4938 3.552 62.1658 3.552C62.5858 3.552 62.9638 3.62667 63.2998 3.776C63.6451 3.916 63.9438 4.09333 64.1958 4.308V3.72H65.3438V9.236C65.3438 9.59067 65.4278 9.824 65.5958 9.936C65.7731 10.0387 65.9645 10.09 66.1698 10.09L65.9038 11.07C65.0078 11.07 64.4665 10.706 64.2798 9.978C64.0651 10.2767 63.7711 10.552 63.3978 10.804C63.0338 11.0467 62.5671 11.168 61.9978 11.168ZM62.2778 10.048C62.6325 10.048 62.9685 9.964 63.2858 9.796C63.6031 9.61867 63.8691 9.39933 64.0838 9.138V5.232C63.8318 5.05467 63.5518 4.91467 63.2438 4.812C62.9451 4.7 62.6278 4.644 62.2918 4.644C61.8438 4.644 61.4471 4.76067 61.1018 4.994C60.7658 5.218 60.4998 5.53533 60.3038 5.946C60.1078 6.34733 60.0098 6.81867 60.0098 7.36C60.0098 7.88267 60.1078 8.34933 60.3038 8.76C60.4998 9.16133 60.7705 9.47867 61.1158 9.712C61.4611 9.936 61.8485 10.048 62.2778 10.048ZM67.8524 11V3.72H69.1124V11H67.8524ZM68.4824 2.474C68.2398 2.474 68.0298 2.38533 67.8524 2.208C67.6844 2.03067 67.6004 1.82533 67.6004 1.592C67.6004 1.32133 67.6798 1.10667 67.8384 0.947999C67.9971 0.789333 68.2118 0.71 68.4824 0.71C68.7251 0.71 68.9304 0.798666 69.0984 0.976C69.2758 1.144 69.3644 1.34933 69.3644 1.592C69.3644 1.85333 69.2851 2.068 69.1264 2.236C68.9678 2.39467 68.7531 2.474 68.4824 2.474ZM74.1104 11.168C73.5131 11.168 72.9671 11.014 72.4724 10.706C71.9778 10.398 71.5858 9.964 71.2964 9.404C71.0071 8.83467 70.8624 8.16733 70.8624 7.402C70.8624 6.66467 71.0071 6.00667 71.2964 5.428C71.5951 4.84933 71.9871 4.392 72.4724 4.056C72.9671 3.72 73.5084 3.552 74.0964 3.552C74.5818 3.552 74.9971 3.65 75.3424 3.846C75.6971 4.042 75.9724 4.24267 76.1684 4.448V0.64H77.4284V9.236C77.4284 9.59067 77.5124 9.824 77.6804 9.936C77.8578 10.0387 78.0491 10.09 78.2544 10.09L77.9884 11.07C77.1018 11.07 76.5604 10.7153 76.3644 10.006C76.1591 10.2953 75.8698 10.5613 75.4964 10.804C75.1324 11.0467 74.6704 11.168 74.1104 11.168ZM74.3904 10.048C74.7358 10.048 75.0624 9.96867 75.3704 9.81C75.6878 9.642 75.9538 9.42733 76.1684 9.166V5.554C75.9911 5.33 75.7438 5.12467 75.4264 4.938C75.1091 4.742 74.7591 4.644 74.3764 4.644C73.9284 4.644 73.5364 4.76533 73.2004 5.008C72.8644 5.25067 72.6031 5.57733 72.4164 5.988C72.2391 6.38933 72.1504 6.84667 72.1504 7.36C72.1504 7.87333 72.2484 8.33533 72.4444 8.746C72.6404 9.14733 72.9064 9.46467 73.2424 9.698C73.5878 9.93133 73.9704 10.048 74.3904 10.048ZM82.7136 11.168C81.6683 11.168 80.8376 10.8367 80.2216 10.174C79.615 9.502 79.3116 8.564 79.3116 7.36C79.3116 6.632 79.447 5.98333 79.7176 5.414C79.9976 4.83533 80.385 4.38267 80.8796 4.056C81.3743 3.72 81.9483 3.552 82.6016 3.552C83.3016 3.552 83.8803 3.706 84.3376 4.014C84.8043 4.31267 85.1543 4.71867 85.3876 5.232C85.621 5.74533 85.7376 6.31 85.7376 6.926C85.7376 7.25267 85.7236 7.57 85.6956 7.878H80.5996C80.6836 8.55933 80.9216 9.09133 81.3136 9.474C81.7056 9.85667 82.2236 10.048 82.8676 10.048C83.2876 10.048 83.6656 10.006 84.0016 9.922C84.3376 9.82867 84.6596 9.712 84.9676 9.572L85.2616 10.65C84.9256 10.7993 84.5476 10.9207 84.1276 11.014C83.7076 11.1167 83.2363 11.168 82.7136 11.168ZM80.5856 6.856H84.5756C84.5756 6.14667 84.3983 5.60067 84.0436 5.218C83.689 4.83533 83.199 4.644 82.5736 4.644C82.0323 4.644 81.5843 4.83533 81.2296 5.218C80.875 5.59133 80.6603 6.13733 80.5856 6.856Z" fill="#999999"/>
</svg>
