<svg width="143" height="78" viewBox="0 0 143 78" fill="none" xmlns="http://www.w3.org/2000/svg">
<g clip-path="url(#clip0_0_9)">
<path d="M7.994 13.14L6.902 10.34H2.366L1.274 13.112L0.14 12.65L3.976 3.2H5.432L9.212 12.65L7.994 13.14ZM2.786 9.22H6.468L4.634 4.516L2.786 9.22ZM12.8516 13.168C12.4316 13.168 12.0349 13.0793 11.6616 12.902C11.2882 12.7247 10.9849 12.44 10.7516 12.048C10.5182 11.6467 10.4016 11.1147 10.4016 10.452V5.72H11.6616V10.284C11.6616 10.8533 11.7829 11.292 12.0256 11.6C12.2682 11.8987 12.6229 12.048 13.0896 12.048C13.4722 12.048 13.8409 11.9733 14.1956 11.824C14.5596 11.6653 14.8816 11.4553 15.1616 11.194V5.72H16.4216V11.11C16.4216 11.5113 16.5056 11.7773 16.6736 11.908C16.8509 12.0293 17.0422 12.09 17.2476 12.09L16.9816 13.07C16.1136 13.07 15.5769 12.7247 15.3716 12.034C15.0449 12.37 14.6669 12.6453 14.2376 12.86C13.8082 13.0653 13.3462 13.168 12.8516 13.168ZM21.4688 13.168C20.7688 13.168 20.2134 12.9393 19.8028 12.482C19.4014 12.0153 19.2008 11.3527 19.2008 10.494V7.078H17.9408V5.986H19.2288L19.4948 3.69H20.4608V5.986H22.4768V7.078H20.4608V10.592C20.4608 11.1333 20.5728 11.5113 20.7968 11.726C21.0301 11.9407 21.3054 12.048 21.6228 12.048C21.8561 12.048 22.0754 12.0107 22.2808 11.936C22.4954 11.8613 22.6914 11.7727 22.8688 11.67L23.2188 12.678C23.0321 12.79 22.7801 12.8973 22.4628 13C22.1454 13.112 21.8141 13.168 21.4688 13.168ZM27.2778 13.168C26.5871 13.168 25.9665 13.0093 25.4158 12.692C24.8651 12.3653 24.4311 11.9173 24.1138 11.348C23.8058 10.7693 23.6518 10.1067 23.6518 9.36C23.6518 8.576 23.8105 7.89933 24.1278 7.33C24.4451 6.76067 24.8791 6.322 25.4298 6.014C25.9805 5.706 26.5965 5.552 27.2778 5.552C27.9591 5.552 28.5705 5.706 29.1118 6.014C29.6625 6.322 30.0965 6.76067 30.4138 7.33C30.7405 7.89 30.9038 8.55733 30.9038 9.332C30.9038 10.1067 30.7451 10.7833 30.4278 11.362C30.1105 11.9313 29.6765 12.3747 29.1258 12.692C28.5845 13.0093 27.9685 13.168 27.2778 13.168ZM27.2778 12.048C28.0151 12.048 28.5891 11.8007 28.9998 11.306C29.4105 10.802 29.6158 10.1533 29.6158 9.36C29.6158 8.87467 29.5131 8.43133 29.3078 8.03C29.1025 7.61933 28.8225 7.29267 28.4678 7.05C28.1225 6.798 27.7258 6.672 27.2778 6.672C26.5405 6.672 25.9665 6.91467 25.5558 7.4C25.1451 7.88533 24.9398 8.52933 24.9398 9.332C24.9398 9.81733 25.0425 10.27 25.2478 10.69C25.4531 11.1007 25.7285 11.432 26.0738 11.684C26.4285 11.9267 26.8298 12.048 27.2778 12.048ZM35.337 13.168C34.7397 13.168 34.1937 13.014 33.699 12.706C33.2043 12.398 32.8123 11.964 32.523 11.404C32.2337 10.8347 32.089 10.1673 32.089 9.402C32.089 8.66467 32.2337 8.00667 32.523 7.428C32.8217 6.84933 33.2137 6.392 33.699 6.056C34.1937 5.72 34.735 5.552 35.323 5.552C35.8083 5.552 36.2237 5.65 36.569 5.846C36.9237 6.042 37.199 6.24267 37.395 6.448V2.64H38.655V11.236C38.655 11.5907 38.739 11.824 38.907 11.936C39.0843 12.0387 39.2757 12.09 39.481 12.09L39.215 13.07C38.3283 13.07 37.787 12.7153 37.591 12.006C37.3857 12.2953 37.0963 12.5613 36.723 12.804C36.359 13.0467 35.897 13.168 35.337 13.168ZM35.617 12.048C35.9623 12.048 36.289 11.9687 36.597 11.81C36.9143 11.642 37.1803 11.4273 37.395 11.166V7.554C37.2177 7.33 36.9703 7.12467 36.653 6.938C36.3357 6.742 35.9857 6.644 35.603 6.644C35.155 6.644 34.763 6.76533 34.427 7.008C34.091 7.25067 33.8297 7.57733 33.643 7.988C33.4657 8.38933 33.377 8.84667 33.377 9.36C33.377 9.87333 33.475 10.3353 33.671 10.746C33.867 11.1473 34.133 11.4647 34.469 11.698C34.8143 11.9313 35.197 12.048 35.617 12.048ZM43.9402 13.168C42.8949 13.168 42.0642 12.8367 41.4482 12.174C40.8415 11.502 40.5382 10.564 40.5382 9.36C40.5382 8.632 40.6735 7.98333 40.9442 7.414C41.2242 6.83533 41.6115 6.38267 42.1062 6.056C42.6009 5.72 43.1749 5.552 43.8282 5.552C44.5282 5.552 45.1069 5.706 45.5642 6.014C46.0309 6.31267 46.3809 6.71867 46.6142 7.232C46.8475 7.74533 46.9642 8.31 46.9642 8.926C46.9642 9.25267 46.9502 9.57 46.9222 9.878H41.8262C41.9102 10.5593 42.1482 11.0913 42.5402 11.474C42.9322 11.8567 43.4502 12.048 44.0942 12.048C44.5142 12.048 44.8922 12.006 45.2282 11.922C45.5642 11.8287 45.8862 11.712 46.1942 11.572L46.4882 12.65C46.1522 12.7993 45.7742 12.9207 45.3542 13.014C44.9342 13.1167 44.4629 13.168 43.9402 13.168ZM41.8122 8.856H45.8022C45.8022 8.14667 45.6249 7.60067 45.2702 7.218C44.9155 6.83533 44.4255 6.644 43.8002 6.644C43.2589 6.644 42.8109 6.83533 42.4562 7.218C42.1015 7.59133 41.8869 8.13733 41.8122 8.856ZM50.6034 13.168C50.0528 13.168 49.5534 13.098 49.1054 12.958C48.6668 12.818 48.3028 12.636 48.0134 12.412L48.5454 11.362C48.7881 11.5673 49.0914 11.74 49.4554 11.88C49.8288 12.0107 50.2254 12.076 50.6454 12.076C51.1681 12.076 51.5601 11.992 51.8214 11.824C52.0921 11.6467 52.2274 11.4227 52.2274 11.152C52.2274 10.956 52.1761 10.7833 52.0734 10.634C51.9801 10.4847 51.8028 10.34 51.5414 10.2C51.2801 10.0507 50.9021 9.892 50.4074 9.724C49.7261 9.49067 49.2128 9.21533 48.8674 8.898C48.5314 8.57133 48.3634 8.12333 48.3634 7.554C48.3634 6.994 48.6061 6.52267 49.0914 6.14C49.5861 5.748 50.2674 5.552 51.1354 5.552C51.6021 5.552 52.0174 5.60333 52.3814 5.706C52.7454 5.79933 53.0721 5.92067 53.3614 6.07L53.0114 7.106C52.7594 6.95667 52.4701 6.83533 52.1434 6.742C51.8261 6.64867 51.4714 6.602 51.0794 6.602C50.5941 6.602 50.2254 6.7 49.9734 6.896C49.7214 7.092 49.5954 7.30667 49.5954 7.54C49.5954 7.764 49.6934 7.95533 49.8894 8.114C50.0854 8.27267 50.4681 8.44533 51.0374 8.632C51.9614 8.94 52.6054 9.28067 52.9694 9.654C53.3334 10.0273 53.5154 10.494 53.5154 11.054C53.5154 11.7073 53.2494 12.2253 52.7174 12.608C52.1948 12.9813 51.4901 13.168 50.6034 13.168ZM58.1323 13.168C57.4416 13.168 56.8349 13.0093 56.3123 12.692C55.7989 12.3653 55.4023 11.9173 55.1223 11.348C54.8423 10.7693 54.7023 10.1067 54.7023 9.36C54.7023 8.66 54.8423 8.02067 55.1223 7.442C55.4116 6.86333 55.8223 6.406 56.3543 6.07C56.8863 5.72467 57.5116 5.552 58.2303 5.552C58.6409 5.552 59.0003 5.58933 59.3083 5.664C59.6256 5.73867 59.9289 5.846 60.2183 5.986L59.8403 7.05C59.5789 6.91933 59.3269 6.826 59.0843 6.77C58.8509 6.70467 58.5896 6.672 58.3003 6.672C57.6469 6.672 57.0963 6.91 56.6483 7.386C56.2096 7.85267 55.9903 8.50133 55.9903 9.332C55.9903 9.836 56.0836 10.2933 56.2703 10.704C56.4569 11.1147 56.7136 11.4413 57.0403 11.684C57.3763 11.9267 57.7683 12.048 58.2163 12.048C58.5709 12.048 58.8743 12.0107 59.1263 11.936C59.3783 11.852 59.6489 11.7353 59.9383 11.586L60.3303 12.65C60.0409 12.8087 59.7143 12.9347 59.3503 13.028C58.9956 13.1213 58.5896 13.168 58.1323 13.168ZM61.7958 13V5.72H63.0138V7.302C63.1351 6.994 63.2984 6.70933 63.5038 6.448C63.7091 6.17733 63.9658 5.96267 64.2738 5.804C64.5818 5.636 64.9411 5.552 65.3518 5.552C65.4918 5.552 65.6318 5.56133 65.7718 5.58C65.9118 5.58933 66.0284 5.608 66.1218 5.636L65.7438 6.938C65.5664 6.86333 65.3564 6.826 65.1138 6.826C64.7684 6.826 64.4371 6.924 64.1198 7.12C63.8118 7.316 63.5551 7.61933 63.3498 8.03C63.1538 8.44067 63.0558 8.96333 63.0558 9.598V13H61.7958ZM67.3876 13V5.72H68.6476V13H67.3876ZM68.0176 4.474C67.7749 4.474 67.5649 4.38533 67.3876 4.208C67.2196 4.03067 67.1356 3.82533 67.1356 3.592C67.1356 3.32133 67.2149 3.10667 67.3736 2.948C67.5322 2.78933 67.7469 2.71 68.0176 2.71C68.2602 2.71 68.4656 2.79867 68.6336 2.976C68.8109 3.144 68.8996 3.34933 68.8996 3.592C68.8996 3.85333 68.8202 4.068 68.6616 4.236C68.5029 4.39467 68.2882 4.474 68.0176 4.474ZM71.1536 16.08V7.582C71.1536 7.26467 71.0742 7.04067 70.9156 6.91C70.7662 6.77 70.5702 6.7 70.3276 6.7L70.5936 5.72C71.4522 5.72 71.9889 6.06067 72.2036 6.742C72.2969 6.602 72.4462 6.43867 72.6516 6.252C72.8662 6.06533 73.1276 5.902 73.4356 5.762C73.7529 5.622 74.1122 5.552 74.5136 5.552C75.0736 5.552 75.5962 5.70133 76.0816 6C76.5762 6.28933 76.9729 6.714 77.2716 7.274C77.5702 7.82467 77.7196 8.49667 77.7196 9.29C77.7196 10.0647 77.5702 10.746 77.2716 11.334C76.9729 11.9127 76.5809 12.3653 76.0956 12.692C75.6196 13.0093 75.1016 13.168 74.5416 13.168C74.1122 13.168 73.7109 13.084 73.3376 12.916C72.9642 12.7387 72.6562 12.538 72.4136 12.314V16.08H71.1536ZM74.2896 12.048C74.9242 12.048 75.4376 11.8007 75.8296 11.306C76.2309 10.802 76.4316 10.144 76.4316 9.332C76.4316 8.772 76.3289 8.29133 76.1236 7.89C75.9276 7.48867 75.6616 7.18067 75.3256 6.966C74.9989 6.75133 74.6349 6.644 74.2336 6.644C73.8322 6.644 73.4682 6.74667 73.1416 6.952C72.8242 7.148 72.5816 7.36267 72.4136 7.596V11.18C72.6562 11.432 72.9362 11.642 73.2536 11.81C73.5709 11.9687 73.9162 12.048 74.2896 12.048ZM82.0215 13.168C81.3215 13.168 80.7662 12.9393 80.3555 12.482C79.9542 12.0153 79.7535 11.3527 79.7535 10.494V7.078H78.4935V5.986H79.7815L80.0475 3.69H81.0135V5.986H83.0295V7.078H81.0135V10.592C81.0135 11.1333 81.1255 11.5113 81.3495 11.726C81.5828 11.9407 81.8582 12.048 82.1755 12.048C82.4088 12.048 82.6282 12.0107 82.8335 11.936C83.0482 11.8613 83.2442 11.7727 83.4215 11.67L83.7715 12.678C83.5848 12.79 83.3328 12.8973 83.0155 13C82.6982 13.112 82.3668 13.168 82.0215 13.168ZM85.038 13V5.72H86.298V13H85.038ZM85.668 4.474C85.4253 4.474 85.2153 4.38533 85.038 4.208C84.87 4.03067 84.786 3.82533 84.786 3.592C84.786 3.32133 84.8653 3.10667 85.024 2.948C85.1826 2.78933 85.3973 2.71 85.668 2.71C85.9106 2.71 86.116 2.79867 86.284 2.976C86.4613 3.144 86.55 3.34933 86.55 3.592C86.55 3.85333 86.4706 4.068 86.312 4.236C86.1533 4.39467 85.9386 4.474 85.668 4.474ZM91.604 13.168C90.9133 13.168 90.2926 13.0093 89.742 12.692C89.1913 12.3653 88.7573 11.9173 88.44 11.348C88.132 10.7693 87.978 10.1067 87.978 9.36C87.978 8.576 88.1366 7.89933 88.454 7.33C88.7713 6.76067 89.2053 6.322 89.756 6.014C90.3066 5.706 90.9226 5.552 91.604 5.552C92.2853 5.552 92.8966 5.706 93.438 6.014C93.9886 6.322 94.4226 6.76067 94.74 7.33C95.0666 7.89 95.23 8.55733 95.23 9.332C95.23 10.1067 95.0713 10.7833 94.754 11.362C94.4366 11.9313 94.0026 12.3747 93.452 12.692C92.9106 13.0093 92.2946 13.168 91.604 13.168ZM91.604 12.048C92.3413 12.048 92.9153 11.8007 93.326 11.306C93.7366 10.802 93.942 10.1533 93.942 9.36C93.942 8.87467 93.8393 8.43133 93.634 8.03C93.4286 7.61933 93.1486 7.29267 92.794 7.05C92.4486 6.798 92.052 6.672 91.604 6.672C90.8666 6.672 90.2926 6.91467 89.882 7.4C89.4713 7.88533 89.266 8.52933 89.266 9.332C89.266 9.81733 89.3686 10.27 89.574 10.69C89.7793 11.1007 90.0546 11.432 90.4 11.684C90.7546 11.9267 91.156 12.048 91.604 12.048ZM96.9052 13V5.72H98.1232V6.938C98.3845 6.546 98.7158 6.21933 99.1172 5.958C99.5278 5.68733 100.013 5.552 100.573 5.552C101.394 5.552 102.006 5.79933 102.407 6.294C102.818 6.78867 103.023 7.442 103.023 8.254V13H101.763V8.394C101.763 7.87133 101.637 7.45133 101.385 7.134C101.142 6.81667 100.802 6.658 100.363 6.658C99.9338 6.658 99.5278 6.812 99.1452 7.12C98.7625 7.41867 98.4358 7.77333 98.1652 8.184V13H96.9052Z" fill="#999999"/>
<path d="M6.972 44.168L5.754 41.508C5.446 40.8453 5.05867 40.374 4.592 40.094C4.12533 39.814 3.528 39.674 2.8 39.674H2.59V44H1.26V34.228C1.75467 34.1813 2.226 34.1487 2.674 34.13C3.13133 34.102 3.61667 34.088 4.13 34.088C5.32467 34.088 6.22067 34.3307 6.818 34.816C7.42467 35.3013 7.728 35.9267 7.728 36.692C7.728 37.3733 7.52267 37.924 7.112 38.344C6.71067 38.7547 6.12733 39.0627 5.362 39.268C5.614 39.38 5.838 39.5153 6.034 39.674C6.23 39.8233 6.41667 40.0287 6.594 40.29C6.78067 40.542 6.96733 40.8733 7.154 41.284L8.218 43.58L6.972 44.168ZM2.59 38.554H4.13C4.802 38.554 5.348 38.4047 5.768 38.106C6.188 37.8073 6.398 37.378 6.398 36.818C6.398 36.3513 6.202 35.9687 5.81 35.67C5.418 35.362 4.858 35.208 4.13 35.208C3.81267 35.208 3.528 35.2127 3.276 35.222C3.024 35.2313 2.79533 35.2453 2.59 35.264V38.554ZM12.6726 44.168C11.6273 44.168 10.7966 43.8367 10.1806 43.174C9.57396 42.502 9.27063 41.564 9.27063 40.36C9.27063 39.632 9.40596 38.9833 9.67663 38.414C9.95663 37.8353 10.344 37.3827 10.8386 37.056C11.3333 36.72 11.9073 36.552 12.5606 36.552C13.2606 36.552 13.8393 36.706 14.2966 37.014C14.7633 37.3127 15.1133 37.7187 15.3466 38.232C15.58 38.7453 15.6966 39.31 15.6966 39.926C15.6966 40.2527 15.6826 40.57 15.6546 40.878H10.5586C10.6426 41.5593 10.8806 42.0913 11.2726 42.474C11.6646 42.8567 12.1826 43.048 12.8266 43.048C13.2466 43.048 13.6246 43.006 13.9606 42.922C14.2966 42.8287 14.6186 42.712 14.9266 42.572L15.2206 43.65C14.8846 43.7993 14.5066 43.9207 14.0866 44.014C13.6666 44.1167 13.1953 44.168 12.6726 44.168ZM10.5446 39.856H14.5346C14.5346 39.1467 14.3573 38.6007 14.0026 38.218C13.648 37.8353 13.158 37.644 12.5326 37.644C11.9913 37.644 11.5433 37.8353 11.1886 38.218C10.834 38.5913 10.6193 39.1373 10.5446 39.856ZM19.5879 44.168C19.1585 44.168 18.7712 44.0887 18.4259 43.93C18.0805 43.762 17.8052 43.496 17.5999 43.132C17.4039 42.768 17.3059 42.2967 17.3059 41.718V33.64H18.5659V41.592C18.5659 42.096 18.6685 42.4693 18.8739 42.712C19.0885 42.9547 19.3825 43.076 19.7559 43.076C19.9332 43.076 20.1059 43.0573 20.2739 43.02C20.4512 42.9733 20.6005 42.922 20.7219 42.866L21.0299 43.888C20.8619 43.9627 20.6519 44.028 20.3999 44.084C20.1572 44.14 19.8865 44.168 19.5879 44.168ZM24.7966 44.168C24.19 44.168 23.6393 44.014 23.1446 43.706C22.65 43.398 22.2533 42.964 21.9546 42.404C21.6653 41.8347 21.5206 41.1673 21.5206 40.402C21.5206 39.674 21.6653 39.0207 21.9546 38.442C22.2533 37.8633 22.6593 37.406 23.1726 37.07C23.6953 36.7247 24.2926 36.552 24.9646 36.552C25.3846 36.552 25.7626 36.6267 26.0986 36.776C26.444 36.916 26.7426 37.0933 26.9946 37.308V36.72H28.1426V42.236C28.1426 42.5907 28.2266 42.824 28.3946 42.936C28.572 43.0387 28.7633 43.09 28.9686 43.09L28.7026 44.07C27.8066 44.07 27.2653 43.706 27.0786 42.978C26.864 43.2767 26.57 43.552 26.1966 43.804C25.8326 44.0467 25.366 44.168 24.7966 44.168ZM25.0766 43.048C25.4313 43.048 25.7673 42.964 26.0846 42.796C26.402 42.6187 26.668 42.3993 26.8826 42.138V38.232C26.6306 38.0547 26.3506 37.9147 26.0426 37.812C25.744 37.7 25.4266 37.644 25.0906 37.644C24.6426 37.644 24.246 37.7607 23.9006 37.994C23.5646 38.218 23.2986 38.5353 23.1026 38.946C22.9066 39.3473 22.8086 39.8187 22.8086 40.36C22.8086 40.8827 22.9066 41.3493 23.1026 41.76C23.2986 42.1613 23.5693 42.4787 23.9146 42.712C24.26 42.936 24.6473 43.048 25.0766 43.048ZM33.1993 44.168C32.4993 44.168 31.9439 43.9393 31.5333 43.482C31.1319 43.0153 30.9313 42.3527 30.9313 41.494V38.078H29.6713V36.986H30.9593L31.2253 34.69H32.1913V36.986H34.2073V38.078H32.1913V41.592C32.1913 42.1333 32.3033 42.5113 32.5273 42.726C32.7606 42.9407 33.0359 43.048 33.3533 43.048C33.5866 43.048 33.8059 43.0107 34.0113 42.936C34.2259 42.8613 34.4219 42.7727 34.5993 42.67L34.9493 43.678C34.7626 43.79 34.5106 43.8973 34.1933 44C33.8759 44.112 33.5446 44.168 33.1993 44.168ZM36.2157 44V36.72H37.4757V44H36.2157ZM36.8457 35.474C36.603 35.474 36.393 35.3853 36.2157 35.208C36.0477 35.0307 35.9637 34.8253 35.9637 34.592C35.9637 34.3213 36.043 34.1067 36.2017 33.948C36.3604 33.7893 36.575 33.71 36.8457 33.71C37.0884 33.71 37.2937 33.7987 37.4617 33.976C37.639 34.144 37.7277 34.3493 37.7277 34.592C37.7277 34.8533 37.6484 35.068 37.4897 35.236C37.331 35.3947 37.1164 35.474 36.8457 35.474ZM42.7817 44.168C42.091 44.168 41.4704 44.0093 40.9197 43.692C40.369 43.3653 39.935 42.9173 39.6177 42.348C39.3097 41.7693 39.1557 41.1067 39.1557 40.36C39.1557 39.576 39.3144 38.8993 39.6317 38.33C39.949 37.7607 40.383 37.322 40.9337 37.014C41.4844 36.706 42.1004 36.552 42.7817 36.552C43.463 36.552 44.0744 36.706 44.6157 37.014C45.1664 37.322 45.6004 37.7607 45.9177 38.33C46.2444 38.89 46.4077 39.5573 46.4077 40.332C46.4077 41.1067 46.249 41.7833 45.9317 42.362C45.6144 42.9313 45.1804 43.3747 44.6297 43.692C44.0884 44.0093 43.4724 44.168 42.7817 44.168ZM42.7817 43.048C43.519 43.048 44.093 42.8007 44.5037 42.306C44.9144 41.802 45.1197 41.1533 45.1197 40.36C45.1197 39.8747 45.017 39.4313 44.8117 39.03C44.6064 38.6193 44.3264 38.2927 43.9717 38.05C43.6264 37.798 43.2297 37.672 42.7817 37.672C42.0444 37.672 41.4704 37.9147 41.0597 38.4C40.649 38.8853 40.4437 39.5293 40.4437 40.332C40.4437 40.8173 40.5464 41.27 40.7517 41.69C40.957 42.1007 41.2324 42.432 41.5777 42.684C41.9324 42.9267 42.3337 43.048 42.7817 43.048ZM48.0829 44V36.72H49.3009V37.938C49.5622 37.546 49.8936 37.2193 50.2949 36.958C50.7056 36.6873 51.1909 36.552 51.7509 36.552C52.5722 36.552 53.1836 36.7993 53.5849 37.294C53.9956 37.7887 54.2009 38.442 54.2009 39.254V44H52.9409V39.394C52.9409 38.8713 52.8149 38.4513 52.5629 38.134C52.3202 37.8167 51.9796 37.658 51.5409 37.658C51.1116 37.658 50.7056 37.812 50.3229 38.12C49.9402 38.4187 49.6136 38.7733 49.3429 39.184V44H48.0829ZM58.328 44.168C57.7774 44.168 57.278 44.098 56.83 43.958C56.3914 43.818 56.0274 43.636 55.738 43.412L56.27 42.362C56.5127 42.5673 56.816 42.74 57.18 42.88C57.5534 43.0107 57.95 43.076 58.37 43.076C58.8927 43.076 59.2847 42.992 59.546 42.824C59.8167 42.6467 59.952 42.4227 59.952 42.152C59.952 41.956 59.9007 41.7833 59.798 41.634C59.7047 41.4847 59.5274 41.34 59.266 41.2C59.0047 41.0507 58.6267 40.892 58.132 40.724C57.4507 40.4907 56.9374 40.2153 56.592 39.898C56.256 39.5713 56.088 39.1233 56.088 38.554C56.088 37.994 56.3307 37.5227 56.816 37.14C57.3107 36.748 57.992 36.552 58.86 36.552C59.3267 36.552 59.742 36.6033 60.106 36.706C60.47 36.7993 60.7967 36.9207 61.086 37.07L60.736 38.106C60.484 37.9567 60.1947 37.8353 59.868 37.742C59.5507 37.6487 59.196 37.602 58.804 37.602C58.3187 37.602 57.95 37.7 57.698 37.896C57.446 38.092 57.32 38.3067 57.32 38.54C57.32 38.764 57.418 38.9553 57.614 39.114C57.81 39.2727 58.1927 39.4453 58.762 39.632C59.686 39.94 60.33 40.2807 60.694 40.654C61.058 41.0273 61.24 41.494 61.24 42.054C61.24 42.7073 60.974 43.2253 60.442 43.608C59.9194 43.9813 59.2147 44.168 58.328 44.168ZM67.1141 44V36.72H68.3741V44H67.1141ZM67.7441 35.474C67.5015 35.474 67.2915 35.3853 67.1141 35.208C66.9461 35.0307 66.8621 34.8253 66.8621 34.592C66.8621 34.3213 66.9415 34.1067 67.1001 33.948C67.2588 33.7893 67.4735 33.71 67.7441 33.71C67.9868 33.71 68.1921 33.7987 68.3601 33.976C68.5375 34.144 68.6261 34.3493 68.6261 34.592C68.6261 34.8533 68.5468 35.068 68.3881 35.236C68.2295 35.3947 68.0148 35.474 67.7441 35.474ZM70.6141 44V36.72H71.8321V37.938C72.0935 37.546 72.4248 37.2193 72.8261 36.958C73.2368 36.6873 73.7221 36.552 74.2821 36.552C75.1035 36.552 75.7148 36.7993 76.1161 37.294C76.5268 37.7887 76.7321 38.442 76.7321 39.254V44H75.4721V39.394C75.4721 38.8713 75.3461 38.4513 75.0941 38.134C74.8515 37.8167 74.5108 37.658 74.0721 37.658C73.6428 37.658 73.2368 37.812 72.8541 38.12C72.4715 38.4187 72.1448 38.7733 71.8741 39.184V44H70.6141ZM80.8453 44L77.9193 37.056L79.0673 36.58L81.5453 42.572L84.0233 36.58L85.1013 37.056L82.1613 44H80.8453ZM89.0027 44.168C87.9574 44.168 87.1267 43.8367 86.5107 43.174C85.904 42.502 85.6007 41.564 85.6007 40.36C85.6007 39.632 85.736 38.9833 86.0067 38.414C86.2867 37.8353 86.674 37.3827 87.1687 37.056C87.6634 36.72 88.2374 36.552 88.8907 36.552C89.5907 36.552 90.1694 36.706 90.6267 37.014C91.0934 37.3127 91.4434 37.7187 91.6767 38.232C91.91 38.7453 92.0267 39.31 92.0267 39.926C92.0267 40.2527 92.0127 40.57 91.9847 40.878H86.8887C86.9727 41.5593 87.2107 42.0913 87.6027 42.474C87.9947 42.8567 88.5127 43.048 89.1567 43.048C89.5767 43.048 89.9547 43.006 90.2907 42.922C90.6267 42.8287 90.9487 42.712 91.2567 42.572L91.5507 43.65C91.2147 43.7993 90.8367 43.9207 90.4167 44.014C89.9967 44.1167 89.5254 44.168 89.0027 44.168ZM86.8747 39.856H90.8647C90.8647 39.1467 90.6874 38.6007 90.3327 38.218C89.978 37.8353 89.488 37.644 88.8627 37.644C88.3214 37.644 87.8734 37.8353 87.5187 38.218C87.164 38.5913 86.9494 39.1373 86.8747 39.856ZM95.6659 44.168C95.1153 44.168 94.6159 44.098 94.1679 43.958C93.7293 43.818 93.3653 43.636 93.0759 43.412L93.6079 42.362C93.8506 42.5673 94.1539 42.74 94.5179 42.88C94.8913 43.0107 95.2879 43.076 95.7079 43.076C96.2306 43.076 96.6226 42.992 96.8839 42.824C97.1546 42.6467 97.2899 42.4227 97.2899 42.152C97.2899 41.956 97.2386 41.7833 97.1359 41.634C97.0426 41.4847 96.8653 41.34 96.6039 41.2C96.3426 41.0507 95.9646 40.892 95.4699 40.724C94.7886 40.4907 94.2753 40.2153 93.9299 39.898C93.5939 39.5713 93.4259 39.1233 93.4259 38.554C93.4259 37.994 93.6686 37.5227 94.1539 37.14C94.6486 36.748 95.3299 36.552 96.1979 36.552C96.6646 36.552 97.0799 36.6033 97.4439 36.706C97.8079 36.7993 98.1346 36.9207 98.4239 37.07L98.0739 38.106C97.8219 37.9567 97.5326 37.8353 97.2059 37.742C96.8886 37.6487 96.5339 37.602 96.1419 37.602C95.6566 37.602 95.2879 37.7 95.0359 37.896C94.7839 38.092 94.6579 38.3067 94.6579 38.54C94.6579 38.764 94.7559 38.9553 94.9519 39.114C95.1479 39.2727 95.5306 39.4453 96.0999 39.632C97.0239 39.94 97.6679 40.2807 98.0319 40.654C98.3959 41.0273 98.5779 41.494 98.5779 42.054C98.5779 42.7073 98.3119 43.2253 97.7799 43.608C97.2573 43.9813 96.5526 44.168 95.6659 44.168ZM102.803 44.168C102.103 44.168 101.547 43.9393 101.137 43.482C100.735 43.0153 100.535 42.3527 100.535 41.494V38.078H99.2748V36.986H100.563L100.829 34.69H101.795V36.986H103.811V38.078H101.795V41.592C101.795 42.1333 101.907 42.5113 102.131 42.726C102.364 42.9407 102.639 43.048 102.957 43.048C103.19 43.048 103.409 43.0107 103.615 42.936C103.829 42.8613 104.025 42.7727 104.203 42.67L104.553 43.678C104.366 43.79 104.114 43.8973 103.797 44C103.479 44.112 103.148 44.168 102.803 44.168ZM105.819 44V36.72H107.079V44H105.819ZM106.449 35.474C106.207 35.474 105.997 35.3853 105.819 35.208C105.651 35.0307 105.567 34.8253 105.567 34.592C105.567 34.3213 105.647 34.1067 105.805 33.948C105.964 33.7893 106.179 33.71 106.449 33.71C106.692 33.71 106.897 33.7987 107.065 33.976C107.243 34.144 107.331 34.3493 107.331 34.592C107.331 34.8533 107.252 35.068 107.093 35.236C106.935 35.3947 106.72 35.474 106.449 35.474ZM111.279 44.168C110.729 44.168 110.229 44.098 109.781 43.958C109.343 43.818 108.979 43.636 108.689 43.412L109.221 42.362C109.464 42.5673 109.767 42.74 110.131 42.88C110.505 43.0107 110.901 43.076 111.321 43.076C111.844 43.076 112.236 42.992 112.497 42.824C112.768 42.6467 112.903 42.4227 112.903 42.152C112.903 41.956 112.852 41.7833 112.749 41.634C112.656 41.4847 112.479 41.34 112.217 41.2C111.956 41.0507 111.578 40.892 111.083 40.724C110.402 40.4907 109.889 40.2153 109.543 39.898C109.207 39.5713 109.039 39.1233 109.039 38.554C109.039 37.994 109.282 37.5227 109.767 37.14C110.262 36.748 110.943 36.552 111.811 36.552C112.278 36.552 112.693 36.6033 113.057 36.706C113.421 36.7993 113.748 36.9207 114.037 37.07L113.687 38.106C113.435 37.9567 113.146 37.8353 112.819 37.742C112.502 37.6487 112.147 37.602 111.755 37.602C111.27 37.602 110.901 37.7 110.649 37.896C110.397 38.092 110.271 38.3067 110.271 38.54C110.271 38.764 110.369 38.9553 110.565 39.114C110.761 39.2727 111.144 39.4453 111.713 39.632C112.637 39.94 113.281 40.2807 113.645 40.654C114.009 41.0273 114.191 41.494 114.191 42.054C114.191 42.7073 113.925 43.2253 113.393 43.608C112.871 43.9813 112.166 44.168 111.279 44.168ZM117.828 44.168C117.277 44.168 116.778 44.098 116.33 43.958C115.891 43.818 115.527 43.636 115.238 43.412L115.77 42.362C116.013 42.5673 116.316 42.74 116.68 42.88C117.053 43.0107 117.45 43.076 117.87 43.076C118.393 43.076 118.785 42.992 119.046 42.824C119.317 42.6467 119.452 42.4227 119.452 42.152C119.452 41.956 119.401 41.7833 119.298 41.634C119.205 41.4847 119.027 41.34 118.766 41.2C118.505 41.0507 118.127 40.892 117.632 40.724C116.951 40.4907 116.437 40.2153 116.092 39.898C115.756 39.5713 115.588 39.1233 115.588 38.554C115.588 37.994 115.831 37.5227 116.316 37.14C116.811 36.748 117.492 36.552 118.36 36.552C118.827 36.552 119.242 36.6033 119.606 36.706C119.97 36.7993 120.297 36.9207 120.586 37.07L120.236 38.106C119.984 37.9567 119.695 37.8353 119.368 37.742C119.051 37.6487 118.696 37.602 118.304 37.602C117.819 37.602 117.45 37.7 117.198 37.896C116.946 38.092 116.82 38.3067 116.82 38.54C116.82 38.764 116.918 38.9553 117.114 39.114C117.31 39.2727 117.693 39.4453 118.262 39.632C119.186 39.94 119.83 40.2807 120.194 40.654C120.558 41.0273 120.74 41.494 120.74 42.054C120.74 42.7073 120.474 43.2253 119.942 43.608C119.419 43.9813 118.715 44.168 117.828 44.168ZM125.329 44.168C124.284 44.168 123.453 43.8367 122.837 43.174C122.23 42.502 121.927 41.564 121.927 40.36C121.927 39.632 122.062 38.9833 122.333 38.414C122.613 37.8353 123 37.3827 123.495 37.056C123.99 36.72 124.564 36.552 125.217 36.552C125.917 36.552 126.496 36.706 126.953 37.014C127.42 37.3127 127.77 37.7187 128.003 38.232C128.236 38.7453 128.353 39.31 128.353 39.926C128.353 40.2527 128.339 40.57 128.311 40.878H123.215C123.299 41.5593 123.537 42.0913 123.929 42.474C124.321 42.8567 124.839 43.048 125.483 43.048C125.903 43.048 126.281 43.006 126.617 42.922C126.953 42.8287 127.275 42.712 127.583 42.572L127.877 43.65C127.541 43.7993 127.163 43.9207 126.743 44.014C126.323 44.1167 125.852 44.168 125.329 44.168ZM123.201 39.856H127.191C127.191 39.1467 127.014 38.6007 126.659 38.218C126.304 37.8353 125.814 37.644 125.189 37.644C124.648 37.644 124.2 37.8353 123.845 38.218C123.49 38.5913 123.276 39.1373 123.201 39.856ZM132.412 44.168C131.992 44.168 131.595 44.0793 131.222 43.902C130.849 43.7247 130.545 43.44 130.312 43.048C130.079 42.6467 129.962 42.1147 129.962 41.452V36.72H131.222V41.284C131.222 41.8533 131.343 42.292 131.586 42.6C131.829 42.8987 132.183 43.048 132.65 43.048C133.033 43.048 133.401 42.9733 133.756 42.824C134.12 42.6653 134.442 42.4553 134.722 42.194V36.72H135.982V42.11C135.982 42.5113 136.066 42.7773 136.234 42.908C136.411 43.0293 136.603 43.09 136.808 43.09L136.542 44.07C135.674 44.07 135.137 43.7247 134.932 43.034C134.605 43.37 134.227 43.6453 133.798 43.86C133.369 44.0653 132.907 44.168 132.412 44.168ZM138.481 44V36.72H139.699V38.302C139.821 37.994 139.984 37.7093 140.189 37.448C140.395 37.1773 140.651 36.9627 140.959 36.804C141.267 36.636 141.627 36.552 142.037 36.552C142.177 36.552 142.317 36.5613 142.457 36.58C142.597 36.5893 142.714 36.608 142.807 36.636L142.429 37.938C142.252 37.8633 142.042 37.826 141.799 37.826C141.454 37.826 141.123 37.924 140.805 38.12C140.497 38.316 140.241 38.6193 140.035 39.03C139.839 39.4407 139.741 39.9633 139.741 40.598V44H138.481ZM145.678 44.168C145.127 44.168 144.628 44.098 144.18 43.958C143.741 43.818 143.377 43.636 143.088 43.412L143.62 42.362C143.862 42.5673 144.166 42.74 144.53 42.88C144.903 43.0107 145.3 43.076 145.72 43.076C146.242 43.076 146.634 42.992 146.896 42.824C147.166 42.6467 147.302 42.4227 147.302 42.152C147.302 41.956 147.25 41.7833 147.148 41.634C147.054 41.4847 146.877 41.34 146.616 41.2C146.354 41.0507 145.976 40.892 145.482 40.724C144.8 40.4907 144.287 40.2153 143.942 39.898C143.606 39.5713 143.438 39.1233 143.438 38.554C143.438 37.994 143.68 37.5227 144.166 37.14C144.66 36.748 145.342 36.552 146.21 36.552C146.676 36.552 147.092 36.6033 147.456 36.706C147.82 36.7993 148.146 36.9207 148.436 37.07L148.086 38.106C147.834 37.9567 147.544 37.8353 147.218 37.742C146.9 37.6487 146.546 37.602 146.154 37.602C145.668 37.602 145.3 37.7 145.048 37.896C144.796 38.092 144.67 38.3067 144.67 38.54C144.67 38.764 144.768 38.9553 144.964 39.114C145.16 39.2727 145.542 39.4453 146.112 39.632C147.036 39.94 147.68 40.2807 148.044 40.654C148.408 41.0273 148.59 41.494 148.59 42.054C148.59 42.7073 148.324 43.2253 147.792 43.608C147.269 43.9813 146.564 44.168 145.678 44.168Z" fill="#999999"/>
<path d="M1.26 75V65.2H2.59V75H1.26ZM4.97547 75V67.72H6.19347V68.938C6.4548 68.546 6.78614 68.2193 7.18747 67.958C7.59814 67.6873 8.08347 67.552 8.64347 67.552C9.4648 67.552 10.0761 67.7993 10.4775 68.294C10.8881 68.7887 11.0935 69.442 11.0935 70.254V75H9.83347V70.394C9.83347 69.8713 9.70747 69.4513 9.45547 69.134C9.2128 68.8167 8.87214 68.658 8.43347 68.658C8.00414 68.658 7.59814 68.812 7.21547 69.12C6.8328 69.4187 6.50614 69.7733 6.23547 70.184V75H4.97547ZM13.4006 75V69.078H12.2806V67.986H13.4006V67.132C13.4006 66.3107 13.6293 65.662 14.0866 65.186C14.544 64.71 15.1413 64.472 15.8786 64.472C16.2613 64.472 16.5973 64.5187 16.8866 64.612C17.176 64.696 17.4513 64.8033 17.7126 64.934L17.3346 65.998C17.1386 65.8953 16.9286 65.802 16.7046 65.718C16.4806 65.634 16.2333 65.592 15.9626 65.592C15.5706 65.592 15.2533 65.718 15.0106 65.97C14.7773 66.2127 14.6606 66.572 14.6606 67.048V67.986H16.8166V69.078H14.6606V75H13.4006ZM20.9887 75.168C20.2981 75.168 19.6774 75.0093 19.1267 74.692C18.5761 74.3653 18.1421 73.9173 17.8247 73.348C17.5167 72.7693 17.3627 72.1067 17.3627 71.36C17.3627 70.576 17.5214 69.8993 17.8387 69.33C18.1561 68.7607 18.5901 68.322 19.1407 68.014C19.6914 67.706 20.3074 67.552 20.9887 67.552C21.6701 67.552 22.2814 67.706 22.8227 68.014C23.3734 68.322 23.8074 68.7607 24.1247 69.33C24.4514 69.89 24.6147 70.5573 24.6147 71.332C24.6147 72.1067 24.4561 72.7833 24.1387 73.362C23.8214 73.9313 23.3874 74.3747 22.8367 74.692C22.2954 75.0093 21.6794 75.168 20.9887 75.168ZM20.9887 74.048C21.7261 74.048 22.3001 73.8007 22.7107 73.306C23.1214 72.802 23.3267 72.1533 23.3267 71.36C23.3267 70.8747 23.2241 70.4313 23.0187 70.03C22.8134 69.6193 22.5334 69.2927 22.1787 69.05C21.8334 68.798 21.4367 68.672 20.9887 68.672C20.2514 68.672 19.6774 68.9147 19.2667 69.4C18.8561 69.8853 18.6507 70.5293 18.6507 71.332C18.6507 71.8173 18.7534 72.27 18.9587 72.69C19.1641 73.1007 19.4394 73.432 19.7847 73.684C20.1394 73.9267 20.5407 74.048 20.9887 74.048ZM26.2899 75V67.72H27.5079V69.302C27.6293 68.994 27.7926 68.7093 27.9979 68.448C28.2033 68.1773 28.4599 67.9627 28.7679 67.804C29.0759 67.636 29.4353 67.552 29.8459 67.552C29.9859 67.552 30.1259 67.5613 30.2659 67.58C30.4059 67.5893 30.5226 67.608 30.6159 67.636L30.2379 68.938C30.0606 68.8633 29.8506 68.826 29.6079 68.826C29.2626 68.826 28.9313 68.924 28.6139 69.12C28.3059 69.316 28.0493 69.6193 27.8439 70.03C27.6479 70.4407 27.5499 70.9633 27.5499 71.598V75H26.2899ZM31.8817 75V67.72H33.0997V68.938C33.3611 68.546 33.6924 68.2193 34.0937 67.958C34.4951 67.6873 34.9524 67.552 35.4657 67.552C36.0444 67.552 36.5157 67.692 36.8797 67.972C37.2531 68.252 37.5144 68.6253 37.6637 69.092C37.9531 68.6627 38.2937 68.2987 38.6857 68C39.0871 67.7013 39.5817 67.552 40.1697 67.552C40.9631 67.552 41.5511 67.804 41.9337 68.308C42.3257 68.8027 42.5217 69.4513 42.5217 70.254V75H41.2617V70.352C41.2617 69.848 41.1451 69.442 40.9117 69.134C40.6784 68.8167 40.3564 68.658 39.9457 68.658C39.5257 68.658 39.1337 68.8167 38.7697 69.134C38.4151 69.442 38.1024 69.806 37.8317 70.226V75H36.5717V70.352C36.5717 69.848 36.4551 69.442 36.2217 69.134C35.9884 68.8167 35.6664 68.658 35.2557 68.658C34.8451 68.658 34.4577 68.812 34.0937 69.12C33.7297 69.4187 33.4124 69.7733 33.1417 70.184V75H31.8817ZM47.4783 75.168C46.8716 75.168 46.3209 75.014 45.8263 74.706C45.3316 74.398 44.9349 73.964 44.6363 73.404C44.3469 72.8347 44.2023 72.1673 44.2023 71.402C44.2023 70.674 44.3469 70.0207 44.6363 69.442C44.9349 68.8633 45.3409 68.406 45.8543 68.07C46.3769 67.7247 46.9743 67.552 47.6463 67.552C48.0663 67.552 48.4443 67.6267 48.7803 67.776C49.1256 67.916 49.4243 68.0933 49.6763 68.308V67.72H50.8243V73.236C50.8243 73.5907 50.9083 73.824 51.0763 73.936C51.2536 74.0387 51.4449 74.09 51.6503 74.09L51.3843 75.07C50.4883 75.07 49.9469 74.706 49.7603 73.978C49.5456 74.2767 49.2516 74.552 48.8783 74.804C48.5143 75.0467 48.0476 75.168 47.4783 75.168ZM47.7583 74.048C48.1129 74.048 48.4489 73.964 48.7663 73.796C49.0836 73.6187 49.3496 73.3993 49.5643 73.138V69.232C49.3123 69.0547 49.0323 68.9147 48.7243 68.812C48.4256 68.7 48.1083 68.644 47.7723 68.644C47.3243 68.644 46.9276 68.7607 46.5823 68.994C46.2463 69.218 45.9803 69.5353 45.7843 69.946C45.5883 70.3473 45.4903 70.8187 45.4903 71.36C45.4903 71.8827 45.5883 72.3493 45.7843 72.76C45.9803 73.1613 46.2509 73.4787 46.5963 73.712C46.9416 73.936 47.3289 74.048 47.7583 74.048ZM55.8809 75.168C55.1809 75.168 54.6256 74.9393 54.2149 74.482C53.8136 74.0153 53.6129 73.3527 53.6129 72.494V69.078H52.3529V67.986H53.6409L53.9069 65.69H54.8729V67.986H56.8889V69.078H54.8729V72.592C54.8729 73.1333 54.9849 73.5113 55.2089 73.726C55.4422 73.9407 55.7176 74.048 56.0349 74.048C56.2682 74.048 56.4876 74.0107 56.6929 73.936C56.9076 73.8613 57.1036 73.7727 57.2809 73.67L57.6309 74.678C57.4442 74.79 57.1922 74.8973 56.8749 75C56.5576 75.112 56.2262 75.168 55.8809 75.168ZM58.8973 75V67.72H60.1573V75H58.8973ZM59.5273 66.474C59.2847 66.474 59.0747 66.3853 58.8973 66.208C58.7293 66.0307 58.6453 65.8253 58.6453 65.592C58.6453 65.3213 58.7247 65.1067 58.8833 64.948C59.042 64.7893 59.2567 64.71 59.5273 64.71C59.77 64.71 59.9753 64.7987 60.1433 64.976C60.3207 65.144 60.4093 65.3493 60.4093 65.592C60.4093 65.8533 60.33 66.068 60.1713 66.236C60.0127 66.3947 59.798 66.474 59.5273 66.474ZM65.4633 75.168C64.7727 75.168 64.152 75.0093 63.6013 74.692C63.0507 74.3653 62.6167 73.9173 62.2993 73.348C61.9913 72.7693 61.8373 72.1067 61.8373 71.36C61.8373 70.576 61.996 69.8993 62.3133 69.33C62.6307 68.7607 63.0647 68.322 63.6153 68.014C64.166 67.706 64.782 67.552 65.4633 67.552C66.1447 67.552 66.756 67.706 67.2973 68.014C67.848 68.322 68.282 68.7607 68.5993 69.33C68.926 69.89 69.0893 70.5573 69.0893 71.332C69.0893 72.1067 68.9307 72.7833 68.6133 73.362C68.296 73.9313 67.862 74.3747 67.3113 74.692C66.77 75.0093 66.154 75.168 65.4633 75.168ZM65.4633 74.048C66.2007 74.048 66.7747 73.8007 67.1853 73.306C67.596 72.802 67.8013 72.1533 67.8013 71.36C67.8013 70.8747 67.6987 70.4313 67.4933 70.03C67.288 69.6193 67.008 69.2927 66.6533 69.05C66.308 68.798 65.9113 68.672 65.4633 68.672C64.726 68.672 64.152 68.9147 63.7413 69.4C63.3307 69.8853 63.1253 70.5293 63.1253 71.332C63.1253 71.8173 63.228 72.27 63.4333 72.69C63.6387 73.1007 63.914 73.432 64.2593 73.684C64.614 73.9267 65.0153 74.048 65.4633 74.048ZM70.7645 75V67.72H71.9825V68.938C72.2439 68.546 72.5752 68.2193 72.9765 67.958C73.3872 67.6873 73.8725 67.552 74.4325 67.552C75.2539 67.552 75.8652 67.7993 76.2665 68.294C76.6772 68.7887 76.8825 69.442 76.8825 70.254V75H75.6225V70.394C75.6225 69.8713 75.4965 69.4513 75.2445 69.134C75.0019 68.8167 74.6612 68.658 74.2225 68.658C73.7932 68.658 73.3872 68.812 73.0045 69.12C72.6219 69.4187 72.2952 69.7733 72.0245 70.184V75H70.7645ZM81.0097 75.168C80.459 75.168 79.9597 75.098 79.5117 74.958C79.073 74.818 78.709 74.636 78.4197 74.412L78.9517 73.362C79.1944 73.5673 79.4977 73.74 79.8617 73.88C80.235 74.0107 80.6317 74.076 81.0517 74.076C81.5744 74.076 81.9664 73.992 82.2277 73.824C82.4984 73.6467 82.6337 73.4227 82.6337 73.152C82.6337 72.956 82.5824 72.7833 82.4797 72.634C82.3864 72.4847 82.209 72.34 81.9477 72.2C81.6864 72.0507 81.3084 71.892 80.8137 71.724C80.1324 71.4907 79.619 71.2153 79.2737 70.898C78.9377 70.5713 78.7697 70.1233 78.7697 69.554C78.7697 68.994 79.0124 68.5227 79.4977 68.14C79.9924 67.748 80.6737 67.552 81.5417 67.552C82.0084 67.552 82.4237 67.6033 82.7877 67.706C83.1517 67.7993 83.4784 67.9207 83.7677 68.07L83.4177 69.106C83.1657 68.9567 82.8764 68.8353 82.5497 68.742C82.2324 68.6487 81.8777 68.602 81.4857 68.602C81.0004 68.602 80.6317 68.7 80.3797 68.896C80.1277 69.092 80.0017 69.3067 80.0017 69.54C80.0017 69.764 80.0997 69.9553 80.2957 70.114C80.4917 70.2727 80.8744 70.4453 81.4437 70.632C82.3677 70.94 83.0117 71.2807 83.3757 71.654C83.7397 72.0273 83.9217 72.494 83.9217 73.054C83.9217 73.7073 83.6557 74.2253 83.1237 74.608C82.601 74.9813 81.8964 75.168 81.0097 75.168ZM92.0078 75.168C91.5784 75.168 91.1911 75.0887 90.8458 74.93C90.5004 74.762 90.2251 74.496 90.0198 74.132C89.8238 73.768 89.7258 73.2967 89.7258 72.718V64.64H90.9858V72.592C90.9858 73.096 91.0884 73.4693 91.2938 73.712C91.5084 73.9547 91.8024 74.076 92.1758 74.076C92.3531 74.076 92.5258 74.0573 92.6938 74.02C92.8711 73.9733 93.0204 73.922 93.1418 73.866L93.4498 74.888C93.2818 74.9627 93.0718 75.028 92.8198 75.084C92.5771 75.14 92.3064 75.168 92.0078 75.168ZM97.3425 75.168C96.2972 75.168 95.4665 74.8367 94.8505 74.174C94.2439 73.502 93.9405 72.564 93.9405 71.36C93.9405 70.632 94.0759 69.9833 94.3465 69.414C94.6265 68.8353 95.0139 68.3827 95.5085 68.056C96.0032 67.72 96.5772 67.552 97.2305 67.552C97.9305 67.552 98.5092 67.706 98.9665 68.014C99.4332 68.3127 99.7832 68.7187 100.017 69.232C100.25 69.7453 100.367 70.31 100.367 70.926C100.367 71.2527 100.353 71.57 100.325 71.878H95.2285C95.3125 72.5593 95.5505 73.0913 95.9425 73.474C96.3345 73.8567 96.8525 74.048 97.4965 74.048C97.9165 74.048 98.2945 74.006 98.6305 73.922C98.9665 73.8287 99.2885 73.712 99.5965 73.572L99.8905 74.65C99.5545 74.7993 99.1765 74.9207 98.7565 75.014C98.3365 75.1167 97.8652 75.168 97.3425 75.168ZM95.2145 70.856H99.2045C99.2045 70.1467 99.0272 69.6007 98.6725 69.218C98.3179 68.8353 97.8279 68.644 97.2025 68.644C96.6612 68.644 96.2132 68.8353 95.8585 69.218C95.5039 69.5913 95.2892 70.1373 95.2145 70.856ZM96.0685 66.95L95.6345 66.096L98.2805 64.346L98.8685 65.522L96.0685 66.95ZM104.72 78.248C104.29 78.248 103.87 78.1967 103.46 78.094C103.058 77.9913 102.699 77.8373 102.382 77.632L102.844 76.54C103.068 76.7173 103.329 76.862 103.628 76.974C103.926 77.0953 104.29 77.156 104.72 77.156C105.382 77.156 105.9 76.9787 106.274 76.624C106.656 76.2787 106.848 75.7233 106.848 74.958V74.062C106.661 74.286 106.39 74.5007 106.036 74.706C105.69 74.902 105.275 75 104.79 75C104.239 75 103.716 74.86 103.222 74.58C102.727 74.2907 102.326 73.8707 102.018 73.32C101.71 72.7693 101.556 72.1067 101.556 71.332C101.556 70.604 101.705 69.9553 102.004 69.386C102.312 68.8167 102.722 68.3687 103.236 68.042C103.749 67.7153 104.314 67.552 104.93 67.552C105.34 67.552 105.714 67.622 106.05 67.762C106.386 67.902 106.675 68.0747 106.918 68.28V67.72H108.066V74.832C108.066 75.6347 107.926 76.288 107.646 76.792C107.366 77.296 106.974 77.6647 106.47 77.898C105.975 78.1313 105.392 78.248 104.72 78.248ZM105.07 73.88C105.443 73.88 105.779 73.796 106.078 73.628C106.376 73.46 106.619 73.264 106.806 73.04V69.232C106.6 69.0827 106.353 68.9473 106.064 68.826C105.774 68.7047 105.438 68.644 105.056 68.644C104.673 68.644 104.314 68.7467 103.978 68.952C103.642 69.1573 103.366 69.456 103.152 69.848C102.946 70.2307 102.844 70.702 102.844 71.262C102.844 71.794 102.946 72.256 103.152 72.648C103.366 73.04 103.642 73.3433 103.978 73.558C104.314 73.7727 104.678 73.88 105.07 73.88ZM113.021 75.168C112.415 75.168 111.864 75.014 111.369 74.706C110.875 74.398 110.478 73.964 110.179 73.404C109.89 72.8347 109.745 72.1673 109.745 71.402C109.745 70.674 109.89 70.0207 110.179 69.442C110.478 68.8633 110.884 68.406 111.397 68.07C111.92 67.7247 112.517 67.552 113.189 67.552C113.609 67.552 113.987 67.6267 114.323 67.776C114.669 67.916 114.967 68.0933 115.219 68.308V67.72H116.367V73.236C116.367 73.5907 116.451 73.824 116.619 73.936C116.797 74.0387 116.988 74.09 117.193 74.09L116.927 75.07C116.031 75.07 115.49 74.706 115.303 73.978C115.089 74.2767 114.795 74.552 114.421 74.804C114.057 75.0467 113.591 75.168 113.021 75.168ZM113.301 74.048C113.656 74.048 113.992 73.964 114.309 73.796C114.627 73.6187 114.893 73.3993 115.107 73.138V69.232C114.855 69.0547 114.575 68.9147 114.267 68.812C113.969 68.7 113.651 68.644 113.315 68.644C112.867 68.644 112.471 68.7607 112.125 68.994C111.789 69.218 111.523 69.5353 111.327 69.946C111.131 70.3473 111.033 70.8187 111.033 71.36C111.033 71.8827 111.131 72.3493 111.327 72.76C111.523 73.1613 111.794 73.4787 112.139 73.712C112.485 73.936 112.872 74.048 113.301 74.048ZM121.088 75.168C120.659 75.168 120.271 75.0887 119.926 74.93C119.581 74.762 119.305 74.496 119.1 74.132C118.904 73.768 118.806 73.2967 118.806 72.718V64.64H120.066V72.592C120.066 73.096 120.169 73.4693 120.374 73.712C120.589 73.9547 120.883 74.076 121.256 74.076C121.433 74.076 121.606 74.0573 121.774 74.02C121.951 73.9733 122.101 73.922 122.222 73.866L122.53 74.888C122.362 74.9627 122.152 75.028 121.9 75.084C121.657 75.14 121.387 75.168 121.088 75.168ZM126.423 75.168C125.377 75.168 124.547 74.8367 123.931 74.174C123.324 73.502 123.021 72.564 123.021 71.36C123.021 70.632 123.156 69.9833 123.427 69.414C123.707 68.8353 124.094 68.3827 124.589 68.056C125.083 67.72 125.657 67.552 126.311 67.552C127.011 67.552 127.589 67.706 128.047 68.014C128.513 68.3127 128.863 68.7187 129.097 69.232C129.33 69.7453 129.447 70.31 129.447 70.926C129.447 71.2527 129.433 71.57 129.405 71.878H124.309C124.393 72.5593 124.631 73.0913 125.023 73.474C125.415 73.8567 125.933 74.048 126.577 74.048C126.997 74.048 127.375 74.006 127.711 73.922C128.047 73.8287 128.369 73.712 128.677 73.572L128.971 74.65C128.635 74.7993 128.257 74.9207 127.837 75.014C127.417 75.1167 126.945 75.168 126.423 75.168ZM124.295 70.856H128.285C128.285 70.1467 128.107 69.6007 127.753 69.218C127.398 68.8353 126.908 68.644 126.283 68.644C125.741 68.644 125.293 68.8353 124.939 69.218C124.584 69.5913 124.369 70.1373 124.295 70.856ZM133.086 75.168C132.535 75.168 132.036 75.098 131.588 74.958C131.149 74.818 130.785 74.636 130.496 74.412L131.028 73.362C131.271 73.5673 131.574 73.74 131.938 73.88C132.311 74.0107 132.708 74.076 133.128 74.076C133.651 74.076 134.043 73.992 134.304 73.824C134.575 73.6467 134.71 73.4227 134.71 73.152C134.71 72.956 134.659 72.7833 134.556 72.634C134.463 72.4847 134.285 72.34 134.024 72.2C133.763 72.0507 133.385 71.892 132.89 71.724C132.209 71.4907 131.695 71.2153 131.35 70.898C131.014 70.5713 130.846 70.1233 130.846 69.554C130.846 68.994 131.089 68.5227 131.574 68.14C132.069 67.748 132.75 67.552 133.618 67.552C134.085 67.552 134.5 67.6033 134.864 67.706C135.228 67.7993 135.555 67.9207 135.844 68.07L135.494 69.106C135.242 68.9567 134.953 68.8353 134.626 68.742C134.309 68.6487 133.954 68.602 133.562 68.602C133.077 68.602 132.708 68.7 132.456 68.896C132.204 69.092 132.078 69.3067 132.078 69.54C132.078 69.764 132.176 69.9553 132.372 70.114C132.568 70.2727 132.951 70.4453 133.52 70.632C134.444 70.94 135.088 71.2807 135.452 71.654C135.816 72.0273 135.998 72.494 135.998 73.054C135.998 73.7073 135.732 74.2253 135.2 74.608C134.677 74.9813 133.973 75.168 133.086 75.168Z" fill="#999999"/>
</g>
<defs>
<clipPath id="clip0_0_9">
<rect width="143" height="78" fill="white"/>
</clipPath>
</defs>
</svg>
