<svg width="144" height="12" viewBox="0 0 144 12" fill="none" xmlns="http://www.w3.org/2000/svg">
<path d="M5.026 11.168C4.17667 11.168 3.42533 10.9673 2.772 10.566C2.11867 10.1553 1.61 9.57667 1.246 8.83C0.882 8.074 0.7 7.178 0.7 6.142C0.7 5.14333 0.882 4.26133 1.246 3.496C1.61933 2.72133 2.142 2.11933 2.814 1.69C3.49533 1.25133 4.28867 1.032 5.194 1.032C5.66067 1.032 6.08533 1.07867 6.468 1.172C6.85067 1.256 7.21 1.37733 7.546 1.536L7.14 2.656C6.85067 2.516 6.552 2.404 6.244 2.32C5.94533 2.236 5.59067 2.194 5.18 2.194C4.58267 2.194 4.046 2.348 3.57 2.656C3.10333 2.964 2.73467 3.40733 2.464 3.986C2.19333 4.56467 2.058 5.26467 2.058 6.086C2.058 6.87 2.18867 7.556 2.45 8.144C2.72067 8.732 3.08933 9.18933 3.556 9.516C4.032 9.84267 4.57333 10.006 5.18 10.006C5.63733 10.006 6.034 9.95 6.37 9.838C6.706 9.726 7.03267 9.58133 7.35 9.404L7.756 10.51C7.41067 10.6967 7.014 10.8553 6.566 10.986C6.12733 11.1073 5.614 11.168 5.026 11.168ZM12.0747 11.168C11.384 11.168 10.7633 11.0093 10.2127 10.692C9.66201 10.3653 9.22801 9.91733 8.91067 9.348C8.60267 8.76933 8.44867 8.10667 8.44867 7.36C8.44867 6.576 8.60734 5.89933 8.92467 5.33C9.24201 4.76067 9.67601 4.322 10.2267 4.014C10.7773 3.706 11.3933 3.552 12.0747 3.552C12.756 3.552 13.3673 3.706 13.9087 4.014C14.4593 4.322 14.8933 4.76067 15.2107 5.33C15.5373 5.89 15.7007 6.55733 15.7007 7.332C15.7007 8.10667 15.542 8.78333 15.2247 9.362C14.9073 9.93133 14.4733 10.3747 13.9227 10.692C13.3813 11.0093 12.7653 11.168 12.0747 11.168ZM12.0747 10.048C12.812 10.048 13.386 9.80067 13.7967 9.306C14.2073 8.802 14.4127 8.15333 14.4127 7.36C14.4127 6.87467 14.31 6.43133 14.1047 6.03C13.8993 5.61933 13.6193 5.29267 13.2647 5.05C12.9193 4.798 12.5227 4.672 12.0747 4.672C11.3373 4.672 10.7633 4.91467 10.3527 5.4C9.94201 5.88533 9.73667 6.52933 9.73667 7.332C9.73667 7.81733 9.83934 8.27 10.0447 8.69C10.25 9.10067 10.5253 9.432 10.8707 9.684C11.2253 9.92667 11.6267 10.048 12.0747 10.048ZM17.3759 11V3.72H18.5939V4.938C18.8552 4.546 19.1865 4.21933 19.5879 3.958C19.9985 3.68733 20.4839 3.552 21.0439 3.552C21.8652 3.552 22.4765 3.79933 22.8779 4.294C23.2885 4.78867 23.4939 5.442 23.4939 6.254V11H22.2339V6.394C22.2339 5.87133 22.1079 5.45133 21.8559 5.134C21.6132 4.81667 21.2725 4.658 20.8339 4.658C20.4045 4.658 19.9985 4.812 19.6159 5.12C19.2332 5.41867 18.9065 5.77333 18.6359 6.184V11H17.3759ZM28.419 11.168C27.8217 11.168 27.2757 11.014 26.781 10.706C26.2863 10.398 25.8943 9.964 25.605 9.404C25.3157 8.83467 25.171 8.16733 25.171 7.402C25.171 6.66467 25.3157 6.00667 25.605 5.428C25.9037 4.84933 26.2957 4.392 26.781 4.056C27.2757 3.72 27.817 3.552 28.405 3.552C28.8903 3.552 29.3057 3.65 29.651 3.846C30.0057 4.042 30.281 4.24267 30.477 4.448V0.64H31.737V9.236C31.737 9.59067 31.821 9.824 31.989 9.936C32.1663 10.0387 32.3577 10.09 32.563 10.09L32.297 11.07C31.4103 11.07 30.869 10.7153 30.673 10.006C30.4677 10.2953 30.1783 10.5613 29.805 10.804C29.441 11.0467 28.979 11.168 28.419 11.168ZM28.699 10.048C29.0443 10.048 29.371 9.96867 29.679 9.81C29.9963 9.642 30.2623 9.42733 30.477 9.166V5.554C30.2997 5.33 30.0523 5.12467 29.735 4.938C29.4177 4.742 29.0677 4.644 28.685 4.644C28.237 4.644 27.845 4.76533 27.509 5.008C27.173 5.25067 26.9117 5.57733 26.725 5.988C26.5477 6.38933 26.459 6.84667 26.459 7.36C26.459 7.87333 26.557 8.33533 26.753 8.746C26.949 9.14733 27.215 9.46467 27.551 9.698C27.8963 9.93133 28.279 10.048 28.699 10.048ZM34.247 11V3.72H35.507V11H34.247ZM34.877 2.474C34.6343 2.474 34.4243 2.38533 34.247 2.208C34.079 2.03067 33.995 1.82533 33.995 1.592C33.995 1.32133 34.0743 1.10667 34.233 0.947999C34.3916 0.789333 34.6063 0.71 34.877 0.71C35.1196 0.71 35.325 0.798666 35.493 0.976C35.6703 1.144 35.759 1.34933 35.759 1.592C35.759 1.85333 35.6796 2.068 35.521 2.236C35.3623 2.39467 35.1476 2.474 34.877 2.474ZM40.295 11.168C39.595 11.168 39.0396 10.9393 38.629 10.482C38.2276 10.0153 38.027 9.35267 38.027 8.494V5.078H36.767V3.986H38.055L38.321 1.69H39.287V3.986H41.303V5.078H39.287V8.592C39.287 9.13333 39.399 9.51133 39.623 9.726C39.8563 9.94067 40.1316 10.048 40.449 10.048C40.6823 10.048 40.9016 10.0107 41.107 9.936C41.3216 9.86133 41.5176 9.77267 41.695 9.67L42.045 10.678C41.8583 10.79 41.6063 10.8973 41.289 11C40.9716 11.112 40.6403 11.168 40.295 11.168ZM43.3114 11V3.72H44.5714V11H43.3114ZM43.9414 2.474C43.6987 2.474 43.4887 2.38533 43.3114 2.208C43.1434 2.03067 43.0594 1.82533 43.0594 1.592C43.0594 1.32133 43.1387 1.10667 43.2974 0.947999C43.4561 0.789333 43.6707 0.71 43.9414 0.71C44.1841 0.71 44.3894 0.798666 44.5574 0.976C44.7347 1.144 44.8234 1.34933 44.8234 1.592C44.8234 1.85333 44.7441 2.068 44.5854 2.236C44.4267 2.39467 44.2121 2.474 43.9414 2.474ZM49.8774 11.168C49.1867 11.168 48.5661 11.0093 48.0154 10.692C47.4647 10.3653 47.0307 9.91733 46.7134 9.348C46.4054 8.76933 46.2514 8.10667 46.2514 7.36C46.2514 6.576 46.4101 5.89933 46.7274 5.33C47.0447 4.76067 47.4787 4.322 48.0294 4.014C48.5801 3.706 49.1961 3.552 49.8774 3.552C50.5587 3.552 51.1701 3.706 51.7114 4.014C52.2621 4.322 52.6961 4.76067 53.0134 5.33C53.3401 5.89 53.5034 6.55733 53.5034 7.332C53.5034 8.10667 53.3447 8.78333 53.0274 9.362C52.7101 9.93133 52.2761 10.3747 51.7254 10.692C51.1841 11.0093 50.5681 11.168 49.8774 11.168ZM49.8774 10.048C50.6147 10.048 51.1887 9.80067 51.5994 9.306C52.0101 8.802 52.2154 8.15333 52.2154 7.36C52.2154 6.87467 52.1127 6.43133 51.9074 6.03C51.7021 5.61933 51.4221 5.29267 51.0674 5.05C50.7221 4.798 50.3254 4.672 49.8774 4.672C49.1401 4.672 48.5661 4.91467 48.1554 5.4C47.7447 5.88533 47.5394 6.52933 47.5394 7.332C47.5394 7.81733 47.6421 8.27 47.8474 8.69C48.0527 9.10067 48.3281 9.432 48.6734 9.684C49.0281 9.92667 49.4294 10.048 49.8774 10.048ZM55.1786 11V3.72H56.3966V4.938C56.6579 4.546 56.9893 4.21933 57.3906 3.958C57.8013 3.68733 58.2866 3.552 58.8466 3.552C59.6679 3.552 60.2793 3.79933 60.6806 4.294C61.0913 4.78867 61.2966 5.442 61.2966 6.254V11H60.0366V6.394C60.0366 5.87133 59.9106 5.45133 59.6586 5.134C59.4159 4.81667 59.0753 4.658 58.6366 4.658C58.2073 4.658 57.8013 4.812 57.4186 5.12C57.0359 5.41867 56.7093 5.77333 56.4386 6.184V11H55.1786ZM65.4238 11.168C64.8731 11.168 64.3738 11.098 63.9258 10.958C63.4871 10.818 63.1231 10.636 62.8338 10.412L63.3658 9.362C63.6084 9.56733 63.9118 9.74 64.2758 9.88C64.6491 10.0107 65.0458 10.076 65.4658 10.076C65.9884 10.076 66.3804 9.992 66.6418 9.824C66.9124 9.64667 67.0478 9.42267 67.0478 9.152C67.0478 8.956 66.9964 8.78333 66.8938 8.634C66.8004 8.48467 66.6231 8.34 66.3618 8.2C66.1004 8.05067 65.7224 7.892 65.2278 7.724C64.5464 7.49067 64.0331 7.21533 63.6878 6.898C63.3518 6.57133 63.1838 6.12333 63.1838 5.554C63.1838 4.994 63.4264 4.52267 63.9118 4.14C64.4064 3.748 65.0878 3.552 65.9558 3.552C66.4224 3.552 66.8378 3.60333 67.2018 3.706C67.5658 3.79933 67.8924 3.92067 68.1818 4.07L67.8318 5.106C67.5798 4.95667 67.2904 4.83533 66.9638 4.742C66.6464 4.64867 66.2918 4.602 65.8998 4.602C65.4144 4.602 65.0458 4.7 64.7938 4.896C64.5418 5.092 64.4158 5.30667 64.4158 5.54C64.4158 5.764 64.5138 5.95533 64.7098 6.114C64.9058 6.27267 65.2884 6.44533 65.8578 6.632C66.7818 6.94 67.4258 7.28067 67.7898 7.654C68.1538 8.02733 68.3358 8.494 68.3358 9.054C68.3358 9.70733 68.0698 10.2253 67.5378 10.608C67.0151 10.9813 66.3104 11.168 65.4238 11.168ZM76.9678 11.168C76.3705 11.168 75.8245 11.014 75.3298 10.706C74.8352 10.398 74.4432 9.964 74.1538 9.404C73.8645 8.83467 73.7198 8.16733 73.7198 7.402C73.7198 6.66467 73.8645 6.00667 74.1538 5.428C74.4525 4.84933 74.8445 4.392 75.3298 4.056C75.8245 3.72 76.3658 3.552 76.9538 3.552C77.4392 3.552 77.8545 3.65 78.1998 3.846C78.5545 4.042 78.8298 4.24267 79.0258 4.448V0.64H80.2858V9.236C80.2858 9.59067 80.3698 9.824 80.5378 9.936C80.7152 10.0387 80.9065 10.09 81.1118 10.09L80.8458 11.07C79.9592 11.07 79.4178 10.7153 79.2218 10.006C79.0165 10.2953 78.7272 10.5613 78.3538 10.804C77.9898 11.0467 77.5278 11.168 76.9678 11.168ZM77.2478 10.048C77.5932 10.048 77.9198 9.96867 78.2278 9.81C78.5452 9.642 78.8112 9.42733 79.0258 9.166V5.554C78.8485 5.33 78.6012 5.12467 78.2838 4.938C77.9665 4.742 77.6165 4.644 77.2338 4.644C76.7858 4.644 76.3938 4.76533 76.0578 5.008C75.7218 5.25067 75.4605 5.57733 75.2738 5.988C75.0965 6.38933 75.0078 6.84667 75.0078 7.36C75.0078 7.87333 75.1058 8.33533 75.3018 8.746C75.4978 9.14733 75.7638 9.46467 76.0998 9.698C76.4452 9.93133 76.8278 10.048 77.2478 10.048ZM82.8798 3.972L82.5578 3.482C83.0431 3.146 83.3324 2.72133 83.4258 2.208C83.3418 2.24533 83.2438 2.264 83.1318 2.264C82.8704 2.264 82.6558 2.18 82.4878 2.012C82.3198 1.844 82.2358 1.62933 82.2358 1.368C82.2358 1.09733 82.3244 0.882666 82.5018 0.724C82.6791 0.556 82.9031 0.472 83.1738 0.472C83.5004 0.472 83.7664 0.579333 83.9718 0.794C84.1864 1.00867 84.2938 1.31667 84.2938 1.718C84.2938 2.14733 84.1678 2.572 83.9158 2.992C83.6731 3.40267 83.3278 3.72933 82.8798 3.972ZM88.3477 11.168C87.9277 11.168 87.531 11.0793 87.1577 10.902C86.7843 10.7247 86.481 10.44 86.2477 10.048C86.0143 9.64667 85.8977 9.11467 85.8977 8.452V3.72H87.1577V8.284C87.1577 8.85333 87.279 9.292 87.5217 9.6C87.7643 9.89867 88.119 10.048 88.5857 10.048C88.9683 10.048 89.337 9.97333 89.6917 9.824C90.0557 9.66533 90.3777 9.45533 90.6577 9.194V3.72H91.9177V9.11C91.9177 9.51133 92.0017 9.77733 92.1697 9.908C92.347 10.0293 92.5383 10.09 92.7437 10.09L92.4777 11.07C91.6097 11.07 91.073 10.7247 90.8677 10.034C90.541 10.37 90.163 10.6453 89.7337 10.86C89.3043 11.0653 88.8423 11.168 88.3477 11.168ZM96.9649 11.168C96.2649 11.168 95.7095 10.9393 95.2989 10.482C94.8975 10.0153 94.6969 9.35267 94.6969 8.494V5.078H93.4369V3.986H94.7249L94.9909 1.69H95.9569V3.986H97.9729V5.078H95.9569V8.592C95.9569 9.13333 96.0689 9.51133 96.2929 9.726C96.5262 9.94067 96.8015 10.048 97.1189 10.048C97.3522 10.048 97.5715 10.0107 97.7769 9.936C97.9915 9.86133 98.1875 9.77267 98.3649 9.67L98.7149 10.678C98.5282 10.79 98.2762 10.8973 97.9589 11C97.6415 11.112 97.3102 11.168 96.9649 11.168ZM99.9813 11V3.72H101.241V11H99.9813ZM100.611 2.474C100.369 2.474 100.159 2.38533 99.9813 2.208C99.8133 2.03067 99.7293 1.82533 99.7293 1.592C99.7293 1.32133 99.8087 1.10667 99.9673 0.947999C100.126 0.789333 100.341 0.71 100.611 0.71C100.854 0.71 101.059 0.798666 101.227 0.976C101.405 1.144 101.493 1.34933 101.493 1.592C101.493 1.85333 101.414 2.068 101.255 2.236C101.097 2.39467 100.882 2.474 100.611 2.474ZM105.693 11.168C105.264 11.168 104.877 11.0887 104.531 10.93C104.186 10.762 103.911 10.496 103.705 10.132C103.509 9.768 103.411 9.29667 103.411 8.718V0.64H104.671V8.592C104.671 9.096 104.774 9.46933 104.979 9.712C105.194 9.95467 105.488 10.076 105.861 10.076C106.039 10.076 106.211 10.0573 106.379 10.02C106.557 9.97333 106.706 9.922 106.827 9.866L107.135 10.888C106.967 10.9627 106.757 11.028 106.505 11.084C106.263 11.14 105.992 11.168 105.693 11.168ZM108.321 11V3.72H109.581V11H108.321ZM108.951 2.474C108.709 2.474 108.499 2.38533 108.321 2.208C108.153 2.03067 108.069 1.82533 108.069 1.592C108.069 1.32133 108.149 1.10667 108.307 0.947999C108.466 0.789333 108.681 0.71 108.951 0.71C109.194 0.71 109.399 0.798666 109.567 0.976C109.745 1.144 109.833 1.34933 109.833 1.592C109.833 1.85333 109.754 2.068 109.595 2.236C109.437 2.39467 109.222 2.474 108.951 2.474ZM113.781 11.168C113.231 11.168 112.731 11.098 112.283 10.958C111.845 10.818 111.481 10.636 111.191 10.412L111.723 9.362C111.966 9.56733 112.269 9.74 112.633 9.88C113.007 10.0107 113.403 10.076 113.823 10.076C114.346 10.076 114.738 9.992 114.999 9.824C115.27 9.64667 115.405 9.42267 115.405 9.152C115.405 8.956 115.354 8.78333 115.251 8.634C115.158 8.48467 114.981 8.34 114.719 8.2C114.458 8.05067 114.08 7.892 113.585 7.724C112.904 7.49067 112.391 7.21533 112.045 6.898C111.709 6.57133 111.541 6.12333 111.541 5.554C111.541 4.994 111.784 4.52267 112.269 4.14C112.764 3.748 113.445 3.552 114.313 3.552C114.78 3.552 115.195 3.60333 115.559 3.706C115.923 3.79933 116.25 3.92067 116.539 4.07L116.189 5.106C115.937 4.95667 115.648 4.83533 115.321 4.742C115.004 4.64867 114.649 4.602 114.257 4.602C113.772 4.602 113.403 4.7 113.151 4.896C112.899 5.092 112.773 5.30667 112.773 5.54C112.773 5.764 112.871 5.95533 113.067 6.114C113.263 6.27267 113.646 6.44533 114.215 6.632C115.139 6.94 115.783 7.28067 116.147 7.654C116.511 8.02733 116.693 8.494 116.693 9.054C116.693 9.70733 116.427 10.2253 115.895 10.608C115.373 10.9813 114.668 11.168 113.781 11.168ZM121.156 11.168C120.549 11.168 119.999 11.014 119.504 10.706C119.009 10.398 118.613 9.964 118.314 9.404C118.025 8.83467 117.88 8.16733 117.88 7.402C117.88 6.674 118.025 6.02067 118.314 5.442C118.613 4.86333 119.019 4.406 119.532 4.07C120.055 3.72467 120.652 3.552 121.324 3.552C121.744 3.552 122.122 3.62667 122.458 3.776C122.803 3.916 123.102 4.09333 123.354 4.308V3.72H124.502V9.236C124.502 9.59067 124.586 9.824 124.754 9.936C124.931 10.0387 125.123 10.09 125.328 10.09L125.062 11.07C124.166 11.07 123.625 10.706 123.438 9.978C123.223 10.2767 122.929 10.552 122.556 10.804C122.192 11.0467 121.725 11.168 121.156 11.168ZM121.436 10.048C121.791 10.048 122.127 9.964 122.444 9.796C122.761 9.61867 123.027 9.39933 123.242 9.138V5.232C122.99 5.05467 122.71 4.91467 122.402 4.812C122.103 4.7 121.786 4.644 121.45 4.644C121.002 4.644 120.605 4.76067 120.26 4.994C119.924 5.218 119.658 5.53533 119.462 5.946C119.266 6.34733 119.168 6.81867 119.168 7.36C119.168 7.88267 119.266 8.34933 119.462 8.76C119.658 9.16133 119.929 9.47867 120.274 9.712C120.619 9.936 121.007 10.048 121.436 10.048ZM129.559 11.168C128.859 11.168 128.303 10.9393 127.893 10.482C127.491 10.0153 127.291 9.35267 127.291 8.494V5.078H126.031V3.986H127.319L127.585 1.69H128.551V3.986H130.567V5.078H128.551V8.592C128.551 9.13333 128.663 9.51133 128.887 9.726C129.12 9.94067 129.395 10.048 129.713 10.048C129.946 10.048 130.165 10.0107 130.371 9.936C130.585 9.86133 130.781 9.77267 130.959 9.67L131.309 10.678C131.122 10.79 130.87 10.8973 130.553 11C130.235 11.112 129.904 11.168 129.559 11.168ZM132.575 11V3.72H133.835V11H132.575ZM133.205 2.474C132.962 2.474 132.752 2.38533 132.575 2.208C132.407 2.03067 132.323 1.82533 132.323 1.592C132.323 1.32133 132.402 1.10667 132.561 0.947999C132.72 0.789333 132.934 0.71 133.205 0.71C133.448 0.71 133.653 0.798666 133.821 0.976C133.998 1.144 134.087 1.34933 134.087 1.592C134.087 1.85333 134.008 2.068 133.849 2.236C133.69 2.39467 133.476 2.474 133.205 2.474ZM139.141 11.168C138.45 11.168 137.83 11.0093 137.279 10.692C136.728 10.3653 136.294 9.91733 135.977 9.348C135.669 8.76933 135.515 8.10667 135.515 7.36C135.515 6.576 135.674 5.89933 135.991 5.33C136.308 4.76067 136.742 4.322 137.293 4.014C137.844 3.706 138.46 3.552 139.141 3.552C139.822 3.552 140.434 3.706 140.975 4.014C141.526 4.322 141.96 4.76067 142.277 5.33C142.604 5.89 142.767 6.55733 142.767 7.332C142.767 8.10667 142.608 8.78333 142.291 9.362C141.974 9.93133 141.54 10.3747 140.989 10.692C140.448 11.0093 139.832 11.168 139.141 11.168ZM139.141 10.048C139.878 10.048 140.452 9.80067 140.863 9.306C141.274 8.802 141.479 8.15333 141.479 7.36C141.479 6.87467 141.376 6.43133 141.171 6.03C140.966 5.61933 140.686 5.29267 140.331 5.05C139.986 4.798 139.589 4.672 139.141 4.672C138.404 4.672 137.83 4.91467 137.419 5.4C137.008 5.88533 136.803 6.52933 136.803 7.332C136.803 7.81733 136.906 8.27 137.111 8.69C137.316 9.10067 137.592 9.432 137.937 9.684C138.292 9.92667 138.693 10.048 139.141 10.048ZM144.442 11V3.72H145.66V4.938C145.922 4.546 146.253 4.21933 146.654 3.958C147.065 3.68733 147.55 3.552 148.11 3.552C148.932 3.552 149.543 3.79933 149.944 4.294C150.355 4.78867 150.56 5.442 150.56 6.254V11H149.3V6.394C149.3 5.87133 149.174 5.45133 148.922 5.134C148.68 4.81667 148.339 4.658 147.9 4.658C147.471 4.658 147.065 4.812 146.682 5.12C146.3 5.41867 145.973 5.77333 145.702 6.184V11H144.442Z" fill="#999999"/>
</svg>
