<svg width="96" height="12" viewBox="0 0 96 12" fill="none" xmlns="http://www.w3.org/2000/svg">
<path d="M5.026 11.168C4.17667 11.168 3.42533 10.9673 2.772 10.566C2.11867 10.1553 1.61 9.57667 1.246 8.83C0.882 8.074 0.7 7.178 0.7 6.142C0.7 5.14333 0.882 4.26133 1.246 3.496C1.61933 2.72133 2.142 2.11933 2.814 1.69C3.49533 1.25133 4.28867 1.032 5.194 1.032C5.66067 1.032 6.08533 1.07867 6.468 1.172C6.85067 1.256 7.21 1.37733 7.546 1.536L7.14 2.656C6.85067 2.516 6.552 2.404 6.244 2.32C5.94533 2.236 5.59067 2.194 5.18 2.194C4.58267 2.194 4.046 2.348 3.57 2.656C3.10333 2.964 2.73467 3.40733 2.464 3.986C2.19333 4.56467 2.058 5.26467 2.058 6.086C2.058 6.87 2.18867 7.556 2.45 8.144C2.72067 8.732 3.08933 9.18933 3.556 9.516C4.032 9.84267 4.57333 10.006 5.18 10.006C5.63733 10.006 6.034 9.95 6.37 9.838C6.706 9.726 7.03267 9.58133 7.35 9.404L7.756 10.51C7.41067 10.6967 7.014 10.8553 6.566 10.986C6.12733 11.1073 5.614 11.168 5.026 11.168ZM12.0747 11.168C11.384 11.168 10.7633 11.0093 10.2127 10.692C9.66201 10.3653 9.22801 9.91733 8.91067 9.348C8.60267 8.76933 8.44867 8.10667 8.44867 7.36C8.44867 6.576 8.60734 5.89933 8.92467 5.33C9.24201 4.76067 9.67601 4.322 10.2267 4.014C10.7773 3.706 11.3933 3.552 12.0747 3.552C12.756 3.552 13.3673 3.706 13.9087 4.014C14.4593 4.322 14.8933 4.76067 15.2107 5.33C15.5373 5.89 15.7007 6.55733 15.7007 7.332C15.7007 8.10667 15.542 8.78333 15.2247 9.362C14.9073 9.93133 14.4733 10.3747 13.9227 10.692C13.3813 11.0093 12.7653 11.168 12.0747 11.168ZM12.0747 10.048C12.812 10.048 13.386 9.80067 13.7967 9.306C14.2073 8.802 14.4127 8.15333 14.4127 7.36C14.4127 6.87467 14.31 6.43133 14.1047 6.03C13.8993 5.61933 13.6193 5.29267 13.2647 5.05C12.9193 4.798 12.5227 4.672 12.0747 4.672C11.3373 4.672 10.7633 4.91467 10.3527 5.4C9.94201 5.88533 9.73667 6.52933 9.73667 7.332C9.73667 7.81733 9.83934 8.27 10.0447 8.69C10.25 9.10067 10.5253 9.432 10.8707 9.684C11.2253 9.92667 11.6267 10.048 12.0747 10.048ZM17.3759 11V3.72H18.5939V4.938C18.8552 4.546 19.1865 4.21933 19.5879 3.958C19.9985 3.68733 20.4839 3.552 21.0439 3.552C21.8652 3.552 22.4765 3.79933 22.8779 4.294C23.2885 4.78867 23.4939 5.442 23.4939 6.254V11H22.2339V6.394C22.2339 5.87133 22.1079 5.45133 21.8559 5.134C21.6132 4.81667 21.2725 4.658 20.8339 4.658C20.4045 4.658 19.9985 4.812 19.6159 5.12C19.2332 5.41867 18.9065 5.77333 18.6359 6.184V11H17.3759ZM25.801 11V5.078H24.681V3.986H25.801V3.132C25.801 2.31067 26.0297 1.662 26.487 1.186C26.9443 0.71 27.5417 0.472 28.279 0.472C28.6617 0.472 28.9977 0.518666 29.287 0.611999C29.5763 0.695999 29.8517 0.803333 30.113 0.933999L29.735 1.998C29.539 1.89533 29.329 1.802 29.105 1.718C28.881 1.634 28.6337 1.592 28.363 1.592C27.971 1.592 27.6537 1.718 27.411 1.97C27.1777 2.21267 27.061 2.572 27.061 3.048V3.986H29.217V5.078H27.061V11H25.801ZM30.5282 11V3.72H31.7882V11H30.5282ZM31.1582 2.474C30.9155 2.474 30.7055 2.38533 30.5282 2.208C30.3602 2.03067 30.2762 1.82533 30.2762 1.592C30.2762 1.32133 30.3555 1.10667 30.5142 0.947999C30.6729 0.789333 30.8875 0.71 31.1582 0.71C31.4009 0.71 31.6062 0.798666 31.7742 0.976C31.9515 1.144 32.0402 1.34933 32.0402 1.592C32.0402 1.85333 31.9609 2.068 31.8022 2.236C31.6435 2.39467 31.4289 2.474 31.1582 2.474ZM36.7862 11.168C36.1889 11.168 35.6429 11.014 35.1482 10.706C34.6535 10.398 34.2615 9.964 33.9722 9.404C33.6829 8.83467 33.5382 8.16733 33.5382 7.402C33.5382 6.66467 33.6829 6.00667 33.9722 5.428C34.2709 4.84933 34.6629 4.392 35.1482 4.056C35.6429 3.72 36.1842 3.552 36.7722 3.552C37.2575 3.552 37.6729 3.65 38.0182 3.846C38.3729 4.042 38.6482 4.24267 38.8442 4.448V0.64H40.1042V9.236C40.1042 9.59067 40.1882 9.824 40.3562 9.936C40.5335 10.0387 40.7249 10.09 40.9302 10.09L40.6642 11.07C39.7775 11.07 39.2362 10.7153 39.0402 10.006C38.8349 10.2953 38.5455 10.5613 38.1722 10.804C37.8082 11.0467 37.3462 11.168 36.7862 11.168ZM37.0662 10.048C37.4115 10.048 37.7382 9.96867 38.0462 9.81C38.3635 9.642 38.6295 9.42733 38.8442 9.166V5.554C38.6669 5.33 38.4195 5.12467 38.1022 4.938C37.7849 4.742 37.4349 4.644 37.0522 4.644C36.6042 4.644 36.2122 4.76533 35.8762 5.008C35.5402 5.25067 35.2789 5.57733 35.0922 5.988C34.9149 6.38933 34.8262 6.84667 34.8262 7.36C34.8262 7.87333 34.9242 8.33533 35.1202 8.746C35.3162 9.14733 35.5822 9.46467 35.9182 9.698C36.2635 9.93133 36.6462 10.048 37.0662 10.048ZM45.3894 11.168C44.3441 11.168 43.5134 10.8367 42.8974 10.174C42.2908 9.502 41.9874 8.564 41.9874 7.36C41.9874 6.632 42.1228 5.98333 42.3934 5.414C42.6734 4.83533 43.0608 4.38267 43.5554 4.056C44.0501 3.72 44.6241 3.552 45.2774 3.552C45.9774 3.552 46.5561 3.706 47.0134 4.014C47.4801 4.31267 47.8301 4.71867 48.0634 5.232C48.2968 5.74533 48.4134 6.31 48.4134 6.926C48.4134 7.25267 48.3994 7.57 48.3714 7.878H43.2754C43.3594 8.55933 43.5974 9.09133 43.9894 9.474C44.3814 9.85667 44.8994 10.048 45.5434 10.048C45.9634 10.048 46.3414 10.006 46.6774 9.922C47.0134 9.82867 47.3354 9.712 47.6434 9.572L47.9374 10.65C47.6014 10.7993 47.2234 10.9207 46.8034 11.014C46.3834 11.1167 45.9121 11.168 45.3894 11.168ZM43.2614 6.856H47.2514C47.2514 6.14667 47.0741 5.60067 46.7194 5.218C46.3648 4.83533 45.8748 4.644 45.2494 4.644C44.7081 4.644 44.2601 4.83533 43.9054 5.218C43.5508 5.59133 43.3361 6.13733 43.2614 6.856ZM50.0927 11V3.72H51.3107V4.938C51.572 4.546 51.9033 4.21933 52.3047 3.958C52.7153 3.68733 53.2007 3.552 53.7607 3.552C54.582 3.552 55.1933 3.79933 55.5947 4.294C56.0053 4.78867 56.2107 5.442 56.2107 6.254V11H54.9507V6.394C54.9507 5.87133 54.8247 5.45133 54.5727 5.134C54.33 4.81667 53.9893 4.658 53.5507 4.658C53.1213 4.658 52.7153 4.812 52.3327 5.12C51.95 5.41867 51.6233 5.77333 51.3527 6.184V11H50.0927ZM60.9258 11.168C60.2258 11.168 59.6705 10.9393 59.2598 10.482C58.8585 10.0153 58.6578 9.35267 58.6578 8.494V5.078H57.3978V3.986H58.6858L58.9518 1.69H59.9178V3.986H61.9338V5.078H59.9178V8.592C59.9178 9.13333 60.0298 9.51133 60.2538 9.726C60.4871 9.94067 60.7625 10.048 61.0798 10.048C61.3131 10.048 61.5325 10.0107 61.7378 9.936C61.9525 9.86133 62.1485 9.77267 62.3258 9.67L62.6758 10.678C62.4891 10.79 62.2371 10.8973 61.9198 11C61.6025 11.112 61.2711 11.168 60.9258 11.168ZM63.9423 11V3.72H65.2023V11H63.9423ZM64.5723 2.474C64.3296 2.474 64.1196 2.38533 63.9423 2.208C63.7743 2.03067 63.6903 1.82533 63.6903 1.592C63.6903 1.32133 63.7696 1.10667 63.9283 0.947999C64.0869 0.789333 64.3016 0.71 64.5723 0.71C64.8149 0.71 65.0203 0.798666 65.1883 0.976C65.3656 1.144 65.4543 1.34933 65.4543 1.592C65.4543 1.85333 65.3749 2.068 65.2163 2.236C65.0576 2.39467 64.8429 2.474 64.5723 2.474ZM70.2283 11.168C69.6216 11.168 69.0709 11.014 68.5763 10.706C68.0816 10.398 67.6849 9.964 67.3863 9.404C67.0969 8.83467 66.9523 8.16733 66.9523 7.402C66.9523 6.674 67.0969 6.02067 67.3863 5.442C67.6849 4.86333 68.0909 4.406 68.6043 4.07C69.1269 3.72467 69.7243 3.552 70.3963 3.552C70.8163 3.552 71.1943 3.62667 71.5303 3.776C71.8756 3.916 72.1743 4.09333 72.4263 4.308V3.72H73.5743V9.236C73.5743 9.59067 73.6583 9.824 73.8263 9.936C74.0036 10.0387 74.1949 10.09 74.4003 10.09L74.1343 11.07C73.2383 11.07 72.6969 10.706 72.5103 9.978C72.2956 10.2767 72.0016 10.552 71.6283 10.804C71.2643 11.0467 70.7976 11.168 70.2283 11.168ZM70.5083 10.048C70.8629 10.048 71.1989 9.964 71.5163 9.796C71.8336 9.61867 72.0996 9.39933 72.3143 9.138V5.232C72.0623 5.05467 71.7823 4.91467 71.4743 4.812C71.1756 4.7 70.8583 4.644 70.5223 4.644C70.0743 4.644 69.6776 4.76067 69.3323 4.994C68.9963 5.218 68.7303 5.53533 68.5343 5.946C68.3383 6.34733 68.2403 6.81867 68.2403 7.36C68.2403 7.88267 68.3383 8.34933 68.5343 8.76C68.7303 9.16133 69.0009 9.47867 69.3463 9.712C69.6916 9.936 70.0789 10.048 70.5083 10.048ZM78.2949 11.168C77.8656 11.168 77.4782 11.0887 77.1329 10.93C76.7876 10.762 76.5122 10.496 76.3069 10.132C76.1109 9.768 76.0129 9.29667 76.0129 8.718V0.64H77.2729V8.592C77.2729 9.096 77.3756 9.46933 77.5809 9.712C77.7956 9.95467 78.0896 10.076 78.4629 10.076C78.6402 10.076 78.8129 10.0573 78.9809 10.02C79.1582 9.97333 79.3076 9.922 79.4289 9.866L79.7369 10.888C79.5689 10.9627 79.3589 11.028 79.1069 11.084C78.8642 11.14 78.5936 11.168 78.2949 11.168ZM80.9227 11V3.72H82.1827V11H80.9227ZM81.5527 2.474C81.3101 2.474 81.1001 2.38533 80.9227 2.208C80.7547 2.03067 80.6707 1.82533 80.6707 1.592C80.6707 1.32133 80.7501 1.10667 80.9087 0.947999C81.0674 0.789333 81.2821 0.71 81.5527 0.71C81.7954 0.71 82.0007 0.798666 82.1687 0.976C82.3461 1.144 82.4347 1.34933 82.4347 1.592C82.4347 1.85333 82.3554 2.068 82.1967 2.236C82.0381 2.39467 81.8234 2.474 81.5527 2.474ZM86.9707 11.168C86.2707 11.168 85.7154 10.9393 85.3047 10.482C84.9034 10.0153 84.7027 9.35267 84.7027 8.494V5.078H83.4427V3.986H84.7307L84.9967 1.69H85.9627V3.986H87.9787V5.078H85.9627V8.592C85.9627 9.13333 86.0747 9.51133 86.2987 9.726C86.5321 9.94067 86.8074 10.048 87.1247 10.048C87.3581 10.048 87.5774 10.0107 87.7827 9.936C87.9974 9.86133 88.1934 9.77267 88.3707 9.67L88.7207 10.678C88.5341 10.79 88.2821 10.8973 87.9647 11C87.6474 11.112 87.3161 11.168 86.9707 11.168ZM92.6258 11.168C91.5804 11.168 90.7498 10.8367 90.1338 10.174C89.5271 9.502 89.2238 8.564 89.2238 7.36C89.2238 6.632 89.3591 5.98333 89.6298 5.414C89.9098 4.83533 90.2971 4.38267 90.7918 4.056C91.2864 3.72 91.8604 3.552 92.5138 3.552C93.2138 3.552 93.7924 3.706 94.2498 4.014C94.7164 4.31267 95.0664 4.71867 95.2998 5.232C95.5331 5.74533 95.6498 6.31 95.6498 6.926C95.6498 7.25267 95.6358 7.57 95.6078 7.878H90.5118C90.5958 8.55933 90.8338 9.09133 91.2258 9.474C91.6178 9.85667 92.1358 10.048 92.7798 10.048C93.1998 10.048 93.5778 10.006 93.9138 9.922C94.2498 9.82867 94.5718 9.712 94.8798 9.572L95.1738 10.65C94.8378 10.7993 94.4598 10.9207 94.0398 11.014C93.6198 11.1167 93.1484 11.168 92.6258 11.168ZM90.4978 6.856H94.4878C94.4878 6.14667 94.3104 5.60067 93.9558 5.218C93.6011 4.83533 93.1111 4.644 92.4858 4.644C91.9444 4.644 91.4964 4.83533 91.1418 5.218C90.7871 5.59133 90.5724 6.13733 90.4978 6.856ZM91.3518 2.95L90.9178 2.096L93.5638 0.345999L94.1518 1.522L91.3518 2.95Z" fill="#999999"/>
</svg>
