<svg width="135" height="14" viewBox="0 0 135 14" fill="none" xmlns="http://www.w3.org/2000/svg">
<path d="M0.26 11V1.2H1.59V11H0.26ZM3.97547 11V3.72H5.19347V4.938C5.4548 4.546 5.78614 4.21933 6.18747 3.958C6.59814 3.68733 7.08347 3.552 7.64347 3.552C8.4648 3.552 9.07614 3.79933 9.47747 4.294C9.88814 4.78867 10.0935 5.442 10.0935 6.254V11H8.83347V6.394C8.83347 5.87133 8.70747 5.45133 8.45547 5.134C8.2128 4.81667 7.87214 4.658 7.43347 4.658C7.00414 4.658 6.59814 4.812 6.21547 5.12C5.8328 5.41867 5.50614 5.77333 5.23547 6.184V11H3.97547ZM12.4006 11V5.078H11.2806V3.986H12.4006V3.132C12.4006 2.31067 12.6293 1.662 13.0866 1.186C13.544 0.71 14.1413 0.472 14.8786 0.472C15.2613 0.472 15.5973 0.518666 15.8866 0.611999C16.176 0.695999 16.4513 0.803333 16.7126 0.933999L16.3346 1.998C16.1386 1.89533 15.9286 1.802 15.7046 1.718C15.4806 1.634 15.2333 1.592 14.9626 1.592C14.5706 1.592 14.2533 1.718 14.0106 1.97C13.7773 2.21267 13.6606 2.572 13.6606 3.048V3.986H15.8166V5.078H13.6606V11H12.4006ZM19.9887 11.168C19.2981 11.168 18.6774 11.0093 18.1267 10.692C17.5761 10.3653 17.1421 9.91733 16.8247 9.348C16.5167 8.76933 16.3627 8.10667 16.3627 7.36C16.3627 6.576 16.5214 5.89933 16.8387 5.33C17.1561 4.76067 17.5901 4.322 18.1407 4.014C18.6914 3.706 19.3074 3.552 19.9887 3.552C20.6701 3.552 21.2814 3.706 21.8227 4.014C22.3734 4.322 22.8074 4.76067 23.1247 5.33C23.4514 5.89 23.6147 6.55733 23.6147 7.332C23.6147 8.10667 23.4561 8.78333 23.1387 9.362C22.8214 9.93133 22.3874 10.3747 21.8367 10.692C21.2954 11.0093 20.6794 11.168 19.9887 11.168ZM19.9887 10.048C20.7261 10.048 21.3001 9.80067 21.7107 9.306C22.1214 8.802 22.3267 8.15333 22.3267 7.36C22.3267 6.87467 22.2241 6.43133 22.0187 6.03C21.8134 5.61933 21.5334 5.29267 21.1787 5.05C20.8334 4.798 20.4367 4.672 19.9887 4.672C19.2514 4.672 18.6774 4.91467 18.2667 5.4C17.8561 5.88533 17.6507 6.52933 17.6507 7.332C17.6507 7.81733 17.7534 8.27 17.9587 8.69C18.1641 9.10067 18.4394 9.432 18.7847 9.684C19.1394 9.92667 19.5407 10.048 19.9887 10.048ZM25.2899 11V3.72H26.5079V5.302C26.6293 4.994 26.7926 4.70933 26.9979 4.448C27.2033 4.17733 27.4599 3.96267 27.7679 3.804C28.0759 3.636 28.4353 3.552 28.8459 3.552C28.9859 3.552 29.1259 3.56133 29.2659 3.58C29.4059 3.58933 29.5226 3.608 29.6159 3.636L29.2379 4.938C29.0606 4.86333 28.8506 4.826 28.6079 4.826C28.2626 4.826 27.9313 4.924 27.6139 5.12C27.3059 5.316 27.0493 5.61933 26.8439 6.03C26.6479 6.44067 26.5499 6.96333 26.5499 7.598V11H25.2899ZM30.8817 11V3.72H32.0997V4.938C32.3611 4.546 32.6924 4.21933 33.0937 3.958C33.4951 3.68733 33.9524 3.552 34.4657 3.552C35.0444 3.552 35.5157 3.692 35.8797 3.972C36.2531 4.252 36.5144 4.62533 36.6637 5.092C36.9531 4.66267 37.2937 4.29867 37.6857 4C38.0871 3.70133 38.5817 3.552 39.1697 3.552C39.9631 3.552 40.5511 3.804 40.9337 4.308C41.3257 4.80267 41.5217 5.45133 41.5217 6.254V11H40.2617V6.352C40.2617 5.848 40.1451 5.442 39.9117 5.134C39.6784 4.81667 39.3564 4.658 38.9457 4.658C38.5257 4.658 38.1337 4.81667 37.7697 5.134C37.4151 5.442 37.1024 5.806 36.8317 6.226V11H35.5717V6.352C35.5717 5.848 35.4551 5.442 35.2217 5.134C34.9884 4.81667 34.6664 4.658 34.2557 4.658C33.8451 4.658 33.4577 4.812 33.0937 5.12C32.7297 5.41867 32.4124 5.77333 32.1417 6.184V11H30.8817ZM46.4783 11.168C45.8716 11.168 45.3209 11.014 44.8263 10.706C44.3316 10.398 43.9349 9.964 43.6363 9.404C43.3469 8.83467 43.2023 8.16733 43.2023 7.402C43.2023 6.674 43.3469 6.02067 43.6363 5.442C43.9349 4.86333 44.3409 4.406 44.8543 4.07C45.3769 3.72467 45.9743 3.552 46.6463 3.552C47.0663 3.552 47.4443 3.62667 47.7803 3.776C48.1256 3.916 48.4243 4.09333 48.6763 4.308V3.72H49.8243V9.236C49.8243 9.59067 49.9083 9.824 50.0763 9.936C50.2536 10.0387 50.4449 10.09 50.6503 10.09L50.3843 11.07C49.4883 11.07 48.9469 10.706 48.7603 9.978C48.5456 10.2767 48.2516 10.552 47.8783 10.804C47.5143 11.0467 47.0476 11.168 46.4783 11.168ZM46.7583 10.048C47.1129 10.048 47.4489 9.964 47.7663 9.796C48.0836 9.61867 48.3496 9.39933 48.5643 9.138V5.232C48.3123 5.05467 48.0323 4.91467 47.7243 4.812C47.4256 4.7 47.1083 4.644 46.7723 4.644C46.3243 4.644 45.9276 4.76067 45.5823 4.994C45.2463 5.218 44.9803 5.53533 44.7843 5.946C44.5883 6.34733 44.4903 6.81867 44.4903 7.36C44.4903 7.88267 44.5883 8.34933 44.7843 8.76C44.9803 9.16133 45.2509 9.47867 45.5963 9.712C45.9416 9.936 46.3289 10.048 46.7583 10.048ZM54.8809 11.168C54.1809 11.168 53.6256 10.9393 53.2149 10.482C52.8136 10.0153 52.6129 9.35267 52.6129 8.494V5.078H51.3529V3.986H52.6409L52.9069 1.69H53.8729V3.986H55.8889V5.078H53.8729V8.592C53.8729 9.13333 53.9849 9.51133 54.2089 9.726C54.4422 9.94067 54.7176 10.048 55.0349 10.048C55.2682 10.048 55.4876 10.0107 55.6929 9.936C55.9076 9.86133 56.1036 9.77267 56.2809 9.67L56.6309 10.678C56.4442 10.79 56.1922 10.8973 55.8749 11C55.5576 11.112 55.2262 11.168 54.8809 11.168ZM57.8973 11V3.72H59.1573V11H57.8973ZM58.5273 2.474C58.2847 2.474 58.0747 2.38533 57.8973 2.208C57.7293 2.03067 57.6453 1.82533 57.6453 1.592C57.6453 1.32133 57.7247 1.10667 57.8833 0.947999C58.042 0.789333 58.2567 0.71 58.5273 0.71C58.77 0.71 58.9753 0.798666 59.1433 0.976C59.3207 1.144 59.4093 1.34933 59.4093 1.592C59.4093 1.85333 59.33 2.068 59.1713 2.236C59.0127 2.39467 58.798 2.474 58.5273 2.474ZM64.4633 11.168C63.7727 11.168 63.152 11.0093 62.6013 10.692C62.0507 10.3653 61.6167 9.91733 61.2993 9.348C60.9913 8.76933 60.8373 8.10667 60.8373 7.36C60.8373 6.576 60.996 5.89933 61.3133 5.33C61.6307 4.76067 62.0647 4.322 62.6153 4.014C63.166 3.706 63.782 3.552 64.4633 3.552C65.1447 3.552 65.756 3.706 66.2973 4.014C66.848 4.322 67.282 4.76067 67.5993 5.33C67.926 5.89 68.0893 6.55733 68.0893 7.332C68.0893 8.10667 67.9307 8.78333 67.6133 9.362C67.296 9.93133 66.862 10.3747 66.3113 10.692C65.77 11.0093 65.154 11.168 64.4633 11.168ZM64.4633 10.048C65.2007 10.048 65.7747 9.80067 66.1853 9.306C66.596 8.802 66.8013 8.15333 66.8013 7.36C66.8013 6.87467 66.6987 6.43133 66.4933 6.03C66.288 5.61933 66.008 5.29267 65.6533 5.05C65.308 4.798 64.9113 4.672 64.4633 4.672C63.726 4.672 63.152 4.91467 62.7413 5.4C62.3307 5.88533 62.1253 6.52933 62.1253 7.332C62.1253 7.81733 62.228 8.27 62.4333 8.69C62.6387 9.10067 62.914 9.432 63.2593 9.684C63.614 9.92667 64.0153 10.048 64.4633 10.048ZM69.7645 11V3.72H70.9825V4.938C71.2439 4.546 71.5752 4.21933 71.9765 3.958C72.3872 3.68733 72.8725 3.552 73.4325 3.552C74.2539 3.552 74.8652 3.79933 75.2665 4.294C75.6772 4.78867 75.8825 5.442 75.8825 6.254V11H74.6225V6.394C74.6225 5.87133 74.4965 5.45133 74.2445 5.134C74.0019 4.81667 73.6612 4.658 73.2225 4.658C72.7932 4.658 72.3872 4.812 72.0045 5.12C71.6219 5.41867 71.2952 5.77333 71.0245 6.184V11H69.7645ZM80.0097 11.168C79.459 11.168 78.9597 11.098 78.5117 10.958C78.073 10.818 77.709 10.636 77.4197 10.412L77.9517 9.362C78.1944 9.56733 78.4977 9.74 78.8617 9.88C79.235 10.0107 79.6317 10.076 80.0517 10.076C80.5744 10.076 80.9664 9.992 81.2277 9.824C81.4984 9.64667 81.6337 9.42267 81.6337 9.152C81.6337 8.956 81.5824 8.78333 81.4797 8.634C81.3864 8.48467 81.209 8.34 80.9477 8.2C80.6864 8.05067 80.3084 7.892 79.8137 7.724C79.1324 7.49067 78.619 7.21533 78.2737 6.898C77.9377 6.57133 77.7697 6.12333 77.7697 5.554C77.7697 4.994 78.0124 4.52267 78.4977 4.14C78.9924 3.748 79.6737 3.552 80.5417 3.552C81.0084 3.552 81.4237 3.60333 81.7877 3.706C82.1517 3.79933 82.4784 3.92067 82.7677 4.07L82.4177 5.106C82.1657 4.95667 81.8764 4.83533 81.5497 4.742C81.2324 4.64867 80.8777 4.602 80.4857 4.602C80.0004 4.602 79.6317 4.7 79.3797 4.896C79.1277 5.092 79.0017 5.30667 79.0017 5.54C79.0017 5.764 79.0997 5.95533 79.2957 6.114C79.4917 6.27267 79.8744 6.44533 80.4437 6.632C81.3677 6.94 82.0117 7.28067 82.3757 7.654C82.7397 8.02733 82.9217 8.494 82.9217 9.054C82.9217 9.70733 82.6557 10.2253 82.1237 10.608C81.601 10.9813 80.8964 11.168 80.0097 11.168ZM91.0078 11.168C90.5784 11.168 90.1911 11.0887 89.8458 10.93C89.5004 10.762 89.2251 10.496 89.0198 10.132C88.8238 9.768 88.7258 9.29667 88.7258 8.718V0.64H89.9858V8.592C89.9858 9.096 90.0884 9.46933 90.2938 9.712C90.5084 9.95467 90.8024 10.076 91.1758 10.076C91.3531 10.076 91.5258 10.0573 91.6938 10.02C91.8711 9.97333 92.0204 9.922 92.1418 9.866L92.4498 10.888C92.2818 10.9627 92.0718 11.028 91.8198 11.084C91.5771 11.14 91.3064 11.168 91.0078 11.168ZM96.3425 11.168C95.2972 11.168 94.4665 10.8367 93.8505 10.174C93.2439 9.502 92.9405 8.564 92.9405 7.36C92.9405 6.632 93.0759 5.98333 93.3465 5.414C93.6265 4.83533 94.0139 4.38267 94.5085 4.056C95.0032 3.72 95.5772 3.552 96.2305 3.552C96.9305 3.552 97.5092 3.706 97.9665 4.014C98.4332 4.31267 98.7832 4.71867 99.0165 5.232C99.2499 5.74533 99.3665 6.31 99.3665 6.926C99.3665 7.25267 99.3525 7.57 99.3245 7.878H94.2285C94.3125 8.55933 94.5505 9.09133 94.9425 9.474C95.3345 9.85667 95.8525 10.048 96.4965 10.048C96.9165 10.048 97.2945 10.006 97.6305 9.922C97.9665 9.82867 98.2885 9.712 98.5965 9.572L98.8905 10.65C98.5545 10.7993 98.1765 10.9207 97.7565 11.014C97.3365 11.1167 96.8652 11.168 96.3425 11.168ZM94.2145 6.856H98.2045C98.2045 6.14667 98.0272 5.60067 97.6725 5.218C97.3179 4.83533 96.8279 4.644 96.2025 4.644C95.6612 4.644 95.2132 4.83533 94.8585 5.218C94.5039 5.59133 94.2892 6.13733 94.2145 6.856ZM95.0685 2.95L94.6345 2.096L97.2805 0.345999L97.8685 1.522L95.0685 2.95ZM103.72 14.248C103.29 14.248 102.87 14.1967 102.46 14.094C102.058 13.9913 101.699 13.8373 101.382 13.632L101.844 12.54C102.068 12.7173 102.329 12.862 102.628 12.974C102.926 13.0953 103.29 13.156 103.72 13.156C104.382 13.156 104.9 12.9787 105.274 12.624C105.656 12.2787 105.848 11.7233 105.848 10.958V10.062C105.661 10.286 105.39 10.5007 105.036 10.706C104.69 10.902 104.275 11 103.79 11C103.239 11 102.716 10.86 102.222 10.58C101.727 10.2907 101.326 9.87067 101.018 9.32C100.71 8.76933 100.556 8.10667 100.556 7.332C100.556 6.604 100.705 5.95533 101.004 5.386C101.312 4.81667 101.722 4.36867 102.236 4.042C102.749 3.71533 103.314 3.552 103.93 3.552C104.34 3.552 104.714 3.622 105.05 3.762C105.386 3.902 105.675 4.07467 105.918 4.28V3.72H107.066V10.832C107.066 11.6347 106.926 12.288 106.646 12.792C106.366 13.296 105.974 13.6647 105.47 13.898C104.975 14.1313 104.392 14.248 103.72 14.248ZM104.07 9.88C104.443 9.88 104.779 9.796 105.078 9.628C105.376 9.46 105.619 9.264 105.806 9.04V5.232C105.6 5.08267 105.353 4.94733 105.064 4.826C104.774 4.70467 104.438 4.644 104.056 4.644C103.673 4.644 103.314 4.74667 102.978 4.952C102.642 5.15733 102.366 5.456 102.152 5.848C101.946 6.23067 101.844 6.702 101.844 7.262C101.844 7.794 101.946 8.256 102.152 8.648C102.366 9.04 102.642 9.34333 102.978 9.558C103.314 9.77267 103.678 9.88 104.07 9.88ZM112.021 11.168C111.415 11.168 110.864 11.014 110.369 10.706C109.875 10.398 109.478 9.964 109.179 9.404C108.89 8.83467 108.745 8.16733 108.745 7.402C108.745 6.674 108.89 6.02067 109.179 5.442C109.478 4.86333 109.884 4.406 110.397 4.07C110.92 3.72467 111.517 3.552 112.189 3.552C112.609 3.552 112.987 3.62667 113.323 3.776C113.669 3.916 113.967 4.09333 114.219 4.308V3.72H115.367V9.236C115.367 9.59067 115.451 9.824 115.619 9.936C115.797 10.0387 115.988 10.09 116.193 10.09L115.927 11.07C115.031 11.07 114.49 10.706 114.303 9.978C114.089 10.2767 113.795 10.552 113.421 10.804C113.057 11.0467 112.591 11.168 112.021 11.168ZM112.301 10.048C112.656 10.048 112.992 9.964 113.309 9.796C113.627 9.61867 113.893 9.39933 114.107 9.138V5.232C113.855 5.05467 113.575 4.91467 113.267 4.812C112.969 4.7 112.651 4.644 112.315 4.644C111.867 4.644 111.471 4.76067 111.125 4.994C110.789 5.218 110.523 5.53533 110.327 5.946C110.131 6.34733 110.033 6.81867 110.033 7.36C110.033 7.88267 110.131 8.34933 110.327 8.76C110.523 9.16133 110.794 9.47867 111.139 9.712C111.485 9.936 111.872 10.048 112.301 10.048ZM120.088 11.168C119.659 11.168 119.271 11.0887 118.926 10.93C118.581 10.762 118.305 10.496 118.1 10.132C117.904 9.768 117.806 9.29667 117.806 8.718V0.64H119.066V8.592C119.066 9.096 119.169 9.46933 119.374 9.712C119.589 9.95467 119.883 10.076 120.256 10.076C120.433 10.076 120.606 10.0573 120.774 10.02C120.951 9.97333 121.101 9.922 121.222 9.866L121.53 10.888C121.362 10.9627 121.152 11.028 120.9 11.084C120.657 11.14 120.387 11.168 120.088 11.168ZM125.423 11.168C124.377 11.168 123.547 10.8367 122.931 10.174C122.324 9.502 122.021 8.564 122.021 7.36C122.021 6.632 122.156 5.98333 122.427 5.414C122.707 4.83533 123.094 4.38267 123.589 4.056C124.083 3.72 124.657 3.552 125.311 3.552C126.011 3.552 126.589 3.706 127.047 4.014C127.513 4.31267 127.863 4.71867 128.097 5.232C128.33 5.74533 128.447 6.31 128.447 6.926C128.447 7.25267 128.433 7.57 128.405 7.878H123.309C123.393 8.55933 123.631 9.09133 124.023 9.474C124.415 9.85667 124.933 10.048 125.577 10.048C125.997 10.048 126.375 10.006 126.711 9.922C127.047 9.82867 127.369 9.712 127.677 9.572L127.971 10.65C127.635 10.7993 127.257 10.9207 126.837 11.014C126.417 11.1167 125.945 11.168 125.423 11.168ZM123.295 6.856H127.285C127.285 6.14667 127.107 5.60067 126.753 5.218C126.398 4.83533 125.908 4.644 125.283 4.644C124.741 4.644 124.293 4.83533 123.939 5.218C123.584 5.59133 123.369 6.13733 123.295 6.856ZM132.086 11.168C131.535 11.168 131.036 11.098 130.588 10.958C130.149 10.818 129.785 10.636 129.496 10.412L130.028 9.362C130.271 9.56733 130.574 9.74 130.938 9.88C131.311 10.0107 131.708 10.076 132.128 10.076C132.651 10.076 133.043 9.992 133.304 9.824C133.575 9.64667 133.71 9.42267 133.71 9.152C133.71 8.956 133.659 8.78333 133.556 8.634C133.463 8.48467 133.285 8.34 133.024 8.2C132.763 8.05067 132.385 7.892 131.89 7.724C131.209 7.49067 130.695 7.21533 130.35 6.898C130.014 6.57133 129.846 6.12333 129.846 5.554C129.846 4.994 130.089 4.52267 130.574 4.14C131.069 3.748 131.75 3.552 132.618 3.552C133.085 3.552 133.5 3.60333 133.864 3.706C134.228 3.79933 134.555 3.92067 134.844 4.07L134.494 5.106C134.242 4.95667 133.953 4.83533 133.626 4.742C133.309 4.64867 132.954 4.602 132.562 4.602C132.077 4.602 131.708 4.7 131.456 4.896C131.204 5.092 131.078 5.30667 131.078 5.54C131.078 5.764 131.176 5.95533 131.372 6.114C131.568 6.27267 131.951 6.44533 132.52 6.632C133.444 6.94 134.088 7.28067 134.452 7.654C134.816 8.02733 134.998 8.494 134.998 9.054C134.998 9.70733 134.732 10.2253 134.2 10.608C133.677 10.9813 132.973 11.168 132.086 11.168Z" fill="#999999"/>
</svg>
