<svg width="111" height="14" viewBox="0 0 111 14" fill="none" xmlns="http://www.w3.org/2000/svg">
<path d="M0.26 11V1.2H2.122L4.838 7.402L7.512 1.2H9.416V11H8.086V2.894L5.468 8.788H4.152L1.52 2.894V11H0.26ZM14.7078 11.168C13.6624 11.168 12.8318 10.8367 12.2158 10.174C11.6091 9.502 11.3058 8.564 11.3058 7.36C11.3058 6.632 11.4411 5.98333 11.7118 5.414C11.9918 4.83533 12.3791 4.38267 12.8738 4.056C13.3684 3.72 13.9424 3.552 14.5958 3.552C15.2958 3.552 15.8744 3.706 16.3318 4.014C16.7984 4.31267 17.1484 4.71867 17.3818 5.232C17.6151 5.74533 17.7318 6.31 17.7318 6.926C17.7318 7.25267 17.7178 7.57 17.6898 7.878H12.5938C12.6778 8.55933 12.9158 9.09133 13.3078 9.474C13.6998 9.85667 14.2178 10.048 14.8618 10.048C15.2818 10.048 15.6598 10.006 15.9958 9.922C16.3318 9.82867 16.6538 9.712 16.9618 9.572L17.2558 10.65C16.9198 10.7993 16.5418 10.9207 16.1218 11.014C15.7018 11.1167 15.2304 11.168 14.7078 11.168ZM12.5798 6.856H16.5698C16.5698 6.14667 16.3924 5.60067 16.0378 5.218C15.6831 4.83533 15.1931 4.644 14.5678 4.644C14.0264 4.644 13.5784 4.83533 13.2238 5.218C12.8691 5.59133 12.6544 6.13733 12.5798 6.856ZM19.411 11V3.72H20.629V4.938C20.8903 4.546 21.2217 4.21933 21.623 3.958C22.0337 3.68733 22.519 3.552 23.079 3.552C23.9003 3.552 24.5117 3.79933 24.913 4.294C25.3237 4.78867 25.529 5.442 25.529 6.254V11H24.269V6.394C24.269 5.87133 24.143 5.45133 23.891 5.134C23.6483 4.81667 23.3077 4.658 22.869 4.658C22.4397 4.658 22.0337 4.812 21.651 5.12C21.2683 5.41867 20.9417 5.77333 20.671 6.184V11H19.411ZM30.2442 11.168C29.5442 11.168 28.9888 10.9393 28.5782 10.482C28.1768 10.0153 27.9762 9.35267 27.9762 8.494V5.078H26.7162V3.986H28.0042L28.2702 1.69H29.2362V3.986H31.2522V5.078H29.2362V8.592C29.2362 9.13333 29.3482 9.51133 29.5722 9.726C29.8055 9.94067 30.0808 10.048 30.3982 10.048C30.6315 10.048 30.8508 10.0107 31.0562 9.936C31.2708 9.86133 31.4668 9.77267 31.6442 9.67L31.9942 10.678C31.8075 10.79 31.5555 10.8973 31.2382 11C30.9208 11.112 30.5895 11.168 30.2442 11.168ZM33.2606 11V3.72H34.5206V11H33.2606ZM33.8906 2.474C33.648 2.474 33.438 2.38533 33.2606 2.208C33.0926 2.03067 33.0086 1.82533 33.0086 1.592C33.0086 1.32133 33.088 1.10667 33.2466 0.947999C33.4053 0.789333 33.62 0.71 33.8906 0.71C34.1333 0.71 34.3386 0.798666 34.5066 0.976C34.684 1.144 34.7726 1.34933 34.7726 1.592C34.7726 1.85333 34.6933 2.068 34.5346 2.236C34.376 2.39467 34.1613 2.474 33.8906 2.474ZM39.8266 11.168C39.136 11.168 38.5153 11.0093 37.9646 10.692C37.414 10.3653 36.98 9.91733 36.6626 9.348C36.3546 8.76933 36.2006 8.10667 36.2006 7.36C36.2006 6.576 36.3593 5.89933 36.6766 5.33C36.994 4.76067 37.428 4.322 37.9786 4.014C38.5293 3.706 39.1453 3.552 39.8266 3.552C40.508 3.552 41.1193 3.706 41.6606 4.014C42.2113 4.322 42.6453 4.76067 42.9626 5.33C43.2893 5.89 43.4526 6.55733 43.4526 7.332C43.4526 8.10667 43.294 8.78333 42.9766 9.362C42.6593 9.93133 42.2253 10.3747 41.6746 10.692C41.1333 11.0093 40.5173 11.168 39.8266 11.168ZM39.8266 10.048C40.564 10.048 41.138 9.80067 41.5486 9.306C41.9593 8.802 42.1646 8.15333 42.1646 7.36C42.1646 6.87467 42.062 6.43133 41.8566 6.03C41.6513 5.61933 41.3713 5.29267 41.0166 5.05C40.6713 4.798 40.2746 4.672 39.8266 4.672C39.0893 4.672 38.5153 4.91467 38.1046 5.4C37.694 5.88533 37.4886 6.52933 37.4886 7.332C37.4886 7.81733 37.5913 8.27 37.7966 8.69C38.002 9.10067 38.2773 9.432 38.6226 9.684C38.9773 9.92667 39.3786 10.048 39.8266 10.048ZM45.1278 11V3.72H46.3458V4.938C46.6071 4.546 46.9385 4.21933 47.3398 3.958C47.7505 3.68733 48.2358 3.552 48.7958 3.552C49.6171 3.552 50.2285 3.79933 50.6298 4.294C51.0405 4.78867 51.2458 5.442 51.2458 6.254V11H49.9858V6.394C49.9858 5.87133 49.8598 5.45133 49.6078 5.134C49.3651 4.81667 49.0245 4.658 48.5858 4.658C48.1565 4.658 47.7505 4.812 47.3678 5.12C46.9851 5.41867 46.6585 5.77333 46.3878 6.184V11H45.1278ZM55.373 11.168C54.8223 11.168 54.323 11.098 53.875 10.958C53.4363 10.818 53.0723 10.636 52.783 10.412L53.315 9.362C53.5576 9.56733 53.861 9.74 54.225 9.88C54.5983 10.0107 54.995 10.076 55.415 10.076C55.9376 10.076 56.3296 9.992 56.591 9.824C56.8616 9.64667 56.997 9.42267 56.997 9.152C56.997 8.956 56.9456 8.78333 56.843 8.634C56.7496 8.48467 56.5723 8.34 56.311 8.2C56.0496 8.05067 55.6716 7.892 55.177 7.724C54.4956 7.49067 53.9823 7.21533 53.637 6.898C53.301 6.57133 53.133 6.12333 53.133 5.554C53.133 4.994 53.3756 4.52267 53.861 4.14C54.3556 3.748 55.037 3.552 55.905 3.552C56.3716 3.552 56.787 3.60333 57.151 3.706C57.515 3.79933 57.8416 3.92067 58.131 4.07L57.781 5.106C57.529 4.95667 57.2396 4.83533 56.913 4.742C56.5956 4.64867 56.241 4.602 55.849 4.602C55.3636 4.602 54.995 4.7 54.743 4.896C54.491 5.092 54.365 5.30667 54.365 5.54C54.365 5.764 54.463 5.95533 54.659 6.114C54.855 6.27267 55.2376 6.44533 55.807 6.632C56.731 6.94 57.375 7.28067 57.739 7.654C58.103 8.02733 58.285 8.494 58.285 9.054C58.285 9.70733 58.019 10.2253 57.487 10.608C56.9643 10.9813 56.2596 11.168 55.373 11.168ZM66.3711 11.168C65.9417 11.168 65.5544 11.0887 65.2091 10.93C64.8637 10.762 64.5884 10.496 64.3831 10.132C64.1871 9.768 64.0891 9.29667 64.0891 8.718V0.64H65.3491V8.592C65.3491 9.096 65.4517 9.46933 65.6571 9.712C65.8717 9.95467 66.1657 10.076 66.5391 10.076C66.7164 10.076 66.8891 10.0573 67.0571 10.02C67.2344 9.97333 67.3837 9.922 67.5051 9.866L67.8131 10.888C67.6451 10.9627 67.4351 11.028 67.1831 11.084C66.9404 11.14 66.6697 11.168 66.3711 11.168ZM71.7058 11.168C70.6605 11.168 69.8298 10.8367 69.2138 10.174C68.6072 9.502 68.3038 8.564 68.3038 7.36C68.3038 6.632 68.4392 5.98333 68.7098 5.414C68.9898 4.83533 69.3772 4.38267 69.8718 4.056C70.3665 3.72 70.9405 3.552 71.5938 3.552C72.2938 3.552 72.8725 3.706 73.3298 4.014C73.7965 4.31267 74.1465 4.71867 74.3798 5.232C74.6132 5.74533 74.7298 6.31 74.7298 6.926C74.7298 7.25267 74.7158 7.57 74.6878 7.878H69.5918C69.6758 8.55933 69.9138 9.09133 70.3058 9.474C70.6978 9.85667 71.2158 10.048 71.8598 10.048C72.2798 10.048 72.6578 10.006 72.9938 9.922C73.3298 9.82867 73.6518 9.712 73.9598 9.572L74.2538 10.65C73.9178 10.7993 73.5398 10.9207 73.1198 11.014C72.6998 11.1167 72.2285 11.168 71.7058 11.168ZM69.5778 6.856H73.5678C73.5678 6.14667 73.3905 5.60067 73.0358 5.218C72.6812 4.83533 72.1912 4.644 71.5658 4.644C71.0245 4.644 70.5765 4.83533 70.2218 5.218C69.8672 5.59133 69.6525 6.13733 69.5778 6.856ZM70.4318 2.95L69.9978 2.096L72.6438 0.345999L73.2318 1.522L70.4318 2.95ZM79.0831 14.248C78.6537 14.248 78.2337 14.1967 77.8231 14.094C77.4217 13.9913 77.0624 13.8373 76.7451 13.632L77.2071 12.54C77.4311 12.7173 77.6924 12.862 77.9911 12.974C78.2897 13.0953 78.6537 13.156 79.0831 13.156C79.7457 13.156 80.2637 12.9787 80.6371 12.624C81.0197 12.2787 81.2111 11.7233 81.2111 10.958V10.062C81.0244 10.286 80.7537 10.5007 80.3991 10.706C80.0537 10.902 79.6384 11 79.1531 11C78.6024 11 78.0797 10.86 77.5851 10.58C77.0904 10.2907 76.6891 9.87067 76.3811 9.32C76.0731 8.76933 75.9191 8.10667 75.9191 7.332C75.9191 6.604 76.0684 5.95533 76.3671 5.386C76.6751 4.81667 77.0857 4.36867 77.5991 4.042C78.1124 3.71533 78.6771 3.552 79.2931 3.552C79.7037 3.552 80.0771 3.622 80.4131 3.762C80.7491 3.902 81.0384 4.07467 81.2811 4.28V3.72H82.4291V10.832C82.4291 11.6347 82.2891 12.288 82.0091 12.792C81.7291 13.296 81.3371 13.6647 80.8331 13.898C80.3384 14.1313 79.7551 14.248 79.0831 14.248ZM79.4331 9.88C79.8064 9.88 80.1424 9.796 80.4411 9.628C80.7397 9.46 80.9824 9.264 81.1691 9.04V5.232C80.9637 5.08267 80.7164 4.94733 80.4271 4.826C80.1377 4.70467 79.8017 4.644 79.4191 4.644C79.0364 4.644 78.6771 4.74667 78.3411 4.952C78.0051 5.15733 77.7297 5.456 77.5151 5.848C77.3097 6.23067 77.2071 6.702 77.2071 7.262C77.2071 7.794 77.3097 8.256 77.5151 8.648C77.7297 9.04 78.0051 9.34333 78.3411 9.558C78.6771 9.77267 79.0411 9.88 79.4331 9.88ZM87.3845 11.168C86.7778 11.168 86.2272 11.014 85.7325 10.706C85.2378 10.398 84.8412 9.964 84.5425 9.404C84.2532 8.83467 84.1085 8.16733 84.1085 7.402C84.1085 6.674 84.2532 6.02067 84.5425 5.442C84.8412 4.86333 85.2472 4.406 85.7605 4.07C86.2832 3.72467 86.8805 3.552 87.5525 3.552C87.9725 3.552 88.3505 3.62667 88.6865 3.776C89.0318 3.916 89.3305 4.09333 89.5825 4.308V3.72H90.7305V9.236C90.7305 9.59067 90.8145 9.824 90.9825 9.936C91.1598 10.0387 91.3512 10.09 91.5565 10.09L91.2905 11.07C90.3945 11.07 89.8532 10.706 89.6665 9.978C89.4518 10.2767 89.1578 10.552 88.7845 10.804C88.4205 11.0467 87.9538 11.168 87.3845 11.168ZM87.6645 10.048C88.0192 10.048 88.3552 9.964 88.6725 9.796C88.9898 9.61867 89.2558 9.39933 89.4705 9.138V5.232C89.2185 5.05467 88.9385 4.91467 88.6305 4.812C88.3318 4.7 88.0145 4.644 87.6785 4.644C87.2305 4.644 86.8338 4.76067 86.4885 4.994C86.1525 5.218 85.8865 5.53533 85.6905 5.946C85.4945 6.34733 85.3965 6.81867 85.3965 7.36C85.3965 7.88267 85.4945 8.34933 85.6905 8.76C85.8865 9.16133 86.1572 9.47867 86.5025 9.712C86.8478 9.936 87.2352 10.048 87.6645 10.048ZM95.4511 11.168C95.0218 11.168 94.6345 11.0887 94.2891 10.93C93.9438 10.762 93.6685 10.496 93.4631 10.132C93.2671 9.768 93.1691 9.29667 93.1691 8.718V0.64H94.4291V8.592C94.4291 9.096 94.5318 9.46933 94.7371 9.712C94.9518 9.95467 95.2458 10.076 95.6191 10.076C95.7965 10.076 95.9691 10.0573 96.1371 10.02C96.3145 9.97333 96.4638 9.922 96.5851 9.866L96.8931 10.888C96.7251 10.9627 96.5151 11.028 96.2631 11.084C96.0205 11.14 95.7498 11.168 95.4511 11.168ZM100.786 11.168C99.7406 11.168 98.9099 10.8367 98.2939 10.174C97.6872 9.502 97.3839 8.564 97.3839 7.36C97.3839 6.632 97.5192 5.98333 97.7899 5.414C98.0699 4.83533 98.4572 4.38267 98.9519 4.056C99.4466 3.72 100.021 3.552 100.674 3.552C101.374 3.552 101.953 3.706 102.41 4.014C102.877 4.31267 103.227 4.71867 103.46 5.232C103.693 5.74533 103.81 6.31 103.81 6.926C103.81 7.25267 103.796 7.57 103.768 7.878H98.6719C98.7559 8.55933 98.9939 9.09133 99.3859 9.474C99.7779 9.85667 100.296 10.048 100.94 10.048C101.36 10.048 101.738 10.006 102.074 9.922C102.41 9.82867 102.732 9.712 103.04 9.572L103.334 10.65C102.998 10.7993 102.62 10.9207 102.2 11.014C101.78 11.1167 101.309 11.168 100.786 11.168ZM98.6579 6.856H102.648C102.648 6.14667 102.471 5.60067 102.116 5.218C101.761 4.83533 101.271 4.644 100.646 4.644C100.105 4.644 99.6566 4.83533 99.3019 5.218C98.9472 5.59133 98.7326 6.13733 98.6579 6.856ZM107.449 11.168C106.898 11.168 106.399 11.098 105.951 10.958C105.512 10.818 105.148 10.636 104.859 10.412L105.391 9.362C105.634 9.56733 105.937 9.74 106.301 9.88C106.674 10.0107 107.071 10.076 107.491 10.076C108.014 10.076 108.406 9.992 108.667 9.824C108.938 9.64667 109.073 9.42267 109.073 9.152C109.073 8.956 109.022 8.78333 108.919 8.634C108.826 8.48467 108.648 8.34 108.387 8.2C108.126 8.05067 107.748 7.892 107.253 7.724C106.572 7.49067 106.058 7.21533 105.713 6.898C105.377 6.57133 105.209 6.12333 105.209 5.554C105.209 4.994 105.452 4.52267 105.937 4.14C106.432 3.748 107.113 3.552 107.981 3.552C108.448 3.552 108.863 3.60333 109.227 3.706C109.591 3.79933 109.918 3.92067 110.207 4.07L109.857 5.106C109.605 4.95667 109.316 4.83533 108.989 4.742C108.672 4.64867 108.317 4.602 107.925 4.602C107.44 4.602 107.071 4.7 106.819 4.896C106.567 5.092 106.441 5.30667 106.441 5.54C106.441 5.764 106.539 5.95533 106.735 6.114C106.931 6.27267 107.314 6.44533 107.883 6.632C108.807 6.94 109.451 7.28067 109.815 7.654C110.179 8.02733 110.361 8.494 110.361 9.054C110.361 9.70733 110.095 10.2253 109.563 10.608C109.04 10.9813 108.336 11.168 107.449 11.168Z" fill="#999999"/>
</svg>
