<svg width="99" height="11" viewBox="0 0 99 11" fill="none" xmlns="http://www.w3.org/2000/svg">
<path d="M0.26 10V0.199999H2.024L6.35 8.348V0.199999H7.61V10H5.874L1.52 1.908V10H0.26ZM13.0571 10.168C12.3664 10.168 11.7458 10.0093 11.1951 9.692C10.6444 9.36533 10.2104 8.91733 9.89309 8.348C9.58509 7.76933 9.43109 7.10667 9.43109 6.36C9.43109 5.576 9.58976 4.89933 9.90709 4.33C10.2244 3.76067 10.6584 3.322 11.2091 3.014C11.7598 2.706 12.3758 2.552 13.0571 2.552C13.7384 2.552 14.3498 2.706 14.8911 3.014C15.4418 3.322 15.8758 3.76067 16.1931 4.33C16.5198 4.89 16.6831 5.55733 16.6831 6.332C16.6831 7.10667 16.5244 7.78333 16.2071 8.362C15.8898 8.93133 15.4558 9.37467 14.9051 9.692C14.3638 10.0093 13.7478 10.168 13.0571 10.168ZM13.0571 9.048C13.7944 9.048 14.3684 8.80067 14.7791 8.306C15.1898 7.802 15.3951 7.15333 15.3951 6.36C15.3951 5.87467 15.2924 5.43133 15.0871 5.03C14.8818 4.61933 14.6018 4.29267 14.2471 4.05C13.9018 3.798 13.5051 3.672 13.0571 3.672C12.3198 3.672 11.7458 3.91467 11.3351 4.4C10.9244 4.88533 10.7191 5.52933 10.7191 6.332C10.7191 6.81733 10.8218 7.27 11.0271 7.69C11.2324 8.10067 11.5078 8.432 11.8531 8.684C12.2078 8.92667 12.6091 9.048 13.0571 9.048ZM20.7383 10.168C20.3183 10.168 19.9216 10.0793 19.5483 9.902C19.1749 9.72467 18.8716 9.44 18.6383 9.048C18.4049 8.64667 18.2883 8.11467 18.2883 7.452V2.72H19.5483V7.284C19.5483 7.85333 19.6696 8.292 19.9123 8.6C20.1549 8.89867 20.5096 9.048 20.9763 9.048C21.3589 9.048 21.7276 8.97333 22.0823 8.824C22.4463 8.66533 22.7683 8.45533 23.0483 8.194V2.72H24.3083V8.11C24.3083 8.51133 24.3923 8.77733 24.5603 8.908C24.7376 9.02933 24.9289 9.09 25.1343 9.09L24.8683 10.07C24.0003 10.07 23.4636 9.72467 23.2583 9.034C22.9316 9.37 22.5536 9.64533 22.1243 9.86C21.6949 10.0653 21.2329 10.168 20.7383 10.168ZM28.7675 10.168C28.2168 10.168 27.7175 10.098 27.2695 9.958C26.8308 9.818 26.4668 9.636 26.1775 9.412L26.7095 8.362C26.9522 8.56733 27.2555 8.74 27.6195 8.88C27.9928 9.01067 28.3895 9.076 28.8095 9.076C29.3322 9.076 29.7242 8.992 29.9855 8.824C30.2562 8.64667 30.3915 8.42267 30.3915 8.152C30.3915 7.956 30.3402 7.78333 30.2375 7.634C30.1442 7.48467 29.9668 7.34 29.7055 7.2C29.4442 7.05067 29.0662 6.892 28.5715 6.724C27.8902 6.49067 27.3768 6.21533 27.0315 5.898C26.6955 5.57133 26.5275 5.12333 26.5275 4.554C26.5275 3.994 26.7702 3.52267 27.2555 3.14C27.7502 2.748 28.4315 2.552 29.2995 2.552C29.7662 2.552 30.1815 2.60333 30.5455 2.706C30.9095 2.79933 31.2362 2.92067 31.5255 3.07L31.1755 4.106C30.9235 3.95667 30.6342 3.83533 30.3075 3.742C29.9902 3.64867 29.6355 3.602 29.2435 3.602C28.7582 3.602 28.3895 3.7 28.1375 3.896C27.8855 4.092 27.7595 4.30667 27.7595 4.54C27.7595 4.764 27.8575 4.95533 28.0535 5.114C28.2495 5.27267 28.6322 5.44533 29.2015 5.632C30.1255 5.94 30.7695 6.28067 31.1335 6.654C31.4975 7.02733 31.6795 7.494 31.6795 8.054C31.6795 8.70733 31.4135 9.22533 30.8815 9.608C30.3588 9.98133 29.6542 10.168 28.7675 10.168ZM40.4936 10.168C39.8029 10.168 39.1963 10.0093 38.6736 9.692C38.1603 9.36533 37.7636 8.91733 37.4836 8.348C37.2036 7.76933 37.0636 7.10667 37.0636 6.36C37.0636 5.66 37.2036 5.02067 37.4836 4.442C37.7729 3.86333 38.1836 3.406 38.7156 3.07C39.2476 2.72467 39.8729 2.552 40.5916 2.552C41.0023 2.552 41.3616 2.58933 41.6696 2.664C41.9869 2.73867 42.2903 2.846 42.5796 2.986L42.2016 4.05C41.9403 3.91933 41.6883 3.826 41.4456 3.77C41.2123 3.70467 40.9509 3.672 40.6616 3.672C40.0083 3.672 39.4576 3.91 39.0096 4.386C38.5709 4.85267 38.3516 5.50133 38.3516 6.332C38.3516 6.836 38.4449 7.29333 38.6316 7.704C38.8183 8.11467 39.0749 8.44133 39.4016 8.684C39.7376 8.92667 40.1296 9.048 40.5776 9.048C40.9323 9.048 41.2356 9.01067 41.4876 8.936C41.7396 8.852 42.0103 8.73533 42.2996 8.586L42.6916 9.65C42.4023 9.80867 42.0756 9.93467 41.7116 10.028C41.3569 10.1213 40.9509 10.168 40.4936 10.168ZM47.0864 10.168C46.3957 10.168 45.7751 10.0093 45.2244 9.692C44.6737 9.36533 44.2397 8.91733 43.9224 8.348C43.6144 7.76933 43.4604 7.10667 43.4604 6.36C43.4604 5.576 43.6191 4.89933 43.9364 4.33C44.2537 3.76067 44.6877 3.322 45.2384 3.014C45.7891 2.706 46.4051 2.552 47.0864 2.552C47.7677 2.552 48.3791 2.706 48.9204 3.014C49.4711 3.322 49.9051 3.76067 50.2224 4.33C50.5491 4.89 50.7124 5.55733 50.7124 6.332C50.7124 7.10667 50.5537 7.78333 50.2364 8.362C49.9191 8.93133 49.4851 9.37467 48.9344 9.692C48.3931 10.0093 47.7771 10.168 47.0864 10.168ZM47.0864 9.048C47.8237 9.048 48.3977 8.80067 48.8084 8.306C49.2191 7.802 49.4244 7.15333 49.4244 6.36C49.4244 5.87467 49.3217 5.43133 49.1164 5.03C48.9111 4.61933 48.6311 4.29267 48.2764 4.05C47.9311 3.798 47.5344 3.672 47.0864 3.672C46.3491 3.672 45.7751 3.91467 45.3644 4.4C44.9537 4.88533 44.7484 5.52933 44.7484 6.332C44.7484 6.81733 44.8511 7.27 45.0564 7.69C45.2617 8.10067 45.5371 8.432 45.8824 8.684C46.2371 8.92667 46.6384 9.048 47.0864 9.048ZM52.3876 10V2.72H53.6056V3.938C53.8669 3.546 54.1982 3.21933 54.5996 2.958C55.0102 2.68733 55.4956 2.552 56.0556 2.552C56.8769 2.552 57.4882 2.79933 57.8896 3.294C58.3002 3.78867 58.5056 4.442 58.5056 5.254V10H57.2456V5.394C57.2456 4.87133 57.1196 4.45133 56.8676 4.134C56.6249 3.81667 56.2842 3.658 55.8456 3.658C55.4162 3.658 55.0102 3.812 54.6276 4.12C54.2449 4.41867 53.9182 4.77333 53.6476 5.184V10H52.3876ZM63.2207 10.168C62.5207 10.168 61.9654 9.93933 61.5547 9.482C61.1534 9.01533 60.9527 8.35267 60.9527 7.494V4.078H59.6927V2.986H60.9807L61.2467 0.69H62.2127V2.986H64.2287V4.078H62.2127V7.592C62.2127 8.13333 62.3247 8.51133 62.5487 8.726C62.7821 8.94067 63.0574 9.048 63.3747 9.048C63.6081 9.048 63.8274 9.01067 64.0327 8.936C64.2474 8.86133 64.4434 8.77267 64.6207 8.67L64.9707 9.678C64.7841 9.79 64.5321 9.89733 64.2147 10C63.8974 10.112 63.5661 10.168 63.2207 10.168ZM68.7498 10.168C68.1431 10.168 67.5924 10.014 67.0978 9.706C66.6031 9.398 66.2064 8.964 65.9078 8.404C65.6184 7.83467 65.4738 7.16733 65.4738 6.402C65.4738 5.674 65.6184 5.02067 65.9078 4.442C66.2064 3.86333 66.6124 3.406 67.1258 3.07C67.6484 2.72467 68.2458 2.552 68.9178 2.552C69.3378 2.552 69.7158 2.62667 70.0518 2.776C70.3971 2.916 70.6958 3.09333 70.9478 3.308V2.72H72.0958V8.236C72.0958 8.59067 72.1798 8.824 72.3478 8.936C72.5251 9.03867 72.7164 9.09 72.9218 9.09L72.6558 10.07C71.7598 10.07 71.2184 9.706 71.0318 8.978C70.8171 9.27667 70.5231 9.552 70.1498 9.804C69.7858 10.0467 69.3191 10.168 68.7498 10.168ZM69.0298 9.048C69.3844 9.048 69.7204 8.964 70.0378 8.796C70.3551 8.61867 70.6211 8.39933 70.8358 8.138V4.232C70.5838 4.05467 70.3038 3.91467 69.9958 3.812C69.6971 3.7 69.3798 3.644 69.0438 3.644C68.5958 3.644 68.1991 3.76067 67.8538 3.994C67.5178 4.218 67.2518 4.53533 67.0558 4.946C66.8598 5.34733 66.7618 5.81867 66.7618 6.36C66.7618 6.88267 66.8598 7.34933 67.0558 7.76C67.2518 8.16133 67.5224 8.47867 67.8678 8.712C68.2131 8.936 68.6004 9.048 69.0298 9.048ZM77.4077 10.168C76.717 10.168 76.1103 10.0093 75.5877 9.692C75.0743 9.36533 74.6777 8.91733 74.3977 8.348C74.1177 7.76933 73.9777 7.10667 73.9777 6.36C73.9777 5.66 74.1177 5.02067 74.3977 4.442C74.687 3.86333 75.0977 3.406 75.6297 3.07C76.1617 2.72467 76.787 2.552 77.5057 2.552C77.9163 2.552 78.2757 2.58933 78.5837 2.664C78.901 2.73867 79.2043 2.846 79.4937 2.986L79.1157 4.05C78.8543 3.91933 78.6023 3.826 78.3597 3.77C78.1263 3.70467 77.865 3.672 77.5757 3.672C76.9223 3.672 76.3717 3.91 75.9237 4.386C75.485 4.85267 75.2657 5.50133 75.2657 6.332C75.2657 6.836 75.359 7.29333 75.5457 7.704C75.7323 8.11467 75.989 8.44133 76.3157 8.684C76.6517 8.92667 77.0437 9.048 77.4917 9.048C77.8463 9.048 78.1497 9.01067 78.4017 8.936C78.6537 8.852 78.9243 8.73533 79.2137 8.586L79.6057 9.65C79.3163 9.80867 78.9897 9.93467 78.6257 10.028C78.271 10.1213 77.865 10.168 77.4077 10.168ZM83.6192 10.168C82.9192 10.168 82.3638 9.93933 81.9532 9.482C81.5518 9.01533 81.3512 8.35267 81.3512 7.494V4.078H80.0912V2.986H81.3792L81.6452 0.69H82.6112V2.986H84.6272V4.078H82.6112V7.592C82.6112 8.13333 82.7232 8.51133 82.9472 8.726C83.1805 8.94067 83.4558 9.048 83.7732 9.048C84.0065 9.048 84.2258 9.01067 84.4312 8.936C84.6458 8.86133 84.8418 8.77267 85.0192 8.67L85.3692 9.678C85.1825 9.79 84.9305 9.89733 84.6132 10C84.2958 10.112 83.9645 10.168 83.6192 10.168ZM89.2742 10.168C88.2289 10.168 87.3982 9.83667 86.7822 9.174C86.1755 8.502 85.8722 7.564 85.8722 6.36C85.8722 5.632 86.0075 4.98333 86.2782 4.414C86.5582 3.83533 86.9455 3.38267 87.4402 3.056C87.9349 2.72 88.5089 2.552 89.1622 2.552C89.8622 2.552 90.4409 2.706 90.8982 3.014C91.3649 3.31267 91.7149 3.71867 91.9482 4.232C92.1815 4.74533 92.2982 5.31 92.2982 5.926C92.2982 6.25267 92.2842 6.57 92.2562 6.878H87.1602C87.2442 7.55933 87.4822 8.09133 87.8742 8.474C88.2662 8.85667 88.7842 9.048 89.4282 9.048C89.8482 9.048 90.2262 9.006 90.5622 8.922C90.8982 8.82867 91.2202 8.712 91.5282 8.572L91.8222 9.65C91.4862 9.79933 91.1082 9.92067 90.6882 10.014C90.2682 10.1167 89.7969 10.168 89.2742 10.168ZM87.1462 5.856H91.1362C91.1362 5.14667 90.9589 4.60067 90.6042 4.218C90.2495 3.83533 89.7595 3.644 89.1342 3.644C88.5929 3.644 88.1449 3.83533 87.7902 4.218C87.4355 4.59133 87.2209 5.13733 87.1462 5.856ZM93.9774 10V2.72H95.1954V4.302C95.3168 3.994 95.4801 3.70933 95.6854 3.448C95.8908 3.17733 96.1474 2.96267 96.4554 2.804C96.7634 2.636 97.1228 2.552 97.5334 2.552C97.6734 2.552 97.8134 2.56133 97.9534 2.58C98.0934 2.58933 98.2101 2.608 98.3034 2.636L97.9254 3.938C97.7481 3.86333 97.5381 3.826 97.2954 3.826C96.9501 3.826 96.6188 3.924 96.3014 4.12C95.9934 4.316 95.7368 4.61933 95.5314 5.03C95.3354 5.44067 95.2374 5.96333 95.2374 6.598V10H93.9774Z" fill="#999999"/>
</svg>
