<svg width="41" height="11" viewBox="0 0 41 11" fill="none" xmlns="http://www.w3.org/2000/svg">
<path d="M0.26 10V0.228C0.642667 0.181333 1.06267 0.148666 1.52 0.129999C1.98667 0.102 2.46733 0.0879999 2.962 0.0879999C3.774 0.0879999 4.46467 0.218667 5.034 0.48C5.60333 0.731999 6.03733 1.082 6.336 1.53C6.63467 1.978 6.784 2.49133 6.784 3.07C6.784 3.77 6.61133 4.36267 6.266 4.848C5.92067 5.33333 5.44 5.70667 4.824 5.968C4.208 6.22 3.494 6.346 2.682 6.346C2.29 6.346 1.926 6.332 1.59 6.304V10H0.26ZM2.85 5.24C3.68067 5.24 4.32467 5.05333 4.782 4.68C5.23933 4.30667 5.468 3.80733 5.468 3.182C5.468 2.57533 5.24867 2.09467 4.81 1.74C4.37133 1.38533 3.746 1.208 2.934 1.208C2.682 1.208 2.444 1.21267 2.22 1.222C1.996 1.23133 1.786 1.24533 1.59 1.264V5.17C1.73933 5.18867 1.92133 5.20733 2.136 5.226C2.35067 5.23533 2.58867 5.24 2.85 5.24ZM8.25477 10V2.72H9.47277V4.302C9.5941 3.994 9.75743 3.70933 9.96277 3.448C10.1681 3.17733 10.4248 2.96267 10.7328 2.804C11.0408 2.636 11.4001 2.552 11.8108 2.552C11.9508 2.552 12.0908 2.56133 12.2308 2.58C12.3708 2.58933 12.4874 2.608 12.5808 2.636L12.2028 3.938C12.0254 3.86333 11.8154 3.826 11.5728 3.826C11.2274 3.826 10.8961 3.924 10.5788 4.12C10.2708 4.316 10.0141 4.61933 9.80877 5.03C9.61277 5.44067 9.51477 5.96333 9.51477 6.598V10H8.25477ZM16.3347 10.168C15.2894 10.168 14.4587 9.83667 13.8427 9.174C13.2361 8.502 12.9327 7.564 12.9327 6.36C12.9327 5.632 13.0681 4.98333 13.3387 4.414C13.6187 3.83533 14.0061 3.38267 14.5007 3.056C14.9954 2.72 15.5694 2.552 16.2227 2.552C16.9227 2.552 17.5014 2.706 17.9587 3.014C18.4254 3.31267 18.7754 3.71867 19.0087 4.232C19.2421 4.74533 19.3587 5.31 19.3587 5.926C19.3587 6.25267 19.3447 6.57 19.3167 6.878H14.2207C14.3047 7.55933 14.5427 8.09133 14.9347 8.474C15.3267 8.85667 15.8447 9.048 16.4887 9.048C16.9087 9.048 17.2867 9.006 17.6227 8.922C17.9587 8.82867 18.2807 8.712 18.5887 8.572L18.8827 9.65C18.5467 9.79933 18.1687 9.92067 17.7487 10.014C17.3287 10.1167 16.8574 10.168 16.3347 10.168ZM14.2067 5.856H18.1967C18.1967 5.14667 18.0194 4.60067 17.6647 4.218C17.3101 3.83533 16.8201 3.644 16.1947 3.644C15.6534 3.644 15.2054 3.83533 14.8507 4.218C14.4961 4.59133 14.2814 5.13733 14.2067 5.856ZM22.998 10.168C22.4473 10.168 21.948 10.098 21.5 9.958C21.0613 9.818 20.6973 9.636 20.408 9.412L20.94 8.362C21.1826 8.56733 21.486 8.74 21.85 8.88C22.2233 9.01067 22.62 9.076 23.04 9.076C23.5626 9.076 23.9546 8.992 24.216 8.824C24.4866 8.64667 24.622 8.42267 24.622 8.152C24.622 7.956 24.5706 7.78333 24.468 7.634C24.3746 7.48467 24.1973 7.34 23.936 7.2C23.6746 7.05067 23.2966 6.892 22.802 6.724C22.1206 6.49067 21.6073 6.21533 21.262 5.898C20.926 5.57133 20.758 5.12333 20.758 4.554C20.758 3.994 21.0006 3.52267 21.486 3.14C21.9806 2.748 22.662 2.552 23.53 2.552C23.9966 2.552 24.412 2.60333 24.776 2.706C25.14 2.79933 25.4666 2.92067 25.756 3.07L25.406 4.106C25.154 3.95667 24.8646 3.83533 24.538 3.742C24.2206 3.64867 23.866 3.602 23.474 3.602C22.9886 3.602 22.62 3.7 22.368 3.896C22.116 4.092 21.99 4.30667 21.99 4.54C21.99 4.764 22.088 4.95533 22.284 5.114C22.48 5.27267 22.8626 5.44533 23.432 5.632C24.356 5.94 25 6.28067 25.364 6.654C25.728 7.02733 25.91 7.494 25.91 8.054C25.91 8.70733 25.644 9.22533 25.112 9.608C24.5893 9.98133 23.8846 10.168 22.998 10.168ZM29.5468 10.168C28.9961 10.168 28.4968 10.098 28.0488 9.958C27.6101 9.818 27.2461 9.636 26.9568 9.412L27.4888 8.362C27.7315 8.56733 28.0348 8.74 28.3988 8.88C28.7721 9.01067 29.1688 9.076 29.5888 9.076C30.1115 9.076 30.5035 8.992 30.7648 8.824C31.0355 8.64667 31.1708 8.42267 31.1708 8.152C31.1708 7.956 31.1195 7.78333 31.0168 7.634C30.9235 7.48467 30.7461 7.34 30.4848 7.2C30.2235 7.05067 29.8455 6.892 29.3508 6.724C28.6695 6.49067 28.1561 6.21533 27.8108 5.898C27.4748 5.57133 27.3068 5.12333 27.3068 4.554C27.3068 3.994 27.5495 3.52267 28.0348 3.14C28.5295 2.748 29.2108 2.552 30.0788 2.552C30.5455 2.552 30.9608 2.60333 31.3248 2.706C31.6888 2.79933 32.0155 2.92067 32.3048 3.07L31.9548 4.106C31.7028 3.95667 31.4135 3.83533 31.0868 3.742C30.7695 3.64867 30.4148 3.602 30.0228 3.602C29.5375 3.602 29.1688 3.7 28.9168 3.896C28.6648 4.092 28.5388 4.30667 28.5388 4.54C28.5388 4.764 28.6368 4.95533 28.8328 5.114C29.0288 5.27267 29.4115 5.44533 29.9808 5.632C30.9048 5.94 31.5488 6.28067 31.9128 6.654C32.2768 7.02733 32.4588 7.494 32.4588 8.054C32.4588 8.70733 32.1928 9.22533 31.6608 9.608C31.1381 9.98133 30.4335 10.168 29.5468 10.168ZM37.0476 10.168C36.0023 10.168 35.1716 9.83667 34.5556 9.174C33.949 8.502 33.6456 7.564 33.6456 6.36C33.6456 5.632 33.781 4.98333 34.0516 4.414C34.3316 3.83533 34.719 3.38267 35.2136 3.056C35.7083 2.72 36.2823 2.552 36.9356 2.552C37.6356 2.552 38.2143 2.706 38.6716 3.014C39.1383 3.31267 39.4883 3.71867 39.7216 4.232C39.955 4.74533 40.0716 5.31 40.0716 5.926C40.0716 6.25267 40.0576 6.57 40.0296 6.878H34.9336C35.0176 7.55933 35.2556 8.09133 35.6476 8.474C36.0396 8.85667 36.5576 9.048 37.2016 9.048C37.6216 9.048 37.9996 9.006 38.3356 8.922C38.6716 8.82867 38.9936 8.712 39.3016 8.572L39.5956 9.65C39.2596 9.79933 38.8816 9.92067 38.4616 10.014C38.0416 10.1167 37.5703 10.168 37.0476 10.168ZM34.9196 5.856H38.9096C38.9096 5.14667 38.7323 4.60067 38.3776 4.218C38.023 3.83533 37.533 3.644 36.9076 3.644C36.3663 3.644 35.9183 3.83533 35.5636 4.218C35.209 4.59133 34.9943 5.13733 34.9196 5.856Z" fill="#999999"/>
</svg>
