<svg width="146" height="12" viewBox="0 0 146 12" fill="none" xmlns="http://www.w3.org/2000/svg">
<path d="M0.26 11V1.228C0.642667 1.18133 1.06267 1.14867 1.52 1.13C1.98667 1.102 2.46733 1.088 2.962 1.088C3.774 1.088 4.46467 1.21867 5.034 1.48C5.60333 1.732 6.03733 2.082 6.336 2.53C6.63467 2.978 6.784 3.49133 6.784 4.07C6.784 4.77 6.61133 5.36267 6.266 5.848C5.92067 6.33333 5.44 6.70667 4.824 6.968C4.208 7.22 3.494 7.346 2.682 7.346C2.29 7.346 1.926 7.332 1.59 7.304V11H0.26ZM2.85 6.24C3.68067 6.24 4.32467 6.05333 4.782 5.68C5.23933 5.30667 5.468 4.80733 5.468 4.182C5.468 3.57533 5.24867 3.09467 4.81 2.74C4.37133 2.38533 3.746 2.208 2.934 2.208C2.682 2.208 2.444 2.21267 2.22 2.222C1.996 2.23133 1.786 2.24533 1.59 2.264V6.17C1.73933 6.18867 1.92133 6.20733 2.136 6.226C2.35067 6.23533 2.58867 6.24 2.85 6.24ZM8.25477 11V3.72H9.47277V5.302C9.5941 4.994 9.75743 4.70933 9.96277 4.448C10.1681 4.17733 10.4248 3.96267 10.7328 3.804C11.0408 3.636 11.4001 3.552 11.8108 3.552C11.9508 3.552 12.0908 3.56133 12.2308 3.58C12.3708 3.58933 12.4874 3.608 12.5808 3.636L12.2028 4.938C12.0254 4.86333 11.8154 4.826 11.5728 4.826C11.2274 4.826 10.8961 4.924 10.5788 5.12C10.2708 5.316 10.0141 5.61933 9.80877 6.03C9.61277 6.44067 9.51477 6.96333 9.51477 7.598V11H8.25477ZM16.3347 11.168C15.2894 11.168 14.4587 10.8367 13.8427 10.174C13.2361 9.502 12.9327 8.564 12.9327 7.36C12.9327 6.632 13.0681 5.98333 13.3387 5.414C13.6187 4.83533 14.0061 4.38267 14.5007 4.056C14.9954 3.72 15.5694 3.552 16.2227 3.552C16.9227 3.552 17.5014 3.706 17.9587 4.014C18.4254 4.31267 18.7754 4.71867 19.0087 5.232C19.2421 5.74533 19.3587 6.31 19.3587 6.926C19.3587 7.25267 19.3447 7.57 19.3167 7.878H14.2207C14.3047 8.55933 14.5427 9.09133 14.9347 9.474C15.3267 9.85667 15.8447 10.048 16.4887 10.048C16.9087 10.048 17.2867 10.006 17.6227 9.922C17.9587 9.82867 18.2807 9.712 18.5887 9.572L18.8827 10.65C18.5467 10.7993 18.1687 10.9207 17.7487 11.014C17.3287 11.1167 16.8574 11.168 16.3347 11.168ZM14.2067 6.856H18.1967C18.1967 6.14667 18.0194 5.60067 17.6647 5.218C17.3101 4.83533 16.8201 4.644 16.1947 4.644C15.6534 4.644 15.2054 4.83533 14.8507 5.218C14.4961 5.59133 14.2814 6.13733 14.2067 6.856ZM15.0607 2.95L14.6267 2.096L17.2727 0.345999L17.8607 1.522L15.0607 2.95ZM21.178 11V5.078H20.058V3.986H21.178V3.132C21.178 2.31067 21.4066 1.662 21.864 1.186C22.3213 0.71 22.9186 0.472 23.656 0.472C24.0386 0.472 24.3746 0.518666 24.664 0.611999C24.9533 0.695999 25.2286 0.803333 25.49 0.933999L25.112 1.998C24.916 1.89533 24.706 1.802 24.482 1.718C24.258 1.634 24.0106 1.592 23.74 1.592C23.348 1.592 23.0306 1.718 22.788 1.97C22.5546 2.21267 22.438 2.572 22.438 3.048V3.986H24.594V5.078H22.438V11H21.178ZM28.6121 11.168C27.5667 11.168 26.7361 10.8367 26.1201 10.174C25.5134 9.502 25.2101 8.564 25.2101 7.36C25.2101 6.632 25.3454 5.98333 25.6161 5.414C25.8961 4.83533 26.2834 4.38267 26.7781 4.056C27.2727 3.72 27.8467 3.552 28.5001 3.552C29.2001 3.552 29.7787 3.706 30.2361 4.014C30.7027 4.31267 31.0527 4.71867 31.2861 5.232C31.5194 5.74533 31.6361 6.31 31.6361 6.926C31.6361 7.25267 31.6221 7.57 31.5941 7.878H26.4981C26.5821 8.55933 26.8201 9.09133 27.2121 9.474C27.6041 9.85667 28.1221 10.048 28.7661 10.048C29.1861 10.048 29.5641 10.006 29.9001 9.922C30.2361 9.82867 30.5581 9.712 30.8661 9.572L31.1601 10.65C30.8241 10.7993 30.4461 10.9207 30.0261 11.014C29.6061 11.1167 29.1347 11.168 28.6121 11.168ZM26.4841 6.856H30.4741C30.4741 6.14667 30.2967 5.60067 29.9421 5.218C29.5874 4.83533 29.0974 4.644 28.4721 4.644C27.9307 4.644 27.4827 4.83533 27.1281 5.218C26.7734 5.59133 26.5587 6.13733 26.4841 6.856ZM27.3381 2.95L26.9041 2.096L29.5501 0.345999L30.1381 1.522L27.3381 2.95ZM33.3153 11V3.72H34.5333V5.302C34.6546 4.994 34.818 4.70933 35.0233 4.448C35.2286 4.17733 35.4853 3.96267 35.7933 3.804C36.1013 3.636 36.4606 3.552 36.8713 3.552C37.0113 3.552 37.1513 3.56133 37.2913 3.58C37.4313 3.58933 37.548 3.608 37.6413 3.636L37.2633 4.938C37.086 4.86333 36.876 4.826 36.6333 4.826C36.288 4.826 35.9566 4.924 35.6393 5.12C35.3313 5.316 35.0746 5.61933 34.8693 6.03C34.6733 6.44067 34.5753 6.96333 34.5753 7.598V11H33.3153ZM41.3953 11.168C40.3499 11.168 39.5193 10.8367 38.9033 10.174C38.2966 9.502 37.9933 8.564 37.9933 7.36C37.9933 6.632 38.1286 5.98333 38.3993 5.414C38.6793 4.83533 39.0666 4.38267 39.5613 4.056C40.0559 3.72 40.6299 3.552 41.2833 3.552C41.9833 3.552 42.5619 3.706 43.0193 4.014C43.4859 4.31267 43.8359 4.71867 44.0693 5.232C44.3026 5.74533 44.4193 6.31 44.4193 6.926C44.4193 7.25267 44.4053 7.57 44.3773 7.878H39.2813C39.3653 8.55933 39.6033 9.09133 39.9953 9.474C40.3873 9.85667 40.9053 10.048 41.5493 10.048C41.9693 10.048 42.3473 10.006 42.6833 9.922C43.0193 9.82867 43.3413 9.712 43.6493 9.572L43.9433 10.65C43.6073 10.7993 43.2293 10.9207 42.8093 11.014C42.3893 11.1167 41.9179 11.168 41.3953 11.168ZM39.2673 6.856H43.2573C43.2573 6.14667 43.0799 5.60067 42.7253 5.218C42.3706 4.83533 41.8806 4.644 41.2553 4.644C40.7139 4.644 40.2659 4.83533 39.9113 5.218C39.5566 5.59133 39.3419 6.13733 39.2673 6.856ZM46.0985 11V3.72H47.3165V4.938C47.5778 4.546 47.9092 4.21933 48.3105 3.958C48.7212 3.68733 49.2065 3.552 49.7665 3.552C50.5878 3.552 51.1992 3.79933 51.6005 4.294C52.0112 4.78867 52.2165 5.442 52.2165 6.254V11H50.9565V6.394C50.9565 5.87133 50.8305 5.45133 50.5785 5.134C50.3358 4.81667 49.9952 4.658 49.5565 4.658C49.1272 4.658 48.7212 4.812 48.3385 5.12C47.9558 5.41867 47.6292 5.77333 47.3585 6.184V11H46.0985ZM57.3237 11.168C56.633 11.168 56.0263 11.0093 55.5037 10.692C54.9903 10.3653 54.5937 9.91733 54.3137 9.348C54.0337 8.76933 53.8937 8.10667 53.8937 7.36C53.8937 6.66 54.0337 6.02067 54.3137 5.442C54.603 4.86333 55.0137 4.406 55.5457 4.07C56.0777 3.72467 56.703 3.552 57.4217 3.552C57.8323 3.552 58.1917 3.58933 58.4997 3.664C58.817 3.73867 59.1203 3.846 59.4097 3.986L59.0317 5.05C58.7703 4.91933 58.5183 4.826 58.2757 4.77C58.0423 4.70467 57.781 4.672 57.4917 4.672C56.8383 4.672 56.2877 4.91 55.8397 5.386C55.401 5.85267 55.1817 6.50133 55.1817 7.332C55.1817 7.836 55.275 8.29333 55.4617 8.704C55.6483 9.11467 55.905 9.44133 56.2317 9.684C56.5677 9.92667 56.9597 10.048 57.4077 10.048C57.7623 10.048 58.0657 10.0107 58.3177 9.936C58.5697 9.852 58.8403 9.73533 59.1297 9.586L59.5217 10.65C59.2323 10.8087 58.9057 10.9347 58.5417 11.028C58.187 11.1213 57.781 11.168 57.3237 11.168ZM63.7625 11.168C62.7171 11.168 61.8865 10.8367 61.2705 10.174C60.6638 9.502 60.3605 8.564 60.3605 7.36C60.3605 6.632 60.4958 5.98333 60.7665 5.414C61.0465 4.83533 61.4338 4.38267 61.9285 4.056C62.4231 3.72 62.9971 3.552 63.6505 3.552C64.3505 3.552 64.9291 3.706 65.3865 4.014C65.8531 4.31267 66.2031 4.71867 66.4365 5.232C66.6698 5.74533 66.7865 6.31 66.7865 6.926C66.7865 7.25267 66.7725 7.57 66.7445 7.878H61.6485C61.7325 8.55933 61.9705 9.09133 62.3625 9.474C62.7545 9.85667 63.2725 10.048 63.9165 10.048C64.3365 10.048 64.7145 10.006 65.0505 9.922C65.3865 9.82867 65.7085 9.712 66.0165 9.572L66.3105 10.65C65.9745 10.7993 65.5965 10.9207 65.1765 11.014C64.7565 11.1167 64.2851 11.168 63.7625 11.168ZM61.6345 6.856H65.6245C65.6245 6.14667 65.4471 5.60067 65.0925 5.218C64.7378 4.83533 64.2478 4.644 63.6225 4.644C63.0811 4.644 62.6331 4.83533 62.2785 5.218C61.9238 5.59133 61.7091 6.13733 61.6345 6.856ZM70.4257 11.168C69.875 11.168 69.3757 11.098 68.9277 10.958C68.489 10.818 68.125 10.636 67.8357 10.412L68.3677 9.362C68.6104 9.56733 68.9137 9.74 69.2777 9.88C69.651 10.0107 70.0477 10.076 70.4677 10.076C70.9904 10.076 71.3824 9.992 71.6437 9.824C71.9144 9.64667 72.0497 9.42267 72.0497 9.152C72.0497 8.956 71.9984 8.78333 71.8957 8.634C71.8024 8.48467 71.625 8.34 71.3637 8.2C71.1024 8.05067 70.7244 7.892 70.2297 7.724C69.5484 7.49067 69.035 7.21533 68.6897 6.898C68.3537 6.57133 68.1857 6.12333 68.1857 5.554C68.1857 4.994 68.4284 4.52267 68.9137 4.14C69.4084 3.748 70.0897 3.552 70.9577 3.552C71.4244 3.552 71.8397 3.60333 72.2037 3.706C72.5677 3.79933 72.8944 3.92067 73.1837 4.07L72.8337 5.106C72.5817 4.95667 72.2924 4.83533 71.9657 4.742C71.6484 4.64867 71.2937 4.602 70.9017 4.602C70.4164 4.602 70.0477 4.7 69.7957 4.896C69.5437 5.092 69.4177 5.30667 69.4177 5.54C69.4177 5.764 69.5157 5.95533 69.7117 6.114C69.9077 6.27267 70.2904 6.44533 70.8597 6.632C71.7837 6.94 72.4277 7.28067 72.7917 7.654C73.1557 8.02733 73.3377 8.494 73.3377 9.054C73.3377 9.70733 73.0717 10.2253 72.5397 10.608C72.017 10.9813 71.3124 11.168 70.4257 11.168ZM81.9698 11.168C81.3725 11.168 80.8265 11.014 80.3318 10.706C79.8371 10.398 79.4451 9.964 79.1558 9.404C78.8665 8.83467 78.7218 8.16733 78.7218 7.402C78.7218 6.66467 78.8665 6.00667 79.1558 5.428C79.4545 4.84933 79.8465 4.392 80.3318 4.056C80.8265 3.72 81.3678 3.552 81.9558 3.552C82.4411 3.552 82.8565 3.65 83.2018 3.846C83.5565 4.042 83.8318 4.24267 84.0278 4.448V0.64H85.2878V9.236C85.2878 9.59067 85.3718 9.824 85.5398 9.936C85.7171 10.0387 85.9085 10.09 86.1138 10.09L85.8478 11.07C84.9611 11.07 84.4198 10.7153 84.2238 10.006C84.0185 10.2953 83.7291 10.5613 83.3558 10.804C82.9918 11.0467 82.5298 11.168 81.9698 11.168ZM82.2498 10.048C82.5951 10.048 82.9218 9.96867 83.2298 9.81C83.5471 9.642 83.8131 9.42733 84.0278 9.166V5.554C83.8505 5.33 83.6031 5.12467 83.2858 4.938C82.9685 4.742 82.6185 4.644 82.2358 4.644C81.7878 4.644 81.3958 4.76533 81.0598 5.008C80.7238 5.25067 80.4625 5.57733 80.2758 5.988C80.0985 6.38933 80.0098 6.84667 80.0098 7.36C80.0098 7.87333 80.1078 8.33533 80.3038 8.746C80.4998 9.14733 80.7658 9.46467 81.1018 9.698C81.4471 9.93133 81.8298 10.048 82.2498 10.048ZM90.573 11.168C89.5277 11.168 88.697 10.8367 88.081 10.174C87.4743 9.502 87.171 8.564 87.171 7.36C87.171 6.632 87.3063 5.98333 87.577 5.414C87.857 4.83533 88.2443 4.38267 88.739 4.056C89.2337 3.72 89.8077 3.552 90.461 3.552C91.161 3.552 91.7397 3.706 92.197 4.014C92.6637 4.31267 93.0137 4.71867 93.247 5.232C93.4803 5.74533 93.597 6.31 93.597 6.926C93.597 7.25267 93.583 7.57 93.555 7.878H88.459C88.543 8.55933 88.781 9.09133 89.173 9.474C89.565 9.85667 90.083 10.048 90.727 10.048C91.147 10.048 91.525 10.006 91.861 9.922C92.197 9.82867 92.519 9.712 92.827 9.572L93.121 10.65C92.785 10.7993 92.407 10.9207 91.987 11.014C91.567 11.1167 91.0957 11.168 90.573 11.168ZM88.445 6.856H92.435C92.435 6.14667 92.2577 5.60067 91.903 5.218C91.5483 4.83533 91.0583 4.644 90.433 4.644C89.8917 4.644 89.4437 4.83533 89.089 5.218C88.7343 5.59133 88.5197 6.13733 88.445 6.856ZM102.414 11.168C101.723 11.168 101.116 11.0093 100.594 10.692C100.08 10.3653 99.6835 9.91733 99.4035 9.348C99.1235 8.76933 98.9835 8.10667 98.9835 7.36C98.9835 6.66 99.1235 6.02067 99.4035 5.442C99.6928 4.86333 100.104 4.406 100.636 4.07C101.168 3.72467 101.793 3.552 102.512 3.552C102.922 3.552 103.282 3.58933 103.59 3.664C103.907 3.73867 104.21 3.846 104.5 3.986L104.122 5.05C103.86 4.91933 103.608 4.826 103.366 4.77C103.132 4.70467 102.871 4.672 102.582 4.672C101.928 4.672 101.378 4.91 100.93 5.386C100.491 5.85267 100.272 6.50133 100.272 7.332C100.272 7.836 100.365 8.29333 100.552 8.704C100.738 9.11467 100.995 9.44133 101.322 9.684C101.658 9.92667 102.05 10.048 102.498 10.048C102.852 10.048 103.156 10.0107 103.408 9.936C103.66 9.852 103.93 9.73533 104.22 9.586L104.612 10.65C104.322 10.8087 103.996 10.9347 103.632 11.028C103.277 11.1213 102.871 11.168 102.414 11.168ZM109.006 11.168C108.316 11.168 107.695 11.0093 107.144 10.692C106.594 10.3653 106.16 9.91733 105.842 9.348C105.534 8.76933 105.38 8.10667 105.38 7.36C105.38 6.576 105.539 5.89933 105.856 5.33C106.174 4.76067 106.608 4.322 107.158 4.014C107.709 3.706 108.325 3.552 109.006 3.552C109.688 3.552 110.299 3.706 110.84 4.014C111.391 4.322 111.825 4.76067 112.142 5.33C112.469 5.89 112.632 6.55733 112.632 7.332C112.632 8.10667 112.474 8.78333 112.156 9.362C111.839 9.93133 111.405 10.3747 110.854 10.692C110.313 11.0093 109.697 11.168 109.006 11.168ZM109.006 10.048C109.744 10.048 110.318 9.80067 110.728 9.306C111.139 8.802 111.344 8.15333 111.344 7.36C111.344 6.87467 111.242 6.43133 111.036 6.03C110.831 5.61933 110.551 5.29267 110.196 5.05C109.851 4.798 109.454 4.672 109.006 4.672C108.269 4.672 107.695 4.91467 107.284 5.4C106.874 5.88533 106.668 6.52933 106.668 7.332C106.668 7.81733 106.771 8.27 106.976 8.69C107.182 9.10067 107.457 9.432 107.802 9.684C108.157 9.92667 108.558 10.048 109.006 10.048ZM117.374 11.168C116.683 11.168 116.062 11.0093 115.512 10.692C114.961 10.3653 114.527 9.91733 114.21 9.348C113.902 8.76933 113.748 8.10667 113.748 7.36C113.748 6.576 113.906 5.89933 114.224 5.33C114.541 4.76067 114.975 4.322 115.526 4.014C116.076 3.706 116.692 3.552 117.374 3.552C118.055 3.552 118.666 3.706 119.208 4.014C119.758 4.322 120.192 4.76067 120.51 5.33C120.836 5.89 121 6.55733 121 7.332C121 8.10667 120.841 8.78333 120.524 9.362C120.206 9.93133 119.772 10.3747 119.222 10.692C118.68 11.0093 118.064 11.168 117.374 11.168ZM117.374 10.048C118.111 10.048 118.685 9.80067 119.096 9.306C119.506 8.802 119.712 8.15333 119.712 7.36C119.712 6.87467 119.609 6.43133 119.404 6.03C119.198 5.61933 118.918 5.29267 118.564 5.05C118.218 4.798 117.822 4.672 117.374 4.672C116.636 4.672 116.062 4.91467 115.652 5.4C115.241 5.88533 115.035 6.52933 115.035 7.332C115.035 7.81733 115.138 8.27 115.344 8.69C115.549 9.10067 115.824 9.432 116.17 9.684C116.524 9.92667 116.926 10.048 117.374 10.048ZM127.701 11.14L123.935 7.262V11H122.675V0.64H123.935V6.562L127.225 3.58L127.953 4.378L125.139 6.87L128.569 10.3L127.701 11.14ZM129.825 11V3.72H131.085V11H129.825ZM130.455 2.474C130.212 2.474 130.002 2.38533 129.825 2.208C129.657 2.03067 129.573 1.82533 129.573 1.592C129.573 1.32133 129.652 1.10667 129.811 0.947999C129.97 0.789333 130.184 0.71 130.455 0.71C130.698 0.71 130.903 0.798666 131.071 0.976C131.248 1.144 131.337 1.34933 131.337 1.592C131.337 1.85333 131.258 2.068 131.099 2.236C130.94 2.39467 130.726 2.474 130.455 2.474ZM136.237 11.168C135.192 11.168 134.361 10.8367 133.745 10.174C133.138 9.502 132.835 8.564 132.835 7.36C132.835 6.632 132.97 5.98333 133.241 5.414C133.521 4.83533 133.908 4.38267 134.403 4.056C134.898 3.72 135.472 3.552 136.125 3.552C136.825 3.552 137.404 3.706 137.861 4.014C138.328 4.31267 138.678 4.71867 138.911 5.232C139.144 5.74533 139.261 6.31 139.261 6.926C139.261 7.25267 139.247 7.57 139.219 7.878H134.123C134.207 8.55933 134.445 9.09133 134.837 9.474C135.229 9.85667 135.747 10.048 136.391 10.048C136.811 10.048 137.189 10.006 137.525 9.922C137.861 9.82867 138.183 9.712 138.491 9.572L138.785 10.65C138.449 10.7993 138.071 10.9207 137.651 11.014C137.231 11.1167 136.76 11.168 136.237 11.168ZM134.109 6.856H138.099C138.099 6.14667 137.922 5.60067 137.567 5.218C137.212 4.83533 136.722 4.644 136.097 4.644C135.556 4.644 135.108 4.83533 134.753 5.218C134.398 5.59133 134.184 6.13733 134.109 6.856ZM142.9 11.168C142.35 11.168 141.85 11.098 141.402 10.958C140.964 10.818 140.6 10.636 140.31 10.412L140.842 9.362C141.085 9.56733 141.388 9.74 141.752 9.88C142.126 10.0107 142.522 10.076 142.942 10.076C143.465 10.076 143.857 9.992 144.118 9.824C144.389 9.64667 144.524 9.42267 144.524 9.152C144.524 8.956 144.473 8.78333 144.37 8.634C144.277 8.48467 144.1 8.34 143.838 8.2C143.577 8.05067 143.199 7.892 142.704 7.724C142.023 7.49067 141.51 7.21533 141.164 6.898C140.828 6.57133 140.66 6.12333 140.66 5.554C140.66 4.994 140.903 4.52267 141.388 4.14C141.883 3.748 142.564 3.552 143.432 3.552C143.899 3.552 144.314 3.60333 144.678 3.706C145.042 3.79933 145.369 3.92067 145.658 4.07L145.308 5.106C145.056 4.95667 144.767 4.83533 144.44 4.742C144.123 4.64867 143.768 4.602 143.376 4.602C142.891 4.602 142.522 4.7 142.27 4.896C142.018 5.092 141.892 5.30667 141.892 5.54C141.892 5.764 141.99 5.95533 142.186 6.114C142.382 6.27267 142.765 6.44533 143.334 6.632C144.258 6.94 144.902 7.28067 145.266 7.654C145.63 8.02733 145.812 8.494 145.812 9.054C145.812 9.70733 145.546 10.2253 145.014 10.608C144.492 10.9813 143.787 11.168 142.9 11.168Z" fill="#999999"/>
</svg>
