<svg width="83" height="11" viewBox="0 0 83 11" fill="none" xmlns="http://www.w3.org/2000/svg">
<path d="M5.972 10.168L4.754 7.508C4.446 6.84533 4.05867 6.374 3.592 6.094C3.12533 5.814 2.528 5.674 1.8 5.674H1.59V10H0.26V0.228C0.754667 0.181333 1.226 0.148666 1.674 0.129999C2.13133 0.102 2.61667 0.0879999 3.13 0.0879999C4.32467 0.0879999 5.22067 0.330667 5.818 0.816C6.42467 1.30133 6.728 1.92667 6.728 2.692C6.728 3.37333 6.52267 3.924 6.112 4.344C5.71067 4.75467 5.12733 5.06267 4.362 5.268C4.614 5.38 4.838 5.51533 5.034 5.674C5.23 5.82333 5.41667 6.02867 5.594 6.29C5.78067 6.542 5.96733 6.87333 6.154 7.284L7.218 9.58L5.972 10.168ZM1.59 4.554H3.13C3.802 4.554 4.348 4.40467 4.768 4.106C5.188 3.80733 5.398 3.378 5.398 2.818C5.398 2.35133 5.202 1.96867 4.81 1.67C4.418 1.362 3.858 1.208 3.13 1.208C2.81267 1.208 2.528 1.21267 2.276 1.222C2.024 1.23133 1.79533 1.24533 1.59 1.264V4.554ZM11.6726 10.168C10.6273 10.168 9.79663 9.83667 9.18063 9.174C8.57396 8.502 8.27063 7.564 8.27063 6.36C8.27063 5.632 8.40596 4.98333 8.67663 4.414C8.95663 3.83533 9.34396 3.38267 9.83863 3.056C10.3333 2.72 10.9073 2.552 11.5606 2.552C12.2606 2.552 12.8393 2.706 13.2966 3.014C13.7633 3.31267 14.1133 3.71867 14.3466 4.232C14.58 4.74533 14.6966 5.31 14.6966 5.926C14.6966 6.25267 14.6826 6.57 14.6546 6.878H9.55863C9.64263 7.55933 9.88063 8.09133 10.2726 8.474C10.6646 8.85667 11.1826 9.048 11.8266 9.048C12.2466 9.048 12.6246 9.006 12.9606 8.922C13.2966 8.82867 13.6186 8.712 13.9266 8.572L14.2206 9.65C13.8846 9.79933 13.5066 9.92067 13.0866 10.014C12.6666 10.1167 12.1953 10.168 11.6726 10.168ZM9.54463 5.856H13.5346C13.5346 5.14667 13.3573 4.60067 13.0026 4.218C12.648 3.83533 12.158 3.644 11.5326 3.644C10.9913 3.644 10.5433 3.83533 10.1886 4.218C9.83396 4.59133 9.61929 5.13733 9.54463 5.856ZM19.3159 10.168C18.6252 10.168 18.0185 10.0093 17.4959 9.692C16.9825 9.36533 16.5859 8.91733 16.3059 8.348C16.0259 7.76933 15.8859 7.10667 15.8859 6.36C15.8859 5.66 16.0259 5.02067 16.3059 4.442C16.5952 3.86333 17.0059 3.406 17.5379 3.07C18.0699 2.72467 18.6952 2.552 19.4139 2.552C19.8245 2.552 20.1839 2.58933 20.4919 2.664C20.8092 2.73867 21.1125 2.846 21.4019 2.986L21.0239 4.05C20.7625 3.91933 20.5105 3.826 20.2679 3.77C20.0345 3.70467 19.7732 3.672 19.4839 3.672C18.8305 3.672 18.2799 3.91 17.8319 4.386C17.3932 4.85267 17.1739 5.50133 17.1739 6.332C17.1739 6.836 17.2672 7.29333 17.4539 7.704C17.6405 8.11467 17.8972 8.44133 18.2239 8.684C18.5599 8.92667 18.9519 9.048 19.3999 9.048C19.7545 9.048 20.0579 9.01067 20.3099 8.936C20.5619 8.852 20.8325 8.73533 21.1219 8.586L21.5139 9.65C21.2245 9.80867 20.8979 9.93467 20.5339 10.028C20.1792 10.1213 19.7732 10.168 19.3159 10.168ZM22.9794 10V2.72H24.1974V4.302C24.3187 3.994 24.482 3.70933 24.6874 3.448C24.8927 3.17733 25.1494 2.96267 25.4574 2.804C25.7654 2.636 26.1247 2.552 26.5354 2.552C26.6754 2.552 26.8154 2.56133 26.9554 2.58C27.0954 2.58933 27.212 2.608 27.3054 2.636L26.9274 3.938C26.75 3.86333 26.54 3.826 26.2974 3.826C25.952 3.826 25.6207 3.924 25.3034 4.12C24.9954 4.316 24.7387 4.61933 24.5334 5.03C24.3374 5.44067 24.2394 5.96333 24.2394 6.598V10H22.9794ZM30.9512 10.168C30.5312 10.168 30.1345 10.0793 29.7612 9.902C29.3878 9.72467 29.0845 9.44 28.8512 9.048C28.6178 8.64667 28.5012 8.11467 28.5012 7.452V2.72H29.7612V7.284C29.7612 7.85333 29.8825 8.292 30.1252 8.6C30.3678 8.89867 30.7225 9.048 31.1892 9.048C31.5718 9.048 31.9405 8.97333 32.2952 8.824C32.6592 8.66533 32.9812 8.45533 33.2612 8.194V2.72H34.5212V8.11C34.5212 8.51133 34.6052 8.77733 34.7732 8.908C34.9505 9.02933 35.1418 9.09 35.3472 9.09L35.0812 10.07C34.2132 10.07 33.6765 9.72467 33.4712 9.034C33.1445 9.37 32.7665 9.64533 32.3372 9.86C31.9078 10.0653 31.4458 10.168 30.9512 10.168ZM39.5684 10.168C38.8684 10.168 38.3131 9.93933 37.9024 9.482C37.5011 9.01533 37.3004 8.35267 37.3004 7.494V4.078H36.0404V2.986H37.3284L37.5944 0.69H38.5604V2.986H40.5764V4.078H38.5604V7.592C38.5604 8.13333 38.6724 8.51133 38.8964 8.726C39.1297 8.94067 39.4051 9.048 39.7224 9.048C39.9557 9.048 40.1751 9.01067 40.3804 8.936C40.5951 8.86133 40.7911 8.77267 40.9684 8.67L41.3184 9.678C41.1317 9.79 40.8797 9.89733 40.5624 10C40.2451 10.112 39.9137 10.168 39.5684 10.168ZM45.2234 10.168C44.1781 10.168 43.3474 9.83667 42.7314 9.174C42.1247 8.502 41.8214 7.564 41.8214 6.36C41.8214 5.632 41.9567 4.98333 42.2274 4.414C42.5074 3.83533 42.8947 3.38267 43.3894 3.056C43.8841 2.72 44.4581 2.552 45.1114 2.552C45.8114 2.552 46.3901 2.706 46.8474 3.014C47.3141 3.31267 47.6641 3.71867 47.8974 4.232C48.1307 4.74533 48.2474 5.31 48.2474 5.926C48.2474 6.25267 48.2334 6.57 48.2054 6.878H43.1094C43.1934 7.55933 43.4314 8.09133 43.8234 8.474C44.2154 8.85667 44.7334 9.048 45.3774 9.048C45.7974 9.048 46.1754 9.006 46.5114 8.922C46.8474 8.82867 47.1694 8.712 47.4774 8.572L47.7714 9.65C47.4354 9.79933 47.0574 9.92067 46.6374 10.014C46.2174 10.1167 45.7461 10.168 45.2234 10.168ZM43.0954 5.856H47.0854C47.0854 5.14667 46.9081 4.60067 46.5534 4.218C46.1987 3.83533 45.7087 3.644 45.0834 3.644C44.5421 3.644 44.0941 3.83533 43.7394 4.218C43.3847 4.59133 43.1701 5.13733 43.0954 5.856ZM49.9266 10V2.72H51.1446V3.938C51.406 3.546 51.7373 3.21933 52.1386 2.958C52.54 2.68733 52.9973 2.552 53.5106 2.552C54.0893 2.552 54.5606 2.692 54.9246 2.972C55.298 3.252 55.5593 3.62533 55.7086 4.092C55.998 3.66267 56.3386 3.29867 56.7306 3C57.132 2.70133 57.6266 2.552 58.2146 2.552C59.008 2.552 59.596 2.804 59.9786 3.308C60.3706 3.80267 60.5666 4.45133 60.5666 5.254V10H59.3066V5.352C59.3066 4.848 59.19 4.442 58.9566 4.134C58.7233 3.81667 58.4013 3.658 57.9906 3.658C57.5706 3.658 57.1786 3.81667 56.8146 4.134C56.46 4.442 56.1473 4.806 55.8766 5.226V10H54.6166V5.352C54.6166 4.848 54.5 4.442 54.2666 4.134C54.0333 3.81667 53.7113 3.658 53.3006 3.658C52.89 3.658 52.5026 3.812 52.1386 4.12C51.7746 4.41867 51.4573 4.77333 51.1866 5.184V10H49.9266ZM65.6492 10.168C64.6039 10.168 63.7732 9.83667 63.1572 9.174C62.5505 8.502 62.2472 7.564 62.2472 6.36C62.2472 5.632 62.3825 4.98333 62.6532 4.414C62.9332 3.83533 63.3205 3.38267 63.8152 3.056C64.3099 2.72 64.8839 2.552 65.5372 2.552C66.2372 2.552 66.8159 2.706 67.2732 3.014C67.7399 3.31267 68.0899 3.71867 68.3232 4.232C68.5565 4.74533 68.6732 5.31 68.6732 5.926C68.6732 6.25267 68.6592 6.57 68.6312 6.878H63.5352C63.6192 7.55933 63.8572 8.09133 64.2492 8.474C64.6412 8.85667 65.1592 9.048 65.8032 9.048C66.2232 9.048 66.6012 9.006 66.9372 8.922C67.2732 8.82867 67.5952 8.712 67.9032 8.572L68.1972 9.65C67.8612 9.79933 67.4832 9.92067 67.0632 10.014C66.6432 10.1167 66.1719 10.168 65.6492 10.168ZM63.5212 5.856H67.5112C67.5112 5.14667 67.3339 4.60067 66.9792 4.218C66.6245 3.83533 66.1345 3.644 65.5092 3.644C64.9679 3.644 64.5199 3.83533 64.1652 4.218C63.8105 4.59133 63.5959 5.13733 63.5212 5.856ZM70.3524 10V2.72H71.5704V3.938C71.8318 3.546 72.1631 3.21933 72.5644 2.958C72.9751 2.68733 73.4604 2.552 74.0204 2.552C74.8418 2.552 75.4531 2.79933 75.8544 3.294C76.2651 3.78867 76.4704 4.442 76.4704 5.254V10H75.2104V5.394C75.2104 4.87133 75.0844 4.45133 74.8324 4.134C74.5898 3.81667 74.2491 3.658 73.8104 3.658C73.3811 3.658 72.9751 3.812 72.5924 4.12C72.2098 4.41867 71.8831 4.77333 71.6124 5.184V10H70.3524ZM81.1856 10.168C80.4856 10.168 79.9302 9.93933 79.5196 9.482C79.1182 9.01533 78.9176 8.35267 78.9176 7.494V4.078H77.6576V2.986H78.9456L79.2116 0.69H80.1776V2.986H82.1936V4.078H80.1776V7.592C80.1776 8.13333 80.2896 8.51133 80.5136 8.726C80.7469 8.94067 81.0222 9.048 81.3396 9.048C81.5729 9.048 81.7922 9.01067 81.9976 8.936C82.2122 8.86133 82.4082 8.77267 82.5856 8.67L82.9356 9.678C82.7489 9.79 82.4969 9.89733 82.1796 10C81.8622 10.112 81.5309 10.168 81.1856 10.168Z" fill="#999999"/>
</svg>
