<svg width="142" height="12" viewBox="0 0 142 12" fill="none" xmlns="http://www.w3.org/2000/svg">
<path d="M5.972 11.168L4.754 8.508C4.446 7.84533 4.05867 7.374 3.592 7.094C3.12533 6.814 2.528 6.674 1.8 6.674H1.59V11H0.26V1.228C0.754667 1.18133 1.226 1.14867 1.674 1.13C2.13133 1.102 2.61667 1.088 3.13 1.088C4.32467 1.088 5.22067 1.33067 5.818 1.816C6.42467 2.30133 6.728 2.92667 6.728 3.692C6.728 4.37333 6.52267 4.924 6.112 5.344C5.71067 5.75467 5.12733 6.06267 4.362 6.268C4.614 6.38 4.838 6.51533 5.034 6.674C5.23 6.82333 5.41667 7.02867 5.594 7.29C5.78067 7.542 5.96733 7.87333 6.154 8.284L7.218 10.58L5.972 11.168ZM1.59 5.554H3.13C3.802 5.554 4.348 5.40467 4.768 5.106C5.188 4.80733 5.398 4.378 5.398 3.818C5.398 3.35133 5.202 2.96867 4.81 2.67C4.418 2.362 3.858 2.208 3.13 2.208C2.81267 2.208 2.528 2.21267 2.276 2.222C2.024 2.23133 1.79533 2.24533 1.59 2.264V5.554ZM11.6726 11.168C10.6273 11.168 9.79663 10.8367 9.18063 10.174C8.57396 9.502 8.27063 8.564 8.27063 7.36C8.27063 6.632 8.40596 5.98333 8.67663 5.414C8.95663 4.83533 9.34396 4.38267 9.83863 4.056C10.3333 3.72 10.9073 3.552 11.5606 3.552C12.2606 3.552 12.8393 3.706 13.2966 4.014C13.7633 4.31267 14.1133 4.71867 14.3466 5.232C14.58 5.74533 14.6966 6.31 14.6966 6.926C14.6966 7.25267 14.6826 7.57 14.6546 7.878H9.55863C9.64263 8.55933 9.88063 9.09133 10.2726 9.474C10.6646 9.85667 11.1826 10.048 11.8266 10.048C12.2466 10.048 12.6246 10.006 12.9606 9.922C13.2966 9.82867 13.6186 9.712 13.9266 9.572L14.2206 10.65C13.8846 10.7993 13.5066 10.9207 13.0866 11.014C12.6666 11.1167 12.1953 11.168 11.6726 11.168ZM9.54463 6.856H13.5346C13.5346 6.14667 13.3573 5.60067 13.0026 5.218C12.648 4.83533 12.158 4.644 11.5326 4.644C10.9913 4.644 10.5433 4.83533 10.1886 5.218C9.83396 5.59133 9.61929 6.13733 9.54463 6.856ZM18.5879 11.168C18.1585 11.168 17.7712 11.0887 17.4259 10.93C17.0805 10.762 16.8052 10.496 16.5999 10.132C16.4039 9.768 16.3059 9.29667 16.3059 8.718V0.64H17.5659V8.592C17.5659 9.096 17.6685 9.46933 17.8739 9.712C18.0885 9.95467 18.3825 10.076 18.7559 10.076C18.9332 10.076 19.1059 10.0573 19.2739 10.02C19.4512 9.97333 19.6005 9.922 19.7219 9.866L20.0299 10.888C19.8619 10.9627 19.6519 11.028 19.3999 11.084C19.1572 11.14 18.8865 11.168 18.5879 11.168ZM23.7966 11.168C23.19 11.168 22.6393 11.014 22.1446 10.706C21.65 10.398 21.2533 9.964 20.9546 9.404C20.6653 8.83467 20.5206 8.16733 20.5206 7.402C20.5206 6.674 20.6653 6.02067 20.9546 5.442C21.2533 4.86333 21.6593 4.406 22.1726 4.07C22.6953 3.72467 23.2926 3.552 23.9646 3.552C24.3846 3.552 24.7626 3.62667 25.0986 3.776C25.444 3.916 25.7426 4.09333 25.9946 4.308V3.72H27.1426V9.236C27.1426 9.59067 27.2266 9.824 27.3946 9.936C27.572 10.0387 27.7633 10.09 27.9686 10.09L27.7026 11.07C26.8066 11.07 26.2653 10.706 26.0786 9.978C25.864 10.2767 25.57 10.552 25.1966 10.804C24.8326 11.0467 24.366 11.168 23.7966 11.168ZM24.0766 10.048C24.4313 10.048 24.7673 9.964 25.0846 9.796C25.402 9.61867 25.668 9.39933 25.8826 9.138V5.232C25.6306 5.05467 25.3506 4.91467 25.0426 4.812C24.744 4.7 24.4266 4.644 24.0906 4.644C23.6426 4.644 23.246 4.76067 22.9006 4.994C22.5646 5.218 22.2986 5.53533 22.1026 5.946C21.9066 6.34733 21.8086 6.81867 21.8086 7.36C21.8086 7.88267 21.9066 8.34933 22.1026 8.76C22.2986 9.16133 22.5693 9.47867 22.9146 9.712C23.26 9.936 23.6473 10.048 24.0766 10.048ZM32.1993 11.168C31.4993 11.168 30.9439 10.9393 30.5333 10.482C30.1319 10.0153 29.9313 9.35267 29.9313 8.494V5.078H28.6713V3.986H29.9593L30.2253 1.69H31.1913V3.986H33.2073V5.078H31.1913V8.592C31.1913 9.13333 31.3033 9.51133 31.5273 9.726C31.7606 9.94067 32.0359 10.048 32.3533 10.048C32.5866 10.048 32.8059 10.0107 33.0113 9.936C33.2259 9.86133 33.4219 9.77267 33.5993 9.67L33.9493 10.678C33.7626 10.79 33.5106 10.8973 33.1933 11C32.8759 11.112 32.5446 11.168 32.1993 11.168ZM35.2157 11V3.72H36.4757V11H35.2157ZM35.8457 2.474C35.603 2.474 35.393 2.38533 35.2157 2.208C35.0477 2.03067 34.9637 1.82533 34.9637 1.592C34.9637 1.32133 35.043 1.10667 35.2017 0.947999C35.3604 0.789333 35.575 0.71 35.8457 0.71C36.0884 0.71 36.2937 0.798666 36.4617 0.976C36.639 1.144 36.7277 1.34933 36.7277 1.592C36.7277 1.85333 36.6484 2.068 36.4897 2.236C36.331 2.39467 36.1164 2.474 35.8457 2.474ZM41.7817 11.168C41.091 11.168 40.4704 11.0093 39.9197 10.692C39.369 10.3653 38.935 9.91733 38.6177 9.348C38.3097 8.76933 38.1557 8.10667 38.1557 7.36C38.1557 6.576 38.3144 5.89933 38.6317 5.33C38.949 4.76067 39.383 4.322 39.9337 4.014C40.4844 3.706 41.1004 3.552 41.7817 3.552C42.463 3.552 43.0744 3.706 43.6157 4.014C44.1664 4.322 44.6004 4.76067 44.9177 5.33C45.2444 5.89 45.4077 6.55733 45.4077 7.332C45.4077 8.10667 45.249 8.78333 44.9317 9.362C44.6144 9.93133 44.1804 10.3747 43.6297 10.692C43.0884 11.0093 42.4724 11.168 41.7817 11.168ZM41.7817 10.048C42.519 10.048 43.093 9.80067 43.5037 9.306C43.9144 8.802 44.1197 8.15333 44.1197 7.36C44.1197 6.87467 44.017 6.43133 43.8117 6.03C43.6064 5.61933 43.3264 5.29267 42.9717 5.05C42.6264 4.798 42.2297 4.672 41.7817 4.672C41.0444 4.672 40.4704 4.91467 40.0597 5.4C39.649 5.88533 39.4437 6.52933 39.4437 7.332C39.4437 7.81733 39.5464 8.27 39.7517 8.69C39.957 9.10067 40.2324 9.432 40.5777 9.684C40.9324 9.92667 41.3337 10.048 41.7817 10.048ZM47.0829 11V3.72H48.3009V4.938C48.5622 4.546 48.8936 4.21933 49.2949 3.958C49.7056 3.68733 50.1909 3.552 50.7509 3.552C51.5722 3.552 52.1836 3.79933 52.5849 4.294C52.9956 4.78867 53.2009 5.442 53.2009 6.254V11H51.9409V6.394C51.9409 5.87133 51.8149 5.45133 51.5629 5.134C51.3202 4.81667 50.9796 4.658 50.5409 4.658C50.1116 4.658 49.7056 4.812 49.3229 5.12C48.9402 5.41867 48.6136 5.77333 48.3429 6.184V11H47.0829ZM57.328 11.168C56.7774 11.168 56.278 11.098 55.83 10.958C55.3914 10.818 55.0274 10.636 54.738 10.412L55.27 9.362C55.5127 9.56733 55.816 9.74 56.18 9.88C56.5534 10.0107 56.95 10.076 57.37 10.076C57.8927 10.076 58.2847 9.992 58.546 9.824C58.8167 9.64667 58.952 9.42267 58.952 9.152C58.952 8.956 58.9007 8.78333 58.798 8.634C58.7047 8.48467 58.5274 8.34 58.266 8.2C58.0047 8.05067 57.6267 7.892 57.132 7.724C56.4507 7.49067 55.9374 7.21533 55.592 6.898C55.256 6.57133 55.088 6.12333 55.088 5.554C55.088 4.994 55.3307 4.52267 55.816 4.14C56.3107 3.748 56.992 3.552 57.86 3.552C58.3267 3.552 58.742 3.60333 59.106 3.706C59.47 3.79933 59.7967 3.92067 60.086 4.07L59.736 5.106C59.484 4.95667 59.1947 4.83533 58.868 4.742C58.5507 4.64867 58.196 4.602 57.804 4.602C57.3187 4.602 56.95 4.7 56.698 4.896C56.446 5.092 56.32 5.30667 56.32 5.54C56.32 5.764 56.418 5.95533 56.614 6.114C56.81 6.27267 57.1927 6.44533 57.762 6.632C58.686 6.94 59.33 7.28067 59.694 7.654C60.058 8.02733 60.24 8.494 60.24 9.054C60.24 9.70733 59.974 10.2253 59.442 10.608C58.9194 10.9813 58.2147 11.168 57.328 11.168ZM66.1141 11V3.72H67.3741V11H66.1141ZM66.7441 2.474C66.5015 2.474 66.2915 2.38533 66.1141 2.208C65.9461 2.03067 65.8621 1.82533 65.8621 1.592C65.8621 1.32133 65.9415 1.10667 66.1001 0.947999C66.2588 0.789333 66.4735 0.71 66.7441 0.71C66.9868 0.71 67.1921 0.798666 67.3601 0.976C67.5375 1.144 67.6261 1.34933 67.6261 1.592C67.6261 1.85333 67.5468 2.068 67.3881 2.236C67.2295 2.39467 67.0148 2.474 66.7441 2.474ZM69.6141 11V3.72H70.8321V4.938C71.0935 4.546 71.4248 4.21933 71.8261 3.958C72.2368 3.68733 72.7221 3.552 73.2821 3.552C74.1035 3.552 74.7148 3.79933 75.1161 4.294C75.5268 4.78867 75.7321 5.442 75.7321 6.254V11H74.4721V6.394C74.4721 5.87133 74.3461 5.45133 74.0941 5.134C73.8515 4.81667 73.5108 4.658 73.0721 4.658C72.6428 4.658 72.2368 4.812 71.8541 5.12C71.4715 5.41867 71.1448 5.77333 70.8741 6.184V11H69.6141ZM79.8453 11L76.9193 4.056L78.0673 3.58L80.5453 9.572L83.0233 3.58L84.1013 4.056L81.1613 11H79.8453ZM88.0027 11.168C86.9574 11.168 86.1267 10.8367 85.5107 10.174C84.904 9.502 84.6007 8.564 84.6007 7.36C84.6007 6.632 84.736 5.98333 85.0067 5.414C85.2867 4.83533 85.674 4.38267 86.1687 4.056C86.6634 3.72 87.2374 3.552 87.8907 3.552C88.5907 3.552 89.1694 3.706 89.6267 4.014C90.0934 4.31267 90.4434 4.71867 90.6767 5.232C90.91 5.74533 91.0267 6.31 91.0267 6.926C91.0267 7.25267 91.0127 7.57 90.9847 7.878H85.8887C85.9727 8.55933 86.2107 9.09133 86.6027 9.474C86.9947 9.85667 87.5127 10.048 88.1567 10.048C88.5767 10.048 88.9547 10.006 89.2907 9.922C89.6267 9.82867 89.9487 9.712 90.2567 9.572L90.5507 10.65C90.2147 10.7993 89.8367 10.9207 89.4167 11.014C88.9967 11.1167 88.5254 11.168 88.0027 11.168ZM85.8747 6.856H89.8647C89.8647 6.14667 89.6874 5.60067 89.3327 5.218C88.978 4.83533 88.488 4.644 87.8627 4.644C87.3214 4.644 86.8734 4.83533 86.5187 5.218C86.164 5.59133 85.9494 6.13733 85.8747 6.856ZM94.6659 11.168C94.1153 11.168 93.6159 11.098 93.1679 10.958C92.7293 10.818 92.3653 10.636 92.0759 10.412L92.6079 9.362C92.8506 9.56733 93.1539 9.74 93.5179 9.88C93.8913 10.0107 94.2879 10.076 94.7079 10.076C95.2306 10.076 95.6226 9.992 95.8839 9.824C96.1546 9.64667 96.2899 9.42267 96.2899 9.152C96.2899 8.956 96.2386 8.78333 96.1359 8.634C96.0426 8.48467 95.8653 8.34 95.6039 8.2C95.3426 8.05067 94.9646 7.892 94.4699 7.724C93.7886 7.49067 93.2753 7.21533 92.9299 6.898C92.5939 6.57133 92.4259 6.12333 92.4259 5.554C92.4259 4.994 92.6686 4.52267 93.1539 4.14C93.6486 3.748 94.3299 3.552 95.1979 3.552C95.6646 3.552 96.0799 3.60333 96.4439 3.706C96.8079 3.79933 97.1346 3.92067 97.4239 4.07L97.0739 5.106C96.8219 4.95667 96.5326 4.83533 96.2059 4.742C95.8886 4.64867 95.5339 4.602 95.1419 4.602C94.6566 4.602 94.2879 4.7 94.0359 4.896C93.7839 5.092 93.6579 5.30667 93.6579 5.54C93.6579 5.764 93.7559 5.95533 93.9519 6.114C94.1479 6.27267 94.5306 6.44533 95.0999 6.632C96.0239 6.94 96.6679 7.28067 97.0319 7.654C97.3959 8.02733 97.5779 8.494 97.5779 9.054C97.5779 9.70733 97.3119 10.2253 96.7799 10.608C96.2573 10.9813 95.5526 11.168 94.6659 11.168ZM101.803 11.168C101.103 11.168 100.547 10.9393 100.137 10.482C99.7354 10.0153 99.5348 9.35267 99.5348 8.494V5.078H98.2748V3.986H99.5628L99.8288 1.69H100.795V3.986H102.811V5.078H100.795V8.592C100.795 9.13333 100.907 9.51133 101.131 9.726C101.364 9.94067 101.639 10.048 101.957 10.048C102.19 10.048 102.409 10.0107 102.615 9.936C102.829 9.86133 103.025 9.77267 103.203 9.67L103.553 10.678C103.366 10.79 103.114 10.8973 102.797 11C102.479 11.112 102.148 11.168 101.803 11.168ZM104.819 11V3.72H106.079V11H104.819ZM105.449 2.474C105.207 2.474 104.997 2.38533 104.819 2.208C104.651 2.03067 104.567 1.82533 104.567 1.592C104.567 1.32133 104.647 1.10667 104.805 0.947999C104.964 0.789333 105.179 0.71 105.449 0.71C105.692 0.71 105.897 0.798666 106.065 0.976C106.243 1.144 106.331 1.34933 106.331 1.592C106.331 1.85333 106.252 2.068 106.093 2.236C105.935 2.39467 105.72 2.474 105.449 2.474ZM110.279 11.168C109.729 11.168 109.229 11.098 108.781 10.958C108.343 10.818 107.979 10.636 107.689 10.412L108.221 9.362C108.464 9.56733 108.767 9.74 109.131 9.88C109.505 10.0107 109.901 10.076 110.321 10.076C110.844 10.076 111.236 9.992 111.497 9.824C111.768 9.64667 111.903 9.42267 111.903 9.152C111.903 8.956 111.852 8.78333 111.749 8.634C111.656 8.48467 111.479 8.34 111.217 8.2C110.956 8.05067 110.578 7.892 110.083 7.724C109.402 7.49067 108.889 7.21533 108.543 6.898C108.207 6.57133 108.039 6.12333 108.039 5.554C108.039 4.994 108.282 4.52267 108.767 4.14C109.262 3.748 109.943 3.552 110.811 3.552C111.278 3.552 111.693 3.60333 112.057 3.706C112.421 3.79933 112.748 3.92067 113.037 4.07L112.687 5.106C112.435 4.95667 112.146 4.83533 111.819 4.742C111.502 4.64867 111.147 4.602 110.755 4.602C110.27 4.602 109.901 4.7 109.649 4.896C109.397 5.092 109.271 5.30667 109.271 5.54C109.271 5.764 109.369 5.95533 109.565 6.114C109.761 6.27267 110.144 6.44533 110.713 6.632C111.637 6.94 112.281 7.28067 112.645 7.654C113.009 8.02733 113.191 8.494 113.191 9.054C113.191 9.70733 112.925 10.2253 112.393 10.608C111.871 10.9813 111.166 11.168 110.279 11.168ZM116.828 11.168C116.277 11.168 115.778 11.098 115.33 10.958C114.891 10.818 114.527 10.636 114.238 10.412L114.77 9.362C115.013 9.56733 115.316 9.74 115.68 9.88C116.053 10.0107 116.45 10.076 116.87 10.076C117.393 10.076 117.785 9.992 118.046 9.824C118.317 9.64667 118.452 9.42267 118.452 9.152C118.452 8.956 118.401 8.78333 118.298 8.634C118.205 8.48467 118.027 8.34 117.766 8.2C117.505 8.05067 117.127 7.892 116.632 7.724C115.951 7.49067 115.437 7.21533 115.092 6.898C114.756 6.57133 114.588 6.12333 114.588 5.554C114.588 4.994 114.831 4.52267 115.316 4.14C115.811 3.748 116.492 3.552 117.36 3.552C117.827 3.552 118.242 3.60333 118.606 3.706C118.97 3.79933 119.297 3.92067 119.586 4.07L119.236 5.106C118.984 4.95667 118.695 4.83533 118.368 4.742C118.051 4.64867 117.696 4.602 117.304 4.602C116.819 4.602 116.45 4.7 116.198 4.896C115.946 5.092 115.82 5.30667 115.82 5.54C115.82 5.764 115.918 5.95533 116.114 6.114C116.31 6.27267 116.693 6.44533 117.262 6.632C118.186 6.94 118.83 7.28067 119.194 7.654C119.558 8.02733 119.74 8.494 119.74 9.054C119.74 9.70733 119.474 10.2253 118.942 10.608C118.419 10.9813 117.715 11.168 116.828 11.168ZM124.329 11.168C123.284 11.168 122.453 10.8367 121.837 10.174C121.23 9.502 120.927 8.564 120.927 7.36C120.927 6.632 121.062 5.98333 121.333 5.414C121.613 4.83533 122 4.38267 122.495 4.056C122.99 3.72 123.564 3.552 124.217 3.552C124.917 3.552 125.496 3.706 125.953 4.014C126.42 4.31267 126.77 4.71867 127.003 5.232C127.236 5.74533 127.353 6.31 127.353 6.926C127.353 7.25267 127.339 7.57 127.311 7.878H122.215C122.299 8.55933 122.537 9.09133 122.929 9.474C123.321 9.85667 123.839 10.048 124.483 10.048C124.903 10.048 125.281 10.006 125.617 9.922C125.953 9.82867 126.275 9.712 126.583 9.572L126.877 10.65C126.541 10.7993 126.163 10.9207 125.743 11.014C125.323 11.1167 124.852 11.168 124.329 11.168ZM122.201 6.856H126.191C126.191 6.14667 126.014 5.60067 125.659 5.218C125.304 4.83533 124.814 4.644 124.189 4.644C123.648 4.644 123.2 4.83533 122.845 5.218C122.49 5.59133 122.276 6.13733 122.201 6.856ZM131.412 11.168C130.992 11.168 130.595 11.0793 130.222 10.902C129.849 10.7247 129.545 10.44 129.312 10.048C129.079 9.64667 128.962 9.11467 128.962 8.452V3.72H130.222V8.284C130.222 8.85333 130.343 9.292 130.586 9.6C130.829 9.89867 131.183 10.048 131.65 10.048C132.033 10.048 132.401 9.97333 132.756 9.824C133.12 9.66533 133.442 9.45533 133.722 9.194V3.72H134.982V9.11C134.982 9.51133 135.066 9.77733 135.234 9.908C135.411 10.0293 135.603 10.09 135.808 10.09L135.542 11.07C134.674 11.07 134.137 10.7247 133.932 10.034C133.605 10.37 133.227 10.6453 132.798 10.86C132.369 11.0653 131.907 11.168 131.412 11.168ZM137.481 11V3.72H138.699V5.302C138.821 4.994 138.984 4.70933 139.189 4.448C139.395 4.17733 139.651 3.96267 139.959 3.804C140.267 3.636 140.627 3.552 141.037 3.552C141.177 3.552 141.317 3.56133 141.457 3.58C141.597 3.58933 141.714 3.608 141.807 3.636L141.429 4.938C141.252 4.86333 141.042 4.826 140.799 4.826C140.454 4.826 140.123 4.924 139.805 5.12C139.497 5.316 139.241 5.61933 139.035 6.03C138.839 6.44067 138.741 6.96333 138.741 7.598V11H137.481ZM144.678 11.168C144.127 11.168 143.628 11.098 143.18 10.958C142.741 10.818 142.377 10.636 142.088 10.412L142.62 9.362C142.862 9.56733 143.166 9.74 143.53 9.88C143.903 10.0107 144.3 10.076 144.72 10.076C145.242 10.076 145.634 9.992 145.896 9.824C146.166 9.64667 146.302 9.42267 146.302 9.152C146.302 8.956 146.25 8.78333 146.148 8.634C146.054 8.48467 145.877 8.34 145.616 8.2C145.354 8.05067 144.976 7.892 144.482 7.724C143.8 7.49067 143.287 7.21533 142.942 6.898C142.606 6.57133 142.438 6.12333 142.438 5.554C142.438 4.994 142.68 4.52267 143.166 4.14C143.66 3.748 144.342 3.552 145.21 3.552C145.676 3.552 146.092 3.60333 146.456 3.706C146.82 3.79933 147.146 3.92067 147.436 4.07L147.086 5.106C146.834 4.95667 146.544 4.83533 146.218 4.742C145.9 4.64867 145.546 4.602 145.154 4.602C144.668 4.602 144.3 4.7 144.048 4.896C143.796 5.092 143.67 5.30667 143.67 5.54C143.67 5.764 143.768 5.95533 143.964 6.114C144.16 6.27267 144.542 6.44533 145.112 6.632C146.036 6.94 146.68 7.28067 147.044 7.654C147.408 8.02733 147.59 8.494 147.59 9.054C147.59 9.70733 147.324 10.2253 146.792 10.608C146.269 10.9813 145.564 11.168 144.678 11.168Z" fill="#999999"/>
</svg>
