<svg width="180" height="26" viewBox="0 0 180 26" fill="none" xmlns="http://www.w3.org/2000/svg">
<path fill-rule="evenodd" clip-rule="evenodd" d="M24.2913 0H1.42299C0.636162 0 0 0.636162 0 1.42299V24.2913C0 25.0782 0.636162 25.7143 1.42299 25.7143H13.7277V15.7534H10.3795V11.8694H13.7277V9.00671C13.7277 5.69197 15.7701 3.88393 18.7333 3.88393C20.1395 3.88393 21.3616 3.98438 21.7132 4.0346V7.50001L19.6708 7.51675C18.0469 7.51675 17.7456 8.2701 17.7456 9.39175V11.8694H21.5793L21.077 15.7534H17.7456V25.7143H24.2913C25.0782 25.7143 25.7143 25.0782 25.7143 24.2913V1.42299C25.7143 0.636162 25.0782 0 24.2913 0V0Z" fill="#999999"/>
<path fill-rule="evenodd" clip-rule="evenodd" d="M66.8583 12.8582C66.8583 15.2187 64.9331 17.1439 62.5726 17.1439C60.2121 17.1439 58.2868 15.2187 58.2868 12.8582C58.2868 10.4977 60.2121 8.57248 62.5726 8.57248C64.9331 8.57248 66.8583 10.4977 66.8583 12.8582V12.8582ZM69.1686 12.8582C69.1686 9.20865 66.2221 6.26221 62.5726 6.26221C58.923 6.26221 55.9766 9.20865 55.9766 12.8582C55.9766 16.5078 58.923 19.4542 62.5726 19.4542C66.2221 19.4542 69.1686 16.5078 69.1686 12.8582V12.8582ZM70.9766 5.99436C70.9766 5.14056 70.2902 4.45418 69.4364 4.45418C68.5826 4.45418 67.8962 5.14056 67.8962 5.99436C67.8962 6.84815 68.5826 7.53454 69.4364 7.53454C70.2902 7.53454 70.9766 6.84815 70.9766 5.99436V5.99436ZM62.5726 2.31132C64.4476 2.31132 68.4654 2.16065 70.1563 2.83029C70.7422 3.06467 71.1775 3.34926 71.6295 3.80127C72.0815 4.25328 72.3661 4.68855 72.6005 5.27449C73.2701 6.96534 73.1194 10.9832 73.1194 12.8582C73.1194 14.7332 73.2701 18.7511 72.6005 20.4419C72.3661 21.0279 72.0815 21.4631 71.6295 21.9151C71.1775 22.3671 70.7422 22.6517 70.1563 22.8861C68.4654 23.5558 64.4476 23.4051 62.5726 23.4051C60.6976 23.4051 56.6797 23.5558 54.9888 22.8861C54.4029 22.6517 53.9676 22.3671 53.5156 21.9151C53.0636 21.4631 52.779 21.0279 52.5446 20.4419C51.875 18.7511 52.0257 14.7332 52.0257 12.8582C52.0257 10.9832 51.875 6.96534 52.5446 5.27449C52.779 4.68855 53.0636 4.25328 53.5156 3.80127C53.9676 3.34926 54.4029 3.06467 54.9888 2.83029C56.6797 2.16065 60.6976 2.31132 62.5726 2.31132V2.31132ZM75.4297 12.8582C75.4297 11.0836 75.4465 9.32583 75.346 7.55128C75.2456 5.49212 74.7768 3.66735 73.2701 2.16065C71.7634 0.653949 69.9386 0.185198 67.8795 0.0847518C66.1049 -0.0156948 64.3471 0.00104632 62.5726 0.00104632C60.798 0.00104632 59.0402 -0.0156948 57.2656 0.0847518C55.2065 0.185198 53.3817 0.653949 51.875 2.16065C50.3683 3.66735 49.8996 5.49212 49.7991 7.55128C49.6987 9.32583 49.7154 11.0836 49.7154 12.8582C49.7154 14.6328 49.6987 16.3906 49.7991 18.1651C49.8996 20.2243 50.3683 22.0491 51.875 23.5558C53.3817 25.0625 55.2065 25.5312 57.2656 25.6317C59.0402 25.7321 60.798 25.7154 62.5726 25.7154C64.3471 25.7154 66.1049 25.7321 67.8795 25.6317C69.9386 25.5312 71.7634 25.0625 73.2701 23.5558C74.7768 22.0491 75.2456 20.2243 75.346 18.1651C75.4465 16.3906 75.4297 14.6328 75.4297 12.8582V12.8582Z" fill="#999999"/>
<path fill-rule="evenodd" clip-rule="evenodd" d="M125.815 4.54465C124.844 4.96317 123.789 5.26451 122.701 5.3817C123.822 4.71206 124.676 3.65737 125.078 2.40179C124.04 3.02121 122.868 3.47322 121.646 3.70759C120.658 2.6529 119.252 2 117.695 2C114.699 2 112.288 4.42746 112.288 7.40737C112.288 7.8259 112.338 8.24443 112.422 8.64621C107.935 8.41184 103.934 6.26898 101.272 2.98772C100.803 3.7913 100.536 4.71206 100.536 5.71652C100.536 7.59152 101.49 9.24889 102.946 10.2199C102.059 10.1864 101.222 9.93528 100.502 9.53349C100.502 9.55023 100.502 9.58371 100.502 9.60046C100.502 12.2288 102.36 14.4051 104.838 14.9074C104.386 15.0246 103.901 15.0915 103.415 15.0915C103.063 15.0915 102.729 15.0581 102.394 15.0078C103.08 17.1507 105.072 18.7076 107.45 18.7578C105.591 20.2143 103.264 21.0681 100.736 21.0681C100.284 21.0681 99.8659 21.0514 99.4307 21.0011C101.825 22.5413 104.671 23.4286 107.734 23.4286C117.678 23.4286 123.119 15.192 123.119 8.04353C123.119 7.80916 123.119 7.57478 123.103 7.34041C124.157 6.57032 125.078 5.61608 125.815 4.54465V4.54465Z" fill="#999999"/>
<path fill-rule="evenodd" clip-rule="evenodd" d="M179.381 6.81445C179.495 8.85353 179.551 10.8737 179.551 12.875C179.551 14.8763 179.495 16.8965 179.381 18.9355C179.381 20.2194 178.975 21.305 178.164 22.1924C177.352 23.0798 176.361 23.5234 175.19 23.5234C172.282 23.6745 168.903 23.75 165.051 23.75C161.2 23.75 157.82 23.6745 154.913 23.5234C153.742 23.5234 152.751 23.0798 151.939 22.1924C151.127 21.305 150.721 20.2194 150.721 18.9355C150.608 16.8965 150.551 14.8763 150.551 12.875C150.551 11.5534 150.627 9.53322 150.778 6.81445C150.778 5.53059 151.174 4.44499 151.967 3.55762C152.76 2.67024 153.742 2.22656 154.913 2.22656C157.669 2.07552 160.879 2 164.542 2H165.051H165.561C169.224 2 172.433 2.07552 175.19 2.22656C176.361 2.22656 177.352 2.67024 178.164 3.55762C178.975 4.44499 179.381 5.53059 179.381 6.81445V6.81445ZM162.276 18.4258L170.489 12.875L162.276 7.26758V18.4258Z" fill="#999999"/>
</svg>
