<svg width="126" height="11" viewBox="0 0 126 11" fill="none" xmlns="http://www.w3.org/2000/svg">
<path d="M4.23685 9.132C3.41552 9.132 2.71885 8.95967 2.14685 8.615C1.57485 8.27033 1.14218 7.79733 0.848852 7.196C0.555518 6.59467 0.408852 5.91267 0.408852 5.15C0.408852 4.40933 0.559185 3.73833 0.859852 3.137C1.16052 2.53567 1.59685 2.059 2.16885 1.707C2.74085 1.34767 3.43385 1.168 4.24785 1.168C5.07652 1.168 5.77319 1.34033 6.33785 1.685C6.90985 2.02967 7.34252 2.50267 7.63585 3.104C7.93652 3.70533 8.08685 4.38733 8.08685 5.15C8.08685 5.88333 7.93652 6.55433 7.63585 7.163C7.33519 7.76433 6.89518 8.24467 6.31585 8.604C5.74385 8.956 5.05085 9.132 4.23685 9.132ZM4.24785 8.439C4.90785 8.439 5.46152 8.29967 5.90885 8.021C6.36352 7.735 6.70452 7.34633 6.93185 6.855C7.16652 6.35633 7.28385 5.788 7.28385 5.15C7.28385 4.50467 7.16652 3.93633 6.93185 3.445C6.69719 2.95367 6.35252 2.56867 5.89785 2.29C5.45052 2.004 4.90052 1.861 4.24785 1.861C3.59519 1.861 3.04152 2.004 2.58685 2.29C2.13219 2.56867 1.78752 2.95733 1.55285 3.456C1.32552 3.94733 1.21185 4.512 1.21185 5.15C1.21185 5.788 1.32919 6.35633 1.56385 6.855C1.79852 7.34633 2.13952 7.735 2.58685 8.021C3.04152 8.29967 3.59519 8.439 4.24785 8.439ZM4.39085 7.614C3.97285 7.614 3.60252 7.515 3.27985 7.317C2.95719 7.119 2.70419 6.83667 2.52085 6.47C2.33752 6.096 2.24585 5.656 2.24585 5.15C2.24585 4.65867 2.33752 4.226 2.52085 3.852C2.70419 3.47067 2.96452 3.17367 3.30185 2.961C3.63919 2.74833 4.03152 2.642 4.47885 2.642C4.71352 2.642 4.93352 2.66767 5.13885 2.719C5.35152 2.77033 5.55685 2.84367 5.75485 2.939L5.44685 3.753C5.29285 3.67233 5.13519 3.61 4.97385 3.566C4.81985 3.51467 4.65119 3.489 4.46785 3.489C4.09385 3.489 3.78585 3.632 3.54385 3.918C3.30185 4.19667 3.18085 4.59633 3.18085 5.117C3.18085 5.61567 3.30185 6.01533 3.54385 6.316C3.78585 6.61667 4.09385 6.767 4.46785 6.767C4.66585 6.767 4.84919 6.73767 5.01785 6.679C5.18652 6.613 5.36252 6.52867 5.54585 6.426L5.83185 7.229C5.63385 7.34633 5.41385 7.44167 5.17185 7.515C4.93719 7.581 4.67685 7.614 4.39085 7.614ZM14.084 9V8.12H15.657V2.565L14.183 3.676L13.644 2.939L15.921 1.3H16.647V8.12H17.956V9H14.084ZM21.9997 9.132C21.5744 9.132 21.193 9.05867 20.8557 8.912C20.5184 8.758 20.2104 8.54533 19.9317 8.274L20.5807 7.537C21.0207 7.999 21.512 8.23 22.0547 8.23C22.3554 8.23 22.634 8.131 22.8907 7.933C23.1474 7.72767 23.3527 7.40867 23.5067 6.976C23.668 6.54333 23.7487 5.986 23.7487 5.304C23.5214 5.50933 23.2684 5.68167 22.9897 5.821C22.711 5.96033 22.4104 6.03 22.0877 6.03C21.699 6.03 21.3287 5.942 20.9767 5.766C20.632 5.58267 20.3497 5.31867 20.1297 4.974C19.917 4.622 19.8107 4.18933 19.8107 3.676C19.8107 3.214 19.9134 2.79233 20.1187 2.411C20.3314 2.02967 20.6247 1.729 20.9987 1.509C21.3727 1.28167 21.8054 1.168 22.2967 1.168C22.678 1.168 23.0044 1.22667 23.2757 1.344C23.547 1.46133 23.7744 1.61533 23.9577 1.806C24.1337 1.98933 24.2804 2.20567 24.3977 2.455C24.5224 2.697 24.614 3.01967 24.6727 3.423C24.7314 3.819 24.7607 4.336 24.7607 4.974C24.7607 5.94933 24.6397 6.745 24.3977 7.361C24.1557 7.96967 23.8257 8.417 23.4077 8.703C22.997 8.989 22.5277 9.132 21.9997 9.132ZM22.2527 5.216C22.5314 5.216 22.799 5.14633 23.0557 5.007C23.3197 4.86767 23.5507 4.699 23.7487 4.501V4.171C23.7487 3.47433 23.613 2.94633 23.3417 2.587C23.0777 2.22767 22.7184 2.048 22.2637 2.048C21.8457 2.048 21.49 2.19467 21.1967 2.488C20.9107 2.774 20.7677 3.15533 20.7677 3.632C20.7677 3.962 20.8374 4.248 20.9767 4.49C21.116 4.72467 21.2957 4.90433 21.5157 5.029C21.743 5.15367 21.9887 5.216 22.2527 5.216ZM28.5954 9.132C28.1701 9.132 27.7887 9.05867 27.4514 8.912C27.1141 8.758 26.8061 8.54533 26.5274 8.274L27.1764 7.537C27.6164 7.999 28.1077 8.23 28.6504 8.23C28.9511 8.23 29.2297 8.131 29.4864 7.933C29.7431 7.72767 29.9484 7.40867 30.1024 6.976C30.2637 6.54333 30.3444 5.986 30.3444 5.304C30.1171 5.50933 29.8641 5.68167 29.5854 5.821C29.3067 5.96033 29.0061 6.03 28.6834 6.03C28.2947 6.03 27.9244 5.942 27.5724 5.766C27.2277 5.58267 26.9454 5.31867 26.7254 4.974C26.5127 4.622 26.4064 4.18933 26.4064 3.676C26.4064 3.214 26.5091 2.79233 26.7144 2.411C26.9271 2.02967 27.2204 1.729 27.5944 1.509C27.9684 1.28167 28.4011 1.168 28.8924 1.168C29.2737 1.168 29.6001 1.22667 29.8714 1.344C30.1427 1.46133 30.3701 1.61533 30.5534 1.806C30.7294 1.98933 30.8761 2.20567 30.9934 2.455C31.1181 2.697 31.2097 3.01967 31.2684 3.423C31.3271 3.819 31.3564 4.336 31.3564 4.974C31.3564 5.94933 31.2354 6.745 30.9934 7.361C30.7514 7.96967 30.4214 8.417 30.0034 8.703C29.5927 8.989 29.1234 9.132 28.5954 9.132ZM28.8484 5.216C29.1271 5.216 29.3947 5.14633 29.6514 5.007C29.9154 4.86767 30.1464 4.699 30.3444 4.501V4.171C30.3444 3.47433 30.2087 2.94633 29.9374 2.587C29.6734 2.22767 29.3141 2.048 28.8594 2.048C28.4414 2.048 28.0857 2.19467 27.7924 2.488C27.5064 2.774 27.3634 3.15533 27.3634 3.632C27.3634 3.962 27.4331 4.248 27.5724 4.49C27.7117 4.72467 27.8914 4.90433 28.1114 5.029C28.3387 5.15367 28.5844 5.216 28.8484 5.216ZM34.4321 9C34.4321 8.15667 34.4871 7.40867 34.5971 6.756C34.7144 6.096 34.8794 5.502 35.0921 4.974C35.3121 4.446 35.5834 3.95833 35.9061 3.511C36.2288 3.06367 36.5991 2.62733 37.0171 2.202H33.3101V1.3H38.1941V2.092C37.6881 2.58333 37.2664 3.06367 36.9291 3.533C36.5918 3.995 36.3204 4.48633 36.1151 5.007C35.9098 5.52033 35.7631 6.10333 35.6751 6.756C35.5871 7.40133 35.5431 8.14933 35.5431 9H34.4321ZM40.3128 5.678V4.776H44.0528V5.678H40.3128ZM46.4465 9C46.4245 8.868 46.4135 8.73233 46.4135 8.593C46.4135 8.11633 46.4942 7.691 46.6555 7.317C46.8242 6.93567 47.0405 6.591 47.3045 6.283C47.5685 5.96767 47.8472 5.678 48.1405 5.414C48.4412 5.14267 48.7198 4.886 48.9765 4.644C49.2405 4.39467 49.4568 4.14533 49.6255 3.896C49.7942 3.64667 49.8785 3.38633 49.8785 3.115C49.8785 2.807 49.7648 2.554 49.5375 2.356C49.3102 2.15067 49.0168 2.048 48.6575 2.048C48.3495 2.048 48.0672 2.11033 47.8105 2.235C47.5612 2.35233 47.3265 2.51367 47.1065 2.719L46.5565 2.048C46.8498 1.784 47.1725 1.57133 47.5245 1.41C47.8838 1.24867 48.2982 1.168 48.7675 1.168C49.2002 1.168 49.5778 1.25233 49.9005 1.421C50.2232 1.58233 50.4725 1.806 50.6485 2.092C50.8318 2.378 50.9235 2.697 50.9235 3.049C50.9235 3.401 50.8465 3.72733 50.6925 4.028C50.5385 4.32867 50.3405 4.611 50.0985 4.875C49.8565 5.139 49.5962 5.39567 49.3175 5.645C49.0388 5.887 48.7712 6.13633 48.5145 6.393C48.2578 6.64967 48.0378 6.91733 47.8545 7.196C47.6785 7.47467 47.5685 7.77533 47.5245 8.098H50.9125V9H46.4465ZM55.3632 9.132C54.5052 9.132 53.8526 8.78367 53.4052 8.087C52.9579 7.383 52.7342 6.40033 52.7342 5.139C52.7342 3.87033 52.9616 2.89133 53.4162 2.202C53.8782 1.51267 54.5346 1.168 55.3852 1.168C56.2432 1.168 56.8959 1.51633 57.3432 2.213C57.7906 2.90967 58.0142 3.89233 58.0142 5.161C58.0142 6.42967 57.7832 7.40867 57.3212 8.098C56.8666 8.78733 56.2139 9.132 55.3632 9.132ZM55.3742 8.23C55.7042 8.23 55.9866 8.13467 56.2212 7.944C56.4632 7.746 56.6466 7.42333 56.7712 6.976C56.9032 6.52867 56.9692 5.92733 56.9692 5.172C56.9692 4.16 56.8262 3.39 56.5402 2.862C56.2616 2.334 55.8729 2.07 55.3742 2.07C55.0442 2.07 54.7582 2.169 54.5162 2.367C54.2816 2.55767 54.0982 2.87667 53.9662 3.324C53.8416 3.764 53.7792 4.36533 53.7792 5.128C53.7792 6.14 53.9186 6.91 54.1972 7.438C54.4832 7.966 54.8756 8.23 55.3742 8.23ZM60.2539 9V8.12H61.8269V2.565L60.3529 3.676L59.8139 2.939L62.0909 1.3H62.8169V8.12H64.1259V9H60.2539ZM68.6206 9.132C68.0633 9.132 67.5793 9.03667 67.1686 8.846C66.758 8.65533 66.439 8.39867 66.2116 8.076C65.9916 7.746 65.8816 7.383 65.8816 6.987C65.8816 6.51033 66.01 6.096 66.2666 5.744C66.5306 5.392 66.9413 5.095 67.4986 4.853C67.11 4.64033 66.8093 4.39467 66.5966 4.116C66.3913 3.83 66.2886 3.478 66.2886 3.06C66.2886 2.686 66.3876 2.35967 66.5856 2.081C66.7836 1.795 67.0513 1.57133 67.3886 1.41C67.7333 1.24867 68.1146 1.168 68.5326 1.168C68.9873 1.168 69.387 1.25233 69.7316 1.421C70.0763 1.58233 70.344 1.806 70.5346 2.092C70.7326 2.378 70.8316 2.697 70.8316 3.049C70.8316 3.49633 70.718 3.85933 70.4906 4.138C70.2633 4.41667 69.959 4.65133 69.5776 4.842C70.1203 5.06933 70.5346 5.35533 70.8206 5.7C71.1066 6.03733 71.2496 6.44433 71.2496 6.921C71.2496 7.361 71.136 7.74967 70.9086 8.087C70.6813 8.417 70.3696 8.67367 69.9736 8.857C69.5776 9.04033 69.1266 9.132 68.6206 9.132ZM68.6756 4.479C68.9983 4.369 69.277 4.20033 69.5116 3.973C69.7536 3.74567 69.8746 3.47067 69.8746 3.148C69.8746 2.81067 69.7463 2.532 69.4896 2.312C69.233 2.092 68.914 1.982 68.5326 1.982C68.1586 1.982 67.8506 2.081 67.6086 2.279C67.3666 2.46967 67.2456 2.72267 67.2456 3.038C67.2456 3.35333 67.374 3.63933 67.6306 3.896C67.8946 4.15267 68.243 4.347 68.6756 4.479ZM68.6316 8.252C69.101 8.252 69.486 8.131 69.7866 7.889C70.0873 7.63967 70.2376 7.32433 70.2376 6.943C70.2376 6.591 70.08 6.27567 69.7646 5.997C69.4566 5.71833 69.0276 5.48 68.4776 5.282C68.199 5.348 67.9386 5.45067 67.6966 5.59C67.4546 5.72933 67.2603 5.90167 67.1136 6.107C66.967 6.31233 66.8936 6.547 66.8936 6.811C66.8936 7.08233 66.967 7.328 67.1136 7.548C67.2676 7.768 67.4766 7.94033 67.7406 8.065C68.0046 8.18967 68.3016 8.252 68.6316 8.252ZM76.1492 9V1.3H77.5352L80.9342 7.702V1.3H81.9242V9H80.5602L77.1392 2.642V9H76.1492ZM86.083 9.132C85.2617 9.132 84.609 8.87167 84.125 8.351C83.6484 7.823 83.41 7.086 83.41 6.14C83.41 5.568 83.5164 5.05833 83.729 4.611C83.949 4.15633 84.2534 3.80067 84.642 3.544C85.0307 3.28 85.4817 3.148 85.995 3.148C86.545 3.148 86.9997 3.269 87.359 3.511C87.7257 3.74567 88.0007 4.06467 88.184 4.468C88.3674 4.87133 88.459 5.315 88.459 5.799C88.459 6.05567 88.448 6.305 88.426 6.547H84.422C84.488 7.08233 84.675 7.50033 84.983 7.801C85.291 8.10167 85.698 8.252 86.204 8.252C86.534 8.252 86.831 8.219 87.095 8.153C87.359 8.07967 87.612 7.988 87.854 7.878L88.085 8.725C87.821 8.84233 87.524 8.93767 87.194 9.011C86.864 9.09167 86.4937 9.132 86.083 9.132ZM84.411 5.744H87.546C87.546 5.18667 87.4067 4.75767 87.128 4.457C86.8494 4.15633 86.4644 4.006 85.973 4.006C85.5477 4.006 85.1957 4.15633 84.917 4.457C84.6384 4.75033 84.4697 5.17933 84.411 5.744ZM91.7804 9.132C91.2304 9.132 90.7941 8.95233 90.4714 8.593C90.1561 8.22633 89.9984 7.70567 89.9984 7.031V4.347H89.0084V3.489H90.0204L90.2294 1.685H90.9884V3.489H92.5724V4.347H90.9884V7.108C90.9884 7.53333 91.0764 7.83033 91.2524 7.999C91.4358 8.16767 91.6521 8.252 91.9014 8.252C92.0848 8.252 92.2571 8.22267 92.4184 8.164C92.5871 8.10533 92.7411 8.03567 92.8804 7.955L93.1554 8.747C93.0088 8.835 92.8108 8.91933 92.5614 9C92.3121 9.088 92.0518 9.132 91.7804 9.132ZM94.2605 9V4.347H93.3805V3.489H94.2605V2.818C94.2605 2.17267 94.4402 1.663 94.7995 1.289C95.1588 0.915 95.6282 0.728 96.2075 0.728C96.5082 0.728 96.7722 0.764666 96.9995 0.838C97.2268 0.904 97.4432 0.988333 97.6485 1.091L97.3515 1.927C97.1975 1.84633 97.0325 1.773 96.8565 1.707C96.6805 1.641 96.4862 1.608 96.2735 1.608C95.9655 1.608 95.7162 1.707 95.5255 1.905C95.3422 2.09567 95.2505 2.378 95.2505 2.752V3.489H96.9445V4.347H95.2505V9H94.2605ZM99.7127 9.132C99.3754 9.132 99.0711 9.06967 98.7997 8.945C98.5284 8.813 98.3121 8.604 98.1507 8.318C97.9967 8.032 97.9197 7.66167 97.9197 7.207V0.86H98.9097V7.108C98.9097 7.504 98.9904 7.79733 99.1517 7.988C99.3204 8.17867 99.5514 8.274 99.8447 8.274C99.9841 8.274 100.12 8.25933 100.252 8.23C100.391 8.19333 100.508 8.153 100.604 8.109L100.846 8.912C100.714 8.97067 100.549 9.022 100.351 9.066C100.16 9.11 99.9474 9.132 99.7127 9.132ZM101.777 9V3.28H102.767V9H101.777ZM102.272 2.301C102.082 2.301 101.917 2.23133 101.777 2.092C101.645 1.95267 101.579 1.79133 101.579 1.608C101.579 1.39533 101.642 1.22667 101.766 1.102C101.891 0.977333 102.06 0.915 102.272 0.915C102.463 0.915 102.624 0.984666 102.756 1.124C102.896 1.256 102.965 1.41733 102.965 1.608C102.965 1.81333 102.903 1.982 102.778 2.114C102.654 2.23867 102.485 2.301 102.272 2.301ZM108.289 9.099L106.364 6.712L104.461 9.077L103.757 8.461L105.792 6.096L103.834 3.83L104.604 3.159L106.375 5.447L108.113 3.203L108.85 3.83L106.947 6.052L109.037 8.461L108.289 9.099ZM110.016 10.76L109.477 10.452C109.771 10.078 110.005 9.70033 110.181 9.319C110.365 8.93767 110.504 8.50133 110.599 8.01L111.567 8.285C111.494 8.84233 111.318 9.33 111.039 9.748C110.768 10.166 110.427 10.5033 110.016 10.76ZM116.733 9V1.3H117.778V9H116.733ZM119.652 9V3.28H120.609V4.237C120.815 3.929 121.075 3.67233 121.39 3.467C121.713 3.25433 122.094 3.148 122.534 3.148C123.18 3.148 123.66 3.34233 123.975 3.731C124.298 4.11967 124.459 4.633 124.459 5.271V9H123.469V5.381C123.469 4.97033 123.37 4.64033 123.172 4.391C122.982 4.14167 122.714 4.017 122.369 4.017C122.032 4.017 121.713 4.138 121.412 4.38C121.112 4.61467 120.855 4.89333 120.642 5.216V9H119.652ZM128.472 9.132C127.93 9.132 127.453 9.00733 127.042 8.758C126.639 8.50133 126.327 8.14933 126.107 7.702C125.887 7.24733 125.777 6.72667 125.777 6.14C125.777 5.59 125.887 5.08767 126.107 4.633C126.335 4.17833 126.657 3.819 127.075 3.555C127.493 3.28367 127.985 3.148 128.549 3.148C128.872 3.148 129.154 3.17733 129.396 3.236C129.646 3.29467 129.884 3.379 130.111 3.489L129.814 4.325C129.609 4.22233 129.411 4.149 129.22 4.105C129.037 4.05367 128.832 4.028 128.604 4.028C128.091 4.028 127.658 4.215 127.306 4.589C126.962 4.95567 126.789 5.46533 126.789 6.118C126.789 6.514 126.863 6.87333 127.009 7.196C127.156 7.51867 127.358 7.77533 127.614 7.966C127.878 8.15667 128.186 8.252 128.538 8.252C128.817 8.252 129.055 8.22267 129.253 8.164C129.451 8.098 129.664 8.00633 129.891 7.889L130.199 8.725C129.972 8.84967 129.715 8.94867 129.429 9.022C129.151 9.09533 128.832 9.132 128.472 9.132ZM132.121 9.132C131.923 9.132 131.75 9.05867 131.604 8.912C131.457 8.76533 131.384 8.593 131.384 8.395C131.384 8.16767 131.45 7.988 131.582 7.856C131.714 7.724 131.893 7.658 132.121 7.658C132.311 7.658 132.48 7.73133 132.627 7.878C132.781 8.02467 132.858 8.197 132.858 8.395C132.858 8.615 132.788 8.79467 132.649 8.934C132.509 9.066 132.333 9.132 132.121 9.132Z" fill="#999999"/>
</svg>
