<svg width="59" height="16" viewBox="0 0 59 16" fill="none" xmlns="http://www.w3.org/2000/svg">
<path d="M11.42 15.2L9.86 11.2H3.38L1.82 15.16L0.2 14.5L5.68 0.999999H7.76L13.16 14.5L11.42 15.2ZM3.98 9.6H9.24L6.62 2.88L3.98 9.6ZM19.1594 15.24C18.1727 15.24 17.306 15.0133 16.5594 14.56C15.826 14.0933 15.2594 13.4533 14.8594 12.64C14.4594 11.8133 14.2594 10.8667 14.2594 9.8C14.2594 8.8 14.4594 7.88667 14.8594 7.06C15.2727 6.23333 15.8594 5.58 16.6194 5.1C17.3794 4.60667 18.2727 4.36 19.2994 4.36C19.886 4.36 20.3994 4.41333 20.8394 4.52C21.2927 4.62667 21.726 4.78 22.1394 4.98L21.5994 6.5C21.226 6.31333 20.866 6.18 20.5194 6.1C20.186 6.00667 19.8127 5.96 19.3994 5.96C18.466 5.96 17.6794 6.3 17.0394 6.98C16.4127 7.64667 16.0994 8.57333 16.0994 9.76C16.0994 10.48 16.2327 11.1333 16.4994 11.72C16.766 12.3067 17.1327 12.7733 17.5994 13.12C18.0794 13.4667 18.6394 13.64 19.2794 13.64C19.786 13.64 20.2194 13.5867 20.5794 13.48C20.9394 13.36 21.326 13.1933 21.7394 12.98L22.2994 14.5C21.886 14.7267 21.4194 14.9067 20.8994 15.04C20.3927 15.1733 19.8127 15.24 19.1594 15.24ZM28.033 15.24C27.033 15.24 26.2396 14.9133 25.653 14.26C25.0796 13.5933 24.793 12.6467 24.793 11.42V6.54H22.993V4.98H24.833L25.213 1.7H26.593V4.98H29.473V6.54H26.593V11.56C26.593 12.3333 26.753 12.8733 27.073 13.18C27.4063 13.4867 27.7996 13.64 28.253 13.64C28.5863 13.64 28.8996 13.5867 29.193 13.48C29.4996 13.3733 29.7796 13.2467 30.033 13.1L30.533 14.54C30.2663 14.7 29.9063 14.8533 29.453 15C28.9996 15.16 28.5263 15.24 28.033 15.24ZM32.3422 15V4.6H34.1422V15H32.3422ZM33.2422 2.82C32.8955 2.82 32.5955 2.69333 32.3422 2.44C32.1022 2.18667 31.9822 1.89333 31.9822 1.56C31.9822 1.17333 32.0955 0.866666 32.3222 0.639999C32.5489 0.413333 32.8555 0.3 33.2422 0.3C33.5889 0.3 33.8822 0.426666 34.1222 0.68C34.3755 0.92 34.5022 1.21333 34.5022 1.56C34.5022 1.93333 34.3889 2.24 34.1622 2.48C33.9355 2.70667 33.6289 2.82 33.2422 2.82ZM41.7222 15.24C40.7355 15.24 39.8489 15.0133 39.0622 14.56C38.2755 14.0933 37.6555 13.4533 37.2022 12.64C36.7622 11.8133 36.5422 10.8667 36.5422 9.8C36.5422 8.68 36.7689 7.71333 37.2222 6.9C37.6755 6.08667 38.2955 5.46 39.0822 5.02C39.8689 4.58 40.7489 4.36 41.7222 4.36C42.6955 4.36 43.5689 4.58 44.3422 5.02C45.1289 5.46 45.7489 6.08667 46.2022 6.9C46.6689 7.7 46.9022 8.65333 46.9022 9.76C46.9022 10.8667 46.6755 11.8333 46.2222 12.66C45.7689 13.4733 45.1489 14.1067 44.3622 14.56C43.5889 15.0133 42.7089 15.24 41.7222 15.24ZM41.7222 13.64C42.7755 13.64 43.5955 13.2867 44.1822 12.58C44.7689 11.86 45.0622 10.9333 45.0622 9.8C45.0622 9.10667 44.9155 8.47333 44.6222 7.9C44.3289 7.31333 43.9289 6.84667 43.4222 6.5C42.9289 6.14 42.3622 5.96 41.7222 5.96C40.6689 5.96 39.8489 6.30667 39.2622 7C38.6755 7.69333 38.3822 8.61333 38.3822 9.76C38.3822 10.4533 38.5289 11.1 38.8222 11.7C39.1155 12.2867 39.5089 12.76 40.0022 13.12C40.5089 13.4667 41.0822 13.64 41.7222 13.64ZM49.2953 15V4.6H51.0353V6.34C51.4086 5.78 51.882 5.31333 52.4553 4.94C53.042 4.55333 53.7353 4.36 54.5353 4.36C55.7086 4.36 56.582 4.71333 57.1553 5.42C57.742 6.12667 58.0353 7.06 58.0353 8.22V15H56.2353V8.42C56.2353 7.67333 56.0553 7.07333 55.6953 6.62C55.3486 6.16667 54.862 5.94 54.2353 5.94C53.622 5.94 53.042 6.16 52.4953 6.6C51.9486 7.02667 51.482 7.53333 51.0953 8.12V15H49.2953Z" fill="white"/>
</svg>
