<svg width="407" height="21" viewBox="0 0 407 21" fill="none" xmlns="http://www.w3.org/2000/svg">
<path d="M0.8 16V2H2.7V14.3H9.12V16H0.8ZM9.33328 5.96L8.87328 5.26C9.56661 4.78 9.97995 4.17333 10.1133 3.44C9.99328 3.49333 9.85328 3.52 9.69328 3.52C9.31995 3.52 9.01328 3.4 8.77328 3.16C8.53328 2.92 8.41328 2.61333 8.41328 2.24C8.41328 1.85333 8.53995 1.54667 8.79328 1.32C9.04661 1.08 9.36661 0.959999 9.75328 0.959999C10.2199 0.959999 10.5999 1.11333 10.8933 1.42C11.1999 1.72667 11.3533 2.16667 11.3533 2.74C11.3533 3.35333 11.1733 3.96 10.8133 4.56C10.4666 5.14667 9.97328 5.61333 9.33328 5.96ZM17.7245 16.24C16.8579 16.24 16.0712 16.02 15.3645 15.58C14.6579 15.14 14.0912 14.52 13.6645 13.72C13.2512 12.9067 13.0445 11.9533 13.0445 10.86C13.0445 9.82 13.2512 8.88667 13.6645 8.06C14.0912 7.23333 14.6712 6.58 15.4045 6.1C16.1512 5.60667 17.0045 5.36 17.9645 5.36C18.5645 5.36 19.1045 5.46667 19.5845 5.68C20.0779 5.88 20.5045 6.13333 20.8645 6.44V5.6H22.5045V13.48C22.5045 13.9867 22.6245 14.32 22.8645 14.48C23.1179 14.6267 23.3912 14.7 23.6845 14.7L23.3045 16.1C22.0245 16.1 21.2512 15.58 20.9845 14.54C20.6779 14.9667 20.2579 15.36 19.7245 15.72C19.2045 16.0667 18.5379 16.24 17.7245 16.24ZM18.1245 14.64C18.6312 14.64 19.1112 14.52 19.5645 14.28C20.0179 14.0267 20.3979 13.7133 20.7045 13.34V7.76C20.3445 7.50667 19.9445 7.30667 19.5045 7.16C19.0779 7 18.6245 6.92 18.1445 6.92C17.5045 6.92 16.9379 7.08667 16.4445 7.42C15.9645 7.74 15.5845 8.19333 15.3045 8.78C15.0245 9.35333 14.8845 10.0267 14.8845 10.8C14.8845 11.5467 15.0245 12.2133 15.3045 12.8C15.5845 13.3733 15.9712 13.8267 16.4645 14.16C16.9579 14.48 17.5112 14.64 18.1245 14.64ZM15.7045 4.56L14.7645 3.08L17.6845 1.2H18.9645L21.8845 3.08L20.9445 4.56L18.3245 2.46L15.7045 4.56ZM29.713 20.64C29.0996 20.64 28.4996 20.5667 27.913 20.42C27.3396 20.2733 26.8263 20.0533 26.373 19.76L27.033 18.2C27.353 18.4533 27.7263 18.66 28.153 18.82C28.5796 18.9933 29.0996 19.08 29.713 19.08C30.6596 19.08 31.3996 18.8267 31.933 18.32C32.4796 17.8267 32.753 17.0333 32.753 15.94V14.66C32.4863 14.98 32.0996 15.2867 31.593 15.58C31.0996 15.86 30.5063 16 29.813 16C29.0263 16 28.2796 15.8 27.573 15.4C26.8663 14.9867 26.293 14.3867 25.853 13.6C25.413 12.8133 25.193 11.8667 25.193 10.76C25.193 9.72 25.4063 8.79333 25.833 7.98C26.273 7.16667 26.8596 6.52667 27.593 6.06C28.3263 5.59333 29.133 5.36 30.013 5.36C30.5996 5.36 31.133 5.46 31.613 5.66C32.093 5.86 32.5063 6.10667 32.853 6.4V5.6H34.493V15.76C34.493 16.9067 34.293 17.84 33.893 18.56C33.493 19.28 32.933 19.8067 32.213 20.14C31.5063 20.4733 30.673 20.64 29.713 20.64ZM30.213 14.4C30.7463 14.4 31.2263 14.28 31.653 14.04C32.0796 13.8 32.4263 13.52 32.693 13.2V7.76C32.3996 7.54667 32.0463 7.35333 31.633 7.18C31.2196 7.00667 30.7396 6.92 30.193 6.92C29.6463 6.92 29.133 7.06667 28.653 7.36C28.173 7.65333 27.7796 8.08 27.473 8.64C27.1796 9.18667 27.033 9.86 27.033 10.66C27.033 11.42 27.1796 12.08 27.473 12.64C27.7796 13.2 28.173 13.6333 28.653 13.94C29.133 14.2467 29.653 14.4 30.213 14.4ZM41.7522 16.24C40.2589 16.24 39.0722 15.7667 38.1922 14.82C37.3255 13.86 36.8922 12.52 36.8922 10.8C36.8922 9.76 37.0855 8.83333 37.4722 8.02C37.8722 7.19333 38.4255 6.54667 39.1322 6.08C39.8389 5.6 40.6589 5.36 41.5922 5.36C42.5922 5.36 43.4189 5.58 44.0722 6.02C44.7389 6.44667 45.2389 7.02667 45.5722 7.76C45.9055 8.49333 46.0722 9.3 46.0722 10.18C46.0722 10.6467 46.0522 11.1 46.0122 11.54H38.7322C38.8522 12.5133 39.1922 13.2733 39.7522 13.82C40.3122 14.3667 41.0522 14.64 41.9722 14.64C42.5722 14.64 43.1122 14.58 43.5922 14.46C44.0722 14.3267 44.5322 14.16 44.9722 13.96L45.3922 15.5C44.9122 15.7133 44.3722 15.8867 43.7722 16.02C43.1722 16.1667 42.4989 16.24 41.7522 16.24ZM38.7122 10.08H44.4122C44.4122 9.06667 44.1589 8.28667 43.6522 7.74C43.1455 7.19333 42.4455 6.92 41.5522 6.92C40.7789 6.92 40.1389 7.19333 39.6322 7.74C39.1255 8.27333 38.8189 9.05333 38.7122 10.08ZM58.4072 16.24C57.5539 16.24 56.7739 16.02 56.0672 15.58C55.3605 15.14 54.8005 14.52 54.3872 13.72C53.9739 12.9067 53.7672 11.9533 53.7672 10.86C53.7672 9.80667 53.9739 8.86667 54.3872 8.04C54.8139 7.21333 55.3739 6.56 56.0672 6.08C56.7739 5.6 57.5472 5.36 58.3872 5.36C59.0805 5.36 59.6739 5.5 60.1672 5.78C60.6739 6.06 61.0672 6.34667 61.3472 6.64V1.2H63.1472V13.48C63.1472 13.9867 63.2672 14.32 63.5072 14.48C63.7605 14.6267 64.0339 14.7 64.3272 14.7L63.9472 16.1C62.6805 16.1 61.9072 15.5933 61.6272 14.58C61.3339 14.9933 60.9205 15.3733 60.3872 15.72C59.8672 16.0667 59.2072 16.24 58.4072 16.24ZM58.8072 14.64C59.3005 14.64 59.7672 14.5267 60.2072 14.3C60.6605 14.06 61.0405 13.7533 61.3472 13.38V8.22C61.0939 7.9 60.7405 7.60667 60.2872 7.34C59.8339 7.06 59.3339 6.92 58.7872 6.92C58.1472 6.92 57.5872 7.09333 57.1072 7.44C56.6272 7.78667 56.2539 8.25333 55.9872 8.84C55.7339 9.41333 55.6072 10.0667 55.6072 10.8C55.6072 11.5333 55.7472 12.1933 56.0272 12.78C56.3072 13.3533 56.6872 13.8067 57.1672 14.14C57.6605 14.4733 58.2072 14.64 58.8072 14.64ZM66.8528 5.96L66.3928 5.26C67.0861 4.78 67.4995 4.17333 67.6328 3.44C67.5128 3.49333 67.3728 3.52 67.2128 3.52C66.8395 3.52 66.5328 3.4 66.2928 3.16C66.0528 2.92 65.9328 2.61333 65.9328 2.24C65.9328 1.85333 66.0595 1.54667 66.3128 1.32C66.5661 1.08 66.8861 0.959999 67.2728 0.959999C67.7395 0.959999 68.1195 1.11333 68.4128 1.42C68.7195 1.72667 68.8728 2.16667 68.8728 2.74C68.8728 3.35333 68.6928 3.96 68.3328 4.56C67.9861 5.14667 67.4928 5.61333 66.8528 5.96ZM75.6441 16.24C74.6574 16.24 73.7707 16.0133 72.9841 15.56C72.1974 15.0933 71.5774 14.4533 71.1241 13.64C70.6841 12.8133 70.4641 11.8667 70.4641 10.8C70.4641 9.68 70.6907 8.71333 71.1441 7.9C71.5974 7.08667 72.2174 6.46 73.0041 6.02C73.7907 5.58 74.6707 5.36 75.6441 5.36C76.6174 5.36 77.4907 5.58 78.2641 6.02C79.0507 6.46 79.6707 7.08667 80.1241 7.9C80.5907 8.7 80.8241 9.65333 80.8241 10.76C80.8241 11.8667 80.5974 12.8333 80.1441 13.66C79.6907 14.4733 79.0707 15.1067 78.2841 15.56C77.5107 16.0133 76.6307 16.24 75.6441 16.24ZM75.6441 14.64C76.6974 14.64 77.5174 14.2867 78.1041 13.58C78.6907 12.86 78.9841 11.9333 78.9841 10.8C78.9841 10.1067 78.8374 9.47333 78.5441 8.9C78.2507 8.31333 77.8507 7.84667 77.3441 7.5C76.8507 7.14 76.2841 6.96 75.6441 6.96C74.5907 6.96 73.7707 7.30667 73.1841 8C72.5974 8.69333 72.3041 9.61333 72.3041 10.76C72.3041 11.4533 72.4507 12.1 72.7441 12.7C73.0374 13.2867 73.4307 13.76 73.9241 14.12C74.4307 14.4667 75.0041 14.64 75.6441 14.64ZM83.2172 16V5.6H84.9572V7.86C85.1305 7.42 85.3639 7.01333 85.6572 6.64C85.9505 6.25333 86.3172 5.94667 86.7572 5.72C87.1972 5.48 87.7105 5.36 88.2972 5.36C88.4972 5.36 88.6972 5.37333 88.8972 5.4C89.0972 5.41333 89.2639 5.44 89.3972 5.48L88.8572 7.34C88.6039 7.23333 88.3039 7.18 87.9572 7.18C87.4639 7.18 86.9905 7.32 86.5372 7.6C86.0972 7.88 85.7305 8.31333 85.4372 8.9C85.1572 9.48667 85.0172 10.2333 85.0172 11.14V16H83.2172ZM101.142 16.24C100.288 16.24 99.5082 16.02 98.8016 15.58C98.0949 15.14 97.5349 14.52 97.1216 13.72C96.7082 12.9067 96.5016 11.9533 96.5016 10.86C96.5016 9.80667 96.7082 8.86667 97.1216 8.04C97.5482 7.21333 98.1082 6.56 98.8016 6.08C99.5082 5.6 100.282 5.36 101.122 5.36C101.815 5.36 102.408 5.5 102.902 5.78C103.408 6.06 103.802 6.34667 104.082 6.64V1.2H105.882V13.48C105.882 13.9867 106.002 14.32 106.242 14.48C106.495 14.6267 106.768 14.7 107.062 14.7L106.682 16.1C105.415 16.1 104.642 15.5933 104.362 14.58C104.068 14.9933 103.655 15.3733 103.122 15.72C102.602 16.0667 101.942 16.24 101.142 16.24ZM101.542 14.64C102.035 14.64 102.502 14.5267 102.942 14.3C103.395 14.06 103.775 13.7533 104.082 13.38V8.22C103.828 7.9 103.475 7.60667 103.022 7.34C102.568 7.06 102.068 6.92 101.522 6.92C100.882 6.92 100.322 7.09333 99.8416 7.44C99.3616 7.78667 98.9882 8.25333 98.7216 8.84C98.4682 9.41333 98.3416 10.0667 98.3416 10.8C98.3416 11.5333 98.4816 12.1933 98.7616 12.78C99.0416 13.3533 99.4216 13.8067 99.9016 14.14C100.395 14.4733 100.942 14.64 101.542 14.64ZM112.867 16.24C112.267 16.24 111.701 16.1133 111.167 15.86C110.634 15.6067 110.201 15.2 109.867 14.64C109.534 14.0667 109.367 13.3067 109.367 12.36V5.6H111.167V12.12C111.167 12.9333 111.341 13.56 111.687 14C112.034 14.4267 112.541 14.64 113.207 14.64C113.754 14.64 114.281 14.5333 114.787 14.32C115.307 14.0933 115.767 13.7933 116.167 13.42V5.6H117.967V13.3C117.967 13.8733 118.087 14.2533 118.327 14.44C118.581 14.6133 118.854 14.7 119.147 14.7L118.767 16.1C117.527 16.1 116.761 15.6067 116.467 14.62C116.001 15.1 115.461 15.4933 114.847 15.8C114.234 16.0933 113.574 16.24 112.867 16.24ZM131.734 16.24C130.747 16.24 129.88 16.0133 129.134 15.56C128.4 15.0933 127.834 14.4533 127.434 13.64C127.034 12.8133 126.834 11.8667 126.834 10.8C126.834 9.8 127.034 8.88667 127.434 8.06C127.847 7.23333 128.434 6.58 129.194 6.1C129.954 5.60667 130.847 5.36 131.874 5.36C132.46 5.36 132.974 5.41333 133.414 5.52C133.867 5.62667 134.3 5.78 134.714 5.98L134.174 7.5C133.8 7.31333 133.44 7.18 133.094 7.1C132.76 7.00667 132.387 6.96 131.974 6.96C131.04 6.96 130.254 7.3 129.614 7.98C128.987 8.64667 128.674 9.57333 128.674 10.76C128.674 11.48 128.807 12.1333 129.074 12.72C129.34 13.3067 129.707 13.7733 130.174 14.12C130.654 14.4667 131.214 14.64 131.854 14.64C132.36 14.64 132.794 14.5867 133.154 14.48C133.514 14.36 133.9 14.1933 134.314 13.98L134.874 15.5C134.46 15.7267 133.994 15.9067 133.474 16.04C132.967 16.1733 132.387 16.24 131.734 16.24ZM136.967 16V5.6H138.767V16H136.967ZM137.867 3.82C137.521 3.82 137.221 3.69333 136.967 3.44C136.727 3.18667 136.607 2.89333 136.607 2.56C136.607 2.17333 136.721 1.86667 136.947 1.64C137.174 1.41333 137.481 1.3 137.867 1.3C138.214 1.3 138.507 1.42667 138.747 1.68C139.001 1.92 139.127 2.21333 139.127 2.56C139.127 2.93333 139.014 3.24 138.787 3.48C138.561 3.70667 138.254 3.82 137.867 3.82ZM141.967 16V5.6H143.707V7.34C144.081 6.78 144.554 6.31333 145.127 5.94C145.714 5.55333 146.407 5.36 147.207 5.36C148.381 5.36 149.254 5.71333 149.827 6.42C150.414 7.12667 150.707 8.06 150.707 9.22V16H148.907V9.42C148.907 8.67333 148.727 8.07333 148.367 7.62C148.021 7.16667 147.534 6.94 146.907 6.94C146.294 6.94 145.714 7.16 145.167 7.6C144.621 8.02667 144.154 8.53333 143.767 9.12V16H141.967ZM157.963 16.24C156.47 16.24 155.283 15.7667 154.403 14.82C153.536 13.86 153.103 12.52 153.103 10.8C153.103 9.76 153.296 8.83333 153.683 8.02C154.083 7.19333 154.636 6.54667 155.343 6.08C156.05 5.6 156.87 5.36 157.803 5.36C158.803 5.36 159.63 5.58 160.283 6.02C160.95 6.44667 161.45 7.02667 161.783 7.76C162.116 8.49333 162.283 9.3 162.283 10.18C162.283 10.6467 162.263 11.1 162.223 11.54H154.943C155.063 12.5133 155.403 13.2733 155.963 13.82C156.523 14.3667 157.263 14.64 158.183 14.64C158.783 14.64 159.323 14.58 159.803 14.46C160.283 14.3267 160.743 14.16 161.183 13.96L161.603 15.5C161.123 15.7133 160.583 15.8867 159.983 16.02C159.383 16.1667 158.71 16.24 157.963 16.24ZM154.923 10.08H160.623C160.623 9.06667 160.37 8.28667 159.863 7.74C159.356 7.19333 158.656 6.92 157.763 6.92C156.99 6.92 156.35 7.19333 155.843 7.74C155.336 8.27333 155.03 9.05333 154.923 10.08ZM156.143 4.5L155.523 3.28L159.303 0.779999L160.143 2.46L156.143 4.5ZM164.682 16V5.6H166.422V7.34C166.795 6.78 167.269 6.31333 167.842 5.94C168.415 5.55333 169.069 5.36 169.802 5.36C170.629 5.36 171.302 5.56 171.822 5.96C172.355 6.36 172.729 6.89333 172.942 7.56C173.355 6.94667 173.842 6.42667 174.402 6C174.975 5.57333 175.682 5.36 176.522 5.36C177.655 5.36 178.495 5.72 179.042 6.44C179.602 7.14667 179.882 8.07333 179.882 9.22V16H178.082V9.36C178.082 8.64 177.915 8.06 177.582 7.62C177.249 7.16667 176.789 6.94 176.202 6.94C175.602 6.94 175.042 7.16667 174.522 7.62C174.015 8.06 173.569 8.58 173.182 9.18V16H171.382V9.36C171.382 8.64 171.215 8.06 170.882 7.62C170.549 7.16667 170.089 6.94 169.502 6.94C168.915 6.94 168.362 7.16 167.842 7.6C167.322 8.02667 166.869 8.53333 166.482 9.12V16H164.682ZM186.963 16.24C186.096 16.24 185.309 16.02 184.603 15.58C183.896 15.14 183.329 14.52 182.903 13.72C182.489 12.9067 182.283 11.9533 182.283 10.86C182.283 9.82 182.489 8.88667 182.903 8.06C183.329 7.23333 183.909 6.58 184.643 6.1C185.389 5.60667 186.243 5.36 187.203 5.36C187.803 5.36 188.343 5.46667 188.823 5.68C189.316 5.88 189.743 6.13333 190.103 6.44V5.6H191.743V13.48C191.743 13.9867 191.863 14.32 192.103 14.48C192.356 14.6267 192.629 14.7 192.923 14.7L192.543 16.1C191.263 16.1 190.489 15.58 190.223 14.54C189.916 14.9667 189.496 15.36 188.963 15.72C188.443 16.0667 187.776 16.24 186.963 16.24ZM187.363 14.64C187.869 14.64 188.349 14.52 188.803 14.28C189.256 14.0267 189.636 13.7133 189.943 13.34V7.76C189.583 7.50667 189.183 7.30667 188.743 7.16C188.316 7 187.863 6.92 187.383 6.92C186.743 6.92 186.176 7.08667 185.683 7.42C185.203 7.74 184.823 8.19333 184.543 8.78C184.263 9.35333 184.123 10.0267 184.123 10.8C184.123 11.5467 184.263 12.2133 184.543 12.8C184.823 13.3733 185.209 13.8267 185.703 14.16C186.196 14.48 186.749 14.64 187.363 14.64ZM201.703 20.4V8.26C201.703 7.80667 201.589 7.48667 201.363 7.3C201.149 7.1 200.869 7 200.523 7L200.903 5.6C202.129 5.6 202.896 6.08667 203.203 7.06C203.336 6.86 203.549 6.62667 203.843 6.36C204.149 6.09333 204.523 5.86 204.963 5.66C205.416 5.46 205.929 5.36 206.503 5.36C207.303 5.36 208.049 5.57333 208.743 6C209.449 6.41333 210.016 7.02 210.443 7.82C210.869 8.60667 211.083 9.56667 211.083 10.7C211.083 11.8067 210.869 12.78 210.443 13.62C210.016 14.4467 209.456 15.0933 208.763 15.56C208.083 16.0133 207.343 16.24 206.543 16.24C205.929 16.24 205.356 16.12 204.823 15.88C204.289 15.6267 203.849 15.34 203.503 15.02V20.4H201.703ZM206.183 14.64C207.089 14.64 207.823 14.2867 208.383 13.58C208.956 12.86 209.243 11.92 209.243 10.76C209.243 9.96 209.096 9.27333 208.803 8.7C208.523 8.12667 208.143 7.68667 207.663 7.38C207.196 7.07333 206.676 6.92 206.103 6.92C205.529 6.92 205.009 7.06667 204.543 7.36C204.089 7.64 203.743 7.94667 203.503 8.28V13.4C203.849 13.76 204.249 14.06 204.703 14.3C205.156 14.5267 205.649 14.64 206.183 14.64ZM217.968 16.24C216.982 16.24 216.095 16.0133 215.308 15.56C214.522 15.0933 213.902 14.4533 213.448 13.64C213.008 12.8133 212.788 11.8667 212.788 10.8C212.788 9.68 213.015 8.71333 213.468 7.9C213.922 7.08667 214.542 6.46 215.328 6.02C216.115 5.58 216.995 5.36 217.968 5.36C218.942 5.36 219.815 5.58 220.588 6.02C221.375 6.46 221.995 7.08667 222.448 7.9C222.915 8.7 223.148 9.65333 223.148 10.76C223.148 11.8667 222.922 12.8333 222.468 13.66C222.015 14.4733 221.395 15.1067 220.608 15.56C219.835 16.0133 218.955 16.24 217.968 16.24ZM217.968 14.64C219.022 14.64 219.842 14.2867 220.428 13.58C221.015 12.86 221.308 11.9333 221.308 10.8C221.308 10.1067 221.162 9.47333 220.868 8.9C220.575 8.31333 220.175 7.84667 219.668 7.5C219.175 7.14 218.608 6.96 217.968 6.96C216.915 6.96 216.095 7.30667 215.508 8C214.922 8.69333 214.628 9.61333 214.628 10.76C214.628 11.4533 214.775 12.1 215.068 12.7C215.362 13.2867 215.755 13.76 216.248 14.12C216.755 14.4667 217.328 14.64 217.968 14.64ZM228.701 16.24C228.088 16.24 227.535 16.1267 227.041 15.9C226.548 15.66 226.155 15.28 225.861 14.76C225.581 14.24 225.441 13.5667 225.441 12.74V1.2H227.241V12.56C227.241 13.28 227.388 13.8133 227.681 14.16C227.988 14.5067 228.408 14.68 228.941 14.68C229.195 14.68 229.441 14.6533 229.681 14.6C229.935 14.5333 230.148 14.46 230.321 14.38L230.761 15.84C230.521 15.9467 230.221 16.04 229.861 16.12C229.515 16.2 229.128 16.24 228.701 16.24ZM236.543 16.24C235.556 16.24 234.669 16.0133 233.883 15.56C233.096 15.0933 232.476 14.4533 232.023 13.64C231.583 12.8133 231.363 11.8667 231.363 10.8C231.363 9.68 231.589 8.71333 232.043 7.9C232.496 7.08667 233.116 6.46 233.903 6.02C234.689 5.58 235.569 5.36 236.543 5.36C237.516 5.36 238.389 5.58 239.163 6.02C239.949 6.46 240.569 7.08667 241.023 7.9C241.489 8.7 241.723 9.65333 241.723 10.76C241.723 11.8667 241.496 12.8333 241.043 13.66C240.589 14.4733 239.969 15.1067 239.183 15.56C238.409 16.0133 237.529 16.24 236.543 16.24ZM236.543 14.64C237.596 14.64 238.416 14.2867 239.003 13.58C239.589 12.86 239.883 11.9333 239.883 10.8C239.883 10.1067 239.736 9.47333 239.443 8.9C239.149 8.31333 238.749 7.84667 238.243 7.5C237.749 7.14 237.183 6.96 236.543 6.96C235.489 6.96 234.669 7.30667 234.083 8C233.496 8.69333 233.202 9.61333 233.202 10.76C233.202 11.4533 233.349 12.1 233.643 12.7C233.936 13.2867 234.329 13.76 234.823 14.12C235.329 14.4667 235.903 14.64 236.543 14.64ZM244.116 16V5.6H245.856V7.34C246.229 6.78 246.702 6.31333 247.276 5.94C247.862 5.55333 248.556 5.36 249.356 5.36C250.529 5.36 251.402 5.71333 251.976 6.42C252.562 7.12667 252.856 8.06 252.856 9.22V16H251.056V9.42C251.056 8.67333 250.876 8.07333 250.516 7.62C250.169 7.16667 249.682 6.94 249.056 6.94C248.442 6.94 247.862 7.16 247.316 7.6C246.769 8.02667 246.302 8.53333 245.916 9.12V16H244.116ZM259.932 16.24C259.065 16.24 258.278 16.02 257.572 15.58C256.865 15.14 256.298 14.52 255.872 13.72C255.458 12.9067 255.252 11.9533 255.252 10.86C255.252 9.82 255.458 8.88667 255.872 8.06C256.298 7.23333 256.878 6.58 257.612 6.1C258.358 5.60667 259.212 5.36 260.172 5.36C260.772 5.36 261.312 5.46667 261.792 5.68C262.285 5.88 262.712 6.13333 263.072 6.44V5.6H264.712V13.48C264.712 13.9867 264.832 14.32 265.072 14.48C265.325 14.6267 265.598 14.7 265.892 14.7L265.512 16.1C264.232 16.1 263.458 15.58 263.192 14.54C262.885 14.9667 262.465 15.36 261.932 15.72C261.412 16.0667 260.745 16.24 259.932 16.24ZM260.332 14.64C260.838 14.64 261.318 14.52 261.772 14.28C262.225 14.0267 262.605 13.7133 262.912 13.34V7.76C262.552 7.50667 262.152 7.30667 261.712 7.16C261.285 7 260.832 6.92 260.352 6.92C259.712 6.92 259.145 7.08667 258.652 7.42C258.172 7.74 257.792 8.19333 257.512 8.78C257.232 9.35333 257.092 10.0267 257.092 10.8C257.092 11.5467 257.232 12.2133 257.512 12.8C257.792 13.3733 258.178 13.8267 258.672 14.16C259.165 14.48 259.718 14.64 260.332 14.64ZM268.295 16V5.6H270.095V16H268.295ZM269.195 3.82C268.849 3.82 268.549 3.69333 268.295 3.44C268.055 3.18667 267.935 2.89333 267.935 2.56C267.935 2.17333 268.049 1.86667 268.275 1.64C268.502 1.41333 268.809 1.3 269.195 1.3C269.542 1.3 269.835 1.42667 270.075 1.68C270.329 1.92 270.455 2.21333 270.455 2.56C270.455 2.93333 270.342 3.24 270.115 3.48C269.889 3.70667 269.582 3.82 269.195 3.82ZM276.095 16.24C275.309 16.24 274.595 16.14 273.955 15.94C273.329 15.74 272.809 15.48 272.395 15.16L273.155 13.66C273.502 13.9533 273.935 14.2 274.455 14.4C274.989 14.5867 275.555 14.68 276.155 14.68C276.902 14.68 277.462 14.56 277.835 14.32C278.222 14.0667 278.415 13.7467 278.415 13.36C278.415 13.08 278.342 12.8333 278.195 12.62C278.062 12.4067 277.809 12.2 277.435 12C277.062 11.7867 276.522 11.56 275.815 11.32C274.842 10.9867 274.109 10.5933 273.615 10.14C273.135 9.67333 272.895 9.03333 272.895 8.22C272.895 7.42 273.242 6.74667 273.935 6.2C274.642 5.64 275.615 5.36 276.855 5.36C277.522 5.36 278.115 5.43333 278.635 5.58C279.155 5.71333 279.622 5.88667 280.035 6.1L279.535 7.58C279.175 7.36667 278.762 7.19333 278.295 7.06C277.842 6.92667 277.335 6.86 276.775 6.86C276.082 6.86 275.555 7 275.195 7.28C274.835 7.56 274.655 7.86667 274.655 8.2C274.655 8.52 274.795 8.79333 275.075 9.02C275.355 9.24667 275.902 9.49333 276.715 9.76C278.035 10.2 278.955 10.6867 279.475 11.22C279.995 11.7533 280.255 12.42 280.255 13.22C280.255 14.1533 279.875 14.8933 279.115 15.44C278.369 15.9733 277.362 16.24 276.095 16.24ZM290.827 18.46C290 16.9933 289.354 15.54 288.887 14.1C288.42 12.6467 288.187 11.1467 288.187 9.6C288.187 7.93333 288.42 6.39333 288.887 4.98C289.367 3.55333 290.014 2.14 290.827 0.74L291.887 1.34C291.394 2.46 290.967 3.71333 290.607 5.1C290.26 6.47333 290.087 7.97333 290.087 9.6C290.087 11.2133 290.26 12.7067 290.607 14.08C290.967 15.4533 291.394 16.7133 291.887 17.86L290.827 18.46ZM293.383 20.64C292.57 20.64 291.89 20.4867 291.343 20.18L291.783 18.68C291.956 18.7867 292.17 18.88 292.423 18.96C292.663 19.04 292.91 19.08 293.163 19.08C294.296 19.08 294.863 18.3733 294.863 16.96V5.6H296.663V17.14C296.663 17.9533 296.516 18.6133 296.223 19.12C295.93 19.64 295.536 20.02 295.043 20.26C294.55 20.5133 293.996 20.64 293.383 20.64ZM295.723 3.82C295.376 3.82 295.076 3.69333 294.823 3.44C294.583 3.18667 294.463 2.89333 294.463 2.56C294.463 2.17333 294.576 1.86667 294.803 1.64C295.03 1.41333 295.336 1.3 295.723 1.3C296.07 1.3 296.363 1.42667 296.603 1.68C296.856 1.92 296.983 2.21333 296.983 2.56C296.983 2.93333 296.87 3.24 296.643 3.48C296.416 3.70667 296.11 3.82 295.723 3.82ZM303.258 16.24C302.658 16.24 302.091 16.1133 301.558 15.86C301.024 15.6067 300.591 15.2 300.258 14.64C299.924 14.0667 299.758 13.3067 299.758 12.36V5.6H301.558V12.12C301.558 12.9333 301.731 13.56 302.078 14C302.424 14.4267 302.931 14.64 303.598 14.64C304.144 14.64 304.671 14.5333 305.178 14.32C305.698 14.0933 306.158 13.7933 306.558 13.42V5.6H308.358V13.3C308.358 13.8733 308.478 14.2533 308.718 14.44C308.971 14.6133 309.244 14.7 309.538 14.7L309.158 16.1C307.918 16.1 307.151 15.6067 306.858 14.62C306.391 15.1 305.851 15.4933 305.238 15.8C304.624 16.0933 303.964 16.24 303.258 16.24ZM311.928 16V5.6H313.728V16H311.928ZM312.828 3.82C312.481 3.82 312.181 3.69333 311.928 3.44C311.688 3.18667 311.568 2.89333 311.568 2.56C311.568 2.17333 311.681 1.86667 311.908 1.64C312.135 1.41333 312.441 1.3 312.828 1.3C313.175 1.3 313.468 1.42667 313.708 1.68C313.961 1.92 314.088 2.21333 314.088 2.56C314.088 2.93333 313.975 3.24 313.748 3.48C313.521 3.70667 313.215 3.82 312.828 3.82ZM320.088 16.24C319.475 16.24 318.921 16.1267 318.428 15.9C317.935 15.66 317.541 15.28 317.248 14.76C316.968 14.24 316.828 13.5667 316.828 12.74V1.2H318.628V12.56C318.628 13.28 318.775 13.8133 319.068 14.16C319.375 14.5067 319.795 14.68 320.328 14.68C320.581 14.68 320.828 14.6533 321.068 14.6C321.321 14.5333 321.535 14.46 321.708 14.38L322.148 15.84C321.908 15.9467 321.608 16.04 321.248 16.12C320.901 16.2 320.515 16.24 320.088 16.24ZM326.807 16.24C326.194 16.24 325.64 16.1267 325.147 15.9C324.654 15.66 324.26 15.28 323.967 14.76C323.687 14.24 323.547 13.5667 323.547 12.74V1.2H325.347V12.56C325.347 13.28 325.494 13.8133 325.787 14.16C326.094 14.5067 326.514 14.68 327.047 14.68C327.3 14.68 327.547 14.6533 327.787 14.6C328.04 14.5333 328.254 14.46 328.427 14.38L328.867 15.84C328.627 15.9467 328.327 16.04 327.967 16.12C327.62 16.2 327.234 16.24 326.807 16.24ZM334.428 16.24C332.935 16.24 331.748 15.7667 330.868 14.82C330.001 13.86 329.568 12.52 329.568 10.8C329.568 9.76 329.761 8.83333 330.148 8.02C330.548 7.19333 331.101 6.54667 331.808 6.08C332.515 5.6 333.335 5.36 334.268 5.36C335.268 5.36 336.095 5.58 336.748 6.02C337.415 6.44667 337.915 7.02667 338.248 7.76C338.581 8.49333 338.748 9.3 338.748 10.18C338.748 10.6467 338.728 11.1 338.688 11.54H331.408C331.528 12.5133 331.868 13.2733 332.428 13.82C332.988 14.3667 333.728 14.64 334.648 14.64C335.248 14.64 335.788 14.58 336.268 14.46C336.748 14.3267 337.208 14.16 337.648 13.96L338.068 15.5C337.588 15.7133 337.048 15.8867 336.448 16.02C335.848 16.1667 335.175 16.24 334.428 16.24ZM331.388 10.08H337.088C337.088 9.06667 336.835 8.28667 336.328 7.74C335.821 7.19333 335.121 6.92 334.228 6.92C333.455 6.92 332.815 7.19333 332.308 7.74C331.801 8.27333 331.495 9.05333 331.388 10.08ZM344.787 16.24C343.787 16.24 342.994 15.9133 342.407 15.26C341.834 14.5933 341.547 13.6467 341.547 12.42V7.54H339.747V5.98H341.587L341.967 2.7H343.347V5.98H346.227V7.54H343.347V12.56C343.347 13.3333 343.507 13.8733 343.827 14.18C344.16 14.4867 344.554 14.64 345.007 14.64C345.34 14.64 345.654 14.5867 345.947 14.48C346.254 14.3733 346.534 14.2467 346.787 14.1L347.287 15.54C347.02 15.7 346.66 15.8533 346.207 16C345.754 16.16 345.28 16.24 344.787 16.24ZM355.252 16C355.212 15.76 355.192 15.5133 355.192 15.26C355.192 14.3933 355.339 13.62 355.632 12.94C355.939 12.2467 356.332 11.62 356.812 11.06C357.292 10.4867 357.799 9.96 358.332 9.48C358.879 8.98667 359.386 8.52 359.852 8.08C360.332 7.62667 360.726 7.17333 361.032 6.72C361.339 6.26667 361.492 5.79333 361.492 5.3C361.492 4.74 361.286 4.28 360.872 3.92C360.459 3.54667 359.926 3.36 359.272 3.36C358.712 3.36 358.199 3.47333 357.732 3.7C357.279 3.91333 356.852 4.20667 356.452 4.58L355.452 3.36C355.986 2.88 356.572 2.49333 357.212 2.2C357.866 1.90667 358.619 1.76 359.472 1.76C360.259 1.76 360.946 1.91333 361.532 2.22C362.119 2.51333 362.572 2.92 362.892 3.44C363.226 3.96 363.392 4.54 363.392 5.18C363.392 5.82 363.252 6.41333 362.972 6.96C362.692 7.50667 362.332 8.02 361.892 8.5C361.452 8.98 360.979 9.44667 360.472 9.9C359.966 10.34 359.479 10.7933 359.012 11.26C358.546 11.7267 358.146 12.2133 357.812 12.72C357.492 13.2267 357.292 13.7733 357.212 14.36H363.372V16H355.252ZM371.464 16.24C369.904 16.24 368.718 15.6067 367.904 14.34C367.091 13.06 366.684 11.2733 366.684 8.98C366.684 6.67333 367.098 4.89333 367.924 3.64C368.764 2.38667 369.958 1.76 371.504 1.76C373.064 1.76 374.251 2.39333 375.064 3.66C375.878 4.92667 376.284 6.71333 376.284 9.02C376.284 11.3267 375.864 13.1067 375.024 14.36C374.198 15.6133 373.011 16.24 371.464 16.24ZM371.484 14.6C372.084 14.6 372.598 14.4267 373.024 14.08C373.464 13.72 373.798 13.1333 374.024 12.32C374.264 11.5067 374.384 10.4133 374.384 9.04C374.384 7.2 374.124 5.8 373.604 4.84C373.098 3.88 372.391 3.4 371.484 3.4C370.884 3.4 370.364 3.58 369.924 3.94C369.498 4.28667 369.164 4.86667 368.924 5.68C368.698 6.48 368.584 7.57333 368.584 8.96C368.584 10.8 368.838 12.2 369.344 13.16C369.864 14.12 370.578 14.6 371.484 14.6ZM380.357 16V14.4H383.217V4.3L380.537 6.32L379.557 4.98L383.697 2H385.017V14.4H387.397V16H380.357ZM395.569 16.24C394.555 16.24 393.675 16.0667 392.929 15.72C392.182 15.3733 391.602 14.9067 391.189 14.32C390.789 13.72 390.589 13.06 390.589 12.34C390.589 11.4733 390.822 10.72 391.289 10.08C391.769 9.44 392.515 8.9 393.529 8.46C392.822 8.07333 392.275 7.62667 391.889 7.12C391.515 6.6 391.329 5.96 391.329 5.2C391.329 4.52 391.509 3.92667 391.869 3.42C392.229 2.9 392.715 2.49333 393.329 2.2C393.955 1.90667 394.649 1.76 395.409 1.76C396.235 1.76 396.962 1.91333 397.589 2.22C398.215 2.51333 398.702 2.92 399.049 3.44C399.409 3.96 399.589 4.54 399.589 5.18C399.589 5.99333 399.382 6.65333 398.969 7.16C398.555 7.66667 398.002 8.09333 397.309 8.44C398.295 8.85333 399.049 9.37333 399.569 10C400.089 10.6133 400.349 11.3533 400.349 12.22C400.349 13.02 400.142 13.7267 399.729 14.34C399.315 14.94 398.749 15.4067 398.029 15.74C397.309 16.0733 396.489 16.24 395.569 16.24ZM395.669 7.78C396.255 7.58 396.762 7.27333 397.189 6.86C397.629 6.44667 397.849 5.94667 397.849 5.36C397.849 4.74667 397.615 4.24 397.149 3.84C396.682 3.44 396.102 3.24 395.409 3.24C394.729 3.24 394.169 3.42 393.729 3.78C393.289 4.12667 393.069 4.58667 393.069 5.16C393.069 5.73333 393.302 6.25333 393.769 6.72C394.249 7.18667 394.882 7.54 395.669 7.78ZM395.589 14.64C396.442 14.64 397.142 14.42 397.689 13.98C398.235 13.5267 398.509 12.9533 398.509 12.26C398.509 11.62 398.222 11.0467 397.649 10.54C397.089 10.0333 396.309 9.6 395.309 9.24C394.802 9.36 394.329 9.54667 393.889 9.8C393.449 10.0533 393.095 10.3667 392.829 10.74C392.562 11.1133 392.429 11.54 392.429 12.02C392.429 12.5133 392.562 12.96 392.829 13.36C393.109 13.76 393.489 14.0733 393.969 14.3C394.449 14.5267 394.989 14.64 395.589 14.64ZM403.681 18.46L402.621 17.86C403.128 16.7133 403.554 15.4533 403.901 14.08C404.248 12.7067 404.421 11.2133 404.421 9.6C404.421 7.97333 404.248 6.47333 403.901 5.1C403.554 3.71333 403.128 2.46 402.621 1.34L403.681 0.74C404.508 2.14 405.154 3.55333 405.621 4.98C406.088 6.39333 406.321 7.93333 406.321 9.6C406.321 11.1467 406.088 12.6467 405.621 14.1C405.154 15.54 404.508 16.9933 403.681 18.46Z" fill="white"/>
</svg>
