<svg width="558" height="77" viewBox="0 0 558 77" fill="none" xmlns="http://www.w3.org/2000/svg">
<path d="M11.42 16.2L9.86 12.2H3.38L1.82 16.16L0.2 15.5L5.68 2H7.76L13.16 15.5L11.42 16.2ZM3.98 10.6H9.24L6.62 3.88L3.98 10.6ZM14.9594 16V5.6H16.6994V7.34C17.0727 6.78 17.546 6.31333 18.1194 5.94C18.706 5.55333 19.3994 5.36 20.1994 5.36C21.3727 5.36 22.246 5.71333 22.8194 6.42C23.406 7.12667 23.6994 8.06 23.6994 9.22V16H21.8994V9.42C21.8994 8.67333 21.7194 8.07333 21.3594 7.62C21.0127 7.16667 20.526 6.94 19.8994 6.94C19.286 6.94 18.706 7.16 18.1594 7.6C17.6127 8.02667 17.146 8.53333 16.7594 9.12V16H14.9594ZM30.7353 16.24C29.882 16.24 29.102 16.02 28.3953 15.58C27.6886 15.14 27.1286 14.52 26.7153 13.72C26.302 12.9067 26.0953 11.9533 26.0953 10.86C26.0953 9.80667 26.302 8.86667 26.7153 8.04C27.142 7.21333 27.702 6.56 28.3953 6.08C29.102 5.6 29.8753 5.36 30.7153 5.36C31.4086 5.36 32.002 5.5 32.4953 5.78C33.002 6.06 33.3953 6.34667 33.6753 6.64V1.2H35.4753V13.48C35.4753 13.9867 35.5953 14.32 35.8353 14.48C36.0886 14.6267 36.362 14.7 36.6553 14.7L36.2753 16.1C35.0086 16.1 34.2353 15.5933 33.9553 14.58C33.662 14.9933 33.2486 15.3733 32.7153 15.72C32.1953 16.0667 31.5353 16.24 30.7353 16.24ZM31.1353 14.64C31.6286 14.64 32.0953 14.5267 32.5353 14.3C32.9886 14.06 33.3686 13.7533 33.6753 13.38V8.22C33.422 7.9 33.0686 7.60667 32.6153 7.34C32.162 7.06 31.662 6.92 31.1153 6.92C30.4753 6.92 29.9153 7.09333 29.4353 7.44C28.9553 7.78667 28.582 8.25333 28.3153 8.84C28.062 9.41333 27.9353 10.0667 27.9353 10.8C27.9353 11.5333 28.0753 12.1933 28.3553 12.78C28.6353 13.3533 29.0153 13.8067 29.4953 14.14C29.9886 14.4733 30.5353 14.64 31.1353 14.64ZM39.0609 16V5.6H40.8009V7.86C40.9743 7.42 41.2076 7.01333 41.5009 6.64C41.7943 6.25333 42.1609 5.94667 42.6009 5.72C43.0409 5.48 43.5543 5.36 44.1409 5.36C44.3409 5.36 44.5409 5.37333 44.7409 5.4C44.9409 5.41333 45.1076 5.44 45.2409 5.48L44.7009 7.34C44.4476 7.23333 44.1476 7.18 43.8009 7.18C43.3076 7.18 42.8343 7.32 42.3809 7.6C41.9409 7.88 41.5743 8.31333 41.2809 8.9C41.0009 9.48667 40.8609 10.2333 40.8609 11.14V16H39.0609ZM46.1492 16V14.58L51.8892 7.16H46.2692V5.6H54.0892V6.98L48.3692 14.4H54.1892V16H46.1492ZM60.4475 16.24C58.9542 16.24 57.7675 15.7667 56.8875 14.82C56.0208 13.86 55.5875 12.52 55.5875 10.8C55.5875 9.76 55.7808 8.83333 56.1675 8.02C56.5675 7.19333 57.1208 6.54667 57.8275 6.08C58.5342 5.6 59.3542 5.36 60.2875 5.36C61.2875 5.36 62.1142 5.58 62.7675 6.02C63.4342 6.44667 63.9342 7.02667 64.2675 7.76C64.6008 8.49333 64.7675 9.3 64.7675 10.18C64.7675 10.6467 64.7475 11.1 64.7075 11.54H57.4275C57.5475 12.5133 57.8875 13.2733 58.4475 13.82C59.0075 14.3667 59.7475 14.64 60.6675 14.64C61.2675 14.64 61.8075 14.58 62.2875 14.46C62.7675 14.3267 63.2275 14.16 63.6675 13.96L64.0875 15.5C63.6075 15.7133 63.0675 15.8867 62.4675 16.02C61.8675 16.1667 61.1942 16.24 60.4475 16.24ZM57.4075 10.08H63.1075C63.1075 9.06667 62.8542 8.28667 62.3475 7.74C61.8408 7.19333 61.1408 6.92 60.2475 6.92C59.4742 6.92 58.8342 7.19333 58.3275 7.74C57.8208 8.27333 57.5142 9.05333 57.4075 10.08ZM65.7111 20.64C64.8978 20.64 64.2178 20.4867 63.6711 20.18L64.1111 18.68C64.2844 18.7867 64.4978 18.88 64.7511 18.96C64.9911 19.04 65.2378 19.08 65.4911 19.08C66.6244 19.08 67.1911 18.3733 67.1911 16.96V5.6H68.9911V17.14C68.9911 17.9533 68.8444 18.6133 68.5511 19.12C68.2578 19.64 67.8644 20.02 67.3711 20.26C66.8778 20.5133 66.3244 20.64 65.7111 20.64ZM68.0511 3.82C67.7044 3.82 67.4044 3.69333 67.1511 3.44C66.9111 3.18667 66.7911 2.89333 66.7911 2.56C66.7911 2.17333 66.9044 1.86667 67.1311 1.64C67.3578 1.41333 67.6644 1.3 68.0511 1.3C68.3978 1.3 68.6911 1.42667 68.9311 1.68C69.1844 1.92 69.3111 2.21333 69.3111 2.56C69.3111 2.93333 69.1978 3.24 68.9711 3.48C68.7444 3.70667 68.4378 3.82 68.0511 3.82ZM80.682 16L76.882 2.46L78.762 1.86L81.922 13.98L84.902 3.46H87.282L90.242 13.98L93.382 1.92L95.142 2.46L91.362 16H89.002L86.042 5.48L83.042 16H80.682ZM100.424 16.24C99.5571 16.24 98.7704 16.02 98.0638 15.58C97.3571 15.14 96.7904 14.52 96.3638 13.72C95.9504 12.9067 95.7438 11.9533 95.7438 10.86C95.7438 9.82 95.9504 8.88667 96.3638 8.06C96.7904 7.23333 97.3704 6.58 98.1038 6.1C98.8504 5.60667 99.7038 5.36 100.664 5.36C101.264 5.36 101.804 5.46667 102.284 5.68C102.777 5.88 103.204 6.13333 103.564 6.44V5.6H105.204V13.48C105.204 13.9867 105.324 14.32 105.564 14.48C105.817 14.6267 106.09 14.7 106.384 14.7L106.004 16.1C104.724 16.1 103.95 15.58 103.684 14.54C103.377 14.9667 102.957 15.36 102.424 15.72C101.904 16.0667 101.237 16.24 100.424 16.24ZM100.824 14.64C101.33 14.64 101.81 14.52 102.264 14.28C102.717 14.0267 103.097 13.7133 103.404 13.34V7.76C103.044 7.50667 102.644 7.30667 102.204 7.16C101.777 7 101.324 6.92 100.844 6.92C100.204 6.92 99.6371 7.08667 99.1438 7.42C98.6638 7.74 98.2838 8.19333 98.0038 8.78C97.7238 9.35333 97.5838 10.0267 97.5838 10.8C97.5838 11.5467 97.7238 12.2133 98.0038 12.8C98.2838 13.3733 98.6704 13.8267 99.1638 14.16C99.6571 14.48 100.21 14.64 100.824 14.64ZM107.137 20.64C106.324 20.64 105.644 20.4867 105.097 20.18L105.537 18.68C105.71 18.7867 105.924 18.88 106.177 18.96C106.417 19.04 106.664 19.08 106.917 19.08C108.05 19.08 108.617 18.3733 108.617 16.96V5.6H110.417V17.14C110.417 17.9533 110.27 18.6133 109.977 19.12C109.684 19.64 109.29 20.02 108.797 20.26C108.304 20.5133 107.75 20.64 107.137 20.64ZM109.477 3.82C109.13 3.82 108.83 3.69333 108.577 3.44C108.337 3.18667 108.217 2.89333 108.217 2.56C108.217 2.17333 108.33 1.86667 108.557 1.64C108.784 1.41333 109.09 1.3 109.477 1.3C109.824 1.3 110.117 1.42667 110.357 1.68C110.61 1.92 110.737 2.21333 110.737 2.56C110.737 2.93333 110.624 3.24 110.397 3.48C110.17 3.70667 109.864 3.82 109.477 3.82ZM117.552 16.24C116.698 16.24 115.918 16.02 115.212 15.58C114.505 15.14 113.945 14.52 113.532 13.72C113.118 12.9067 112.912 11.9533 112.912 10.86C112.912 9.80667 113.118 8.86667 113.532 8.04C113.958 7.21333 114.518 6.56 115.212 6.08C115.918 5.6 116.692 5.36 117.532 5.36C118.225 5.36 118.818 5.5 119.312 5.78C119.818 6.06 120.212 6.34667 120.492 6.64V1.2H122.292V13.48C122.292 13.9867 122.412 14.32 122.652 14.48C122.905 14.6267 123.178 14.7 123.472 14.7L123.092 16.1C121.825 16.1 121.052 15.5933 120.772 14.58C120.478 14.9933 120.065 15.3733 119.532 15.72C119.012 16.0667 118.352 16.24 117.552 16.24ZM117.952 14.64C118.445 14.64 118.912 14.5267 119.352 14.3C119.805 14.06 120.185 13.7533 120.492 13.38V8.22C120.238 7.9 119.885 7.60667 119.432 7.34C118.978 7.06 118.478 6.92 117.932 6.92C117.292 6.92 116.732 7.09333 116.252 7.44C115.772 7.78667 115.398 8.25333 115.132 8.84C114.878 9.41333 114.752 10.0667 114.752 10.8C114.752 11.5333 114.892 12.1933 115.172 12.78C115.452 13.3533 115.832 13.8067 116.312 14.14C116.805 14.4733 117.352 14.64 117.952 14.64ZM129.662 16.24C128.795 16.24 128.009 16.02 127.302 15.58C126.595 15.14 126.029 14.52 125.602 13.72C125.189 12.9067 124.982 11.9533 124.982 10.86C124.982 9.82 125.189 8.88667 125.602 8.06C126.029 7.23333 126.609 6.58 127.342 6.1C128.089 5.60667 128.942 5.36 129.902 5.36C130.502 5.36 131.042 5.46667 131.522 5.68C132.015 5.88 132.442 6.13333 132.802 6.44V5.6H134.442V13.48C134.442 13.9867 134.562 14.32 134.802 14.48C135.055 14.6267 135.329 14.7 135.622 14.7L135.242 16.1C133.962 16.1 133.189 15.58 132.922 14.54C132.615 14.9667 132.195 15.36 131.662 15.72C131.142 16.0667 130.475 16.24 129.662 16.24ZM130.062 14.64C130.569 14.64 131.049 14.52 131.502 14.28C131.955 14.0267 132.335 13.7133 132.642 13.34V7.76C132.282 7.50667 131.882 7.30667 131.442 7.16C131.015 7 130.562 6.92 130.082 6.92C129.442 6.92 128.875 7.08667 128.382 7.42C127.902 7.74 127.522 8.19333 127.242 8.78C126.962 9.35333 126.822 10.0267 126.822 10.8C126.822 11.5467 126.962 12.2133 127.242 12.8C127.522 13.3733 127.909 13.8267 128.402 14.16C128.895 14.48 129.449 14.64 130.062 14.64ZM138.006 19.2L137.026 18.64C137.559 17.96 137.986 17.2733 138.306 16.58C138.639 15.8867 138.892 15.0933 139.066 14.2L140.826 14.7C140.692 15.7133 140.372 16.6 139.866 17.36C139.372 18.12 138.752 18.7333 138.006 19.2ZM158.378 16.24L156.638 12.44C156.198 11.4933 155.645 10.82 154.978 10.42C154.311 10.02 153.458 9.82 152.418 9.82H152.118V16H150.218V2.04C150.925 1.97333 151.598 1.92667 152.238 1.9C152.891 1.86 153.585 1.84 154.318 1.84C156.025 1.84 157.305 2.18667 158.158 2.88C159.025 3.57333 159.458 4.46667 159.458 5.56C159.458 6.53333 159.165 7.32 158.578 7.92C158.005 8.50667 157.171 8.94667 156.078 9.24C156.438 9.4 156.758 9.59333 157.038 9.82C157.318 10.0333 157.585 10.3267 157.838 10.7C158.105 11.06 158.371 11.5333 158.638 12.12L160.158 15.4L158.378 16.24ZM152.118 8.22H154.318C155.278 8.22 156.058 8.00667 156.658 7.58C157.258 7.15333 157.558 6.54 157.558 5.74C157.558 5.07333 157.278 4.52667 156.718 4.1C156.158 3.66 155.358 3.44 154.318 3.44C153.865 3.44 153.458 3.44667 153.098 3.46C152.738 3.47333 152.411 3.49333 152.118 3.52V8.22ZM166.742 16.24C165.755 16.24 164.868 16.0133 164.082 15.56C163.295 15.0933 162.675 14.4533 162.222 13.64C161.782 12.8133 161.562 11.8667 161.562 10.8C161.562 9.68 161.788 8.71333 162.242 7.9C162.695 7.08667 163.315 6.46 164.102 6.02C164.888 5.58 165.768 5.36 166.742 5.36C167.715 5.36 168.588 5.58 169.362 6.02C170.148 6.46 170.768 7.08667 171.222 7.9C171.688 8.7 171.922 9.65333 171.922 10.76C171.922 11.8667 171.695 12.8333 171.242 13.66C170.788 14.4733 170.168 15.1067 169.382 15.56C168.608 16.0133 167.728 16.24 166.742 16.24ZM166.742 14.64C167.795 14.64 168.615 14.2867 169.202 13.58C169.788 12.86 170.082 11.9333 170.082 10.8C170.082 10.1067 169.935 9.47333 169.642 8.9C169.348 8.31333 168.948 7.84667 168.442 7.5C167.948 7.14 167.382 6.96 166.742 6.96C165.688 6.96 164.868 7.30667 164.282 8C163.695 8.69333 163.402 9.61333 163.402 10.76C163.402 11.4533 163.548 12.1 163.842 12.7C164.135 13.2867 164.528 13.76 165.022 14.12C165.528 14.4667 166.102 14.64 166.742 14.64ZM174.315 16V5.6H176.055V7.34C176.428 6.78 176.902 6.31333 177.475 5.94C178.048 5.55333 178.702 5.36 179.435 5.36C180.262 5.36 180.935 5.56 181.455 5.96C181.988 6.36 182.362 6.89333 182.575 7.56C182.988 6.94667 183.475 6.42667 184.035 6C184.608 5.57333 185.315 5.36 186.155 5.36C187.288 5.36 188.128 5.72 188.675 6.44C189.235 7.14667 189.515 8.07333 189.515 9.22V16H187.715V9.36C187.715 8.64 187.548 8.06 187.215 7.62C186.882 7.16667 186.422 6.94 185.835 6.94C185.235 6.94 184.675 7.16667 184.155 7.62C183.648 8.06 183.202 8.58 182.815 9.18V16H181.015V9.36C181.015 8.64 180.848 8.06 180.515 7.62C180.182 7.16667 179.722 6.94 179.135 6.94C178.548 6.94 177.995 7.16 177.475 7.6C176.955 8.02667 176.502 8.53333 176.115 9.12V16H174.315ZM196.596 16.24C195.729 16.24 194.942 16.02 194.236 15.58C193.529 15.14 192.962 14.52 192.536 13.72C192.122 12.9067 191.916 11.9533 191.916 10.86C191.916 9.82 192.122 8.88667 192.536 8.06C192.962 7.23333 193.542 6.58 194.276 6.1C195.022 5.60667 195.876 5.36 196.836 5.36C197.436 5.36 197.976 5.46667 198.456 5.68C198.949 5.88 199.376 6.13333 199.736 6.44V5.6H201.376V13.48C201.376 13.9867 201.496 14.32 201.736 14.48C201.989 14.6267 202.262 14.7 202.556 14.7L202.176 16.1C200.896 16.1 200.122 15.58 199.856 14.54C199.549 14.9667 199.129 15.36 198.596 15.72C198.076 16.0667 197.409 16.24 196.596 16.24ZM196.996 14.64C197.502 14.64 197.982 14.52 198.436 14.28C198.889 14.0267 199.269 13.7133 199.576 13.34V7.76C199.216 7.50667 198.816 7.30667 198.376 7.16C197.949 7 197.496 6.92 197.016 6.92C196.376 6.92 195.809 7.08667 195.316 7.42C194.836 7.74 194.456 8.19333 194.176 8.78C193.896 9.35333 193.756 10.0267 193.756 10.8C193.756 11.5467 193.896 12.2133 194.176 12.8C194.456 13.3733 194.842 13.8267 195.336 14.16C195.829 14.48 196.382 14.64 196.996 14.64ZM204.959 16V5.6H206.699V7.34C207.073 6.78 207.546 6.31333 208.119 5.94C208.706 5.55333 209.399 5.36 210.199 5.36C211.373 5.36 212.246 5.71333 212.819 6.42C213.406 7.12667 213.699 8.06 213.699 9.22V16H211.899V9.42C211.899 8.67333 211.719 8.07333 211.359 7.62C211.013 7.16667 210.526 6.94 209.899 6.94C209.286 6.94 208.706 7.16 208.159 7.6C207.613 8.02667 207.146 8.53333 206.759 9.12V16H204.959ZM222.991 16V2.04C223.538 1.97333 224.138 1.92667 224.791 1.9C225.458 1.86 226.145 1.84 226.851 1.84C228.011 1.84 228.998 2.02667 229.811 2.4C230.625 2.76 231.245 3.26 231.671 3.9C232.098 4.54 232.311 5.27333 232.311 6.1C232.311 7.1 232.065 7.94667 231.571 8.64C231.078 9.33333 230.391 9.86667 229.511 10.24C228.631 10.6 227.611 10.78 226.451 10.78C225.891 10.78 225.371 10.76 224.891 10.72V16H222.991ZM226.691 9.2C227.878 9.2 228.798 8.93333 229.451 8.4C230.105 7.86667 230.431 7.15333 230.431 6.26C230.431 5.39333 230.118 4.70667 229.491 4.2C228.865 3.69333 227.971 3.44 226.811 3.44C226.451 3.44 226.111 3.44667 225.791 3.46C225.471 3.47333 225.171 3.49333 224.891 3.52V9.1C225.105 9.12667 225.365 9.15333 225.671 9.18C225.978 9.19333 226.318 9.2 226.691 9.2ZM238.5 16.24C237.513 16.24 236.626 16.0133 235.84 15.56C235.053 15.0933 234.433 14.4533 233.98 13.64C233.54 12.8133 233.32 11.8667 233.32 10.8C233.32 9.68 233.546 8.71333 234 7.9C234.453 7.08667 235.073 6.46 235.86 6.02C236.646 5.58 237.526 5.36 238.5 5.36C239.473 5.36 240.346 5.58 241.12 6.02C241.906 6.46 242.526 7.08667 242.98 7.9C243.446 8.7 243.68 9.65333 243.68 10.76C243.68 11.8667 243.453 12.8333 243 13.66C242.546 14.4733 241.926 15.1067 241.14 15.56C240.366 16.0133 239.486 16.24 238.5 16.24ZM238.5 14.64C239.553 14.64 240.373 14.2867 240.96 13.58C241.546 12.86 241.84 11.9333 241.84 10.8C241.84 10.1067 241.693 9.47333 241.4 8.9C241.106 8.31333 240.706 7.84667 240.2 7.5C239.706 7.14 239.14 6.96 238.5 6.96C237.446 6.96 236.626 7.30667 236.04 8C235.453 8.69333 235.16 9.61333 235.16 10.76C235.16 11.4533 235.306 12.1 235.6 12.7C235.893 13.2867 236.286 13.76 236.78 14.12C237.286 14.4667 237.86 14.64 238.5 14.64ZM249.233 16.24C248.619 16.24 248.066 16.1267 247.573 15.9C247.079 15.66 246.686 15.28 246.393 14.76C246.113 14.24 245.973 13.5667 245.973 12.74V1.2H247.773V12.56C247.773 13.28 247.919 13.8133 248.213 14.16C248.519 14.5067 248.939 14.68 249.473 14.68C249.726 14.68 249.973 14.6533 250.213 14.6C250.466 14.5333 250.679 14.46 250.853 14.38L251.293 15.84C251.053 15.9467 250.753 16.04 250.393 16.12C250.046 16.2 249.659 16.24 249.233 16.24ZM256.674 16.24C255.807 16.24 255.02 16.02 254.314 15.58C253.607 15.14 253.04 14.52 252.614 13.72C252.2 12.9067 251.994 11.9533 251.994 10.86C251.994 9.82 252.2 8.88667 252.614 8.06C253.04 7.23333 253.62 6.58 254.354 6.1C255.1 5.60667 255.954 5.36 256.914 5.36C257.514 5.36 258.054 5.46667 258.534 5.68C259.027 5.88 259.454 6.13333 259.814 6.44V5.6H261.454V13.48C261.454 13.9867 261.574 14.32 261.814 14.48C262.067 14.6267 262.34 14.7 262.634 14.7L262.254 16.1C260.974 16.1 260.2 15.58 259.934 14.54C259.627 14.9667 259.207 15.36 258.674 15.72C258.154 16.0667 257.487 16.24 256.674 16.24ZM257.074 14.64C257.58 14.64 258.06 14.52 258.514 14.28C258.967 14.0267 259.347 13.7133 259.654 13.34V7.76C259.294 7.50667 258.894 7.30667 258.454 7.16C258.027 7 257.574 6.92 257.094 6.92C256.454 6.92 255.887 7.08667 255.394 7.42C254.914 7.74 254.534 8.19333 254.254 8.78C253.974 9.35333 253.834 10.0267 253.834 10.8C253.834 11.5467 253.974 12.2133 254.254 12.8C254.534 13.3733 254.92 13.8267 255.414 14.16C255.907 14.48 256.46 14.64 257.074 14.64ZM265.038 16V5.6H266.778V7.34C267.151 6.78 267.624 6.31333 268.198 5.94C268.784 5.55333 269.478 5.36 270.278 5.36C271.451 5.36 272.324 5.71333 272.898 6.42C273.484 7.12667 273.778 8.06 273.778 9.22V16H271.978V9.42C271.978 8.67333 271.798 8.07333 271.438 7.62C271.091 7.16667 270.604 6.94 269.978 6.94C269.364 6.94 268.784 7.16 268.238 7.6C267.691 8.02667 267.224 8.53333 266.838 9.12V16H265.038ZM267.878 4.5L267.258 3.28L271.038 0.779999L271.878 2.46L267.878 4.5ZM279.673 16.24C278.887 16.24 278.173 16.14 277.533 15.94C276.907 15.74 276.387 15.48 275.973 15.16L276.733 13.66C277.08 13.9533 277.513 14.2 278.033 14.4C278.567 14.5867 279.133 14.68 279.733 14.68C280.48 14.68 281.04 14.56 281.413 14.32C281.8 14.0667 281.993 13.7467 281.993 13.36C281.993 13.08 281.92 12.8333 281.773 12.62C281.64 12.4067 281.387 12.2 281.013 12C280.64 11.7867 280.1 11.56 279.393 11.32C278.42 10.9867 277.687 10.5933 277.193 10.14C276.713 9.67333 276.473 9.03333 276.473 8.22C276.473 7.42 276.82 6.74667 277.513 6.2C278.22 5.64 279.193 5.36 280.433 5.36C281.1 5.36 281.693 5.43333 282.213 5.58C282.733 5.71333 283.2 5.88667 283.613 6.1L283.113 7.58C282.753 7.36667 282.34 7.19333 281.873 7.06C281.42 6.92667 280.913 6.86 280.353 6.86C279.66 6.86 279.133 7 278.773 7.28C278.413 7.56 278.233 7.86667 278.233 8.2C278.233 8.52 278.373 8.79333 278.653 9.02C278.933 9.24667 279.48 9.49333 280.293 9.76C281.613 10.2 282.533 10.6867 283.053 11.22C283.573 11.7533 283.833 12.42 283.833 13.22C283.833 14.1533 283.453 14.8933 282.693 15.44C281.947 15.9733 280.94 16.24 279.673 16.24ZM293.409 16.2L288.029 10.66V16H286.229V1.2H288.029V9.66L292.729 5.4L293.769 6.54L289.749 10.1L294.649 15L293.409 16.2ZM296.444 16V5.6H298.244V16H296.444ZM297.344 3.82C296.997 3.82 296.697 3.69333 296.444 3.44C296.204 3.18667 296.084 2.89333 296.084 2.56C296.084 2.17333 296.197 1.86667 296.424 1.64C296.65 1.41333 296.957 1.3 297.344 1.3C297.69 1.3 297.984 1.42667 298.224 1.68C298.477 1.92 298.604 2.21333 298.604 2.56C298.604 2.93333 298.49 3.24 298.264 3.48C298.037 3.70667 297.73 3.82 297.344 3.82ZM301.424 19.2L300.444 18.64C300.977 17.96 301.404 17.2733 301.724 16.58C302.057 15.8867 302.31 15.0933 302.484 14.2L304.244 14.7C304.11 15.7133 303.79 16.6 303.284 17.36C302.79 18.12 302.17 18.7333 301.424 19.2ZM323.256 16.2L321.696 12.2H315.216L313.656 16.16L312.036 15.5L317.516 2H319.596L324.996 15.5L323.256 16.2ZM315.816 10.6H321.076L318.456 3.88L315.816 10.6ZM330.615 20.64C330.002 20.64 329.402 20.5667 328.815 20.42C328.242 20.2733 327.729 20.0533 327.275 19.76L327.935 18.2C328.255 18.4533 328.629 18.66 329.055 18.82C329.482 18.9933 330.002 19.08 330.615 19.08C331.562 19.08 332.302 18.8267 332.835 18.32C333.382 17.8267 333.655 17.0333 333.655 15.94V14.66C333.389 14.98 333.002 15.2867 332.495 15.58C332.002 15.86 331.409 16 330.715 16C329.929 16 329.182 15.8 328.475 15.4C327.769 14.9867 327.195 14.3867 326.755 13.6C326.315 12.8133 326.095 11.8667 326.095 10.76C326.095 9.72 326.309 8.79333 326.735 7.98C327.175 7.16667 327.762 6.52667 328.495 6.06C329.229 5.59333 330.035 5.36 330.915 5.36C331.502 5.36 332.035 5.46 332.515 5.66C332.995 5.86 333.409 6.10667 333.755 6.4V5.6H335.395V15.76C335.395 16.9067 335.195 17.84 334.795 18.56C334.395 19.28 333.835 19.8067 333.115 20.14C332.409 20.4733 331.575 20.64 330.615 20.64ZM331.115 14.4C331.649 14.4 332.129 14.28 332.555 14.04C332.982 13.8 333.329 13.52 333.595 13.2V7.76C333.302 7.54667 332.949 7.35333 332.535 7.18C332.122 7.00667 331.642 6.92 331.095 6.92C330.549 6.92 330.035 7.06667 329.555 7.36C329.075 7.65333 328.682 8.08 328.375 8.64C328.082 9.18667 327.935 9.86 327.935 10.66C327.935 11.42 328.082 12.08 328.375 12.64C328.682 13.2 329.075 13.6333 329.555 13.94C330.035 14.2467 330.555 14.4 331.115 14.4ZM338.495 16V5.6H340.235V7.34C340.608 6.78 341.081 6.31333 341.655 5.94C342.241 5.55333 342.935 5.36 343.735 5.36C344.908 5.36 345.781 5.71333 346.355 6.42C346.941 7.12667 347.235 8.06 347.235 9.22V16H345.435V9.42C345.435 8.67333 345.255 8.07333 344.895 7.62C344.548 7.16667 344.061 6.94 343.435 6.94C342.821 6.94 342.241 7.16 341.695 7.6C341.148 8.02667 340.681 8.53333 340.295 9.12V16H338.495ZM350.33 16V5.6H352.13V16H350.33ZM351.23 3.82C350.884 3.82 350.584 3.69333 350.33 3.44C350.09 3.18667 349.97 2.89333 349.97 2.56C349.97 2.17333 350.084 1.86667 350.31 1.64C350.537 1.41333 350.844 1.3 351.23 1.3C351.577 1.3 351.87 1.42667 352.11 1.68C352.364 1.92 352.49 2.21333 352.49 2.56C352.49 2.93333 352.377 3.24 352.15 3.48C351.924 3.70667 351.617 3.82 351.23 3.82ZM359.49 16.24C357.997 16.24 356.81 15.7667 355.93 14.82C355.064 13.86 354.63 12.52 354.63 10.8C354.63 9.76 354.824 8.83333 355.21 8.02C355.61 7.19333 356.164 6.54667 356.87 6.08C357.577 5.6 358.397 5.36 359.33 5.36C360.33 5.36 361.157 5.58 361.81 6.02C362.477 6.44667 362.977 7.02667 363.31 7.76C363.644 8.49333 363.81 9.3 363.81 10.18C363.81 10.6467 363.79 11.1 363.75 11.54H356.47C356.59 12.5133 356.93 13.2733 357.49 13.82C358.05 14.3667 358.79 14.64 359.71 14.64C360.31 14.64 360.85 14.58 361.33 14.46C361.81 14.3267 362.27 14.16 362.71 13.96L363.13 15.5C362.65 15.7133 362.11 15.8867 361.51 16.02C360.91 16.1667 360.237 16.24 359.49 16.24ZM356.45 10.08H362.15C362.15 9.06667 361.897 8.28667 361.39 7.74C360.884 7.19333 360.184 6.92 359.29 6.92C358.517 6.92 357.877 7.19333 357.37 7.74C356.864 8.27333 356.557 9.05333 356.45 10.08ZM369.009 16.24C368.223 16.24 367.509 16.14 366.869 15.94C366.243 15.74 365.723 15.48 365.309 15.16L366.069 13.66C366.416 13.9533 366.849 14.2 367.369 14.4C367.903 14.5867 368.469 14.68 369.069 14.68C369.816 14.68 370.376 14.56 370.749 14.32C371.136 14.0667 371.329 13.7467 371.329 13.36C371.329 13.08 371.256 12.8333 371.109 12.62C370.976 12.4067 370.723 12.2 370.349 12C369.976 11.7867 369.436 11.56 368.729 11.32C367.756 10.9867 367.023 10.5933 366.529 10.14C366.049 9.67333 365.809 9.03333 365.809 8.22C365.809 7.42 366.156 6.74667 366.849 6.2C367.556 5.64 368.529 5.36 369.769 5.36C370.436 5.36 371.029 5.43333 371.549 5.58C372.069 5.71333 372.536 5.88667 372.949 6.1L372.449 7.58C372.089 7.36667 371.676 7.19333 371.209 7.06C370.756 6.92667 370.249 6.86 369.689 6.86C368.996 6.86 368.469 7 368.109 7.28C367.749 7.56 367.569 7.86667 367.569 8.2C367.569 8.52 367.709 8.79333 367.989 9.02C368.269 9.24667 368.816 9.49333 369.629 9.76C370.949 10.2 371.869 10.6867 372.389 11.22C372.909 11.7533 373.169 12.42 373.169 13.22C373.169 14.1533 372.789 14.8933 372.029 15.44C371.283 15.9733 370.276 16.24 369.009 16.24ZM374.665 16V14.58L380.405 7.16H374.785V5.6H382.605V6.98L376.885 14.4H382.705V16H374.665ZM392.178 16.2L386.798 10.66V16H384.998V1.2H386.798V9.66L391.498 5.4L392.538 6.54L388.518 10.1L393.418 15L392.178 16.2ZM398.9 16.24C398.034 16.24 397.247 16.02 396.54 15.58C395.834 15.14 395.267 14.52 394.84 13.72C394.427 12.9067 394.22 11.9533 394.22 10.86C394.22 9.82 394.427 8.88667 394.84 8.06C395.267 7.23333 395.847 6.58 396.58 6.1C397.327 5.60667 398.18 5.36 399.14 5.36C399.74 5.36 400.28 5.46667 400.76 5.68C401.254 5.88 401.68 6.13333 402.04 6.44V5.6H403.68V13.48C403.68 13.9867 403.8 14.32 404.04 14.48C404.294 14.6267 404.567 14.7 404.86 14.7L404.48 16.1C403.2 16.1 402.427 15.58 402.16 14.54C401.854 14.9667 401.434 15.36 400.9 15.72C400.38 16.0667 399.714 16.24 398.9 16.24ZM399.3 14.64C399.807 14.64 400.287 14.52 400.74 14.28C401.194 14.0267 401.574 13.7133 401.88 13.34V7.76C401.52 7.50667 401.12 7.30667 400.68 7.16C400.254 7 399.8 6.92 399.32 6.92C398.68 6.92 398.114 7.08667 397.62 7.42C397.14 7.74 396.76 8.19333 396.48 8.78C396.2 9.35333 396.06 10.0267 396.06 10.8C396.06 11.5467 396.2 12.2133 396.48 12.8C396.76 13.3733 397.147 13.8267 397.64 14.16C398.134 14.48 398.687 14.64 399.3 14.64ZM413.46 16V2H415.36V7.98H422.26V2H424.16V16H422.26V9.62H415.36V16H413.46ZM431.937 16.24C430.95 16.24 430.064 16.0133 429.277 15.56C428.49 15.0933 427.87 14.4533 427.417 13.64C426.977 12.8133 426.757 11.8667 426.757 10.8C426.757 9.68 426.984 8.71333 427.437 7.9C427.89 7.08667 428.51 6.46 429.297 6.02C430.084 5.58 430.964 5.36 431.937 5.36C432.91 5.36 433.784 5.58 434.557 6.02C435.344 6.46 435.964 7.08667 436.417 7.9C436.884 8.7 437.117 9.65333 437.117 10.76C437.117 11.8667 436.89 12.8333 436.437 13.66C435.984 14.4733 435.364 15.1067 434.577 15.56C433.804 16.0133 432.924 16.24 431.937 16.24ZM431.937 14.64C432.99 14.64 433.81 14.2867 434.397 13.58C434.984 12.86 435.277 11.9333 435.277 10.8C435.277 10.1067 435.13 9.47333 434.837 8.9C434.544 8.31333 434.144 7.84667 433.637 7.5C433.144 7.14 432.577 6.96 431.937 6.96C430.884 6.96 430.064 7.30667 429.477 8C428.89 8.69333 428.597 9.61333 428.597 10.76C428.597 11.4533 428.744 12.1 429.037 12.7C429.33 13.2867 429.724 13.76 430.217 14.12C430.724 14.4667 431.297 14.64 431.937 14.64ZM442.67 16.24C442.057 16.24 441.503 16.1267 441.01 15.9C440.517 15.66 440.123 15.28 439.83 14.76C439.55 14.24 439.41 13.5667 439.41 12.74V1.2H441.21V12.56C441.21 13.28 441.357 13.8133 441.65 14.16C441.957 14.5067 442.377 14.68 442.91 14.68C443.163 14.68 443.41 14.6533 443.65 14.6C443.903 14.5333 444.117 14.46 444.29 14.38L444.73 15.84C444.49 15.9467 444.19 16.04 443.83 16.12C443.483 16.2 443.097 16.24 442.67 16.24ZM449.389 16.24C448.776 16.24 448.222 16.1267 447.729 15.9C447.236 15.66 446.842 15.28 446.549 14.76C446.269 14.24 446.129 13.5667 446.129 12.74V1.2H447.929V12.56C447.929 13.28 448.076 13.8133 448.369 14.16C448.676 14.5067 449.096 14.68 449.629 14.68C449.882 14.68 450.129 14.6533 450.369 14.6C450.622 14.5333 450.836 14.46 451.009 14.38L451.449 15.84C451.209 15.9467 450.909 16.04 450.549 16.12C450.202 16.2 449.816 16.24 449.389 16.24ZM456.83 16.24C455.963 16.24 455.177 16.02 454.47 15.58C453.763 15.14 453.197 14.52 452.77 13.72C452.357 12.9067 452.15 11.9533 452.15 10.86C452.15 9.82 452.357 8.88667 452.77 8.06C453.197 7.23333 453.777 6.58 454.51 6.1C455.257 5.60667 456.11 5.36 457.07 5.36C457.67 5.36 458.21 5.46667 458.69 5.68C459.183 5.88 459.61 6.13333 459.97 6.44V5.6H461.61V13.48C461.61 13.9867 461.73 14.32 461.97 14.48C462.223 14.6267 462.497 14.7 462.79 14.7L462.41 16.1C461.13 16.1 460.357 15.58 460.09 14.54C459.783 14.9667 459.363 15.36 458.83 15.72C458.31 16.0667 457.643 16.24 456.83 16.24ZM457.23 14.64C457.737 14.64 458.217 14.52 458.67 14.28C459.123 14.0267 459.503 13.7133 459.81 13.34V7.76C459.45 7.50667 459.05 7.30667 458.61 7.16C458.183 7 457.73 6.92 457.25 6.92C456.61 6.92 456.043 7.08667 455.55 7.42C455.07 7.74 454.69 8.19333 454.41 8.78C454.13 9.35333 453.99 10.0267 453.99 10.8C453.99 11.5467 454.13 12.2133 454.41 12.8C454.69 13.3733 455.077 13.8267 455.57 14.16C456.063 14.48 456.617 14.64 457.23 14.64ZM465.194 16V5.6H466.934V7.34C467.307 6.78 467.78 6.31333 468.354 5.94C468.94 5.55333 469.634 5.36 470.434 5.36C471.607 5.36 472.48 5.71333 473.054 6.42C473.64 7.12667 473.934 8.06 473.934 9.22V16H472.134V9.42C472.134 8.67333 471.954 8.07333 471.594 7.62C471.247 7.16667 470.76 6.94 470.134 6.94C469.52 6.94 468.94 7.16 468.394 7.6C467.847 8.02667 467.38 8.53333 466.994 9.12V16H465.194ZM480.97 16.24C480.116 16.24 479.336 16.02 478.63 15.58C477.923 15.14 477.363 14.52 476.95 13.72C476.536 12.9067 476.33 11.9533 476.33 10.86C476.33 9.80667 476.536 8.86667 476.95 8.04C477.376 7.21333 477.936 6.56 478.63 6.08C479.336 5.6 480.11 5.36 480.95 5.36C481.643 5.36 482.236 5.5 482.73 5.78C483.236 6.06 483.63 6.34667 483.91 6.64V1.2H485.71V13.48C485.71 13.9867 485.83 14.32 486.07 14.48C486.323 14.6267 486.596 14.7 486.89 14.7L486.51 16.1C485.243 16.1 484.47 15.5933 484.19 14.58C483.896 14.9933 483.483 15.3733 482.95 15.72C482.43 16.0667 481.77 16.24 480.97 16.24ZM481.37 14.64C481.863 14.64 482.33 14.5267 482.77 14.3C483.223 14.06 483.603 13.7533 483.91 13.38V8.22C483.656 7.9 483.303 7.60667 482.85 7.34C482.396 7.06 481.896 6.92 481.35 6.92C480.71 6.92 480.15 7.09333 479.67 7.44C479.19 7.78667 478.816 8.25333 478.55 8.84C478.296 9.41333 478.17 10.0667 478.17 10.8C478.17 11.5333 478.31 12.1933 478.59 12.78C478.87 13.3533 479.25 13.8067 479.73 14.14C480.223 14.4733 480.77 14.64 481.37 14.64ZM489.275 19.2L488.295 18.64C488.829 17.96 489.255 17.2733 489.575 16.58C489.909 15.8867 490.162 15.0933 490.335 14.2L492.095 14.7C491.962 15.7133 491.642 16.6 491.135 17.36C490.642 18.12 490.022 18.7333 489.275 19.2ZM501.488 16V2.04C502.034 1.97333 502.634 1.92667 503.288 1.9C503.954 1.86 504.641 1.84 505.348 1.84C506.508 1.84 507.494 2.02667 508.308 2.4C509.121 2.76 509.741 3.26 510.168 3.9C510.594 4.54 510.808 5.27333 510.808 6.1C510.808 7.1 510.561 7.94667 510.068 8.64C509.574 9.33333 508.888 9.86667 508.008 10.24C507.128 10.6 506.108 10.78 504.948 10.78C504.388 10.78 503.868 10.76 503.388 10.72V16H501.488ZM505.188 9.2C506.374 9.2 507.294 8.93333 507.948 8.4C508.601 7.86667 508.928 7.15333 508.928 6.26C508.928 5.39333 508.614 4.70667 507.988 4.2C507.361 3.69333 506.468 3.44 505.308 3.44C504.948 3.44 504.608 3.44667 504.288 3.46C503.968 3.47333 503.668 3.49333 503.388 3.52V9.1C503.601 9.12667 503.861 9.15333 504.168 9.18C504.474 9.19333 504.814 9.2 505.188 9.2ZM516.596 16.24C515.729 16.24 514.942 16.02 514.236 15.58C513.529 15.14 512.962 14.52 512.536 13.72C512.122 12.9067 511.916 11.9533 511.916 10.86C511.916 9.82 512.122 8.88667 512.536 8.06C512.962 7.23333 513.542 6.58 514.276 6.1C515.022 5.60667 515.876 5.36 516.836 5.36C517.436 5.36 517.976 5.46667 518.456 5.68C518.949 5.88 519.376 6.13333 519.736 6.44V5.6H521.376V13.48C521.376 13.9867 521.496 14.32 521.736 14.48C521.989 14.6267 522.262 14.7 522.556 14.7L522.176 16.1C520.896 16.1 520.122 15.58 519.856 14.54C519.549 14.9667 519.129 15.36 518.596 15.72C518.076 16.0667 517.409 16.24 516.596 16.24ZM516.996 14.64C517.502 14.64 517.982 14.52 518.436 14.28C518.889 14.0267 519.269 13.7133 519.576 13.34V7.76C519.216 7.50667 518.816 7.30667 518.376 7.16C517.949 7 517.496 6.92 517.016 6.92C516.376 6.92 515.809 7.08667 515.316 7.42C514.836 7.74 514.456 8.19333 514.176 8.78C513.896 9.35333 513.756 10.0267 513.756 10.8C513.756 11.5467 513.896 12.2133 514.176 12.8C514.456 13.3733 514.842 13.8267 515.336 14.16C515.829 14.48 516.382 14.64 516.996 14.64ZM526.944 16L523.664 6.08L525.324 5.5L528.004 13.96L530.444 6.34H532.384L534.764 13.96L537.424 5.5L539.024 6.08L535.724 16H533.744L531.344 8.26L528.924 16H526.944ZM545.096 16.24C543.603 16.24 542.416 15.7667 541.536 14.82C540.669 13.86 540.236 12.52 540.236 10.8C540.236 9.76 540.429 8.83333 540.816 8.02C541.216 7.19333 541.769 6.54667 542.476 6.08C543.183 5.6 544.003 5.36 544.936 5.36C545.936 5.36 546.763 5.58 547.416 6.02C548.083 6.44667 548.583 7.02667 548.916 7.76C549.249 8.49333 549.416 9.3 549.416 10.18C549.416 10.6467 549.396 11.1 549.356 11.54H542.076C542.196 12.5133 542.536 13.2733 543.096 13.82C543.656 14.3667 544.396 14.64 545.316 14.64C545.916 14.64 546.456 14.58 546.936 14.46C547.416 14.3267 547.876 14.16 548.316 13.96L548.736 15.5C548.256 15.7133 547.716 15.8867 547.116 16.02C546.516 16.1667 545.843 16.24 545.096 16.24ZM542.056 10.08H547.756C547.756 9.06667 547.503 8.28667 546.996 7.74C546.489 7.19333 545.789 6.92 544.896 6.92C544.123 6.92 543.483 7.19333 542.976 7.74C542.469 8.27333 542.163 9.05333 542.056 10.08ZM555.275 16.24C554.662 16.24 554.108 16.1267 553.615 15.9C553.122 15.66 552.728 15.28 552.435 14.76C552.155 14.24 552.015 13.5667 552.015 12.74V9.68L550.835 10.22L550.215 8.88L552.015 8.04V1.2H553.815V7.22L556.315 6.06L556.935 7.4L553.815 8.84V12.56C553.815 13.28 553.962 13.8133 554.255 14.16C554.562 14.5067 554.982 14.68 555.515 14.68C555.768 14.68 556.015 14.6533 556.255 14.6C556.508 14.5333 556.722 14.46 556.895 14.38L557.335 15.84C557.095 15.9467 556.795 16.04 556.435 16.12C556.088 16.2 555.702 16.24 555.275 16.24ZM1.8 44V30.04C2.34667 29.9733 2.94667 29.9267 3.6 29.9C4.26667 29.86 4.95333 29.84 5.66 29.84C6.82 29.84 7.80667 30.0267 8.62 30.4C9.43333 30.76 10.0533 31.26 10.48 31.9C10.9067 32.54 11.12 33.2733 11.12 34.1C11.12 35.1 10.8733 35.9467 10.38 36.64C9.88667 37.3333 9.2 37.8667 8.32 38.24C7.44 38.6 6.42 38.78 5.26 38.78C4.7 38.78 4.18 38.76 3.7 38.72V44H1.8ZM5.5 37.2C6.68667 37.2 7.60667 36.9333 8.26 36.4C8.91333 35.8667 9.24 35.1533 9.24 34.26C9.24 33.3933 8.92667 32.7067 8.3 32.2C7.67333 31.6933 6.78 31.44 5.62 31.44C5.26 31.44 4.92 31.4467 4.6 31.46C4.28 31.4733 3.98 31.4933 3.7 31.52V37.1C3.91333 37.1267 4.17333 37.1533 4.48 37.18C4.78667 37.1933 5.12667 37.2 5.5 37.2ZM16.9081 44.24C16.0415 44.24 15.2548 44.02 14.5481 43.58C13.8415 43.14 13.2748 42.52 12.8481 41.72C12.4348 40.9067 12.2281 39.9533 12.2281 38.86C12.2281 37.82 12.4348 36.8867 12.8481 36.06C13.2748 35.2333 13.8548 34.58 14.5881 34.1C15.3348 33.6067 16.1881 33.36 17.1481 33.36C17.7481 33.36 18.2881 33.4667 18.7681 33.68C19.2615 33.88 19.6881 34.1333 20.0481 34.44V33.6H21.6881V41.48C21.6881 41.9867 21.8081 42.32 22.0481 42.48C22.3015 42.6267 22.5748 42.7 22.8681 42.7L22.4881 44.1C21.2081 44.1 20.4348 43.58 20.1681 42.54C19.8615 42.9667 19.4415 43.36 18.9081 43.72C18.3881 44.0667 17.7215 44.24 16.9081 44.24ZM17.3081 42.64C17.8148 42.64 18.2948 42.52 18.7481 42.28C19.2015 42.0267 19.5815 41.7133 19.8881 41.34V35.76C19.5281 35.5067 19.1281 35.3067 18.6881 35.16C18.2615 35 17.8081 34.92 17.3281 34.92C16.6881 34.92 16.1215 35.0867 15.6281 35.42C15.1481 35.74 14.7681 36.1933 14.4881 36.78C14.2081 37.3533 14.0681 38.0267 14.0681 38.8C14.0681 39.5467 14.2081 40.2133 14.4881 40.8C14.7681 41.3733 15.1548 41.8267 15.6481 42.16C16.1415 42.48 16.6948 42.64 17.3081 42.64ZM27.2566 44L23.9766 34.08L25.6366 33.5L28.3166 41.96L30.7566 34.34H32.6966L35.0766 41.96L37.7366 33.5L39.3366 34.08L36.0366 44H34.0566L31.6566 36.26L29.2366 44H27.2566ZM44.6038 44.24C43.9904 44.24 43.4371 44.1267 42.9438 43.9C42.4504 43.66 42.0571 43.28 41.7638 42.76C41.4838 42.24 41.3438 41.5667 41.3438 40.74V29.2H43.1438V40.56C43.1438 41.28 43.2904 41.8133 43.5838 42.16C43.8904 42.5067 44.3104 42.68 44.8438 42.68C45.0971 42.68 45.3438 42.6533 45.5838 42.6C45.8371 42.5333 46.0504 42.46 46.2238 42.38L46.6638 43.84C46.4238 43.9467 46.1238 44.04 45.7638 44.12C45.4171 44.2 45.0304 44.24 44.6038 44.24ZM48.3578 44V33.6H50.1578V44H48.3578ZM49.2578 31.82C48.9111 31.82 48.6111 31.6933 48.3578 31.44C48.1178 31.1867 47.9978 30.8933 47.9978 30.56C47.9978 30.1733 48.1111 29.8667 48.3378 29.64C48.5645 29.4133 48.8711 29.3 49.2578 29.3C49.6045 29.3 49.8978 29.4267 50.1378 29.68C50.3911 29.92 50.5178 30.2133 50.5178 30.56C50.5178 30.9333 50.4045 31.24 50.1778 31.48C49.9511 31.7067 49.6445 31.82 49.2578 31.82ZM60.5378 44.2L55.1578 38.66V44H53.3578V29.2H55.1578V37.66L59.8578 33.4L60.8978 34.54L56.8778 38.1L61.7778 43L60.5378 44.2ZM67.6597 44.24C66.673 44.24 65.7864 44.0133 64.9997 43.56C64.213 43.0933 63.593 42.4533 63.1397 41.64C62.6997 40.8133 62.4797 39.8667 62.4797 38.8C62.4797 37.68 62.7064 36.7133 63.1597 35.9C63.613 35.0867 64.233 34.46 65.0197 34.02C65.8064 33.58 66.6864 33.36 67.6597 33.36C68.633 33.36 69.5064 33.58 70.2797 34.02C71.0664 34.46 71.6864 35.0867 72.1397 35.9C72.6064 36.7 72.8397 37.6533 72.8397 38.76C72.8397 39.8667 72.613 40.8333 72.1597 41.66C71.7064 42.4733 71.0864 43.1067 70.2997 43.56C69.5264 44.0133 68.6464 44.24 67.6597 44.24ZM67.6597 42.64C68.713 42.64 69.533 42.2867 70.1197 41.58C70.7064 40.86 70.9997 39.9333 70.9997 38.8C70.9997 38.1067 70.853 37.4733 70.5597 36.9C70.2664 36.3133 69.8664 35.8467 69.3597 35.5C68.8664 35.14 68.2997 34.96 67.6597 34.96C66.6064 34.96 65.7864 35.3067 65.1997 36C64.613 36.6933 64.3197 37.6133 64.3197 38.76C64.3197 39.4533 64.4664 40.1 64.7597 40.7C65.053 41.2867 65.4464 41.76 65.9397 42.12C66.4464 42.4667 67.0197 42.64 67.6597 42.64ZM77.2175 44L73.9375 34.08L75.5975 33.5L78.2775 41.96L80.7175 34.34H82.6575L85.0375 41.96L87.6975 33.5L89.2975 34.08L85.9975 44H84.0175L81.6175 36.26L79.1975 44H77.2175ZM94.2047 44.24C93.418 44.24 92.7047 44.14 92.0647 43.94C91.438 43.74 90.918 43.48 90.5047 43.16L91.2647 41.66C91.6114 41.9533 92.0447 42.2 92.5647 42.4C93.098 42.5867 93.6647 42.68 94.2647 42.68C95.0114 42.68 95.5714 42.56 95.9447 42.32C96.3314 42.0667 96.5247 41.7467 96.5247 41.36C96.5247 41.08 96.4514 40.8333 96.3047 40.62C96.1714 40.4067 95.918 40.2 95.5447 40C95.1714 39.7867 94.6314 39.56 93.9247 39.32C92.9514 38.9867 92.218 38.5933 91.7247 38.14C91.2447 37.6733 91.0047 37.0333 91.0047 36.22C91.0047 35.42 91.3514 34.7467 92.0447 34.2C92.7514 33.64 93.7247 33.36 94.9647 33.36C95.6314 33.36 96.2247 33.4333 96.7447 33.58C97.2647 33.7133 97.7314 33.8867 98.1447 34.1L97.6447 35.58C97.2847 35.3667 96.8714 35.1933 96.4047 35.06C95.9514 34.9267 95.4447 34.86 94.8847 34.86C94.1914 34.86 93.6647 35 93.3047 35.28C92.9447 35.56 92.7647 35.8667 92.7647 36.2C92.7647 36.52 92.9047 36.7933 93.1847 37.02C93.4647 37.2467 94.0114 37.4933 94.8247 37.76C96.1447 38.2 97.0647 38.6867 97.5847 39.22C98.1047 39.7533 98.3647 40.42 98.3647 41.22C98.3647 42.1533 97.9847 42.8933 97.2247 43.44C96.478 43.9733 95.4714 44.24 94.2047 44.24ZM107.94 44.2L102.56 38.66V44H100.76V29.2H102.56V37.66L107.26 33.4L108.3 34.54L104.28 38.1L109.18 43L107.94 44.2ZM110.975 44V33.6H112.775V44H110.975ZM111.875 31.82C111.528 31.82 111.228 31.6933 110.975 31.44C110.735 31.1867 110.615 30.8933 110.615 30.56C110.615 30.1733 110.728 29.8667 110.955 29.64C111.182 29.4133 111.488 29.3 111.875 29.3C112.222 29.3 112.515 29.4267 112.755 29.68C113.008 29.92 113.135 30.2133 113.135 30.56C113.135 30.9333 113.022 31.24 112.795 31.48C112.568 31.7067 112.262 31.82 111.875 31.82ZM122.175 44.24C121.815 44.24 121.502 44.1067 121.235 43.84C120.968 43.5733 120.835 43.26 120.835 42.9C120.835 42.4867 120.955 42.16 121.195 41.92C121.435 41.68 121.762 41.56 122.175 41.56C122.522 41.56 122.828 41.6933 123.095 41.96C123.375 42.2267 123.515 42.54 123.515 42.9C123.515 43.3 123.388 43.6267 123.135 43.88C122.882 44.12 122.562 44.24 122.175 44.24ZM117.375 44.24C117.015 44.24 116.702 44.1067 116.435 43.84C116.168 43.5733 116.035 43.26 116.035 42.9C116.035 42.4867 116.155 42.16 116.395 41.92C116.635 41.68 116.962 41.56 117.375 41.56C117.722 41.56 118.028 41.6933 118.295 41.96C118.575 42.2267 118.715 42.54 118.715 42.9C118.715 43.3 118.588 43.6267 118.335 43.88C118.082 44.12 117.762 44.24 117.375 44.24ZM126.975 44.24C126.615 44.24 126.302 44.1067 126.035 43.84C125.768 43.5733 125.635 43.26 125.635 42.9C125.635 42.4867 125.755 42.16 125.995 41.92C126.235 41.68 126.562 41.56 126.975 41.56C127.322 41.56 127.628 41.6933 127.895 41.96C128.175 42.2267 128.315 42.54 128.315 42.9C128.315 43.3 128.188 43.6267 127.935 43.88C127.682 44.12 127.362 44.24 126.975 44.24ZM141.457 44.16C140.697 44.16 140.03 44.14 139.457 44.1C138.897 44.06 138.337 44.0133 137.777 43.96V30.04C138.403 29.9733 139.017 29.9267 139.617 29.9C140.217 29.86 140.903 29.84 141.677 29.84C142.877 29.84 143.91 30.0267 144.777 30.4C145.657 30.7733 146.377 31.2867 146.937 31.94C147.51 32.5933 147.93 33.3533 148.197 34.22C148.477 35.0733 148.617 35.9933 148.617 36.98C148.617 37.9533 148.477 38.8733 148.197 39.74C147.917 40.6067 147.483 41.3733 146.897 42.04C146.323 42.6933 145.583 43.2133 144.677 43.6C143.783 43.9733 142.71 44.16 141.457 44.16ZM141.517 42.5C142.717 42.5 143.697 42.2667 144.457 41.8C145.217 41.3333 145.777 40.6867 146.137 39.86C146.497 39.02 146.677 38.06 146.677 36.98C146.677 36.02 146.497 35.12 146.137 34.28C145.777 33.44 145.223 32.7667 144.477 32.26C143.73 31.74 142.777 31.48 141.617 31.48C141.23 31.48 140.877 31.4933 140.557 31.52C140.237 31.5333 139.943 31.5533 139.677 31.58V42.4C139.957 42.44 140.25 42.4667 140.557 42.48C140.863 42.4933 141.183 42.5 141.517 42.5ZM155.369 44.24C153.876 44.24 152.689 43.7667 151.809 42.82C150.943 41.86 150.509 40.52 150.509 38.8C150.509 37.76 150.703 36.8333 151.089 36.02C151.489 35.1933 152.043 34.5467 152.749 34.08C153.456 33.6 154.276 33.36 155.209 33.36C156.209 33.36 157.036 33.58 157.689 34.02C158.356 34.4467 158.856 35.0267 159.189 35.76C159.523 36.4933 159.689 37.3 159.689 38.18C159.689 38.6467 159.669 39.1 159.629 39.54H152.349C152.469 40.5133 152.809 41.2733 153.369 41.82C153.929 42.3667 154.669 42.64 155.589 42.64C156.189 42.64 156.729 42.58 157.209 42.46C157.689 42.3267 158.149 42.16 158.589 41.96L159.009 43.5C158.529 43.7133 157.989 43.8867 157.389 44.02C156.789 44.1667 156.116 44.24 155.369 44.24ZM152.329 38.08H158.029C158.029 37.0667 157.776 36.2867 157.269 35.74C156.763 35.1933 156.063 34.92 155.169 34.92C154.396 34.92 153.756 35.1933 153.249 35.74C152.743 36.2733 152.436 37.0533 152.329 38.08ZM153.549 32.5L152.929 31.28L156.709 28.78L157.549 30.46L153.549 32.5ZM166.288 44.24C165.302 44.24 164.435 44.0133 163.688 43.56C162.955 43.0933 162.388 42.4533 161.988 41.64C161.588 40.8133 161.388 39.8667 161.388 38.8C161.388 37.8 161.588 36.8867 161.988 36.06C162.402 35.2333 162.988 34.58 163.748 34.1C164.508 33.6067 165.402 33.36 166.428 33.36C167.015 33.36 167.528 33.4133 167.968 33.52C168.422 33.6267 168.855 33.78 169.268 33.98L168.728 35.5C168.355 35.3133 167.995 35.18 167.648 35.1C167.315 35.0067 166.942 34.96 166.528 34.96C165.595 34.96 164.808 35.3 164.168 35.98C163.542 36.6467 163.228 37.5733 163.228 38.76C163.228 39.48 163.362 40.1333 163.628 40.72C163.895 41.3067 164.262 41.7733 164.728 42.12C165.208 42.4667 165.768 42.64 166.408 42.64C166.915 42.64 167.348 42.5867 167.708 42.48C168.068 42.36 168.455 42.1933 168.868 41.98L169.428 43.5C169.015 43.7267 168.548 43.9067 168.028 44.04C167.522 44.1733 166.942 44.24 166.288 44.24ZM175.707 44.24C174.72 44.24 173.833 44.0133 173.047 43.56C172.26 43.0933 171.64 42.4533 171.187 41.64C170.747 40.8133 170.527 39.8667 170.527 38.8C170.527 37.68 170.753 36.7133 171.207 35.9C171.66 35.0867 172.28 34.46 173.067 34.02C173.853 33.58 174.733 33.36 175.707 33.36C176.68 33.36 177.553 33.58 178.327 34.02C179.113 34.46 179.733 35.0867 180.187 35.9C180.653 36.7 180.887 37.6533 180.887 38.76C180.887 39.8667 180.66 40.8333 180.207 41.66C179.753 42.4733 179.133 43.1067 178.347 43.56C177.573 44.0133 176.693 44.24 175.707 44.24ZM175.707 42.64C176.76 42.64 177.58 42.2867 178.167 41.58C178.753 40.86 179.047 39.9333 179.047 38.8C179.047 38.1067 178.9 37.4733 178.607 36.9C178.313 36.3133 177.913 35.8467 177.407 35.5C176.913 35.14 176.347 34.96 175.707 34.96C174.653 34.96 173.833 35.3067 173.247 36C172.66 36.6933 172.367 37.6133 172.367 38.76C172.367 39.4533 172.513 40.1 172.807 40.7C173.1 41.2867 173.493 41.76 173.987 42.12C174.493 42.4667 175.067 42.64 175.707 42.64ZM186.68 44.24C186.08 44.24 185.513 44.1133 184.98 43.86C184.446 43.6067 184.013 43.2 183.68 42.64C183.346 42.0667 183.18 41.3067 183.18 40.36V33.6H184.98V40.12C184.98 40.9333 185.153 41.56 185.5 42C185.846 42.4267 186.353 42.64 187.02 42.64C187.566 42.64 188.093 42.5333 188.6 42.32C189.12 42.0933 189.58 41.7933 189.98 41.42V33.6H191.78V41.3C191.78 41.8733 191.9 42.2533 192.14 42.44C192.393 42.6133 192.666 42.7 192.96 42.7L192.58 44.1C191.34 44.1 190.573 43.6067 190.28 42.62C189.813 43.1 189.273 43.4933 188.66 43.8C188.046 44.0933 187.386 44.24 186.68 44.24ZM197.739 44L193.559 34.08L195.199 33.4L198.739 41.96L202.279 33.4L203.819 34.08L199.619 44H197.739ZM205.623 44V33.6H207.363V35.86C207.537 35.42 207.77 35.0133 208.063 34.64C208.357 34.2533 208.723 33.9467 209.163 33.72C209.603 33.48 210.117 33.36 210.703 33.36C210.903 33.36 211.103 33.3733 211.303 33.4C211.503 33.4133 211.67 33.44 211.803 33.48L211.263 35.34C211.01 35.2333 210.71 35.18 210.363 35.18C209.87 35.18 209.397 35.32 208.943 35.6C208.503 35.88 208.137 36.3133 207.843 36.9C207.563 37.4867 207.423 38.2333 207.423 39.14V44H205.623ZM217.166 44.24C215.673 44.24 214.486 43.7667 213.606 42.82C212.74 41.86 212.306 40.52 212.306 38.8C212.306 37.76 212.5 36.8333 212.886 36.02C213.286 35.1933 213.84 34.5467 214.546 34.08C215.253 33.6 216.073 33.36 217.006 33.36C218.006 33.36 218.833 33.58 219.486 34.02C220.153 34.4467 220.653 35.0267 220.986 35.76C221.32 36.4933 221.486 37.3 221.486 38.18C221.486 38.6467 221.466 39.1 221.426 39.54H214.146C214.266 40.5133 214.606 41.2733 215.166 41.82C215.726 42.3667 216.466 42.64 217.386 42.64C217.986 42.64 218.526 42.58 219.006 42.46C219.486 42.3267 219.946 42.16 220.386 41.96L220.806 43.5C220.326 43.7133 219.786 43.8867 219.186 44.02C218.586 44.1667 217.913 44.24 217.166 44.24ZM214.126 38.08H219.826C219.826 37.0667 219.573 36.2867 219.066 35.74C218.56 35.1933 217.86 34.92 216.966 34.92C216.193 34.92 215.553 35.1933 215.046 35.74C214.54 36.2733 214.233 37.0533 214.126 38.08ZM222.985 44V42.58L228.725 35.16H223.105V33.6H230.925V34.98L225.205 42.4H231.025V44H222.985ZM243.515 44.24C242.528 44.24 241.662 44.0133 240.915 43.56C240.182 43.0933 239.615 42.4533 239.215 41.64C238.815 40.8133 238.615 39.8667 238.615 38.8C238.615 37.8 238.815 36.8867 239.215 36.06C239.628 35.2333 240.215 34.58 240.975 34.1C241.735 33.6067 242.628 33.36 243.655 33.36C244.242 33.36 244.755 33.4133 245.195 33.52C245.648 33.6267 246.082 33.78 246.495 33.98L245.955 35.5C245.582 35.3133 245.222 35.18 244.875 35.1C244.542 35.0067 244.168 34.96 243.755 34.96C242.822 34.96 242.035 35.3 241.395 35.98C240.768 36.6467 240.455 37.5733 240.455 38.76C240.455 39.48 240.588 40.1333 240.855 40.72C241.122 41.3067 241.488 41.7733 241.955 42.12C242.435 42.4667 242.995 42.64 243.635 42.64C244.142 42.64 244.575 42.5867 244.935 42.48C245.295 42.36 245.682 42.1933 246.095 41.98L246.655 43.5C246.242 43.7267 245.775 43.9067 245.255 44.04C244.748 44.1733 244.168 44.24 243.515 44.24ZM252.713 44.24C251.22 44.24 250.033 43.7667 249.153 42.82C248.286 41.86 247.853 40.52 247.853 38.8C247.853 37.76 248.046 36.8333 248.433 36.02C248.833 35.1933 249.386 34.5467 250.093 34.08C250.8 33.6 251.62 33.36 252.553 33.36C253.553 33.36 254.38 33.58 255.033 34.02C255.7 34.4467 256.2 35.0267 256.533 35.76C256.866 36.4933 257.033 37.3 257.033 38.18C257.033 38.6467 257.013 39.1 256.973 39.54H249.693C249.813 40.5133 250.153 41.2733 250.713 41.82C251.273 42.3667 252.013 42.64 252.933 42.64C253.533 42.64 254.073 42.58 254.553 42.46C255.033 42.3267 255.493 42.16 255.933 41.96L256.353 43.5C255.873 43.7133 255.333 43.8867 254.733 44.02C254.133 44.1667 253.46 44.24 252.713 44.24ZM249.673 38.08H255.373C255.373 37.0667 255.12 36.2867 254.613 35.74C254.106 35.1933 253.406 34.92 252.513 34.92C251.74 34.92 251.1 35.1933 250.593 35.74C250.086 36.2733 249.78 37.0533 249.673 38.08ZM262.832 44.24C262.232 44.24 261.665 44.1133 261.132 43.86C260.599 43.6067 260.165 43.2 259.832 42.64C259.499 42.0667 259.332 41.3067 259.332 40.36V33.6H261.132V40.12C261.132 40.9333 261.305 41.56 261.652 42C261.999 42.4267 262.505 42.64 263.172 42.64C263.719 42.64 264.245 42.5333 264.752 42.32C265.272 42.0933 265.732 41.7933 266.132 41.42V33.6H267.932V41.3C267.932 41.8733 268.052 42.2533 268.292 42.44C268.545 42.6133 268.819 42.7 269.112 42.7L268.732 44.1C267.492 44.1 266.725 43.6067 266.432 42.62C265.965 43.1 265.425 43.4933 264.812 43.8C264.199 44.0933 263.539 44.24 262.832 44.24ZM278.342 44.18L274.842 39.84L271.382 44.14L270.102 43.02L273.802 38.72L270.242 34.6L271.642 33.38L274.862 37.54L278.022 33.46L279.362 34.6L275.902 38.64L279.702 43.02L278.342 44.18ZM294.378 48.4V42.94C294.098 43.2333 293.705 43.5267 293.198 43.82C292.705 44.1 292.125 44.24 291.458 44.24C290.658 44.24 289.898 44.0333 289.178 43.62C288.472 43.2067 287.898 42.6 287.458 41.8C287.018 40.9867 286.798 40 286.798 38.84C286.798 37.7467 287.018 36.7933 287.458 35.98C287.898 35.1533 288.485 34.5133 289.218 34.06C289.952 33.5933 290.758 33.36 291.638 33.36C292.238 33.36 292.778 33.4667 293.258 33.68C293.752 33.88 294.178 34.1333 294.538 34.44V33.6H296.178V48.4H294.378ZM291.858 42.64C292.392 42.64 292.878 42.5133 293.318 42.26C293.758 42.0067 294.112 41.7133 294.378 41.38V35.76C294.018 35.5067 293.618 35.3067 293.178 35.16C292.752 35 292.298 34.92 291.818 34.92C291.245 34.92 290.718 35.0733 290.238 35.38C289.758 35.6867 289.372 36.1267 289.078 36.7C288.785 37.2733 288.638 37.9667 288.638 38.78C288.638 39.58 288.785 40.2733 289.078 40.86C289.385 41.4333 289.785 41.8733 290.278 42.18C290.772 42.4867 291.298 42.64 291.858 42.64ZM302.773 44.24C302.173 44.24 301.607 44.1133 301.073 43.86C300.54 43.6067 300.107 43.2 299.773 42.64C299.44 42.0667 299.273 41.3067 299.273 40.36V33.6H301.073V40.12C301.073 40.9333 301.247 41.56 301.593 42C301.94 42.4267 302.447 42.64 303.113 42.64C303.66 42.64 304.187 42.5333 304.693 42.32C305.213 42.0933 305.673 41.7933 306.073 41.42V33.6H307.873V41.3C307.873 41.8733 307.993 42.2533 308.233 42.44C308.487 42.6133 308.76 42.7 309.053 42.7L308.673 44.1C307.433 44.1 306.667 43.6067 306.373 42.62C305.907 43.1 305.367 43.4933 304.753 43.8C304.14 44.0933 303.48 44.24 302.773 44.24ZM311.444 44V33.6H313.244V44H311.444ZM312.344 31.82C311.997 31.82 311.697 31.6933 311.444 31.44C311.204 31.1867 311.084 30.8933 311.084 30.56C311.084 30.1733 311.197 29.8667 311.424 29.64C311.65 29.4133 311.957 29.3 312.344 29.3C312.69 29.3 312.984 29.4267 313.224 29.68C313.477 29.92 313.604 30.2133 313.604 30.56C313.604 30.9333 313.49 31.24 313.264 31.48C313.037 31.7067 312.73 31.82 312.344 31.82ZM326.82 44.24C325.833 44.24 324.947 44.0133 324.16 43.56C323.373 43.0933 322.753 42.4533 322.3 41.64C321.86 40.8133 321.64 39.8667 321.64 38.8C321.64 37.68 321.867 36.7133 322.32 35.9C322.773 35.0867 323.393 34.46 324.18 34.02C324.967 33.58 325.847 33.36 326.82 33.36C327.793 33.36 328.667 33.58 329.44 34.02C330.227 34.46 330.847 35.0867 331.3 35.9C331.767 36.7 332 37.6533 332 38.76C332 39.8667 331.773 40.8333 331.32 41.66C330.867 42.4733 330.247 43.1067 329.46 43.56C328.687 44.0133 327.807 44.24 326.82 44.24ZM326.82 42.64C327.873 42.64 328.693 42.2867 329.28 41.58C329.867 40.86 330.16 39.9333 330.16 38.8C330.16 38.1067 330.013 37.4733 329.72 36.9C329.427 36.3133 329.027 35.8467 328.52 35.5C328.027 35.14 327.46 34.96 326.82 34.96C325.767 34.96 324.947 35.3067 324.36 36C323.773 36.6933 323.48 37.6133 323.48 38.76C323.48 39.4533 323.627 40.1 323.92 40.7C324.213 41.2867 324.607 41.76 325.1 42.12C325.607 42.4667 326.18 42.64 326.82 42.64ZM334.393 44V33.6H336.133V35.34C336.506 34.78 336.98 34.3133 337.553 33.94C338.14 33.5533 338.833 33.36 339.633 33.36C340.806 33.36 341.68 33.7133 342.253 34.42C342.84 35.1267 343.133 36.06 343.133 37.22V44H341.333V37.42C341.333 36.6733 341.153 36.0733 340.793 35.62C340.446 35.1667 339.96 34.94 339.333 34.94C338.72 34.94 338.14 35.16 337.593 35.6C337.046 36.0267 336.58 36.5333 336.193 37.12V44H334.393ZM349.869 44.24C348.869 44.24 348.076 43.9133 347.489 43.26C346.916 42.5933 346.629 41.6467 346.629 40.42V35.54H344.829V33.98H346.669L347.049 30.7H348.429V33.98H351.309V35.54H348.429V40.56C348.429 41.3333 348.589 41.8733 348.909 42.18C349.242 42.4867 349.636 42.64 350.089 42.64C350.422 42.64 350.736 42.5867 351.029 42.48C351.336 42.3733 351.616 42.2467 351.869 42.1L352.369 43.54C352.102 43.7 351.742 43.8533 351.289 44C350.836 44.16 350.362 44.24 349.869 44.24ZM360.374 44V35.54H358.774V33.98H360.374V32.76C360.374 31.5867 360.701 30.66 361.354 29.98C362.008 29.3 362.861 28.96 363.914 28.96C364.461 28.96 364.941 29.0267 365.354 29.16C365.768 29.28 366.161 29.4333 366.534 29.62L365.994 31.14C365.714 30.9933 365.414 30.86 365.094 30.74C364.774 30.62 364.421 30.56 364.034 30.56C363.474 30.56 363.021 30.74 362.674 31.1C362.341 31.4467 362.174 31.96 362.174 32.64V33.98H365.254V35.54H362.174V44H360.374ZM370.814 44.24C369.948 44.24 369.161 44.02 368.454 43.58C367.748 43.14 367.181 42.52 366.754 41.72C366.341 40.9067 366.134 39.9533 366.134 38.86C366.134 37.82 366.341 36.8867 366.754 36.06C367.181 35.2333 367.761 34.58 368.494 34.1C369.241 33.6067 370.094 33.36 371.054 33.36C371.654 33.36 372.194 33.4667 372.674 33.68C373.168 33.88 373.594 34.1333 373.954 34.44V33.6H375.594V41.48C375.594 41.9867 375.714 42.32 375.954 42.48C376.208 42.6267 376.481 42.7 376.774 42.7L376.394 44.1C375.114 44.1 374.341 43.58 374.074 42.54C373.768 42.9667 373.348 43.36 372.814 43.72C372.294 44.0667 371.628 44.24 370.814 44.24ZM371.214 42.64C371.721 42.64 372.201 42.52 372.654 42.28C373.108 42.0267 373.488 41.7133 373.794 41.34V35.76C373.434 35.5067 373.034 35.3067 372.594 35.16C372.168 35 371.714 34.92 371.234 34.92C370.594 34.92 370.028 35.0867 369.534 35.42C369.054 35.74 368.674 36.1933 368.394 36.78C368.114 37.3533 367.974 38.0267 367.974 38.8C367.974 39.5467 368.114 40.2133 368.394 40.8C368.674 41.3733 369.061 41.8267 369.554 42.16C370.048 42.48 370.601 42.64 371.214 42.64ZM379.178 44V33.6H380.978V44H379.178ZM380.078 31.82C379.731 31.82 379.431 31.6933 379.178 31.44C378.938 31.1867 378.818 30.8933 378.818 30.56C378.818 30.1733 378.931 29.8667 379.158 29.64C379.385 29.4133 379.691 29.3 380.078 29.3C380.425 29.3 380.718 29.4267 380.958 29.68C381.211 29.92 381.338 30.2133 381.338 30.56C381.338 30.9333 381.225 31.24 380.998 31.48C380.771 31.7067 380.465 31.82 380.078 31.82ZM387.818 44.24C386.818 44.24 386.025 43.9133 385.438 43.26C384.865 42.5933 384.578 41.6467 384.578 40.42V35.54H382.778V33.98H384.618L384.998 30.7H386.378V33.98H389.258V35.54H386.378V40.56C386.378 41.3333 386.538 41.8733 386.858 42.18C387.191 42.4867 387.585 42.64 388.038 42.64C388.371 42.64 388.685 42.5867 388.978 42.48C389.285 42.3733 389.565 42.2467 389.818 42.1L390.318 43.54C390.051 43.7 389.691 43.8533 389.238 44C388.785 44.16 388.311 44.24 387.818 44.24ZM402.323 44.24C401.337 44.24 400.47 44.0133 399.723 43.56C398.99 43.0933 398.423 42.4533 398.023 41.64C397.623 40.8133 397.423 39.8667 397.423 38.8C397.423 37.8 397.623 36.8867 398.023 36.06C398.437 35.2333 399.023 34.58 399.783 34.1C400.543 33.6067 401.437 33.36 402.463 33.36C403.05 33.36 403.563 33.4133 404.003 33.52C404.457 33.6267 404.89 33.78 405.303 33.98L404.763 35.5C404.39 35.3133 404.03 35.18 403.683 35.1C403.35 35.0067 402.977 34.96 402.563 34.96C401.63 34.96 400.843 35.3 400.203 35.98C399.577 36.6467 399.263 37.5733 399.263 38.76C399.263 39.48 399.397 40.1333 399.663 40.72C399.93 41.3067 400.297 41.7733 400.763 42.12C401.243 42.4667 401.803 42.64 402.443 42.64C402.95 42.64 403.383 42.5867 403.743 42.48C404.103 42.36 404.49 42.1933 404.903 41.98L405.463 43.5C405.05 43.7267 404.583 43.9067 404.063 44.04C403.557 44.1733 402.977 44.24 402.323 44.24ZM411.742 44.24C410.755 44.24 409.868 44.0133 409.082 43.56C408.295 43.0933 407.675 42.4533 407.222 41.64C406.782 40.8133 406.562 39.8667 406.562 38.8C406.562 37.68 406.788 36.7133 407.242 35.9C407.695 35.0867 408.315 34.46 409.102 34.02C409.888 33.58 410.768 33.36 411.742 33.36C412.715 33.36 413.588 33.58 414.362 34.02C415.148 34.46 415.768 35.0867 416.222 35.9C416.688 36.7 416.922 37.6533 416.922 38.76C416.922 39.8667 416.695 40.8333 416.242 41.66C415.788 42.4733 415.168 43.1067 414.382 43.56C413.608 44.0133 412.728 44.24 411.742 44.24ZM411.742 42.64C412.795 42.64 413.615 42.2867 414.202 41.58C414.788 40.86 415.082 39.9333 415.082 38.8C415.082 38.1067 414.935 37.4733 414.642 36.9C414.348 36.3133 413.948 35.8467 413.442 35.5C412.948 35.14 412.382 34.96 411.742 34.96C410.688 34.96 409.868 35.3067 409.282 36C408.695 36.6933 408.402 37.6133 408.402 38.76C408.402 39.4533 408.548 40.1 408.842 40.7C409.135 41.2867 409.528 41.76 410.022 42.12C410.528 42.4667 411.102 42.64 411.742 42.64ZM419.315 44V33.6H421.055V35.34C421.428 34.78 421.902 34.3133 422.475 33.94C423.062 33.5533 423.755 33.36 424.555 33.36C425.728 33.36 426.602 33.7133 427.175 34.42C427.762 35.1267 428.055 36.06 428.055 37.22V44H426.255V37.42C426.255 36.6733 426.075 36.0733 425.715 35.62C425.368 35.1667 424.882 34.94 424.255 34.94C423.642 34.94 423.062 35.16 422.515 35.6C421.968 36.0267 421.502 36.5333 421.115 37.12V44H419.315ZM431.151 44V33.6H432.891V35.34C433.264 34.78 433.737 34.3133 434.311 33.94C434.897 33.5533 435.591 33.36 436.391 33.36C437.564 33.36 438.437 33.7133 439.011 34.42C439.597 35.1267 439.891 36.06 439.891 37.22V44H438.091V37.42C438.091 36.6733 437.911 36.0733 437.551 35.62C437.204 35.1667 436.717 34.94 436.091 34.94C435.477 34.94 434.897 35.16 434.351 35.6C433.804 36.0267 433.337 36.5333 432.951 37.12V44H431.151ZM446.967 44.24C446.1 44.24 445.313 44.02 444.607 43.58C443.9 43.14 443.333 42.52 442.907 41.72C442.493 40.9067 442.287 39.9533 442.287 38.86C442.287 37.82 442.493 36.8867 442.907 36.06C443.333 35.2333 443.913 34.58 444.647 34.1C445.393 33.6067 446.247 33.36 447.207 33.36C447.807 33.36 448.347 33.4667 448.827 33.68C449.32 33.88 449.747 34.1333 450.107 34.44V33.6H451.747V41.48C451.747 41.9867 451.867 42.32 452.107 42.48C452.36 42.6267 452.633 42.7 452.927 42.7L452.547 44.1C451.267 44.1 450.493 43.58 450.227 42.54C449.92 42.9667 449.5 43.36 448.967 43.72C448.447 44.0667 447.78 44.24 446.967 44.24ZM447.367 42.64C447.873 42.64 448.353 42.52 448.807 42.28C449.26 42.0267 449.64 41.7133 449.947 41.34V35.76C449.587 35.5067 449.187 35.3067 448.747 35.16C448.32 35 447.867 34.92 447.387 34.92C446.747 34.92 446.18 35.0867 445.687 35.42C445.207 35.74 444.827 36.1933 444.547 36.78C444.267 37.3533 444.127 38.0267 444.127 38.8C444.127 39.5467 444.267 40.2133 444.547 40.8C444.827 41.3733 445.213 41.8267 445.707 42.16C446.2 42.48 446.753 42.64 447.367 42.64ZM455.33 44V33.6H457.13V44H455.33ZM456.23 31.82C455.884 31.82 455.584 31.6933 455.33 31.44C455.09 31.1867 454.97 30.8933 454.97 30.56C454.97 30.1733 455.084 29.8667 455.31 29.64C455.537 29.4133 455.844 29.3 456.23 29.3C456.577 29.3 456.87 29.4267 457.11 29.68C457.364 29.92 457.49 30.2133 457.49 30.56C457.49 30.9333 457.377 31.24 457.15 31.48C456.924 31.7067 456.617 31.82 456.23 31.82ZM463.97 44.24C462.97 44.24 462.177 43.9133 461.59 43.26C461.017 42.5933 460.73 41.6467 460.73 40.42V35.54H458.93V33.98H460.77L461.15 30.7H462.53V33.98H465.41V35.54H462.53V40.56C462.53 41.3333 462.69 41.8733 463.01 42.18C463.344 42.4867 463.737 42.64 464.19 42.64C464.524 42.64 464.837 42.5867 465.13 42.48C465.437 42.3733 465.717 42.2467 465.97 42.1L466.47 43.54C466.204 43.7 465.844 43.8533 465.39 44C464.937 44.16 464.464 44.24 463.97 44.24ZM468.28 44V33.6H470.02V35.86C470.193 35.42 470.426 35.0133 470.72 34.64C471.013 34.2533 471.38 33.9467 471.82 33.72C472.26 33.48 472.773 33.36 473.36 33.36C473.56 33.36 473.76 33.3733 473.96 33.4C474.16 33.4133 474.326 33.44 474.46 33.48L473.92 35.34C473.666 35.2333 473.366 35.18 473.02 35.18C472.526 35.18 472.053 35.32 471.6 35.6C471.16 35.88 470.793 36.3133 470.5 36.9C470.22 37.4867 470.08 38.2333 470.08 39.14V44H468.28ZM479.823 44.24C478.329 44.24 477.143 43.7667 476.263 42.82C475.396 41.86 474.963 40.52 474.963 38.8C474.963 37.76 475.156 36.8333 475.543 36.02C475.943 35.1933 476.496 34.5467 477.203 34.08C477.909 33.6 478.729 33.36 479.663 33.36C480.663 33.36 481.489 33.58 482.143 34.02C482.809 34.4467 483.309 35.0267 483.643 35.76C483.976 36.4933 484.143 37.3 484.143 38.18C484.143 38.6467 484.123 39.1 484.083 39.54H476.803C476.923 40.5133 477.263 41.2733 477.823 41.82C478.383 42.3667 479.123 42.64 480.043 42.64C480.643 42.64 481.183 42.58 481.663 42.46C482.143 42.3267 482.603 42.16 483.043 41.96L483.463 43.5C482.983 43.7133 482.443 43.8867 481.843 44.02C481.243 44.1667 480.569 44.24 479.823 44.24ZM476.783 38.08H482.483C482.483 37.0667 482.229 36.2867 481.723 35.74C481.216 35.1933 480.516 34.92 479.623 34.92C478.849 34.92 478.209 35.1933 477.703 35.74C477.196 36.2733 476.889 37.0533 476.783 38.08ZM495.698 44.24C495.084 44.24 494.531 44.1267 494.038 43.9C493.544 43.66 493.151 43.28 492.858 42.76C492.578 42.24 492.438 41.5667 492.438 40.74V29.2H494.238V40.56C494.238 41.28 494.384 41.8133 494.678 42.16C494.984 42.5067 495.404 42.68 495.938 42.68C496.191 42.68 496.438 42.6533 496.678 42.6C496.931 42.5333 497.144 42.46 497.318 42.38L497.758 43.84C497.518 43.9467 497.218 44.04 496.858 44.12C496.511 44.2 496.124 44.24 495.698 44.24ZM503.319 44.24C501.825 44.24 500.639 43.7667 499.759 42.82C498.892 41.86 498.459 40.52 498.459 38.8C498.459 37.76 498.652 36.8333 499.039 36.02C499.439 35.1933 499.992 34.5467 500.699 34.08C501.405 33.6 502.225 33.36 503.159 33.36C504.159 33.36 504.985 33.58 505.639 34.02C506.305 34.4467 506.805 35.0267 507.139 35.76C507.472 36.4933 507.639 37.3 507.639 38.18C507.639 38.6467 507.619 39.1 507.579 39.54H500.299C500.419 40.5133 500.759 41.2733 501.319 41.82C501.879 42.3667 502.619 42.64 503.539 42.64C504.139 42.64 504.679 42.58 505.159 42.46C505.639 42.3267 506.099 42.16 506.539 41.96L506.959 43.5C506.479 43.7133 505.939 43.8867 505.339 44.02C504.739 44.1667 504.065 44.24 503.319 44.24ZM500.279 38.08H505.979C505.979 37.0667 505.725 36.2867 505.219 35.74C504.712 35.1933 504.012 34.92 503.119 34.92C502.345 34.92 501.705 35.1933 501.199 35.74C500.692 36.2733 500.385 37.0533 500.279 38.08ZM5.8 72.24C4.81333 72.24 3.94667 72.0133 3.2 71.56C2.46667 71.0933 1.9 70.4533 1.5 69.64C1.1 68.8133 0.9 67.8667 0.9 66.8C0.9 65.8 1.1 64.8867 1.5 64.06C1.91333 63.2333 2.5 62.58 3.26 62.1C4.02 61.6067 4.91333 61.36 5.94 61.36C6.52667 61.36 7.04 61.4133 7.48 61.52C7.93333 61.6267 8.36667 61.78 8.78 61.98L8.24 63.5C7.86667 63.3133 7.50667 63.18 7.16 63.1C6.82667 63.0067 6.45333 62.96 6.04 62.96C5.10667 62.96 4.32 63.3 3.68 63.98C3.05333 64.6467 2.74 65.5733 2.74 66.76C2.74 67.48 2.87333 68.1333 3.14 68.72C3.40667 69.3067 3.77333 69.7733 4.24 70.12C4.72 70.4667 5.28 70.64 5.92 70.64C6.42667 70.64 6.86 70.5867 7.22 70.48C7.58 70.36 7.96667 70.1933 8.38 69.98L8.94 71.5C8.52667 71.7267 8.06 71.9067 7.54 72.04C7.03333 72.1733 6.45333 72.24 5.8 72.24ZM11.0336 72V61.6H12.8336V72H11.0336ZM11.9336 59.82C11.5869 59.82 11.2869 59.6933 11.0336 59.44C10.7936 59.1867 10.6736 58.8933 10.6736 58.56C10.6736 58.1733 10.7869 57.8667 11.0136 57.64C11.2403 57.4133 11.5469 57.3 11.9336 57.3C12.2803 57.3 12.5736 57.4267 12.8136 57.68C13.0669 57.92 13.1936 58.2133 13.1936 58.56C13.1936 58.9333 13.0803 59.24 12.8536 59.48C12.6269 59.7067 12.3203 59.82 11.9336 59.82ZM16.0336 72V61.6H17.7736V63.34C18.1469 62.78 18.6203 62.3133 19.1936 61.94C19.7803 61.5533 20.4736 61.36 21.2736 61.36C22.4469 61.36 23.3203 61.7133 23.8936 62.42C24.4803 63.1267 24.7736 64.06 24.7736 65.22V72H22.9736V65.42C22.9736 64.6733 22.7936 64.0733 22.4336 63.62C22.0869 63.1667 21.6003 62.94 20.9736 62.94C20.3603 62.94 19.7803 63.16 19.2336 63.6C18.6869 64.0267 18.2203 64.5333 17.8336 65.12V72H16.0336ZM32.0295 72.24C30.5362 72.24 29.3495 71.7667 28.4695 70.82C27.6029 69.86 27.1695 68.52 27.1695 66.8C27.1695 65.76 27.3629 64.8333 27.7495 64.02C28.1495 63.1933 28.7029 62.5467 29.4095 62.08C30.1162 61.6 30.9362 61.36 31.8695 61.36C32.8695 61.36 33.6962 61.58 34.3495 62.02C35.0162 62.4467 35.5162 63.0267 35.8495 63.76C36.1829 64.4933 36.3495 65.3 36.3495 66.18C36.3495 66.6467 36.3295 67.1 36.2895 67.54H29.0095C29.1295 68.5133 29.4695 69.2733 30.0295 69.82C30.5895 70.3667 31.3295 70.64 32.2495 70.64C32.8495 70.64 33.3895 70.58 33.8695 70.46C34.3495 70.3267 34.8095 70.16 35.2495 69.96L35.6695 71.5C35.1895 71.7133 34.6495 71.8867 34.0495 72.02C33.4495 72.1667 32.7762 72.24 32.0295 72.24ZM28.9895 66.08H34.6895C34.6895 65.0667 34.4362 64.2867 33.9295 63.74C33.4229 63.1933 32.7229 62.92 31.8295 62.92C31.0562 62.92 30.4162 63.1933 29.9095 63.74C29.4029 64.2733 29.0962 65.0533 28.9895 66.08ZM30.2095 60.5L29.5895 59.28L33.3695 56.78L34.2095 58.46L30.2095 60.5ZM38.7484 72V61.6H40.4884V63.34C40.8618 62.78 41.3351 62.3133 41.9084 61.94C42.4818 61.5533 43.1351 61.36 43.8684 61.36C44.6951 61.36 45.3684 61.56 45.8884 61.96C46.4218 62.36 46.7951 62.8933 47.0084 63.56C47.4218 62.9467 47.9084 62.4267 48.4684 62C49.0418 61.5733 49.7484 61.36 50.5884 61.36C51.7218 61.36 52.5618 61.72 53.1084 62.44C53.6684 63.1467 53.9484 64.0733 53.9484 65.22V72H52.1484V65.36C52.1484 64.64 51.9818 64.06 51.6484 63.62C51.3151 63.1667 50.8551 62.94 50.2684 62.94C49.6684 62.94 49.1084 63.1667 48.5884 63.62C48.0818 64.06 47.6351 64.58 47.2484 65.18V72H45.4484V65.36C45.4484 64.64 45.2818 64.06 44.9484 63.62C44.6151 63.1667 44.1551 62.94 43.5684 62.94C42.9818 62.94 42.4284 63.16 41.9084 63.6C41.3884 64.0267 40.9351 64.5333 40.5484 65.12V72H38.7484ZM61.0292 72.24C60.1626 72.24 59.3759 72.02 58.6692 71.58C57.9626 71.14 57.3959 70.52 56.9692 69.72C56.5559 68.9067 56.3492 67.9533 56.3492 66.86C56.3492 65.82 56.5559 64.8867 56.9692 64.06C57.3959 63.2333 57.9759 62.58 58.7092 62.1C59.4559 61.6067 60.3092 61.36 61.2692 61.36C61.8692 61.36 62.4092 61.4667 62.8892 61.68C63.3826 61.88 63.8092 62.1333 64.1692 62.44V61.6H65.8092V69.48C65.8092 69.9867 65.9292 70.32 66.1692 70.48C66.4226 70.6267 66.6959 70.7 66.9892 70.7L66.6092 72.1C65.3292 72.1 64.5559 71.58 64.2892 70.54C63.9826 70.9667 63.5626 71.36 63.0292 71.72C62.5092 72.0667 61.8426 72.24 61.0292 72.24ZM61.4292 70.64C61.9359 70.64 62.4159 70.52 62.8692 70.28C63.3226 70.0267 63.7026 69.7133 64.0092 69.34V63.76C63.6492 63.5067 63.2492 63.3067 62.8092 63.16C62.3826 63 61.9292 62.92 61.4492 62.92C60.8092 62.92 60.2426 63.0867 59.7492 63.42C59.2692 63.74 58.8892 64.1933 58.6092 64.78C58.3292 65.3533 58.1892 66.0267 58.1892 66.8C58.1892 67.5467 58.3292 68.2133 58.6092 68.8C58.8892 69.3733 59.2759 69.8267 59.7692 70.16C60.2626 70.48 60.8159 70.64 61.4292 70.64ZM75.7691 76.4V64.26C75.7691 63.8067 75.6557 63.4867 75.4291 63.3C75.2157 63.1 74.9357 63 74.5891 63L74.9691 61.6C76.1957 61.6 76.9624 62.0867 77.2691 63.06C77.4024 62.86 77.6157 62.6267 77.9091 62.36C78.2157 62.0933 78.5891 61.86 79.0291 61.66C79.4824 61.46 79.9957 61.36 80.5691 61.36C81.3691 61.36 82.1157 61.5733 82.8091 62C83.5157 62.4133 84.0824 63.02 84.5091 63.82C84.9357 64.6067 85.1491 65.5667 85.1491 66.7C85.1491 67.8067 84.9357 68.78 84.5091 69.62C84.0824 70.4467 83.5224 71.0933 82.8291 71.56C82.1491 72.0133 81.4091 72.24 80.6091 72.24C79.9957 72.24 79.4224 72.12 78.8891 71.88C78.3557 71.6267 77.9157 71.34 77.5691 71.02V76.4H75.7691ZM80.2491 70.64C81.1557 70.64 81.8891 70.2867 82.4491 69.58C83.0224 68.86 83.3091 67.92 83.3091 66.76C83.3091 65.96 83.1624 65.2733 82.8691 64.7C82.5891 64.1267 82.2091 63.6867 81.7291 63.38C81.2624 63.0733 80.7424 62.92 80.1691 62.92C79.5957 62.92 79.0757 63.0667 78.6091 63.36C78.1557 63.64 77.8091 63.9467 77.5691 64.28V69.4C77.9157 69.76 78.3157 70.06 78.7691 70.3C79.2224 70.5267 79.7157 70.64 80.2491 70.64ZM92.0347 72.24C91.048 72.24 90.1614 72.0133 89.3747 71.56C88.588 71.0933 87.968 70.4533 87.5147 69.64C87.0747 68.8133 86.8547 67.8667 86.8547 66.8C86.8547 65.68 87.0814 64.7133 87.5347 63.9C87.988 63.0867 88.608 62.46 89.3947 62.02C90.1814 61.58 91.0614 61.36 92.0347 61.36C93.008 61.36 93.8814 61.58 94.6547 62.02C95.4414 62.46 96.0614 63.0867 96.5147 63.9C96.9814 64.7 97.2147 65.6533 97.2147 66.76C97.2147 67.8667 96.988 68.8333 96.5347 69.66C96.0814 70.4733 95.4614 71.1067 94.6747 71.56C93.9014 72.0133 93.0214 72.24 92.0347 72.24ZM92.0347 70.64C93.088 70.64 93.908 70.2867 94.4947 69.58C95.0814 68.86 95.3747 67.9333 95.3747 66.8C95.3747 66.1067 95.228 65.4733 94.9347 64.9C94.6414 64.3133 94.2414 63.8467 93.7347 63.5C93.2414 63.14 92.6747 62.96 92.0347 62.96C90.9814 62.96 90.1614 63.3067 89.5747 64C88.988 64.6933 88.6947 65.6133 88.6947 66.76C88.6947 67.4533 88.8414 68.1 89.1347 68.7C89.428 69.2867 89.8214 69.76 90.3147 70.12C90.8214 70.4667 91.3947 70.64 92.0347 70.64ZM102.768 72.24C102.154 72.24 101.601 72.1267 101.108 71.9C100.614 71.66 100.221 71.28 99.9278 70.76C99.6478 70.24 99.5078 69.5667 99.5078 68.74V57.2H101.308V68.56C101.308 69.28 101.454 69.8133 101.748 70.16C102.054 70.5067 102.474 70.68 103.008 70.68C103.261 70.68 103.508 70.6533 103.748 70.6C104.001 70.5333 104.214 70.46 104.388 70.38L104.828 71.84C104.588 71.9467 104.288 72.04 103.928 72.12C103.581 72.2 103.194 72.24 102.768 72.24ZM110.609 72.24C109.622 72.24 108.736 72.0133 107.949 71.56C107.162 71.0933 106.542 70.4533 106.089 69.64C105.649 68.8133 105.429 67.8667 105.429 66.8C105.429 65.68 105.656 64.7133 106.109 63.9C106.562 63.0867 107.182 62.46 107.969 62.02C108.756 61.58 109.636 61.36 110.609 61.36C111.582 61.36 112.456 61.58 113.229 62.02C114.016 62.46 114.636 63.0867 115.089 63.9C115.556 64.7 115.789 65.6533 115.789 66.76C115.789 67.8667 115.562 68.8333 115.109 69.66C114.656 70.4733 114.036 71.1067 113.249 71.56C112.476 72.0133 111.596 72.24 110.609 72.24ZM110.609 70.64C111.662 70.64 112.482 70.2867 113.069 69.58C113.656 68.86 113.949 67.9333 113.949 66.8C113.949 66.1067 113.802 65.4733 113.509 64.9C113.216 64.3133 112.816 63.8467 112.309 63.5C111.816 63.14 111.249 62.96 110.609 62.96C109.556 62.96 108.736 63.3067 108.149 64C107.562 64.6933 107.269 65.6133 107.269 66.76C107.269 67.4533 107.416 68.1 107.709 68.7C108.002 69.2867 108.396 69.76 108.889 70.12C109.396 70.4667 109.969 70.64 110.609 70.64ZM118.182 72V61.6H119.922V63.34C120.295 62.78 120.769 62.3133 121.342 61.94C121.929 61.5533 122.622 61.36 123.422 61.36C124.595 61.36 125.469 61.7133 126.042 62.42C126.629 63.1267 126.922 64.06 126.922 65.22V72H125.122V65.42C125.122 64.6733 124.942 64.0733 124.582 63.62C124.235 63.1667 123.749 62.94 123.122 62.94C122.509 62.94 121.929 63.16 121.382 63.6C120.835 64.0267 120.369 64.5333 119.982 65.12V72H118.182ZM133.998 72.24C133.131 72.24 132.345 72.02 131.638 71.58C130.931 71.14 130.365 70.52 129.938 69.72C129.525 68.9067 129.318 67.9533 129.318 66.86C129.318 65.82 129.525 64.8867 129.938 64.06C130.365 63.2333 130.945 62.58 131.678 62.1C132.425 61.6067 133.278 61.36 134.238 61.36C134.838 61.36 135.378 61.4667 135.858 61.68C136.351 61.88 136.778 62.1333 137.138 62.44V61.6H138.778V69.48C138.778 69.9867 138.898 70.32 139.138 70.48C139.391 70.6267 139.665 70.7 139.958 70.7L139.578 72.1C138.298 72.1 137.525 71.58 137.258 70.54C136.951 70.9667 136.531 71.36 135.998 71.72C135.478 72.0667 134.811 72.24 133.998 72.24ZM134.398 70.64C134.905 70.64 135.385 70.52 135.838 70.28C136.291 70.0267 136.671 69.7133 136.978 69.34V63.76C136.618 63.5067 136.218 63.3067 135.778 63.16C135.351 63 134.898 62.92 134.418 62.92C133.778 62.92 133.211 63.0867 132.718 63.42C132.238 63.74 131.858 64.1933 131.578 64.78C131.298 65.3533 131.158 66.0267 131.158 66.8C131.158 67.5467 131.298 68.2133 131.578 68.8C131.858 69.3733 132.245 69.8267 132.738 70.16C133.231 70.48 133.785 70.64 134.398 70.64ZM142.362 72V61.6H144.162V72H142.362ZM143.262 59.82C142.915 59.82 142.615 59.6933 142.362 59.44C142.122 59.1867 142.002 58.8933 142.002 58.56C142.002 58.1733 142.115 57.8667 142.342 57.64C142.568 57.4133 142.875 57.3 143.262 57.3C143.608 57.3 143.902 57.4267 144.142 57.68C144.395 57.92 144.522 58.2133 144.522 58.56C144.522 58.9333 144.408 59.24 144.182 59.48C143.955 59.7067 143.648 59.82 143.262 59.82ZM150.162 72.24C149.375 72.24 148.662 72.14 148.022 71.94C147.395 71.74 146.875 71.48 146.462 71.16L147.222 69.66C147.568 69.9533 148.002 70.2 148.522 70.4C149.055 70.5867 149.622 70.68 150.222 70.68C150.968 70.68 151.528 70.56 151.902 70.32C152.288 70.0667 152.482 69.7467 152.482 69.36C152.482 69.08 152.408 68.8333 152.262 68.62C152.128 68.4067 151.875 68.2 151.502 68C151.128 67.7867 150.588 67.56 149.882 67.32C148.908 66.9867 148.175 66.5933 147.682 66.14C147.202 65.6733 146.962 65.0333 146.962 64.22C146.962 63.42 147.308 62.7467 148.002 62.2C148.708 61.64 149.682 61.36 150.922 61.36C151.588 61.36 152.182 61.4333 152.702 61.58C153.222 61.7133 153.688 61.8867 154.102 62.1L153.602 63.58C153.242 63.3667 152.828 63.1933 152.362 63.06C151.908 62.9267 151.402 62.86 150.842 62.86C150.148 62.86 149.622 63 149.262 63.28C148.902 63.56 148.722 63.8667 148.722 64.2C148.722 64.52 148.862 64.7933 149.142 65.02C149.422 65.2467 149.968 65.4933 150.782 65.76C152.102 66.2 153.022 66.6867 153.542 67.22C154.062 67.7533 154.322 68.42 154.322 69.22C154.322 70.1533 153.942 70.8933 153.182 71.44C152.435 71.9733 151.428 72.24 150.162 72.24ZM165.513 72.24C164.727 72.24 164.013 72.14 163.373 71.94C162.747 71.74 162.227 71.48 161.813 71.16L162.573 69.66C162.92 69.9533 163.353 70.2 163.873 70.4C164.407 70.5867 164.973 70.68 165.573 70.68C166.32 70.68 166.88 70.56 167.253 70.32C167.64 70.0667 167.833 69.7467 167.833 69.36C167.833 69.08 167.76 68.8333 167.613 68.62C167.48 68.4067 167.227 68.2 166.853 68C166.48 67.7867 165.94 67.56 165.233 67.32C164.26 66.9867 163.527 66.5933 163.033 66.14C162.553 65.6733 162.313 65.0333 162.313 64.22C162.313 63.42 162.66 62.7467 163.353 62.2C164.06 61.64 165.033 61.36 166.273 61.36C166.94 61.36 167.533 61.4333 168.053 61.58C168.573 61.7133 169.04 61.8867 169.453 62.1L168.953 63.58C168.593 63.3667 168.18 63.1933 167.713 63.06C167.26 62.9267 166.753 62.86 166.193 62.86C165.5 62.86 164.973 63 164.613 63.28C164.253 63.56 164.073 63.8667 164.073 64.2C164.073 64.52 164.213 64.7933 164.493 65.02C164.773 65.2467 165.32 65.4933 166.133 65.76C167.453 66.2 168.373 66.6867 168.893 67.22C169.413 67.7533 169.673 68.42 169.673 69.22C169.673 70.1533 169.293 70.8933 168.533 71.44C167.787 71.9733 166.78 72.24 165.513 72.24ZM175.469 72.24C174.869 72.24 174.302 72.1133 173.769 71.86C173.235 71.6067 172.802 71.2 172.469 70.64C172.135 70.0667 171.969 69.3067 171.969 68.36V61.6H173.769V68.12C173.769 68.9333 173.942 69.56 174.289 70C174.635 70.4267 175.142 70.64 175.809 70.64C176.355 70.64 176.882 70.5333 177.389 70.32C177.909 70.0933 178.369 69.7933 178.769 69.42V61.6H180.569V69.3C180.569 69.8733 180.689 70.2533 180.929 70.44C181.182 70.6133 181.455 70.7 181.749 70.7L181.369 72.1C180.129 72.1 179.362 71.6067 179.069 70.62C178.602 71.1 178.062 71.4933 177.449 71.8C176.835 72.0933 176.175 72.24 175.469 72.24ZM184.139 72V61.6H185.879V63.86C186.052 63.42 186.286 63.0133 186.579 62.64C186.872 62.2533 187.239 61.9467 187.679 61.72C188.119 61.48 188.632 61.36 189.219 61.36C189.419 61.36 189.619 61.3733 189.819 61.4C190.019 61.4133 190.186 61.44 190.319 61.48L189.779 63.34C189.526 63.2333 189.226 63.18 188.879 63.18C188.386 63.18 187.912 63.32 187.459 63.6C187.019 63.88 186.652 64.3133 186.359 64.9C186.079 65.4867 185.939 66.2333 185.939 67.14V72H184.139ZM201.283 72.24C200.67 72.24 200.117 72.1267 199.623 71.9C199.13 71.66 198.737 71.28 198.443 70.76C198.163 70.24 198.023 69.5667 198.023 68.74V57.2H199.823V68.56C199.823 69.28 199.97 69.8133 200.263 70.16C200.57 70.5067 200.99 70.68 201.523 70.68C201.777 70.68 202.023 70.6533 202.263 70.6C202.517 70.5333 202.73 70.46 202.903 70.38L203.343 71.84C203.103 71.9467 202.803 72.04 202.443 72.12C202.097 72.2 201.71 72.24 201.283 72.24ZM208.725 72.24C207.858 72.24 207.071 72.02 206.365 71.58C205.658 71.14 205.091 70.52 204.665 69.72C204.251 68.9067 204.045 67.9533 204.045 66.86C204.045 65.82 204.251 64.8867 204.665 64.06C205.091 63.2333 205.671 62.58 206.405 62.1C207.151 61.6067 208.005 61.36 208.965 61.36C209.565 61.36 210.105 61.4667 210.585 61.68C211.078 61.88 211.505 62.1333 211.865 62.44V61.6H213.505V69.48C213.505 69.9867 213.625 70.32 213.865 70.48C214.118 70.6267 214.391 70.7 214.685 70.7L214.305 72.1C213.025 72.1 212.251 71.58 211.985 70.54C211.678 70.9667 211.258 71.36 210.725 71.72C210.205 72.0667 209.538 72.24 208.725 72.24ZM209.125 70.64C209.631 70.64 210.111 70.52 210.565 70.28C211.018 70.0267 211.398 69.7133 211.705 69.34V63.76C211.345 63.5067 210.945 63.3067 210.505 63.16C210.078 63 209.625 62.92 209.145 62.92C208.505 62.92 207.938 63.0867 207.445 63.42C206.965 63.74 206.585 64.1933 206.305 64.78C206.025 65.3533 205.885 66.0267 205.885 66.8C205.885 67.5467 206.025 68.2133 206.305 68.8C206.585 69.3733 206.971 69.8267 207.465 70.16C207.958 70.48 208.511 70.64 209.125 70.64ZM225.884 72.24C225.098 72.24 224.384 72.14 223.744 71.94C223.118 71.74 222.598 71.48 222.184 71.16L222.944 69.66C223.291 69.9533 223.724 70.2 224.244 70.4C224.778 70.5867 225.344 70.68 225.944 70.68C226.691 70.68 227.251 70.56 227.624 70.32C228.011 70.0667 228.204 69.7467 228.204 69.36C228.204 69.08 228.131 68.8333 227.984 68.62C227.851 68.4067 227.598 68.2 227.224 68C226.851 67.7867 226.311 67.56 225.604 67.32C224.631 66.9867 223.898 66.5933 223.404 66.14C222.924 65.6733 222.684 65.0333 222.684 64.22C222.684 63.42 223.031 62.7467 223.724 62.2C224.431 61.64 225.404 61.36 226.644 61.36C227.311 61.36 227.904 61.4333 228.424 61.58C228.944 61.7133 229.411 61.8867 229.824 62.1L229.324 63.58C228.964 63.3667 228.551 63.1933 228.084 63.06C227.631 62.9267 227.124 62.86 226.564 62.86C225.871 62.86 225.344 63 224.984 63.28C224.624 63.56 224.444 63.8667 224.444 64.2C224.444 64.52 224.584 64.7933 224.864 65.02C225.144 65.2467 225.691 65.4933 226.504 65.76C227.824 66.2 228.744 66.6867 229.264 67.22C229.784 67.7533 230.044 68.42 230.044 69.22C230.044 70.1533 229.664 70.8933 228.904 71.44C228.158 71.9733 227.151 72.24 225.884 72.24ZM236.64 72.24C235.653 72.24 234.787 72.0133 234.04 71.56C233.307 71.0933 232.74 70.4533 232.34 69.64C231.94 68.8133 231.74 67.8667 231.74 66.8C231.74 65.8 231.94 64.8867 232.34 64.06C232.753 63.2333 233.34 62.58 234.1 62.1C234.86 61.6067 235.753 61.36 236.78 61.36C237.367 61.36 237.88 61.4133 238.32 61.52C238.773 61.6267 239.207 61.78 239.62 61.98L239.08 63.5C238.707 63.3133 238.347 63.18 238 63.1C237.667 63.0067 237.293 62.96 236.88 62.96C235.947 62.96 235.16 63.3 234.52 63.98C233.893 64.6467 233.58 65.5733 233.58 66.76C233.58 67.48 233.713 68.1333 233.98 68.72C234.247 69.3067 234.613 69.7733 235.08 70.12C235.56 70.4667 236.12 70.64 236.76 70.64C237.267 70.64 237.7 70.5867 238.06 70.48C238.42 70.36 238.807 70.1933 239.22 69.98L239.78 71.5C239.367 71.7267 238.9 71.9067 238.38 72.04C237.873 72.1733 237.293 72.24 236.64 72.24ZM245.838 72.24C244.345 72.24 243.158 71.7667 242.278 70.82C241.411 69.86 240.978 68.52 240.978 66.8C240.978 65.76 241.171 64.8333 241.558 64.02C241.958 63.1933 242.511 62.5467 243.218 62.08C243.925 61.6 244.745 61.36 245.678 61.36C246.678 61.36 247.505 61.58 248.158 62.02C248.825 62.4467 249.325 63.0267 249.658 63.76C249.991 64.4933 250.158 65.3 250.158 66.18C250.158 66.6467 250.138 67.1 250.098 67.54H242.818C242.938 68.5133 243.278 69.2733 243.838 69.82C244.398 70.3667 245.138 70.64 246.058 70.64C246.658 70.64 247.198 70.58 247.678 70.46C248.158 70.3267 248.618 70.16 249.058 69.96L249.478 71.5C248.998 71.7133 248.458 71.8867 247.858 72.02C247.258 72.1667 246.585 72.24 245.838 72.24ZM242.798 66.08H248.498C248.498 65.0667 248.245 64.2867 247.738 63.74C247.231 63.1933 246.531 62.92 245.638 62.92C244.865 62.92 244.225 63.1933 243.718 63.74C243.211 64.2733 242.905 65.0533 242.798 66.08ZM247.398 60.5L243.398 58.46L244.238 56.78L248.018 59.28L247.398 60.5ZM252.557 72V61.6H254.297V63.34C254.67 62.78 255.144 62.3133 255.717 61.94C256.304 61.5533 256.997 61.36 257.797 61.36C258.97 61.36 259.844 61.7133 260.417 62.42C261.004 63.1267 261.297 64.06 261.297 65.22V72H259.497V65.42C259.497 64.6733 259.317 64.0733 258.957 63.62C258.61 63.1667 258.124 62.94 257.497 62.94C256.884 62.94 256.304 63.16 255.757 63.6C255.21 64.0267 254.744 64.5333 254.357 65.12V72H252.557ZM268.553 72.24C267.06 72.24 265.873 71.7667 264.993 70.82C264.126 69.86 263.693 68.52 263.693 66.8C263.693 65.76 263.886 64.8333 264.273 64.02C264.673 63.1933 265.226 62.5467 265.933 62.08C266.64 61.6 267.46 61.36 268.393 61.36C269.393 61.36 270.22 61.58 270.873 62.02C271.54 62.4467 272.04 63.0267 272.373 63.76C272.706 64.4933 272.873 65.3 272.873 66.18C272.873 66.6467 272.853 67.1 272.813 67.54H265.533C265.653 68.5133 265.993 69.2733 266.553 69.82C267.113 70.3667 267.853 70.64 268.773 70.64C269.373 70.64 269.913 70.58 270.393 70.46C270.873 70.3267 271.333 70.16 271.773 69.96L272.193 71.5C271.713 71.7133 271.173 71.8867 270.573 72.02C269.973 72.1667 269.3 72.24 268.553 72.24ZM265.513 66.08H271.213C271.213 65.0667 270.96 64.2867 270.453 63.74C269.946 63.1933 269.246 62.92 268.353 62.92C267.58 62.92 266.94 63.1933 266.433 63.74C265.926 64.2733 265.62 65.0533 265.513 66.08ZM281.268 72V61.6H283.068V72H281.268ZM282.168 59.82C281.821 59.82 281.521 59.6933 281.268 59.44C281.028 59.1867 280.908 58.8933 280.908 58.56C280.908 58.1733 281.021 57.8667 281.248 57.64C281.475 57.4133 281.781 57.3 282.168 57.3C282.515 57.3 282.808 57.4267 283.048 57.68C283.301 57.92 283.428 58.2133 283.428 58.56C283.428 58.9333 283.315 59.24 283.088 59.48C282.861 59.7067 282.555 59.82 282.168 59.82ZM286.268 72V61.6H288.008V63.34C288.381 62.78 288.855 62.3133 289.428 61.94C290.015 61.5533 290.708 61.36 291.508 61.36C292.681 61.36 293.555 61.7133 294.128 62.42C294.715 63.1267 295.008 64.06 295.008 65.22V72H293.208V65.42C293.208 64.6733 293.028 64.0733 292.668 63.62C292.321 63.1667 291.835 62.94 291.208 62.94C290.595 62.94 290.015 63.16 289.468 63.6C288.921 64.0267 288.455 64.5333 288.068 65.12V72H286.268ZM301.744 72.24C300.744 72.24 299.951 71.9133 299.364 71.26C298.791 70.5933 298.504 69.6467 298.504 68.42V63.54H296.704V61.98H298.544L298.924 58.7H300.304V61.98H303.184V63.54H300.304V68.56C300.304 69.3333 300.464 69.8733 300.784 70.18C301.117 70.4867 301.511 70.64 301.964 70.64C302.297 70.64 302.611 70.5867 302.904 70.48C303.211 70.3733 303.491 70.2467 303.744 70.1L304.244 71.54C303.977 71.7 303.617 71.8533 303.164 72C302.711 72.16 302.237 72.24 301.744 72.24ZM309.823 72.24C308.329 72.24 307.143 71.7667 306.263 70.82C305.396 69.86 304.963 68.52 304.963 66.8C304.963 65.76 305.156 64.8333 305.543 64.02C305.943 63.1933 306.496 62.5467 307.203 62.08C307.909 61.6 308.729 61.36 309.663 61.36C310.663 61.36 311.489 61.58 312.143 62.02C312.809 62.4467 313.309 63.0267 313.643 63.76C313.976 64.4933 314.143 65.3 314.143 66.18C314.143 66.6467 314.123 67.1 314.083 67.54H306.803C306.923 68.5133 307.263 69.2733 307.823 69.82C308.383 70.3667 309.123 70.64 310.043 70.64C310.643 70.64 311.183 70.58 311.663 70.46C312.143 70.3267 312.603 70.16 313.043 69.96L313.463 71.5C312.983 71.7133 312.443 71.8867 311.843 72.02C311.243 72.1667 310.569 72.24 309.823 72.24ZM306.783 66.08H312.483C312.483 65.0667 312.229 64.2867 311.723 63.74C311.216 63.1933 310.516 62.92 309.623 62.92C308.849 62.92 308.209 63.1933 307.703 63.74C307.196 64.2733 306.889 65.0533 306.783 66.08ZM316.541 72V61.6H318.281V63.86C318.455 63.42 318.688 63.0133 318.981 62.64C319.275 62.2533 319.641 61.9467 320.081 61.72C320.521 61.48 321.035 61.36 321.621 61.36C321.821 61.36 322.021 61.3733 322.221 61.4C322.421 61.4133 322.588 61.44 322.721 61.48L322.181 63.34C321.928 63.2333 321.628 63.18 321.281 63.18C320.788 63.18 320.315 63.32 319.861 63.6C319.421 63.88 319.055 64.3133 318.761 64.9C318.481 65.4867 318.341 66.2333 318.341 67.14V72H316.541ZM324.53 72V61.6H326.27V63.34C326.643 62.78 327.116 62.3133 327.69 61.94C328.276 61.5533 328.97 61.36 329.77 61.36C330.943 61.36 331.816 61.7133 332.39 62.42C332.976 63.1267 333.27 64.06 333.27 65.22V72H331.47V65.42C331.47 64.6733 331.29 64.0733 330.93 63.62C330.583 63.1667 330.096 62.94 329.47 62.94C328.856 62.94 328.276 63.16 327.73 63.6C327.183 64.0267 326.716 64.5333 326.33 65.12V72H324.53ZM340.346 72.24C339.479 72.24 338.692 72.02 337.986 71.58C337.279 71.14 336.712 70.52 336.286 69.72C335.872 68.9067 335.666 67.9533 335.666 66.86C335.666 65.82 335.872 64.8867 336.286 64.06C336.712 63.2333 337.292 62.58 338.026 62.1C338.772 61.6067 339.626 61.36 340.586 61.36C341.186 61.36 341.726 61.4667 342.206 61.68C342.699 61.88 343.126 62.1333 343.486 62.44V61.6H345.126V69.48C345.126 69.9867 345.246 70.32 345.486 70.48C345.739 70.6267 346.012 70.7 346.306 70.7L345.926 72.1C344.646 72.1 343.872 71.58 343.606 70.54C343.299 70.9667 342.879 71.36 342.346 71.72C341.826 72.0667 341.159 72.24 340.346 72.24ZM340.746 70.64C341.252 70.64 341.732 70.52 342.186 70.28C342.639 70.0267 343.019 69.7133 343.326 69.34V63.76C342.966 63.5067 342.566 63.3067 342.126 63.16C341.699 63 341.246 62.92 340.766 62.92C340.126 62.92 339.559 63.0867 339.066 63.42C338.586 63.74 338.206 64.1933 337.926 64.78C337.646 65.3533 337.506 66.0267 337.506 66.8C337.506 67.5467 337.646 68.2133 337.926 68.8C338.206 69.3733 338.592 69.8267 339.086 70.16C339.579 70.48 340.132 70.64 340.746 70.64ZM352.349 72.24C351.349 72.24 350.556 71.9133 349.969 71.26C349.396 70.5933 349.109 69.6467 349.109 68.42V63.54H347.309V61.98H349.149L349.529 58.7H350.909V61.98H353.789V63.54H350.909V68.56C350.909 69.3333 351.069 69.8733 351.389 70.18C351.723 70.4867 352.116 70.64 352.569 70.64C352.903 70.64 353.216 70.5867 353.509 70.48C353.816 70.3733 354.096 70.2467 354.349 70.1L354.849 71.54C354.583 71.7 354.223 71.8533 353.769 72C353.316 72.16 352.843 72.24 352.349 72.24ZM356.659 72V61.6H358.459V72H356.659ZM357.559 59.82C357.212 59.82 356.912 59.6933 356.659 59.44C356.419 59.1867 356.299 58.8933 356.299 58.56C356.299 58.1733 356.412 57.8667 356.639 57.64C356.865 57.4133 357.172 57.3 357.559 57.3C357.905 57.3 358.199 57.4267 358.439 57.68C358.692 57.92 358.819 58.2133 358.819 58.56C358.819 58.9333 358.705 59.24 358.479 59.48C358.252 59.7067 357.945 59.82 357.559 59.82ZM366.039 72.24C365.052 72.24 364.165 72.0133 363.379 71.56C362.592 71.0933 361.972 70.4533 361.519 69.64C361.079 68.8133 360.859 67.8667 360.859 66.8C360.859 65.68 361.085 64.7133 361.539 63.9C361.992 63.0867 362.612 62.46 363.399 62.02C364.185 61.58 365.065 61.36 366.039 61.36C367.012 61.36 367.885 61.58 368.659 62.02C369.445 62.46 370.065 63.0867 370.519 63.9C370.985 64.7 371.219 65.6533 371.219 66.76C371.219 67.8667 370.992 68.8333 370.539 69.66C370.085 70.4733 369.465 71.1067 368.679 71.56C367.905 72.0133 367.025 72.24 366.039 72.24ZM366.039 70.64C367.092 70.64 367.912 70.2867 368.499 69.58C369.085 68.86 369.379 67.9333 369.379 66.8C369.379 66.1067 369.232 65.4733 368.939 64.9C368.645 64.3133 368.245 63.8467 367.739 63.5C367.245 63.14 366.679 62.96 366.039 62.96C364.985 62.96 364.165 63.3067 363.579 64C362.992 64.6933 362.699 65.6133 362.699 66.76C362.699 67.4533 362.845 68.1 363.139 68.7C363.432 69.2867 363.825 69.76 364.319 70.12C364.825 70.4667 365.399 70.64 366.039 70.64ZM373.612 72V61.6H375.352V63.34C375.725 62.78 376.198 62.3133 376.772 61.94C377.358 61.5533 378.052 61.36 378.852 61.36C380.025 61.36 380.898 61.7133 381.472 62.42C382.058 63.1267 382.352 64.06 382.352 65.22V72H380.552V65.42C380.552 64.6733 380.372 64.0733 380.012 63.62C379.665 63.1667 379.178 62.94 378.552 62.94C377.938 62.94 377.358 63.16 376.812 63.6C376.265 64.0267 375.798 64.5333 375.412 65.12V72H373.612ZM389.428 72.24C388.561 72.24 387.774 72.02 387.068 71.58C386.361 71.14 385.794 70.52 385.368 69.72C384.954 68.9067 384.748 67.9533 384.748 66.86C384.748 65.82 384.954 64.8867 385.368 64.06C385.794 63.2333 386.374 62.58 387.108 62.1C387.854 61.6067 388.708 61.36 389.668 61.36C390.268 61.36 390.808 61.4667 391.288 61.68C391.781 61.88 392.208 62.1333 392.568 62.44V61.6H394.208V69.48C394.208 69.9867 394.328 70.32 394.568 70.48C394.821 70.6267 395.094 70.7 395.388 70.7L395.008 72.1C393.728 72.1 392.954 71.58 392.688 70.54C392.381 70.9667 391.961 71.36 391.428 71.72C390.908 72.0667 390.241 72.24 389.428 72.24ZM389.828 70.64C390.334 70.64 390.814 70.52 391.268 70.28C391.721 70.0267 392.101 69.7133 392.408 69.34V63.76C392.048 63.5067 391.648 63.3067 391.208 63.16C390.781 63 390.328 62.92 389.848 62.92C389.208 62.92 388.641 63.0867 388.148 63.42C387.668 63.74 387.288 64.1933 387.008 64.78C386.728 65.3533 386.588 66.0267 386.588 66.8C386.588 67.5467 386.728 68.2133 387.008 68.8C387.288 69.3733 387.674 69.8267 388.168 70.16C388.661 70.48 389.214 70.64 389.828 70.64ZM400.951 72.24C400.338 72.24 399.785 72.1267 399.291 71.9C398.798 71.66 398.405 71.28 398.111 70.76C397.831 70.24 397.691 69.5667 397.691 68.74V57.2H399.491V68.56C399.491 69.28 399.638 69.8133 399.931 70.16C400.238 70.5067 400.658 70.68 401.191 70.68C401.445 70.68 401.691 70.6533 401.931 70.6C402.185 70.5333 402.398 70.46 402.571 70.38L403.011 71.84C402.771 71.9467 402.471 72.04 402.111 72.12C401.765 72.2 401.378 72.24 400.951 72.24ZM408.573 72.24C407.079 72.24 405.893 71.7667 405.013 70.82C404.146 69.86 403.713 68.52 403.713 66.8C403.713 65.76 403.906 64.8333 404.293 64.02C404.693 63.1933 405.246 62.5467 405.953 62.08C406.659 61.6 407.479 61.36 408.413 61.36C409.413 61.36 410.239 61.58 410.893 62.02C411.559 62.4467 412.059 63.0267 412.393 63.76C412.726 64.4933 412.893 65.3 412.893 66.18C412.893 66.6467 412.873 67.1 412.833 67.54H405.553C405.673 68.5133 406.013 69.2733 406.573 69.82C407.133 70.3667 407.873 70.64 408.793 70.64C409.393 70.64 409.933 70.58 410.413 70.46C410.893 70.3267 411.353 70.16 411.793 69.96L412.213 71.5C411.733 71.7133 411.193 71.8867 410.593 72.02C409.993 72.1667 409.319 72.24 408.573 72.24ZM405.533 66.08H411.233C411.233 65.0667 410.979 64.2867 410.473 63.74C409.966 63.1933 409.266 62.92 408.373 62.92C407.599 62.92 406.959 63.1933 406.453 63.74C405.946 64.2733 405.639 65.0533 405.533 66.08ZM416.691 72.24C416.331 72.24 416.018 72.1067 415.751 71.84C415.485 71.5733 415.351 71.26 415.351 70.9C415.351 70.4867 415.471 70.16 415.711 69.92C415.951 69.68 416.278 69.56 416.691 69.56C417.038 69.56 417.345 69.6933 417.611 69.96C417.891 70.2267 418.031 70.54 418.031 70.9C418.031 71.3 417.905 71.6267 417.651 71.88C417.398 72.12 417.078 72.24 416.691 72.24Z" fill="white"/>
</svg>
