<svg width="173" height="21" viewBox="0 0 173 21" fill="none" xmlns="http://www.w3.org/2000/svg">
<path opacity="0.4" d="M4.84 16.16C4.02667 16.16 3.25333 16.14 2.52 16.1C1.8 16.06 1.22667 16.0133 0.8 15.96V2.04C1.26667 1.98667 1.84667 1.94 2.54 1.9C3.23333 1.86 4.02667 1.84 4.92 1.84C6.62667 1.84 7.94 2.16667 8.86 2.82C9.78 3.46 10.24 4.33333 10.24 5.44C10.24 6.17333 10.04 6.8 9.64 7.32C9.25333 7.82667 8.68667 8.24667 7.94 8.58C8.84667 8.9 9.53333 9.34667 10 9.92C10.4667 10.48 10.7 11.1733 10.7 12C10.7 13.2667 10.2 14.28 9.2 15.04C8.2 15.7867 6.74667 16.16 4.84 16.16ZM2.7 8.04H4.9C5.95333 8.04 6.78667 7.82 7.4 7.38C8.02667 6.94 8.34 6.37333 8.34 5.68C8.34 4.93333 8.03333 4.36667 7.42 3.98C6.80667 3.58 5.96667 3.38 4.9 3.38C4.46 3.38 4.06 3.39333 3.7 3.42C3.34 3.43333 3.00667 3.45333 2.7 3.48V8.04ZM4.98 14.58C6.16667 14.58 7.09333 14.3667 7.76 13.94C8.42667 13.5133 8.76 12.8933 8.76 12.08C8.76 11.28 8.43333 10.6533 7.78 10.2C7.12667 9.74667 6.19333 9.52 4.98 9.52H2.7V14.46C3.40667 14.54 4.16667 14.58 4.98 14.58ZM17.5777 16.24C16.591 16.24 15.7043 16.0133 14.9177 15.56C14.131 15.0933 13.511 14.4533 13.0577 13.64C12.6177 12.8133 12.3977 11.8667 12.3977 10.8C12.3977 9.68 12.6243 8.71333 13.0777 7.9C13.531 7.08667 14.151 6.46 14.9377 6.02C15.7243 5.58 16.6043 5.36 17.5777 5.36C18.551 5.36 19.4243 5.58 20.1977 6.02C20.9843 6.46 21.6043 7.08667 22.0577 7.9C22.5243 8.7 22.7577 9.65333 22.7577 10.76C22.7577 11.8667 22.531 12.8333 22.0777 13.66C21.6243 14.4733 21.0043 15.1067 20.2177 15.56C19.4443 16.0133 18.5643 16.24 17.5777 16.24ZM17.5777 14.64C18.631 14.64 19.451 14.2867 20.0377 13.58C20.6243 12.86 20.9177 11.9333 20.9177 10.8C20.9177 10.1067 20.771 9.47333 20.4777 8.9C20.1843 8.31333 19.7843 7.84667 19.2777 7.5C18.7843 7.14 18.2177 6.96 17.5777 6.96C16.5243 6.96 15.7043 7.30667 15.1177 8C14.531 8.69333 14.2377 9.61333 14.2377 10.76C14.2377 11.4533 14.3843 12.1 14.6777 12.7C14.971 13.2867 15.3643 13.76 15.8577 14.12C16.3643 14.4667 16.9377 14.64 17.5777 14.64ZM28.3108 16.24C27.6974 16.24 27.1441 16.1267 26.6508 15.9C26.1574 15.66 25.7641 15.28 25.4708 14.76C25.1908 14.24 25.0508 13.5667 25.0508 12.74V1.2H26.8508V12.56C26.8508 13.28 26.9974 13.8133 27.2908 14.16C27.5974 14.5067 28.0174 14.68 28.5508 14.68C28.8041 14.68 29.0508 14.6533 29.2908 14.6C29.5441 14.5333 29.7574 14.46 29.9308 14.38L30.3708 15.84C30.1308 15.9467 29.8308 16.04 29.4708 16.12C29.1241 16.2 28.7374 16.24 28.3108 16.24ZM35.0295 16.24C34.4162 16.24 33.8629 16.1267 33.3695 15.9C32.8762 15.66 32.4829 15.28 32.1895 14.76C31.9095 14.24 31.7695 13.5667 31.7695 12.74V1.2H33.5695V12.56C33.5695 13.28 33.7162 13.8133 34.0095 14.16C34.3162 14.5067 34.7362 14.68 35.2695 14.68C35.5229 14.68 35.7695 14.6533 36.0095 14.6C36.2629 14.5333 36.4762 14.46 36.6495 14.38L37.0895 15.84C36.8495 15.9467 36.5495 16.04 36.1895 16.12C35.8429 16.2 35.4562 16.24 35.0295 16.24ZM38.2428 20.64C37.8428 20.64 37.4895 20.6 37.1828 20.52C36.8895 20.44 36.6561 20.3467 36.4828 20.24L36.8828 18.74C37.0428 18.8333 37.2428 18.9133 37.4828 18.98C37.7228 19.0467 37.9895 19.08 38.2828 19.08C38.8428 19.08 39.3428 18.9 39.7828 18.54C40.2228 18.18 40.6428 17.4733 41.0428 16.42L41.5028 15.22H40.5428L36.4828 6.08L38.0828 5.36L41.9628 14.02L44.9828 5.44L46.6428 6.08L42.8228 16.52C42.4361 17.5867 42.0161 18.42 41.5628 19.02C41.1095 19.62 40.6095 20.04 40.0628 20.28C39.5161 20.52 38.9095 20.64 38.2428 20.64ZM50.6316 16L47.3516 6.08L49.0116 5.5L51.6916 13.96L54.1316 6.34H56.0716L58.4516 13.96L61.1116 5.5L62.7116 6.08L59.4116 16H57.4316L55.0316 8.26L52.6116 16H50.6316ZM69.0034 16.24C68.0168 16.24 67.1301 16.0133 66.3434 15.56C65.5568 15.0933 64.9368 14.4533 64.4834 13.64C64.0434 12.8133 63.8234 11.8667 63.8234 10.8C63.8234 9.68 64.0501 8.71333 64.5034 7.9C64.9568 7.08667 65.5768 6.46 66.3634 6.02C67.1501 5.58 68.0301 5.36 69.0034 5.36C69.9768 5.36 70.8501 5.58 71.6234 6.02C72.4101 6.46 73.0301 7.08667 73.4834 7.9C73.9501 8.7 74.1834 9.65333 74.1834 10.76C74.1834 11.8667 73.9568 12.8333 73.5034 13.66C73.0501 14.4733 72.4301 15.1067 71.6434 15.56C70.8701 16.0133 69.9901 16.24 69.0034 16.24ZM69.0034 14.64C70.0568 14.64 70.8768 14.2867 71.4634 13.58C72.0501 12.86 72.3434 11.9333 72.3434 10.8C72.3434 10.1067 72.1968 9.47333 71.9034 8.9C71.6101 8.31333 71.2101 7.84667 70.7034 7.5C70.2101 7.14 69.6434 6.96 69.0034 6.96C67.9501 6.96 67.1301 7.30667 66.5434 8C65.9568 8.69333 65.6634 9.61333 65.6634 10.76C65.6634 11.4533 65.8101 12.1 66.1034 12.7C66.3968 13.2867 66.7901 13.76 67.2834 14.12C67.7901 14.4667 68.3634 14.64 69.0034 14.64ZM80.9566 16.24C79.9699 16.24 79.0832 16.0133 78.2966 15.56C77.5099 15.0933 76.8899 14.4533 76.4366 13.64C75.9966 12.8133 75.7766 11.8667 75.7766 10.8C75.7766 9.68 76.0032 8.71333 76.4566 7.9C76.9099 7.08667 77.5299 6.46 78.3166 6.02C79.1032 5.58 79.9832 5.36 80.9566 5.36C81.9299 5.36 82.8032 5.58 83.5766 6.02C84.3632 6.46 84.9832 7.08667 85.4366 7.9C85.9032 8.7 86.1366 9.65333 86.1366 10.76C86.1366 11.8667 85.9099 12.8333 85.4566 13.66C85.0032 14.4733 84.3832 15.1067 83.5966 15.56C82.8232 16.0133 81.9432 16.24 80.9566 16.24ZM80.9566 14.64C82.0099 14.64 82.8299 14.2867 83.4166 13.58C84.0032 12.86 84.2966 11.9333 84.2966 10.8C84.2966 10.1067 84.1499 9.47333 83.8566 8.9C83.5632 8.31333 83.1632 7.84667 82.6566 7.5C82.1632 7.14 81.5966 6.96 80.9566 6.96C79.9032 6.96 79.0832 7.30667 78.4966 8C77.9099 8.69333 77.6166 9.61333 77.6166 10.76C77.6166 11.4533 77.7632 12.1 78.0566 12.7C78.3499 13.2867 78.7432 13.76 79.2366 14.12C79.7432 14.4667 80.3166 14.64 80.9566 14.64ZM92.4697 16.24C91.6164 16.24 90.8364 16.02 90.1297 15.58C89.423 15.14 88.863 14.52 88.4497 13.72C88.0364 12.9067 87.8297 11.9533 87.8297 10.86C87.8297 9.80667 88.0364 8.86667 88.4497 8.04C88.8764 7.21333 89.4364 6.56 90.1297 6.08C90.8364 5.6 91.6097 5.36 92.4497 5.36C93.143 5.36 93.7364 5.5 94.2297 5.78C94.7364 6.06 95.1297 6.34667 95.4097 6.64V1.2H97.2097V13.48C97.2097 13.9867 97.3297 14.32 97.5697 14.48C97.823 14.6267 98.0964 14.7 98.3897 14.7L98.0097 16.1C96.743 16.1 95.9697 15.5933 95.6897 14.58C95.3964 14.9933 94.983 15.3733 94.4497 15.72C93.9297 16.0667 93.2697 16.24 92.4697 16.24ZM92.8697 14.64C93.363 14.64 93.8297 14.5267 94.2697 14.3C94.723 14.06 95.103 13.7533 95.4097 13.38V8.22C95.1564 7.9 94.803 7.60667 94.3497 7.34C93.8964 7.06 93.3964 6.92 92.8497 6.92C92.2097 6.92 91.6497 7.09333 91.1697 7.44C90.6897 7.78667 90.3164 8.25333 90.0497 8.84C89.7964 9.41333 89.6697 10.0667 89.6697 10.8C89.6697 11.5333 89.8097 12.1933 90.0897 12.78C90.3697 13.3533 90.7497 13.8067 91.2297 14.14C91.723 14.4733 92.2697 14.64 92.8697 14.64ZM112.371 16.24C111.158 16.24 110.085 15.9533 109.151 15.38C108.218 14.7933 107.491 13.9667 106.971 12.9C106.451 11.82 106.191 10.54 106.191 9.06C106.191 7.63333 106.451 6.37333 106.971 5.28C107.505 4.17333 108.251 3.31333 109.211 2.7C110.185 2.07333 111.318 1.76 112.611 1.76C113.278 1.76 113.885 1.82667 114.431 1.96C114.978 2.08 115.491 2.25333 115.971 2.48L115.391 4.08C114.978 3.88 114.551 3.72 114.111 3.6C113.685 3.48 113.178 3.42 112.591 3.42C111.738 3.42 110.971 3.64 110.291 4.08C109.625 4.52 109.098 5.15333 108.711 5.98C108.325 6.80667 108.131 7.80667 108.131 8.98C108.131 10.1 108.318 11.08 108.691 11.92C109.078 12.76 109.605 13.4133 110.271 13.88C110.951 14.3467 111.725 14.58 112.591 14.58C113.245 14.58 113.811 14.5 114.291 14.34C114.771 14.18 115.238 13.9733 115.691 13.72L116.271 15.3C115.778 15.5667 115.211 15.7933 114.571 15.98C113.945 16.1533 113.211 16.24 112.371 16.24ZM121.436 16.24C120.822 16.24 120.269 16.1267 119.776 15.9C119.282 15.66 118.889 15.28 118.596 14.76C118.316 14.24 118.176 13.5667 118.176 12.74V1.2H119.976V12.56C119.976 13.28 120.122 13.8133 120.416 14.16C120.722 14.5067 121.142 14.68 121.676 14.68C121.929 14.68 122.176 14.6533 122.416 14.6C122.669 14.5333 122.882 14.46 123.056 14.38L123.496 15.84C123.256 15.9467 122.956 16.04 122.596 16.12C122.249 16.2 121.862 16.24 121.436 16.24ZM128.877 16.24C128.01 16.24 127.224 16.02 126.517 15.58C125.81 15.14 125.244 14.52 124.817 13.72C124.404 12.9067 124.197 11.9533 124.197 10.86C124.197 9.82 124.404 8.88667 124.817 8.06C125.244 7.23333 125.824 6.58 126.557 6.1C127.304 5.60667 128.157 5.36 129.117 5.36C129.717 5.36 130.257 5.46667 130.737 5.68C131.23 5.88 131.657 6.13333 132.017 6.44V5.6H133.657V13.48C133.657 13.9867 133.777 14.32 134.017 14.48C134.27 14.6267 134.544 14.7 134.837 14.7L134.457 16.1C133.177 16.1 132.404 15.58 132.137 14.54C131.83 14.9667 131.41 15.36 130.877 15.72C130.357 16.0667 129.69 16.24 128.877 16.24ZM129.277 14.64C129.784 14.64 130.264 14.52 130.717 14.28C131.17 14.0267 131.55 13.7133 131.857 13.34V7.76C131.497 7.50667 131.097 7.30667 130.657 7.16C130.23 7 129.777 6.92 129.297 6.92C128.657 6.92 128.09 7.08667 127.597 7.42C127.117 7.74 126.737 8.19333 126.457 8.78C126.177 9.35333 126.037 10.0267 126.037 10.8C126.037 11.5467 126.177 12.2133 126.457 12.8C126.737 13.3733 127.124 13.8267 127.617 14.16C128.11 14.48 128.664 14.64 129.277 14.64ZM140.041 16.24C139.254 16.24 138.541 16.14 137.901 15.94C137.274 15.74 136.754 15.48 136.341 15.16L137.101 13.66C137.447 13.9533 137.881 14.2 138.401 14.4C138.934 14.5867 139.501 14.68 140.101 14.68C140.847 14.68 141.407 14.56 141.781 14.32C142.167 14.0667 142.361 13.7467 142.361 13.36C142.361 13.08 142.287 12.8333 142.141 12.62C142.007 12.4067 141.754 12.2 141.381 12C141.007 11.7867 140.467 11.56 139.761 11.32C138.787 10.9867 138.054 10.5933 137.561 10.14C137.081 9.67333 136.841 9.03333 136.841 8.22C136.841 7.42 137.187 6.74667 137.881 6.2C138.587 5.64 139.561 5.36 140.801 5.36C141.467 5.36 142.061 5.43333 142.581 5.58C143.101 5.71333 143.567 5.88667 143.981 6.1L143.481 7.58C143.121 7.36667 142.707 7.19333 142.241 7.06C141.787 6.92667 141.281 6.86 140.721 6.86C140.027 6.86 139.501 7 139.141 7.28C138.781 7.56 138.601 7.86667 138.601 8.2C138.601 8.52 138.741 8.79333 139.021 9.02C139.301 9.24667 139.847 9.49333 140.661 9.76C141.981 10.2 142.901 10.6867 143.421 11.22C143.941 11.7533 144.201 12.42 144.201 13.22C144.201 14.1533 143.821 14.8933 143.061 15.44C142.314 15.9733 141.307 16.24 140.041 16.24ZM149.396 16.24C148.609 16.24 147.896 16.14 147.256 15.94C146.629 15.74 146.109 15.48 145.696 15.16L146.456 13.66C146.803 13.9533 147.236 14.2 147.756 14.4C148.289 14.5867 148.856 14.68 149.456 14.68C150.203 14.68 150.763 14.56 151.136 14.32C151.523 14.0667 151.716 13.7467 151.716 13.36C151.716 13.08 151.643 12.8333 151.496 12.62C151.363 12.4067 151.109 12.2 150.736 12C150.363 11.7867 149.823 11.56 149.116 11.32C148.143 10.9867 147.409 10.5933 146.916 10.14C146.436 9.67333 146.196 9.03333 146.196 8.22C146.196 7.42 146.543 6.74667 147.236 6.2C147.943 5.64 148.916 5.36 150.156 5.36C150.823 5.36 151.416 5.43333 151.936 5.58C152.456 5.71333 152.923 5.88667 153.336 6.1L152.836 7.58C152.476 7.36667 152.063 7.19333 151.596 7.06C151.143 6.92667 150.636 6.86 150.076 6.86C149.383 6.86 148.856 7 148.496 7.28C148.136 7.56 147.956 7.86667 147.956 8.2C147.956 8.52 148.096 8.79333 148.376 9.02C148.656 9.24667 149.203 9.49333 150.016 9.76C151.336 10.2 152.256 10.6867 152.776 11.22C153.296 11.7533 153.556 12.42 153.556 13.22C153.556 14.1533 153.176 14.8933 152.416 15.44C151.669 15.9733 150.663 16.24 149.396 16.24ZM155.952 16V5.6H157.752V16H155.952ZM156.852 3.82C156.505 3.82 156.205 3.69333 155.952 3.44C155.712 3.18667 155.592 2.89333 155.592 2.56C155.592 2.17333 155.705 1.86667 155.932 1.64C156.158 1.41333 156.465 1.3 156.852 1.3C157.198 1.3 157.492 1.42667 157.732 1.68C157.985 1.92 158.112 2.21333 158.112 2.56C158.112 2.93333 157.998 3.24 157.772 3.48C157.545 3.70667 157.238 3.82 156.852 3.82ZM167.832 20.4V14.94C167.552 15.2333 167.158 15.5267 166.652 15.82C166.158 16.1 165.578 16.24 164.912 16.24C164.112 16.24 163.352 16.0333 162.632 15.62C161.925 15.2067 161.352 14.6 160.912 13.8C160.472 12.9867 160.252 12 160.252 10.84C160.252 9.74667 160.472 8.79333 160.912 7.98C161.352 7.15333 161.938 6.51333 162.672 6.06C163.405 5.59333 164.212 5.36 165.092 5.36C165.692 5.36 166.232 5.46667 166.712 5.68C167.205 5.88 167.632 6.13333 167.992 6.44V5.6H169.632V20.4H167.832ZM165.312 14.64C165.845 14.64 166.332 14.5133 166.772 14.26C167.212 14.0067 167.565 13.7133 167.832 13.38V7.76C167.472 7.50667 167.072 7.30667 166.632 7.16C166.205 7 165.752 6.92 165.272 6.92C164.698 6.92 164.172 7.07333 163.692 7.38C163.212 7.68667 162.825 8.12667 162.532 8.7C162.238 9.27333 162.092 9.96667 162.092 10.78C162.092 11.58 162.238 12.2733 162.532 12.86C162.838 13.4333 163.238 13.8733 163.732 14.18C164.225 14.4867 164.752 14.64 165.312 14.64ZM176.227 16.24C175.627 16.24 175.06 16.1133 174.527 15.86C173.993 15.6067 173.56 15.2 173.227 14.64C172.893 14.0667 172.727 13.3067 172.727 12.36V5.6H174.527V12.12C174.527 12.9333 174.7 13.56 175.047 14C175.393 14.4267 175.9 14.64 176.567 14.64C177.113 14.64 177.64 14.5333 178.147 14.32C178.667 14.0933 179.127 13.7933 179.527 13.42V5.6H181.327V13.3C181.327 13.8733 181.447 14.2533 181.687 14.44C181.94 14.6133 182.213 14.7 182.507 14.7L182.127 16.1C180.887 16.1 180.12 15.6067 179.827 14.62C179.36 15.1 178.82 15.4933 178.207 15.8C177.593 16.0933 176.933 16.24 176.227 16.24ZM188.862 16.24C187.368 16.24 186.182 15.7667 185.302 14.82C184.435 13.86 184.002 12.52 184.002 10.8C184.002 9.76 184.195 8.83333 184.582 8.02C184.982 7.19333 185.535 6.54667 186.242 6.08C186.948 5.6 187.768 5.36 188.702 5.36C189.702 5.36 190.528 5.58 191.182 6.02C191.848 6.44667 192.348 7.02667 192.682 7.76C193.015 8.49333 193.182 9.3 193.182 10.18C193.182 10.6467 193.162 11.1 193.122 11.54H185.842C185.962 12.5133 186.302 13.2733 186.862 13.82C187.422 14.3667 188.162 14.64 189.082 14.64C189.682 14.64 190.222 14.58 190.702 14.46C191.182 14.3267 191.642 14.16 192.082 13.96L192.502 15.5C192.022 15.7133 191.482 15.8867 190.882 16.02C190.282 16.1667 189.608 16.24 188.862 16.24ZM185.822 10.08H191.522C191.522 9.06667 191.268 8.28667 190.762 7.74C190.255 7.19333 189.555 6.92 188.662 6.92C187.888 6.92 187.248 7.19333 186.742 7.74C186.235 8.27333 185.928 9.05333 185.822 10.08ZM198.38 16.24C197.594 16.24 196.88 16.14 196.24 15.94C195.614 15.74 195.094 15.48 194.68 15.16L195.44 13.66C195.787 13.9533 196.22 14.2 196.74 14.4C197.274 14.5867 197.84 14.68 198.44 14.68C199.187 14.68 199.747 14.56 200.12 14.32C200.507 14.0667 200.7 13.7467 200.7 13.36C200.7 13.08 200.627 12.8333 200.48 12.62C200.347 12.4067 200.094 12.2 199.72 12C199.347 11.7867 198.807 11.56 198.1 11.32C197.127 10.9867 196.394 10.5933 195.9 10.14C195.42 9.67333 195.18 9.03333 195.18 8.22C195.18 7.42 195.527 6.74667 196.22 6.2C196.927 5.64 197.9 5.36 199.14 5.36C199.807 5.36 200.4 5.43333 200.92 5.58C201.44 5.71333 201.907 5.88667 202.32 6.1L201.82 7.58C201.46 7.36667 201.047 7.19333 200.58 7.06C200.127 6.92667 199.62 6.86 199.06 6.86C198.367 6.86 197.84 7 197.48 7.28C197.12 7.56 196.94 7.86667 196.94 8.2C196.94 8.52 197.08 8.79333 197.36 9.02C197.64 9.24667 198.187 9.49333 199 9.76C200.32 10.2 201.24 10.6867 201.76 11.22C202.28 11.7533 202.54 12.42 202.54 13.22C202.54 14.1533 202.16 14.8933 201.4 15.44C200.654 15.9733 199.647 16.24 198.38 16.24ZM213.112 18.46C212.285 16.9933 211.639 15.54 211.172 14.1C210.705 12.6467 210.472 11.1467 210.472 9.6C210.472 7.93333 210.705 6.39333 211.172 4.98C211.652 3.55333 212.299 2.14 213.112 0.74L214.172 1.34C213.679 2.46 213.252 3.71333 212.892 5.1C212.545 6.47333 212.372 7.97333 212.372 9.6C212.372 11.2133 212.545 12.7067 212.892 14.08C213.252 15.4533 213.679 16.7133 214.172 17.86L213.112 18.46ZM216.928 16V5.6H218.668V7.34C219.041 6.78 219.515 6.31333 220.088 5.94C220.661 5.55333 221.315 5.36 222.048 5.36C222.875 5.36 223.548 5.56 224.068 5.96C224.601 6.36 224.975 6.89333 225.188 7.56C225.601 6.94667 226.088 6.42667 226.648 6C227.221 5.57333 227.928 5.36 228.768 5.36C229.901 5.36 230.741 5.72 231.288 6.44C231.848 7.14667 232.128 8.07333 232.128 9.22V16H230.328V9.36C230.328 8.64 230.161 8.06 229.828 7.62C229.495 7.16667 229.035 6.94 228.448 6.94C227.848 6.94 227.288 7.16667 226.768 7.62C226.261 8.06 225.815 8.58 225.428 9.18V16H223.628V9.36C223.628 8.64 223.461 8.06 223.128 7.62C222.795 7.16667 222.335 6.94 221.748 6.94C221.161 6.94 220.608 7.16 220.088 7.6C219.568 8.02667 219.115 8.53333 218.728 9.12V16H216.928ZM239.209 16.24C238.342 16.24 237.556 16.02 236.849 15.58C236.142 15.14 235.576 14.52 235.149 13.72C234.736 12.9067 234.529 11.9533 234.529 10.86C234.529 9.82 234.736 8.88667 235.149 8.06C235.576 7.23333 236.156 6.58 236.889 6.1C237.636 5.60667 238.489 5.36 239.449 5.36C240.049 5.36 240.589 5.46667 241.069 5.68C241.562 5.88 241.989 6.13333 242.349 6.44V5.6H243.989V13.48C243.989 13.9867 244.109 14.32 244.349 14.48C244.602 14.6267 244.876 14.7 245.169 14.7L244.789 16.1C243.509 16.1 242.736 15.58 242.469 14.54C242.162 14.9667 241.742 15.36 241.209 15.72C240.689 16.0667 240.022 16.24 239.209 16.24ZM239.609 14.64C240.116 14.64 240.596 14.52 241.049 14.28C241.502 14.0267 241.882 13.7133 242.189 13.34V7.76C241.829 7.50667 241.429 7.30667 240.989 7.16C240.562 7 240.109 6.92 239.629 6.92C238.989 6.92 238.422 7.08667 237.929 7.42C237.449 7.74 237.069 8.19333 236.789 8.78C236.509 9.35333 236.369 10.0267 236.369 10.8C236.369 11.5467 236.509 12.2133 236.789 12.8C237.069 13.3733 237.456 13.8267 237.949 14.16C238.442 14.48 238.996 14.64 239.609 14.64ZM247.573 16V5.6H249.373V16H247.573ZM248.473 3.82C248.126 3.82 247.826 3.69333 247.573 3.44C247.333 3.18667 247.213 2.89333 247.213 2.56C247.213 2.17333 247.326 1.86667 247.553 1.64C247.779 1.41333 248.086 1.3 248.473 1.3C248.819 1.3 249.113 1.42667 249.353 1.68C249.606 1.92 249.733 2.21333 249.733 2.56C249.733 2.93333 249.619 3.24 249.393 3.48C249.166 3.70667 248.859 3.82 248.473 3.82ZM258.729 16C258.689 15.76 258.669 15.5133 258.669 15.26C258.669 14.3933 258.815 13.62 259.109 12.94C259.415 12.2467 259.809 11.62 260.289 11.06C260.769 10.4867 261.275 9.96 261.809 9.48C262.355 8.98667 262.862 8.52 263.329 8.08C263.809 7.62667 264.202 7.17333 264.509 6.72C264.815 6.26667 264.969 5.79333 264.969 5.3C264.969 4.74 264.762 4.28 264.349 3.92C263.935 3.54667 263.402 3.36 262.749 3.36C262.189 3.36 261.675 3.47333 261.209 3.7C260.755 3.91333 260.329 4.20667 259.929 4.58L258.929 3.36C259.462 2.88 260.049 2.49333 260.689 2.2C261.342 1.90667 262.095 1.76 262.949 1.76C263.735 1.76 264.422 1.91333 265.009 2.22C265.595 2.51333 266.049 2.92 266.369 3.44C266.702 3.96 266.869 4.54 266.869 5.18C266.869 5.82 266.729 6.41333 266.449 6.96C266.169 7.50667 265.809 8.02 265.369 8.5C264.929 8.98 264.455 9.44667 263.949 9.9C263.442 10.34 262.955 10.7933 262.489 11.26C262.022 11.7267 261.622 12.2133 261.289 12.72C260.969 13.2267 260.769 13.7733 260.689 14.36H266.849V16H258.729ZM274.941 16.24C273.381 16.24 272.194 15.6067 271.381 14.34C270.568 13.06 270.161 11.2733 270.161 8.98C270.161 6.67333 270.574 4.89333 271.401 3.64C272.241 2.38667 273.434 1.76 274.981 1.76C276.541 1.76 277.728 2.39333 278.541 3.66C279.354 4.92667 279.761 6.71333 279.761 9.02C279.761 11.3267 279.341 13.1067 278.501 14.36C277.674 15.6133 276.488 16.24 274.941 16.24ZM274.961 14.6C275.561 14.6 276.074 14.4267 276.501 14.08C276.941 13.72 277.274 13.1333 277.501 12.32C277.741 11.5067 277.861 10.4133 277.861 9.04C277.861 7.2 277.601 5.8 277.081 4.84C276.574 3.88 275.868 3.4 274.961 3.4C274.361 3.4 273.841 3.58 273.401 3.94C272.974 4.28667 272.641 4.86667 272.401 5.68C272.174 6.48 272.061 7.57333 272.061 8.96C272.061 10.8 272.314 12.2 272.821 13.16C273.341 14.12 274.054 14.6 274.961 14.6ZM283.833 16V14.4H286.693V4.3L284.013 6.32L283.033 4.98L287.173 2H288.493V14.4H290.873V16H283.833ZM299.045 16.24C298.032 16.24 297.152 16.0667 296.405 15.72C295.659 15.3733 295.079 14.9067 294.665 14.32C294.265 13.72 294.065 13.06 294.065 12.34C294.065 11.4733 294.299 10.72 294.765 10.08C295.245 9.44 295.992 8.9 297.005 8.46C296.299 8.07333 295.752 7.62667 295.365 7.12C294.992 6.6 294.805 5.96 294.805 5.2C294.805 4.52 294.985 3.92667 295.345 3.42C295.705 2.9 296.192 2.49333 296.805 2.2C297.432 1.90667 298.125 1.76 298.885 1.76C299.712 1.76 300.439 1.91333 301.065 2.22C301.692 2.51333 302.179 2.92 302.525 3.44C302.885 3.96 303.065 4.54 303.065 5.18C303.065 5.99333 302.859 6.65333 302.445 7.16C302.032 7.66667 301.479 8.09333 300.785 8.44C301.772 8.85333 302.525 9.37333 303.045 10C303.565 10.6133 303.825 11.3533 303.825 12.22C303.825 13.02 303.619 13.7267 303.205 14.34C302.792 14.94 302.225 15.4067 301.505 15.74C300.785 16.0733 299.965 16.24 299.045 16.24ZM299.145 7.78C299.732 7.58 300.239 7.27333 300.665 6.86C301.105 6.44667 301.325 5.94667 301.325 5.36C301.325 4.74667 301.092 4.24 300.625 3.84C300.159 3.44 299.579 3.24 298.885 3.24C298.205 3.24 297.645 3.42 297.205 3.78C296.765 4.12667 296.545 4.58667 296.545 5.16C296.545 5.73333 296.779 6.25333 297.245 6.72C297.725 7.18667 298.359 7.54 299.145 7.78ZM299.065 14.64C299.919 14.64 300.619 14.42 301.165 13.98C301.712 13.5267 301.985 12.9533 301.985 12.26C301.985 11.62 301.699 11.0467 301.125 10.54C300.565 10.0333 299.785 9.6 298.785 9.24C298.279 9.36 297.805 9.54667 297.365 9.8C296.925 10.0533 296.572 10.3667 296.305 10.74C296.039 11.1133 295.905 11.54 295.905 12.02C295.905 12.5133 296.039 12.96 296.305 13.36C296.585 13.76 296.965 14.0733 297.445 14.3C297.925 14.5267 298.465 14.64 299.065 14.64ZM307.158 18.46L306.098 17.86C306.604 16.7133 307.031 15.4533 307.378 14.08C307.724 12.7067 307.898 11.2133 307.898 9.6C307.898 7.97333 307.724 6.47333 307.378 5.1C307.031 3.71333 306.604 2.46 306.098 1.34L307.158 0.74C307.984 2.14 308.631 3.55333 309.098 4.98C309.564 6.39333 309.798 7.93333 309.798 9.6C309.798 11.1467 309.564 12.6467 309.098 14.1C308.631 15.54 307.984 16.9933 307.158 18.46Z" fill="white"/>
</svg>
