<svg width="98" height="21" viewBox="0 0 98 21" fill="none" xmlns="http://www.w3.org/2000/svg">
<path d="M6.18 16.24C4.96667 16.24 3.89333 15.9533 2.96 15.38C2.02667 14.7933 1.3 13.9667 0.78 12.9C0.26 11.82 1.49012e-08 10.54 1.49012e-08 9.06C1.49012e-08 7.63333 0.26 6.37333 0.78 5.28C1.31333 4.17333 2.06 3.31333 3.02 2.7C3.99333 2.07333 5.12667 1.76 6.42 1.76C7.08667 1.76 7.69333 1.82667 8.24 1.96C8.78667 2.08 9.3 2.25333 9.78 2.48L9.2 4.08C8.78667 3.88 8.36 3.72 7.92 3.6C7.49333 3.48 6.98667 3.42 6.4 3.42C5.54667 3.42 4.78 3.64 4.1 4.08C3.43333 4.52 2.90667 5.15333 2.52 5.98C2.13333 6.80667 1.94 7.80667 1.94 8.98C1.94 10.1 2.12667 11.08 2.5 11.92C2.88667 12.76 3.41333 13.4133 4.08 13.88C4.76 14.3467 5.53333 14.58 6.4 14.58C7.05333 14.58 7.62 14.5 8.1 14.34C8.58 14.18 9.04667 13.9733 9.5 13.72L10.08 15.3C9.58667 15.5667 9.02 15.7933 8.38 15.98C7.75333 16.1533 7.02 16.24 6.18 16.24ZM15.8495 16.24C14.9829 16.24 14.1962 16.02 13.4895 15.58C12.7829 15.14 12.2162 14.52 11.7895 13.72C11.3762 12.9067 11.1695 11.9533 11.1695 10.86C11.1695 9.82 11.3762 8.88667 11.7895 8.06C12.2162 7.23333 12.7962 6.58 13.5295 6.1C14.2762 5.60667 15.1295 5.36 16.0895 5.36C16.6895 5.36 17.2295 5.46667 17.7095 5.68C18.2029 5.88 18.6295 6.13333 18.9895 6.44V5.6H20.6295V13.48C20.6295 13.9867 20.7495 14.32 20.9895 14.48C21.2429 14.6267 21.5162 14.7 21.8095 14.7L21.4295 16.1C20.1495 16.1 19.3762 15.58 19.1095 14.54C18.8029 14.9667 18.3829 15.36 17.8495 15.72C17.3295 16.0667 16.6629 16.24 15.8495 16.24ZM16.2495 14.64C16.7562 14.64 17.2362 14.52 17.6895 14.28C18.1429 14.0267 18.5229 13.7133 18.8295 13.34V7.76C18.4695 7.50667 18.0695 7.30667 17.6295 7.16C17.2029 7 16.7495 6.92 16.2695 6.92C15.6295 6.92 15.0629 7.08667 14.5695 7.42C14.0895 7.74 13.7095 8.19333 13.4295 8.78C13.1495 9.35333 13.0095 10.0267 13.0095 10.8C13.0095 11.5467 13.1495 12.2133 13.4295 12.8C13.7095 13.3733 14.0962 13.8267 14.5895 14.16C15.0829 14.48 15.6362 14.64 16.2495 14.64ZM27.8533 16.24C26.8533 16.24 26.0599 15.9133 25.4733 15.26C24.8999 14.5933 24.6133 13.6467 24.6133 12.42V7.54H22.8133V5.98H24.6533L25.0333 2.7H26.4133V5.98H29.2933V7.54H26.4133V12.56C26.4133 13.3333 26.5733 13.8733 26.8933 14.18C27.2266 14.4867 27.6199 14.64 28.0733 14.64C28.4066 14.64 28.7199 14.5867 29.0133 14.48C29.3199 14.3733 29.5999 14.2467 29.8533 14.1L30.3533 15.54C30.0866 15.7 29.7266 15.8533 29.2733 16C28.8199 16.16 28.3466 16.24 27.8533 16.24ZM35.9319 16.24C34.4385 16.24 33.2519 15.7667 32.3719 14.82C31.5052 13.86 31.0719 12.52 31.0719 10.8C31.0719 9.76 31.2652 8.83333 31.6519 8.02C32.0519 7.19333 32.6052 6.54667 33.3119 6.08C34.0185 5.6 34.8385 5.36 35.7719 5.36C36.7719 5.36 37.5985 5.58 38.2519 6.02C38.9185 6.44667 39.4185 7.02667 39.7519 7.76C40.0852 8.49333 40.2519 9.3 40.2519 10.18C40.2519 10.6467 40.2319 11.1 40.1919 11.54H32.9119C33.0319 12.5133 33.3719 13.2733 33.9319 13.82C34.4919 14.3667 35.2319 14.64 36.1519 14.64C36.7519 14.64 37.2919 14.58 37.7719 14.46C38.2519 14.3267 38.7119 14.16 39.1519 13.96L39.5719 15.5C39.0919 15.7133 38.5519 15.8867 37.9519 16.02C37.3519 16.1667 36.6785 16.24 35.9319 16.24ZM32.8919 10.08H38.5919C38.5919 9.06667 38.3385 8.28667 37.8319 7.74C37.3252 7.19333 36.6252 6.92 35.7319 6.92C34.9585 6.92 34.3185 7.19333 33.8119 7.74C33.3052 8.27333 32.9985 9.05333 32.8919 10.08ZM34.1119 4.5L33.4919 3.28L37.2719 0.779999L38.1119 2.46L34.1119 4.5ZM46.4708 20.64C45.8574 20.64 45.2574 20.5667 44.6708 20.42C44.0974 20.2733 43.5841 20.0533 43.1308 19.76L43.7908 18.2C44.1108 18.4533 44.4841 18.66 44.9108 18.82C45.3374 18.9933 45.8574 19.08 46.4708 19.08C47.4174 19.08 48.1574 18.8267 48.6908 18.32C49.2374 17.8267 49.5108 17.0333 49.5108 15.94V14.66C49.2441 14.98 48.8574 15.2867 48.3508 15.58C47.8574 15.86 47.2641 16 46.5708 16C45.7841 16 45.0374 15.8 44.3308 15.4C43.6241 14.9867 43.0508 14.3867 42.6108 13.6C42.1708 12.8133 41.9508 11.8667 41.9508 10.76C41.9508 9.72 42.1641 8.79333 42.5908 7.98C43.0308 7.16667 43.6174 6.52667 44.3508 6.06C45.0841 5.59333 45.8908 5.36 46.7708 5.36C47.3574 5.36 47.8908 5.46 48.3708 5.66C48.8508 5.86 49.2641 6.10667 49.6108 6.4V5.6H51.2508V15.76C51.2508 16.9067 51.0508 17.84 50.6508 18.56C50.2508 19.28 49.6908 19.8067 48.9708 20.14C48.2641 20.4733 47.4308 20.64 46.4708 20.64ZM46.9708 14.4C47.5041 14.4 47.9841 14.28 48.4108 14.04C48.8374 13.8 49.1841 13.52 49.4508 13.2V7.76C49.1574 7.54667 48.8041 7.35333 48.3908 7.18C47.9774 7.00667 47.4974 6.92 46.9508 6.92C46.4041 6.92 45.8908 7.06667 45.4108 7.36C44.9308 7.65333 44.5374 8.08 44.2308 8.64C43.9374 9.18667 43.7908 9.86 43.7908 10.66C43.7908 11.42 43.9374 12.08 44.2308 12.64C44.5374 13.2 44.9308 13.6333 45.4108 13.94C45.8908 14.2467 46.4108 14.4 46.9708 14.4ZM58.73 16.24C57.7433 16.24 56.8567 16.0133 56.07 15.56C55.2833 15.0933 54.6633 14.4533 54.21 13.64C53.77 12.8133 53.55 11.8667 53.55 10.8C53.55 9.68 53.7767 8.71333 54.23 7.9C54.6833 7.08667 55.3033 6.46 56.09 6.02C56.8767 5.58 57.7567 5.36 58.73 5.36C59.7033 5.36 60.5767 5.58 61.35 6.02C62.1367 6.46 62.7567 7.08667 63.21 7.9C63.6767 8.7 63.91 9.65333 63.91 10.76C63.91 11.8667 63.6833 12.8333 63.23 13.66C62.7767 14.4733 62.1567 15.1067 61.37 15.56C60.5967 16.0133 59.7167 16.24 58.73 16.24ZM58.73 14.64C59.7833 14.64 60.6033 14.2867 61.19 13.58C61.7767 12.86 62.07 11.9333 62.07 10.8C62.07 10.1067 61.9233 9.47333 61.63 8.9C61.3367 8.31333 60.9367 7.84667 60.43 7.5C59.9367 7.14 59.37 6.96 58.73 6.96C57.6767 6.96 56.8567 7.30667 56.27 8C55.6833 8.69333 55.39 9.61333 55.39 10.76C55.39 11.4533 55.5367 12.1 55.83 12.7C56.1233 13.2867 56.5167 13.76 57.01 14.12C57.5167 14.4667 58.09 14.64 58.73 14.64ZM66.3031 16V5.6H68.0431V7.86C68.2165 7.42 68.4498 7.01333 68.7431 6.64C69.0365 6.25333 69.4031 5.94667 69.8431 5.72C70.2831 5.48 70.7965 5.36 71.3831 5.36C71.5831 5.36 71.7831 5.37333 71.9831 5.4C72.1831 5.41333 72.3498 5.44 72.4831 5.48L71.9431 7.34C71.6898 7.23333 71.3898 7.18 71.0431 7.18C70.5498 7.18 70.0765 7.32 69.6231 7.6C69.1831 7.88 68.8165 8.31333 68.5231 8.9C68.2431 9.48667 68.1031 10.2333 68.1031 11.14V16H66.3031ZM74.2914 16V5.6H76.0914V16H74.2914ZM75.1914 3.82C74.8447 3.82 74.5447 3.69333 74.2914 3.44C74.0514 3.18667 73.9314 2.89333 73.9314 2.56C73.9314 2.17333 74.0447 1.86667 74.2714 1.64C74.4981 1.41333 74.8047 1.3 75.1914 1.3C75.5381 1.3 75.8314 1.42667 76.0714 1.68C76.3247 1.92 76.4514 2.21333 76.4514 2.56C76.4514 2.93333 76.3381 3.24 76.1114 3.48C75.8847 3.70667 75.5781 3.82 75.1914 3.82ZM83.4514 16.24C81.9581 16.24 80.7714 15.7667 79.8914 14.82C79.0247 13.86 78.5914 12.52 78.5914 10.8C78.5914 9.76 78.7847 8.83333 79.1714 8.02C79.5714 7.19333 80.1247 6.54667 80.8314 6.08C81.5381 5.6 82.3581 5.36 83.2914 5.36C84.2914 5.36 85.1181 5.58 85.7714 6.02C86.4381 6.44667 86.9381 7.02667 87.2714 7.76C87.6047 8.49333 87.7714 9.3 87.7714 10.18C87.7714 10.6467 87.7514 11.1 87.7114 11.54H80.4314C80.5514 12.5133 80.8914 13.2733 81.4514 13.82C82.0114 14.3667 82.7514 14.64 83.6714 14.64C84.2714 14.64 84.8114 14.58 85.2914 14.46C85.7714 14.3267 86.2314 14.16 86.6714 13.96L87.0914 15.5C86.6114 15.7133 86.0714 15.8867 85.4714 16.02C84.8714 16.1667 84.1981 16.24 83.4514 16.24ZM80.4114 10.08H86.1114C86.1114 9.06667 85.8581 8.28667 85.3514 7.74C84.8447 7.19333 84.1447 6.92 83.2514 6.92C82.4781 6.92 81.8381 7.19333 81.3314 7.74C80.8247 8.27333 80.5181 9.05333 80.4114 10.08ZM92.9703 16.24C92.1836 16.24 91.4703 16.14 90.8303 15.94C90.2036 15.74 89.6836 15.48 89.2703 15.16L90.0303 13.66C90.377 13.9533 90.8103 14.2 91.3303 14.4C91.8636 14.5867 92.4303 14.68 93.0303 14.68C93.777 14.68 94.337 14.56 94.7103 14.32C95.097 14.0667 95.2903 13.7467 95.2903 13.36C95.2903 13.08 95.217 12.8333 95.0703 12.62C94.937 12.4067 94.6836 12.2 94.3103 12C93.937 11.7867 93.397 11.56 92.6903 11.32C91.717 10.9867 90.9836 10.5933 90.4903 10.14C90.0103 9.67333 89.7703 9.03333 89.7703 8.22C89.7703 7.42 90.117 6.74667 90.8103 6.2C91.517 5.64 92.4903 5.36 93.7303 5.36C94.397 5.36 94.9903 5.43333 95.5103 5.58C96.0303 5.71333 96.497 5.88667 96.9103 6.1L96.4103 7.58C96.0503 7.36667 95.637 7.19333 95.1703 7.06C94.717 6.92667 94.2103 6.86 93.6503 6.86C92.957 6.86 92.4303 7 92.0703 7.28C91.7103 7.56 91.5303 7.86667 91.5303 8.2C91.5303 8.52 91.6703 8.79333 91.9503 9.02C92.2303 9.24667 92.777 9.49333 93.5903 9.76C94.9103 10.2 95.8303 10.6867 96.3503 11.22C96.8703 11.7533 97.1303 12.42 97.1303 13.22C97.1303 14.1533 96.7503 14.8933 95.9903 15.44C95.2436 15.9733 94.237 16.24 92.9703 16.24Z" fill="white"/>
</svg>
