<svg width="79" height="17" viewBox="0 0 79 17" fill="none" xmlns="http://www.w3.org/2000/svg">
<path d="M6.18 16.24C4.96667 16.24 3.89333 15.9533 2.96 15.38C2.02667 14.7933 1.3 13.9667 0.78 12.9C0.26 11.82 1.49012e-08 10.54 1.49012e-08 9.06C1.49012e-08 7.63333 0.26 6.37333 0.78 5.28C1.31333 4.17333 2.06 3.31333 3.02 2.7C3.99333 2.07333 5.12667 1.76 6.42 1.76C7.08667 1.76 7.69333 1.82667 8.24 1.96C8.78667 2.08 9.3 2.25333 9.78 2.48L9.2 4.08C8.78667 3.88 8.36 3.72 7.92 3.6C7.49333 3.48 6.98667 3.42 6.4 3.42C5.54667 3.42 4.78 3.64 4.1 4.08C3.43333 4.52 2.90667 5.15333 2.52 5.98C2.13333 6.80667 1.94 7.80667 1.94 8.98C1.94 10.1 2.12667 11.08 2.5 11.92C2.88667 12.76 3.41333 13.4133 4.08 13.88C4.76 14.3467 5.53333 14.58 6.4 14.58C7.05333 14.58 7.62 14.5 8.1 14.34C8.58 14.18 9.04667 13.9733 9.5 13.72L10.08 15.3C9.58667 15.5667 9.02 15.7933 8.38 15.98C7.75333 16.1533 7.02 16.24 6.18 16.24ZM16.2495 16.24C15.2629 16.24 14.3762 16.0133 13.5895 15.56C12.8029 15.0933 12.1829 14.4533 11.7295 13.64C11.2895 12.8133 11.0695 11.8667 11.0695 10.8C11.0695 9.68 11.2962 8.71333 11.7495 7.9C12.2029 7.08667 12.8229 6.46 13.6095 6.02C14.3962 5.58 15.2762 5.36 16.2495 5.36C17.2229 5.36 18.0962 5.58 18.8695 6.02C19.6562 6.46 20.2762 7.08667 20.7295 7.9C21.1962 8.7 21.4295 9.65333 21.4295 10.76C21.4295 11.8667 21.2029 12.8333 20.7495 13.66C20.2962 14.4733 19.6762 15.1067 18.8895 15.56C18.1162 16.0133 17.2362 16.24 16.2495 16.24ZM16.2495 14.64C17.3029 14.64 18.1229 14.2867 18.7095 13.58C19.2962 12.86 19.5895 11.9333 19.5895 10.8C19.5895 10.1067 19.4429 9.47333 19.1495 8.9C18.8562 8.31333 18.4562 7.84667 17.9495 7.5C17.4562 7.14 16.8895 6.96 16.2495 6.96C15.1962 6.96 14.3762 7.30667 13.7895 8C13.2029 8.69333 12.9095 9.61333 12.9095 10.76C12.9095 11.4533 13.0562 12.1 13.3495 12.7C13.6429 13.2867 14.0362 13.76 14.5295 14.12C15.0362 14.4667 15.6095 14.64 16.2495 14.64ZM23.8227 16V5.6H25.5627V7.34C25.936 6.78 26.4093 6.31333 26.9827 5.94C27.556 5.55333 28.2093 5.36 28.9427 5.36C29.7693 5.36 30.4427 5.56 30.9627 5.96C31.496 6.36 31.8693 6.89333 32.0827 7.56C32.496 6.94667 32.9827 6.42667 33.5427 6C34.116 5.57333 34.8227 5.36 35.6627 5.36C36.796 5.36 37.636 5.72 38.1827 6.44C38.7427 7.14667 39.0227 8.07333 39.0227 9.22V16H37.2227V9.36C37.2227 8.64 37.056 8.06 36.7227 7.62C36.3893 7.16667 35.9293 6.94 35.3427 6.94C34.7427 6.94 34.1827 7.16667 33.6627 7.62C33.156 8.06 32.7093 8.58 32.3227 9.18V16H30.5227V9.36C30.5227 8.64 30.356 8.06 30.0227 7.62C29.6893 7.16667 29.2293 6.94 28.6427 6.94C28.056 6.94 27.5027 7.16 26.9827 7.6C26.4627 8.02667 26.0093 8.53333 25.6227 9.12V16H23.8227ZM46.2834 16.24C44.7901 16.24 43.6034 15.7667 42.7234 14.82C41.8568 13.86 41.4234 12.52 41.4234 10.8C41.4234 9.76 41.6168 8.83333 42.0034 8.02C42.4034 7.19333 42.9568 6.54667 43.6634 6.08C44.3701 5.6 45.1901 5.36 46.1234 5.36C47.1234 5.36 47.9501 5.58 48.6034 6.02C49.2701 6.44667 49.7701 7.02667 50.1034 7.76C50.4368 8.49333 50.6034 9.3 50.6034 10.18C50.6034 10.6467 50.5834 11.1 50.5434 11.54H43.2634C43.3834 12.5133 43.7234 13.2733 44.2834 13.82C44.8434 14.3667 45.5834 14.64 46.5034 14.64C47.1034 14.64 47.6434 14.58 48.1234 14.46C48.6034 14.3267 49.0634 14.16 49.5034 13.96L49.9234 15.5C49.4434 15.7133 48.9034 15.8867 48.3034 16.02C47.7034 16.1667 47.0301 16.24 46.2834 16.24ZM43.2434 10.08H48.9434C48.9434 9.06667 48.6901 8.28667 48.1834 7.74C47.6768 7.19333 46.9768 6.92 46.0834 6.92C45.3101 6.92 44.6701 7.19333 44.1634 7.74C43.6568 8.27333 43.3501 9.05333 43.2434 10.08ZM44.4634 4.5L43.8434 3.28L47.6234 0.779999L48.4634 2.46L44.4634 4.5ZM56.9423 16.24C56.089 16.24 55.309 16.02 54.6023 15.58C53.8957 15.14 53.3357 14.52 52.9223 13.72C52.509 12.9067 52.3023 11.9533 52.3023 10.86C52.3023 9.80667 52.509 8.86667 52.9223 8.04C53.349 7.21333 53.909 6.56 54.6023 6.08C55.309 5.6 56.0823 5.36 56.9223 5.36C57.6157 5.36 58.209 5.5 58.7023 5.78C59.209 6.06 59.6023 6.34667 59.8823 6.64V1.2H61.6823V13.48C61.6823 13.9867 61.8023 14.32 62.0423 14.48C62.2957 14.6267 62.569 14.7 62.8623 14.7L62.4823 16.1C61.2157 16.1 60.4423 15.5933 60.1623 14.58C59.869 14.9933 59.4557 15.3733 58.9223 15.72C58.4023 16.0667 57.7423 16.24 56.9423 16.24ZM57.3423 14.64C57.8357 14.64 58.3023 14.5267 58.7423 14.3C59.1957 14.06 59.5757 13.7533 59.8823 13.38V8.22C59.629 7.9 59.2757 7.60667 58.8223 7.34C58.369 7.06 57.869 6.92 57.3223 6.92C56.6823 6.92 56.1223 7.09333 55.6423 7.44C55.1623 7.78667 54.789 8.25333 54.5223 8.84C54.269 9.41333 54.1423 10.0667 54.1423 10.8C54.1423 11.5333 54.2823 12.1933 54.5623 12.78C54.8423 13.3533 55.2223 13.8067 55.7023 14.14C56.1957 14.4733 56.7423 14.64 57.3423 14.64ZM65.268 16V5.6H67.068V16H65.268ZM66.168 3.82C65.8213 3.82 65.5213 3.69333 65.268 3.44C65.028 3.18667 64.908 2.89333 64.908 2.56C64.908 2.17333 65.0213 1.86667 65.248 1.64C65.4746 1.41333 65.7813 1.3 66.168 1.3C66.5146 1.3 66.808 1.42667 67.048 1.68C67.3013 1.92 67.428 2.21333 67.428 2.56C67.428 2.93333 67.3146 3.24 67.088 3.48C66.8613 3.70667 66.5546 3.82 66.168 3.82ZM74.428 16.24C72.9346 16.24 71.748 15.7667 70.868 14.82C70.0013 13.86 69.568 12.52 69.568 10.8C69.568 9.76 69.7613 8.83333 70.148 8.02C70.548 7.19333 71.1013 6.54667 71.808 6.08C72.5146 5.6 73.3346 5.36 74.268 5.36C75.268 5.36 76.0946 5.58 76.748 6.02C77.4146 6.44667 77.9146 7.02667 78.248 7.76C78.5813 8.49333 78.748 9.3 78.748 10.18C78.748 10.6467 78.728 11.1 78.688 11.54H71.408C71.528 12.5133 71.868 13.2733 72.428 13.82C72.988 14.3667 73.728 14.64 74.648 14.64C75.248 14.64 75.788 14.58 76.268 14.46C76.748 14.3267 77.208 14.16 77.648 13.96L78.068 15.5C77.588 15.7133 77.048 15.8867 76.448 16.02C75.848 16.1667 75.1746 16.24 74.428 16.24ZM71.388 10.08H77.088C77.088 9.06667 76.8346 8.28667 76.328 7.74C75.8213 7.19333 75.1213 6.92 74.228 6.92C73.4546 6.92 72.8146 7.19333 72.308 7.74C71.8013 8.27333 71.4946 9.05333 71.388 10.08Z" fill="white"/>
</svg>
