<svg width="263" height="19" viewBox="0 0 263 19" fill="none" xmlns="http://www.w3.org/2000/svg">
<path opacity="0.4" d="M4.48 16.16C3.72 16.16 3.05333 16.14 2.48 16.1C1.92 16.06 1.36 16.0133 0.8 15.96V2.04C1.42667 1.97333 2.04 1.92667 2.64 1.9C3.24 1.86 3.92667 1.84 4.7 1.84C5.9 1.84 6.93333 2.02667 7.8 2.4C8.68 2.77333 9.4 3.28667 9.96 3.94C10.5333 4.59333 10.9533 5.35333 11.22 6.22C11.5 7.07333 11.64 7.99333 11.64 8.98C11.64 9.95333 11.5 10.8733 11.22 11.74C10.94 12.6067 10.5067 13.3733 9.92 14.04C9.34667 14.6933 8.60667 15.2133 7.7 15.6C6.80667 15.9733 5.73333 16.16 4.48 16.16ZM4.54 14.5C5.74 14.5 6.72 14.2667 7.48 13.8C8.24 13.3333 8.8 12.6867 9.16 11.86C9.52 11.02 9.7 10.06 9.7 8.98C9.7 8.02 9.52 7.12 9.16 6.28C8.8 5.44 8.24667 4.76667 7.5 4.26C6.75333 3.74 5.8 3.48 4.64 3.48C4.25333 3.48 3.9 3.49333 3.58 3.52C3.26 3.53333 2.96667 3.55333 2.7 3.58V14.4C2.98 14.44 3.27333 14.4667 3.58 14.48C3.88667 14.4933 4.20667 14.5 4.54 14.5ZM14.2328 16V5.6H16.0328V16H14.2328ZM15.1328 3.82C14.7861 3.82 14.4861 3.69333 14.2328 3.44C13.9928 3.18667 13.8728 2.89333 13.8728 2.56C13.8728 2.17333 13.9861 1.86667 14.2128 1.64C14.4395 1.41333 14.7461 1.3 15.1328 1.3C15.4795 1.3 15.7728 1.42667 16.0128 1.68C16.2661 1.92 16.3928 2.21333 16.3928 2.56C16.3928 2.93333 16.2795 3.24 16.0528 3.48C15.8261 3.70667 15.5195 3.82 15.1328 3.82ZM19.2328 16V5.6H20.9728V7.86C21.1461 7.42 21.3795 7.01333 21.6728 6.64C21.9661 6.25333 22.3328 5.94667 22.7728 5.72C23.2128 5.48 23.7261 5.36 24.3128 5.36C24.5128 5.36 24.7128 5.37333 24.9128 5.4C25.1128 5.41333 25.2795 5.44 25.4128 5.48L24.8728 7.34C24.6195 7.23333 24.3195 7.18 23.9728 7.18C23.4795 7.18 23.0061 7.32 22.5528 7.6C22.1128 7.88 21.7461 8.31333 21.4528 8.9C21.1728 9.48667 21.0328 10.2333 21.0328 11.14V16H19.2328ZM30.7756 16.24C29.2823 16.24 28.0956 15.7667 27.2156 14.82C26.349 13.86 25.9156 12.52 25.9156 10.8C25.9156 9.76 26.109 8.83333 26.4956 8.02C26.8956 7.19333 27.449 6.54667 28.1556 6.08C28.8623 5.6 29.6823 5.36 30.6156 5.36C31.6156 5.36 32.4423 5.58 33.0956 6.02C33.7623 6.44667 34.2623 7.02667 34.5956 7.76C34.929 8.49333 35.0956 9.3 35.0956 10.18C35.0956 10.6467 35.0756 11.1 35.0356 11.54H27.7556C27.8756 12.5133 28.2156 13.2733 28.7756 13.82C29.3356 14.3667 30.0756 14.64 30.9956 14.64C31.5956 14.64 32.1356 14.58 32.6156 14.46C33.0956 14.3267 33.5556 14.16 33.9956 13.96L34.4156 15.5C33.9356 15.7133 33.3956 15.8867 32.7956 16.02C32.1956 16.1667 31.5223 16.24 30.7756 16.24ZM27.7356 10.08H33.4356C33.4356 9.06667 33.1823 8.28667 32.6756 7.74C32.169 7.19333 31.469 6.92 30.5756 6.92C29.8023 6.92 29.1623 7.19333 28.6556 7.74C28.149 8.27333 27.8423 9.05333 27.7356 10.08ZM41.6945 16.24C40.7079 16.24 39.8412 16.0133 39.0945 15.56C38.3612 15.0933 37.7945 14.4533 37.3945 13.64C36.9945 12.8133 36.7945 11.8667 36.7945 10.8C36.7945 9.8 36.9945 8.88667 37.3945 8.06C37.8079 7.23333 38.3945 6.58 39.1545 6.1C39.9145 5.60667 40.8079 5.36 41.8345 5.36C42.4212 5.36 42.9345 5.41333 43.3745 5.52C43.8279 5.62667 44.2612 5.78 44.6745 5.98L44.1345 7.5C43.7612 7.31333 43.4012 7.18 43.0545 7.1C42.7212 7.00667 42.3479 6.96 41.9345 6.96C41.0012 6.96 40.2145 7.3 39.5745 7.98C38.9479 8.64667 38.6345 9.57333 38.6345 10.76C38.6345 11.48 38.7679 12.1333 39.0345 12.72C39.3012 13.3067 39.6679 13.7733 40.1345 14.12C40.6145 14.4667 41.1745 14.64 41.8145 14.64C42.3212 14.64 42.7545 14.5867 43.1145 14.48C43.4745 14.36 43.8612 14.1933 44.2745 13.98L44.8345 15.5C44.4212 15.7267 43.9545 15.9067 43.4345 16.04C42.9279 16.1733 42.3479 16.24 41.6945 16.24ZM50.5681 16.24C49.5681 16.24 48.7748 15.9133 48.1881 15.26C47.6148 14.5933 47.3281 13.6467 47.3281 12.42V7.54H45.5281V5.98H47.3681L47.7481 2.7H49.1281V5.98H52.0081V7.54H49.1281V12.56C49.1281 13.3333 49.2881 13.8733 49.6081 14.18C49.9415 14.4867 50.3348 14.64 50.7881 14.64C51.1215 14.64 51.4348 14.5867 51.7281 14.48C52.0348 14.3733 52.3148 14.2467 52.5681 14.1L53.0681 15.54C52.8015 15.7 52.4415 15.8533 51.9881 16C51.5348 16.16 51.0615 16.24 50.5681 16.24ZM54.8773 16V5.6H56.6773V16H54.8773ZM55.7773 3.82C55.4307 3.82 55.1307 3.69333 54.8773 3.44C54.6373 3.18667 54.5173 2.89333 54.5173 2.56C54.5173 2.17333 54.6307 1.86667 54.8573 1.64C55.084 1.41333 55.3907 1.3 55.7773 1.3C56.124 1.3 56.4173 1.42667 56.6573 1.68C56.9107 1.92 57.0373 2.21333 57.0373 2.56C57.0373 2.93333 56.924 3.24 56.6973 3.48C56.4707 3.70667 56.164 3.82 55.7773 3.82ZM64.2573 16.24C63.2707 16.24 62.384 16.0133 61.5973 15.56C60.8107 15.0933 60.1907 14.4533 59.7373 13.64C59.2973 12.8133 59.0773 11.8667 59.0773 10.8C59.0773 9.68 59.304 8.71333 59.7573 7.9C60.2107 7.08667 60.8307 6.46 61.6173 6.02C62.404 5.58 63.284 5.36 64.2573 5.36C65.2307 5.36 66.104 5.58 66.8773 6.02C67.664 6.46 68.284 7.08667 68.7373 7.9C69.204 8.7 69.4373 9.65333 69.4373 10.76C69.4373 11.8667 69.2107 12.8333 68.7573 13.66C68.304 14.4733 67.684 15.1067 66.8973 15.56C66.124 16.0133 65.244 16.24 64.2573 16.24ZM64.2573 14.64C65.3107 14.64 66.1307 14.2867 66.7173 13.58C67.304 12.86 67.5973 11.9333 67.5973 10.8C67.5973 10.1067 67.4507 9.47333 67.1573 8.9C66.864 8.31333 66.464 7.84667 65.9573 7.5C65.464 7.14 64.8973 6.96 64.2573 6.96C63.204 6.96 62.384 7.30667 61.7973 8C61.2107 8.69333 60.9173 9.61333 60.9173 10.76C60.9173 11.4533 61.064 12.1 61.3573 12.7C61.6507 13.2867 62.044 13.76 62.5373 14.12C63.044 14.4667 63.6173 14.64 64.2573 14.64ZM71.8305 16V5.6H73.5705V7.34C73.9438 6.78 74.4171 6.31333 74.9905 5.94C75.5771 5.55333 76.2705 5.36 77.0705 5.36C78.2438 5.36 79.1171 5.71333 79.6905 6.42C80.2771 7.12667 80.5705 8.06 80.5705 9.22V16H78.7705V9.42C78.7705 8.67333 78.5905 8.07333 78.2305 7.62C77.8838 7.16667 77.3971 6.94 76.7705 6.94C76.1571 6.94 75.5771 7.16 75.0305 7.6C74.4838 8.02667 74.0171 8.53333 73.6305 9.12V16H71.8305ZM95.2425 16.24C94.0292 16.24 92.9558 15.9533 92.0225 15.38C91.0892 14.7933 90.3625 13.9667 89.8425 12.9C89.3225 11.82 89.0625 10.54 89.0625 9.06C89.0625 7.63333 89.3225 6.37333 89.8425 5.28C90.3758 4.17333 91.1225 3.31333 92.0825 2.7C93.0558 2.07333 94.1892 1.76 95.4825 1.76C96.1492 1.76 96.7558 1.82667 97.3025 1.96C97.8492 2.08 98.3625 2.25333 98.8425 2.48L98.2625 4.08C97.8492 3.88 97.4225 3.72 96.9825 3.6C96.5558 3.48 96.0492 3.42 95.4625 3.42C94.6092 3.42 93.8425 3.64 93.1625 4.08C92.4958 4.52 91.9692 5.15333 91.5825 5.98C91.1958 6.80667 91.0025 7.80667 91.0025 8.98C91.0025 10.1 91.1892 11.08 91.5625 11.92C91.9492 12.76 92.4758 13.4133 93.1425 13.88C93.8225 14.3467 94.5958 14.58 95.4625 14.58C96.1158 14.58 96.6825 14.5 97.1625 14.34C97.6425 14.18 98.1092 13.9733 98.5625 13.72L99.1425 15.3C98.6492 15.5667 98.0825 15.7933 97.4425 15.98C96.8158 16.1533 96.0825 16.24 95.2425 16.24ZM104.912 16.24C104.045 16.24 103.259 16.02 102.552 15.58C101.845 15.14 101.279 14.52 100.852 13.72C100.439 12.9067 100.232 11.9533 100.232 10.86C100.232 9.82 100.439 8.88667 100.852 8.06C101.279 7.23333 101.859 6.58 102.592 6.1C103.339 5.60667 104.192 5.36 105.152 5.36C105.752 5.36 106.292 5.46667 106.772 5.68C107.265 5.88 107.692 6.13333 108.052 6.44V5.6H109.692V13.48C109.692 13.9867 109.812 14.32 110.052 14.48C110.305 14.6267 110.579 14.7 110.872 14.7L110.492 16.1C109.212 16.1 108.439 15.58 108.172 14.54C107.865 14.9667 107.445 15.36 106.912 15.72C106.392 16.0667 105.725 16.24 104.912 16.24ZM105.312 14.64C105.819 14.64 106.299 14.52 106.752 14.28C107.205 14.0267 107.585 13.7133 107.892 13.34V7.76C107.532 7.50667 107.132 7.30667 106.692 7.16C106.265 7 105.812 6.92 105.332 6.92C104.692 6.92 104.125 7.08667 103.632 7.42C103.152 7.74 102.772 8.19333 102.492 8.78C102.212 9.35333 102.072 10.0267 102.072 10.8C102.072 11.5467 102.212 12.2133 102.492 12.8C102.772 13.3733 103.159 13.8267 103.652 14.16C104.145 14.48 104.699 14.64 105.312 14.64ZM113.276 16V5.6H115.016V7.34C115.389 6.78 115.862 6.31333 116.436 5.94C117.022 5.55333 117.716 5.36 118.516 5.36C119.689 5.36 120.562 5.71333 121.136 6.42C121.722 7.12667 122.016 8.06 122.016 9.22V16H120.216V9.42C120.216 8.67333 120.036 8.07333 119.676 7.62C119.329 7.16667 118.842 6.94 118.216 6.94C117.602 6.94 117.022 7.16 116.476 7.6C115.929 8.02667 115.462 8.53333 115.076 9.12V16H113.276ZM125.112 16V5.6H126.852V7.34C127.225 6.78 127.698 6.31333 128.272 5.94C128.858 5.55333 129.552 5.36 130.352 5.36C131.525 5.36 132.398 5.71333 132.972 6.42C133.558 7.12667 133.852 8.06 133.852 9.22V16H132.052V9.42C132.052 8.67333 131.872 8.07333 131.512 7.62C131.165 7.16667 130.678 6.94 130.052 6.94C129.438 6.94 128.858 7.16 128.312 7.6C127.765 8.02667 127.298 8.53333 126.912 9.12V16H125.112ZM141.108 16.24C139.614 16.24 138.428 15.7667 137.548 14.82C136.681 13.86 136.248 12.52 136.248 10.8C136.248 9.76 136.441 8.83333 136.828 8.02C137.228 7.19333 137.781 6.54667 138.488 6.08C139.194 5.6 140.014 5.36 140.948 5.36C141.948 5.36 142.774 5.58 143.428 6.02C144.094 6.44667 144.594 7.02667 144.928 7.76C145.261 8.49333 145.428 9.3 145.428 10.18C145.428 10.6467 145.408 11.1 145.368 11.54H138.088C138.208 12.5133 138.548 13.2733 139.108 13.82C139.668 14.3667 140.408 14.64 141.328 14.64C141.928 14.64 142.468 14.58 142.948 14.46C143.428 14.3267 143.888 14.16 144.328 13.96L144.748 15.5C144.268 15.7133 143.728 15.8867 143.128 16.02C142.528 16.1667 141.854 16.24 141.108 16.24ZM138.068 10.08H143.768C143.768 9.06667 143.514 8.28667 143.008 7.74C142.501 7.19333 141.801 6.92 140.908 6.92C140.134 6.92 139.494 7.19333 138.988 7.74C138.481 8.27333 138.174 9.05333 138.068 10.08ZM150.627 16.24C149.84 16.24 149.127 16.14 148.487 15.94C147.86 15.74 147.34 15.48 146.927 15.16L147.687 13.66C148.033 13.9533 148.467 14.2 148.987 14.4C149.52 14.5867 150.087 14.68 150.687 14.68C151.433 14.68 151.993 14.56 152.367 14.32C152.753 14.0667 152.947 13.7467 152.947 13.36C152.947 13.08 152.873 12.8333 152.727 12.62C152.593 12.4067 152.34 12.2 151.967 12C151.593 11.7867 151.053 11.56 150.347 11.32C149.373 10.9867 148.64 10.5933 148.147 10.14C147.667 9.67333 147.427 9.03333 147.427 8.22C147.427 7.42 147.773 6.74667 148.467 6.2C149.173 5.64 150.147 5.36 151.387 5.36C152.053 5.36 152.647 5.43333 153.167 5.58C153.687 5.71333 154.153 5.88667 154.567 6.1L154.067 7.58C153.707 7.36667 153.293 7.19333 152.827 7.06C152.373 6.92667 151.867 6.86 151.307 6.86C150.613 6.86 150.087 7 149.727 7.28C149.367 7.56 149.187 7.86667 149.187 8.2C149.187 8.52 149.327 8.79333 149.607 9.02C149.887 9.24667 150.433 9.49333 151.247 9.76C152.567 10.2 153.487 10.6867 154.007 11.22C154.527 11.7533 154.787 12.42 154.787 13.22C154.787 14.1533 154.407 14.8933 153.647 15.44C152.9 15.9733 151.893 16.24 150.627 16.24ZM165.358 18.46C164.531 16.9933 163.885 15.54 163.418 14.1C162.951 12.6467 162.718 11.1467 162.718 9.6C162.718 7.93333 162.951 6.39333 163.418 4.98C163.898 3.55333 164.545 2.14 165.358 0.74L166.418 1.34C165.925 2.46 165.498 3.71333 165.138 5.1C164.791 6.47333 164.618 7.97333 164.618 9.6C164.618 11.2133 164.791 12.7067 165.138 14.08C165.498 15.4533 165.925 16.7133 166.418 17.86L165.358 18.46ZM169.174 16V5.6H170.914V7.34C171.288 6.78 171.761 6.31333 172.334 5.94C172.908 5.55333 173.561 5.36 174.294 5.36C175.121 5.36 175.794 5.56 176.314 5.96C176.848 6.36 177.221 6.89333 177.434 7.56C177.848 6.94667 178.334 6.42667 178.894 6C179.468 5.57333 180.174 5.36 181.014 5.36C182.148 5.36 182.988 5.72 183.534 6.44C184.094 7.14667 184.374 8.07333 184.374 9.22V16H182.574V9.36C182.574 8.64 182.408 8.06 182.074 7.62C181.741 7.16667 181.281 6.94 180.694 6.94C180.094 6.94 179.534 7.16667 179.014 7.62C178.508 8.06 178.061 8.58 177.674 9.18V16H175.874V9.36C175.874 8.64 175.708 8.06 175.374 7.62C175.041 7.16667 174.581 6.94 173.994 6.94C173.408 6.94 172.854 7.16 172.334 7.6C171.814 8.02667 171.361 8.53333 170.974 9.12V16H169.174ZM191.455 16.24C190.588 16.24 189.802 16.02 189.095 15.58C188.388 15.14 187.822 14.52 187.395 13.72C186.982 12.9067 186.775 11.9533 186.775 10.86C186.775 9.82 186.982 8.88667 187.395 8.06C187.822 7.23333 188.402 6.58 189.135 6.1C189.882 5.60667 190.735 5.36 191.695 5.36C192.295 5.36 192.835 5.46667 193.315 5.68C193.808 5.88 194.235 6.13333 194.595 6.44V5.6H196.235V13.48C196.235 13.9867 196.355 14.32 196.595 14.48C196.848 14.6267 197.122 14.7 197.415 14.7L197.035 16.1C195.755 16.1 194.982 15.58 194.715 14.54C194.408 14.9667 193.988 15.36 193.455 15.72C192.935 16.0667 192.268 16.24 191.455 16.24ZM191.855 14.64C192.362 14.64 192.842 14.52 193.295 14.28C193.748 14.0267 194.128 13.7133 194.435 13.34V7.76C194.075 7.50667 193.675 7.30667 193.235 7.16C192.808 7 192.355 6.92 191.875 6.92C191.235 6.92 190.668 7.08667 190.175 7.42C189.695 7.74 189.315 8.19333 189.035 8.78C188.755 9.35333 188.615 10.0267 188.615 10.8C188.615 11.5467 188.755 12.2133 189.035 12.8C189.315 13.3733 189.702 13.8267 190.195 14.16C190.688 14.48 191.242 14.64 191.855 14.64ZM199.819 16V5.6H201.619V16H199.819ZM200.719 3.82C200.372 3.82 200.072 3.69333 199.819 3.44C199.579 3.18667 199.459 2.89333 199.459 2.56C199.459 2.17333 199.572 1.86667 199.799 1.64C200.025 1.41333 200.332 1.3 200.719 1.3C201.065 1.3 201.359 1.42667 201.599 1.68C201.852 1.92 201.979 2.21333 201.979 2.56C201.979 2.93333 201.865 3.24 201.639 3.48C201.412 3.70667 201.105 3.82 200.719 3.82ZM210.975 16C210.935 15.76 210.915 15.5133 210.915 15.26C210.915 14.3933 211.062 13.62 211.355 12.94C211.662 12.2467 212.055 11.62 212.535 11.06C213.015 10.4867 213.522 9.96 214.055 9.48C214.602 8.98667 215.108 8.52 215.575 8.08C216.055 7.62667 216.448 7.17333 216.755 6.72C217.062 6.26667 217.215 5.79333 217.215 5.3C217.215 4.74 217.008 4.28 216.595 3.92C216.182 3.54667 215.648 3.36 214.995 3.36C214.435 3.36 213.922 3.47333 213.455 3.7C213.002 3.91333 212.575 4.20667 212.175 4.58L211.175 3.36C211.708 2.88 212.295 2.49333 212.935 2.2C213.588 1.90667 214.342 1.76 215.195 1.76C215.982 1.76 216.668 1.91333 217.255 2.22C217.842 2.51333 218.295 2.92 218.615 3.44C218.948 3.96 219.115 4.54 219.115 5.18C219.115 5.82 218.975 6.41333 218.695 6.96C218.415 7.50667 218.055 8.02 217.615 8.5C217.175 8.98 216.702 9.44667 216.195 9.9C215.688 10.34 215.202 10.7933 214.735 11.26C214.268 11.7267 213.868 12.2133 213.535 12.72C213.215 13.2267 213.015 13.7733 212.935 14.36H219.095V16H210.975ZM227.187 16.24C225.627 16.24 224.44 15.6067 223.627 14.34C222.814 13.06 222.407 11.2733 222.407 8.98C222.407 6.67333 222.82 4.89333 223.647 3.64C224.487 2.38667 225.68 1.76 227.227 1.76C228.787 1.76 229.974 2.39333 230.787 3.66C231.6 4.92667 232.007 6.71333 232.007 9.02C232.007 11.3267 231.587 13.1067 230.747 14.36C229.92 15.6133 228.734 16.24 227.187 16.24ZM227.207 14.6C227.807 14.6 228.32 14.4267 228.747 14.08C229.187 13.72 229.52 13.1333 229.747 12.32C229.987 11.5067 230.107 10.4133 230.107 9.04C230.107 7.2 229.847 5.8 229.327 4.84C228.82 3.88 228.114 3.4 227.207 3.4C226.607 3.4 226.087 3.58 225.647 3.94C225.22 4.28667 224.887 4.86667 224.647 5.68C224.42 6.48 224.307 7.57333 224.307 8.96C224.307 10.8 224.56 12.2 225.067 13.16C225.587 14.12 226.3 14.6 227.207 14.6ZM236.079 16V14.4H238.939V4.3L236.259 6.32L235.279 4.98L239.419 2H240.739V14.4H243.119V16H236.079ZM251.291 16.24C250.278 16.24 249.398 16.0667 248.651 15.72C247.905 15.3733 247.325 14.9067 246.911 14.32C246.511 13.72 246.311 13.06 246.311 12.34C246.311 11.4733 246.545 10.72 247.011 10.08C247.491 9.44 248.238 8.9 249.251 8.46C248.545 8.07333 247.998 7.62667 247.611 7.12C247.238 6.6 247.051 5.96 247.051 5.2C247.051 4.52 247.231 3.92667 247.591 3.42C247.951 2.9 248.438 2.49333 249.051 2.2C249.678 1.90667 250.371 1.76 251.131 1.76C251.958 1.76 252.685 1.91333 253.311 2.22C253.938 2.51333 254.425 2.92 254.771 3.44C255.131 3.96 255.311 4.54 255.311 5.18C255.311 5.99333 255.105 6.65333 254.691 7.16C254.278 7.66667 253.725 8.09333 253.031 8.44C254.018 8.85333 254.771 9.37333 255.291 10C255.811 10.6133 256.071 11.3533 256.071 12.22C256.071 13.02 255.865 13.7267 255.451 14.34C255.038 14.94 254.471 15.4067 253.751 15.74C253.031 16.0733 252.211 16.24 251.291 16.24ZM251.391 7.78C251.978 7.58 252.485 7.27333 252.911 6.86C253.351 6.44667 253.571 5.94667 253.571 5.36C253.571 4.74667 253.338 4.24 252.871 3.84C252.405 3.44 251.825 3.24 251.131 3.24C250.451 3.24 249.891 3.42 249.451 3.78C249.011 4.12667 248.791 4.58667 248.791 5.16C248.791 5.73333 249.025 6.25333 249.491 6.72C249.971 7.18667 250.605 7.54 251.391 7.78ZM251.311 14.64C252.165 14.64 252.865 14.42 253.411 13.98C253.958 13.5267 254.231 12.9533 254.231 12.26C254.231 11.62 253.945 11.0467 253.371 10.54C252.811 10.0333 252.031 9.6 251.031 9.24C250.525 9.36 250.051 9.54667 249.611 9.8C249.171 10.0533 248.818 10.3667 248.551 10.74C248.285 11.1133 248.151 11.54 248.151 12.02C248.151 12.5133 248.285 12.96 248.551 13.36C248.831 13.76 249.211 14.0733 249.691 14.3C250.171 14.5267 250.711 14.64 251.311 14.64ZM259.404 18.46L258.344 17.86C258.85 16.7133 259.277 15.4533 259.624 14.08C259.97 12.7067 260.144 11.2133 260.144 9.6C260.144 7.97333 259.97 6.47333 259.624 5.1C259.277 3.71333 258.85 2.46 258.344 1.34L259.404 0.74C260.23 2.14 260.877 3.55333 261.344 4.98C261.81 6.39333 262.044 7.93333 262.044 9.6C262.044 11.1467 261.81 12.6467 261.344 14.1C260.877 15.54 260.23 16.9933 259.404 18.46Z" fill="white"/>
</svg>
