<svg width="61" height="16" viewBox="0 0 61 16" fill="none" xmlns="http://www.w3.org/2000/svg">
<path d="M4.48 15.16C3.72 15.16 3.05333 15.14 2.48 15.1C1.92 15.06 1.36 15.0133 0.8 14.96V1.04C1.42667 0.973333 2.04 0.926666 2.64 0.899999C3.24 0.86 3.92667 0.84 4.7 0.84C5.9 0.84 6.93333 1.02667 7.8 1.4C8.68 1.77333 9.4 2.28667 9.96 2.94C10.5333 3.59333 10.9533 4.35333 11.22 5.22C11.5 6.07333 11.64 6.99333 11.64 7.98C11.64 8.95333 11.5 9.87333 11.22 10.74C10.94 11.6067 10.5067 12.3733 9.92 13.04C9.34667 13.6933 8.60667 14.2133 7.7 14.6C6.80667 14.9733 5.73333 15.16 4.48 15.16ZM4.54 13.5C5.74 13.5 6.72 13.2667 7.48 12.8C8.24 12.3333 8.8 11.6867 9.16 10.86C9.52 10.02 9.7 9.06 9.7 7.98C9.7 7.02 9.52 6.12 9.16 5.28C8.8 4.44 8.24667 3.76667 7.5 3.26C6.75333 2.74 5.8 2.48 4.64 2.48C4.25333 2.48 3.9 2.49333 3.58 2.52C3.26 2.53333 2.96667 2.55333 2.7 2.58V13.4C2.98 13.44 3.27333 13.4667 3.58 13.48C3.88667 13.4933 4.20667 13.5 4.54 13.5ZM14.2328 15V4.6H15.9728V6.86C16.1461 6.42 16.3795 6.01333 16.6728 5.64C16.9661 5.25333 17.3328 4.94667 17.7728 4.72C18.2128 4.48 18.7261 4.36 19.3128 4.36C19.5128 4.36 19.7128 4.37333 19.9128 4.4C20.1128 4.41333 20.2795 4.44 20.4128 4.48L19.8728 6.34C19.6195 6.23333 19.3195 6.18 18.9728 6.18C18.4795 6.18 18.0061 6.32 17.5528 6.6C17.1128 6.88 16.7461 7.31333 16.4528 7.9C16.1728 8.48667 16.0328 9.23333 16.0328 10.14V15H14.2328ZM25.5956 15.24C24.729 15.24 23.9423 15.02 23.2356 14.58C22.529 14.14 21.9623 13.52 21.5356 12.72C21.1223 11.9067 20.9156 10.9533 20.9156 9.86C20.9156 8.82 21.1223 7.88667 21.5356 7.06C21.9623 6.23333 22.5423 5.58 23.2756 5.1C24.0223 4.60667 24.8756 4.36 25.8356 4.36C26.4356 4.36 26.9756 4.46667 27.4556 4.68C27.949 4.88 28.3756 5.13333 28.7356 5.44V4.6H30.3756V12.48C30.3756 12.9867 30.4956 13.32 30.7356 13.48C30.989 13.6267 31.2623 13.7 31.5556 13.7L31.1756 15.1C29.8956 15.1 29.1223 14.58 28.8556 13.54C28.549 13.9667 28.129 14.36 27.5956 14.72C27.0756 15.0667 26.409 15.24 25.5956 15.24ZM25.9956 13.64C26.5023 13.64 26.9823 13.52 27.4356 13.28C27.889 13.0267 28.269 12.7133 28.5756 12.34V6.76C28.2156 6.50667 27.8156 6.30667 27.3756 6.16C26.949 6 26.4956 5.92 26.0156 5.92C25.3756 5.92 24.809 6.08667 24.3156 6.42C23.8356 6.74 23.4556 7.19333 23.1756 7.78C22.8956 8.35333 22.7556 9.02667 22.7556 9.8C22.7556 10.5467 22.8956 11.2133 23.1756 11.8C23.4556 12.3733 23.8423 12.8267 24.3356 13.16C24.829 13.48 25.3823 13.64 25.9956 13.64ZM33.9594 15V4.6H35.6994V6.34C36.0727 5.78 36.546 5.31333 37.1194 4.94C37.6927 4.55333 38.346 4.36 39.0794 4.36C39.906 4.36 40.5794 4.56 41.0994 4.96C41.6327 5.36 42.006 5.89333 42.2194 6.56C42.6327 5.94667 43.1194 5.42667 43.6794 5C44.2527 4.57333 44.9594 4.36 45.7994 4.36C46.9327 4.36 47.7727 4.72 48.3194 5.44C48.8794 6.14667 49.1594 7.07333 49.1594 8.22V15H47.3594V8.36C47.3594 7.64 47.1927 7.06 46.8594 6.62C46.526 6.16667 46.066 5.94 45.4794 5.94C44.8794 5.94 44.3194 6.16667 43.7994 6.62C43.2927 7.06 42.846 7.58 42.4594 8.18V15H40.6594V8.36C40.6594 7.64 40.4927 7.06 40.1594 6.62C39.826 6.16667 39.366 5.94 38.7794 5.94C38.1927 5.94 37.6394 6.16 37.1194 6.6C36.5994 7.02667 36.146 7.53333 35.7594 8.12V15H33.9594ZM56.4202 15.24C54.9268 15.24 53.7402 14.7667 52.8602 13.82C51.9935 12.86 51.5602 11.52 51.5602 9.8C51.5602 8.76 51.7535 7.83333 52.1402 7.02C52.5402 6.19333 53.0935 5.54667 53.8002 5.08C54.5068 4.6 55.3268 4.36 56.2602 4.36C57.2602 4.36 58.0868 4.58 58.7402 5.02C59.4068 5.44667 59.9068 6.02667 60.2402 6.76C60.5735 7.49333 60.7402 8.3 60.7402 9.18C60.7402 9.64667 60.7202 10.1 60.6802 10.54H53.4002C53.5202 11.5133 53.8602 12.2733 54.4202 12.82C54.9802 13.3667 55.7202 13.64 56.6402 13.64C57.2402 13.64 57.7802 13.58 58.2602 13.46C58.7402 13.3267 59.2002 13.16 59.6402 12.96L60.0602 14.5C59.5802 14.7133 59.0402 14.8867 58.4402 15.02C57.8402 15.1667 57.1668 15.24 56.4202 15.24ZM53.3802 9.08H59.0802C59.0802 8.06667 58.8268 7.28667 58.3202 6.74C57.8135 6.19333 57.1135 5.92 56.2202 5.92C55.4468 5.92 54.8068 6.19333 54.3002 6.74C53.7935 7.27333 53.4868 8.05333 53.3802 9.08Z" fill="white"/>
</svg>
