<svg width="184" height="18" viewBox="0 0 184 18" fill="none" xmlns="http://www.w3.org/2000/svg">
<path d="M0.98 17V1.6H3.07V17H0.98ZM10.2946 17.264C9.61993 17.264 9.01126 17.1393 8.46859 16.89C7.92593 16.626 7.49326 16.208 7.17059 15.636C6.86259 15.064 6.70859 14.3233 6.70859 13.414V0.72H8.68859V13.216C8.68859 14.008 8.84993 14.5947 9.17259 14.976C9.50993 15.3573 9.97193 15.548 10.5586 15.548C10.8373 15.548 11.1086 15.5187 11.3726 15.46C11.6513 15.3867 11.8859 15.306 12.0766 15.218L12.5606 16.824C12.2966 16.9413 11.9666 17.044 11.5706 17.132C11.1893 17.22 10.7639 17.264 10.2946 17.264ZM17.5041 17.264C16.6387 17.264 15.8541 17.154 15.1501 16.934C14.4607 16.714 13.8887 16.428 13.4341 16.076L14.2701 14.426C14.6514 14.7487 15.1281 15.02 15.7001 15.24C16.2867 15.4453 16.9101 15.548 17.5701 15.548C18.3914 15.548 19.0074 15.416 19.4181 15.152C19.8434 14.8733 20.0561 14.5213 20.0561 14.096C20.0561 13.788 19.9754 13.5167 19.8141 13.282C19.6674 13.0473 19.3887 12.82 18.9781 12.6C18.5674 12.3653 17.9734 12.116 17.1961 11.852C16.1254 11.4853 15.3187 11.0527 14.7761 10.554C14.2481 10.0407 13.9841 9.33667 13.9841 8.442C13.9841 7.562 14.3654 6.82133 15.1281 6.22C15.9054 5.604 16.9761 5.296 18.3401 5.296C19.0734 5.296 19.7261 5.37667 20.2981 5.538C20.8701 5.68467 21.3834 5.87533 21.8381 6.11L21.2881 7.738C20.8921 7.50333 20.4374 7.31267 19.9241 7.166C19.4254 7.01933 18.8681 6.946 18.2521 6.946C17.4894 6.946 16.9101 7.1 16.5141 7.408C16.1181 7.716 15.9201 8.05333 15.9201 8.42C15.9201 8.772 16.0741 9.07267 16.3821 9.322C16.6901 9.57133 17.2914 9.84267 18.1861 10.136C19.6381 10.62 20.6501 11.1553 21.2221 11.742C21.7941 12.3287 22.0801 13.062 22.0801 13.942C22.0801 14.9687 21.6621 15.7827 20.8261 16.384C20.0047 16.9707 18.8974 17.264 17.5041 17.264ZM35.6888 17.264C34.7354 17.264 33.8701 17.022 33.0928 16.538C32.3154 16.054 31.6921 15.372 31.2228 14.492C30.7681 13.5973 30.5408 12.5487 30.5408 11.346C30.5408 10.202 30.7681 9.17533 31.2228 8.266C31.6921 7.35667 32.3301 6.638 33.1368 6.11C33.9581 5.56733 34.8968 5.296 35.9528 5.296C36.6128 5.296 37.2068 5.41333 37.7348 5.648C38.2774 5.868 38.7468 6.14667 39.1428 6.484V5.56H40.9468V14.228C40.9468 14.7853 41.0788 15.152 41.3428 15.328C41.6214 15.4893 41.9221 15.57 42.2448 15.57L41.8268 17.11C40.4188 17.11 39.5681 16.538 39.2748 15.394C38.9374 15.8633 38.4754 16.296 37.8888 16.692C37.3168 17.0733 36.5834 17.264 35.6888 17.264ZM36.1288 15.504C36.6861 15.504 37.2141 15.372 37.7128 15.108C38.2114 14.8293 38.6294 14.4847 38.9668 14.074V7.936C38.5708 7.65733 38.1308 7.43733 37.6468 7.276C37.1774 7.1 36.6788 7.012 36.1508 7.012C35.4468 7.012 34.8234 7.19533 34.2808 7.562C33.7528 7.914 33.3348 8.41267 33.0268 9.058C32.7188 9.68867 32.5648 10.4293 32.5648 11.28C32.5648 12.1013 32.7188 12.8347 33.0268 13.48C33.3348 14.1107 33.7601 14.6093 34.3028 14.976C34.8454 15.328 35.4541 15.504 36.1288 15.504ZM44.8889 17V5.56H46.8689V17H44.8889ZM45.8789 3.602C45.4976 3.602 45.1676 3.46267 44.8889 3.184C44.6249 2.90533 44.4929 2.58267 44.4929 2.216C44.4929 1.79067 44.6176 1.45333 44.8669 1.204C45.1162 0.954666 45.4536 0.83 45.8789 0.83C46.2602 0.83 46.5829 0.969333 46.8469 1.248C47.1256 1.512 47.2649 1.83467 47.2649 2.216C47.2649 2.62667 47.1402 2.964 46.8909 3.228C46.6416 3.47733 46.3042 3.602 45.8789 3.602ZM50.3889 17V5.56H52.3029V7.474C52.7136 6.858 53.2342 6.34467 53.8649 5.934C54.4956 5.50867 55.2142 5.296 56.0209 5.296C56.9302 5.296 57.6709 5.516 58.2429 5.956C58.8296 6.396 59.2402 6.98267 59.4749 7.716C59.9296 7.04133 60.4649 6.46933 61.0809 6C61.7116 5.53067 62.4889 5.296 63.4129 5.296C64.6596 5.296 65.5836 5.692 66.1849 6.484C66.8009 7.26133 67.1089 8.28067 67.1089 9.542V17H65.1289V9.696C65.1289 8.904 64.9456 8.266 64.5789 7.782C64.2122 7.28333 63.7062 7.034 63.0609 7.034C62.4009 7.034 61.7849 7.28333 61.2129 7.782C60.6556 8.266 60.1642 8.838 59.7389 9.498V17H57.7589V9.696C57.7589 8.904 57.5756 8.266 57.2089 7.782C56.8422 7.28333 56.3362 7.034 55.6909 7.034C55.0456 7.034 54.4369 7.276 53.8649 7.76C53.2929 8.22933 52.7942 8.78667 52.3689 9.432V17H50.3889ZM74.8978 17.264C73.9444 17.264 73.0791 17.022 72.3018 16.538C71.5244 16.054 70.9011 15.372 70.4318 14.492C69.9771 13.5973 69.7498 12.5487 69.7498 11.346C69.7498 10.202 69.9771 9.17533 70.4318 8.266C70.9011 7.35667 71.5391 6.638 72.3458 6.11C73.1671 5.56733 74.1058 5.296 75.1618 5.296C75.8218 5.296 76.4158 5.41333 76.9438 5.648C77.4864 5.868 77.9558 6.14667 78.3518 6.484V5.56H80.1558V14.228C80.1558 14.7853 80.2878 15.152 80.5518 15.328C80.8304 15.4893 81.1311 15.57 81.4538 15.57L81.0358 17.11C79.6278 17.11 78.7771 16.538 78.4838 15.394C78.1464 15.8633 77.6844 16.296 77.0978 16.692C76.5258 17.0733 75.7924 17.264 74.8978 17.264ZM75.3378 15.504C75.8951 15.504 76.4231 15.372 76.9218 15.108C77.4204 14.8293 77.8384 14.4847 78.1758 14.074V7.936C77.7798 7.65733 77.3398 7.43733 76.8558 7.276C76.3864 7.1 75.8878 7.012 75.3598 7.012C74.6558 7.012 74.0324 7.19533 73.4898 7.562C72.9618 7.914 72.5438 8.41267 72.2358 9.058C71.9278 9.68867 71.7738 10.4293 71.7738 11.28C71.7738 12.1013 71.9278 12.8347 72.2358 13.48C72.5438 14.1107 72.9691 14.6093 73.5118 14.976C74.0544 15.328 74.6631 15.504 75.3378 15.504ZM84.0979 17V5.56H86.0779V17H84.0979ZM85.0879 3.602C84.7066 3.602 84.3766 3.46267 84.0979 3.184C83.8339 2.90533 83.7019 2.58267 83.7019 2.216C83.7019 1.79067 83.8266 1.45333 84.0759 1.204C84.3252 0.954666 84.6626 0.83 85.0879 0.83C85.4692 0.83 85.7919 0.969333 86.0559 1.248C86.3346 1.512 86.4739 1.83467 86.4739 2.216C86.4739 2.62667 86.3492 2.964 86.0999 3.228C85.8506 3.47733 85.5132 3.602 85.0879 3.602ZM94.1739 17.264C92.5312 17.264 91.2259 16.7433 90.2579 15.702C89.3046 14.646 88.8279 13.172 88.8279 11.28C88.8279 10.136 89.0406 9.11667 89.4659 8.222C89.9059 7.31267 90.5146 6.60133 91.2919 6.088C92.0692 5.56 92.9712 5.296 93.9979 5.296C95.0979 5.296 96.0072 5.538 96.7259 6.022C97.4592 6.49133 98.0092 7.12933 98.3759 7.936C98.7426 8.74267 98.9259 9.63 98.9259 10.598C98.9259 11.1113 98.9039 11.61 98.8599 12.094H90.8519C90.9839 13.1647 91.3579 14.0007 91.9739 14.602C92.5899 15.2033 93.4039 15.504 94.4159 15.504C95.0759 15.504 95.6699 15.438 96.1979 15.306C96.7259 15.1593 97.2319 14.976 97.7159 14.756L98.1779 16.45C97.6499 16.6847 97.0559 16.8753 96.3959 17.022C95.7359 17.1833 94.9952 17.264 94.1739 17.264ZM90.8299 10.488H97.0999C97.0999 9.37333 96.8212 8.51533 96.2639 7.914C95.7066 7.31267 94.9366 7.012 93.9539 7.012C93.1032 7.012 92.3992 7.31267 91.8419 7.914C91.2846 8.50067 90.9472 9.35867 90.8299 10.488ZM101.565 17V5.56H103.479V7.474C103.889 6.858 104.41 6.34467 105.041 5.934C105.686 5.50867 106.449 5.296 107.329 5.296C108.619 5.296 109.58 5.68467 110.211 6.462C110.856 7.23933 111.179 8.266 111.179 9.542V17H109.199V9.762C109.199 8.94067 109.001 8.28067 108.605 7.782C108.223 7.28333 107.688 7.034 106.999 7.034C106.324 7.034 105.686 7.276 105.085 7.76C104.483 8.22933 103.97 8.78667 103.545 9.432V17H101.565ZM118.588 17.264C117.488 17.264 116.616 16.9047 115.97 16.186C115.34 15.4527 115.024 14.4113 115.024 13.062V7.694H113.044V5.978H115.068L115.486 2.37H117.004V5.978H120.172V7.694H117.004V13.216C117.004 14.0667 117.18 14.6607 117.532 14.998C117.899 15.3353 118.332 15.504 118.83 15.504C119.197 15.504 119.542 15.4453 119.864 15.328C120.202 15.2107 120.51 15.0713 120.788 14.91L121.338 16.494C121.045 16.67 120.649 16.8387 120.15 17C119.652 17.176 119.131 17.264 118.588 17.264ZM133.4 17.264C132.725 17.264 132.117 17.1393 131.574 16.89C131.031 16.626 130.599 16.208 130.276 15.636C129.968 15.064 129.814 14.3233 129.814 13.414V0.72H131.794V13.216C131.794 14.008 131.955 14.5947 132.278 14.976C132.615 15.3573 133.077 15.548 133.664 15.548C133.943 15.548 134.214 15.5187 134.478 15.46C134.757 15.3867 134.991 15.306 135.182 15.218L135.666 16.824C135.402 16.9413 135.072 17.044 134.676 17.132C134.295 17.22 133.869 17.264 133.4 17.264ZM141.585 17.264C140.632 17.264 139.767 17.022 138.989 16.538C138.212 16.054 137.589 15.372 137.119 14.492C136.665 13.5973 136.437 12.5487 136.437 11.346C136.437 10.202 136.665 9.17533 137.119 8.266C137.589 7.35667 138.227 6.638 139.033 6.11C139.855 5.56733 140.793 5.296 141.849 5.296C142.509 5.296 143.103 5.41333 143.631 5.648C144.174 5.868 144.643 6.14667 145.039 6.484V5.56H146.843V14.228C146.843 14.7853 146.975 15.152 147.239 15.328C147.518 15.4893 147.819 15.57 148.141 15.57L147.723 17.11C146.315 17.11 145.465 16.538 145.171 15.394C144.834 15.8633 144.372 16.296 143.785 16.692C143.213 17.0733 142.48 17.264 141.585 17.264ZM142.025 15.504C142.583 15.504 143.111 15.372 143.609 15.108C144.108 14.8293 144.526 14.4847 144.863 14.074V7.936C144.467 7.65733 144.027 7.43733 143.543 7.276C143.074 7.1 142.575 7.012 142.047 7.012C141.343 7.012 140.72 7.19533 140.177 7.562C139.649 7.914 139.231 8.41267 138.923 9.058C138.615 9.68867 138.461 10.4293 138.461 11.28C138.461 12.1013 138.615 12.8347 138.923 13.48C139.231 14.1107 139.657 14.6093 140.199 14.976C140.742 15.328 141.351 15.504 142.025 15.504ZM160.439 17L155.841 6.088L157.645 5.34L161.539 14.756L165.433 5.34L167.127 6.088L162.507 17H160.439ZM169.112 17V5.56H171.092V17H169.112ZM170.102 3.602C169.72 3.602 169.39 3.46267 169.112 3.184C168.848 2.90533 168.716 2.58267 168.716 2.216C168.716 1.79067 168.84 1.45333 169.09 1.204C169.339 0.954666 169.676 0.83 170.102 0.83C170.483 0.83 170.806 0.969333 171.07 1.248C171.348 1.512 171.488 1.83467 171.488 2.216C171.488 2.62667 171.363 2.964 171.114 3.228C170.864 3.47733 170.527 3.602 170.102 3.602ZM179.188 17.264C177.545 17.264 176.24 16.7433 175.272 15.702C174.318 14.646 173.842 13.172 173.842 11.28C173.842 10.136 174.054 9.11667 174.48 8.222C174.92 7.31267 175.528 6.60133 176.306 6.088C177.083 5.56 177.985 5.296 179.012 5.296C180.112 5.296 181.021 5.538 181.74 6.022C182.473 6.49133 183.023 7.12933 183.39 7.936C183.756 8.74267 183.94 9.63 183.94 10.598C183.94 11.1113 183.918 11.61 183.874 12.094H175.866C175.998 13.1647 176.372 14.0007 176.988 14.602C177.604 15.2033 178.418 15.504 179.43 15.504C180.09 15.504 180.684 15.438 181.212 15.306C181.74 15.1593 182.246 14.976 182.73 14.756L183.192 16.45C182.664 16.6847 182.07 16.8753 181.41 17.022C180.75 17.1833 180.009 17.264 179.188 17.264ZM175.844 10.488H182.114C182.114 9.37333 181.835 8.51533 181.278 7.914C180.72 7.31267 179.95 7.012 178.968 7.012C178.117 7.012 177.413 7.31267 176.856 7.914C176.298 8.50067 175.961 9.35867 175.844 10.488Z" fill="white"/>
</svg>
