<svg width="368" height="21" viewBox="0 0 368 21" fill="none" xmlns="http://www.w3.org/2000/svg">
<path opacity="0.4" d="M0.8 16V2H2.7V14.3H9.12V16H0.8ZM14.7948 16.24C13.9282 16.24 13.1415 16.02 12.4348 15.58C11.7282 15.14 11.1615 14.52 10.7348 13.72C10.3215 12.9067 10.1148 11.9533 10.1148 10.86C10.1148 9.82 10.3215 8.88667 10.7348 8.06C11.1615 7.23333 11.7415 6.58 12.4748 6.1C13.2215 5.60667 14.0748 5.36 15.0348 5.36C15.6348 5.36 16.1748 5.46667 16.6548 5.68C17.1482 5.88 17.5748 6.13333 17.9348 6.44V5.6H19.5748V13.48C19.5748 13.9867 19.6948 14.32 19.9348 14.48C20.1882 14.6267 20.4615 14.7 20.7548 14.7L20.3748 16.1C19.0948 16.1 18.3215 15.58 18.0548 14.54C17.7482 14.9667 17.3282 15.36 16.7948 15.72C16.2748 16.0667 15.6082 16.24 14.7948 16.24ZM15.1948 14.64C15.7015 14.64 16.1815 14.52 16.6348 14.28C17.0882 14.0267 17.4682 13.7133 17.7748 13.34V7.76C17.4148 7.50667 17.0148 7.30667 16.5748 7.16C16.1482 7 15.6948 6.92 15.2148 6.92C14.5748 6.92 14.0082 7.08667 13.5148 7.42C13.0348 7.74 12.6548 8.19333 12.3748 8.78C12.0948 9.35333 11.9548 10.0267 11.9548 10.8C11.9548 11.5467 12.0948 12.2133 12.3748 12.8C12.6548 13.3733 13.0415 13.8267 13.5348 14.16C14.0282 14.48 14.5815 14.64 15.1948 14.64ZM29.1547 16V5.6H30.8947V7.34C31.268 6.78 31.7414 6.31333 32.3147 5.94C32.9014 5.55333 33.5947 5.36 34.3947 5.36C35.568 5.36 36.4414 5.71333 37.0147 6.42C37.6014 7.12667 37.8947 8.06 37.8947 9.22V16H36.0947V9.42C36.0947 8.67333 35.9147 8.07333 35.5547 7.62C35.208 7.16667 34.7214 6.94 34.0947 6.94C33.4814 6.94 32.9014 7.16 32.3547 7.6C31.808 8.02667 31.3414 8.53333 30.9547 9.12V16H29.1547ZM45.3706 16.24C44.384 16.24 43.4973 16.0133 42.7106 15.56C41.924 15.0933 41.304 14.4533 40.8506 13.64C40.4106 12.8133 40.1906 11.8667 40.1906 10.8C40.1906 9.68 40.4173 8.71333 40.8706 7.9C41.324 7.08667 41.944 6.46 42.7306 6.02C43.5173 5.58 44.3973 5.36 45.3706 5.36C46.344 5.36 47.2173 5.58 47.9906 6.02C48.7773 6.46 49.3973 7.08667 49.8506 7.9C50.3173 8.7 50.5506 9.65333 50.5506 10.76C50.5506 11.8667 50.324 12.8333 49.8706 13.66C49.4173 14.4733 48.7973 15.1067 48.0106 15.56C47.2373 16.0133 46.3573 16.24 45.3706 16.24ZM45.3706 14.64C46.424 14.64 47.244 14.2867 47.8306 13.58C48.4173 12.86 48.7106 11.9333 48.7106 10.8C48.7106 10.1067 48.564 9.47333 48.2706 8.9C47.9773 8.31333 47.5773 7.84667 47.0706 7.5C46.5773 7.14 46.0106 6.96 45.3706 6.96C44.3173 6.96 43.4973 7.30667 42.9106 8C42.324 8.69333 42.0306 9.61333 42.0306 10.76C42.0306 11.4533 42.1773 12.1 42.4706 12.7C42.764 13.2867 43.1573 13.76 43.6506 14.12C44.1573 14.4667 44.7306 14.64 45.3706 14.64ZM56.3438 16.24C55.7438 16.24 55.1771 16.1133 54.6438 15.86C54.1104 15.6067 53.6771 15.2 53.3438 14.64C53.0104 14.0667 52.8438 13.3067 52.8438 12.36V5.6H54.6438V12.12C54.6438 12.9333 54.8171 13.56 55.1638 14C55.5104 14.4267 56.0171 14.64 56.6838 14.64C57.2304 14.64 57.7571 14.5333 58.2638 14.32C58.7838 14.0933 59.2438 13.7933 59.6438 13.42V5.6H61.4437V13.3C61.4437 13.8733 61.5637 14.2533 61.8038 14.44C62.0571 14.6133 62.3304 14.7 62.6238 14.7L62.2438 16.1C61.0038 16.1 60.2371 15.6067 59.9438 14.62C59.4771 15.1 58.9371 15.4933 58.3238 15.8C57.7104 16.0933 57.0504 16.24 56.3438 16.24ZM67.4034 16L63.2234 6.08L64.8634 5.4L68.4034 13.96L71.9434 5.4L73.4834 6.08L69.2834 16H67.4034ZM79.0569 16.24C77.5635 16.24 76.3769 15.7667 75.4969 14.82C74.6302 13.86 74.1969 12.52 74.1969 10.8C74.1969 9.76 74.3902 8.83333 74.7769 8.02C75.1769 7.19333 75.7302 6.54667 76.4369 6.08C77.1435 5.6 77.9635 5.36 78.8969 5.36C79.8969 5.36 80.7235 5.58 81.3769 6.02C82.0435 6.44667 82.5435 7.02667 82.8769 7.76C83.2102 8.49333 83.3769 9.3 83.3769 10.18C83.3769 10.6467 83.3569 11.1 83.3169 11.54H76.0369C76.1569 12.5133 76.4969 13.2733 77.0569 13.82C77.6169 14.3667 78.3569 14.64 79.2769 14.64C79.8769 14.64 80.4169 14.58 80.8969 14.46C81.3769 14.3267 81.8369 14.16 82.2769 13.96L82.6969 15.5C82.2169 15.7133 81.6769 15.8867 81.0769 16.02C80.4769 16.1667 79.8035 16.24 79.0569 16.24ZM76.0169 10.08H81.7169C81.7169 9.06667 81.4635 8.28667 80.9569 7.74C80.4502 7.19333 79.7502 6.92 78.8569 6.92C78.0835 6.92 77.4435 7.19333 76.9369 7.74C76.4302 8.27333 76.1235 9.05333 76.0169 10.08ZM88.9358 16.24C88.3224 16.24 87.7691 16.1267 87.2758 15.9C86.7824 15.66 86.3891 15.28 86.0958 14.76C85.8158 14.24 85.6758 13.5667 85.6758 12.74V1.2H87.4758V12.56C87.4758 13.28 87.6224 13.8133 87.9158 14.16C88.2224 14.5067 88.6424 14.68 89.1758 14.68C89.4291 14.68 89.6758 14.6533 89.9158 14.6C90.1691 14.5333 90.3824 14.46 90.5558 14.38L90.9958 15.84C90.7558 15.9467 90.4558 16.04 90.0958 16.12C89.7491 16.2 89.3624 16.24 88.9358 16.24ZM95.6545 16.24C95.0412 16.24 94.4879 16.1267 93.9945 15.9C93.5012 15.66 93.1079 15.28 92.8145 14.76C92.5345 14.24 92.3945 13.5667 92.3945 12.74V1.2H94.1945V12.56C94.1945 13.28 94.3412 13.8133 94.6345 14.16C94.9412 14.5067 95.3612 14.68 95.8945 14.68C96.1479 14.68 96.3945 14.6533 96.6345 14.6C96.8879 14.5333 97.1012 14.46 97.2745 14.38L97.7145 15.84C97.4745 15.9467 97.1745 16.04 96.8145 16.12C96.4679 16.2 96.0812 16.24 95.6545 16.24ZM103.276 16.24C101.782 16.24 100.596 15.7667 99.7156 14.82C98.849 13.86 98.4156 12.52 98.4156 10.8C98.4156 9.76 98.609 8.83333 98.9956 8.02C99.3956 7.19333 99.949 6.54667 100.656 6.08C101.362 5.6 102.182 5.36 103.116 5.36C104.116 5.36 104.942 5.58 105.596 6.02C106.262 6.44667 106.762 7.02667 107.096 7.76C107.429 8.49333 107.596 9.3 107.596 10.18C107.596 10.6467 107.576 11.1 107.536 11.54H100.256C100.376 12.5133 100.716 13.2733 101.276 13.82C101.836 14.3667 102.576 14.64 103.496 14.64C104.096 14.64 104.636 14.58 105.116 14.46C105.596 14.3267 106.056 14.16 106.496 13.96L106.916 15.5C106.436 15.7133 105.896 15.8867 105.296 16.02C104.696 16.1667 104.022 16.24 103.276 16.24ZM100.236 10.08H105.936C105.936 9.06667 105.682 8.28667 105.176 7.74C104.669 7.19333 103.969 6.92 103.076 6.92C102.302 6.92 101.662 7.19333 101.156 7.74C100.649 8.27333 100.342 9.05333 100.236 10.08ZM118.771 16L114.591 6.08L116.231 5.4L119.771 13.96L123.311 5.4L124.851 6.08L120.651 16H118.771ZM130.244 16.24C129.377 16.24 128.591 16.02 127.884 15.58C127.177 15.14 126.611 14.52 126.184 13.72C125.771 12.9067 125.564 11.9533 125.564 10.86C125.564 9.82 125.771 8.88667 126.184 8.06C126.611 7.23333 127.191 6.58 127.924 6.1C128.671 5.60667 129.524 5.36 130.484 5.36C131.084 5.36 131.624 5.46667 132.104 5.68C132.597 5.88 133.024 6.13333 133.384 6.44V5.6H135.024V13.48C135.024 13.9867 135.144 14.32 135.384 14.48C135.637 14.6267 135.911 14.7 136.204 14.7L135.824 16.1C134.544 16.1 133.771 15.58 133.504 14.54C133.197 14.9667 132.777 15.36 132.244 15.72C131.724 16.0667 131.057 16.24 130.244 16.24ZM130.644 14.64C131.151 14.64 131.631 14.52 132.084 14.28C132.537 14.0267 132.917 13.7133 133.224 13.34V7.76C132.864 7.50667 132.464 7.30667 132.024 7.16C131.597 7 131.144 6.92 130.664 6.92C130.024 6.92 129.457 7.08667 128.964 7.42C128.484 7.74 128.104 8.19333 127.824 8.78C127.544 9.35333 127.404 10.0267 127.404 10.8C127.404 11.5467 127.544 12.2133 127.824 12.8C128.104 13.3733 128.491 13.8267 128.984 14.16C129.477 14.48 130.031 14.64 130.644 14.64ZM142.233 20.64C141.619 20.64 141.019 20.5667 140.433 20.42C139.859 20.2733 139.346 20.0533 138.893 19.76L139.553 18.2C139.873 18.4533 140.246 18.66 140.673 18.82C141.099 18.9933 141.619 19.08 142.233 19.08C143.179 19.08 143.919 18.8267 144.453 18.32C144.999 17.8267 145.273 17.0333 145.273 15.94V14.66C145.006 14.98 144.619 15.2867 144.113 15.58C143.619 15.86 143.026 16 142.333 16C141.546 16 140.799 15.8 140.093 15.4C139.386 14.9867 138.813 14.3867 138.373 13.6C137.933 12.8133 137.713 11.8667 137.713 10.76C137.713 9.72 137.926 8.79333 138.353 7.98C138.793 7.16667 139.379 6.52667 140.113 6.06C140.846 5.59333 141.653 5.36 142.533 5.36C143.119 5.36 143.653 5.46 144.133 5.66C144.613 5.86 145.026 6.10667 145.373 6.4V5.6H147.013V15.76C147.013 16.9067 146.813 17.84 146.413 18.56C146.013 19.28 145.453 19.8067 144.733 20.14C144.026 20.4733 143.193 20.64 142.233 20.64ZM142.733 14.4C143.266 14.4 143.746 14.28 144.173 14.04C144.599 13.8 144.946 13.52 145.213 13.2V7.76C144.919 7.54667 144.566 7.35333 144.153 7.18C143.739 7.00667 143.259 6.92 142.713 6.92C142.166 6.92 141.653 7.06667 141.173 7.36C140.693 7.65333 140.299 8.08 139.993 8.64C139.699 9.18667 139.553 9.86 139.553 10.66C139.553 11.42 139.699 12.08 139.993 12.64C140.299 13.2 140.693 13.6333 141.173 13.94C141.653 14.2467 142.173 14.4 142.733 14.4ZM153.512 16.24C152.912 16.24 152.345 16.1133 151.812 15.86C151.278 15.6067 150.845 15.2 150.512 14.64C150.178 14.0667 150.012 13.3067 150.012 12.36V5.6H151.812V12.12C151.812 12.9333 151.985 13.56 152.332 14C152.678 14.4267 153.185 14.64 153.852 14.64C154.398 14.64 154.925 14.5333 155.432 14.32C155.952 14.0933 156.412 13.7933 156.812 13.42V5.6H158.612V13.3C158.612 13.8733 158.732 14.2533 158.972 14.44C159.225 14.6133 159.498 14.7 159.792 14.7L159.412 16.1C158.172 16.1 157.405 15.6067 157.112 14.62C156.645 15.1 156.105 15.4933 155.492 15.8C154.878 16.0933 154.218 16.24 153.512 16.24ZM166.147 16.24C164.653 16.24 163.467 15.7667 162.587 14.82C161.72 13.86 161.287 12.52 161.287 10.8C161.287 9.76 161.48 8.83333 161.867 8.02C162.267 7.19333 162.82 6.54667 163.527 6.08C164.233 5.6 165.053 5.36 165.987 5.36C166.987 5.36 167.813 5.58 168.467 6.02C169.133 6.44667 169.633 7.02667 169.967 7.76C170.3 8.49333 170.467 9.3 170.467 10.18C170.467 10.6467 170.447 11.1 170.407 11.54H163.127C163.247 12.5133 163.587 13.2733 164.147 13.82C164.707 14.3667 165.447 14.64 166.367 14.64C166.967 14.64 167.507 14.58 167.987 14.46C168.467 14.3267 168.927 14.16 169.367 13.96L169.787 15.5C169.307 15.7133 168.767 15.8867 168.167 16.02C167.567 16.1667 166.893 16.24 166.147 16.24ZM163.107 10.08H168.807C168.807 9.06667 168.553 8.28667 168.047 7.74C167.54 7.19333 166.84 6.92 165.947 6.92C165.173 6.92 164.533 7.19333 164.027 7.74C163.52 8.27333 163.213 9.05333 163.107 10.08ZM179.062 16V7.54H177.462V5.98H179.062V4.76C179.062 3.58667 179.388 2.66 180.042 1.98C180.695 1.3 181.548 0.959999 182.602 0.959999C183.148 0.959999 183.628 1.02667 184.042 1.16C184.455 1.28 184.848 1.43333 185.222 1.62L184.682 3.14C184.402 2.99333 184.102 2.86 183.782 2.74C183.462 2.62 183.108 2.56 182.722 2.56C182.162 2.56 181.708 2.74 181.362 3.1C181.028 3.44667 180.862 3.96 180.862 4.64V5.98H183.942V7.54H180.862V16H179.062ZM185.815 16V5.6H187.555V7.86C187.728 7.42 187.962 7.01333 188.255 6.64C188.548 6.25333 188.915 5.94667 189.355 5.72C189.795 5.48 190.308 5.36 190.895 5.36C191.095 5.36 191.295 5.37333 191.495 5.4C191.695 5.41333 191.862 5.44 191.995 5.48L191.455 7.34C191.202 7.23333 190.902 7.18 190.555 7.18C190.062 7.18 189.588 7.32 189.135 7.6C188.695 7.88 188.328 8.31333 188.035 8.9C187.755 9.48667 187.615 10.2333 187.615 11.14V16H185.815ZM197.178 16.24C196.311 16.24 195.524 16.02 194.818 15.58C194.111 15.14 193.544 14.52 193.118 13.72C192.704 12.9067 192.498 11.9533 192.498 10.86C192.498 9.82 192.704 8.88667 193.118 8.06C193.544 7.23333 194.124 6.58 194.858 6.1C195.604 5.60667 196.458 5.36 197.418 5.36C198.018 5.36 198.558 5.46667 199.038 5.68C199.531 5.88 199.958 6.13333 200.318 6.44V5.6H201.958V13.48C201.958 13.9867 202.078 14.32 202.318 14.48C202.571 14.6267 202.844 14.7 203.138 14.7L202.758 16.1C201.478 16.1 200.704 15.58 200.438 14.54C200.131 14.9667 199.711 15.36 199.178 15.72C198.658 16.0667 197.991 16.24 197.178 16.24ZM197.578 14.64C198.084 14.64 198.564 14.52 199.018 14.28C199.471 14.0267 199.851 13.7133 200.158 13.34V7.76C199.798 7.50667 199.398 7.30667 198.958 7.16C198.531 7 198.078 6.92 197.598 6.92C196.958 6.92 196.391 7.08667 195.898 7.42C195.418 7.74 195.038 8.19333 194.758 8.78C194.478 9.35333 194.338 10.0267 194.338 10.8C194.338 11.5467 194.478 12.2133 194.758 12.8C195.038 13.3733 195.424 13.8267 195.918 14.16C196.411 14.48 196.964 14.64 197.578 14.64ZM205.541 16V5.6H207.281V7.34C207.655 6.78 208.128 6.31333 208.701 5.94C209.288 5.55333 209.981 5.36 210.781 5.36C211.955 5.36 212.828 5.71333 213.401 6.42C213.988 7.12667 214.281 8.06 214.281 9.22V16H212.481V9.42C212.481 8.67333 212.301 8.07333 211.941 7.62C211.595 7.16667 211.108 6.94 210.481 6.94C209.868 6.94 209.288 7.16 208.741 7.6C208.195 8.02667 207.728 8.53333 207.341 9.12V16H205.541ZM221.577 16.24C220.591 16.24 219.724 16.0133 218.977 15.56C218.244 15.0933 217.677 14.4533 217.277 13.64C216.877 12.8133 216.677 11.8667 216.677 10.8C216.677 9.8 216.877 8.88667 217.277 8.06C217.691 7.23333 218.277 6.58 219.037 6.1C219.797 5.60667 220.691 5.36 221.717 5.36C222.304 5.36 222.817 5.41333 223.257 5.52C223.711 5.62667 224.144 5.78 224.557 5.98L224.017 7.5C223.644 7.31333 223.284 7.18 222.937 7.1C222.604 7.00667 222.231 6.96 221.817 6.96C220.884 6.96 220.097 7.3 219.457 7.98C218.831 8.64667 218.517 9.57333 218.517 10.76C218.517 11.48 218.651 12.1333 218.917 12.72C219.184 13.3067 219.551 13.7733 220.017 14.12C220.497 14.4667 221.057 14.64 221.697 14.64C222.204 14.64 222.637 14.5867 222.997 14.48C223.357 14.36 223.744 14.1933 224.157 13.98L224.717 15.5C224.304 15.7267 223.837 15.9067 223.317 16.04C222.811 16.1733 222.231 16.24 221.577 16.24ZM220.997 20.88C220.637 20.88 220.291 20.8467 219.957 20.78C219.624 20.7133 219.304 20.6133 218.997 20.48L219.477 19.22C219.917 19.4467 220.397 19.56 220.917 19.56C221.264 19.56 221.551 19.5 221.777 19.38C222.004 19.26 222.117 19.0733 222.117 18.82C222.117 18.58 221.957 18.3667 221.637 18.18C221.331 17.9933 220.737 17.9 219.857 17.9L220.557 16H221.917L221.497 17.18C222.164 17.18 222.704 17.3267 223.117 17.62C223.531 17.9267 223.737 18.3733 223.737 18.96C223.737 19.4533 223.511 19.8933 223.057 20.28C222.604 20.68 221.917 20.88 220.997 20.88ZM230.596 16.24C229.729 16.24 228.942 16.02 228.236 15.58C227.529 15.14 226.962 14.52 226.536 13.72C226.122 12.9067 225.916 11.9533 225.916 10.86C225.916 9.82 226.122 8.88667 226.536 8.06C226.962 7.23333 227.542 6.58 228.276 6.1C229.022 5.60667 229.876 5.36 230.836 5.36C231.436 5.36 231.976 5.46667 232.456 5.68C232.949 5.88 233.376 6.13333 233.736 6.44V5.6H235.376V13.48C235.376 13.9867 235.496 14.32 235.736 14.48C235.989 14.6267 236.262 14.7 236.556 14.7L236.176 16.1C234.896 16.1 234.122 15.58 233.856 14.54C233.549 14.9667 233.129 15.36 232.596 15.72C232.076 16.0667 231.409 16.24 230.596 16.24ZM230.996 14.64C231.502 14.64 231.982 14.52 232.436 14.28C232.889 14.0267 233.269 13.7133 233.576 13.34V7.76C233.216 7.50667 232.816 7.30667 232.376 7.16C231.949 7 231.496 6.92 231.016 6.92C230.376 6.92 229.809 7.08667 229.316 7.42C228.836 7.74 228.456 8.19333 228.176 8.78C227.896 9.35333 227.756 10.0267 227.756 10.8C227.756 11.5467 227.896 12.2133 228.176 12.8C228.456 13.3733 228.842 13.8267 229.336 14.16C229.829 14.48 230.382 14.64 230.996 14.64ZM238.959 16V5.6H240.759V16H238.959ZM239.859 3.82C239.513 3.82 239.213 3.69333 238.959 3.44C238.719 3.18667 238.599 2.89333 238.599 2.56C238.599 2.17333 238.713 1.86667 238.939 1.64C239.166 1.41333 239.473 1.3 239.859 1.3C240.206 1.3 240.499 1.42667 240.739 1.68C240.993 1.92 241.119 2.21333 241.119 2.56C241.119 2.93333 241.006 3.24 240.779 3.48C240.553 3.70667 240.246 3.82 239.859 3.82ZM246.759 16.24C245.973 16.24 245.259 16.14 244.619 15.94C243.993 15.74 243.473 15.48 243.059 15.16L243.819 13.66C244.166 13.9533 244.599 14.2 245.119 14.4C245.653 14.5867 246.219 14.68 246.819 14.68C247.566 14.68 248.126 14.56 248.499 14.32C248.886 14.0667 249.079 13.7467 249.079 13.36C249.079 13.08 249.006 12.8333 248.859 12.62C248.726 12.4067 248.473 12.2 248.099 12C247.726 11.7867 247.186 11.56 246.479 11.32C245.506 10.9867 244.773 10.5933 244.279 10.14C243.799 9.67333 243.559 9.03333 243.559 8.22C243.559 7.42 243.906 6.74667 244.599 6.2C245.306 5.64 246.279 5.36 247.519 5.36C248.186 5.36 248.779 5.43333 249.299 5.58C249.819 5.71333 250.286 5.88667 250.699 6.1L250.199 7.58C249.839 7.36667 249.426 7.19333 248.959 7.06C248.506 6.92667 247.999 6.86 247.439 6.86C246.746 6.86 246.219 7 245.859 7.28C245.499 7.56 245.319 7.86667 245.319 8.2C245.319 8.52 245.459 8.79333 245.739 9.02C246.019 9.24667 246.566 9.49333 247.379 9.76C248.699 10.2 249.619 10.6867 250.139 11.22C250.659 11.7533 250.919 12.42 250.919 13.22C250.919 14.1533 250.539 14.8933 249.779 15.44C249.033 15.9733 248.026 16.24 246.759 16.24ZM257.475 16.24C255.982 16.24 254.795 15.7667 253.915 14.82C253.048 13.86 252.615 12.52 252.615 10.8C252.615 9.76 252.808 8.83333 253.195 8.02C253.595 7.19333 254.148 6.54667 254.855 6.08C255.562 5.6 256.382 5.36 257.315 5.36C258.315 5.36 259.142 5.58 259.795 6.02C260.462 6.44667 260.962 7.02667 261.295 7.76C261.628 8.49333 261.795 9.3 261.795 10.18C261.795 10.6467 261.775 11.1 261.735 11.54H254.455C254.575 12.5133 254.915 13.2733 255.475 13.82C256.035 14.3667 256.775 14.64 257.695 14.64C258.295 14.64 258.835 14.58 259.315 14.46C259.795 14.3267 260.255 14.16 260.695 13.96L261.115 15.5C260.635 15.7133 260.095 15.8867 259.495 16.02C258.895 16.1667 258.222 16.24 257.475 16.24ZM254.435 10.08H260.135C260.135 9.06667 259.882 8.28667 259.375 7.74C258.868 7.19333 258.168 6.92 257.275 6.92C256.502 6.92 255.862 7.19333 255.355 7.74C254.848 8.27333 254.542 9.05333 254.435 10.08ZM272.37 18.46C271.543 16.9933 270.897 15.54 270.43 14.1C269.963 12.6467 269.73 11.1467 269.73 9.6C269.73 7.93333 269.963 6.39333 270.43 4.98C270.91 3.55333 271.557 2.14 272.37 0.74L273.43 1.34C272.937 2.46 272.51 3.71333 272.15 5.1C271.803 6.47333 271.63 7.97333 271.63 9.6C271.63 11.2133 271.803 12.7067 272.15 14.08C272.51 15.4533 272.937 16.7133 273.43 17.86L272.37 18.46ZM274.926 20.64C274.113 20.64 273.433 20.4867 272.886 20.18L273.326 18.68C273.499 18.7867 273.713 18.88 273.966 18.96C274.206 19.04 274.453 19.08 274.706 19.08C275.839 19.08 276.406 18.3733 276.406 16.96V5.6H278.206V17.14C278.206 17.9533 278.059 18.6133 277.766 19.12C277.473 19.64 277.079 20.02 276.586 20.26C276.093 20.5133 275.539 20.64 274.926 20.64ZM277.266 3.82C276.919 3.82 276.619 3.69333 276.366 3.44C276.126 3.18667 276.006 2.89333 276.006 2.56C276.006 2.17333 276.119 1.86667 276.346 1.64C276.573 1.41333 276.879 1.3 277.266 1.3C277.613 1.3 277.906 1.42667 278.146 1.68C278.399 1.92 278.526 2.21333 278.526 2.56C278.526 2.93333 278.413 3.24 278.186 3.48C277.959 3.70667 277.653 3.82 277.266 3.82ZM284.801 16.24C284.201 16.24 283.634 16.1133 283.101 15.86C282.567 15.6067 282.134 15.2 281.801 14.64C281.467 14.0667 281.301 13.3067 281.301 12.36V5.6H283.101V12.12C283.101 12.9333 283.274 13.56 283.621 14C283.967 14.4267 284.474 14.64 285.141 14.64C285.687 14.64 286.214 14.5333 286.721 14.32C287.241 14.0933 287.701 13.7933 288.101 13.42V5.6H289.901V13.3C289.901 13.8733 290.021 14.2533 290.261 14.44C290.514 14.6133 290.787 14.7 291.081 14.7L290.701 16.1C289.461 16.1 288.694 15.6067 288.401 14.62C287.934 15.1 287.394 15.4933 286.781 15.8C286.167 16.0933 285.507 16.24 284.801 16.24ZM293.471 16V5.6H295.271V16H293.471ZM294.371 3.82C294.024 3.82 293.724 3.69333 293.471 3.44C293.231 3.18667 293.111 2.89333 293.111 2.56C293.111 2.17333 293.224 1.86667 293.451 1.64C293.678 1.41333 293.984 1.3 294.371 1.3C294.718 1.3 295.011 1.42667 295.251 1.68C295.504 1.92 295.631 2.21333 295.631 2.56C295.631 2.93333 295.518 3.24 295.291 3.48C295.064 3.70667 294.758 3.82 294.371 3.82ZM298.471 16V5.6H300.211V7.34C300.584 6.78 301.058 6.31333 301.631 5.94C302.218 5.55333 302.911 5.36 303.711 5.36C304.884 5.36 305.758 5.71333 306.331 6.42C306.918 7.12667 307.211 8.06 307.211 9.22V16H305.411V9.42C305.411 8.67333 305.231 8.07333 304.871 7.62C304.524 7.16667 304.038 6.94 303.411 6.94C302.798 6.94 302.218 7.16 301.671 7.6C301.124 8.02667 300.658 8.53333 300.271 9.12V16H298.471ZM316.463 16C316.423 15.76 316.403 15.5133 316.403 15.26C316.403 14.3933 316.55 13.62 316.843 12.94C317.15 12.2467 317.543 11.62 318.023 11.06C318.503 10.4867 319.01 9.96 319.543 9.48C320.09 8.98667 320.596 8.52 321.063 8.08C321.543 7.62667 321.936 7.17333 322.243 6.72C322.55 6.26667 322.703 5.79333 322.703 5.3C322.703 4.74 322.496 4.28 322.083 3.92C321.67 3.54667 321.136 3.36 320.483 3.36C319.923 3.36 319.41 3.47333 318.943 3.7C318.49 3.91333 318.063 4.20667 317.663 4.58L316.663 3.36C317.196 2.88 317.783 2.49333 318.423 2.2C319.076 1.90667 319.83 1.76 320.683 1.76C321.47 1.76 322.156 1.91333 322.743 2.22C323.33 2.51333 323.783 2.92 324.103 3.44C324.436 3.96 324.603 4.54 324.603 5.18C324.603 5.82 324.463 6.41333 324.183 6.96C323.903 7.50667 323.543 8.02 323.103 8.5C322.663 8.98 322.19 9.44667 321.683 9.9C321.176 10.34 320.69 10.7933 320.223 11.26C319.756 11.7267 319.356 12.2133 319.023 12.72C318.703 13.2267 318.503 13.7733 318.423 14.36H324.583V16H316.463ZM332.675 16.24C331.115 16.24 329.929 15.6067 329.115 14.34C328.302 13.06 327.895 11.2733 327.895 8.98C327.895 6.67333 328.309 4.89333 329.135 3.64C329.975 2.38667 331.169 1.76 332.715 1.76C334.275 1.76 335.462 2.39333 336.275 3.66C337.089 4.92667 337.495 6.71333 337.495 9.02C337.495 11.3267 337.075 13.1067 336.235 14.36C335.409 15.6133 334.222 16.24 332.675 16.24ZM332.695 14.6C333.295 14.6 333.809 14.4267 334.235 14.08C334.675 13.72 335.009 13.1333 335.235 12.32C335.475 11.5067 335.595 10.4133 335.595 9.04C335.595 7.2 335.335 5.8 334.815 4.84C334.309 3.88 333.602 3.4 332.695 3.4C332.095 3.4 331.575 3.58 331.135 3.94C330.709 4.28667 330.375 4.86667 330.135 5.68C329.909 6.48 329.795 7.57333 329.795 8.96C329.795 10.8 330.049 12.2 330.555 13.16C331.075 14.12 331.789 14.6 332.695 14.6ZM341.568 16V14.4H344.428V4.3L341.748 6.32L340.768 4.98L344.908 2H346.228V14.4H348.608V16H341.568ZM356.78 16.24C355.766 16.24 354.886 16.0667 354.14 15.72C353.393 15.3733 352.813 14.9067 352.4 14.32C352 13.72 351.8 13.06 351.8 12.34C351.8 11.4733 352.033 10.72 352.5 10.08C352.98 9.44 353.726 8.9 354.74 8.46C354.033 8.07333 353.486 7.62667 353.1 7.12C352.726 6.6 352.54 5.96 352.54 5.2C352.54 4.52 352.72 3.92667 353.08 3.42C353.44 2.9 353.926 2.49333 354.54 2.2C355.166 1.90667 355.86 1.76 356.62 1.76C357.446 1.76 358.173 1.91333 358.8 2.22C359.426 2.51333 359.913 2.92 360.26 3.44C360.62 3.96 360.8 4.54 360.8 5.18C360.8 5.99333 360.593 6.65333 360.18 7.16C359.766 7.66667 359.213 8.09333 358.52 8.44C359.506 8.85333 360.26 9.37333 360.78 10C361.3 10.6133 361.56 11.3533 361.56 12.22C361.56 13.02 361.353 13.7267 360.94 14.34C360.526 14.94 359.96 15.4067 359.24 15.74C358.52 16.0733 357.7 16.24 356.78 16.24ZM356.88 7.78C357.466 7.58 357.973 7.27333 358.4 6.86C358.84 6.44667 359.06 5.94667 359.06 5.36C359.06 4.74667 358.826 4.24 358.36 3.84C357.893 3.44 357.313 3.24 356.62 3.24C355.94 3.24 355.38 3.42 354.94 3.78C354.5 4.12667 354.28 4.58667 354.28 5.16C354.28 5.73333 354.513 6.25333 354.98 6.72C355.46 7.18667 356.093 7.54 356.88 7.78ZM356.8 14.64C357.653 14.64 358.353 14.42 358.9 13.98C359.446 13.5267 359.72 12.9533 359.72 12.26C359.72 11.62 359.433 11.0467 358.86 10.54C358.3 10.0333 357.52 9.6 356.52 9.24C356.013 9.36 355.54 9.54667 355.1 9.8C354.66 10.0533 354.306 10.3667 354.04 10.74C353.773 11.1133 353.64 11.54 353.64 12.02C353.64 12.5133 353.773 12.96 354.04 13.36C354.32 13.76 354.7 14.0733 355.18 14.3C355.66 14.5267 356.2 14.64 356.8 14.64ZM364.892 18.46L363.832 17.86C364.339 16.7133 364.765 15.4533 365.112 14.08C365.459 12.7067 365.632 11.2133 365.632 9.6C365.632 7.97333 365.459 6.47333 365.112 5.1C364.765 3.71333 364.339 2.46 363.832 1.34L364.892 0.74C365.719 2.14 366.365 3.55333 366.832 4.98C367.299 6.39333 367.532 7.93333 367.532 9.6C367.532 11.1467 367.299 12.6467 366.832 14.1C366.365 15.54 365.719 16.9933 364.892 18.46Z" fill="white"/>
</svg>
