<svg width="56" height="18" viewBox="0 0 56 18" fill="none" xmlns="http://www.w3.org/2000/svg">
<path d="M0.98 17V1.6H3.07V15.13H10.132V17H0.98ZM16.5723 17.264C14.9297 17.264 13.6243 16.7433 12.6563 15.702C11.703 14.646 11.2263 13.172 11.2263 11.28C11.2263 10.136 11.439 9.11667 11.8643 8.222C12.3043 7.31267 12.913 6.60133 13.6903 6.088C14.4677 5.56 15.3697 5.296 16.3963 5.296C17.4963 5.296 18.4057 5.538 19.1243 6.022C19.8577 6.49133 20.4077 7.12933 20.7743 7.936C21.141 8.74267 21.3243 9.63 21.3243 10.598C21.3243 11.1113 21.3023 11.61 21.2583 12.094H13.2503C13.3823 13.1647 13.7563 14.0007 14.3723 14.602C14.9883 15.2033 15.8023 15.504 16.8143 15.504C17.4743 15.504 18.0683 15.438 18.5963 15.306C19.1243 15.1593 19.6303 14.976 20.1143 14.756L20.5763 16.45C20.0483 16.6847 19.4543 16.8753 18.7943 17.022C18.1343 17.1833 17.3937 17.264 16.5723 17.264ZM13.2283 10.488H19.4983C19.4983 9.37333 19.2197 8.51533 18.6623 7.914C18.105 7.31267 17.335 7.012 16.3523 7.012C15.5017 7.012 14.7977 7.31267 14.2403 7.914C13.683 8.50067 13.3457 9.35867 13.2283 10.488ZM36.6968 17.264C35.3622 17.264 34.1815 16.9487 33.1548 16.318C32.1282 15.6727 31.3288 14.7633 30.7568 13.59C30.1848 12.402 29.8988 10.994 29.8988 9.366C29.8988 7.79667 30.1848 6.41067 30.7568 5.208C31.3435 3.99067 32.1648 3.04467 33.2208 2.37C34.2915 1.68067 35.5382 1.336 36.9608 1.336C37.6942 1.336 38.3615 1.40933 38.9628 1.556C39.5642 1.688 40.1288 1.87867 40.6568 2.128L40.0188 3.888C39.5642 3.668 39.0948 3.492 38.6108 3.36C38.1415 3.228 37.5842 3.162 36.9388 3.162C36.0002 3.162 35.1568 3.404 34.4088 3.888C33.6755 4.372 33.0962 5.06867 32.6708 5.978C32.2455 6.88733 32.0328 7.98733 32.0328 9.278C32.0328 10.51 32.2382 11.588 32.6488 12.512C33.0742 13.436 33.6535 14.1547 34.3868 14.668C35.1348 15.1813 35.9855 15.438 36.9388 15.438C37.6575 15.438 38.2808 15.35 38.8088 15.174C39.3368 14.998 39.8502 14.7707 40.3488 14.492L40.9868 16.23C40.4442 16.5233 39.8208 16.7727 39.1168 16.978C38.4275 17.1687 37.6208 17.264 36.6968 17.264ZM47.7733 17.264C46.688 17.264 45.7126 17.0147 44.8473 16.516C43.982 16.0027 43.3 15.2987 42.8013 14.404C42.3173 13.4947 42.0753 12.4533 42.0753 11.28C42.0753 10.048 42.3246 8.98467 42.8233 8.09C43.322 7.19533 44.004 6.506 44.8693 6.022C45.7346 5.538 46.7026 5.296 47.7733 5.296C48.844 5.296 49.8046 5.538 50.6553 6.022C51.5206 6.506 52.2026 7.19533 52.7013 8.09C53.2146 8.97 53.4713 10.0187 53.4713 11.236C53.4713 12.4533 53.222 13.5167 52.7233 14.426C52.2246 15.3207 51.5426 16.0173 50.6773 16.516C49.8266 17.0147 48.8586 17.264 47.7733 17.264ZM47.7733 15.504C48.932 15.504 49.834 15.1153 50.4793 14.338C51.1246 13.546 51.4473 12.5267 51.4473 11.28C51.4473 10.5173 51.286 9.82067 50.9633 9.19C50.6406 8.54467 50.2006 8.03133 49.6433 7.65C49.1006 7.254 48.4773 7.056 47.7733 7.056C46.6146 7.056 45.7126 7.43733 45.0673 8.2C44.422 8.96267 44.0993 9.97467 44.0993 11.236C44.0993 11.9987 44.2606 12.71 44.5833 13.37C44.906 14.0153 45.3386 14.536 45.8813 14.932C46.4386 15.3133 47.0693 15.504 47.7733 15.504ZM59.8438 17.264C59.1838 17.264 58.5604 17.1247 57.9738 16.846C57.3871 16.5673 56.9104 16.12 56.5438 15.504C56.1771 14.8733 55.9938 14.0373 55.9938 12.996V5.56H57.9738V12.732C57.9738 13.6267 58.1644 14.316 58.5458 14.8C58.9271 15.2693 59.4844 15.504 60.2178 15.504C60.8191 15.504 61.3984 15.3867 61.9558 15.152C62.5278 14.9027 63.0338 14.5727 63.4738 14.162V5.56H65.4537V14.03C65.4537 14.6607 65.5857 15.0787 65.8498 15.284C66.1284 15.4747 66.4291 15.57 66.7518 15.57L66.3338 17.11C64.9698 17.11 64.1264 16.5673 63.8038 15.482C63.2904 16.01 62.6964 16.4427 62.0218 16.78C61.3471 17.1027 60.6211 17.264 59.8438 17.264ZM73.3851 17.264C72.2851 17.264 71.4124 16.9047 70.7671 16.186C70.1364 15.4527 69.8211 14.4113 69.8211 13.062V7.694H67.8411V5.978H69.8651L70.2831 2.37H71.8011V5.978H74.9691V7.694H71.8011V13.216C71.8011 14.0667 71.9771 14.6607 72.3291 14.998C72.6958 15.3353 73.1284 15.504 73.6271 15.504C73.9938 15.504 74.3384 15.4453 74.6611 15.328C74.9984 15.2107 75.3064 15.0713 75.5851 14.91L76.1351 16.494C75.8418 16.67 75.4458 16.8387 74.9471 17C74.4484 17.176 73.9278 17.264 73.3851 17.264ZM82.2715 17.264C80.6289 17.264 79.3235 16.7433 78.3555 15.702C77.4022 14.646 76.9255 13.172 76.9255 11.28C76.9255 10.136 77.1382 9.11667 77.5635 8.222C78.0035 7.31267 78.6122 6.60133 79.3895 6.088C80.1669 5.56 81.0689 5.296 82.0955 5.296C83.1955 5.296 84.1049 5.538 84.8235 6.022C85.5569 6.49133 86.1069 7.12933 86.4735 7.936C86.8402 8.74267 87.0235 9.63 87.0235 10.598C87.0235 11.1113 87.0015 11.61 86.9575 12.094H78.9495C79.0815 13.1647 79.4555 14.0007 80.0715 14.602C80.6875 15.2033 81.5015 15.504 82.5135 15.504C83.1735 15.504 83.7675 15.438 84.2955 15.306C84.8235 15.1593 85.3295 14.976 85.8135 14.756L86.2755 16.45C85.7475 16.6847 85.1535 16.8753 84.4935 17.022C83.8335 17.1833 83.0929 17.264 82.2715 17.264ZM78.9275 10.488H85.1975C85.1975 9.37333 84.9189 8.51533 84.3615 7.914C83.8042 7.31267 83.0342 7.012 82.0515 7.012C81.2009 7.012 80.4969 7.31267 79.9395 7.914C79.3822 8.50067 79.0449 9.35867 78.9275 10.488ZM94.0403 17.264C93.087 17.264 92.2217 17.022 91.4443 16.538C90.667 16.054 90.0437 15.372 89.5743 14.492C89.1197 13.5973 88.8923 12.5487 88.8923 11.346C88.8923 10.202 89.1197 9.17533 89.5743 8.266C90.0437 7.35667 90.6817 6.638 91.4883 6.11C92.3097 5.56733 93.2483 5.296 94.3043 5.296C94.9643 5.296 95.5583 5.41333 96.0863 5.648C96.629 5.868 97.0983 6.14667 97.4943 6.484V5.56H99.2983V14.228C99.2983 14.7853 99.4303 15.152 99.6943 15.328C99.973 15.4893 100.274 15.57 100.596 15.57L100.178 17.11C98.7703 17.11 97.9197 16.538 97.6263 15.394C97.289 15.8633 96.827 16.296 96.2403 16.692C95.6683 17.0733 94.935 17.264 94.0403 17.264ZM94.4803 15.504C95.0377 15.504 95.5657 15.372 96.0643 15.108C96.563 14.8293 96.981 14.4847 97.3183 14.074V7.936C96.9223 7.65733 96.4823 7.43733 95.9983 7.276C95.529 7.1 95.0303 7.012 94.5023 7.012C93.7983 7.012 93.175 7.19533 92.6323 7.562C92.1043 7.914 91.6863 8.41267 91.3783 9.058C91.0703 9.68867 90.9163 10.4293 90.9163 11.28C90.9163 12.1013 91.0703 12.8347 91.3783 13.48C91.6863 14.1107 92.1117 14.6093 92.6543 14.976C93.197 15.328 93.8057 15.504 94.4803 15.504ZM106.98 17.264C106.32 17.264 105.697 17.1247 105.11 16.846C104.524 16.5673 104.047 16.12 103.68 15.504C103.314 14.8733 103.13 14.0373 103.13 12.996V5.56H105.11V12.732C105.11 13.6267 105.301 14.316 105.682 14.8C106.064 15.2693 106.621 15.504 107.354 15.504C107.956 15.504 108.535 15.3867 109.092 15.152C109.664 14.9027 110.17 14.5727 110.61 14.162V5.56H112.59V14.03C112.59 14.6607 112.722 15.0787 112.986 15.284C113.265 15.4747 113.566 15.57 113.888 15.57L113.47 17.11C112.106 17.11 111.263 16.5673 110.94 15.482C110.427 16.01 109.833 16.4427 109.158 16.78C108.484 17.1027 107.758 17.264 106.98 17.264ZM127.448 17.264C126.509 17.264 125.651 17.022 124.874 16.538C124.096 16.054 123.48 15.372 123.026 14.492C122.571 13.5973 122.344 12.5487 122.344 11.346C122.344 10.1873 122.571 9.15333 123.026 8.244C123.495 7.33467 124.111 6.616 124.874 6.088C125.651 5.56 126.502 5.296 127.426 5.296C128.188 5.296 128.841 5.45 129.384 5.758C129.941 6.066 130.374 6.38133 130.682 6.704V0.72H132.662V14.228C132.662 14.7853 132.794 15.152 133.058 15.328C133.336 15.4893 133.637 15.57 133.96 15.57L133.542 17.11C132.148 17.11 131.298 16.5527 130.99 15.438C130.667 15.8927 130.212 16.3107 129.626 16.692C129.054 17.0733 128.328 17.264 127.448 17.264ZM127.888 15.504C128.43 15.504 128.944 15.3793 129.428 15.13C129.926 14.866 130.344 14.5287 130.682 14.118V8.442C130.403 8.09 130.014 7.76733 129.516 7.474C129.017 7.166 128.467 7.012 127.866 7.012C127.162 7.012 126.546 7.20267 126.018 7.584C125.49 7.96533 125.079 8.47867 124.786 9.124C124.507 9.75467 124.368 10.4733 124.368 11.28C124.368 12.0867 124.522 12.8127 124.83 13.458C125.138 14.0887 125.556 14.5873 126.084 14.954C126.626 15.3207 127.228 15.504 127.888 15.504ZM140.769 17.264C139.816 17.264 138.95 17.022 138.173 16.538C137.396 16.054 136.772 15.372 136.303 14.492C135.848 13.5973 135.621 12.5487 135.621 11.346C135.621 10.202 135.848 9.17533 136.303 8.266C136.772 7.35667 137.41 6.638 138.217 6.11C139.038 5.56733 139.977 5.296 141.033 5.296C141.693 5.296 142.287 5.41333 142.815 5.648C143.358 5.868 143.827 6.14667 144.223 6.484V5.56H146.027V14.228C146.027 14.7853 146.159 15.152 146.423 15.328C146.702 15.4893 147.002 15.57 147.325 15.57L146.907 17.11C145.499 17.11 144.648 16.538 144.355 15.394C144.018 15.8633 143.556 16.296 142.969 16.692C142.397 17.0733 141.664 17.264 140.769 17.264ZM141.209 15.504C141.766 15.504 142.294 15.372 142.793 15.108C143.292 14.8293 143.71 14.4847 144.047 14.074V7.936C143.651 7.65733 143.211 7.43733 142.727 7.276C142.258 7.1 141.759 7.012 141.231 7.012C140.527 7.012 139.904 7.19533 139.361 7.562C138.833 7.914 138.415 8.41267 138.107 9.058C137.799 9.68867 137.645 10.4293 137.645 11.28C137.645 12.1013 137.799 12.8347 138.107 13.48C138.415 14.1107 138.84 14.6093 139.383 14.976C139.926 15.328 140.534 15.504 141.209 15.504ZM149.969 17V5.56H151.883V7.474C152.294 6.858 152.814 6.34467 153.445 5.934C154.09 5.50867 154.853 5.296 155.733 5.296C157.024 5.296 157.984 5.68467 158.615 6.462C159.26 7.23933 159.583 8.266 159.583 9.542V17H157.603V9.762C157.603 8.94067 157.405 8.28067 157.009 7.782C156.628 7.28333 156.092 7.034 155.403 7.034C154.728 7.034 154.09 7.276 153.489 7.76C152.888 8.22933 152.374 8.78667 151.949 9.432V17H149.969ZM166.069 17.264C165.203 17.264 164.419 17.154 163.715 16.934C163.025 16.714 162.453 16.428 161.999 16.076L162.835 14.426C163.216 14.7487 163.693 15.02 164.265 15.24C164.851 15.4453 165.475 15.548 166.135 15.548C166.956 15.548 167.572 15.416 167.983 15.152C168.408 14.8733 168.621 14.5213 168.621 14.096C168.621 13.788 168.54 13.5167 168.379 13.282C168.232 13.0473 167.953 12.82 167.543 12.6C167.132 12.3653 166.538 12.116 165.761 11.852C164.69 11.4853 163.883 11.0527 163.341 10.554C162.813 10.0407 162.549 9.33667 162.549 8.442C162.549 7.562 162.93 6.82133 163.693 6.22C164.47 5.604 165.541 5.296 166.905 5.296C167.638 5.296 168.291 5.37667 168.863 5.538C169.435 5.68467 169.948 5.87533 170.403 6.11L169.853 7.738C169.457 7.50333 169.002 7.31267 168.489 7.166C167.99 7.01933 167.433 6.946 166.817 6.946C166.054 6.946 165.475 7.1 165.079 7.408C164.683 7.716 164.485 8.05333 164.485 8.42C164.485 8.772 164.639 9.07267 164.947 9.322C165.255 9.57133 165.856 9.84267 166.751 10.136C168.203 10.62 169.215 11.1553 169.787 11.742C170.359 12.3287 170.645 13.062 170.645 13.942C170.645 14.9687 170.227 15.7827 169.391 16.384C168.569 16.9707 167.462 17.264 166.069 17.264ZM183.351 17.264C182.677 17.264 182.068 17.1393 181.525 16.89C180.983 16.626 180.55 16.208 180.227 15.636C179.919 15.064 179.765 14.3233 179.765 13.414V0.72H181.745V13.216C181.745 14.008 181.907 14.5947 182.229 14.976C182.567 15.3573 183.029 15.548 183.615 15.548C183.894 15.548 184.165 15.5187 184.429 15.46C184.708 15.3867 184.943 15.306 185.133 15.218L185.617 16.824C185.353 16.9413 185.023 17.044 184.627 17.132C184.246 17.22 183.821 17.264 183.351 17.264ZM185.505 6.484L185.329 1.6H187.243L187.067 6.484H185.505ZM194.27 17.264C192.627 17.264 191.322 16.7433 190.354 15.702C189.4 14.646 188.924 13.172 188.924 11.28C188.924 10.136 189.136 9.11667 189.562 8.222C190.002 7.31267 190.61 6.60133 191.388 6.088C192.165 5.56 193.067 5.296 194.094 5.296C195.194 5.296 196.103 5.538 196.822 6.022C197.555 6.49133 198.105 7.12933 198.472 7.936C198.838 8.74267 199.022 9.63 199.022 10.598C199.022 11.1113 199 11.61 198.956 12.094H190.948C191.08 13.1647 191.454 14.0007 192.07 14.602C192.686 15.2033 193.5 15.504 194.512 15.504C195.172 15.504 195.766 15.438 196.294 15.306C196.822 15.1593 197.328 14.976 197.812 14.756L198.274 16.45C197.746 16.6847 197.152 16.8753 196.492 17.022C195.832 17.1833 195.091 17.264 194.27 17.264ZM190.926 10.488H197.196C197.196 9.37333 196.917 8.51533 196.36 7.914C195.802 7.31267 195.032 7.012 194.05 7.012C193.199 7.012 192.495 7.31267 191.938 7.914C191.38 8.50067 191.043 9.35867 190.926 10.488ZM206.038 17.264C205.085 17.264 204.22 17.022 203.442 16.538C202.665 16.054 202.042 15.372 201.572 14.492C201.118 13.5973 200.89 12.5487 200.89 11.346C200.89 10.202 201.118 9.17533 201.572 8.266C202.042 7.35667 202.68 6.638 203.486 6.11C204.308 5.56733 205.246 5.296 206.302 5.296C206.962 5.296 207.556 5.41333 208.084 5.648C208.627 5.868 209.096 6.14667 209.492 6.484V5.56H211.296V14.228C211.296 14.7853 211.428 15.152 211.692 15.328C211.971 15.4893 212.272 15.57 212.594 15.57L212.176 17.11C210.768 17.11 209.918 16.538 209.624 15.394C209.287 15.8633 208.825 16.296 208.238 16.692C207.666 17.0733 206.933 17.264 206.038 17.264ZM206.478 15.504C207.036 15.504 207.564 15.372 208.062 15.108C208.561 14.8293 208.979 14.4847 209.316 14.074V7.936C208.92 7.65733 208.48 7.43733 207.996 7.276C207.527 7.1 207.028 7.012 206.5 7.012C205.796 7.012 205.173 7.19533 204.63 7.562C204.102 7.914 203.684 8.41267 203.376 9.058C203.068 9.68867 202.914 10.4293 202.914 11.28C202.914 12.1013 203.068 12.8347 203.376 13.48C203.684 14.1107 204.11 14.6093 204.652 14.976C205.195 15.328 205.804 15.504 206.478 15.504ZM218.979 17.264C218.319 17.264 217.695 17.1247 217.109 16.846C216.522 16.5673 216.045 16.12 215.679 15.504C215.312 14.8733 215.129 14.0373 215.129 12.996V5.56H217.109V12.732C217.109 13.6267 217.299 14.316 217.681 14.8C218.062 15.2693 218.619 15.504 219.353 15.504C219.954 15.504 220.533 15.3867 221.091 15.152C221.663 14.9027 222.169 14.5727 222.609 14.162V5.56H224.589V14.03C224.589 14.6607 224.721 15.0787 224.985 15.284C225.263 15.4747 225.564 15.57 225.887 15.57L225.469 17.11C224.105 17.11 223.261 16.5673 222.939 15.482C222.425 16.01 221.831 16.4427 221.157 16.78C220.482 17.1027 219.756 17.264 218.979 17.264Z" fill="white"/>
</svg>
