<svg width="325" height="16" viewBox="0 0 325 16" fill="none" xmlns="http://www.w3.org/2000/svg">
<path d="M0.8 15V1.04C1.34667 0.973333 1.94667 0.926666 2.6 0.899999C3.26667 0.86 3.95333 0.84 4.66 0.84C5.82 0.84 6.80667 1.02667 7.62 1.4C8.43333 1.76 9.05333 2.26 9.48 2.9C9.90667 3.54 10.12 4.27333 10.12 5.1C10.12 6.1 9.87333 6.94667 9.38 7.64C8.88667 8.33333 8.2 8.86667 7.32 9.24C6.44 9.6 5.42 9.78 4.26 9.78C3.7 9.78 3.18 9.76 2.7 9.72V15H0.8ZM4.5 8.2C5.68667 8.2 6.60667 7.93333 7.26 7.4C7.91333 6.86667 8.24 6.15333 8.24 5.26C8.24 4.39333 7.92667 3.70667 7.3 3.2C6.67333 2.69333 5.78 2.44 4.62 2.44C4.26 2.44 3.92 2.44667 3.6 2.46C3.28 2.47333 2.98 2.49333 2.7 2.52V8.1C2.91333 8.12667 3.17333 8.15333 3.48 8.18C3.78667 8.19333 4.12667 8.2 4.5 8.2ZM20.5811 15.24L18.8411 11.44C18.4011 10.4933 17.8478 9.82 17.1811 9.42C16.5144 9.02 15.6611 8.82 14.6211 8.82H14.3211V15H12.4211V1.04C13.1278 0.973333 13.8011 0.926666 14.4411 0.899999C15.0944 0.86 15.7878 0.84 16.5211 0.84C18.2278 0.84 19.5078 1.18667 20.3611 1.88C21.2278 2.57333 21.6611 3.46667 21.6611 4.56C21.6611 5.53333 21.3678 6.32 20.7811 6.92C20.2078 7.50667 19.3744 7.94667 18.2811 8.24C18.6411 8.4 18.9611 8.59333 19.2411 8.82C19.5211 9.03333 19.7878 9.32667 20.0411 9.7C20.3078 10.06 20.5744 10.5333 20.8411 11.12L22.3611 14.4L20.5811 15.24ZM14.3211 7.22H16.5211C17.4811 7.22 18.2611 7.00667 18.8611 6.58C19.4611 6.15333 19.7611 5.54 19.7611 4.74C19.7611 4.07333 19.4811 3.52667 18.9211 3.1C18.3611 2.66 17.5611 2.44 16.5211 2.44C16.0678 2.44 15.6611 2.44667 15.3011 2.46C14.9411 2.47333 14.6144 2.49333 14.3211 2.52V7.22ZM30.5648 15.24C29.5248 15.24 28.5982 15.0533 27.7848 14.68C26.9715 14.2933 26.2782 13.7733 25.7048 13.12C25.1448 12.4533 24.7115 11.68 24.4048 10.8C24.1115 9.92 23.9648 8.98 23.9648 7.98C23.9648 6.60667 24.2248 5.38 24.7448 4.3C25.2782 3.20667 26.0382 2.34667 27.0248 1.72C28.0115 1.08 29.1915 0.76 30.5648 0.76C31.5915 0.76 32.5115 0.946666 33.3248 1.32C34.1515 1.69333 34.8515 2.21333 35.4248 2.88C35.9982 3.54667 36.4315 4.31333 36.7248 5.18C37.0315 6.04667 37.1848 6.98 37.1848 7.98C37.1848 8.98 37.0315 9.92 36.7248 10.8C36.4315 11.68 35.9982 12.4533 35.4248 13.12C34.8515 13.7733 34.1582 14.2933 33.3448 14.68C32.5315 15.0533 31.6048 15.24 30.5648 15.24ZM30.5648 13.6C31.5915 13.6 32.4515 13.3533 33.1448 12.86C33.8382 12.3667 34.3582 11.7 34.7048 10.86C35.0648 10.0067 35.2448 9.04667 35.2448 7.98C35.2448 7.26 35.1382 6.56667 34.9248 5.9C34.7115 5.23333 34.4048 4.64 34.0048 4.12C33.6048 3.58667 33.1115 3.16667 32.5248 2.86C31.9515 2.55333 31.2982 2.4 30.5648 2.4C29.5915 2.4 28.7515 2.64667 28.0448 3.14C27.3515 3.63333 26.8182 4.3 26.4448 5.14C26.0848 5.98 25.9048 6.92667 25.9048 7.98C25.9048 8.7 26.0048 9.4 26.2048 10.08C26.4182 10.7467 26.7248 11.3467 27.1248 11.88C27.5248 12.4133 28.0115 12.8333 28.5848 13.14C29.1715 13.4467 29.8315 13.6 30.5648 13.6ZM44.7597 15.24C43.6797 15.24 42.7197 14.96 41.8797 14.4C41.0397 13.84 40.3797 13.0467 39.8997 12.02C39.4197 10.98 39.1797 9.76 39.1797 8.36C39.1797 6.86667 39.433 5.55333 39.9397 4.42C40.4464 3.27333 41.173 2.38 42.1197 1.74C43.0797 1.08667 44.233 0.76 45.5797 0.76C46.4464 0.76 47.2197 0.866666 47.8997 1.08C48.5797 1.29333 49.2197 1.56667 49.8197 1.9L49.1197 3.48C48.5597 3.17333 47.9864 2.92 47.3997 2.72C46.8264 2.52 46.1864 2.42 45.4797 2.42C44.6397 2.42 43.893 2.64667 43.2397 3.1C42.5864 3.54 42.0664 4.19333 41.6797 5.06C41.3064 5.92667 41.1197 6.98667 41.1197 8.24C41.1197 9.36 41.293 10.32 41.6397 11.12C41.9864 11.9067 42.4664 12.5133 43.0797 12.94C43.693 13.3667 44.3997 13.58 45.1997 13.58C45.9464 13.58 46.6064 13.4267 47.1797 13.12C47.7664 12.8 48.2264 12.4733 48.5597 12.14V9.08H45.6597V7.58H50.3597V15H48.6797V13.6C48.213 14.0133 47.6464 14.3933 46.9797 14.74C46.313 15.0733 45.573 15.24 44.7597 15.24ZM61.6163 15.24L59.8763 11.44C59.4363 10.4933 58.8829 9.82 58.2163 9.42C57.5496 9.02 56.6963 8.82 55.6563 8.82H55.3563V15H53.4563V1.04C54.1629 0.973333 54.8363 0.926666 55.4763 0.899999C56.1296 0.86 56.8229 0.84 57.5563 0.84C59.2629 0.84 60.5429 1.18667 61.3963 1.88C62.2629 2.57333 62.6963 3.46667 62.6963 4.56C62.6963 5.53333 62.4029 6.32 61.8163 6.92C61.2429 7.50667 60.4096 7.94667 59.3163 8.24C59.6763 8.4 59.9963 8.59333 60.2763 8.82C60.5563 9.03333 60.8229 9.32667 61.0763 9.7C61.3429 10.06 61.6096 10.5333 61.8763 11.12L63.3963 14.4L61.6163 15.24ZM55.3563 7.22H57.5563C58.5163 7.22 59.2963 7.00667 59.8963 6.58C60.4963 6.15333 60.7963 5.54 60.7963 4.74C60.7963 4.07333 60.5163 3.52667 59.9563 3.1C59.3963 2.66 58.5963 2.44 57.5563 2.44C57.1029 2.44 56.6963 2.44667 56.3363 2.46C55.9763 2.47333 55.6496 2.49333 55.3563 2.52V7.22ZM75.42 15.2L73.86 11.2H67.38L65.82 15.16L64.2 14.5L69.68 0.999999H71.76L77.16 14.5L75.42 15.2ZM67.98 9.6H73.24L70.62 2.88L67.98 9.6ZM79.1594 15V0.999999H81.8194L85.6994 9.86L89.5194 0.999999H92.2394V15H90.3394V3.42L86.5994 11.84H84.7194L80.9594 3.42V15H79.1594ZM95.8391 15V0.999999H98.4991L102.379 9.86L106.199 0.999999H108.919V15H107.019V3.42L103.279 11.84H101.399L97.6391 3.42V15H95.8391ZM112.519 15V0.999999H120.919V2.64H114.419V6.9H120.019V8.5H114.419V13.36H120.919V15H112.519ZM127.092 15.24C126.119 15.24 125.233 15.1133 124.433 14.86C123.633 14.5933 122.959 14.2467 122.413 13.82L123.373 12.22C123.853 12.62 124.393 12.9467 124.993 13.2C125.593 13.4533 126.293 13.58 127.092 13.58C128.053 13.58 128.813 13.38 129.373 12.98C129.933 12.58 130.213 12.04 130.213 11.36C130.213 10.9733 130.133 10.6333 129.973 10.34C129.813 10.0333 129.499 9.74 129.033 9.46C128.579 9.16667 127.906 8.85333 127.013 8.52C126.053 8.14667 125.286 7.77333 124.713 7.4C124.139 7.01333 123.726 6.58 123.473 6.1C123.233 5.60667 123.113 5.02667 123.113 4.36C123.113 3.69333 123.293 3.09333 123.653 2.56C124.026 2.01333 124.566 1.58 125.273 1.26C125.993 0.926666 126.859 0.76 127.873 0.76C128.699 0.76 129.439 0.846666 130.093 1.02C130.759 1.18 131.406 1.41333 132.033 1.72L131.333 3.34C130.879 3.07333 130.346 2.85333 129.733 2.68C129.133 2.49333 128.499 2.4 127.833 2.4C126.953 2.4 126.259 2.57333 125.753 2.92C125.246 3.26667 124.993 3.71333 124.993 4.26C124.993 4.60667 125.066 4.91333 125.213 5.18C125.359 5.44667 125.646 5.70667 126.073 5.96C126.513 6.21333 127.166 6.5 128.033 6.82C129.073 7.20667 129.893 7.61333 130.493 8.04C131.106 8.46667 131.539 8.93333 131.793 9.44C132.046 9.93333 132.173 10.5 132.173 11.14C132.173 12.0067 131.953 12.7467 131.513 13.36C131.086 13.9733 130.486 14.44 129.713 14.76C128.953 15.08 128.079 15.24 127.092 15.24ZM146.776 15.24C145.736 15.24 144.809 15.0533 143.996 14.68C143.182 14.2933 142.489 13.7733 141.916 13.12C141.356 12.4533 140.922 11.68 140.616 10.8C140.322 9.92 140.176 8.98 140.176 7.98C140.176 6.60667 140.436 5.38 140.956 4.3C141.489 3.20667 142.249 2.34667 143.236 1.72C144.222 1.08 145.402 0.76 146.776 0.76C147.802 0.76 148.722 0.946666 149.536 1.32C150.362 1.69333 151.062 2.21333 151.636 2.88C152.209 3.54667 152.642 4.31333 152.936 5.18C153.242 6.04667 153.396 6.98 153.396 7.98C153.396 8.98 153.242 9.92 152.936 10.8C152.642 11.68 152.209 12.4533 151.636 13.12C151.062 13.7733 150.369 14.2933 149.556 14.68C148.742 15.0533 147.816 15.24 146.776 15.24ZM146.776 13.6C147.802 13.6 148.662 13.3533 149.356 12.86C150.049 12.3667 150.569 11.7 150.916 10.86C151.276 10.0067 151.456 9.04667 151.456 7.98C151.456 7.26 151.349 6.56667 151.136 5.9C150.922 5.23333 150.616 4.64 150.216 4.12C149.816 3.58667 149.322 3.16667 148.736 2.86C148.162 2.55333 147.509 2.4 146.776 2.4C145.802 2.4 144.962 2.64667 144.256 3.14C143.562 3.63333 143.029 4.3 142.656 5.14C142.296 5.98 142.116 6.92667 142.116 7.98C142.116 8.7 142.216 9.4 142.416 10.08C142.629 10.7467 142.936 11.3467 143.336 11.88C143.736 12.4133 144.222 12.8333 144.796 13.14C145.382 13.4467 146.042 13.6 146.776 13.6ZM164.351 15.24L162.611 11.44C162.171 10.4933 161.617 9.82 160.951 9.42C160.284 9.02 159.431 8.82 158.391 8.82H158.091V15H156.191V1.04C156.897 0.973333 157.571 0.926666 158.211 0.899999C158.864 0.86 159.557 0.84 160.291 0.84C161.997 0.84 163.277 1.18667 164.131 1.88C164.997 2.57333 165.431 3.46667 165.431 4.56C165.431 5.53333 165.137 6.32 164.551 6.92C163.977 7.50667 163.144 7.94667 162.051 8.24C162.411 8.4 162.731 8.59333 163.011 8.82C163.291 9.03333 163.557 9.32667 163.811 9.7C164.077 10.06 164.344 10.5333 164.611 11.12L166.131 14.4L164.351 15.24ZM158.091 7.22H160.291C161.251 7.22 162.031 7.00667 162.631 6.58C163.231 6.15333 163.531 5.54 163.531 4.74C163.531 4.07333 163.251 3.52667 162.691 3.1C162.131 2.66 161.331 2.44 160.291 2.44C159.837 2.44 159.431 2.44667 159.071 2.46C158.711 2.47333 158.384 2.49333 158.091 2.52V7.22ZM168.534 15V0.999999H170.434V15H168.534ZM178.822 15.24C177.742 15.24 176.782 14.96 175.942 14.4C175.102 13.84 174.442 13.0467 173.962 12.02C173.482 10.98 173.242 9.76 173.242 8.36C173.242 6.86667 173.496 5.55333 174.002 4.42C174.509 3.27333 175.236 2.38 176.182 1.74C177.142 1.08667 178.296 0.76 179.642 0.76C180.509 0.76 181.282 0.866666 181.962 1.08C182.642 1.29333 183.282 1.56667 183.882 1.9L183.182 3.48C182.622 3.17333 182.049 2.92 181.462 2.72C180.889 2.52 180.249 2.42 179.542 2.42C178.702 2.42 177.956 2.64667 177.302 3.1C176.649 3.54 176.129 4.19333 175.742 5.06C175.369 5.92667 175.182 6.98667 175.182 8.24C175.182 9.36 175.356 10.32 175.702 11.12C176.049 11.9067 176.529 12.5133 177.142 12.94C177.756 13.3667 178.462 13.58 179.262 13.58C180.009 13.58 180.669 13.4267 181.242 13.12C181.829 12.8 182.289 12.4733 182.622 12.14V9.08H179.722V7.58H184.422V15H182.742V13.6C182.276 14.0133 181.709 14.3933 181.042 14.74C180.376 15.0733 179.636 15.24 178.822 15.24ZM187.519 15V0.999999H189.419V15H187.519ZM193.027 15V0.999999H195.547L201.727 12.64V0.999999H203.527V15H201.047L194.827 3.44V15H193.027ZM216.748 15.2L215.188 11.2H208.708L207.148 15.16L205.528 14.5L211.008 0.999999H213.088L218.488 14.5L216.748 15.2ZM209.308 9.6H214.568L211.948 2.88L209.308 9.6ZM225.368 15.24C223.754 15.24 222.488 14.76 221.568 13.8C220.648 12.84 220.188 11.4667 220.188 9.68V0.999999H222.088V9.38C222.088 10.7133 222.361 11.7467 222.908 12.48C223.454 13.2133 224.274 13.58 225.368 13.58C226.501 13.58 227.348 13.2267 227.908 12.52C228.468 11.8 228.748 10.7533 228.748 9.38V0.999999H230.588V9.6C230.588 10.7733 230.368 11.7867 229.928 12.64C229.501 13.48 228.894 14.1267 228.108 14.58C227.334 15.02 226.421 15.24 225.368 15.24ZM242.486 15.2L238.066 9.2L233.786 15.16L232.286 14.02L236.986 7.88L232.486 2L234.066 0.819999L238.126 6.5L242.146 0.879999L243.626 2L239.266 7.78L244.026 14.02L242.486 15.2ZM252.03 15V0.999999H254.55L260.73 12.64V0.999999H262.53V15H260.05L253.83 3.44V15H252.03ZM266.132 15V0.999999H274.532V2.64H268.032V6.9H273.632V8.5H268.032V13.36H274.532V15H266.132ZM279.926 15V2.68H275.626V0.999999H286.126V2.68H281.826V15H279.926ZM288.124 15V0.999999H296.424V2.64H290.024V6.92H295.364V8.48H290.024V15H288.124ZM298.827 15V0.999999H300.727V13.3H307.147V15H298.827ZM309.042 15V0.999999H310.942V15H309.042ZM323.15 15.2L318.73 9.2L314.45 15.16L312.95 14.02L317.65 7.88L313.15 2L314.73 0.819999L318.79 6.5L322.81 0.879999L324.29 2L319.93 7.78L324.69 14.02L323.15 15.2Z" fill="white"/>
</svg>
