<svg width="58" height="16" viewBox="0 0 58 16" fill="none" xmlns="http://www.w3.org/2000/svg">
<path d="M8.96 15.24L7.22 11.44C6.78 10.4933 6.22667 9.82 5.56 9.42C4.89333 9.02 4.04 8.82 3 8.82H2.7V15H0.8V1.04C1.50667 0.973333 2.18 0.926666 2.82 0.899999C3.47333 0.86 4.16667 0.84 4.9 0.84C6.60667 0.84 7.88667 1.18667 8.74 1.88C9.60667 2.57333 10.04 3.46667 10.04 4.56C10.04 5.53333 9.74667 6.32 9.16 6.92C8.58667 7.50667 7.75333 7.94667 6.66 8.24C7.02 8.4 7.34 8.59333 7.62 8.82C7.9 9.03333 8.16667 9.32667 8.42 9.7C8.68667 10.06 8.95333 10.5333 9.22 11.12L10.74 14.4L8.96 15.24ZM2.7 7.22H4.9C5.86 7.22 6.64 7.00667 7.24 6.58C7.84 6.15333 8.14 5.54 8.14 4.74C8.14 4.07333 7.86 3.52667 7.3 3.1C6.74 2.66 5.94 2.44 4.9 2.44C4.44667 2.44 4.04 2.44667 3.68 2.46C3.32 2.47333 2.99333 2.49333 2.7 2.52V7.22ZM17.1038 15.24C15.6104 15.24 14.4238 14.7667 13.5438 13.82C12.6771 12.86 12.2438 11.52 12.2438 9.8C12.2438 8.76 12.4371 7.83333 12.8238 7.02C13.2238 6.19333 13.7771 5.54667 14.4838 5.08C15.1904 4.6 16.0104 4.36 16.9438 4.36C17.9438 4.36 18.7704 4.58 19.4238 5.02C20.0904 5.44667 20.5904 6.02667 20.9238 6.76C21.2571 7.49333 21.4238 8.3 21.4238 9.18C21.4238 9.64667 21.4038 10.1 21.3638 10.54H14.0838C14.2038 11.5133 14.5438 12.2733 15.1038 12.82C15.6638 13.3667 16.4038 13.64 17.3238 13.64C17.9238 13.64 18.4638 13.58 18.9438 13.46C19.4238 13.3267 19.8838 13.16 20.3238 12.96L20.7438 14.5C20.2638 14.7133 19.7238 14.8867 19.1238 15.02C18.5238 15.1667 17.8504 15.24 17.1038 15.24ZM14.0638 9.08H19.7638C19.7638 8.06667 19.5104 7.28667 19.0038 6.74C18.4971 6.19333 17.7971 5.92 16.9038 5.92C16.1304 5.92 15.4904 6.19333 14.9838 6.74C14.4771 7.27333 14.1704 8.05333 14.0638 9.08ZM26.6027 15L22.4227 5.08L24.0627 4.4L27.6027 12.96L31.1427 4.4L32.6827 5.08L28.4827 15H26.6027ZM38.4761 15.24C37.4894 15.24 36.6028 15.0133 35.8161 14.56C35.0294 14.0933 34.4094 13.4533 33.9561 12.64C33.5161 11.8133 33.2961 10.8667 33.2961 9.8C33.2961 8.68 33.5228 7.71333 33.9761 6.9C34.4294 6.08667 35.0494 5.46 35.8361 5.02C36.6228 4.58 37.5028 4.36 38.4761 4.36C39.4494 4.36 40.3228 4.58 41.0961 5.02C41.8828 5.46 42.5028 6.08667 42.9561 6.9C43.4228 7.7 43.6561 8.65333 43.6561 9.76C43.6561 10.8667 43.4294 11.8333 42.9761 12.66C42.5228 13.4733 41.9028 14.1067 41.1161 14.56C40.3428 15.0133 39.4628 15.24 38.4761 15.24ZM38.4761 13.64C39.5294 13.64 40.3494 13.2867 40.9361 12.58C41.5228 11.86 41.8161 10.9333 41.8161 9.8C41.8161 9.10667 41.6694 8.47333 41.3761 7.9C41.0828 7.31333 40.6828 6.84667 40.1761 6.5C39.6828 6.14 39.1161 5.96 38.4761 5.96C37.4228 5.96 36.6028 6.30667 36.0161 7C35.4294 7.69333 35.1361 8.61333 35.1361 9.76C35.1361 10.4533 35.2828 11.1 35.5761 11.7C35.8694 12.2867 36.2628 12.76 36.7561 13.12C37.2628 13.4667 37.8361 13.64 38.4761 13.64ZM46.0492 15V4.6H47.8492V15H46.0492ZM46.9492 2.82C46.6026 2.82 46.3026 2.69333 46.0492 2.44C45.8092 2.18667 45.6892 1.89333 45.6892 1.56C45.6892 1.17333 45.8026 0.866666 46.0292 0.639999C46.2559 0.413333 46.5626 0.3 46.9492 0.3C47.2959 0.3 47.5892 0.426666 47.8292 0.68C48.0826 0.92 48.2092 1.21333 48.2092 1.56C48.2092 1.93333 48.0959 2.24 47.8692 2.48C47.6426 2.70667 47.3359 2.82 46.9492 2.82ZM51.0492 15V4.6H52.7892V6.86C52.9626 6.42 53.1959 6.01333 53.4892 5.64C53.7826 5.25333 54.1492 4.94667 54.5892 4.72C55.0292 4.48 55.5426 4.36 56.1292 4.36C56.3292 4.36 56.5292 4.37333 56.7292 4.4C56.9292 4.41333 57.0959 4.44 57.2292 4.48L56.6892 6.34C56.4359 6.23333 56.1359 6.18 55.7892 6.18C55.2959 6.18 54.8226 6.32 54.3692 6.6C53.9292 6.88 53.5626 7.31333 53.2692 7.9C52.9892 8.48667 52.8492 9.23333 52.8492 10.14V15H51.0492Z" fill="white"/>
</svg>
