<svg width="86" height="16" viewBox="0 0 86 16" fill="none" xmlns="http://www.w3.org/2000/svg">
<path d="M8.96 15.24L7.22 11.44C6.78 10.4933 6.22667 9.82 5.56 9.42C4.89333 9.02 4.04 8.82 3 8.82H2.7V15H0.8V1.04C1.50667 0.973333 2.18 0.926666 2.82 0.899999C3.47333 0.86 4.16667 0.84 4.9 0.84C6.60667 0.84 7.88667 1.18667 8.74 1.88C9.60667 2.57333 10.04 3.46667 10.04 4.56C10.04 5.53333 9.74667 6.32 9.16 6.92C8.58667 7.50667 7.75333 7.94667 6.66 8.24C7.02 8.4 7.34 8.59333 7.62 8.82C7.9 9.03333 8.16667 9.32667 8.42 9.7C8.68667 10.06 8.95333 10.5333 9.22 11.12L10.74 14.4L8.96 15.24ZM2.7 7.22H4.9C5.86 7.22 6.64 7.00667 7.24 6.58C7.84 6.15333 8.14 5.54 8.14 4.74C8.14 4.07333 7.86 3.52667 7.3 3.1C6.74 2.66 5.94 2.44 4.9 2.44C4.44667 2.44 4.04 2.44667 3.68 2.46C3.32 2.47333 2.99333 2.49333 2.7 2.52V7.22ZM17.3238 15.24C16.3371 15.24 15.4504 15.0133 14.6638 14.56C13.8771 14.0933 13.2571 13.4533 12.8038 12.64C12.3638 11.8133 12.1438 10.8667 12.1438 9.8C12.1438 8.68 12.3704 7.71333 12.8238 6.9C13.2771 6.08667 13.8971 5.46 14.6838 5.02C15.4704 4.58 16.3504 4.36 17.3238 4.36C18.2971 4.36 19.1704 4.58 19.9438 5.02C20.7304 5.46 21.3504 6.08667 21.8038 6.9C22.2704 7.7 22.5038 8.65333 22.5038 9.76C22.5038 10.8667 22.2771 11.8333 21.8238 12.66C21.3704 13.4733 20.7504 14.1067 19.9638 14.56C19.1904 15.0133 18.3104 15.24 17.3238 15.24ZM17.3238 13.64C18.3771 13.64 19.1971 13.2867 19.7838 12.58C20.3704 11.86 20.6638 10.9333 20.6638 9.8C20.6638 9.10667 20.5171 8.47333 20.2238 7.9C19.9304 7.31333 19.5304 6.84667 19.0238 6.5C18.5304 6.14 17.9638 5.96 17.3238 5.96C16.2704 5.96 15.4504 6.30667 14.8638 7C14.2771 7.69333 13.9837 8.61333 13.9837 9.76C13.9837 10.4533 14.1304 11.1 14.4238 11.7C14.7171 12.2867 15.1104 12.76 15.6038 13.12C16.1104 13.4667 16.6838 13.64 17.3238 13.64ZM24.8969 15V4.6H26.6369V6.34C27.0102 5.78 27.4835 5.31333 28.0569 4.94C28.6302 4.55333 29.2835 4.36 30.0169 4.36C30.8435 4.36 31.5169 4.56 32.0369 4.96C32.5702 5.36 32.9435 5.89333 33.1569 6.56C33.5702 5.94667 34.0569 5.42667 34.6169 5C35.1902 4.57333 35.8969 4.36 36.7369 4.36C37.8702 4.36 38.7102 4.72 39.2569 5.44C39.8169 6.14667 40.0969 7.07333 40.0969 8.22V15H38.2969V8.36C38.2969 7.64 38.1302 7.06 37.7969 6.62C37.4635 6.16667 37.0035 5.94 36.4169 5.94C35.8169 5.94 35.2569 6.16667 34.7369 6.62C34.2302 7.06 33.7835 7.58 33.3969 8.18V15H31.5969V8.36C31.5969 7.64 31.4302 7.06 31.0969 6.62C30.7635 6.16667 30.3035 5.94 29.7169 5.94C29.1302 5.94 28.5769 6.16 28.0569 6.6C27.5369 7.02667 27.0835 7.53333 26.6969 8.12V15H24.8969ZM47.1777 15.24C46.311 15.24 45.5243 15.02 44.8177 14.58C44.111 14.14 43.5443 13.52 43.1177 12.72C42.7043 11.9067 42.4977 10.9533 42.4977 9.86C42.4977 8.82 42.7043 7.88667 43.1177 7.06C43.5443 6.23333 44.1243 5.58 44.8577 5.1C45.6043 4.60667 46.4577 4.36 47.4177 4.36C48.0177 4.36 48.5577 4.46667 49.0377 4.68C49.531 4.88 49.9577 5.13333 50.3177 5.44V4.6H51.9577V12.48C51.9577 12.9867 52.0777 13.32 52.3177 13.48C52.571 13.6267 52.8443 13.7 53.1377 13.7L52.7577 15.1C51.4777 15.1 50.7043 14.58 50.4377 13.54C50.131 13.9667 49.711 14.36 49.1777 14.72C48.6577 15.0667 47.991 15.24 47.1777 15.24ZM47.5777 13.64C48.0843 13.64 48.5643 13.52 49.0177 13.28C49.471 13.0267 49.851 12.7133 50.1577 12.34V6.76C49.7977 6.50667 49.3977 6.30667 48.9577 6.16C48.531 6 48.0777 5.92 47.5977 5.92C46.9577 5.92 46.391 6.08667 45.8977 6.42C45.4177 6.74 45.0377 7.19333 44.7577 7.78C44.4777 8.35333 44.3377 9.02667 44.3377 9.8C44.3377 10.5467 44.4777 11.2133 44.7577 11.8C45.0377 12.3733 45.4243 12.8267 45.9177 13.16C46.411 13.48 46.9643 13.64 47.5777 13.64ZM55.5414 15V4.6H57.2814V6.34C57.6547 5.78 58.1281 5.31333 58.7014 4.94C59.2881 4.55333 59.9814 4.36 60.7814 4.36C61.9547 4.36 62.8281 4.71333 63.4014 5.42C63.9881 6.12667 64.2814 7.06 64.2814 8.22V15H62.4814V8.42C62.4814 7.67333 62.3014 7.07333 61.9414 6.62C61.5947 6.16667 61.1081 5.94 60.4814 5.94C59.8681 5.94 59.2881 6.16 58.7414 6.6C58.1947 7.02667 57.7281 7.53333 57.3414 8.12V15H55.5414ZM71.5773 15.24C70.5907 15.24 69.724 15.0133 68.9773 14.56C68.244 14.0933 67.6773 13.4533 67.2773 12.64C66.8773 11.8133 66.6773 10.8667 66.6773 9.8C66.6773 8.8 66.8773 7.88667 67.2773 7.06C67.6907 6.23333 68.2773 5.58 69.0373 5.1C69.7973 4.60667 70.6907 4.36 71.7173 4.36C72.304 4.36 72.8173 4.41333 73.2573 4.52C73.7107 4.62667 74.144 4.78 74.5573 4.98L74.0173 6.5C73.644 6.31333 73.284 6.18 72.9373 6.1C72.604 6.00667 72.2307 5.96 71.8173 5.96C70.884 5.96 70.0973 6.3 69.4573 6.98C68.8307 7.64667 68.5173 8.57333 68.5173 9.76C68.5173 10.48 68.6507 11.1333 68.9173 11.72C69.184 12.3067 69.5507 12.7733 70.0173 13.12C70.4973 13.4667 71.0573 13.64 71.6973 13.64C72.204 13.64 72.6373 13.5867 72.9973 13.48C73.3573 13.36 73.744 13.1933 74.1573 12.98L74.7173 14.5C74.304 14.7267 73.8373 14.9067 73.3173 15.04C72.8107 15.1733 72.2307 15.24 71.5773 15.24ZM80.7756 15.24C79.2823 15.24 78.0956 14.7667 77.2156 13.82C76.349 12.86 75.9156 11.52 75.9156 9.8C75.9156 8.76 76.109 7.83333 76.4956 7.02C76.8956 6.19333 77.449 5.54667 78.1556 5.08C78.8623 4.6 79.6823 4.36 80.6156 4.36C81.6156 4.36 82.4423 4.58 83.0956 5.02C83.7623 5.44667 84.2623 6.02667 84.5956 6.76C84.929 7.49333 85.0956 8.3 85.0956 9.18C85.0956 9.64667 85.0756 10.1 85.0356 10.54H77.7556C77.8756 11.5133 78.2156 12.2733 78.7756 12.82C79.3356 13.3667 80.0756 13.64 80.9956 13.64C81.5956 13.64 82.1356 13.58 82.6156 13.46C83.0956 13.3267 83.5556 13.16 83.9956 12.96L84.4156 14.5C83.9356 14.7133 83.3956 14.8867 82.7956 15.02C82.1956 15.1667 81.5223 15.24 80.7756 15.24ZM77.7356 9.08H83.4356C83.4356 8.06667 83.1823 7.28667 82.6756 6.74C82.169 6.19333 81.469 5.92 80.5756 5.92C79.8023 5.92 79.1623 6.19333 78.6556 6.74C78.149 7.27333 77.8423 8.05333 77.7356 9.08Z" fill="white"/>
</svg>
