<svg width="52" height="16" viewBox="0 0 52 16" fill="none" xmlns="http://www.w3.org/2000/svg">
<path d="M5.28 15.24C4.30667 15.24 3.42 15.1133 2.62 14.86C1.82 14.5933 1.14667 14.2467 0.6 13.82L1.56 12.22C2.04 12.62 2.58 12.9467 3.18 13.2C3.78 13.4533 4.48 13.58 5.28 13.58C6.24 13.58 7 13.38 7.56 12.98C8.12 12.58 8.4 12.04 8.4 11.36C8.4 10.9733 8.32 10.6333 8.16 10.34C8 10.0333 7.68667 9.74 7.22 9.46C6.76667 9.16667 6.09333 8.85333 5.2 8.52C4.24 8.14667 3.47333 7.77333 2.9 7.4C2.32667 7.01333 1.91333 6.58 1.66 6.1C1.42 5.60667 1.3 5.02667 1.3 4.36C1.3 3.69333 1.48 3.09333 1.84 2.56C2.21333 2.01333 2.75333 1.58 3.46 1.26C4.18 0.926666 5.04667 0.76 6.06 0.76C6.88667 0.76 7.62667 0.846666 8.28 1.02C8.94667 1.18 9.59333 1.41333 10.22 1.72L9.52 3.34C9.06667 3.07333 8.53333 2.85333 7.92 2.68C7.32 2.49333 6.68667 2.4 6.02 2.4C5.14 2.4 4.44667 2.57333 3.94 2.92C3.43333 3.26667 3.18 3.71333 3.18 4.26C3.18 4.60667 3.25333 4.91333 3.4 5.18C3.54667 5.44667 3.83333 5.70667 4.26 5.96C4.7 6.21333 5.35333 6.5 6.22 6.82C7.26 7.20667 8.08 7.61333 8.68 8.04C9.29333 8.46667 9.72667 8.93333 9.98 9.44C10.2333 9.93333 10.36 10.5 10.36 11.14C10.36 12.0067 10.14 12.7467 9.7 13.36C9.27333 13.9733 8.67333 14.44 7.9 14.76C7.14 15.08 6.26667 15.24 5.28 15.24ZM17.1672 15.24C16.1805 15.24 15.3139 15.0133 14.5672 14.56C13.8339 14.0933 13.2672 13.4533 12.8672 12.64C12.4672 11.8133 12.2672 10.8667 12.2672 9.8C12.2672 8.8 12.4672 7.88667 12.8672 7.06C13.2805 6.23333 13.8672 5.58 14.6272 5.1C15.3872 4.60667 16.2805 4.36 17.3072 4.36C17.8939 4.36 18.4072 4.41333 18.8472 4.52C19.3005 4.62667 19.7339 4.78 20.1472 4.98L19.6072 6.5C19.2339 6.31333 18.8739 6.18 18.5272 6.1C18.1939 6.00667 17.8205 5.96 17.4072 5.96C16.4739 5.96 15.6872 6.3 15.0472 6.98C14.4205 7.64667 14.1072 8.57333 14.1072 9.76C14.1072 10.48 14.2405 11.1333 14.5072 11.72C14.7739 12.3067 15.1405 12.7733 15.6072 13.12C16.0872 13.4667 16.6472 13.64 17.2872 13.64C17.7939 13.64 18.2272 13.5867 18.5872 13.48C18.9472 13.36 19.3339 13.1933 19.7472 12.98L20.3072 14.5C19.8939 14.7267 19.4272 14.9067 18.9072 15.04C18.4005 15.1733 17.8205 15.24 17.1672 15.24ZM22.4008 15V4.6H24.2008V15H22.4008ZM23.3008 2.82C22.9541 2.82 22.6541 2.69333 22.4008 2.44C22.1608 2.18667 22.0408 1.89333 22.0408 1.56C22.0408 1.17333 22.1541 0.866666 22.3808 0.639999C22.6074 0.413333 22.9141 0.3 23.3008 0.3C23.6474 0.3 23.9408 0.426666 24.1808 0.68C24.4341 0.92 24.5608 1.21333 24.5608 1.56C24.5608 1.93333 24.4474 2.24 24.2208 2.48C23.9941 2.70667 23.6874 2.82 23.3008 2.82ZM28.4008 8.96V7.32H35.2008V8.96H28.4008ZM39.593 15V0.999999H47.893V2.64H41.493V6.92H46.833V8.48H41.493V15H39.593ZM49.5883 15V4.6H51.3883V15H49.5883ZM50.4883 2.82C50.1416 2.82 49.8416 2.69333 49.5883 2.44C49.3483 2.18667 49.2283 1.89333 49.2283 1.56C49.2283 1.17333 49.3416 0.866666 49.5683 0.639999C49.7949 0.413333 50.1016 0.3 50.4883 0.3C50.8349 0.3 51.1283 0.426666 51.3683 0.68C51.6216 0.92 51.7483 1.21333 51.7483 1.56C51.7483 1.93333 51.6349 2.24 51.4083 2.48C51.1816 2.70667 50.8749 2.82 50.4883 2.82Z" fill="white"/>
</svg>
