<svg width="68" height="16" viewBox="0 0 68 16" fill="none" xmlns="http://www.w3.org/2000/svg">
<path d="M4.5 15V2.68H0.2V0.999999H10.7V2.68H6.4V15H4.5ZM12.4984 15V0.2H14.2984V6.26C14.6718 5.71333 15.1451 5.26 15.7184 4.9C16.2918 4.54 16.9651 4.36 17.7384 4.36C18.9118 4.36 19.7851 4.71333 20.3584 5.42C20.9451 6.12667 21.2384 7.06 21.2384 8.22V15H19.4384V8.42C19.4384 7.67333 19.2651 7.07333 18.9184 6.62C18.5718 6.16667 18.0851 5.94 17.4584 5.94C16.8451 5.94 16.2584 6.16 15.6984 6.6C15.1518 7.02667 14.6851 7.53333 14.2984 8.12V15H12.4984ZM24.3344 15V4.6H26.0744V6.86C26.2477 6.42 26.481 6.01333 26.7744 5.64C27.0677 5.25333 27.4344 4.94667 27.8744 4.72C28.3144 4.48 28.8277 4.36 29.4144 4.36C29.6144 4.36 29.8144 4.37333 30.0144 4.4C30.2144 4.41333 30.381 4.44 30.5144 4.48L29.9744 6.34C29.721 6.23333 29.421 6.18 29.0744 6.18C28.581 6.18 28.1077 6.32 27.6544 6.6C27.2144 6.88 26.8477 7.31333 26.5544 7.9C26.2744 8.48667 26.1344 9.23333 26.1344 10.14V15H24.3344ZM32.3227 15V4.6H34.1227V15H32.3227ZM33.2227 2.82C32.876 2.82 32.576 2.69333 32.3227 2.44C32.0827 2.18667 31.9627 1.89333 31.9627 1.56C31.9627 1.17333 32.076 0.866666 32.3027 0.639999C32.5293 0.413333 32.836 0.3 33.2227 0.3C33.5693 0.3 33.8627 0.426666 34.1027 0.68C34.356 0.92 34.4827 1.21333 34.4827 1.56C34.4827 1.93333 34.3693 2.24 34.1427 2.48C33.916 2.70667 33.6093 2.82 33.2227 2.82ZM40.4827 15.24C39.8693 15.24 39.316 15.1267 38.8227 14.9C38.3293 14.66 37.936 14.28 37.6427 13.76C37.3627 13.24 37.2227 12.5667 37.2227 11.74V0.2H39.0227V11.56C39.0227 12.28 39.1693 12.8133 39.4627 13.16C39.7693 13.5067 40.1893 13.68 40.7227 13.68C40.976 13.68 41.2227 13.6533 41.4627 13.6C41.716 13.5333 41.9293 13.46 42.1027 13.38L42.5427 14.84C42.3027 14.9467 42.0027 15.04 41.6427 15.12C41.296 15.2 40.9093 15.24 40.4827 15.24ZM47.2014 15.24C46.5881 15.24 46.0347 15.1267 45.5414 14.9C45.0481 14.66 44.6547 14.28 44.3614 13.76C44.0814 13.24 43.9414 12.5667 43.9414 11.74V0.2H45.7414V11.56C45.7414 12.28 45.8881 12.8133 46.1814 13.16C46.4881 13.5067 46.9081 13.68 47.4414 13.68C47.6947 13.68 47.9414 13.6533 48.1814 13.6C48.4347 13.5333 48.6481 13.46 48.8214 13.38L49.2614 14.84C49.0214 14.9467 48.7214 15.04 48.3614 15.12C48.0147 15.2 47.6281 15.24 47.2014 15.24ZM54.8225 15.24C53.3292 15.24 52.1425 14.7667 51.2625 13.82C50.3958 12.86 49.9625 11.52 49.9625 9.8C49.9625 8.76 50.1558 7.83333 50.5425 7.02C50.9425 6.19333 51.4958 5.54667 52.2025 5.08C52.9092 4.6 53.7292 4.36 54.6625 4.36C55.6625 4.36 56.4892 4.58 57.1425 5.02C57.8092 5.44667 58.3092 6.02667 58.6425 6.76C58.9758 7.49333 59.1425 8.3 59.1425 9.18C59.1425 9.64667 59.1225 10.1 59.0825 10.54H51.8025C51.9225 11.5133 52.2625 12.2733 52.8225 12.82C53.3825 13.3667 54.1225 13.64 55.0425 13.64C55.6425 13.64 56.1825 13.58 56.6625 13.46C57.1425 13.3267 57.6025 13.16 58.0425 12.96L58.4625 14.5C57.9825 14.7133 57.4425 14.8867 56.8425 15.02C56.2425 15.1667 55.5692 15.24 54.8225 15.24ZM51.7825 9.08H57.4825C57.4825 8.06667 57.2292 7.28667 56.7225 6.74C56.2158 6.19333 55.5158 5.92 54.6225 5.92C53.8492 5.92 53.2092 6.19333 52.7025 6.74C52.1958 7.27333 51.8892 8.05333 51.7825 9.08ZM61.5414 15V4.6H63.2814V6.86C63.4547 6.42 63.6881 6.01333 63.9814 5.64C64.2747 5.25333 64.6414 4.94667 65.0814 4.72C65.5214 4.48 66.0347 4.36 66.6214 4.36C66.8214 4.36 67.0214 4.37333 67.2214 4.4C67.4214 4.41333 67.5881 4.44 67.7214 4.48L67.1814 6.34C66.9281 6.23333 66.6281 6.18 66.2814 6.18C65.7881 6.18 65.3147 6.32 64.8614 6.6C64.4214 6.88 64.0547 7.31333 63.7614 7.9C63.4814 8.48667 63.3414 9.23333 63.3414 10.14V15H61.5414Z" fill="white"/>
</svg>
