<svg width="87" height="20" viewBox="0 0 87 20" fill="none" xmlns="http://www.w3.org/2000/svg">
<path d="M0.8 19V5H9.2V6.64H2.7V10.9H8.3V12.5H2.7V17.36H9.2V19H0.8ZM3.6 4.32L2.98 3.1L6.76 0.6L7.6 2.28L3.6 4.32ZM11.4984 19V8.6H13.2384V10.34C13.6118 9.78 14.0851 9.31333 14.6584 8.94C15.2318 8.55333 15.8851 8.36 16.6184 8.36C17.4451 8.36 18.1184 8.56 18.6384 8.96C19.1718 9.36 19.5451 9.89333 19.7584 10.56C20.1718 9.94667 20.6584 9.42667 21.2184 9C21.7918 8.57333 22.4984 8.36 23.3384 8.36C24.4718 8.36 25.3118 8.72 25.8584 9.44C26.4184 10.1467 26.6984 11.0733 26.6984 12.22V19H24.8984V12.36C24.8984 11.64 24.7318 11.06 24.3984 10.62C24.0651 10.1667 23.6051 9.94 23.0184 9.94C22.4184 9.94 21.8584 10.1667 21.3384 10.62C20.8318 11.06 20.3851 11.58 19.9984 12.18V19H18.1984V12.36C18.1984 11.64 18.0318 11.06 17.6984 10.62C17.3651 10.1667 16.9051 9.94 16.3184 9.94C15.7318 9.94 15.1784 10.16 14.6584 10.6C14.1384 11.0267 13.6851 11.5333 13.2984 12.12V19H11.4984ZM29.7992 19V8.6H31.5992V19H29.7992ZM30.6992 6.82C30.3526 6.82 30.0526 6.69333 29.7992 6.44C29.5592 6.18667 29.4392 5.89333 29.4392 5.56C29.4392 5.17333 29.5526 4.86667 29.7792 4.64C30.0059 4.41333 30.3126 4.3 30.6992 4.3C31.0459 4.3 31.3392 4.42667 31.5792 4.68C31.8326 4.92 31.9592 5.21333 31.9592 5.56C31.9592 5.93333 31.8459 6.24 31.6192 6.48C31.3926 6.70667 31.0859 6.82 30.6992 6.82ZM37.5992 19.24C36.8126 19.24 36.0992 19.14 35.4592 18.94C34.8326 18.74 34.3126 18.48 33.8992 18.16L34.6592 16.66C35.0059 16.9533 35.4392 17.2 35.9592 17.4C36.4926 17.5867 37.0592 17.68 37.6592 17.68C38.4059 17.68 38.9659 17.56 39.3392 17.32C39.7259 17.0667 39.9192 16.7467 39.9192 16.36C39.9192 16.08 39.8459 15.8333 39.6992 15.62C39.5659 15.4067 39.3126 15.2 38.9392 15C38.5659 14.7867 38.0259 14.56 37.3192 14.32C36.3459 13.9867 35.6126 13.5933 35.1192 13.14C34.6392 12.6733 34.3992 12.0333 34.3992 11.22C34.3992 10.42 34.7459 9.74667 35.4392 9.2C36.1459 8.64 37.1192 8.36 38.3592 8.36C39.0259 8.36 39.6192 8.43333 40.1392 8.58C40.6592 8.71333 41.1259 8.88667 41.5392 9.1L41.0392 10.58C40.6792 10.3667 40.2659 10.1933 39.7992 10.06C39.3459 9.92667 38.8392 9.86 38.2792 9.86C37.5859 9.86 37.0592 10 36.6992 10.28C36.3392 10.56 36.1592 10.8667 36.1592 11.2C36.1592 11.52 36.2992 11.7933 36.5792 12.02C36.8592 12.2467 37.4059 12.4933 38.2192 12.76C39.5392 13.2 40.4592 13.6867 40.9792 14.22C41.4992 14.7533 41.7592 15.42 41.7592 16.22C41.7592 17.1533 41.3792 17.8933 40.6192 18.44C39.8726 18.9733 38.8659 19.24 37.5992 19.24ZM46.9547 19.24C46.168 19.24 45.4547 19.14 44.8147 18.94C44.188 18.74 43.668 18.48 43.2547 18.16L44.0147 16.66C44.3614 16.9533 44.7947 17.2 45.3147 17.4C45.848 17.5867 46.4147 17.68 47.0147 17.68C47.7614 17.68 48.3214 17.56 48.6947 17.32C49.0814 17.0667 49.2747 16.7467 49.2747 16.36C49.2747 16.08 49.2014 15.8333 49.0547 15.62C48.9214 15.4067 48.668 15.2 48.2947 15C47.9214 14.7867 47.3814 14.56 46.6747 14.32C45.7014 13.9867 44.968 13.5933 44.4747 13.14C43.9947 12.6733 43.7547 12.0333 43.7547 11.22C43.7547 10.42 44.1014 9.74667 44.7947 9.2C45.5014 8.64 46.4747 8.36 47.7147 8.36C48.3814 8.36 48.9747 8.43333 49.4947 8.58C50.0147 8.71333 50.4814 8.88667 50.8947 9.1L50.3947 10.58C50.0347 10.3667 49.6214 10.1933 49.1547 10.06C48.7014 9.92667 48.1947 9.86 47.6347 9.86C46.9414 9.86 46.4147 10 46.0547 10.28C45.6947 10.56 45.5147 10.8667 45.5147 11.2C45.5147 11.52 45.6547 11.7933 45.9347 12.02C46.2147 12.2467 46.7614 12.4933 47.5747 12.76C48.8947 13.2 49.8147 13.6867 50.3347 14.22C50.8547 14.7533 51.1147 15.42 51.1147 16.22C51.1147 17.1533 50.7347 17.8933 49.9747 18.44C49.228 18.9733 48.2214 19.24 46.9547 19.24ZM53.5102 19V8.6H55.3102V19H53.5102ZM54.4102 6.82C54.0635 6.82 53.7635 6.69333 53.5102 6.44C53.2702 6.18667 53.1502 5.89333 53.1502 5.56C53.1502 5.17333 53.2635 4.86667 53.4902 4.64C53.7168 4.41333 54.0235 4.3 54.4102 4.3C54.7568 4.3 55.0502 4.42667 55.2902 4.68C55.5435 4.92 55.6702 5.21333 55.6702 5.56C55.6702 5.93333 55.5568 6.24 55.3302 6.48C55.1035 6.70667 54.7968 6.82 54.4102 6.82ZM62.8902 19.24C61.9035 19.24 61.0168 19.0133 60.2302 18.56C59.4435 18.0933 58.8235 17.4533 58.3702 16.64C57.9302 15.8133 57.7102 14.8667 57.7102 13.8C57.7102 12.68 57.9368 11.7133 58.3902 10.9C58.8435 10.0867 59.4635 9.46 60.2502 9.02C61.0368 8.58 61.9168 8.36 62.8902 8.36C63.8635 8.36 64.7368 8.58 65.5102 9.02C66.2968 9.46 66.9168 10.0867 67.3702 10.9C67.8368 11.7 68.0702 12.6533 68.0702 13.76C68.0702 14.8667 67.8435 15.8333 67.3902 16.66C66.9368 17.4733 66.3168 18.1067 65.5302 18.56C64.7568 19.0133 63.8768 19.24 62.8902 19.24ZM62.8902 17.64C63.9435 17.64 64.7635 17.2867 65.3502 16.58C65.9368 15.86 66.2302 14.9333 66.2302 13.8C66.2302 13.1067 66.0835 12.4733 65.7902 11.9C65.4968 11.3133 65.0968 10.8467 64.5902 10.5C64.0968 10.14 63.5302 9.96 62.8902 9.96C61.8368 9.96 61.0168 10.3067 60.4302 11C59.8435 11.6933 59.5502 12.6133 59.5502 13.76C59.5502 14.4533 59.6968 15.1 59.9902 15.7C60.2835 16.2867 60.6768 16.76 61.1702 17.12C61.6768 17.4667 62.2502 17.64 62.8902 17.64ZM70.4633 19V8.6H72.2033V10.34C72.5766 9.78 73.0499 9.31333 73.6233 8.94C74.2099 8.55333 74.9033 8.36 75.7033 8.36C76.8766 8.36 77.7499 8.71333 78.3233 9.42C78.9099 10.1267 79.2033 11.06 79.2033 12.22V19H77.4033V12.42C77.4033 11.6733 77.2233 11.0733 76.8633 10.62C76.5166 10.1667 76.0299 9.94 75.4033 9.94C74.7899 9.94 74.2099 10.16 73.6633 10.6C73.1166 11.0267 72.6499 11.5333 72.2633 12.12V19H70.4633ZM85.0992 19.24C84.3126 19.24 83.5992 19.14 82.9592 18.94C82.3326 18.74 81.8126 18.48 81.3992 18.16L82.1592 16.66C82.5059 16.9533 82.9392 17.2 83.4592 17.4C83.9926 17.5867 84.5592 17.68 85.1592 17.68C85.9059 17.68 86.4659 17.56 86.8392 17.32C87.2259 17.0667 87.4192 16.7467 87.4192 16.36C87.4192 16.08 87.3459 15.8333 87.1992 15.62C87.0659 15.4067 86.8126 15.2 86.4392 15C86.0659 14.7867 85.5259 14.56 84.8192 14.32C83.8459 13.9867 83.1126 13.5933 82.6192 13.14C82.1392 12.6733 81.8992 12.0333 81.8992 11.22C81.8992 10.42 82.2459 9.74667 82.9392 9.2C83.6459 8.64 84.6192 8.36 85.8592 8.36C86.5259 8.36 87.1192 8.43333 87.6392 8.58C88.1592 8.71333 88.6259 8.88667 89.0392 9.1L88.5392 10.58C88.1792 10.3667 87.7659 10.1933 87.2992 10.06C86.8459 9.92667 86.3392 9.86 85.7792 9.86C85.0859 9.86 84.5592 10 84.1992 10.28C83.8392 10.56 83.6592 10.8667 83.6592 11.2C83.6592 11.52 83.7992 11.7933 84.0792 12.02C84.3592 12.2467 84.9059 12.4933 85.7192 12.76C87.0392 13.2 87.9592 13.6867 88.4792 14.22C88.9992 14.7533 89.2592 15.42 89.2592 16.22C89.2592 17.1533 88.8792 17.8933 88.1192 18.44C87.3726 18.9733 86.3659 19.24 85.0992 19.24ZM100.551 19V6.68H96.2508V5H106.751V6.68H102.451V19H100.551ZM112.289 19L107.149 5.5L109.009 4.78L113.409 16.92L117.829 4.84L119.549 5.5L114.429 19H112.289Z" fill="white"/>
</svg>
