<svg width="39" height="13" viewBox="0 0 39 13" fill="none" xmlns="http://www.w3.org/2000/svg">
<path opacity="0.9" d="M0.44 12V0.799999H7.08V2.112H1.96V5.536H6.232V6.784H1.96V12H0.44ZM8.43625 12V3.68H9.87625V12H8.43625ZM9.15625 2.256C8.87892 2.256 8.63892 2.15467 8.43625 1.952C8.24425 1.74933 8.14825 1.51467 8.14825 1.248C8.14825 0.938666 8.23892 0.693333 8.42025 0.511999C8.60158 0.330666 8.84692 0.24 9.15625 0.24C9.43358 0.24 9.66825 0.341333 9.86025 0.544C10.0629 0.736 10.1643 0.970666 10.1643 1.248C10.1643 1.54667 10.0736 1.792 9.89225 1.984C9.71092 2.16533 9.46558 2.256 9.15625 2.256ZM14.9643 12.192C14.4736 12.192 14.0309 12.1013 13.6363 11.92C13.2416 11.728 12.9269 11.424 12.6923 11.008C12.4683 10.592 12.3563 10.0533 12.3563 9.392V0.16H13.7963V9.248C13.7963 9.824 13.9136 10.2507 14.1483 10.528C14.3936 10.8053 14.7296 10.944 15.1562 10.944C15.3589 10.944 15.5563 10.9227 15.7483 10.88C15.9509 10.8267 16.1216 10.768 16.2603 10.704L16.6123 11.872C16.4203 11.9573 16.1803 12.032 15.8923 12.096C15.6149 12.16 15.3056 12.192 14.9643 12.192ZM17.9675 12V3.68H19.3595V5.072C19.6582 4.624 20.0368 4.25067 20.4955 3.952C20.9542 3.64267 21.4768 3.488 22.0635 3.488C22.7248 3.488 23.2635 3.648 23.6795 3.968C24.1062 4.288 24.4048 4.71467 24.5755 5.248C24.9062 4.75733 25.2955 4.34133 25.7435 4C26.2022 3.65867 26.7675 3.488 27.4395 3.488C28.3462 3.488 29.0182 3.776 29.4555 4.352C29.9035 4.91733 30.1275 5.65867 30.1275 6.576V12H28.6875V6.688C28.6875 6.112 28.5542 5.648 28.2875 5.296C28.0208 4.93333 27.6528 4.752 27.1835 4.752C26.7035 4.752 26.2555 4.93333 25.8395 5.296C25.4342 5.648 25.0768 6.064 24.7675 6.544V12H23.3275V6.688C23.3275 6.112 23.1942 5.648 22.9275 5.296C22.6608 4.93333 22.2928 4.752 21.8235 4.752C21.3542 4.752 20.9115 4.928 20.4955 5.28C20.0795 5.62133 19.7168 6.02667 19.4075 6.496V12H17.9675ZM34.8481 12.192C34.2188 12.192 33.6481 12.112 33.1361 11.952C32.6348 11.792 32.2188 11.584 31.8881 11.328L32.4961 10.128C32.7735 10.3627 33.1201 10.56 33.5361 10.72C33.9628 10.8693 34.4161 10.944 34.8961 10.944C35.4935 10.944 35.9415 10.848 36.2401 10.656C36.5495 10.4533 36.7041 10.1973 36.7041 9.888C36.7041 9.664 36.6455 9.46667 36.5281 9.296C36.4215 9.12533 36.2188 8.96 35.9201 8.8C35.6215 8.62933 35.1895 8.448 34.6241 8.256C33.8455 7.98933 33.2588 7.67467 32.8641 7.312C32.4801 6.93867 32.2881 6.42667 32.2881 5.776C32.2881 5.136 32.5655 4.59733 33.1201 4.16C33.6855 3.712 34.4641 3.488 35.4561 3.488C35.9895 3.488 36.4641 3.54667 36.8801 3.664C37.2961 3.77067 37.6695 3.90933 38.0001 4.08L37.6001 5.264C37.3121 5.09333 36.9815 4.95467 36.6081 4.848C36.2455 4.74133 35.8401 4.688 35.3921 4.688C34.8375 4.688 34.4161 4.8 34.1281 5.024C33.8401 5.248 33.6961 5.49333 33.6961 5.76C33.6961 6.016 33.8081 6.23467 34.0321 6.416C34.2561 6.59733 34.6935 6.79467 35.3441 7.008C36.4001 7.36 37.1361 7.74933 37.5521 8.176C37.9681 8.60267 38.1761 9.136 38.1761 9.776C38.1761 10.5227 37.8721 11.1147 37.2641 11.552C36.6668 11.9787 35.8615 12.192 34.8481 12.192Z" fill="white"/>
</svg>
