<svg width="59" height="13" viewBox="0 0 59 13" fill="none" xmlns="http://www.w3.org/2000/svg">
<path opacity="0.9" d="M0.44 12V0.799999H2.568L5.672 7.888L8.728 0.799999H10.904V12H9.384V2.736L6.392 9.472H4.888L1.88 2.736V12H0.44ZM16.8078 12.192C16.1144 12.192 15.4851 12.016 14.9198 11.664C14.3544 11.312 13.9011 10.816 13.5598 10.176C13.2291 9.52533 13.0638 8.76267 13.0638 7.888C13.0638 7.056 13.2291 6.30933 13.5598 5.648C13.9011 4.98667 14.3651 4.464 14.9518 4.08C15.5491 3.68533 16.2318 3.488 16.9998 3.488C17.4798 3.488 17.9118 3.57333 18.2958 3.744C18.6904 3.904 19.0318 4.10667 19.3198 4.352V3.68H20.6318V9.984C20.6318 10.3893 20.7278 10.656 20.9198 10.784C21.1224 10.9013 21.3411 10.96 21.5758 10.96L21.2718 12.08C20.2478 12.08 19.6291 11.664 19.4158 10.832C19.1704 11.1733 18.8344 11.488 18.4078 11.776C17.9918 12.0533 17.4584 12.192 16.8078 12.192ZM17.1278 10.912C17.5331 10.912 17.9171 10.816 18.2798 10.624C18.6424 10.4213 18.9464 10.1707 19.1918 9.872V5.408C18.9038 5.20533 18.5838 5.04533 18.2318 4.928C17.8904 4.8 17.5278 4.736 17.1438 4.736C16.6318 4.736 16.1784 4.86933 15.7838 5.136C15.3998 5.392 15.0958 5.75467 14.8718 6.224C14.6478 6.68267 14.5358 7.22133 14.5358 7.84C14.5358 8.43733 14.6478 8.97067 14.8718 9.44C15.0958 9.89867 15.4051 10.2613 15.7998 10.528C16.1944 10.784 16.6371 10.912 17.1278 10.912ZM30.8236 12.192C30.333 12.192 29.8903 12.1013 29.4956 11.92C29.101 11.728 28.7863 11.424 28.5516 11.008C28.3276 10.592 28.2156 10.0533 28.2156 9.392V0.16H29.6556V9.248C29.6556 9.824 29.773 10.2507 30.0076 10.528C30.253 10.8053 30.589 10.944 31.0156 10.944C31.2183 10.944 31.4156 10.9227 31.6076 10.88C31.8103 10.8267 31.981 10.768 32.1196 10.704L32.4716 11.872C32.2796 11.9573 32.0396 12.032 31.7516 12.096C31.4743 12.16 31.165 12.192 30.8236 12.192ZM33.8269 12V3.68H35.2669V12H33.8269ZM34.5469 2.256C34.2695 2.256 34.0295 2.15467 33.8269 1.952C33.6349 1.74933 33.5389 1.51467 33.5389 1.248C33.5389 0.938666 33.6295 0.693333 33.8109 0.511999C33.9922 0.330666 34.2375 0.24 34.5469 0.24C34.8242 0.24 35.0589 0.341333 35.2509 0.544C35.4535 0.736 35.5549 0.970666 35.5549 1.248C35.5549 1.54667 35.4642 1.792 35.2829 1.984C35.1015 2.16533 34.8562 2.256 34.5469 2.256ZM40.0669 12.192C39.4375 12.192 38.8669 12.112 38.3549 11.952C37.8535 11.792 37.4375 11.584 37.1069 11.328L37.7149 10.128C37.9922 10.3627 38.3389 10.56 38.7549 10.72C39.1815 10.8693 39.6349 10.944 40.1149 10.944C40.7122 10.944 41.1602 10.848 41.4589 10.656C41.7682 10.4533 41.9229 10.1973 41.9229 9.888C41.9229 9.664 41.8642 9.46667 41.7469 9.296C41.6402 9.12533 41.4375 8.96 41.1389 8.8C40.8402 8.62933 40.4082 8.448 39.8429 8.256C39.0642 7.98933 38.4775 7.67467 38.0829 7.312C37.6989 6.93867 37.5069 6.42667 37.5069 5.776C37.5069 5.136 37.7842 4.59733 38.3389 4.16C38.9042 3.712 39.6829 3.488 40.6749 3.488C41.2082 3.488 41.6829 3.54667 42.0989 3.664C42.5149 3.77067 42.8882 3.90933 43.2189 4.08L42.8189 5.264C42.5309 5.09333 42.2002 4.95467 41.8269 4.848C41.4642 4.74133 41.0589 4.688 40.6109 4.688C40.0562 4.688 39.6349 4.8 39.3469 5.024C39.0589 5.248 38.9149 5.49333 38.9149 5.76C38.9149 6.016 39.0269 6.23467 39.2509 6.416C39.4749 6.59733 39.9122 6.79467 40.5629 7.008C41.6189 7.36 42.3549 7.74933 42.7709 8.176C43.1869 8.60267 43.3949 9.136 43.3949 9.776C43.3949 10.5227 43.0909 11.1147 42.4829 11.552C41.8855 11.9787 41.0802 12.192 40.0669 12.192ZM48.2233 12.192C47.4233 12.192 46.7886 11.9307 46.3193 11.408C45.8606 10.8747 45.6313 10.1173 45.6313 9.136V5.232H44.1913V3.984H45.6633L45.9673 1.36H47.0713V3.984H49.3753V5.232H47.0713V9.248C47.0713 9.86667 47.1993 10.2987 47.4553 10.544C47.7219 10.7893 48.0366 10.912 48.3993 10.912C48.6659 10.912 48.9166 10.8693 49.1513 10.784C49.3966 10.6987 49.6206 10.5973 49.8233 10.48L50.2233 11.632C50.0099 11.76 49.7219 11.8827 49.3593 12C48.9966 12.128 48.6179 12.192 48.2233 12.192ZM54.6861 12.192C53.4915 12.192 52.5421 11.8133 51.8381 11.056C51.1448 10.288 50.7981 9.216 50.7981 7.84C50.7981 7.008 50.9528 6.26667 51.2621 5.616C51.5821 4.95467 52.0248 4.43733 52.5901 4.064C53.1555 3.68 53.8115 3.488 54.5581 3.488C55.3581 3.488 56.0195 3.664 56.5421 4.016C57.0755 4.35733 57.4755 4.82133 57.7421 5.408C58.0088 5.99467 58.1421 6.64 58.1421 7.344C58.1421 7.71733 58.1261 8.08 58.0941 8.432H52.2701C52.3661 9.21067 52.6381 9.81867 53.0861 10.256C53.5341 10.6933 54.1261 10.912 54.8621 10.912C55.3421 10.912 55.7741 10.864 56.1581 10.768C56.5421 10.6613 56.9101 10.528 57.2621 10.368L57.5981 11.6C57.2141 11.7707 56.7821 11.9093 56.3021 12.016C55.8221 12.1333 55.2835 12.192 54.6861 12.192ZM52.2541 7.264H56.8141C56.8141 6.45333 56.6115 5.82933 56.2061 5.392C55.8008 4.95467 55.2408 4.736 54.5261 4.736C53.9075 4.736 53.3955 4.95467 52.9901 5.392C52.5848 5.81867 52.3395 6.44267 52.2541 7.264Z" fill="white"/>
</svg>
