<svg width="107" height="17" viewBox="0 0 107 17" fill="none" xmlns="http://www.w3.org/2000/svg">
<path opacity="0.9" d="M9.136 13.16L7.888 9.96H2.704L1.456 13.128L0.16 12.6L4.544 1.8H6.208L10.528 12.6L9.136 13.16ZM3.184 8.68H7.392L5.296 3.304L3.184 8.68ZM10.9595 16.712C10.3088 16.712 9.76483 16.5893 9.3275 16.344L9.6795 15.144C9.81817 15.2293 9.98883 15.304 10.1915 15.368C10.3835 15.432 10.5808 15.464 10.7835 15.464C11.6902 15.464 12.1435 14.8987 12.1435 13.768V4.68H13.5835V13.912C13.5835 14.5627 13.4662 15.0907 13.2315 15.496C12.9968 15.912 12.6822 16.216 12.2875 16.408C11.8928 16.6107 11.4502 16.712 10.9595 16.712ZM12.8315 3.256C12.5542 3.256 12.3142 3.15467 12.1115 2.952C11.9195 2.74933 11.8235 2.51467 11.8235 2.248C11.8235 1.93867 11.9142 1.69333 12.0955 1.512C12.2768 1.33067 12.5222 1.24 12.8315 1.24C13.1088 1.24 13.3435 1.34133 13.5355 1.544C13.7382 1.736 13.8395 1.97067 13.8395 2.248C13.8395 2.54667 13.7488 2.792 13.5675 2.984C13.3862 3.16533 13.1408 3.256 12.8315 3.256ZM19.6434 13.192C18.854 13.192 18.1447 13.0107 17.5154 12.648C16.886 12.2747 16.39 11.7627 16.0274 11.112C15.6754 10.4507 15.4994 9.69333 15.4994 8.84C15.4994 7.944 15.6807 7.17067 16.0434 6.52C16.406 5.86933 16.902 5.368 17.5314 5.016C18.1607 4.664 18.8647 4.488 19.6434 4.488C20.422 4.488 21.1207 4.664 21.7394 5.016C22.3687 5.368 22.8647 5.86933 23.2274 6.52C23.6007 7.16 23.7874 7.92267 23.7874 8.808C23.7874 9.69333 23.606 10.4667 23.2434 11.128C22.8807 11.7787 22.3847 12.2853 21.7554 12.648C21.1367 13.0107 20.4327 13.192 19.6434 13.192ZM19.6434 11.912C20.486 11.912 21.142 11.6293 21.6114 11.064C22.0807 10.488 22.3154 9.74667 22.3154 8.84C22.3154 8.28533 22.198 7.77867 21.9634 7.32C21.7287 6.85067 21.4087 6.47733 21.0034 6.2C20.6087 5.912 20.1554 5.768 19.6434 5.768C18.8007 5.768 18.1447 6.04533 17.6754 6.6C17.206 7.15467 16.9714 7.89067 16.9714 8.808C16.9714 9.36267 17.0887 9.88 17.3234 10.36C17.558 10.8293 17.8727 11.208 18.2674 11.496C18.6727 11.7733 19.1314 11.912 19.6434 11.912ZM28.4219 13.192C27.9419 13.192 27.4885 13.0907 27.0619 12.888C26.6352 12.6853 26.2885 12.36 26.0219 11.912C25.7552 11.4533 25.6219 10.8453 25.6219 10.088V4.68H27.0619V9.896C27.0619 10.5467 27.2005 11.048 27.4779 11.4C27.7552 11.7413 28.1605 11.912 28.6939 11.912C29.1312 11.912 29.5525 11.8267 29.9579 11.656C30.3739 11.4747 30.7419 11.2347 31.0619 10.936V4.68H32.5019V10.84C32.5019 11.2987 32.5979 11.6027 32.7899 11.752C32.9925 11.8907 33.2112 11.96 33.4459 11.96L33.1419 13.08C32.1499 13.08 31.5365 12.6853 31.3019 11.896C30.9285 12.28 30.4965 12.5947 30.0059 12.84C29.5152 13.0747 28.9872 13.192 28.4219 13.192ZM38.2701 13.192C37.4701 13.192 36.8355 12.9307 36.3661 12.408C35.9075 11.8747 35.6781 11.1173 35.6781 10.136V6.232H34.2381V4.984H35.7101L36.0141 2.36H37.1181V4.984H39.4221V6.232H37.1181V10.248C37.1181 10.8667 37.2461 11.2987 37.5021 11.544C37.7688 11.7893 38.0835 11.912 38.4461 11.912C38.7128 11.912 38.9635 11.8693 39.1981 11.784C39.4435 11.6987 39.6675 11.5973 39.8701 11.48L40.2701 12.632C40.0568 12.76 39.7688 12.8827 39.4061 13C39.0435 13.128 38.6648 13.192 38.2701 13.192ZM44.1138 13.192C43.4844 13.192 42.9138 13.112 42.4018 12.952C41.9004 12.792 41.4844 12.584 41.1538 12.328L41.7618 11.128C42.0391 11.3627 42.3858 11.56 42.8018 11.72C43.2284 11.8693 43.6818 11.944 44.1618 11.944C44.7591 11.944 45.2071 11.848 45.5058 11.656C45.8151 11.4533 45.9698 11.1973 45.9698 10.888C45.9698 10.664 45.9111 10.4667 45.7938 10.296C45.6871 10.1253 45.4844 9.96 45.1858 9.8C44.8871 9.62933 44.4551 9.448 43.8898 9.256C43.1111 8.98933 42.5244 8.67467 42.1298 8.312C41.7458 7.93867 41.5538 7.42667 41.5538 6.776C41.5538 6.136 41.8311 5.59733 42.3858 5.16C42.9511 4.712 43.7298 4.488 44.7218 4.488C45.2551 4.488 45.7298 4.54667 46.1458 4.664C46.5618 4.77067 46.9351 4.90933 47.2658 5.08L46.8658 6.264C46.5778 6.09333 46.2471 5.95467 45.8738 5.848C45.5111 5.74133 45.1058 5.688 44.6578 5.688C44.1031 5.688 43.6818 5.8 43.3938 6.024C43.1058 6.248 42.9618 6.49333 42.9618 6.76C42.9618 7.016 43.0738 7.23467 43.2978 7.416C43.5218 7.59733 43.9591 7.79467 44.6098 8.008C45.6658 8.36 46.4018 8.74933 46.8178 9.176C47.2338 9.60267 47.4418 10.136 47.4418 10.776C47.4418 11.5227 47.1378 12.1147 46.5298 12.552C45.9324 12.9787 45.1271 13.192 44.1138 13.192ZM54.155 13V4.68H55.547V6.488C55.6857 6.136 55.8723 5.81067 56.107 5.512C56.3417 5.20267 56.635 4.95733 56.987 4.776C57.339 4.584 57.7497 4.488 58.219 4.488C58.379 4.488 58.539 4.49867 58.699 4.52C58.859 4.53067 58.9923 4.552 59.099 4.584L58.667 6.072C58.4643 5.98667 58.2243 5.944 57.947 5.944C57.5523 5.944 57.1737 6.056 56.811 6.28C56.459 6.504 56.1657 6.85067 55.931 7.32C55.707 7.78933 55.595 8.38667 55.595 9.112V13H54.155ZM63.3893 13.192C62.1946 13.192 61.2453 12.8133 60.5413 12.056C59.8479 11.288 59.5013 10.216 59.5013 8.84C59.5013 8.008 59.6559 7.26667 59.9653 6.616C60.2853 5.95467 60.7279 5.43733 61.2933 5.064C61.8586 4.68 62.5146 4.488 63.2613 4.488C64.0613 4.488 64.7226 4.664 65.2453 5.016C65.7786 5.35733 66.1786 5.82133 66.4453 6.408C66.7119 6.99467 66.8453 7.64 66.8453 8.344C66.8453 8.71733 66.8293 9.08 66.7973 9.432H60.9733C61.0693 10.2107 61.3413 10.8187 61.7893 11.256C62.2373 11.6933 62.8293 11.912 63.5653 11.912C64.0453 11.912 64.4773 11.864 64.8613 11.768C65.2453 11.6613 65.6133 11.528 65.9653 11.368L66.3013 12.6C65.9173 12.7707 65.4853 12.9093 65.0053 13.016C64.5253 13.1333 63.9866 13.192 63.3893 13.192ZM60.9573 8.264H65.5173C65.5173 7.45333 65.3146 6.82933 64.9093 6.392C64.5039 5.95467 63.9439 5.736 63.2293 5.736C62.6106 5.736 62.0986 5.95467 61.6933 6.392C61.2879 6.81867 61.0426 7.44267 60.9573 8.264ZM61.9333 3.8L61.4373 2.824L64.4613 0.823999L65.1333 2.168L61.9333 3.8ZM72.1244 13.192C71.335 13.192 70.6417 13.0107 70.0444 12.648C69.4577 12.2747 69.0044 11.7627 68.6844 11.112C68.3644 10.4507 68.2044 9.69333 68.2044 8.84C68.2044 8.04 68.3644 7.30933 68.6844 6.648C69.015 5.98667 69.4844 5.464 70.0924 5.08C70.7004 4.68533 71.415 4.488 72.2364 4.488C72.7057 4.488 73.1164 4.53067 73.4684 4.616C73.831 4.70133 74.1777 4.824 74.5084 4.984L74.0764 6.2C73.7777 6.05067 73.4897 5.944 73.2124 5.88C72.9457 5.80533 72.647 5.768 72.3164 5.768C71.5697 5.768 70.9404 6.04 70.4284 6.584C69.927 7.11733 69.6764 7.85867 69.6764 8.808C69.6764 9.384 69.783 9.90667 69.9964 10.376C70.2097 10.8453 70.503 11.2187 70.8764 11.496C71.2604 11.7733 71.7084 11.912 72.2204 11.912C72.6257 11.912 72.9724 11.8693 73.2604 11.784C73.5484 11.688 73.8577 11.5547 74.1884 11.384L74.6364 12.6C74.3057 12.7813 73.9324 12.9253 73.5164 13.032C73.111 13.1387 72.647 13.192 72.1244 13.192ZM79.483 13.192C78.2883 13.192 77.339 12.8133 76.635 12.056C75.9417 11.288 75.595 10.216 75.595 8.84C75.595 8.008 75.7497 7.26667 76.059 6.616C76.379 5.95467 76.8217 5.43733 77.387 5.064C77.9523 4.68 78.6083 4.488 79.355 4.488C80.155 4.488 80.8163 4.664 81.339 5.016C81.8723 5.35733 82.2723 5.82133 82.539 6.408C82.8057 6.99467 82.939 7.64 82.939 8.344C82.939 8.71733 82.923 9.08 82.891 9.432H77.067C77.163 10.2107 77.435 10.8187 77.883 11.256C78.331 11.6933 78.923 11.912 79.659 11.912C80.139 11.912 80.571 11.864 80.955 11.768C81.339 11.6613 81.707 11.528 82.059 11.368L82.395 12.6C82.011 12.7707 81.579 12.9093 81.099 13.016C80.619 13.1333 80.0803 13.192 79.483 13.192ZM77.051 8.264H81.611C81.611 7.45333 81.4083 6.82933 81.003 6.392C80.5977 5.95467 80.0377 5.736 79.323 5.736C78.7043 5.736 78.1923 5.95467 77.787 6.392C77.3817 6.81867 77.1363 7.44267 77.051 8.264ZM84.8581 13V4.68H86.2501V6.072C86.5488 5.624 86.9275 5.25067 87.3861 4.952C87.8555 4.64267 88.4101 4.488 89.0501 4.488C89.9888 4.488 90.6875 4.77067 91.1461 5.336C91.6155 5.90133 91.8501 6.648 91.8501 7.576V13H90.4101V7.736C90.4101 7.13867 90.2661 6.65867 89.9781 6.296C89.7008 5.93333 89.3115 5.752 88.8101 5.752C88.3195 5.752 87.8555 5.928 87.4181 6.28C86.9808 6.62133 86.6075 7.02667 86.2981 7.496V13H84.8581ZM97.2389 13.192C96.4389 13.192 95.8042 12.9307 95.3349 12.408C94.8762 11.8747 94.6469 11.1173 94.6469 10.136V6.232H93.2069V4.984H94.6789L94.9829 2.36H96.0869V4.984H98.3909V6.232H96.0869V10.248C96.0869 10.8667 96.2149 11.2987 96.4709 11.544C96.7375 11.7893 97.0522 11.912 97.4149 11.912C97.6815 11.912 97.9322 11.8693 98.1669 11.784C98.4122 11.6987 98.6362 11.5973 98.8389 11.48L99.2389 12.632C99.0255 12.76 98.7375 12.8827 98.3749 13C98.0122 13.128 97.6335 13.192 97.2389 13.192ZM103.083 13.192C102.453 13.192 101.883 13.112 101.371 12.952C100.869 12.792 100.453 12.584 100.123 12.328L100.731 11.128C101.008 11.3627 101.355 11.56 101.771 11.72C102.197 11.8693 102.651 11.944 103.131 11.944C103.728 11.944 104.176 11.848 104.475 11.656C104.784 11.4533 104.939 11.1973 104.939 10.888C104.939 10.664 104.88 10.4667 104.763 10.296C104.656 10.1253 104.453 9.96 104.155 9.8C103.856 9.62933 103.424 9.448 102.859 9.256C102.08 8.98933 101.493 8.67467 101.099 8.312C100.715 7.93867 100.523 7.42667 100.523 6.776C100.523 6.136 100.8 5.59733 101.355 5.16C101.92 4.712 102.699 4.488 103.691 4.488C104.224 4.488 104.699 4.54667 105.115 4.664C105.531 4.77067 105.904 4.90933 106.235 5.08L105.835 6.264C105.547 6.09333 105.216 5.95467 104.843 5.848C104.48 5.74133 104.075 5.688 103.627 5.688C103.072 5.688 102.651 5.8 102.363 6.024C102.075 6.248 101.931 6.49333 101.931 6.76C101.931 7.016 102.043 7.23467 102.267 7.416C102.491 7.59733 102.928 7.79467 103.579 8.008C104.635 8.36 105.371 8.74933 105.787 9.176C106.203 9.60267 106.411 10.136 106.411 10.776C106.411 11.5227 106.107 12.1147 105.499 12.552C104.901 12.9787 104.096 13.192 103.083 13.192Z" fill="white"/>
</svg>
