<svg width="155" height="40" viewBox="0 0 155 40" fill="none" xmlns="http://www.w3.org/2000/svg">
<g clip-path="url(#clip0_0_65)">
<rect width="155" height="40" rx="4" fill="black" fill-opacity="0.32"/>
<path d="M62.44 24V12.8H63.96V22.64H69.096V24H62.44ZM73.9799 24.192C72.7852 24.192 71.8359 23.8133 71.1319 23.056C70.4385 22.288 70.0919 21.216 70.0919 19.84C70.0919 19.008 70.2465 18.2667 70.5559 17.616C70.8759 16.9547 71.3185 16.4373 71.8839 16.064C72.4492 15.68 73.1052 15.488 73.8519 15.488C74.6519 15.488 75.3132 15.664 75.8359 16.016C76.3692 16.3573 76.7692 16.8213 77.0359 17.408C77.3025 17.9947 77.4359 18.64 77.4359 19.344C77.4359 19.7173 77.4199 20.08 77.3879 20.432H71.5639C71.6599 21.2107 71.9319 21.8187 72.3799 22.256C72.8279 22.6933 73.4199 22.912 74.1559 22.912C74.6359 22.912 75.0679 22.864 75.4519 22.768C75.8359 22.6613 76.2039 22.528 76.5559 22.368L76.8919 23.6C76.5079 23.7707 76.0759 23.9093 75.5959 24.016C75.1159 24.1333 74.5772 24.192 73.9799 24.192ZM71.5479 19.264H76.1079C76.1079 18.4533 75.9052 17.8293 75.4999 17.392C75.0945 16.9547 74.5345 16.736 73.8199 16.736C73.2012 16.736 72.6892 16.9547 72.2839 17.392C71.8785 17.8187 71.6332 18.4427 71.5479 19.264ZM82.915 24.192C82.1257 24.192 81.4323 24.0107 80.835 23.648C80.2483 23.2747 79.795 22.7627 79.475 22.112C79.155 21.4507 78.995 20.6933 78.995 19.84C78.995 19.04 79.155 18.3093 79.475 17.648C79.8057 16.9867 80.275 16.464 80.883 16.08C81.491 15.6853 82.2057 15.488 83.027 15.488C83.4963 15.488 83.907 15.5307 84.259 15.616C84.6217 15.7013 84.9683 15.824 85.299 15.984L84.867 17.2C84.5683 17.0507 84.2803 16.944 84.003 16.88C83.7363 16.8053 83.4377 16.768 83.107 16.768C82.3603 16.768 81.731 17.04 81.219 17.584C80.7177 18.1173 80.467 18.8587 80.467 19.808C80.467 20.384 80.5737 20.9067 80.787 21.376C81.0003 21.8453 81.2937 22.2187 81.667 22.496C82.051 22.7733 82.499 22.912 83.011 22.912C83.4163 22.912 83.763 22.8693 84.051 22.784C84.339 22.688 84.6483 22.5547 84.979 22.384L85.427 23.6C85.0963 23.7813 84.723 23.9253 84.307 24.032C83.9017 24.1387 83.4377 24.192 82.915 24.192ZM90.2139 24.192C89.4139 24.192 88.7792 23.9307 88.3099 23.408C87.8512 22.8747 87.6219 22.1173 87.6219 21.136V17.232H86.1819V15.984H87.6539L87.9579 13.36H89.0619V15.984H91.3659V17.232H89.0619V21.248C89.0619 21.8667 89.1899 22.2987 89.4459 22.544C89.7125 22.7893 90.0272 22.912 90.3899 22.912C90.6565 22.912 90.9072 22.8693 91.1419 22.784C91.3872 22.6987 91.6112 22.5973 91.8139 22.48L92.2139 23.632C92.0005 23.76 91.7125 23.8827 91.3499 24C90.9872 24.128 90.6085 24.192 90.2139 24.192ZM96.5031 24.192C96.0231 24.192 95.5698 24.0907 95.1431 23.888C94.7165 23.6853 94.3698 23.36 94.1031 22.912C93.8365 22.4533 93.7031 21.8453 93.7031 21.088V15.68H95.1431V20.896C95.1431 21.5467 95.2818 22.048 95.5591 22.4C95.8365 22.7413 96.2418 22.912 96.7751 22.912C97.2125 22.912 97.6338 22.8267 98.0391 22.656C98.4551 22.4747 98.8231 22.2347 99.1431 21.936V15.68H100.583V21.84C100.583 22.2987 100.679 22.6027 100.871 22.752C101.074 22.8907 101.292 22.96 101.527 22.96L101.223 24.08C100.231 24.08 99.6178 23.6853 99.3831 22.896C99.0098 23.28 98.5778 23.5947 98.0871 23.84C97.5965 24.0747 97.0685 24.192 96.5031 24.192ZM103.639 24V15.68H105.031V17.488C105.17 17.136 105.357 16.8107 105.591 16.512C105.826 16.2027 106.119 15.9573 106.471 15.776C106.823 15.584 107.234 15.488 107.703 15.488C107.863 15.488 108.023 15.4987 108.183 15.52C108.343 15.5307 108.477 15.552 108.583 15.584L108.151 17.072C107.949 16.9867 107.709 16.944 107.431 16.944C107.037 16.944 106.658 17.056 106.295 17.28C105.943 17.504 105.65 17.8507 105.415 18.32C105.191 18.7893 105.079 19.3867 105.079 20.112V24H103.639ZM113.074 24.192C111.879 24.192 110.93 23.8133 110.226 23.056C109.532 22.288 109.186 21.216 109.186 19.84C109.186 19.008 109.34 18.2667 109.65 17.616C109.97 16.9547 110.412 16.4373 110.978 16.064C111.543 15.68 112.199 15.488 112.946 15.488C113.746 15.488 114.407 15.664 114.93 16.016C115.463 16.3573 115.863 16.8213 116.13 17.408C116.396 17.9947 116.53 18.64 116.53 19.344C116.53 19.7173 116.514 20.08 116.482 20.432H110.658C110.754 21.2107 111.026 21.8187 111.474 22.256C111.922 22.6933 112.514 22.912 113.25 22.912C113.73 22.912 114.162 22.864 114.546 22.768C114.93 22.6613 115.298 22.528 115.65 22.368L115.986 23.6C115.602 23.7707 115.17 23.9093 114.69 24.016C114.21 24.1333 113.671 24.192 113.074 24.192ZM110.642 19.264H115.202C115.202 18.4533 114.999 17.8293 114.594 17.392C114.188 16.9547 113.628 16.736 112.914 16.736C112.295 16.736 111.783 16.9547 111.378 17.392C110.972 17.8187 110.727 18.4427 110.642 19.264Z" fill="white"/>
<path fill-rule="evenodd" clip-rule="evenodd" d="M36 28C36 28.7981 36.7167 29.2063 37 29L50.5578 22.2211C50.8288 22.0856 51 21.8086 51 21.5056V20.4944C51 20.1914 50.8288 19.9144 50.5578 19.7789L37 13C36.7167 12.7944 36 13.2014 36 14V28Z" fill="white"/>
</g>
<defs>
<clipPath id="clip0_0_65">
<rect width="155" height="40" fill="white"/>
</clipPath>
</defs>
</svg>
