<svg width="144" height="78" viewBox="0 0 144 78" fill="none" xmlns="http://www.w3.org/2000/svg">
<g clip-path="url(#clip0_0_17)">
<path d="M5.026 13.168C4.17667 13.168 3.42533 12.9673 2.772 12.566C2.11867 12.1553 1.61 11.5767 1.246 10.83C0.882 10.074 0.7 9.178 0.7 8.142C0.7 7.14333 0.882 6.26133 1.246 5.496C1.61933 4.72133 2.142 4.11933 2.814 3.69C3.49533 3.25133 4.28867 3.032 5.194 3.032C5.66067 3.032 6.08533 3.07867 6.468 3.172C6.85067 3.256 7.21 3.37733 7.546 3.536L7.14 4.656C6.85067 4.516 6.552 4.404 6.244 4.32C5.94533 4.236 5.59067 4.194 5.18 4.194C4.58267 4.194 4.046 4.348 3.57 4.656C3.10333 4.964 2.73467 5.40733 2.464 5.986C2.19333 6.56467 2.058 7.26467 2.058 8.086C2.058 8.87 2.18867 9.556 2.45 10.144C2.72067 10.732 3.08933 11.1893 3.556 11.516C4.032 11.8427 4.57333 12.006 5.18 12.006C5.63733 12.006 6.034 11.95 6.37 11.838C6.706 11.726 7.03267 11.5813 7.35 11.404L7.756 12.51C7.41067 12.6967 7.014 12.8553 6.566 12.986C6.12733 13.1073 5.614 13.168 5.026 13.168ZM11.7947 13.168C11.188 13.168 10.6373 13.014 10.1427 12.706C9.64801 12.398 9.25134 11.964 8.95267 11.404C8.66334 10.8347 8.51867 10.1673 8.51867 9.402C8.51867 8.674 8.66334 8.02067 8.95267 7.442C9.25134 6.86333 9.65734 6.406 10.1707 6.07C10.6933 5.72467 11.2907 5.552 11.9627 5.552C12.3827 5.552 12.7607 5.62667 13.0967 5.776C13.442 5.916 13.7407 6.09333 13.9927 6.308V5.72H15.1407V11.236C15.1407 11.5907 15.2247 11.824 15.3927 11.936C15.57 12.0387 15.7613 12.09 15.9667 12.09L15.7007 13.07C14.8047 13.07 14.2633 12.706 14.0767 11.978C13.862 12.2767 13.568 12.552 13.1947 12.804C12.8307 13.0467 12.364 13.168 11.7947 13.168ZM12.0747 12.048C12.4293 12.048 12.7653 11.964 13.0827 11.796C13.4 11.6187 13.666 11.3993 13.8807 11.138V7.232C13.6287 7.05467 13.3487 6.91467 13.0407 6.812C12.742 6.7 12.4247 6.644 12.0887 6.644C11.6407 6.644 11.244 6.76067 10.8987 6.994C10.5627 7.218 10.2967 7.53533 10.1007 7.946C9.90467 8.34733 9.80667 8.81867 9.80667 9.36C9.80667 9.88267 9.90467 10.3493 10.1007 10.76C10.2967 11.1613 10.5673 11.4787 10.9127 11.712C11.258 11.936 11.6453 12.048 12.0747 12.048ZM17.6493 13V5.72H18.8673V7.302C18.9886 6.994 19.152 6.70933 19.3573 6.448C19.5626 6.17733 19.8193 5.96267 20.1273 5.804C20.4353 5.636 20.7946 5.552 21.2053 5.552C21.3453 5.552 21.4853 5.56133 21.6253 5.58C21.7653 5.58933 21.882 5.608 21.9753 5.636L21.5973 6.938C21.42 6.86333 21.21 6.826 20.9673 6.826C20.622 6.826 20.2906 6.924 19.9733 7.12C19.6653 7.316 19.4086 7.61933 19.2033 8.03C19.0073 8.44067 18.9093 8.96333 18.9093 9.598V13H17.6493ZM26.0625 13.168C25.3625 13.168 24.8072 12.9393 24.3965 12.482C23.9952 12.0153 23.7945 11.3527 23.7945 10.494V7.078H22.5345V5.986H23.8225L24.0885 3.69H25.0545V5.986H27.0705V7.078H25.0545V10.592C25.0545 11.1333 25.1665 11.5113 25.3905 11.726C25.6239 11.9407 25.8992 12.048 26.2165 12.048C26.4499 12.048 26.6692 12.0107 26.8745 11.936C27.0892 11.8613 27.2852 11.7727 27.4625 11.67L27.8125 12.678C27.6259 12.79 27.3739 12.8973 27.0565 13C26.7392 13.112 26.4079 13.168 26.0625 13.168ZM31.7175 13.168C30.6722 13.168 29.8415 12.8367 29.2255 12.174C28.6189 11.502 28.3155 10.564 28.3155 9.36C28.3155 8.632 28.4509 7.98333 28.7215 7.414C29.0015 6.83533 29.3889 6.38267 29.8835 6.056C30.3782 5.72 30.9522 5.552 31.6055 5.552C32.3055 5.552 32.8842 5.706 33.3415 6.014C33.8082 6.31267 34.1582 6.71867 34.3915 7.232C34.6249 7.74533 34.7415 8.31 34.7415 8.926C34.7415 9.25267 34.7275 9.57 34.6995 9.878H29.6035C29.6875 10.5593 29.9255 11.0913 30.3175 11.474C30.7095 11.8567 31.2275 12.048 31.8715 12.048C32.2915 12.048 32.6695 12.006 33.0055 11.922C33.3415 11.8287 33.6635 11.712 33.9715 11.572L34.2655 12.65C33.9295 12.7993 33.5515 12.9207 33.1315 13.014C32.7115 13.1167 32.2402 13.168 31.7175 13.168ZM29.5895 8.856H33.5795C33.5795 8.14667 33.4022 7.60067 33.0475 7.218C32.6929 6.83533 32.2029 6.644 31.5775 6.644C31.0362 6.644 30.5882 6.83533 30.2335 7.218C29.8789 7.59133 29.6642 8.13733 29.5895 8.856ZM38.3808 13.168C37.8301 13.168 37.3308 13.098 36.8828 12.958C36.4441 12.818 36.0801 12.636 35.7908 12.412L36.3228 11.362C36.5654 11.5673 36.8688 11.74 37.2328 11.88C37.6061 12.0107 38.0028 12.076 38.4228 12.076C38.9454 12.076 39.3374 11.992 39.5988 11.824C39.8694 11.6467 40.0048 11.4227 40.0048 11.152C40.0048 10.956 39.9534 10.7833 39.8508 10.634C39.7574 10.4847 39.5801 10.34 39.3188 10.2C39.0574 10.0507 38.6794 9.892 38.1848 9.724C37.5034 9.49067 36.9901 9.21533 36.6448 8.898C36.3088 8.57133 36.1408 8.12333 36.1408 7.554C36.1408 6.994 36.3834 6.52267 36.8688 6.14C37.3634 5.748 38.0448 5.552 38.9128 5.552C39.3794 5.552 39.7948 5.60333 40.1588 5.706C40.5228 5.79933 40.8494 5.92067 41.1388 6.07L40.7888 7.106C40.5368 6.95667 40.2474 6.83533 39.9208 6.742C39.6034 6.64867 39.2488 6.602 38.8568 6.602C38.3714 6.602 38.0028 6.7 37.7508 6.896C37.4988 7.092 37.3728 7.30667 37.3728 7.54C37.3728 7.764 37.4708 7.95533 37.6668 8.114C37.8628 8.27267 38.2454 8.44533 38.8148 8.632C39.7388 8.94 40.3828 9.28067 40.7468 9.654C41.1108 10.0273 41.2928 10.494 41.2928 11.054C41.2928 11.7073 41.0268 12.2253 40.4948 12.608C39.9721 12.9813 39.2674 13.168 38.3808 13.168ZM50.1069 13.168C49.4162 13.168 48.8095 13.0093 48.2869 12.692C47.7735 12.3653 47.3769 11.9173 47.0969 11.348C46.8169 10.7693 46.6769 10.1067 46.6769 9.36C46.6769 8.66 46.8169 8.02067 47.0969 7.442C47.3862 6.86333 47.7969 6.406 48.3289 6.07C48.8609 5.72467 49.4862 5.552 50.2049 5.552C50.6155 5.552 50.9749 5.58933 51.2829 5.664C51.6002 5.73867 51.9035 5.846 52.1929 5.986L51.8149 7.05C51.5535 6.91933 51.3015 6.826 51.0589 6.77C50.8255 6.70467 50.5642 6.672 50.2749 6.672C49.6215 6.672 49.0709 6.91 48.6229 7.386C48.1842 7.85267 47.9649 8.50133 47.9649 9.332C47.9649 9.836 48.0582 10.2933 48.2449 10.704C48.4315 11.1147 48.6882 11.4413 49.0149 11.684C49.3509 11.9267 49.7429 12.048 50.1909 12.048C50.5455 12.048 50.8489 12.0107 51.1009 11.936C51.3529 11.852 51.6235 11.7353 51.9129 11.586L52.3049 12.65C52.0155 12.8087 51.6889 12.9347 51.3249 13.028C50.9702 13.1213 50.5642 13.168 50.1069 13.168ZM56.4197 13.168C55.813 13.168 55.2623 13.014 54.7677 12.706C54.273 12.398 53.8763 11.964 53.5777 11.404C53.2883 10.8347 53.1437 10.1673 53.1437 9.402C53.1437 8.674 53.2883 8.02067 53.5777 7.442C53.8763 6.86333 54.2823 6.406 54.7957 6.07C55.3183 5.72467 55.9157 5.552 56.5877 5.552C57.0077 5.552 57.3857 5.62667 57.7217 5.776C58.067 5.916 58.3657 6.09333 58.6177 6.308V5.72H59.7657V11.236C59.7657 11.5907 59.8497 11.824 60.0177 11.936C60.195 12.0387 60.3863 12.09 60.5917 12.09L60.3257 13.07C59.4297 13.07 58.8883 12.706 58.7017 11.978C58.487 12.2767 58.193 12.552 57.8197 12.804C57.4557 13.0467 56.989 13.168 56.4197 13.168ZM56.6997 12.048C57.0543 12.048 57.3903 11.964 57.7077 11.796C58.025 11.6187 58.291 11.3993 58.5057 11.138V7.232C58.2537 7.05467 57.9737 6.91467 57.6657 6.812C57.367 6.7 57.0497 6.644 56.7137 6.644C56.2657 6.644 55.869 6.76067 55.5237 6.994C55.1877 7.218 54.9217 7.53533 54.7257 7.946C54.5297 8.34733 54.4317 8.81867 54.4317 9.36C54.4317 9.88267 54.5297 10.3493 54.7257 10.76C54.9217 11.1613 55.1923 11.4787 55.5377 11.712C55.883 11.936 56.2703 12.048 56.6997 12.048ZM64.8956 13.168C64.2982 13.168 63.7522 13.014 63.2576 12.706C62.7629 12.398 62.3709 11.964 62.0816 11.404C61.7922 10.8347 61.6476 10.1673 61.6476 9.402C61.6476 8.66467 61.7922 8.00667 62.0816 7.428C62.3802 6.84933 62.7722 6.392 63.2576 6.056C63.7522 5.72 64.2936 5.552 64.8816 5.552C65.3669 5.552 65.7822 5.65 66.1276 5.846C66.4822 6.042 66.7576 6.24267 66.9536 6.448V2.64H68.2136V11.236C68.2136 11.5907 68.2976 11.824 68.4656 11.936C68.6429 12.0387 68.8342 12.09 69.0396 12.09L68.7736 13.07C67.8869 13.07 67.3456 12.7153 67.1496 12.006C66.9442 12.2953 66.6549 12.5613 66.2816 12.804C65.9176 13.0467 65.4556 13.168 64.8956 13.168ZM65.1756 12.048C65.5209 12.048 65.8476 11.9687 66.1556 11.81C66.4729 11.642 66.7389 11.4273 66.9536 11.166V7.554C66.7762 7.33 66.5289 7.12467 66.2116 6.938C65.8942 6.742 65.5442 6.644 65.1616 6.644C64.7136 6.644 64.3216 6.76533 63.9856 7.008C63.6496 7.25067 63.3882 7.57733 63.2016 7.988C63.0242 8.38933 62.9356 8.84667 62.9356 9.36C62.9356 9.87333 63.0336 10.3353 63.2296 10.746C63.4256 11.1473 63.6916 11.4647 64.0276 11.698C64.3729 11.9313 64.7556 12.048 65.1756 12.048ZM73.4988 13.168C72.4535 13.168 71.6228 12.8367 71.0068 12.174C70.4001 11.502 70.0968 10.564 70.0968 9.36C70.0968 8.632 70.2321 7.98333 70.5028 7.414C70.7828 6.83533 71.1701 6.38267 71.6648 6.056C72.1595 5.72 72.7335 5.552 73.3868 5.552C74.0868 5.552 74.6655 5.706 75.1228 6.014C75.5895 6.31267 75.9395 6.71867 76.1728 7.232C76.4061 7.74533 76.5228 8.31 76.5228 8.926C76.5228 9.25267 76.5088 9.57 76.4808 9.878H71.3848C71.4688 10.5593 71.7068 11.0913 72.0988 11.474C72.4908 11.8567 73.0088 12.048 73.6528 12.048C74.0728 12.048 74.4508 12.006 74.7868 11.922C75.1228 11.8287 75.4448 11.712 75.7528 11.572L76.0468 12.65C75.7108 12.7993 75.3328 12.9207 74.9128 13.014C74.4928 13.1167 74.0215 13.168 73.4988 13.168ZM71.3708 8.856H75.3608C75.3608 8.14667 75.1835 7.60067 74.8288 7.218C74.4741 6.83533 73.9841 6.644 73.3588 6.644C72.8175 6.644 72.3695 6.83533 72.0148 7.218C71.6601 7.59133 71.4455 8.13733 71.3708 8.856ZM80.988 13.168C80.3814 13.168 79.8307 13.014 79.336 12.706C78.8414 12.398 78.4447 11.964 78.146 11.404C77.8567 10.8347 77.712 10.1673 77.712 9.402C77.712 8.674 77.8567 8.02067 78.146 7.442C78.4447 6.86333 78.8507 6.406 79.364 6.07C79.8867 5.72467 80.484 5.552 81.156 5.552C81.576 5.552 81.954 5.62667 82.29 5.776C82.6354 5.916 82.934 6.09333 83.186 6.308V5.72H84.334V11.236C84.334 11.5907 84.418 11.824 84.586 11.936C84.7634 12.0387 84.9547 12.09 85.16 12.09L84.894 13.07C83.998 13.07 83.4567 12.706 83.27 11.978C83.0554 12.2767 82.7614 12.552 82.388 12.804C82.024 13.0467 81.5574 13.168 80.988 13.168ZM81.268 12.048C81.6227 12.048 81.9587 11.964 82.276 11.796C82.5934 11.6187 82.8594 11.3993 83.074 11.138V7.232C82.822 7.05467 82.542 6.91467 82.234 6.812C81.9354 6.7 81.618 6.644 81.282 6.644C80.834 6.644 80.4374 6.76067 80.092 6.994C79.756 7.218 79.49 7.53533 79.294 7.946C79.098 8.34733 79 8.81867 79 9.36C79 9.88267 79.098 10.3493 79.294 10.76C79.49 11.1613 79.7607 11.4787 80.106 11.712C80.4514 11.936 80.8387 12.048 81.268 12.048ZM89.2227 13.168C88.8027 13.168 88.406 13.0793 88.0327 12.902C87.6593 12.7247 87.356 12.44 87.1227 12.048C86.8893 11.6467 86.7727 11.1147 86.7727 10.452V5.72H88.0327V10.284C88.0327 10.8533 88.154 11.292 88.3967 11.6C88.6393 11.8987 88.994 12.048 89.4607 12.048C89.8433 12.048 90.212 11.9733 90.5667 11.824C90.9307 11.6653 91.2527 11.4553 91.5327 11.194V5.72H92.7927V11.11C92.7927 11.5113 92.8767 11.7773 93.0447 11.908C93.222 12.0293 93.4133 12.09 93.6187 12.09L93.3527 13.07C92.4847 13.07 91.948 12.7247 91.7427 12.034C91.416 12.37 91.038 12.6453 90.6087 12.86C90.1793 13.0653 89.7173 13.168 89.2227 13.168ZM100.08 13.126L97.6299 10.088L95.2079 13.098L94.3119 12.314L96.9019 9.304L94.4099 6.42L95.3899 5.566L97.6439 8.478L99.8559 5.622L100.794 6.42L98.3719 9.248L101.032 12.314L100.08 13.126Z" fill="#999999"/>
<path d="M5.026 44.168C4.17667 44.168 3.42533 43.9673 2.772 43.566C2.11867 43.1553 1.61 42.5767 1.246 41.83C0.882 41.074 0.7 40.178 0.7 39.142C0.7 38.1433 0.882 37.2613 1.246 36.496C1.61933 35.7213 2.142 35.1193 2.814 34.69C3.49533 34.2513 4.28867 34.032 5.194 34.032C5.66067 34.032 6.08533 34.0787 6.468 34.172C6.85067 34.256 7.21 34.3773 7.546 34.536L7.14 35.656C6.85067 35.516 6.552 35.404 6.244 35.32C5.94533 35.236 5.59067 35.194 5.18 35.194C4.58267 35.194 4.046 35.348 3.57 35.656C3.10333 35.964 2.73467 36.4073 2.464 36.986C2.19333 37.5647 2.058 38.2647 2.058 39.086C2.058 39.87 2.18867 40.556 2.45 41.144C2.72067 41.732 3.08933 42.1893 3.556 42.516C4.032 42.8427 4.57333 43.006 5.18 43.006C5.63733 43.006 6.034 42.95 6.37 42.838C6.706 42.726 7.03267 42.5813 7.35 42.404L7.756 43.51C7.41067 43.6967 7.014 43.8553 6.566 43.986C6.12733 44.1073 5.614 44.168 5.026 44.168ZM12.0747 44.168C11.384 44.168 10.7633 44.0093 10.2127 43.692C9.66201 43.3653 9.22801 42.9173 8.91067 42.348C8.60267 41.7693 8.44867 41.1067 8.44867 40.36C8.44867 39.576 8.60734 38.8993 8.92467 38.33C9.24201 37.7607 9.67601 37.322 10.2267 37.014C10.7773 36.706 11.3933 36.552 12.0747 36.552C12.756 36.552 13.3673 36.706 13.9087 37.014C14.4593 37.322 14.8933 37.7607 15.2107 38.33C15.5373 38.89 15.7007 39.5573 15.7007 40.332C15.7007 41.1067 15.542 41.7833 15.2247 42.362C14.9073 42.9313 14.4733 43.3747 13.9227 43.692C13.3813 44.0093 12.7653 44.168 12.0747 44.168ZM12.0747 43.048C12.812 43.048 13.386 42.8007 13.7967 42.306C14.2073 41.802 14.4127 41.1533 14.4127 40.36C14.4127 39.8747 14.31 39.4313 14.1047 39.03C13.8993 38.6193 13.6193 38.2927 13.2647 38.05C12.9193 37.798 12.5227 37.672 12.0747 37.672C11.3373 37.672 10.7633 37.9147 10.3527 38.4C9.94201 38.8853 9.73667 39.5293 9.73667 40.332C9.73667 40.8173 9.83934 41.27 10.0447 41.69C10.25 42.1007 10.5253 42.432 10.8707 42.684C11.2253 42.9267 11.6267 43.048 12.0747 43.048ZM17.3759 44V36.72H18.5939V37.938C18.8552 37.546 19.1865 37.2193 19.5879 36.958C19.9985 36.6873 20.4839 36.552 21.0439 36.552C21.8652 36.552 22.4765 36.7993 22.8779 37.294C23.2885 37.7887 23.4939 38.442 23.4939 39.254V44H22.2339V39.394C22.2339 38.8713 22.1079 38.4513 21.8559 38.134C21.6132 37.8167 21.2725 37.658 20.8339 37.658C20.4045 37.658 19.9985 37.812 19.6159 38.12C19.2332 38.4187 18.9065 38.7733 18.6359 39.184V44H17.3759ZM28.419 44.168C27.8217 44.168 27.2757 44.014 26.781 43.706C26.2863 43.398 25.8943 42.964 25.605 42.404C25.3157 41.8347 25.171 41.1673 25.171 40.402C25.171 39.6647 25.3157 39.0067 25.605 38.428C25.9037 37.8493 26.2957 37.392 26.781 37.056C27.2757 36.72 27.817 36.552 28.405 36.552C28.8903 36.552 29.3057 36.65 29.651 36.846C30.0057 37.042 30.281 37.2427 30.477 37.448V33.64H31.737V42.236C31.737 42.5907 31.821 42.824 31.989 42.936C32.1663 43.0387 32.3577 43.09 32.563 43.09L32.297 44.07C31.4103 44.07 30.869 43.7153 30.673 43.006C30.4677 43.2953 30.1783 43.5613 29.805 43.804C29.441 44.0467 28.979 44.168 28.419 44.168ZM28.699 43.048C29.0443 43.048 29.371 42.9687 29.679 42.81C29.9963 42.642 30.2623 42.4273 30.477 42.166V38.554C30.2997 38.33 30.0523 38.1247 29.735 37.938C29.4177 37.742 29.0677 37.644 28.685 37.644C28.237 37.644 27.845 37.7653 27.509 38.008C27.173 38.2507 26.9117 38.5773 26.725 38.988C26.5477 39.3893 26.459 39.8467 26.459 40.36C26.459 40.8733 26.557 41.3353 26.753 41.746C26.949 42.1473 27.215 42.4647 27.551 42.698C27.8963 42.9313 28.279 43.048 28.699 43.048ZM34.247 44V36.72H35.507V44H34.247ZM34.877 35.474C34.6343 35.474 34.4243 35.3853 34.247 35.208C34.079 35.0307 33.995 34.8253 33.995 34.592C33.995 34.3213 34.0743 34.1067 34.233 33.948C34.3916 33.7893 34.6063 33.71 34.877 33.71C35.1196 33.71 35.325 33.7987 35.493 33.976C35.6703 34.144 35.759 34.3493 35.759 34.592C35.759 34.8533 35.6796 35.068 35.521 35.236C35.3623 35.3947 35.1476 35.474 34.877 35.474ZM40.295 44.168C39.595 44.168 39.0396 43.9393 38.629 43.482C38.2276 43.0153 38.027 42.3527 38.027 41.494V38.078H36.767V36.986H38.055L38.321 34.69H39.287V36.986H41.303V38.078H39.287V41.592C39.287 42.1333 39.399 42.5113 39.623 42.726C39.8563 42.9407 40.1316 43.048 40.449 43.048C40.6823 43.048 40.9016 43.0107 41.107 42.936C41.3216 42.8613 41.5176 42.7727 41.695 42.67L42.045 43.678C41.8583 43.79 41.6063 43.8973 41.289 44C40.9716 44.112 40.6403 44.168 40.295 44.168ZM43.3114 44V36.72H44.5714V44H43.3114ZM43.9414 35.474C43.6987 35.474 43.4887 35.3853 43.3114 35.208C43.1434 35.0307 43.0594 34.8253 43.0594 34.592C43.0594 34.3213 43.1387 34.1067 43.2974 33.948C43.4561 33.7893 43.6707 33.71 43.9414 33.71C44.1841 33.71 44.3894 33.7987 44.5574 33.976C44.7347 34.144 44.8234 34.3493 44.8234 34.592C44.8234 34.8533 44.7441 35.068 44.5854 35.236C44.4267 35.3947 44.2121 35.474 43.9414 35.474ZM49.8774 44.168C49.1867 44.168 48.5661 44.0093 48.0154 43.692C47.4647 43.3653 47.0307 42.9173 46.7134 42.348C46.4054 41.7693 46.2514 41.1067 46.2514 40.36C46.2514 39.576 46.4101 38.8993 46.7274 38.33C47.0447 37.7607 47.4787 37.322 48.0294 37.014C48.5801 36.706 49.1961 36.552 49.8774 36.552C50.5587 36.552 51.1701 36.706 51.7114 37.014C52.2621 37.322 52.6961 37.7607 53.0134 38.33C53.3401 38.89 53.5034 39.5573 53.5034 40.332C53.5034 41.1067 53.3447 41.7833 53.0274 42.362C52.7101 42.9313 52.2761 43.3747 51.7254 43.692C51.1841 44.0093 50.5681 44.168 49.8774 44.168ZM49.8774 43.048C50.6147 43.048 51.1887 42.8007 51.5994 42.306C52.0101 41.802 52.2154 41.1533 52.2154 40.36C52.2154 39.8747 52.1127 39.4313 51.9074 39.03C51.7021 38.6193 51.4221 38.2927 51.0674 38.05C50.7221 37.798 50.3254 37.672 49.8774 37.672C49.1401 37.672 48.5661 37.9147 48.1554 38.4C47.7447 38.8853 47.5394 39.5293 47.5394 40.332C47.5394 40.8173 47.6421 41.27 47.8474 41.69C48.0527 42.1007 48.3281 42.432 48.6734 42.684C49.0281 42.9267 49.4294 43.048 49.8774 43.048ZM55.1786 44V36.72H56.3966V37.938C56.6579 37.546 56.9893 37.2193 57.3906 36.958C57.8013 36.6873 58.2866 36.552 58.8466 36.552C59.6679 36.552 60.2793 36.7993 60.6806 37.294C61.0913 37.7887 61.2966 38.442 61.2966 39.254V44H60.0366V39.394C60.0366 38.8713 59.9106 38.4513 59.6586 38.134C59.4159 37.8167 59.0753 37.658 58.6366 37.658C58.2073 37.658 57.8013 37.812 57.4186 38.12C57.0359 38.4187 56.7093 38.7733 56.4386 39.184V44H55.1786ZM65.4238 44.168C64.8731 44.168 64.3738 44.098 63.9258 43.958C63.4871 43.818 63.1231 43.636 62.8338 43.412L63.3658 42.362C63.6084 42.5673 63.9118 42.74 64.2758 42.88C64.6491 43.0107 65.0458 43.076 65.4658 43.076C65.9884 43.076 66.3804 42.992 66.6418 42.824C66.9124 42.6467 67.0478 42.4227 67.0478 42.152C67.0478 41.956 66.9964 41.7833 66.8938 41.634C66.8004 41.4847 66.6231 41.34 66.3618 41.2C66.1004 41.0507 65.7224 40.892 65.2278 40.724C64.5464 40.4907 64.0331 40.2153 63.6878 39.898C63.3518 39.5713 63.1838 39.1233 63.1838 38.554C63.1838 37.994 63.4264 37.5227 63.9118 37.14C64.4064 36.748 65.0878 36.552 65.9558 36.552C66.4224 36.552 66.8378 36.6033 67.2018 36.706C67.5658 36.7993 67.8924 36.9207 68.1818 37.07L67.8318 38.106C67.5798 37.9567 67.2904 37.8353 66.9638 37.742C66.6464 37.6487 66.2918 37.602 65.8998 37.602C65.4144 37.602 65.0458 37.7 64.7938 37.896C64.5418 38.092 64.4158 38.3067 64.4158 38.54C64.4158 38.764 64.5138 38.9553 64.7098 39.114C64.9058 39.2727 65.2884 39.4453 65.8578 39.632C66.7818 39.94 67.4258 40.2807 67.7898 40.654C68.1538 41.0273 68.3358 41.494 68.3358 42.054C68.3358 42.7073 68.0698 43.2253 67.5378 43.608C67.0151 43.9813 66.3104 44.168 65.4238 44.168ZM76.9678 44.168C76.3705 44.168 75.8245 44.014 75.3298 43.706C74.8352 43.398 74.4432 42.964 74.1538 42.404C73.8645 41.8347 73.7198 41.1673 73.7198 40.402C73.7198 39.6647 73.8645 39.0067 74.1538 38.428C74.4525 37.8493 74.8445 37.392 75.3298 37.056C75.8245 36.72 76.3658 36.552 76.9538 36.552C77.4392 36.552 77.8545 36.65 78.1998 36.846C78.5545 37.042 78.8298 37.2427 79.0258 37.448V33.64H80.2858V42.236C80.2858 42.5907 80.3698 42.824 80.5378 42.936C80.7152 43.0387 80.9065 43.09 81.1118 43.09L80.8458 44.07C79.9592 44.07 79.4178 43.7153 79.2218 43.006C79.0165 43.2953 78.7272 43.5613 78.3538 43.804C77.9898 44.0467 77.5278 44.168 76.9678 44.168ZM77.2478 43.048C77.5932 43.048 77.9198 42.9687 78.2278 42.81C78.5452 42.642 78.8112 42.4273 79.0258 42.166V38.554C78.8485 38.33 78.6012 38.1247 78.2838 37.938C77.9665 37.742 77.6165 37.644 77.2338 37.644C76.7858 37.644 76.3938 37.7653 76.0578 38.008C75.7218 38.2507 75.4605 38.5773 75.2738 38.988C75.0965 39.3893 75.0078 39.8467 75.0078 40.36C75.0078 40.8733 75.1058 41.3353 75.3018 41.746C75.4978 42.1473 75.7638 42.4647 76.0998 42.698C76.4452 42.9313 76.8278 43.048 77.2478 43.048ZM82.8798 36.972L82.5578 36.482C83.0431 36.146 83.3324 35.7213 83.4258 35.208C83.3418 35.2453 83.2438 35.264 83.1318 35.264C82.8704 35.264 82.6558 35.18 82.4878 35.012C82.3198 34.844 82.2358 34.6293 82.2358 34.368C82.2358 34.0973 82.3244 33.8827 82.5018 33.724C82.6791 33.556 82.9031 33.472 83.1738 33.472C83.5004 33.472 83.7664 33.5793 83.9718 33.794C84.1864 34.0087 84.2938 34.3167 84.2938 34.718C84.2938 35.1473 84.1678 35.572 83.9158 35.992C83.6731 36.4027 83.3278 36.7293 82.8798 36.972ZM88.3477 44.168C87.9277 44.168 87.531 44.0793 87.1577 43.902C86.7843 43.7247 86.481 43.44 86.2477 43.048C86.0143 42.6467 85.8977 42.1147 85.8977 41.452V36.72H87.1577V41.284C87.1577 41.8533 87.279 42.292 87.5217 42.6C87.7643 42.8987 88.119 43.048 88.5857 43.048C88.9683 43.048 89.337 42.9733 89.6917 42.824C90.0557 42.6653 90.3777 42.4553 90.6577 42.194V36.72H91.9177V42.11C91.9177 42.5113 92.0017 42.7773 92.1697 42.908C92.347 43.0293 92.5383 43.09 92.7437 43.09L92.4777 44.07C91.6097 44.07 91.073 43.7247 90.8677 43.034C90.541 43.37 90.163 43.6453 89.7337 43.86C89.3043 44.0653 88.8423 44.168 88.3477 44.168ZM96.9649 44.168C96.2649 44.168 95.7095 43.9393 95.2989 43.482C94.8975 43.0153 94.6969 42.3527 94.6969 41.494V38.078H93.4369V36.986H94.7249L94.9909 34.69H95.9569V36.986H97.9729V38.078H95.9569V41.592C95.9569 42.1333 96.0689 42.5113 96.2929 42.726C96.5262 42.9407 96.8015 43.048 97.1189 43.048C97.3522 43.048 97.5715 43.0107 97.7769 42.936C97.9915 42.8613 98.1875 42.7727 98.3649 42.67L98.7149 43.678C98.5282 43.79 98.2762 43.8973 97.9589 44C97.6415 44.112 97.3102 44.168 96.9649 44.168ZM99.9813 44V36.72H101.241V44H99.9813ZM100.611 35.474C100.369 35.474 100.159 35.3853 99.9813 35.208C99.8133 35.0307 99.7293 34.8253 99.7293 34.592C99.7293 34.3213 99.8087 34.1067 99.9673 33.948C100.126 33.7893 100.341 33.71 100.611 33.71C100.854 33.71 101.059 33.7987 101.227 33.976C101.405 34.144 101.493 34.3493 101.493 34.592C101.493 34.8533 101.414 35.068 101.255 35.236C101.097 35.3947 100.882 35.474 100.611 35.474ZM105.693 44.168C105.264 44.168 104.877 44.0887 104.531 43.93C104.186 43.762 103.911 43.496 103.705 43.132C103.509 42.768 103.411 42.2967 103.411 41.718V33.64H104.671V41.592C104.671 42.096 104.774 42.4693 104.979 42.712C105.194 42.9547 105.488 43.076 105.861 43.076C106.039 43.076 106.211 43.0573 106.379 43.02C106.557 42.9733 106.706 42.922 106.827 42.866L107.135 43.888C106.967 43.9627 106.757 44.028 106.505 44.084C106.263 44.14 105.992 44.168 105.693 44.168ZM108.321 44V36.72H109.581V44H108.321ZM108.951 35.474C108.709 35.474 108.499 35.3853 108.321 35.208C108.153 35.0307 108.069 34.8253 108.069 34.592C108.069 34.3213 108.149 34.1067 108.307 33.948C108.466 33.7893 108.681 33.71 108.951 33.71C109.194 33.71 109.399 33.7987 109.567 33.976C109.745 34.144 109.833 34.3493 109.833 34.592C109.833 34.8533 109.754 35.068 109.595 35.236C109.437 35.3947 109.222 35.474 108.951 35.474ZM113.781 44.168C113.231 44.168 112.731 44.098 112.283 43.958C111.845 43.818 111.481 43.636 111.191 43.412L111.723 42.362C111.966 42.5673 112.269 42.74 112.633 42.88C113.007 43.0107 113.403 43.076 113.823 43.076C114.346 43.076 114.738 42.992 114.999 42.824C115.27 42.6467 115.405 42.4227 115.405 42.152C115.405 41.956 115.354 41.7833 115.251 41.634C115.158 41.4847 114.981 41.34 114.719 41.2C114.458 41.0507 114.08 40.892 113.585 40.724C112.904 40.4907 112.391 40.2153 112.045 39.898C111.709 39.5713 111.541 39.1233 111.541 38.554C111.541 37.994 111.784 37.5227 112.269 37.14C112.764 36.748 113.445 36.552 114.313 36.552C114.78 36.552 115.195 36.6033 115.559 36.706C115.923 36.7993 116.25 36.9207 116.539 37.07L116.189 38.106C115.937 37.9567 115.648 37.8353 115.321 37.742C115.004 37.6487 114.649 37.602 114.257 37.602C113.772 37.602 113.403 37.7 113.151 37.896C112.899 38.092 112.773 38.3067 112.773 38.54C112.773 38.764 112.871 38.9553 113.067 39.114C113.263 39.2727 113.646 39.4453 114.215 39.632C115.139 39.94 115.783 40.2807 116.147 40.654C116.511 41.0273 116.693 41.494 116.693 42.054C116.693 42.7073 116.427 43.2253 115.895 43.608C115.373 43.9813 114.668 44.168 113.781 44.168ZM121.156 44.168C120.549 44.168 119.999 44.014 119.504 43.706C119.009 43.398 118.613 42.964 118.314 42.404C118.025 41.8347 117.88 41.1673 117.88 40.402C117.88 39.674 118.025 39.0207 118.314 38.442C118.613 37.8633 119.019 37.406 119.532 37.07C120.055 36.7247 120.652 36.552 121.324 36.552C121.744 36.552 122.122 36.6267 122.458 36.776C122.803 36.916 123.102 37.0933 123.354 37.308V36.72H124.502V42.236C124.502 42.5907 124.586 42.824 124.754 42.936C124.931 43.0387 125.123 43.09 125.328 43.09L125.062 44.07C124.166 44.07 123.625 43.706 123.438 42.978C123.223 43.2767 122.929 43.552 122.556 43.804C122.192 44.0467 121.725 44.168 121.156 44.168ZM121.436 43.048C121.791 43.048 122.127 42.964 122.444 42.796C122.761 42.6187 123.027 42.3993 123.242 42.138V38.232C122.99 38.0547 122.71 37.9147 122.402 37.812C122.103 37.7 121.786 37.644 121.45 37.644C121.002 37.644 120.605 37.7607 120.26 37.994C119.924 38.218 119.658 38.5353 119.462 38.946C119.266 39.3473 119.168 39.8187 119.168 40.36C119.168 40.8827 119.266 41.3493 119.462 41.76C119.658 42.1613 119.929 42.4787 120.274 42.712C120.619 42.936 121.007 43.048 121.436 43.048ZM129.559 44.168C128.859 44.168 128.303 43.9393 127.893 43.482C127.491 43.0153 127.291 42.3527 127.291 41.494V38.078H126.031V36.986H127.319L127.585 34.69H128.551V36.986H130.567V38.078H128.551V41.592C128.551 42.1333 128.663 42.5113 128.887 42.726C129.12 42.9407 129.395 43.048 129.713 43.048C129.946 43.048 130.165 43.0107 130.371 42.936C130.585 42.8613 130.781 42.7727 130.959 42.67L131.309 43.678C131.122 43.79 130.87 43.8973 130.553 44C130.235 44.112 129.904 44.168 129.559 44.168ZM132.575 44V36.72H133.835V44H132.575ZM133.205 35.474C132.962 35.474 132.752 35.3853 132.575 35.208C132.407 35.0307 132.323 34.8253 132.323 34.592C132.323 34.3213 132.402 34.1067 132.561 33.948C132.72 33.7893 132.934 33.71 133.205 33.71C133.448 33.71 133.653 33.7987 133.821 33.976C133.998 34.144 134.087 34.3493 134.087 34.592C134.087 34.8533 134.008 35.068 133.849 35.236C133.69 35.3947 133.476 35.474 133.205 35.474ZM139.141 44.168C138.45 44.168 137.83 44.0093 137.279 43.692C136.728 43.3653 136.294 42.9173 135.977 42.348C135.669 41.7693 135.515 41.1067 135.515 40.36C135.515 39.576 135.674 38.8993 135.991 38.33C136.308 37.7607 136.742 37.322 137.293 37.014C137.844 36.706 138.46 36.552 139.141 36.552C139.822 36.552 140.434 36.706 140.975 37.014C141.526 37.322 141.96 37.7607 142.277 38.33C142.604 38.89 142.767 39.5573 142.767 40.332C142.767 41.1067 142.608 41.7833 142.291 42.362C141.974 42.9313 141.54 43.3747 140.989 43.692C140.448 44.0093 139.832 44.168 139.141 44.168ZM139.141 43.048C139.878 43.048 140.452 42.8007 140.863 42.306C141.274 41.802 141.479 41.1533 141.479 40.36C141.479 39.8747 141.376 39.4313 141.171 39.03C140.966 38.6193 140.686 38.2927 140.331 38.05C139.986 37.798 139.589 37.672 139.141 37.672C138.404 37.672 137.83 37.9147 137.419 38.4C137.008 38.8853 136.803 39.5293 136.803 40.332C136.803 40.8173 136.906 41.27 137.111 41.69C137.316 42.1007 137.592 42.432 137.937 42.684C138.292 42.9267 138.693 43.048 139.141 43.048ZM144.442 44V36.72H145.66V37.938C145.922 37.546 146.253 37.2193 146.654 36.958C147.065 36.6873 147.55 36.552 148.11 36.552C148.932 36.552 149.543 36.7993 149.944 37.294C150.355 37.7887 150.56 38.442 150.56 39.254V44H149.3V39.394C149.3 38.8713 149.174 38.4513 148.922 38.134C148.68 37.8167 148.339 37.658 147.9 37.658C147.471 37.658 147.065 37.812 146.682 38.12C146.3 38.4187 145.973 38.7733 145.702 39.184V44H144.442Z" fill="#999999"/>
<path d="M1.26 75V65.2H3.122L5.838 71.402L8.512 65.2H10.416V75H9.086V66.894L6.468 72.788H5.152L2.52 66.894V75H1.26ZM15.7078 75.168C14.6624 75.168 13.8318 74.8367 13.2158 74.174C12.6091 73.502 12.3058 72.564 12.3058 71.36C12.3058 70.632 12.4411 69.9833 12.7118 69.414C12.9918 68.8353 13.3791 68.3827 13.8738 68.056C14.3684 67.72 14.9424 67.552 15.5958 67.552C16.2958 67.552 16.8744 67.706 17.3318 68.014C17.7984 68.3127 18.1484 68.7187 18.3818 69.232C18.6151 69.7453 18.7318 70.31 18.7318 70.926C18.7318 71.2527 18.7178 71.57 18.6898 71.878H13.5938C13.6778 72.5593 13.9158 73.0913 14.3078 73.474C14.6998 73.8567 15.2178 74.048 15.8618 74.048C16.2818 74.048 16.6598 74.006 16.9958 73.922C17.3318 73.8287 17.6538 73.712 17.9618 73.572L18.2558 74.65C17.9198 74.7993 17.5418 74.9207 17.1218 75.014C16.7018 75.1167 16.2304 75.168 15.7078 75.168ZM13.5798 70.856H17.5698C17.5698 70.1467 17.3924 69.6007 17.0378 69.218C16.6831 68.8353 16.1931 68.644 15.5678 68.644C15.0264 68.644 14.5784 68.8353 14.2238 69.218C13.8691 69.5913 13.6544 70.1373 13.5798 70.856ZM20.411 75V67.72H21.629V68.938C21.8903 68.546 22.2217 68.2193 22.623 67.958C23.0337 67.6873 23.519 67.552 24.079 67.552C24.9003 67.552 25.5117 67.7993 25.913 68.294C26.3237 68.7887 26.529 69.442 26.529 70.254V75H25.269V70.394C25.269 69.8713 25.143 69.4513 24.891 69.134C24.6483 68.8167 24.3077 68.658 23.869 68.658C23.4397 68.658 23.0337 68.812 22.651 69.12C22.2683 69.4187 21.9417 69.7733 21.671 70.184V75H20.411ZM31.2442 75.168C30.5442 75.168 29.9888 74.9393 29.5782 74.482C29.1768 74.0153 28.9762 73.3527 28.9762 72.494V69.078H27.7162V67.986H29.0042L29.2702 65.69H30.2362V67.986H32.2522V69.078H30.2362V72.592C30.2362 73.1333 30.3482 73.5113 30.5722 73.726C30.8055 73.9407 31.0808 74.048 31.3982 74.048C31.6315 74.048 31.8508 74.0107 32.0562 73.936C32.2708 73.8613 32.4668 73.7727 32.6442 73.67L32.9942 74.678C32.8075 74.79 32.5555 74.8973 32.2382 75C31.9208 75.112 31.5895 75.168 31.2442 75.168ZM34.2606 75V67.72H35.5206V75H34.2606ZM34.8906 66.474C34.648 66.474 34.438 66.3853 34.2606 66.208C34.0926 66.0307 34.0086 65.8253 34.0086 65.592C34.0086 65.3213 34.088 65.1067 34.2466 64.948C34.4053 64.7893 34.62 64.71 34.8906 64.71C35.1333 64.71 35.3386 64.7987 35.5066 64.976C35.684 65.144 35.7726 65.3493 35.7726 65.592C35.7726 65.8533 35.6933 66.068 35.5346 66.236C35.376 66.3947 35.1613 66.474 34.8906 66.474ZM40.8266 75.168C40.136 75.168 39.5153 75.0093 38.9646 74.692C38.414 74.3653 37.98 73.9173 37.6626 73.348C37.3546 72.7693 37.2006 72.1067 37.2006 71.36C37.2006 70.576 37.3593 69.8993 37.6766 69.33C37.994 68.7607 38.428 68.322 38.9786 68.014C39.5293 67.706 40.1453 67.552 40.8266 67.552C41.508 67.552 42.1193 67.706 42.6606 68.014C43.2113 68.322 43.6453 68.7607 43.9626 69.33C44.2893 69.89 44.4526 70.5573 44.4526 71.332C44.4526 72.1067 44.294 72.7833 43.9766 73.362C43.6593 73.9313 43.2253 74.3747 42.6746 74.692C42.1333 75.0093 41.5173 75.168 40.8266 75.168ZM40.8266 74.048C41.564 74.048 42.138 73.8007 42.5486 73.306C42.9593 72.802 43.1646 72.1533 43.1646 71.36C43.1646 70.8747 43.062 70.4313 42.8566 70.03C42.6513 69.6193 42.3713 69.2927 42.0166 69.05C41.6713 68.798 41.2746 68.672 40.8266 68.672C40.0893 68.672 39.5153 68.9147 39.1046 69.4C38.694 69.8853 38.4886 70.5293 38.4886 71.332C38.4886 71.8173 38.5913 72.27 38.7966 72.69C39.002 73.1007 39.2773 73.432 39.6226 73.684C39.9773 73.9267 40.3786 74.048 40.8266 74.048ZM46.1278 75V67.72H47.3458V68.938C47.6071 68.546 47.9385 68.2193 48.3398 67.958C48.7505 67.6873 49.2358 67.552 49.7958 67.552C50.6171 67.552 51.2285 67.7993 51.6298 68.294C52.0405 68.7887 52.2458 69.442 52.2458 70.254V75H50.9858V70.394C50.9858 69.8713 50.8598 69.4513 50.6078 69.134C50.3651 68.8167 50.0245 68.658 49.5858 68.658C49.1565 68.658 48.7505 68.812 48.3678 69.12C47.9851 69.4187 47.6585 69.7733 47.3878 70.184V75H46.1278ZM56.373 75.168C55.8223 75.168 55.323 75.098 54.875 74.958C54.4363 74.818 54.0723 74.636 53.783 74.412L54.315 73.362C54.5576 73.5673 54.861 73.74 55.225 73.88C55.5983 74.0107 55.995 74.076 56.415 74.076C56.9376 74.076 57.3296 73.992 57.591 73.824C57.8616 73.6467 57.997 73.4227 57.997 73.152C57.997 72.956 57.9456 72.7833 57.843 72.634C57.7496 72.4847 57.5723 72.34 57.311 72.2C57.0496 72.0507 56.6716 71.892 56.177 71.724C55.4956 71.4907 54.9823 71.2153 54.637 70.898C54.301 70.5713 54.133 70.1233 54.133 69.554C54.133 68.994 54.3756 68.5227 54.861 68.14C55.3556 67.748 56.037 67.552 56.905 67.552C57.3716 67.552 57.787 67.6033 58.151 67.706C58.515 67.7993 58.8416 67.9207 59.131 68.07L58.781 69.106C58.529 68.9567 58.2396 68.8353 57.913 68.742C57.5956 68.6487 57.241 68.602 56.849 68.602C56.3636 68.602 55.995 68.7 55.743 68.896C55.491 69.092 55.365 69.3067 55.365 69.54C55.365 69.764 55.463 69.9553 55.659 70.114C55.855 70.2727 56.2376 70.4453 56.807 70.632C57.731 70.94 58.375 71.2807 58.739 71.654C59.103 72.0273 59.285 72.494 59.285 73.054C59.285 73.7073 59.019 74.2253 58.487 74.608C57.9643 74.9813 57.2596 75.168 56.373 75.168ZM67.3711 75.168C66.9417 75.168 66.5544 75.0887 66.2091 74.93C65.8637 74.762 65.5884 74.496 65.3831 74.132C65.1871 73.768 65.0891 73.2967 65.0891 72.718V64.64H66.3491V72.592C66.3491 73.096 66.4517 73.4693 66.6571 73.712C66.8717 73.9547 67.1657 74.076 67.5391 74.076C67.7164 74.076 67.8891 74.0573 68.0571 74.02C68.2344 73.9733 68.3837 73.922 68.5051 73.866L68.8131 74.888C68.6451 74.9627 68.4351 75.028 68.1831 75.084C67.9404 75.14 67.6697 75.168 67.3711 75.168ZM72.7058 75.168C71.6605 75.168 70.8298 74.8367 70.2138 74.174C69.6072 73.502 69.3038 72.564 69.3038 71.36C69.3038 70.632 69.4392 69.9833 69.7098 69.414C69.9898 68.8353 70.3772 68.3827 70.8718 68.056C71.3665 67.72 71.9405 67.552 72.5938 67.552C73.2938 67.552 73.8725 67.706 74.3298 68.014C74.7965 68.3127 75.1465 68.7187 75.3798 69.232C75.6132 69.7453 75.7298 70.31 75.7298 70.926C75.7298 71.2527 75.7158 71.57 75.6878 71.878H70.5918C70.6758 72.5593 70.9138 73.0913 71.3058 73.474C71.6978 73.8567 72.2158 74.048 72.8598 74.048C73.2798 74.048 73.6578 74.006 73.9938 73.922C74.3298 73.8287 74.6518 73.712 74.9598 73.572L75.2538 74.65C74.9178 74.7993 74.5398 74.9207 74.1198 75.014C73.6998 75.1167 73.2285 75.168 72.7058 75.168ZM70.5778 70.856H74.5678C74.5678 70.1467 74.3905 69.6007 74.0358 69.218C73.6812 68.8353 73.1912 68.644 72.5658 68.644C72.0245 68.644 71.5765 68.8353 71.2218 69.218C70.8672 69.5913 70.6525 70.1373 70.5778 70.856ZM71.4318 66.95L70.9978 66.096L73.6438 64.346L74.2318 65.522L71.4318 66.95ZM80.0831 78.248C79.6537 78.248 79.2337 78.1967 78.8231 78.094C78.4217 77.9913 78.0624 77.8373 77.7451 77.632L78.2071 76.54C78.4311 76.7173 78.6924 76.862 78.9911 76.974C79.2897 77.0953 79.6537 77.156 80.0831 77.156C80.7457 77.156 81.2637 76.9787 81.6371 76.624C82.0197 76.2787 82.2111 75.7233 82.2111 74.958V74.062C82.0244 74.286 81.7537 74.5007 81.3991 74.706C81.0537 74.902 80.6384 75 80.1531 75C79.6024 75 79.0797 74.86 78.5851 74.58C78.0904 74.2907 77.6891 73.8707 77.3811 73.32C77.0731 72.7693 76.9191 72.1067 76.9191 71.332C76.9191 70.604 77.0684 69.9553 77.3671 69.386C77.6751 68.8167 78.0857 68.3687 78.5991 68.042C79.1124 67.7153 79.6771 67.552 80.2931 67.552C80.7037 67.552 81.0771 67.622 81.4131 67.762C81.7491 67.902 82.0384 68.0747 82.2811 68.28V67.72H83.4291V74.832C83.4291 75.6347 83.2891 76.288 83.0091 76.792C82.7291 77.296 82.3371 77.6647 81.8331 77.898C81.3384 78.1313 80.7551 78.248 80.0831 78.248ZM80.4331 73.88C80.8064 73.88 81.1424 73.796 81.4411 73.628C81.7397 73.46 81.9824 73.264 82.1691 73.04V69.232C81.9637 69.0827 81.7164 68.9473 81.4271 68.826C81.1377 68.7047 80.8017 68.644 80.4191 68.644C80.0364 68.644 79.6771 68.7467 79.3411 68.952C79.0051 69.1573 78.7297 69.456 78.5151 69.848C78.3097 70.2307 78.2071 70.702 78.2071 71.262C78.2071 71.794 78.3097 72.256 78.5151 72.648C78.7297 73.04 79.0051 73.3433 79.3411 73.558C79.6771 73.7727 80.0411 73.88 80.4331 73.88ZM88.3845 75.168C87.7778 75.168 87.2272 75.014 86.7325 74.706C86.2378 74.398 85.8412 73.964 85.5425 73.404C85.2532 72.8347 85.1085 72.1673 85.1085 71.402C85.1085 70.674 85.2532 70.0207 85.5425 69.442C85.8412 68.8633 86.2472 68.406 86.7605 68.07C87.2832 67.7247 87.8805 67.552 88.5525 67.552C88.9725 67.552 89.3505 67.6267 89.6865 67.776C90.0318 67.916 90.3305 68.0933 90.5825 68.308V67.72H91.7305V73.236C91.7305 73.5907 91.8145 73.824 91.9825 73.936C92.1598 74.0387 92.3512 74.09 92.5565 74.09L92.2905 75.07C91.3945 75.07 90.8532 74.706 90.6665 73.978C90.4518 74.2767 90.1578 74.552 89.7845 74.804C89.4205 75.0467 88.9538 75.168 88.3845 75.168ZM88.6645 74.048C89.0192 74.048 89.3552 73.964 89.6725 73.796C89.9898 73.6187 90.2558 73.3993 90.4705 73.138V69.232C90.2185 69.0547 89.9385 68.9147 89.6305 68.812C89.3318 68.7 89.0145 68.644 88.6785 68.644C88.2305 68.644 87.8338 68.7607 87.4885 68.994C87.1525 69.218 86.8865 69.5353 86.6905 69.946C86.4945 70.3473 86.3965 70.8187 86.3965 71.36C86.3965 71.8827 86.4945 72.3493 86.6905 72.76C86.8865 73.1613 87.1572 73.4787 87.5025 73.712C87.8478 73.936 88.2352 74.048 88.6645 74.048ZM96.4511 75.168C96.0218 75.168 95.6345 75.0887 95.2891 74.93C94.9438 74.762 94.6685 74.496 94.4631 74.132C94.2671 73.768 94.1691 73.2967 94.1691 72.718V64.64H95.4291V72.592C95.4291 73.096 95.5318 73.4693 95.7371 73.712C95.9518 73.9547 96.2458 74.076 96.6191 74.076C96.7965 74.076 96.9691 74.0573 97.1371 74.02C97.3145 73.9733 97.4638 73.922 97.5851 73.866L97.8931 74.888C97.7251 74.9627 97.5151 75.028 97.2631 75.084C97.0205 75.14 96.7498 75.168 96.4511 75.168ZM101.786 75.168C100.741 75.168 99.9099 74.8367 99.2939 74.174C98.6872 73.502 98.3839 72.564 98.3839 71.36C98.3839 70.632 98.5192 69.9833 98.7899 69.414C99.0699 68.8353 99.4572 68.3827 99.9519 68.056C100.447 67.72 101.021 67.552 101.674 67.552C102.374 67.552 102.953 67.706 103.41 68.014C103.877 68.3127 104.227 68.7187 104.46 69.232C104.693 69.7453 104.81 70.31 104.81 70.926C104.81 71.2527 104.796 71.57 104.768 71.878H99.6719C99.7559 72.5593 99.9939 73.0913 100.386 73.474C100.778 73.8567 101.296 74.048 101.94 74.048C102.36 74.048 102.738 74.006 103.074 73.922C103.41 73.8287 103.732 73.712 104.04 73.572L104.334 74.65C103.998 74.7993 103.62 74.9207 103.2 75.014C102.78 75.1167 102.309 75.168 101.786 75.168ZM99.6579 70.856H103.648C103.648 70.1467 103.471 69.6007 103.116 69.218C102.761 68.8353 102.271 68.644 101.646 68.644C101.105 68.644 100.657 68.8353 100.302 69.218C99.9472 69.5913 99.7326 70.1373 99.6579 70.856ZM108.449 75.168C107.898 75.168 107.399 75.098 106.951 74.958C106.512 74.818 106.148 74.636 105.859 74.412L106.391 73.362C106.634 73.5673 106.937 73.74 107.301 73.88C107.674 74.0107 108.071 74.076 108.491 74.076C109.014 74.076 109.406 73.992 109.667 73.824C109.938 73.6467 110.073 73.4227 110.073 73.152C110.073 72.956 110.022 72.7833 109.919 72.634C109.826 72.4847 109.648 72.34 109.387 72.2C109.126 72.0507 108.748 71.892 108.253 71.724C107.572 71.4907 107.058 71.2153 106.713 70.898C106.377 70.5713 106.209 70.1233 106.209 69.554C106.209 68.994 106.452 68.5227 106.937 68.14C107.432 67.748 108.113 67.552 108.981 67.552C109.448 67.552 109.863 67.6033 110.227 67.706C110.591 67.7993 110.918 67.9207 111.207 68.07L110.857 69.106C110.605 68.9567 110.316 68.8353 109.989 68.742C109.672 68.6487 109.317 68.602 108.925 68.602C108.44 68.602 108.071 68.7 107.819 68.896C107.567 69.092 107.441 69.3067 107.441 69.54C107.441 69.764 107.539 69.9553 107.735 70.114C107.931 70.2727 108.314 70.4453 108.883 70.632C109.807 70.94 110.451 71.2807 110.815 71.654C111.179 72.0273 111.361 72.494 111.361 73.054C111.361 73.7073 111.095 74.2253 110.563 74.608C110.04 74.9813 109.336 75.168 108.449 75.168Z" fill="#999999"/>
</g>
<defs>
<clipPath id="clip0_0_17">
<rect width="144" height="78" fill="white"/>
</clipPath>
</defs>
</svg>
