<svg width="123" height="109" viewBox="0 0 123 109" fill="none" xmlns="http://www.w3.org/2000/svg">
<g clip-path="url(#clip0_0_4)">
<path d="M7.994 13.14L6.902 10.34H2.366L1.274 13.112L0.14 12.65L3.976 3.2H5.432L9.212 12.65L7.994 13.14ZM2.786 9.22H6.468L4.634 4.516L2.786 9.22ZM12.8516 13.168C12.4316 13.168 12.0349 13.0793 11.6616 12.902C11.2882 12.7247 10.9849 12.44 10.7516 12.048C10.5182 11.6467 10.4016 11.1147 10.4016 10.452V5.72H11.6616V10.284C11.6616 10.8533 11.7829 11.292 12.0256 11.6C12.2682 11.8987 12.6229 12.048 13.0896 12.048C13.4722 12.048 13.8409 11.9733 14.1956 11.824C14.5596 11.6653 14.8816 11.4553 15.1616 11.194V5.72H16.4216V11.11C16.4216 11.5113 16.5056 11.7773 16.6736 11.908C16.8509 12.0293 17.0422 12.09 17.2476 12.09L16.9816 13.07C16.1136 13.07 15.5769 12.7247 15.3716 12.034C15.0449 12.37 14.6669 12.6453 14.2376 12.86C13.8082 13.0653 13.3462 13.168 12.8516 13.168ZM21.5421 13.168C20.9447 13.168 20.3987 13.014 19.9041 12.706C19.4094 12.398 19.0174 11.964 18.7281 11.404C18.4387 10.8347 18.2941 10.1673 18.2941 9.402C18.2941 8.66467 18.4387 8.00667 18.7281 7.428C19.0267 6.84933 19.4187 6.392 19.9041 6.056C20.3987 5.72 20.9401 5.552 21.5281 5.552C22.0134 5.552 22.4287 5.65 22.7741 5.846C23.1287 6.042 23.4041 6.24267 23.6001 6.448V2.64H24.8601V11.236C24.8601 11.5907 24.9441 11.824 25.1121 11.936C25.2894 12.0387 25.4807 12.09 25.6861 12.09L25.4201 13.07C24.5334 13.07 23.9921 12.7153 23.7961 12.006C23.5907 12.2953 23.3014 12.5613 22.9281 12.804C22.5641 13.0467 22.1021 13.168 21.5421 13.168ZM21.8221 12.048C22.1674 12.048 22.4941 11.9687 22.8021 11.81C23.1194 11.642 23.3854 11.4273 23.6001 11.166V7.554C23.4227 7.33 23.1754 7.12467 22.8581 6.938C22.5407 6.742 22.1907 6.644 21.8081 6.644C21.3601 6.644 20.9681 6.76533 20.6321 7.008C20.2961 7.25067 20.0347 7.57733 19.8481 7.988C19.6707 8.38933 19.5821 8.84667 19.5821 9.36C19.5821 9.87333 19.6801 10.3353 19.8761 10.746C20.0721 11.1473 20.3381 11.4647 20.6741 11.698C21.0194 11.9313 21.4021 12.048 21.8221 12.048ZM27.37 13V5.72H28.63V13H27.37ZM28 4.474C27.7573 4.474 27.5473 4.38533 27.37 4.208C27.202 4.03067 27.118 3.82533 27.118 3.592C27.118 3.32133 27.1973 3.10667 27.356 2.948C27.5147 2.78933 27.7293 2.71 28 2.71C28.2427 2.71 28.448 2.79867 28.616 2.976C28.7933 3.144 28.882 3.34933 28.882 3.592C28.882 3.85333 28.8027 4.068 28.644 4.236C28.4853 4.39467 28.2707 4.474 28 4.474ZM33.936 13.168C33.2453 13.168 32.6247 13.0093 32.074 12.692C31.5233 12.3653 31.0893 11.9173 30.772 11.348C30.464 10.7693 30.31 10.1067 30.31 9.36C30.31 8.576 30.4687 7.89933 30.786 7.33C31.1033 6.76067 31.5373 6.322 32.088 6.014C32.6387 5.706 33.2547 5.552 33.936 5.552C34.6173 5.552 35.2287 5.706 35.77 6.014C36.3207 6.322 36.7547 6.76067 37.072 7.33C37.3987 7.89 37.562 8.55733 37.562 9.332C37.562 10.1067 37.4033 10.7833 37.086 11.362C36.7687 11.9313 36.3347 12.3747 35.784 12.692C35.2427 13.0093 34.6267 13.168 33.936 13.168ZM33.936 12.048C34.6733 12.048 35.2473 11.8007 35.658 11.306C36.0687 10.802 36.274 10.1533 36.274 9.36C36.274 8.87467 36.1713 8.43133 35.966 8.03C35.7607 7.61933 35.4807 7.29267 35.126 7.05C34.7807 6.798 34.384 6.672 33.936 6.672C33.1987 6.672 32.6247 6.91467 32.214 7.4C31.8033 7.88533 31.598 8.52933 31.598 9.332C31.598 9.81733 31.7007 10.27 31.906 10.69C32.1113 11.1007 32.3867 11.432 32.732 11.684C33.0867 11.9267 33.488 12.048 33.936 12.048ZM46.3465 13.168C45.3011 13.168 44.4705 12.8367 43.8545 12.174C43.2478 11.502 42.9445 10.564 42.9445 9.36C42.9445 8.632 43.0798 7.98333 43.3505 7.414C43.6305 6.83533 44.0178 6.38267 44.5125 6.056C45.0071 5.72 45.5811 5.552 46.2345 5.552C46.9345 5.552 47.5131 5.706 47.9705 6.014C48.4371 6.31267 48.7871 6.71867 49.0205 7.232C49.2538 7.74533 49.3705 8.31 49.3705 8.926C49.3705 9.25267 49.3565 9.57 49.3285 9.878H44.2325C44.3165 10.5593 44.5545 11.0913 44.9465 11.474C45.3385 11.8567 45.8565 12.048 46.5005 12.048C46.9205 12.048 47.2985 12.006 47.6345 11.922C47.9705 11.8287 48.2925 11.712 48.6005 11.572L48.8945 12.65C48.5585 12.7993 48.1805 12.9207 47.7605 13.014C47.3405 13.1167 46.8691 13.168 46.3465 13.168ZM44.2185 8.856H48.2085C48.2085 8.14667 48.0311 7.60067 47.6765 7.218C47.3218 6.83533 46.8318 6.644 46.2065 6.644C45.6651 6.644 45.2171 6.83533 44.8625 7.218C44.5078 7.59133 44.2931 8.13733 44.2185 8.856ZM53.5977 13.168C52.8977 13.168 52.3424 12.9393 51.9317 12.482C51.5304 12.0153 51.3297 11.3527 51.3297 10.494V7.078H50.0697V5.986H51.3577L51.6237 3.69H52.5897V5.986H54.6057V7.078H52.5897V10.592C52.5897 11.1333 52.7017 11.5113 52.9257 11.726C53.159 11.9407 53.4344 12.048 53.7517 12.048C53.985 12.048 54.2044 12.0107 54.4097 11.936C54.6244 11.8613 54.8204 11.7727 54.9977 11.67L55.3477 12.678C55.161 12.79 54.909 12.8973 54.5917 13C54.2744 13.112 53.943 13.168 53.5977 13.168ZM62.7714 13.168C62.2207 13.168 61.7214 13.098 61.2734 12.958C60.8347 12.818 60.4707 12.636 60.1814 12.412L60.7134 11.362C60.9561 11.5673 61.2594 11.74 61.6234 11.88C61.9967 12.0107 62.3934 12.076 62.8134 12.076C63.3361 12.076 63.7281 11.992 63.9894 11.824C64.2601 11.6467 64.3954 11.4227 64.3954 11.152C64.3954 10.956 64.3441 10.7833 64.2414 10.634C64.1481 10.4847 63.9707 10.34 63.7094 10.2C63.4481 10.0507 63.0701 9.892 62.5754 9.724C61.8941 9.49067 61.3807 9.21533 61.0354 8.898C60.6994 8.57133 60.5314 8.12333 60.5314 7.554C60.5314 6.994 60.7741 6.52267 61.2594 6.14C61.7541 5.748 62.4354 5.552 63.3034 5.552C63.7701 5.552 64.1854 5.60333 64.5494 5.706C64.9134 5.79933 65.2401 5.92067 65.5294 6.07L65.1794 7.106C64.9274 6.95667 64.6381 6.83533 64.3114 6.742C63.9941 6.64867 63.6394 6.602 63.2474 6.602C62.7621 6.602 62.3934 6.7 62.1414 6.896C61.8894 7.092 61.7634 7.30667 61.7634 7.54C61.7634 7.764 61.8614 7.95533 62.0574 8.114C62.2534 8.27267 62.6361 8.44533 63.2054 8.632C64.1294 8.94 64.7734 9.28067 65.1374 9.654C65.5014 10.0273 65.6834 10.494 65.6834 11.054C65.6834 11.7073 65.4174 12.2253 64.8854 12.608C64.3627 12.9813 63.6581 13.168 62.7714 13.168ZM70.4262 13.168C69.7356 13.168 69.1149 13.0093 68.5642 12.692C68.0136 12.3653 67.5796 11.9173 67.2622 11.348C66.9542 10.7693 66.8002 10.1067 66.8002 9.36C66.8002 8.576 66.9589 7.89933 67.2762 7.33C67.5936 6.76067 68.0276 6.322 68.5782 6.014C69.1289 5.706 69.7449 5.552 70.4262 5.552C71.1076 5.552 71.7189 5.706 72.2602 6.014C72.8109 6.322 73.2449 6.76067 73.5622 7.33C73.8889 7.89 74.0522 8.55733 74.0522 9.332C74.0522 10.1067 73.8936 10.7833 73.5762 11.362C73.2589 11.9313 72.8249 12.3747 72.2742 12.692C71.7329 13.0093 71.1169 13.168 70.4262 13.168ZM70.4262 12.048C71.1636 12.048 71.7376 11.8007 72.1482 11.306C72.5589 10.802 72.7642 10.1533 72.7642 9.36C72.7642 8.87467 72.6616 8.43133 72.4562 8.03C72.2509 7.61933 71.9709 7.29267 71.6162 7.05C71.2709 6.798 70.8742 6.672 70.4262 6.672C69.6889 6.672 69.1149 6.91467 68.7042 7.4C68.2936 7.88533 68.0882 8.52933 68.0882 9.332C68.0882 9.81733 68.1909 10.27 68.3962 10.69C68.6016 11.1007 68.8769 11.432 69.2222 11.684C69.5769 11.9267 69.9782 12.048 70.4262 12.048ZM78.1074 13.168C77.6874 13.168 77.2908 13.0793 76.9174 12.902C76.5441 12.7247 76.2408 12.44 76.0074 12.048C75.7741 11.6467 75.6574 11.1147 75.6574 10.452V5.72H76.9174V10.284C76.9174 10.8533 77.0388 11.292 77.2814 11.6C77.5241 11.8987 77.8788 12.048 78.3454 12.048C78.7281 12.048 79.0968 11.9733 79.4514 11.824C79.8154 11.6653 80.1374 11.4553 80.4174 11.194V5.72H81.6774V11.11C81.6774 11.5113 81.7614 11.7773 81.9294 11.908C82.1068 12.0293 82.2981 12.09 82.5034 12.09L82.2374 13.07C81.3694 13.07 80.8328 12.7247 80.6274 12.034C80.3008 12.37 79.9228 12.6453 79.4934 12.86C79.0641 13.0653 78.6021 13.168 78.1074 13.168ZM86.1366 13.168C85.586 13.168 85.0866 13.098 84.6386 12.958C84.2 12.818 83.836 12.636 83.5466 12.412L84.0786 11.362C84.3213 11.5673 84.6246 11.74 84.9886 11.88C85.362 12.0107 85.7586 12.076 86.1786 12.076C86.7013 12.076 87.0933 11.992 87.3546 11.824C87.6253 11.6467 87.7606 11.4227 87.7606 11.152C87.7606 10.956 87.7093 10.7833 87.6066 10.634C87.5133 10.4847 87.336 10.34 87.0746 10.2C86.8133 10.0507 86.4353 9.892 85.9406 9.724C85.2593 9.49067 84.746 9.21533 84.4006 8.898C84.0646 8.57133 83.8966 8.12333 83.8966 7.554C83.8966 6.994 84.1393 6.52267 84.6246 6.14C85.1193 5.748 85.8006 5.552 86.6686 5.552C87.1353 5.552 87.5506 5.60333 87.9146 5.706C88.2786 5.79933 88.6053 5.92067 88.8946 6.07L88.5446 7.106C88.2926 6.95667 88.0033 6.83533 87.6766 6.742C87.3593 6.64867 87.0046 6.602 86.6126 6.602C86.1273 6.602 85.7586 6.7 85.5066 6.896C85.2546 7.092 85.1286 7.30667 85.1286 7.54C85.1286 7.764 85.2266 7.95533 85.4226 8.114C85.6186 8.27267 86.0013 8.44533 86.5706 8.632C87.4946 8.94 88.1386 9.28067 88.5026 9.654C88.8666 10.0273 89.0486 10.494 89.0486 11.054C89.0486 11.7073 88.7826 12.2253 88.2506 12.608C87.728 12.9813 87.0233 13.168 86.1366 13.168ZM91.4255 8.772V7.624H96.1855V8.772H91.4255ZM101.668 13.168C100.968 13.168 100.413 12.9393 100.002 12.482C99.6007 12.0153 99.4 11.3527 99.4 10.494V7.078H98.14V5.986H99.428L99.694 3.69H100.66V5.986H102.676V7.078H100.66V10.592C100.66 11.1333 100.772 11.5113 100.996 11.726C101.229 11.9407 101.505 12.048 101.822 12.048C102.055 12.048 102.275 12.0107 102.48 11.936C102.695 11.8613 102.891 11.7727 103.068 11.67L103.418 12.678C103.231 12.79 102.979 12.8973 102.662 13C102.345 13.112 102.013 13.168 101.668 13.168ZM104.684 13V5.72H105.944V13H104.684ZM105.314 4.474C105.072 4.474 104.862 4.38533 104.684 4.208C104.516 4.03067 104.432 3.82533 104.432 3.592C104.432 3.32133 104.512 3.10667 104.67 2.948C104.829 2.78933 105.044 2.71 105.314 2.71C105.557 2.71 105.762 2.79867 105.93 2.976C106.108 3.144 106.196 3.34933 106.196 3.592C106.196 3.85333 106.117 4.068 105.958 4.236C105.8 4.39467 105.585 4.474 105.314 4.474ZM110.732 13.168C110.032 13.168 109.477 12.9393 109.066 12.482C108.665 12.0153 108.464 11.3527 108.464 10.494V7.078H107.204V5.986H108.492L108.758 3.69H109.724V5.986H111.74V7.078H109.724V10.592C109.724 11.1333 109.836 11.5113 110.06 11.726C110.294 11.9407 110.569 12.048 110.886 12.048C111.12 12.048 111.339 12.0107 111.544 11.936C111.759 11.8613 111.955 11.7727 112.132 11.67L112.482 12.678C112.296 12.79 112.044 12.8973 111.726 13C111.409 13.112 111.078 13.168 110.732 13.168ZM113.749 13V5.72H114.967V7.302C115.088 6.994 115.252 6.70933 115.457 6.448C115.662 6.17733 115.919 5.96267 116.227 5.804C116.535 5.636 116.894 5.552 117.305 5.552C117.445 5.552 117.585 5.56133 117.725 5.58C117.865 5.58933 117.982 5.608 118.075 5.636L117.697 6.938C117.52 6.86333 117.31 6.826 117.067 6.826C116.722 6.826 116.39 6.924 116.073 7.12C115.765 7.316 115.508 7.61933 115.303 8.03C115.107 8.44067 115.009 8.96333 115.009 9.598V13H113.749ZM121.829 13.168C120.784 13.168 119.953 12.8367 119.337 12.174C118.73 11.502 118.427 10.564 118.427 9.36C118.427 8.632 118.562 7.98333 118.833 7.414C119.113 6.83533 119.5 6.38267 119.995 6.056C120.49 5.72 121.064 5.552 121.717 5.552C122.417 5.552 122.996 5.706 123.453 6.014C123.92 6.31267 124.27 6.71867 124.503 7.232C124.736 7.74533 124.853 8.31 124.853 8.926C124.853 9.25267 124.839 9.57 124.811 9.878H119.715C119.799 10.5593 120.037 11.0913 120.429 11.474C120.821 11.8567 121.339 12.048 121.983 12.048C122.403 12.048 122.781 12.006 123.117 11.922C123.453 11.8287 123.775 11.712 124.083 11.572L124.377 12.65C124.041 12.7993 123.663 12.9207 123.243 13.014C122.823 13.1167 122.352 13.168 121.829 13.168ZM119.701 8.856H123.691C123.691 8.14667 123.514 7.60067 123.159 7.218C122.804 6.83533 122.314 6.644 121.689 6.644C121.148 6.644 120.7 6.83533 120.345 7.218C119.99 7.59133 119.776 8.13733 119.701 8.856ZM128.492 13.168C127.941 13.168 127.442 13.098 126.994 12.958C126.555 12.818 126.191 12.636 125.902 12.412L126.434 11.362C126.677 11.5673 126.98 11.74 127.344 11.88C127.717 12.0107 128.114 12.076 128.534 12.076C129.057 12.076 129.449 11.992 129.71 11.824C129.981 11.6467 130.116 11.4227 130.116 11.152C130.116 10.956 130.065 10.7833 129.962 10.634C129.869 10.4847 129.691 10.34 129.43 10.2C129.169 10.0507 128.791 9.892 128.296 9.724C127.615 9.49067 127.101 9.21533 126.756 8.898C126.42 8.57133 126.252 8.12333 126.252 7.554C126.252 6.994 126.495 6.52267 126.98 6.14C127.475 5.748 128.156 5.552 129.024 5.552C129.491 5.552 129.906 5.60333 130.27 5.706C130.634 5.79933 130.961 5.92067 131.25 6.07L130.9 7.106C130.648 6.95667 130.359 6.83533 130.032 6.742C129.715 6.64867 129.36 6.602 128.968 6.602C128.483 6.602 128.114 6.7 127.862 6.896C127.61 7.092 127.484 7.30667 127.484 7.54C127.484 7.764 127.582 7.95533 127.778 8.114C127.974 8.27267 128.357 8.44533 128.926 8.632C129.85 8.94 130.494 9.28067 130.858 9.654C131.222 10.0273 131.404 10.494 131.404 11.054C131.404 11.7073 131.138 12.2253 130.606 12.608C130.083 12.9813 129.379 13.168 128.492 13.168Z" fill="#999999"/>
<path d="M1.26 44V34.228C1.64267 34.1813 2.06267 34.1487 2.52 34.13C2.98667 34.102 3.46733 34.088 3.962 34.088C4.774 34.088 5.46467 34.2187 6.034 34.48C6.60333 34.732 7.03733 35.082 7.336 35.53C7.63467 35.978 7.784 36.4913 7.784 37.07C7.784 37.77 7.61133 38.3627 7.266 38.848C6.92067 39.3333 6.44 39.7067 5.824 39.968C5.208 40.22 4.494 40.346 3.682 40.346C3.29 40.346 2.926 40.332 2.59 40.304V44H1.26ZM3.85 39.24C4.68067 39.24 5.32467 39.0533 5.782 38.68C6.23933 38.3067 6.468 37.8073 6.468 37.182C6.468 36.5753 6.24867 36.0947 5.81 35.74C5.37133 35.3853 4.746 35.208 3.934 35.208C3.682 35.208 3.444 35.2127 3.22 35.222C2.996 35.2313 2.786 35.2453 2.59 35.264V39.17C2.73933 39.1887 2.92133 39.2073 3.136 39.226C3.35067 39.2353 3.58867 39.24 3.85 39.24ZM9.25477 44V36.72H10.4728V38.302C10.5941 37.994 10.7574 37.7093 10.9628 37.448C11.1681 37.1773 11.4248 36.9627 11.7328 36.804C12.0408 36.636 12.4001 36.552 12.8108 36.552C12.9508 36.552 13.0908 36.5613 13.2308 36.58C13.3708 36.5893 13.4874 36.608 13.5808 36.636L13.2028 37.938C13.0254 37.8633 12.8154 37.826 12.5728 37.826C12.2274 37.826 11.8961 37.924 11.5788 38.12C11.2708 38.316 11.0141 38.6193 10.8088 39.03C10.6128 39.4407 10.5148 39.9633 10.5148 40.598V44H9.25477ZM17.3347 44.168C16.2894 44.168 15.4587 43.8367 14.8427 43.174C14.2361 42.502 13.9327 41.564 13.9327 40.36C13.9327 39.632 14.0681 38.9833 14.3387 38.414C14.6187 37.8353 15.0061 37.3827 15.5007 37.056C15.9954 36.72 16.5694 36.552 17.2227 36.552C17.9227 36.552 18.5014 36.706 18.9587 37.014C19.4254 37.3127 19.7754 37.7187 20.0087 38.232C20.2421 38.7453 20.3587 39.31 20.3587 39.926C20.3587 40.2527 20.3447 40.57 20.3167 40.878H15.2207C15.3047 41.5593 15.5427 42.0913 15.9347 42.474C16.3267 42.8567 16.8447 43.048 17.4887 43.048C17.9087 43.048 18.2867 43.006 18.6227 42.922C18.9587 42.8287 19.2807 42.712 19.5887 42.572L19.8827 43.65C19.5467 43.7993 19.1687 43.9207 18.7487 44.014C18.3287 44.1167 17.8574 44.168 17.3347 44.168ZM15.2067 39.856H19.1967C19.1967 39.1467 19.0194 38.6007 18.6647 38.218C18.3101 37.8353 17.8201 37.644 17.1947 37.644C16.6534 37.644 16.2054 37.8353 15.8507 38.218C15.4961 38.5913 15.2814 39.1373 15.2067 39.856ZM23.998 44.168C23.4473 44.168 22.948 44.098 22.5 43.958C22.0613 43.818 21.6973 43.636 21.408 43.412L21.94 42.362C22.1826 42.5673 22.486 42.74 22.85 42.88C23.2233 43.0107 23.62 43.076 24.04 43.076C24.5626 43.076 24.9546 42.992 25.216 42.824C25.4866 42.6467 25.622 42.4227 25.622 42.152C25.622 41.956 25.5706 41.7833 25.468 41.634C25.3746 41.4847 25.1973 41.34 24.936 41.2C24.6746 41.0507 24.2966 40.892 23.802 40.724C23.1206 40.4907 22.6073 40.2153 22.262 39.898C21.926 39.5713 21.758 39.1233 21.758 38.554C21.758 37.994 22.0006 37.5227 22.486 37.14C22.9806 36.748 23.662 36.552 24.53 36.552C24.9966 36.552 25.412 36.6033 25.776 36.706C26.14 36.7993 26.4666 36.9207 26.756 37.07L26.406 38.106C26.154 37.9567 25.8646 37.8353 25.538 37.742C25.2206 37.6487 24.866 37.602 24.474 37.602C23.9886 37.602 23.62 37.7 23.368 37.896C23.116 38.092 22.99 38.3067 22.99 38.54C22.99 38.764 23.088 38.9553 23.284 39.114C23.48 39.2727 23.8626 39.4453 24.432 39.632C25.356 39.94 26 40.2807 26.364 40.654C26.728 41.0273 26.91 41.494 26.91 42.054C26.91 42.7073 26.644 43.2253 26.112 43.608C25.5893 43.9813 24.8846 44.168 23.998 44.168ZM30.5468 44.168C29.9961 44.168 29.4968 44.098 29.0488 43.958C28.6101 43.818 28.2461 43.636 27.9568 43.412L28.4888 42.362C28.7315 42.5673 29.0348 42.74 29.3988 42.88C29.7721 43.0107 30.1688 43.076 30.5888 43.076C31.1115 43.076 31.5035 42.992 31.7648 42.824C32.0355 42.6467 32.1708 42.4227 32.1708 42.152C32.1708 41.956 32.1195 41.7833 32.0168 41.634C31.9235 41.4847 31.7461 41.34 31.4848 41.2C31.2235 41.0507 30.8455 40.892 30.3508 40.724C29.6695 40.4907 29.1561 40.2153 28.8108 39.898C28.4748 39.5713 28.3068 39.1233 28.3068 38.554C28.3068 37.994 28.5495 37.5227 29.0348 37.14C29.5295 36.748 30.2108 36.552 31.0788 36.552C31.5455 36.552 31.9608 36.6033 32.3248 36.706C32.6888 36.7993 33.0155 36.9207 33.3048 37.07L32.9548 38.106C32.7028 37.9567 32.4135 37.8353 32.0868 37.742C31.7695 37.6487 31.4148 37.602 31.0228 37.602C30.5375 37.602 30.1688 37.7 29.9168 37.896C29.6648 38.092 29.5388 38.3067 29.5388 38.54C29.5388 38.764 29.6368 38.9553 29.8328 39.114C30.0288 39.2727 30.4115 39.4453 30.9808 39.632C31.9048 39.94 32.5488 40.2807 32.9128 40.654C33.2768 41.0273 33.4588 41.494 33.4588 42.054C33.4588 42.7073 33.1928 43.2253 32.6608 43.608C32.1381 43.9813 31.4335 44.168 30.5468 44.168ZM38.0476 44.168C37.0023 44.168 36.1716 43.8367 35.5556 43.174C34.949 42.502 34.6456 41.564 34.6456 40.36C34.6456 39.632 34.781 38.9833 35.0516 38.414C35.3316 37.8353 35.719 37.3827 36.2136 37.056C36.7083 36.72 37.2823 36.552 37.9356 36.552C38.6356 36.552 39.2143 36.706 39.6716 37.014C40.1383 37.3127 40.4883 37.7187 40.7216 38.232C40.955 38.7453 41.0716 39.31 41.0716 39.926C41.0716 40.2527 41.0576 40.57 41.0296 40.878H35.9336C36.0176 41.5593 36.2556 42.0913 36.6476 42.474C37.0396 42.8567 37.5576 43.048 38.2016 43.048C38.6216 43.048 38.9996 43.006 39.3356 42.922C39.6716 42.8287 39.9936 42.712 40.3016 42.572L40.5956 43.65C40.2596 43.7993 39.8816 43.9207 39.4616 44.014C39.0416 44.1167 38.5703 44.168 38.0476 44.168ZM35.9196 39.856H39.9096C39.9096 39.1467 39.7323 38.6007 39.3776 38.218C39.023 37.8353 38.533 37.644 37.9076 37.644C37.3663 37.644 36.9183 37.8353 36.5636 38.218C36.209 38.5913 35.9943 39.1373 35.9196 39.856Z" fill="#999999"/>
<path d="M5.026 75.168C4.17667 75.168 3.42533 74.9673 2.772 74.566C2.11867 74.1553 1.61 73.5767 1.246 72.83C0.882 72.074 0.7 71.178 0.7 70.142C0.7 69.1433 0.882 68.2613 1.246 67.496C1.61933 66.7213 2.142 66.1193 2.814 65.69C3.49533 65.2513 4.28867 65.032 5.194 65.032C5.66067 65.032 6.08533 65.0787 6.468 65.172C6.85067 65.256 7.21 65.3773 7.546 65.536L7.14 66.656C6.85067 66.516 6.552 66.404 6.244 66.32C5.94533 66.236 5.59067 66.194 5.18 66.194C4.58267 66.194 4.046 66.348 3.57 66.656C3.10333 66.964 2.73467 67.4073 2.464 67.986C2.19333 68.5647 2.058 69.2647 2.058 70.086C2.058 70.87 2.18867 71.556 2.45 72.144C2.72067 72.732 3.08933 73.1893 3.556 73.516C4.032 73.8427 4.57333 74.006 5.18 74.006C5.63733 74.006 6.034 73.95 6.37 73.838C6.706 73.726 7.03267 73.5813 7.35 73.404L7.756 74.51C7.41067 74.6967 7.014 74.8553 6.566 74.986C6.12733 75.1073 5.614 75.168 5.026 75.168ZM12.0747 75.168C11.384 75.168 10.7633 75.0093 10.2127 74.692C9.66201 74.3653 9.22801 73.9173 8.91067 73.348C8.60267 72.7693 8.44867 72.1067 8.44867 71.36C8.44867 70.576 8.60734 69.8993 8.92467 69.33C9.24201 68.7607 9.67601 68.322 10.2267 68.014C10.7773 67.706 11.3933 67.552 12.0747 67.552C12.756 67.552 13.3673 67.706 13.9087 68.014C14.4593 68.322 14.8933 68.7607 15.2107 69.33C15.5373 69.89 15.7007 70.5573 15.7007 71.332C15.7007 72.1067 15.542 72.7833 15.2247 73.362C14.9073 73.9313 14.4733 74.3747 13.9227 74.692C13.3813 75.0093 12.7653 75.168 12.0747 75.168ZM12.0747 74.048C12.812 74.048 13.386 73.8007 13.7967 73.306C14.2073 72.802 14.4127 72.1533 14.4127 71.36C14.4127 70.8747 14.31 70.4313 14.1047 70.03C13.8993 69.6193 13.6193 69.2927 13.2647 69.05C12.9193 68.798 12.5227 68.672 12.0747 68.672C11.3373 68.672 10.7633 68.9147 10.3527 69.4C9.94201 69.8853 9.73667 70.5293 9.73667 71.332C9.73667 71.8173 9.83934 72.27 10.0447 72.69C10.25 73.1007 10.5253 73.432 10.8707 73.684C11.2253 73.9267 11.6267 74.048 12.0747 74.048ZM17.3759 75V67.72H18.5939V68.938C18.8552 68.546 19.1865 68.2193 19.5879 67.958C19.9985 67.6873 20.4839 67.552 21.0439 67.552C21.8652 67.552 22.4765 67.7993 22.8779 68.294C23.2885 68.7887 23.4939 69.442 23.4939 70.254V75H22.2339V70.394C22.2339 69.8713 22.1079 69.4513 21.8559 69.134C21.6132 68.8167 21.2725 68.658 20.8339 68.658C20.4045 68.658 19.9985 68.812 19.6159 69.12C19.2332 69.4187 18.9065 69.7733 18.6359 70.184V75H17.3759ZM25.801 75V69.078H24.681V67.986H25.801V67.132C25.801 66.3107 26.0297 65.662 26.487 65.186C26.9443 64.71 27.5417 64.472 28.279 64.472C28.6617 64.472 28.9977 64.5187 29.287 64.612C29.5763 64.696 29.8517 64.8033 30.113 64.934L29.735 65.998C29.539 65.8953 29.329 65.802 29.105 65.718C28.881 65.634 28.6337 65.592 28.363 65.592C27.971 65.592 27.6537 65.718 27.411 65.97C27.1777 66.2127 27.061 66.572 27.061 67.048V67.986H29.217V69.078H27.061V75H25.801ZM30.5282 75V67.72H31.7882V75H30.5282ZM31.1582 66.474C30.9155 66.474 30.7055 66.3853 30.5282 66.208C30.3602 66.0307 30.2762 65.8253 30.2762 65.592C30.2762 65.3213 30.3555 65.1067 30.5142 64.948C30.6729 64.7893 30.8875 64.71 31.1582 64.71C31.4009 64.71 31.6062 64.7987 31.7742 64.976C31.9515 65.144 32.0402 65.3493 32.0402 65.592C32.0402 65.8533 31.9609 66.068 31.8022 66.236C31.6435 66.3947 31.4289 66.474 31.1582 66.474ZM36.7862 75.168C36.1889 75.168 35.6429 75.014 35.1482 74.706C34.6535 74.398 34.2615 73.964 33.9722 73.404C33.6829 72.8347 33.5382 72.1673 33.5382 71.402C33.5382 70.6647 33.6829 70.0067 33.9722 69.428C34.2709 68.8493 34.6629 68.392 35.1482 68.056C35.6429 67.72 36.1842 67.552 36.7722 67.552C37.2575 67.552 37.6729 67.65 38.0182 67.846C38.3729 68.042 38.6482 68.2427 38.8442 68.448V64.64H40.1042V73.236C40.1042 73.5907 40.1882 73.824 40.3562 73.936C40.5335 74.0387 40.7249 74.09 40.9302 74.09L40.6642 75.07C39.7775 75.07 39.2362 74.7153 39.0402 74.006C38.8349 74.2953 38.5455 74.5613 38.1722 74.804C37.8082 75.0467 37.3462 75.168 36.7862 75.168ZM37.0662 74.048C37.4115 74.048 37.7382 73.9687 38.0462 73.81C38.3635 73.642 38.6295 73.4273 38.8442 73.166V69.554C38.6669 69.33 38.4195 69.1247 38.1022 68.938C37.7849 68.742 37.4349 68.644 37.0522 68.644C36.6042 68.644 36.2122 68.7653 35.8762 69.008C35.5402 69.2507 35.2789 69.5773 35.0922 69.988C34.9149 70.3893 34.8262 70.8467 34.8262 71.36C34.8262 71.8733 34.9242 72.3353 35.1202 72.746C35.3162 73.1473 35.5822 73.4647 35.9182 73.698C36.2635 73.9313 36.6462 74.048 37.0662 74.048ZM45.3894 75.168C44.3441 75.168 43.5134 74.8367 42.8974 74.174C42.2908 73.502 41.9874 72.564 41.9874 71.36C41.9874 70.632 42.1228 69.9833 42.3934 69.414C42.6734 68.8353 43.0608 68.3827 43.5554 68.056C44.0501 67.72 44.6241 67.552 45.2774 67.552C45.9774 67.552 46.5561 67.706 47.0134 68.014C47.4801 68.3127 47.8301 68.7187 48.0634 69.232C48.2968 69.7453 48.4134 70.31 48.4134 70.926C48.4134 71.2527 48.3994 71.57 48.3714 71.878H43.2754C43.3594 72.5593 43.5974 73.0913 43.9894 73.474C44.3814 73.8567 44.8994 74.048 45.5434 74.048C45.9634 74.048 46.3414 74.006 46.6774 73.922C47.0134 73.8287 47.3354 73.712 47.6434 73.572L47.9374 74.65C47.6014 74.7993 47.2234 74.9207 46.8034 75.014C46.3834 75.1167 45.9121 75.168 45.3894 75.168ZM43.2614 70.856H47.2514C47.2514 70.1467 47.0741 69.6007 46.7194 69.218C46.3648 68.8353 45.8748 68.644 45.2494 68.644C44.7081 68.644 44.2601 68.8353 43.9054 69.218C43.5508 69.5913 43.3361 70.1373 43.2614 70.856ZM50.0927 75V67.72H51.3107V68.938C51.572 68.546 51.9033 68.2193 52.3047 67.958C52.7153 67.6873 53.2007 67.552 53.7607 67.552C54.582 67.552 55.1933 67.7993 55.5947 68.294C56.0053 68.7887 56.2107 69.442 56.2107 70.254V75H54.9507V70.394C54.9507 69.8713 54.8247 69.4513 54.5727 69.134C54.33 68.8167 53.9893 68.658 53.5507 68.658C53.1213 68.658 52.7153 68.812 52.3327 69.12C51.95 69.4187 51.6233 69.7733 51.3527 70.184V75H50.0927ZM60.9258 75.168C60.2258 75.168 59.6705 74.9393 59.2598 74.482C58.8585 74.0153 58.6578 73.3527 58.6578 72.494V69.078H57.3978V67.986H58.6858L58.9518 65.69H59.9178V67.986H61.9338V69.078H59.9178V72.592C59.9178 73.1333 60.0298 73.5113 60.2538 73.726C60.4871 73.9407 60.7625 74.048 61.0798 74.048C61.3131 74.048 61.5325 74.0107 61.7378 73.936C61.9525 73.8613 62.1485 73.7727 62.3258 73.67L62.6758 74.678C62.4891 74.79 62.2371 74.8973 61.9198 75C61.6025 75.112 61.2711 75.168 60.9258 75.168ZM63.9423 75V67.72H65.2023V75H63.9423ZM64.5723 66.474C64.3296 66.474 64.1196 66.3853 63.9423 66.208C63.7743 66.0307 63.6903 65.8253 63.6903 65.592C63.6903 65.3213 63.7696 65.1067 63.9283 64.948C64.0869 64.7893 64.3016 64.71 64.5723 64.71C64.8149 64.71 65.0203 64.7987 65.1883 64.976C65.3656 65.144 65.4543 65.3493 65.4543 65.592C65.4543 65.8533 65.3749 66.068 65.2163 66.236C65.0576 66.3947 64.8429 66.474 64.5723 66.474ZM70.2283 75.168C69.6216 75.168 69.0709 75.014 68.5763 74.706C68.0816 74.398 67.6849 73.964 67.3863 73.404C67.0969 72.8347 66.9523 72.1673 66.9523 71.402C66.9523 70.674 67.0969 70.0207 67.3863 69.442C67.6849 68.8633 68.0909 68.406 68.6043 68.07C69.1269 67.7247 69.7243 67.552 70.3963 67.552C70.8163 67.552 71.1943 67.6267 71.5303 67.776C71.8756 67.916 72.1743 68.0933 72.4263 68.308V67.72H73.5743V73.236C73.5743 73.5907 73.6583 73.824 73.8263 73.936C74.0036 74.0387 74.1949 74.09 74.4003 74.09L74.1343 75.07C73.2383 75.07 72.6969 74.706 72.5103 73.978C72.2956 74.2767 72.0016 74.552 71.6283 74.804C71.2643 75.0467 70.7976 75.168 70.2283 75.168ZM70.5083 74.048C70.8629 74.048 71.1989 73.964 71.5163 73.796C71.8336 73.6187 72.0996 73.3993 72.3143 73.138V69.232C72.0623 69.0547 71.7823 68.9147 71.4743 68.812C71.1756 68.7 70.8583 68.644 70.5223 68.644C70.0743 68.644 69.6776 68.7607 69.3323 68.994C68.9963 69.218 68.7303 69.5353 68.5343 69.946C68.3383 70.3473 68.2403 70.8187 68.2403 71.36C68.2403 71.8827 68.3383 72.3493 68.5343 72.76C68.7303 73.1613 69.0009 73.4787 69.3463 73.712C69.6916 73.936 70.0789 74.048 70.5083 74.048ZM78.2949 75.168C77.8656 75.168 77.4782 75.0887 77.1329 74.93C76.7876 74.762 76.5122 74.496 76.3069 74.132C76.1109 73.768 76.0129 73.2967 76.0129 72.718V64.64H77.2729V72.592C77.2729 73.096 77.3756 73.4693 77.5809 73.712C77.7956 73.9547 78.0896 74.076 78.4629 74.076C78.6402 74.076 78.8129 74.0573 78.9809 74.02C79.1582 73.9733 79.3076 73.922 79.4289 73.866L79.7369 74.888C79.5689 74.9627 79.3589 75.028 79.1069 75.084C78.8642 75.14 78.5936 75.168 78.2949 75.168ZM80.9227 75V67.72H82.1827V75H80.9227ZM81.5527 66.474C81.3101 66.474 81.1001 66.3853 80.9227 66.208C80.7547 66.0307 80.6707 65.8253 80.6707 65.592C80.6707 65.3213 80.7501 65.1067 80.9087 64.948C81.0674 64.7893 81.2821 64.71 81.5527 64.71C81.7954 64.71 82.0007 64.7987 82.1687 64.976C82.3461 65.144 82.4347 65.3493 82.4347 65.592C82.4347 65.8533 82.3554 66.068 82.1967 66.236C82.0381 66.3947 81.8234 66.474 81.5527 66.474ZM86.9707 75.168C86.2707 75.168 85.7154 74.9393 85.3047 74.482C84.9034 74.0153 84.7027 73.3527 84.7027 72.494V69.078H83.4427V67.986H84.7307L84.9967 65.69H85.9627V67.986H87.9787V69.078H85.9627V72.592C85.9627 73.1333 86.0747 73.5113 86.2987 73.726C86.5321 73.9407 86.8074 74.048 87.1247 74.048C87.3581 74.048 87.5774 74.0107 87.7827 73.936C87.9974 73.8613 88.1934 73.7727 88.3707 73.67L88.7207 74.678C88.5341 74.79 88.2821 74.8973 87.9647 75C87.6474 75.112 87.3161 75.168 86.9707 75.168ZM92.6258 75.168C91.5804 75.168 90.7498 74.8367 90.1338 74.174C89.5271 73.502 89.2238 72.564 89.2238 71.36C89.2238 70.632 89.3591 69.9833 89.6298 69.414C89.9098 68.8353 90.2971 68.3827 90.7918 68.056C91.2864 67.72 91.8604 67.552 92.5138 67.552C93.2138 67.552 93.7924 67.706 94.2498 68.014C94.7164 68.3127 95.0664 68.7187 95.2998 69.232C95.5331 69.7453 95.6498 70.31 95.6498 70.926C95.6498 71.2527 95.6358 71.57 95.6078 71.878H90.5118C90.5958 72.5593 90.8338 73.0913 91.2258 73.474C91.6178 73.8567 92.1358 74.048 92.7798 74.048C93.1998 74.048 93.5778 74.006 93.9138 73.922C94.2498 73.8287 94.5718 73.712 94.8798 73.572L95.1738 74.65C94.8378 74.7993 94.4598 74.9207 94.0398 75.014C93.6198 75.1167 93.1484 75.168 92.6258 75.168ZM90.4978 70.856H94.4878C94.4878 70.1467 94.3104 69.6007 93.9558 69.218C93.6011 68.8353 93.1111 68.644 92.4858 68.644C91.9444 68.644 91.4964 68.8353 91.1418 69.218C90.7871 69.5913 90.5724 70.1373 90.4978 70.856ZM91.3518 66.95L90.9178 66.096L93.5638 64.346L94.1518 65.522L91.3518 66.95Z" fill="#999999"/>
<path d="M1.26 106V96.2H3.024L7.35 104.348V96.2H8.61V106H6.874L2.52 97.908V106H1.26ZM14.0571 106.168C13.3664 106.168 12.7458 106.009 12.1951 105.692C11.6444 105.365 11.2104 104.917 10.8931 104.348C10.5851 103.769 10.4311 103.107 10.4311 102.36C10.4311 101.576 10.5898 100.899 10.9071 100.33C11.2244 99.7607 11.6584 99.322 12.2091 99.014C12.7598 98.706 13.3758 98.552 14.0571 98.552C14.7384 98.552 15.3498 98.706 15.8911 99.014C16.4418 99.322 16.8758 99.7607 17.1931 100.33C17.5198 100.89 17.6831 101.557 17.6831 102.332C17.6831 103.107 17.5244 103.783 17.2071 104.362C16.8898 104.931 16.4558 105.375 15.9051 105.692C15.3638 106.009 14.7478 106.168 14.0571 106.168ZM14.0571 105.048C14.7944 105.048 15.3684 104.801 15.7791 104.306C16.1898 103.802 16.3951 103.153 16.3951 102.36C16.3951 101.875 16.2924 101.431 16.0871 101.03C15.8818 100.619 15.6018 100.293 15.2471 100.05C14.9018 99.798 14.5051 99.672 14.0571 99.672C13.3198 99.672 12.7458 99.9147 12.3351 100.4C11.9244 100.885 11.7191 101.529 11.7191 102.332C11.7191 102.817 11.8218 103.27 12.0271 103.69C12.2324 104.101 12.5078 104.432 12.8531 104.684C13.2078 104.927 13.6091 105.048 14.0571 105.048ZM21.7383 106.168C21.3183 106.168 20.9216 106.079 20.5483 105.902C20.1749 105.725 19.8716 105.44 19.6383 105.048C19.4049 104.647 19.2883 104.115 19.2883 103.452V98.72H20.5483V103.284C20.5483 103.853 20.6696 104.292 20.9123 104.6C21.1549 104.899 21.5096 105.048 21.9763 105.048C22.3589 105.048 22.7276 104.973 23.0823 104.824C23.4463 104.665 23.7683 104.455 24.0483 104.194V98.72H25.3083V104.11C25.3083 104.511 25.3923 104.777 25.5603 104.908C25.7376 105.029 25.9289 105.09 26.1343 105.09L25.8683 106.07C25.0003 106.07 24.4636 105.725 24.2583 105.034C23.9316 105.37 23.5536 105.645 23.1243 105.86C22.6949 106.065 22.2329 106.168 21.7383 106.168ZM29.7675 106.168C29.2168 106.168 28.7175 106.098 28.2695 105.958C27.8308 105.818 27.4668 105.636 27.1775 105.412L27.7095 104.362C27.9522 104.567 28.2555 104.74 28.6195 104.88C28.9928 105.011 29.3895 105.076 29.8095 105.076C30.3322 105.076 30.7242 104.992 30.9855 104.824C31.2562 104.647 31.3915 104.423 31.3915 104.152C31.3915 103.956 31.3402 103.783 31.2375 103.634C31.1442 103.485 30.9668 103.34 30.7055 103.2C30.4442 103.051 30.0662 102.892 29.5715 102.724C28.8902 102.491 28.3768 102.215 28.0315 101.898C27.6955 101.571 27.5275 101.123 27.5275 100.554C27.5275 99.994 27.7702 99.5227 28.2555 99.14C28.7502 98.748 29.4315 98.552 30.2995 98.552C30.7662 98.552 31.1815 98.6033 31.5455 98.706C31.9095 98.7993 32.2362 98.9207 32.5255 99.07L32.1755 100.106C31.9235 99.9567 31.6342 99.8353 31.3075 99.742C30.9902 99.6487 30.6355 99.602 30.2435 99.602C29.7582 99.602 29.3895 99.7 29.1375 99.896C28.8855 100.092 28.7595 100.307 28.7595 100.54C28.7595 100.764 28.8575 100.955 29.0535 101.114C29.2495 101.273 29.6322 101.445 30.2015 101.632C31.1255 101.94 31.7695 102.281 32.1335 102.654C32.4975 103.027 32.6795 103.494 32.6795 104.054C32.6795 104.707 32.4135 105.225 31.8815 105.608C31.3588 105.981 30.6542 106.168 29.7675 106.168ZM41.4936 106.168C40.8029 106.168 40.1963 106.009 39.6736 105.692C39.1603 105.365 38.7636 104.917 38.4836 104.348C38.2036 103.769 38.0636 103.107 38.0636 102.36C38.0636 101.66 38.2036 101.021 38.4836 100.442C38.7729 99.8633 39.1836 99.406 39.7156 99.07C40.2476 98.7247 40.8729 98.552 41.5916 98.552C42.0023 98.552 42.3616 98.5893 42.6696 98.664C42.9869 98.7387 43.2903 98.846 43.5796 98.986L43.2016 100.05C42.9403 99.9193 42.6883 99.826 42.4456 99.77C42.2123 99.7047 41.9509 99.672 41.6616 99.672C41.0083 99.672 40.4576 99.91 40.0096 100.386C39.5709 100.853 39.3516 101.501 39.3516 102.332C39.3516 102.836 39.4449 103.293 39.6316 103.704C39.8183 104.115 40.0749 104.441 40.4016 104.684C40.7376 104.927 41.1296 105.048 41.5776 105.048C41.9323 105.048 42.2356 105.011 42.4876 104.936C42.7396 104.852 43.0103 104.735 43.2996 104.586L43.6916 105.65C43.4023 105.809 43.0756 105.935 42.7116 106.028C42.3569 106.121 41.9509 106.168 41.4936 106.168ZM48.0864 106.168C47.3957 106.168 46.7751 106.009 46.2244 105.692C45.6737 105.365 45.2397 104.917 44.9224 104.348C44.6144 103.769 44.4604 103.107 44.4604 102.36C44.4604 101.576 44.6191 100.899 44.9364 100.33C45.2537 99.7607 45.6877 99.322 46.2384 99.014C46.7891 98.706 47.4051 98.552 48.0864 98.552C48.7677 98.552 49.3791 98.706 49.9204 99.014C50.4711 99.322 50.9051 99.7607 51.2224 100.33C51.5491 100.89 51.7124 101.557 51.7124 102.332C51.7124 103.107 51.5537 103.783 51.2364 104.362C50.9191 104.931 50.4851 105.375 49.9344 105.692C49.3931 106.009 48.7771 106.168 48.0864 106.168ZM48.0864 105.048C48.8237 105.048 49.3977 104.801 49.8084 104.306C50.2191 103.802 50.4244 103.153 50.4244 102.36C50.4244 101.875 50.3217 101.431 50.1164 101.03C49.9111 100.619 49.6311 100.293 49.2764 100.05C48.9311 99.798 48.5344 99.672 48.0864 99.672C47.3491 99.672 46.7751 99.9147 46.3644 100.4C45.9537 100.885 45.7484 101.529 45.7484 102.332C45.7484 102.817 45.8511 103.27 46.0564 103.69C46.2617 104.101 46.5371 104.432 46.8824 104.684C47.2371 104.927 47.6384 105.048 48.0864 105.048ZM53.3876 106V98.72H54.6056V99.938C54.8669 99.546 55.1982 99.2193 55.5996 98.958C56.0102 98.6873 56.4956 98.552 57.0556 98.552C57.8769 98.552 58.4882 98.7993 58.8896 99.294C59.3002 99.7887 59.5056 100.442 59.5056 101.254V106H58.2456V101.394C58.2456 100.871 58.1196 100.451 57.8676 100.134C57.6249 99.8167 57.2842 99.658 56.8456 99.658C56.4162 99.658 56.0102 99.812 55.6276 100.12C55.2449 100.419 54.9182 100.773 54.6476 101.184V106H53.3876ZM64.2207 106.168C63.5207 106.168 62.9654 105.939 62.5547 105.482C62.1534 105.015 61.9527 104.353 61.9527 103.494V100.078H60.6927V98.986H61.9807L62.2467 96.69H63.2127V98.986H65.2287V100.078H63.2127V103.592C63.2127 104.133 63.3247 104.511 63.5487 104.726C63.7821 104.941 64.0574 105.048 64.3747 105.048C64.6081 105.048 64.8274 105.011 65.0327 104.936C65.2474 104.861 65.4434 104.773 65.6207 104.67L65.9707 105.678C65.7841 105.79 65.5321 105.897 65.2147 106C64.8974 106.112 64.5661 106.168 64.2207 106.168ZM69.7498 106.168C69.1431 106.168 68.5924 106.014 68.0978 105.706C67.6031 105.398 67.2064 104.964 66.9078 104.404C66.6184 103.835 66.4738 103.167 66.4738 102.402C66.4738 101.674 66.6184 101.021 66.9078 100.442C67.2064 99.8633 67.6124 99.406 68.1258 99.07C68.6484 98.7247 69.2458 98.552 69.9178 98.552C70.3378 98.552 70.7158 98.6267 71.0518 98.776C71.3971 98.916 71.6958 99.0933 71.9478 99.308V98.72H73.0958V104.236C73.0958 104.591 73.1798 104.824 73.3478 104.936C73.5251 105.039 73.7164 105.09 73.9218 105.09L73.6558 106.07C72.7598 106.07 72.2184 105.706 72.0318 104.978C71.8171 105.277 71.5231 105.552 71.1498 105.804C70.7858 106.047 70.3191 106.168 69.7498 106.168ZM70.0298 105.048C70.3844 105.048 70.7204 104.964 71.0378 104.796C71.3551 104.619 71.6211 104.399 71.8358 104.138V100.232C71.5838 100.055 71.3038 99.9147 70.9958 99.812C70.6971 99.7 70.3798 99.644 70.0438 99.644C69.5958 99.644 69.1991 99.7607 68.8538 99.994C68.5178 100.218 68.2518 100.535 68.0558 100.946C67.8598 101.347 67.7618 101.819 67.7618 102.36C67.7618 102.883 67.8598 103.349 68.0558 103.76C68.2518 104.161 68.5224 104.479 68.8678 104.712C69.2131 104.936 69.6004 105.048 70.0298 105.048ZM78.4077 106.168C77.717 106.168 77.1103 106.009 76.5877 105.692C76.0743 105.365 75.6777 104.917 75.3977 104.348C75.1177 103.769 74.9777 103.107 74.9777 102.36C74.9777 101.66 75.1177 101.021 75.3977 100.442C75.687 99.8633 76.0977 99.406 76.6297 99.07C77.1617 98.7247 77.787 98.552 78.5057 98.552C78.9163 98.552 79.2757 98.5893 79.5837 98.664C79.901 98.7387 80.2043 98.846 80.4937 98.986L80.1157 100.05C79.8543 99.9193 79.6023 99.826 79.3597 99.77C79.1263 99.7047 78.865 99.672 78.5757 99.672C77.9223 99.672 77.3717 99.91 76.9237 100.386C76.485 100.853 76.2657 101.501 76.2657 102.332C76.2657 102.836 76.359 103.293 76.5457 103.704C76.7323 104.115 76.989 104.441 77.3157 104.684C77.6517 104.927 78.0437 105.048 78.4917 105.048C78.8463 105.048 79.1497 105.011 79.4017 104.936C79.6537 104.852 79.9243 104.735 80.2137 104.586L80.6057 105.65C80.3163 105.809 79.9897 105.935 79.6257 106.028C79.271 106.121 78.865 106.168 78.4077 106.168ZM84.6192 106.168C83.9192 106.168 83.3638 105.939 82.9532 105.482C82.5518 105.015 82.3512 104.353 82.3512 103.494V100.078H81.0912V98.986H82.3792L82.6452 96.69H83.6112V98.986H85.6272V100.078H83.6112V103.592C83.6112 104.133 83.7232 104.511 83.9472 104.726C84.1805 104.941 84.4558 105.048 84.7732 105.048C85.0065 105.048 85.2258 105.011 85.4312 104.936C85.6458 104.861 85.8418 104.773 86.0192 104.67L86.3692 105.678C86.1825 105.79 85.9305 105.897 85.6132 106C85.2958 106.112 84.9645 106.168 84.6192 106.168ZM90.2742 106.168C89.2289 106.168 88.3982 105.837 87.7822 105.174C87.1755 104.502 86.8722 103.564 86.8722 102.36C86.8722 101.632 87.0075 100.983 87.2782 100.414C87.5582 99.8353 87.9455 99.3827 88.4402 99.056C88.9349 98.72 89.5089 98.552 90.1622 98.552C90.8622 98.552 91.4409 98.706 91.8982 99.014C92.3649 99.3127 92.7149 99.7187 92.9482 100.232C93.1815 100.745 93.2982 101.31 93.2982 101.926C93.2982 102.253 93.2842 102.57 93.2562 102.878H88.1602C88.2442 103.559 88.4822 104.091 88.8742 104.474C89.2662 104.857 89.7842 105.048 90.4282 105.048C90.8482 105.048 91.2262 105.006 91.5622 104.922C91.8982 104.829 92.2202 104.712 92.5282 104.572L92.8222 105.65C92.4862 105.799 92.1082 105.921 91.6882 106.014C91.2682 106.117 90.7969 106.168 90.2742 106.168ZM88.1462 101.856H92.1362C92.1362 101.147 91.9589 100.601 91.6042 100.218C91.2495 99.8353 90.7595 99.644 90.1342 99.644C89.5929 99.644 89.1449 99.8353 88.7902 100.218C88.4355 100.591 88.2209 101.137 88.1462 101.856ZM94.9774 106V98.72H96.1954V100.302C96.3168 99.994 96.4801 99.7093 96.6854 99.448C96.8908 99.1773 97.1474 98.9627 97.4554 98.804C97.7634 98.636 98.1228 98.552 98.5334 98.552C98.6734 98.552 98.8134 98.5613 98.9534 98.58C99.0934 98.5893 99.2101 98.608 99.3034 98.636L98.9254 99.938C98.7481 99.8633 98.5381 99.826 98.2954 99.826C97.9501 99.826 97.6188 99.924 97.3014 100.12C96.9934 100.316 96.7368 100.619 96.5314 101.03C96.3354 101.441 96.2374 101.963 96.2374 102.598V106H94.9774Z" fill="#999999"/>
</g>
<defs>
<clipPath id="clip0_0_4">
<rect width="123" height="109" fill="white"/>
</clipPath>
</defs>
</svg>
