<svg width="147" height="78" viewBox="0 0 147 78" fill="none" xmlns="http://www.w3.org/2000/svg">
<g clip-path="url(#clip0_0_13)">
<path d="M5.026 13.168C4.17667 13.168 3.42533 12.9673 2.772 12.566C2.11867 12.1553 1.61 11.5767 1.246 10.83C0.882 10.074 0.7 9.178 0.7 8.142C0.7 7.14333 0.882 6.26133 1.246 5.496C1.61933 4.72133 2.142 4.11933 2.814 3.69C3.49533 3.25133 4.28867 3.032 5.194 3.032C5.66067 3.032 6.08533 3.07867 6.468 3.172C6.85067 3.256 7.21 3.37733 7.546 3.536L7.14 4.656C6.85067 4.516 6.552 4.404 6.244 4.32C5.94533 4.236 5.59067 4.194 5.18 4.194C4.58267 4.194 4.046 4.348 3.57 4.656C3.10333 4.964 2.73467 5.40733 2.464 5.986C2.19333 6.56467 2.058 7.26467 2.058 8.086C2.058 8.87 2.18867 9.556 2.45 10.144C2.72067 10.732 3.08933 11.1893 3.556 11.516C4.032 11.8427 4.57333 12.006 5.18 12.006C5.63733 12.006 6.034 11.95 6.37 11.838C6.706 11.726 7.03267 11.5813 7.35 11.404L7.756 12.51C7.41067 12.6967 7.014 12.8553 6.566 12.986C6.12733 13.1073 5.614 13.168 5.026 13.168ZM11.9207 13.168C10.8753 13.168 10.0447 12.8367 9.42867 12.174C8.82201 11.502 8.51867 10.564 8.51867 9.36C8.51867 8.632 8.65401 7.98333 8.92467 7.414C9.20467 6.83533 9.59201 6.38267 10.0867 6.056C10.5813 5.72 11.1553 5.552 11.8087 5.552C12.5087 5.552 13.0873 5.706 13.5447 6.014C14.0113 6.31267 14.3613 6.71867 14.5947 7.232C14.828 7.74533 14.9447 8.31 14.9447 8.926C14.9447 9.25267 14.9307 9.57 14.9027 9.878H9.80667C9.89067 10.5593 10.1287 11.0913 10.5207 11.474C10.9127 11.8567 11.4307 12.048 12.0747 12.048C12.4947 12.048 12.8727 12.006 13.2087 11.922C13.5447 11.8287 13.8667 11.712 14.1747 11.572L14.4687 12.65C14.1327 12.7993 13.7547 12.9207 13.3347 13.014C12.9147 13.1167 12.4433 13.168 11.9207 13.168ZM9.79267 8.856H13.7827C13.7827 8.14667 13.6053 7.60067 13.2507 7.218C12.896 6.83533 12.406 6.644 11.7807 6.644C11.2393 6.644 10.7913 6.83533 10.4367 7.218C10.082 7.59133 9.86734 8.13733 9.79267 8.856ZM16.6239 13V5.72H17.8419V6.938C18.1032 6.546 18.4346 6.21933 18.8359 5.958C19.2466 5.68733 19.7319 5.552 20.2919 5.552C21.1132 5.552 21.7246 5.79933 22.1259 6.294C22.5366 6.78867 22.7419 7.442 22.7419 8.254V13H21.4819V8.394C21.4819 7.87133 21.3559 7.45133 21.1039 7.134C20.8612 6.81667 20.5206 6.658 20.0819 6.658C19.6526 6.658 19.2466 6.812 18.8639 7.12C18.4812 7.41867 18.1546 7.77333 17.8839 8.184V13H16.6239ZM27.4571 13.168C26.7571 13.168 26.2017 12.9393 25.7911 12.482C25.3897 12.0153 25.1891 11.3527 25.1891 10.494V7.078H23.9291V5.986H25.2171L25.4831 3.69H26.4491V5.986H28.4651V7.078H26.4491V10.592C26.4491 11.1333 26.5611 11.5113 26.7851 11.726C27.0184 11.9407 27.2937 12.048 27.6111 12.048C27.8444 12.048 28.0637 12.0107 28.2691 11.936C28.4837 11.8613 28.6797 11.7727 28.8571 11.67L29.2071 12.678C29.0204 12.79 28.7684 12.8973 28.4511 13C28.1337 13.112 27.8024 13.168 27.4571 13.168ZM30.4735 13V5.72H31.6915V7.302C31.8128 6.994 31.9762 6.70933 32.1815 6.448C32.3868 6.17733 32.6435 5.96267 32.9515 5.804C33.2595 5.636 33.6188 5.552 34.0295 5.552C34.1695 5.552 34.3095 5.56133 34.4495 5.58C34.5895 5.58933 34.7062 5.608 34.7995 5.636L34.4215 6.938C34.2442 6.86333 34.0342 6.826 33.7915 6.826C33.4462 6.826 33.1148 6.924 32.7975 7.12C32.4895 7.316 32.2328 7.61933 32.0275 8.03C31.8315 8.44067 31.7335 8.96333 31.7335 9.598V13H30.4735ZM38.5535 13.168C37.5082 13.168 36.6775 12.8367 36.0615 12.174C35.4548 11.502 35.1515 10.564 35.1515 9.36C35.1515 8.632 35.2868 7.98333 35.5575 7.414C35.8375 6.83533 36.2248 6.38267 36.7195 6.056C37.2142 5.72 37.7882 5.552 38.4415 5.552C39.1415 5.552 39.7202 5.706 40.1775 6.014C40.6442 6.31267 40.9942 6.71867 41.2275 7.232C41.4608 7.74533 41.5775 8.31 41.5775 8.926C41.5775 9.25267 41.5635 9.57 41.5355 9.878H36.4395C36.5235 10.5593 36.7615 11.0913 37.1535 11.474C37.5455 11.8567 38.0635 12.048 38.7075 12.048C39.1275 12.048 39.5055 12.006 39.8415 11.922C40.1775 11.8287 40.4995 11.712 40.8075 11.572L41.1015 12.65C40.7655 12.7993 40.3875 12.9207 39.9675 13.014C39.5475 13.1167 39.0762 13.168 38.5535 13.168ZM36.4255 8.856H40.4155C40.4155 8.14667 40.2382 7.60067 39.8835 7.218C39.5288 6.83533 39.0388 6.644 38.4135 6.644C37.8722 6.644 37.4242 6.83533 37.0695 7.218C36.7148 7.59133 36.5002 8.13733 36.4255 8.856ZM50.212 13.168C49.6147 13.168 49.0687 13.014 48.574 12.706C48.0793 12.398 47.6873 11.964 47.398 11.404C47.1087 10.8347 46.964 10.1673 46.964 9.402C46.964 8.66467 47.1087 8.00667 47.398 7.428C47.6967 6.84933 48.0887 6.392 48.574 6.056C49.0687 5.72 49.61 5.552 50.198 5.552C50.6833 5.552 51.0987 5.65 51.444 5.846C51.7987 6.042 52.074 6.24267 52.27 6.448V2.64H53.53V11.236C53.53 11.5907 53.614 11.824 53.782 11.936C53.9593 12.0387 54.1507 12.09 54.356 12.09L54.09 13.07C53.2033 13.07 52.662 12.7153 52.466 12.006C52.2607 12.2953 51.9713 12.5613 51.598 12.804C51.234 13.0467 50.772 13.168 50.212 13.168ZM50.492 12.048C50.8373 12.048 51.164 11.9687 51.472 11.81C51.7893 11.642 52.0553 11.4273 52.27 11.166V7.554C52.0927 7.33 51.8453 7.12467 51.528 6.938C51.2107 6.742 50.8607 6.644 50.478 6.644C50.03 6.644 49.638 6.76533 49.302 7.008C48.966 7.25067 48.7047 7.57733 48.518 7.988C48.3407 8.38933 48.252 8.84667 48.252 9.36C48.252 9.87333 48.35 10.3353 48.546 10.746C48.742 11.1473 49.008 11.4647 49.344 11.698C49.6893 11.9313 50.072 12.048 50.492 12.048ZM56.1239 5.972L55.8019 5.482C56.2873 5.146 56.5766 4.72133 56.6699 4.208C56.5859 4.24533 56.4879 4.264 56.3759 4.264C56.1146 4.264 55.8999 4.18 55.7319 4.012C55.5639 3.844 55.4799 3.62933 55.4799 3.368C55.4799 3.09733 55.5686 2.88267 55.7459 2.724C55.9233 2.556 56.1473 2.472 56.4179 2.472C56.7446 2.472 57.0106 2.57933 57.2159 2.794C57.4306 3.00867 57.5379 3.31667 57.5379 3.718C57.5379 4.14733 57.4119 4.572 57.1599 4.992C56.9173 5.40267 56.5719 5.72933 56.1239 5.972ZM61.9978 13.168C61.3911 13.168 60.8405 13.014 60.3458 12.706C59.8511 12.398 59.4545 11.964 59.1558 11.404C58.8665 10.8347 58.7218 10.1673 58.7218 9.402C58.7218 8.674 58.8665 8.02067 59.1558 7.442C59.4545 6.86333 59.8605 6.406 60.3738 6.07C60.8965 5.72467 61.4938 5.552 62.1658 5.552C62.5858 5.552 62.9638 5.62667 63.2998 5.776C63.6451 5.916 63.9438 6.09333 64.1958 6.308V5.72H65.3438V11.236C65.3438 11.5907 65.4278 11.824 65.5958 11.936C65.7731 12.0387 65.9645 12.09 66.1698 12.09L65.9038 13.07C65.0078 13.07 64.4665 12.706 64.2798 11.978C64.0651 12.2767 63.7711 12.552 63.3978 12.804C63.0338 13.0467 62.5671 13.168 61.9978 13.168ZM62.2778 12.048C62.6325 12.048 62.9685 11.964 63.2858 11.796C63.6031 11.6187 63.8691 11.3993 64.0838 11.138V7.232C63.8318 7.05467 63.5518 6.91467 63.2438 6.812C62.9451 6.7 62.6278 6.644 62.2918 6.644C61.8438 6.644 61.4471 6.76067 61.1018 6.994C60.7658 7.218 60.4998 7.53533 60.3038 7.946C60.1078 8.34733 60.0098 8.81867 60.0098 9.36C60.0098 9.88267 60.1078 10.3493 60.3038 10.76C60.4998 11.1613 60.7705 11.4787 61.1158 11.712C61.4611 11.936 61.8485 12.048 62.2778 12.048ZM67.8524 13V5.72H69.1124V13H67.8524ZM68.4824 4.474C68.2398 4.474 68.0298 4.38533 67.8524 4.208C67.6844 4.03067 67.6004 3.82533 67.6004 3.592C67.6004 3.32133 67.6798 3.10667 67.8384 2.948C67.9971 2.78933 68.2118 2.71 68.4824 2.71C68.7251 2.71 68.9304 2.79867 69.0984 2.976C69.2758 3.144 69.3644 3.34933 69.3644 3.592C69.3644 3.85333 69.2851 4.068 69.1264 4.236C68.9678 4.39467 68.7531 4.474 68.4824 4.474ZM74.1104 13.168C73.5131 13.168 72.9671 13.014 72.4724 12.706C71.9778 12.398 71.5858 11.964 71.2964 11.404C71.0071 10.8347 70.8624 10.1673 70.8624 9.402C70.8624 8.66467 71.0071 8.00667 71.2964 7.428C71.5951 6.84933 71.9871 6.392 72.4724 6.056C72.9671 5.72 73.5084 5.552 74.0964 5.552C74.5818 5.552 74.9971 5.65 75.3424 5.846C75.6971 6.042 75.9724 6.24267 76.1684 6.448V2.64H77.4284V11.236C77.4284 11.5907 77.5124 11.824 77.6804 11.936C77.8578 12.0387 78.0491 12.09 78.2544 12.09L77.9884 13.07C77.1018 13.07 76.5604 12.7153 76.3644 12.006C76.1591 12.2953 75.8698 12.5613 75.4964 12.804C75.1324 13.0467 74.6704 13.168 74.1104 13.168ZM74.3904 12.048C74.7358 12.048 75.0624 11.9687 75.3704 11.81C75.6878 11.642 75.9538 11.4273 76.1684 11.166V7.554C75.9911 7.33 75.7438 7.12467 75.4264 6.938C75.1091 6.742 74.7591 6.644 74.3764 6.644C73.9284 6.644 73.5364 6.76533 73.2004 7.008C72.8644 7.25067 72.6031 7.57733 72.4164 7.988C72.2391 8.38933 72.1504 8.84667 72.1504 9.36C72.1504 9.87333 72.2484 10.3353 72.4444 10.746C72.6404 11.1473 72.9064 11.4647 73.2424 11.698C73.5878 11.9313 73.9704 12.048 74.3904 12.048ZM82.7136 13.168C81.6683 13.168 80.8376 12.8367 80.2216 12.174C79.615 11.502 79.3116 10.564 79.3116 9.36C79.3116 8.632 79.447 7.98333 79.7176 7.414C79.9976 6.83533 80.385 6.38267 80.8796 6.056C81.3743 5.72 81.9483 5.552 82.6016 5.552C83.3016 5.552 83.8803 5.706 84.3376 6.014C84.8043 6.31267 85.1543 6.71867 85.3876 7.232C85.621 7.74533 85.7376 8.31 85.7376 8.926C85.7376 9.25267 85.7236 9.57 85.6956 9.878H80.5996C80.6836 10.5593 80.9216 11.0913 81.3136 11.474C81.7056 11.8567 82.2236 12.048 82.8676 12.048C83.2876 12.048 83.6656 12.006 84.0016 11.922C84.3376 11.8287 84.6596 11.712 84.9676 11.572L85.2616 12.65C84.9256 12.7993 84.5476 12.9207 84.1276 13.014C83.7076 13.1167 83.2363 13.168 82.7136 13.168ZM80.5856 8.856H84.5756C84.5756 8.14667 84.3983 7.60067 84.0436 7.218C83.689 6.83533 83.199 6.644 82.5736 6.644C82.0323 6.644 81.5843 6.83533 81.2296 7.218C80.875 7.59133 80.6603 8.13733 80.5856 8.856Z" fill="#999999"/>
<path d="M6.972 44.168L5.754 41.508C5.446 40.8453 5.05867 40.374 4.592 40.094C4.12533 39.814 3.528 39.674 2.8 39.674H2.59V44H1.26V34.228C1.75467 34.1813 2.226 34.1487 2.674 34.13C3.13133 34.102 3.61667 34.088 4.13 34.088C5.32467 34.088 6.22067 34.3307 6.818 34.816C7.42467 35.3013 7.728 35.9267 7.728 36.692C7.728 37.3733 7.52267 37.924 7.112 38.344C6.71067 38.7547 6.12733 39.0627 5.362 39.268C5.614 39.38 5.838 39.5153 6.034 39.674C6.23 39.8233 6.41667 40.0287 6.594 40.29C6.78067 40.542 6.96733 40.8733 7.154 41.284L8.218 43.58L6.972 44.168ZM2.59 38.554H4.13C4.802 38.554 5.348 38.4047 5.768 38.106C6.188 37.8073 6.398 37.378 6.398 36.818C6.398 36.3513 6.202 35.9687 5.81 35.67C5.418 35.362 4.858 35.208 4.13 35.208C3.81267 35.208 3.528 35.2127 3.276 35.222C3.024 35.2313 2.79533 35.2453 2.59 35.264V38.554ZM12.6726 44.168C11.6273 44.168 10.7966 43.8367 10.1806 43.174C9.57396 42.502 9.27063 41.564 9.27063 40.36C9.27063 39.632 9.40596 38.9833 9.67663 38.414C9.95663 37.8353 10.344 37.3827 10.8386 37.056C11.3333 36.72 11.9073 36.552 12.5606 36.552C13.2606 36.552 13.8393 36.706 14.2966 37.014C14.7633 37.3127 15.1133 37.7187 15.3466 38.232C15.58 38.7453 15.6966 39.31 15.6966 39.926C15.6966 40.2527 15.6826 40.57 15.6546 40.878H10.5586C10.6426 41.5593 10.8806 42.0913 11.2726 42.474C11.6646 42.8567 12.1826 43.048 12.8266 43.048C13.2466 43.048 13.6246 43.006 13.9606 42.922C14.2966 42.8287 14.6186 42.712 14.9266 42.572L15.2206 43.65C14.8846 43.7993 14.5066 43.9207 14.0866 44.014C13.6666 44.1167 13.1953 44.168 12.6726 44.168ZM10.5446 39.856H14.5346C14.5346 39.1467 14.3573 38.6007 14.0026 38.218C13.648 37.8353 13.158 37.644 12.5326 37.644C11.9913 37.644 11.5433 37.8353 11.1886 38.218C10.834 38.5913 10.6193 39.1373 10.5446 39.856ZM20.3159 44.168C19.6252 44.168 19.0185 44.0093 18.4959 43.692C17.9825 43.3653 17.5859 42.9173 17.3059 42.348C17.0259 41.7693 16.8859 41.1067 16.8859 40.36C16.8859 39.66 17.0259 39.0207 17.3059 38.442C17.5952 37.8633 18.0059 37.406 18.5379 37.07C19.0699 36.7247 19.6952 36.552 20.4139 36.552C20.8245 36.552 21.1839 36.5893 21.4919 36.664C21.8092 36.7387 22.1125 36.846 22.4019 36.986L22.0239 38.05C21.7625 37.9193 21.5105 37.826 21.2679 37.77C21.0345 37.7047 20.7732 37.672 20.4839 37.672C19.8305 37.672 19.2799 37.91 18.8319 38.386C18.3932 38.8527 18.1739 39.5013 18.1739 40.332C18.1739 40.836 18.2672 41.2933 18.4539 41.704C18.6405 42.1147 18.8972 42.4413 19.2239 42.684C19.5599 42.9267 19.9519 43.048 20.3999 43.048C20.7545 43.048 21.0579 43.0107 21.3099 42.936C21.5619 42.852 21.8325 42.7353 22.1219 42.586L22.5139 43.65C22.2245 43.8087 21.8979 43.9347 21.5339 44.028C21.1792 44.1213 20.7732 44.168 20.3159 44.168ZM23.9794 44V36.72H25.1974V38.302C25.3187 37.994 25.482 37.7093 25.6874 37.448C25.8927 37.1773 26.1494 36.9627 26.4574 36.804C26.7654 36.636 27.1247 36.552 27.5354 36.552C27.6754 36.552 27.8154 36.5613 27.9554 36.58C28.0954 36.5893 28.212 36.608 28.3054 36.636L27.9274 37.938C27.75 37.8633 27.54 37.826 27.2974 37.826C26.952 37.826 26.6207 37.924 26.3034 38.12C25.9954 38.316 25.7387 38.6193 25.5334 39.03C25.3374 39.4407 25.2394 39.9633 25.2394 40.598V44H23.9794ZM31.9512 44.168C31.5312 44.168 31.1345 44.0793 30.7612 43.902C30.3878 43.7247 30.0845 43.44 29.8512 43.048C29.6178 42.6467 29.5012 42.1147 29.5012 41.452V36.72H30.7612V41.284C30.7612 41.8533 30.8825 42.292 31.1252 42.6C31.3678 42.8987 31.7225 43.048 32.1892 43.048C32.5718 43.048 32.9405 42.9733 33.2952 42.824C33.6592 42.6653 33.9812 42.4553 34.2612 42.194V36.72H35.5212V42.11C35.5212 42.5113 35.6052 42.7773 35.7732 42.908C35.9505 43.0293 36.1418 43.09 36.3472 43.09L36.0812 44.07C35.2132 44.07 34.6765 43.7247 34.4712 43.034C34.1445 43.37 33.7665 43.6453 33.3372 43.86C32.9078 44.0653 32.4458 44.168 31.9512 44.168ZM40.5684 44.168C39.8684 44.168 39.3131 43.9393 38.9024 43.482C38.5011 43.0153 38.3004 42.3527 38.3004 41.494V38.078H37.0404V36.986H38.3284L38.5944 34.69H39.5604V36.986H41.5764V38.078H39.5604V41.592C39.5604 42.1333 39.6724 42.5113 39.8964 42.726C40.1297 42.9407 40.4051 43.048 40.7224 43.048C40.9557 43.048 41.1751 43.0107 41.3804 42.936C41.5951 42.8613 41.7911 42.7727 41.9684 42.67L42.3184 43.678C42.1317 43.79 41.8797 43.8973 41.5624 44C41.2451 44.112 40.9137 44.168 40.5684 44.168ZM46.2234 44.168C45.1781 44.168 44.3474 43.8367 43.7314 43.174C43.1247 42.502 42.8214 41.564 42.8214 40.36C42.8214 39.632 42.9567 38.9833 43.2274 38.414C43.5074 37.8353 43.8947 37.3827 44.3894 37.056C44.8841 36.72 45.4581 36.552 46.1114 36.552C46.8114 36.552 47.3901 36.706 47.8474 37.014C48.3141 37.3127 48.6641 37.7187 48.8974 38.232C49.1307 38.7453 49.2474 39.31 49.2474 39.926C49.2474 40.2527 49.2334 40.57 49.2054 40.878H44.1094C44.1934 41.5593 44.4314 42.0913 44.8234 42.474C45.2154 42.8567 45.7334 43.048 46.3774 43.048C46.7974 43.048 47.1754 43.006 47.5114 42.922C47.8474 42.8287 48.1694 42.712 48.4774 42.572L48.7714 43.65C48.4354 43.7993 48.0574 43.9207 47.6374 44.014C47.2174 44.1167 46.7461 44.168 46.2234 44.168ZM44.0954 39.856H48.0854C48.0854 39.1467 47.9081 38.6007 47.5534 38.218C47.1987 37.8353 46.7087 37.644 46.0834 37.644C45.5421 37.644 45.0941 37.8353 44.7394 38.218C44.3847 38.5913 44.1701 39.1373 44.0954 39.856ZM50.9266 44V36.72H52.1446V37.938C52.406 37.546 52.7373 37.2193 53.1386 36.958C53.54 36.6873 53.9973 36.552 54.5106 36.552C55.0893 36.552 55.5606 36.692 55.9246 36.972C56.298 37.252 56.5593 37.6253 56.7086 38.092C56.998 37.6627 57.3386 37.2987 57.7306 37C58.132 36.7013 58.6266 36.552 59.2146 36.552C60.008 36.552 60.596 36.804 60.9786 37.308C61.3706 37.8027 61.5666 38.4513 61.5666 39.254V44H60.3066V39.352C60.3066 38.848 60.19 38.442 59.9566 38.134C59.7233 37.8167 59.4013 37.658 58.9906 37.658C58.5706 37.658 58.1786 37.8167 57.8146 38.134C57.46 38.442 57.1473 38.806 56.8766 39.226V44H55.6166V39.352C55.6166 38.848 55.5 38.442 55.2666 38.134C55.0333 37.8167 54.7113 37.658 54.3006 37.658C53.89 37.658 53.5026 37.812 53.1386 38.12C52.7746 38.4187 52.4573 38.7733 52.1866 39.184V44H50.9266ZM66.6492 44.168C65.6039 44.168 64.7732 43.8367 64.1572 43.174C63.5505 42.502 63.2472 41.564 63.2472 40.36C63.2472 39.632 63.3825 38.9833 63.6532 38.414C63.9332 37.8353 64.3205 37.3827 64.8152 37.056C65.3099 36.72 65.8839 36.552 66.5372 36.552C67.2372 36.552 67.8159 36.706 68.2732 37.014C68.7399 37.3127 69.0899 37.7187 69.3232 38.232C69.5565 38.7453 69.6732 39.31 69.6732 39.926C69.6732 40.2527 69.6592 40.57 69.6312 40.878H64.5352C64.6192 41.5593 64.8572 42.0913 65.2492 42.474C65.6412 42.8567 66.1592 43.048 66.8032 43.048C67.2232 43.048 67.6012 43.006 67.9372 42.922C68.2732 42.8287 68.5952 42.712 68.9032 42.572L69.1972 43.65C68.8612 43.7993 68.4832 43.9207 68.0632 44.014C67.6432 44.1167 67.1719 44.168 66.6492 44.168ZM64.5212 39.856H68.5112C68.5112 39.1467 68.3339 38.6007 67.9792 38.218C67.6245 37.8353 67.1345 37.644 66.5092 37.644C65.9679 37.644 65.5199 37.8353 65.1652 38.218C64.8105 38.5913 64.5959 39.1373 64.5212 39.856ZM71.3524 44V36.72H72.5704V37.938C72.8318 37.546 73.1631 37.2193 73.5644 36.958C73.9751 36.6873 74.4604 36.552 75.0204 36.552C75.8418 36.552 76.4531 36.7993 76.8544 37.294C77.2651 37.7887 77.4704 38.442 77.4704 39.254V44H76.2104V39.394C76.2104 38.8713 76.0844 38.4513 75.8324 38.134C75.5898 37.8167 75.2491 37.658 74.8104 37.658C74.3811 37.658 73.9751 37.812 73.5924 38.12C73.2098 38.4187 72.8831 38.7733 72.6124 39.184V44H71.3524ZM82.1856 44.168C81.4856 44.168 80.9302 43.9393 80.5196 43.482C80.1182 43.0153 79.9176 42.3527 79.9176 41.494V38.078H78.6576V36.986H79.9456L80.2116 34.69H81.1776V36.986H83.1936V38.078H81.1776V41.592C81.1776 42.1333 81.2896 42.5113 81.5136 42.726C81.7469 42.9407 82.0222 43.048 82.3396 43.048C82.5729 43.048 82.7922 43.0107 82.9976 42.936C83.2122 42.8613 83.4082 42.7727 83.5856 42.67L83.9356 43.678C83.7489 43.79 83.4969 43.8973 83.1796 44C82.8622 44.112 82.5309 44.168 82.1856 44.168Z" fill="#999999"/>
<path d="M1.26 75V65.228C1.64267 65.1813 2.06267 65.1487 2.52 65.13C2.98667 65.102 3.46733 65.088 3.962 65.088C4.774 65.088 5.46467 65.2187 6.034 65.48C6.60333 65.732 7.03733 66.082 7.336 66.53C7.63467 66.978 7.784 67.4913 7.784 68.07C7.784 68.77 7.61133 69.3627 7.266 69.848C6.92067 70.3333 6.44 70.7067 5.824 70.968C5.208 71.22 4.494 71.346 3.682 71.346C3.29 71.346 2.926 71.332 2.59 71.304V75H1.26ZM3.85 70.24C4.68067 70.24 5.32467 70.0533 5.782 69.68C6.23933 69.3067 6.468 68.8073 6.468 68.182C6.468 67.5753 6.24867 67.0947 5.81 66.74C5.37133 66.3853 4.746 66.208 3.934 66.208C3.682 66.208 3.444 66.2127 3.22 66.222C2.996 66.2313 2.786 66.2453 2.59 66.264V70.17C2.73933 70.1887 2.92133 70.2073 3.136 70.226C3.35067 70.2353 3.58867 70.24 3.85 70.24ZM9.25477 75V67.72H10.4728V69.302C10.5941 68.994 10.7574 68.7093 10.9628 68.448C11.1681 68.1773 11.4248 67.9627 11.7328 67.804C12.0408 67.636 12.4001 67.552 12.8108 67.552C12.9508 67.552 13.0908 67.5613 13.2308 67.58C13.3708 67.5893 13.4874 67.608 13.5808 67.636L13.2028 68.938C13.0254 68.8633 12.8154 68.826 12.5728 68.826C12.2274 68.826 11.8961 68.924 11.5788 69.12C11.2708 69.316 11.0141 69.6193 10.8088 70.03C10.6128 70.4407 10.5148 70.9633 10.5148 71.598V75H9.25477ZM17.3347 75.168C16.2894 75.168 15.4587 74.8367 14.8427 74.174C14.2361 73.502 13.9327 72.564 13.9327 71.36C13.9327 70.632 14.0681 69.9833 14.3387 69.414C14.6187 68.8353 15.0061 68.3827 15.5007 68.056C15.9954 67.72 16.5694 67.552 17.2227 67.552C17.9227 67.552 18.5014 67.706 18.9587 68.014C19.4254 68.3127 19.7754 68.7187 20.0087 69.232C20.2421 69.7453 20.3587 70.31 20.3587 70.926C20.3587 71.2527 20.3447 71.57 20.3167 71.878H15.2207C15.3047 72.5593 15.5427 73.0913 15.9347 73.474C16.3267 73.8567 16.8447 74.048 17.4887 74.048C17.9087 74.048 18.2867 74.006 18.6227 73.922C18.9587 73.8287 19.2807 73.712 19.5887 73.572L19.8827 74.65C19.5467 74.7993 19.1687 74.9207 18.7487 75.014C18.3287 75.1167 17.8574 75.168 17.3347 75.168ZM15.2067 70.856H19.1967C19.1967 70.1467 19.0194 69.6007 18.6647 69.218C18.3101 68.8353 17.8201 68.644 17.1947 68.644C16.6534 68.644 16.2054 68.8353 15.8507 69.218C15.4961 69.5913 15.2814 70.1373 15.2067 70.856ZM16.0607 66.95L15.6267 66.096L18.2727 64.346L18.8607 65.522L16.0607 66.95ZM22.178 75V69.078H21.058V67.986H22.178V67.132C22.178 66.3107 22.4066 65.662 22.864 65.186C23.3213 64.71 23.9186 64.472 24.656 64.472C25.0386 64.472 25.3746 64.5187 25.664 64.612C25.9533 64.696 26.2286 64.8033 26.49 64.934L26.112 65.998C25.916 65.8953 25.706 65.802 25.482 65.718C25.258 65.634 25.0106 65.592 24.74 65.592C24.348 65.592 24.0306 65.718 23.788 65.97C23.5546 66.2127 23.438 66.572 23.438 67.048V67.986H25.594V69.078H23.438V75H22.178ZM29.6121 75.168C28.5667 75.168 27.7361 74.8367 27.1201 74.174C26.5134 73.502 26.2101 72.564 26.2101 71.36C26.2101 70.632 26.3454 69.9833 26.6161 69.414C26.8961 68.8353 27.2834 68.3827 27.7781 68.056C28.2727 67.72 28.8467 67.552 29.5001 67.552C30.2001 67.552 30.7787 67.706 31.2361 68.014C31.7027 68.3127 32.0527 68.7187 32.2861 69.232C32.5194 69.7453 32.6361 70.31 32.6361 70.926C32.6361 71.2527 32.6221 71.57 32.5941 71.878H27.4981C27.5821 72.5593 27.8201 73.0913 28.2121 73.474C28.6041 73.8567 29.1221 74.048 29.7661 74.048C30.1861 74.048 30.5641 74.006 30.9001 73.922C31.2361 73.8287 31.5581 73.712 31.8661 73.572L32.1601 74.65C31.8241 74.7993 31.4461 74.9207 31.0261 75.014C30.6061 75.1167 30.1347 75.168 29.6121 75.168ZM27.4841 70.856H31.4741C31.4741 70.1467 31.2967 69.6007 30.9421 69.218C30.5874 68.8353 30.0974 68.644 29.4721 68.644C28.9307 68.644 28.4827 68.8353 28.1281 69.218C27.7734 69.5913 27.5587 70.1373 27.4841 70.856ZM28.3381 66.95L27.9041 66.096L30.5501 64.346L31.1381 65.522L28.3381 66.95ZM34.3153 75V67.72H35.5333V69.302C35.6546 68.994 35.818 68.7093 36.0233 68.448C36.2286 68.1773 36.4853 67.9627 36.7933 67.804C37.1013 67.636 37.4606 67.552 37.8713 67.552C38.0113 67.552 38.1513 67.5613 38.2913 67.58C38.4313 67.5893 38.548 67.608 38.6413 67.636L38.2633 68.938C38.086 68.8633 37.876 68.826 37.6333 68.826C37.288 68.826 36.9566 68.924 36.6393 69.12C36.3313 69.316 36.0746 69.6193 35.8693 70.03C35.6733 70.4407 35.5753 70.9633 35.5753 71.598V75H34.3153ZM42.3953 75.168C41.3499 75.168 40.5193 74.8367 39.9033 74.174C39.2966 73.502 38.9933 72.564 38.9933 71.36C38.9933 70.632 39.1286 69.9833 39.3993 69.414C39.6793 68.8353 40.0666 68.3827 40.5613 68.056C41.0559 67.72 41.6299 67.552 42.2833 67.552C42.9833 67.552 43.5619 67.706 44.0193 68.014C44.4859 68.3127 44.8359 68.7187 45.0693 69.232C45.3026 69.7453 45.4193 70.31 45.4193 70.926C45.4193 71.2527 45.4053 71.57 45.3773 71.878H40.2813C40.3653 72.5593 40.6033 73.0913 40.9953 73.474C41.3873 73.8567 41.9053 74.048 42.5493 74.048C42.9693 74.048 43.3473 74.006 43.6833 73.922C44.0193 73.8287 44.3413 73.712 44.6493 73.572L44.9433 74.65C44.6073 74.7993 44.2293 74.9207 43.8093 75.014C43.3893 75.1167 42.9179 75.168 42.3953 75.168ZM40.2673 70.856H44.2573C44.2573 70.1467 44.0799 69.6007 43.7253 69.218C43.3706 68.8353 42.8806 68.644 42.2553 68.644C41.7139 68.644 41.2659 68.8353 40.9113 69.218C40.5566 69.5913 40.3419 70.1373 40.2673 70.856ZM47.0985 75V67.72H48.3165V68.938C48.5778 68.546 48.9092 68.2193 49.3105 67.958C49.7212 67.6873 50.2065 67.552 50.7665 67.552C51.5878 67.552 52.1992 67.7993 52.6005 68.294C53.0112 68.7887 53.2165 69.442 53.2165 70.254V75H51.9565V70.394C51.9565 69.8713 51.8305 69.4513 51.5785 69.134C51.3358 68.8167 50.9952 68.658 50.5565 68.658C50.1272 68.658 49.7212 68.812 49.3385 69.12C48.9558 69.4187 48.6292 69.7733 48.3585 70.184V75H47.0985ZM58.3237 75.168C57.633 75.168 57.0263 75.0093 56.5037 74.692C55.9903 74.3653 55.5937 73.9173 55.3137 73.348C55.0337 72.7693 54.8937 72.1067 54.8937 71.36C54.8937 70.66 55.0337 70.0207 55.3137 69.442C55.603 68.8633 56.0137 68.406 56.5457 68.07C57.0777 67.7247 57.703 67.552 58.4217 67.552C58.8323 67.552 59.1917 67.5893 59.4997 67.664C59.817 67.7387 60.1203 67.846 60.4097 67.986L60.0317 69.05C59.7703 68.9193 59.5183 68.826 59.2757 68.77C59.0423 68.7047 58.781 68.672 58.4917 68.672C57.8383 68.672 57.2877 68.91 56.8397 69.386C56.401 69.8527 56.1817 70.5013 56.1817 71.332C56.1817 71.836 56.275 72.2933 56.4617 72.704C56.6483 73.1147 56.905 73.4413 57.2317 73.684C57.5677 73.9267 57.9597 74.048 58.4077 74.048C58.7623 74.048 59.0657 74.0107 59.3177 73.936C59.5697 73.852 59.8403 73.7353 60.1297 73.586L60.5217 74.65C60.2323 74.8087 59.9057 74.9347 59.5417 75.028C59.187 75.1213 58.781 75.168 58.3237 75.168ZM64.7625 75.168C63.7171 75.168 62.8865 74.8367 62.2705 74.174C61.6638 73.502 61.3605 72.564 61.3605 71.36C61.3605 70.632 61.4958 69.9833 61.7665 69.414C62.0465 68.8353 62.4338 68.3827 62.9285 68.056C63.4231 67.72 63.9971 67.552 64.6505 67.552C65.3505 67.552 65.9291 67.706 66.3865 68.014C66.8531 68.3127 67.2031 68.7187 67.4365 69.232C67.6698 69.7453 67.7865 70.31 67.7865 70.926C67.7865 71.2527 67.7725 71.57 67.7445 71.878H62.6485C62.7325 72.5593 62.9705 73.0913 63.3625 73.474C63.7545 73.8567 64.2725 74.048 64.9165 74.048C65.3365 74.048 65.7145 74.006 66.0505 73.922C66.3865 73.8287 66.7085 73.712 67.0165 73.572L67.3105 74.65C66.9745 74.7993 66.5965 74.9207 66.1765 75.014C65.7565 75.1167 65.2851 75.168 64.7625 75.168ZM62.6345 70.856H66.6245C66.6245 70.1467 66.4471 69.6007 66.0925 69.218C65.7378 68.8353 65.2478 68.644 64.6225 68.644C64.0811 68.644 63.6331 68.8353 63.2785 69.218C62.9238 69.5913 62.7091 70.1373 62.6345 70.856ZM71.4257 75.168C70.875 75.168 70.3757 75.098 69.9277 74.958C69.489 74.818 69.125 74.636 68.8357 74.412L69.3677 73.362C69.6104 73.5673 69.9137 73.74 70.2777 73.88C70.651 74.0107 71.0477 74.076 71.4677 74.076C71.9904 74.076 72.3824 73.992 72.6437 73.824C72.9144 73.6467 73.0497 73.4227 73.0497 73.152C73.0497 72.956 72.9984 72.7833 72.8957 72.634C72.8024 72.4847 72.625 72.34 72.3637 72.2C72.1024 72.0507 71.7244 71.892 71.2297 71.724C70.5484 71.4907 70.035 71.2153 69.6897 70.898C69.3537 70.5713 69.1857 70.1233 69.1857 69.554C69.1857 68.994 69.4284 68.5227 69.9137 68.14C70.4084 67.748 71.0897 67.552 71.9577 67.552C72.4244 67.552 72.8397 67.6033 73.2037 67.706C73.5677 67.7993 73.8944 67.9207 74.1837 68.07L73.8337 69.106C73.5817 68.9567 73.2924 68.8353 72.9657 68.742C72.6484 68.6487 72.2937 68.602 71.9017 68.602C71.4164 68.602 71.0477 68.7 70.7957 68.896C70.5437 69.092 70.4177 69.3067 70.4177 69.54C70.4177 69.764 70.5157 69.9553 70.7117 70.114C70.9077 70.2727 71.2904 70.4453 71.8597 70.632C72.7837 70.94 73.4277 71.2807 73.7917 71.654C74.1557 72.0273 74.3377 72.494 74.3377 73.054C74.3377 73.7073 74.0717 74.2253 73.5397 74.608C73.017 74.9813 72.3124 75.168 71.4257 75.168ZM82.9698 75.168C82.3725 75.168 81.8265 75.014 81.3318 74.706C80.8371 74.398 80.4451 73.964 80.1558 73.404C79.8665 72.8347 79.7218 72.1673 79.7218 71.402C79.7218 70.6647 79.8665 70.0067 80.1558 69.428C80.4545 68.8493 80.8465 68.392 81.3318 68.056C81.8265 67.72 82.3678 67.552 82.9558 67.552C83.4411 67.552 83.8565 67.65 84.2018 67.846C84.5565 68.042 84.8318 68.2427 85.0278 68.448V64.64H86.2878V73.236C86.2878 73.5907 86.3718 73.824 86.5398 73.936C86.7171 74.0387 86.9085 74.09 87.1138 74.09L86.8478 75.07C85.9611 75.07 85.4198 74.7153 85.2238 74.006C85.0185 74.2953 84.7291 74.5613 84.3558 74.804C83.9918 75.0467 83.5298 75.168 82.9698 75.168ZM83.2498 74.048C83.5951 74.048 83.9218 73.9687 84.2298 73.81C84.5471 73.642 84.8131 73.4273 85.0278 73.166V69.554C84.8505 69.33 84.6031 69.1247 84.2858 68.938C83.9685 68.742 83.6185 68.644 83.2358 68.644C82.7878 68.644 82.3958 68.7653 82.0598 69.008C81.7238 69.2507 81.4625 69.5773 81.2758 69.988C81.0985 70.3893 81.0098 70.8467 81.0098 71.36C81.0098 71.8733 81.1078 72.3353 81.3038 72.746C81.4998 73.1473 81.7658 73.4647 82.1018 73.698C82.4471 73.9313 82.8298 74.048 83.2498 74.048ZM91.573 75.168C90.5277 75.168 89.697 74.8367 89.081 74.174C88.4743 73.502 88.171 72.564 88.171 71.36C88.171 70.632 88.3063 69.9833 88.577 69.414C88.857 68.8353 89.2443 68.3827 89.739 68.056C90.2337 67.72 90.8077 67.552 91.461 67.552C92.161 67.552 92.7397 67.706 93.197 68.014C93.6637 68.3127 94.0137 68.7187 94.247 69.232C94.4803 69.7453 94.597 70.31 94.597 70.926C94.597 71.2527 94.583 71.57 94.555 71.878H89.459C89.543 72.5593 89.781 73.0913 90.173 73.474C90.565 73.8567 91.083 74.048 91.727 74.048C92.147 74.048 92.525 74.006 92.861 73.922C93.197 73.8287 93.519 73.712 93.827 73.572L94.121 74.65C93.785 74.7993 93.407 74.9207 92.987 75.014C92.567 75.1167 92.0957 75.168 91.573 75.168ZM89.445 70.856H93.435C93.435 70.1467 93.2577 69.6007 92.903 69.218C92.5483 68.8353 92.0583 68.644 91.433 68.644C90.8917 68.644 90.4437 68.8353 90.089 69.218C89.7343 69.5913 89.5197 70.1373 89.445 70.856ZM103.414 75.168C102.723 75.168 102.116 75.0093 101.594 74.692C101.08 74.3653 100.684 73.9173 100.404 73.348C100.124 72.7693 99.9835 72.1067 99.9835 71.36C99.9835 70.66 100.124 70.0207 100.404 69.442C100.693 68.8633 101.104 68.406 101.636 68.07C102.168 67.7247 102.793 67.552 103.512 67.552C103.922 67.552 104.282 67.5893 104.59 67.664C104.907 67.7387 105.21 67.846 105.5 67.986L105.122 69.05C104.86 68.9193 104.608 68.826 104.366 68.77C104.132 68.7047 103.871 68.672 103.582 68.672C102.928 68.672 102.378 68.91 101.93 69.386C101.491 69.8527 101.272 70.5013 101.272 71.332C101.272 71.836 101.365 72.2933 101.552 72.704C101.738 73.1147 101.995 73.4413 102.322 73.684C102.658 73.9267 103.05 74.048 103.498 74.048C103.852 74.048 104.156 74.0107 104.408 73.936C104.66 73.852 104.93 73.7353 105.22 73.586L105.612 74.65C105.322 74.8087 104.996 74.9347 104.632 75.028C104.277 75.1213 103.871 75.168 103.414 75.168ZM110.006 75.168C109.316 75.168 108.695 75.0093 108.144 74.692C107.594 74.3653 107.16 73.9173 106.842 73.348C106.534 72.7693 106.38 72.1067 106.38 71.36C106.38 70.576 106.539 69.8993 106.856 69.33C107.174 68.7607 107.608 68.322 108.158 68.014C108.709 67.706 109.325 67.552 110.006 67.552C110.688 67.552 111.299 67.706 111.84 68.014C112.391 68.322 112.825 68.7607 113.142 69.33C113.469 69.89 113.632 70.5573 113.632 71.332C113.632 72.1067 113.474 72.7833 113.156 73.362C112.839 73.9313 112.405 74.3747 111.854 74.692C111.313 75.0093 110.697 75.168 110.006 75.168ZM110.006 74.048C110.744 74.048 111.318 73.8007 111.728 73.306C112.139 72.802 112.344 72.1533 112.344 71.36C112.344 70.8747 112.242 70.4313 112.036 70.03C111.831 69.6193 111.551 69.2927 111.196 69.05C110.851 68.798 110.454 68.672 110.006 68.672C109.269 68.672 108.695 68.9147 108.284 69.4C107.874 69.8853 107.668 70.5293 107.668 71.332C107.668 71.8173 107.771 72.27 107.976 72.69C108.182 73.1007 108.457 73.432 108.802 73.684C109.157 73.9267 109.558 74.048 110.006 74.048ZM118.374 75.168C117.683 75.168 117.062 75.0093 116.512 74.692C115.961 74.3653 115.527 73.9173 115.21 73.348C114.902 72.7693 114.748 72.1067 114.748 71.36C114.748 70.576 114.906 69.8993 115.224 69.33C115.541 68.7607 115.975 68.322 116.526 68.014C117.076 67.706 117.692 67.552 118.374 67.552C119.055 67.552 119.666 67.706 120.208 68.014C120.758 68.322 121.192 68.7607 121.51 69.33C121.836 69.89 122 70.5573 122 71.332C122 72.1067 121.841 72.7833 121.524 73.362C121.206 73.9313 120.772 74.3747 120.222 74.692C119.68 75.0093 119.064 75.168 118.374 75.168ZM118.374 74.048C119.111 74.048 119.685 73.8007 120.096 73.306C120.506 72.802 120.712 72.1533 120.712 71.36C120.712 70.8747 120.609 70.4313 120.404 70.03C120.198 69.6193 119.918 69.2927 119.564 69.05C119.218 68.798 118.822 68.672 118.374 68.672C117.636 68.672 117.062 68.9147 116.652 69.4C116.241 69.8853 116.035 70.5293 116.035 71.332C116.035 71.8173 116.138 72.27 116.344 72.69C116.549 73.1007 116.824 73.432 117.17 73.684C117.524 73.9267 117.926 74.048 118.374 74.048ZM128.701 75.14L124.935 71.262V75H123.675V64.64H124.935V70.562L128.225 67.58L128.953 68.378L126.139 70.87L129.569 74.3L128.701 75.14ZM130.825 75V67.72H132.085V75H130.825ZM131.455 66.474C131.212 66.474 131.002 66.3853 130.825 66.208C130.657 66.0307 130.573 65.8253 130.573 65.592C130.573 65.3213 130.652 65.1067 130.811 64.948C130.97 64.7893 131.184 64.71 131.455 64.71C131.698 64.71 131.903 64.7987 132.071 64.976C132.248 65.144 132.337 65.3493 132.337 65.592C132.337 65.8533 132.258 66.068 132.099 66.236C131.94 66.3947 131.726 66.474 131.455 66.474ZM137.237 75.168C136.192 75.168 135.361 74.8367 134.745 74.174C134.138 73.502 133.835 72.564 133.835 71.36C133.835 70.632 133.97 69.9833 134.241 69.414C134.521 68.8353 134.908 68.3827 135.403 68.056C135.898 67.72 136.472 67.552 137.125 67.552C137.825 67.552 138.404 67.706 138.861 68.014C139.328 68.3127 139.678 68.7187 139.911 69.232C140.144 69.7453 140.261 70.31 140.261 70.926C140.261 71.2527 140.247 71.57 140.219 71.878H135.123C135.207 72.5593 135.445 73.0913 135.837 73.474C136.229 73.8567 136.747 74.048 137.391 74.048C137.811 74.048 138.189 74.006 138.525 73.922C138.861 73.8287 139.183 73.712 139.491 73.572L139.785 74.65C139.449 74.7993 139.071 74.9207 138.651 75.014C138.231 75.1167 137.76 75.168 137.237 75.168ZM135.109 70.856H139.099C139.099 70.1467 138.922 69.6007 138.567 69.218C138.212 68.8353 137.722 68.644 137.097 68.644C136.556 68.644 136.108 68.8353 135.753 69.218C135.398 69.5913 135.184 70.1373 135.109 70.856ZM143.9 75.168C143.35 75.168 142.85 75.098 142.402 74.958C141.964 74.818 141.6 74.636 141.31 74.412L141.842 73.362C142.085 73.5673 142.388 73.74 142.752 73.88C143.126 74.0107 143.522 74.076 143.942 74.076C144.465 74.076 144.857 73.992 145.118 73.824C145.389 73.6467 145.524 73.4227 145.524 73.152C145.524 72.956 145.473 72.7833 145.37 72.634C145.277 72.4847 145.1 72.34 144.838 72.2C144.577 72.0507 144.199 71.892 143.704 71.724C143.023 71.4907 142.51 71.2153 142.164 70.898C141.828 70.5713 141.66 70.1233 141.66 69.554C141.66 68.994 141.903 68.5227 142.388 68.14C142.883 67.748 143.564 67.552 144.432 67.552C144.899 67.552 145.314 67.6033 145.678 67.706C146.042 67.7993 146.369 67.9207 146.658 68.07L146.308 69.106C146.056 68.9567 145.767 68.8353 145.44 68.742C145.123 68.6487 144.768 68.602 144.376 68.602C143.891 68.602 143.522 68.7 143.27 68.896C143.018 69.092 142.892 69.3067 142.892 69.54C142.892 69.764 142.99 69.9553 143.186 70.114C143.382 70.2727 143.765 70.4453 144.334 70.632C145.258 70.94 145.902 71.2807 146.266 71.654C146.63 72.0273 146.812 72.494 146.812 73.054C146.812 73.7073 146.546 74.2253 146.014 74.608C145.492 74.9813 144.787 75.168 143.9 75.168Z" fill="#999999"/>
</g>
<defs>
<clipPath id="clip0_0_13">
<rect width="147" height="78" fill="white"/>
</clipPath>
</defs>
</svg>
