<svg width="83" height="14" viewBox="0 0 83 14" fill="none" xmlns="http://www.w3.org/2000/svg">
<path d="M3.384 13.128C2.776 13.128 2.24267 13.112 1.784 13.08C1.336 13.048 0.888 13.0107 0.44 12.968V1.832C0.941333 1.77867 1.432 1.74133 1.912 1.72C2.392 1.688 2.94133 1.672 3.56 1.672C4.52 1.672 5.34667 1.82133 6.04 2.12C6.744 2.41867 7.32 2.82933 7.768 3.352C8.22667 3.87467 8.56267 4.48267 8.776 5.176C9 5.85867 9.112 6.59467 9.112 7.384C9.112 8.16267 9 8.89867 8.776 9.592C8.552 10.2853 8.20533 10.8987 7.736 11.432C7.27733 11.9547 6.68533 12.3707 5.96 12.68C5.24533 12.9787 4.38667 13.128 3.384 13.128ZM3.432 11.8C4.392 11.8 5.176 11.6133 5.784 11.24C6.392 10.8667 6.84 10.3493 7.128 9.688C7.416 9.016 7.56 8.248 7.56 7.384C7.56 6.616 7.416 5.896 7.128 5.224C6.84 4.552 6.39733 4.01333 5.8 3.608C5.20267 3.192 4.44 2.984 3.512 2.984C3.20267 2.984 2.92 2.99467 2.664 3.016C2.408 3.02667 2.17333 3.04267 1.96 3.064V11.72C2.184 11.752 2.41867 11.7733 2.664 11.784C2.90933 11.7947 3.16533 11.8 3.432 11.8ZM14.5143 13.192C13.3196 13.192 12.3703 12.8133 11.6663 12.056C10.9729 11.288 10.6263 10.216 10.6263 8.84C10.6263 8.008 10.7809 7.26667 11.0903 6.616C11.4103 5.95467 11.8529 5.43733 12.4183 5.064C12.9836 4.68 13.6396 4.488 14.3863 4.488C15.1863 4.488 15.8476 4.664 16.3703 5.016C16.9036 5.35733 17.3036 5.82133 17.5703 6.408C17.8369 6.99467 17.9703 7.64 17.9703 8.344C17.9703 8.71733 17.9543 9.08 17.9223 9.432H12.0983C12.1943 10.2107 12.4663 10.8187 12.9143 11.256C13.3623 11.6933 13.9543 11.912 14.6903 11.912C15.1703 11.912 15.6023 11.864 15.9863 11.768C16.3703 11.6613 16.7383 11.528 17.0903 11.368L17.4263 12.6C17.0423 12.7707 16.6103 12.9093 16.1303 13.016C15.6503 13.1333 15.1116 13.192 14.5143 13.192ZM12.0823 8.264H16.6423C16.6423 7.45333 16.4396 6.82933 16.0343 6.392C15.6289 5.95467 15.0689 5.736 14.3543 5.736C13.7356 5.736 13.2236 5.95467 12.8183 6.392C12.4129 6.81867 12.1676 7.44267 12.0823 8.264ZM13.0583 3.8L12.5623 2.824L15.5863 0.823999L16.2583 2.168L13.0583 3.8ZM23.2494 13.192C22.46 13.192 21.7667 13.0107 21.1694 12.648C20.5827 12.2747 20.1294 11.7627 19.8094 11.112C19.4894 10.4507 19.3294 9.69333 19.3294 8.84C19.3294 8.04 19.4894 7.30933 19.8094 6.648C20.14 5.98667 20.6094 5.464 21.2174 5.08C21.8254 4.68533 22.54 4.488 23.3614 4.488C23.8307 4.488 24.2414 4.53067 24.5934 4.616C24.956 4.70133 25.3027 4.824 25.6334 4.984L25.2014 6.2C24.9027 6.05067 24.6147 5.944 24.3374 5.88C24.0707 5.80533 23.772 5.768 23.4414 5.768C22.6947 5.768 22.0654 6.04 21.5534 6.584C21.052 7.11733 20.8014 7.85867 20.8014 8.808C20.8014 9.384 20.908 9.90667 21.1214 10.376C21.3347 10.8453 21.628 11.2187 22.0014 11.496C22.3854 11.7733 22.8334 11.912 23.3454 11.912C23.7507 11.912 24.0974 11.8693 24.3854 11.784C24.6734 11.688 24.9827 11.5547 25.3134 11.384L25.7614 12.6C25.4307 12.7813 25.0574 12.9253 24.6414 13.032C24.236 13.1387 23.772 13.192 23.2494 13.192ZM30.784 13.192C29.9947 13.192 29.2853 13.0107 28.656 12.648C28.0267 12.2747 27.5307 11.7627 27.168 11.112C26.816 10.4507 26.64 9.69333 26.64 8.84C26.64 7.944 26.8213 7.17067 27.184 6.52C27.5467 5.86933 28.0427 5.368 28.672 5.016C29.3013 4.664 30.0053 4.488 30.784 4.488C31.5627 4.488 32.2613 4.664 32.88 5.016C33.5093 5.368 34.0053 5.86933 34.368 6.52C34.7413 7.16 34.928 7.92267 34.928 8.808C34.928 9.69333 34.7467 10.4667 34.384 11.128C34.0213 11.7787 33.5253 12.2853 32.896 12.648C32.2773 13.0107 31.5733 13.192 30.784 13.192ZM30.784 11.912C31.6267 11.912 32.2827 11.6293 32.752 11.064C33.2213 10.488 33.456 9.74667 33.456 8.84C33.456 8.28533 33.3387 7.77867 33.104 7.32C32.8693 6.85067 32.5493 6.47733 32.144 6.2C31.7493 5.912 31.296 5.768 30.784 5.768C29.9413 5.768 29.2853 6.04533 28.816 6.6C28.3467 7.15467 28.112 7.89067 28.112 8.808C28.112 9.36267 28.2293 9.88 28.464 10.36C28.6987 10.8293 29.0133 11.208 29.408 11.496C29.8133 11.7733 30.272 11.912 30.784 11.912ZM39.5625 13.192C39.0825 13.192 38.6292 13.0907 38.2025 12.888C37.7758 12.6853 37.4292 12.36 37.1625 11.912C36.8958 11.4533 36.7625 10.8453 36.7625 10.088V4.68H38.2025V9.896C38.2025 10.5467 38.3412 11.048 38.6185 11.4C38.8958 11.7413 39.3012 11.912 39.8345 11.912C40.2718 11.912 40.6932 11.8267 41.0985 11.656C41.5145 11.4747 41.8825 11.2347 42.2025 10.936V4.68H43.6425V10.84C43.6425 11.2987 43.7385 11.6027 43.9305 11.752C44.1332 11.8907 44.3518 11.96 44.5865 11.96L44.2825 13.08C43.2905 13.08 42.6772 12.6853 42.4425 11.896C42.0692 12.28 41.6372 12.5947 41.1465 12.84C40.6558 13.0747 40.1278 13.192 39.5625 13.192ZM48.4103 13L45.0663 5.064L46.3783 4.52L49.2103 11.368L52.0423 4.52L53.2743 5.064L49.9143 13H48.4103ZM57.733 13.192C56.5383 13.192 55.589 12.8133 54.885 12.056C54.1917 11.288 53.845 10.216 53.845 8.84C53.845 8.008 53.9997 7.26667 54.309 6.616C54.629 5.95467 55.0717 5.43733 55.637 5.064C56.2023 4.68 56.8583 4.488 57.605 4.488C58.405 4.488 59.0663 4.664 59.589 5.016C60.1223 5.35733 60.5223 5.82133 60.789 6.408C61.0557 6.99467 61.189 7.64 61.189 8.344C61.189 8.71733 61.173 9.08 61.141 9.432H55.317C55.413 10.2107 55.685 10.8187 56.133 11.256C56.581 11.6933 57.173 11.912 57.909 11.912C58.389 11.912 58.821 11.864 59.205 11.768C59.589 11.6613 59.957 11.528 60.309 11.368L60.645 12.6C60.261 12.7707 59.829 12.9093 59.349 13.016C58.869 13.1333 58.3303 13.192 57.733 13.192ZM55.301 8.264H59.861C59.861 7.45333 59.6583 6.82933 59.253 6.392C58.8477 5.95467 58.2877 5.736 57.573 5.736C56.9543 5.736 56.4423 5.95467 56.037 6.392C55.6317 6.81867 55.3863 7.44267 55.301 8.264ZM63.1081 13V4.68H64.5001V6.488C64.6388 6.136 64.8255 5.81067 65.0601 5.512C65.2948 5.20267 65.5881 4.95733 65.9401 4.776C66.2921 4.584 66.7028 4.488 67.1721 4.488C67.3321 4.488 67.4921 4.49867 67.6521 4.52C67.8121 4.53067 67.9455 4.552 68.0521 4.584L67.6201 6.072C67.4175 5.98667 67.1775 5.944 66.9001 5.944C66.5055 5.944 66.1268 6.056 65.7641 6.28C65.4121 6.504 65.1188 6.85067 64.8841 7.32C64.6601 7.78933 64.5481 8.38667 64.5481 9.112V13H63.1081ZM72.7233 13.192C71.9233 13.192 71.2886 12.9307 70.8193 12.408C70.3606 11.8747 70.1313 11.1173 70.1313 10.136V6.232H68.6913V4.984H70.1633L70.4673 2.36H71.5713V4.984H73.8753V6.232H71.5713V10.248C71.5713 10.8667 71.6993 11.2987 71.9553 11.544C72.2219 11.7893 72.5366 11.912 72.8993 11.912C73.1659 11.912 73.4166 11.8693 73.6513 11.784C73.8966 11.6987 74.1206 11.5973 74.3233 11.48L74.7233 12.632C74.5099 12.76 74.2219 12.8827 73.8593 13C73.4966 13.128 73.1179 13.192 72.7233 13.192ZM79.1861 13.192C77.9915 13.192 77.0421 12.8133 76.3381 12.056C75.6448 11.288 75.2981 10.216 75.2981 8.84C75.2981 8.008 75.4528 7.26667 75.7621 6.616C76.0821 5.95467 76.5248 5.43733 77.0901 5.064C77.6555 4.68 78.3115 4.488 79.0581 4.488C79.8581 4.488 80.5195 4.664 81.0421 5.016C81.5755 5.35733 81.9755 5.82133 82.2421 6.408C82.5088 6.99467 82.6421 7.64 82.6421 8.344C82.6421 8.71733 82.6261 9.08 82.5941 9.432H76.7701C76.8661 10.2107 77.1381 10.8187 77.5861 11.256C78.0341 11.6933 78.6261 11.912 79.3621 11.912C79.8421 11.912 80.2741 11.864 80.6581 11.768C81.0421 11.6613 81.4101 11.528 81.7621 11.368L82.0981 12.6C81.7141 12.7707 81.2821 12.9093 80.8021 13.016C80.3221 13.1333 79.7835 13.192 79.1861 13.192ZM76.7541 8.264H81.3141C81.3141 7.45333 81.1115 6.82933 80.7061 6.392C80.3008 5.95467 79.7408 5.736 79.0261 5.736C78.4075 5.736 77.8955 5.95467 77.4901 6.392C77.0848 6.81867 76.8395 7.44267 76.7541 8.264Z" fill="#E50914"/>
</svg>
