<svg width="73" height="13" viewBox="0 0 73 13" fill="none" xmlns="http://www.w3.org/2000/svg">
<path d="M2.464 12.192C1.97333 12.192 1.50933 12.1067 1.072 11.936C0.645333 11.7653 0.288 11.5413 0 11.264L0.736 10.096C0.949333 10.32 1.20533 10.5067 1.504 10.656C1.80267 10.8053 2.10667 10.88 2.416 10.88C2.928 10.88 3.33333 10.6987 3.632 10.336C3.93067 9.96267 4.08 9.33867 4.08 8.464V0.799999H5.6V8.304C5.6 9.65867 5.312 10.6453 4.736 11.264C4.16 11.8827 3.40267 12.192 2.464 12.192ZM8.315 12V0.799999H15.035V2.112H9.835V5.52H14.315V6.8H9.835V10.688H15.035V12H8.315ZM21.094 12.192C19.8033 12.192 18.79 11.808 18.054 11.04C17.318 10.272 16.95 9.17333 16.95 7.744V0.799999H18.47V7.504C18.47 8.57067 18.6887 9.39733 19.126 9.984C19.5633 10.5707 20.2193 10.864 21.094 10.864C22.0007 10.864 22.678 10.5813 23.126 10.016C23.574 9.44 23.798 8.60267 23.798 7.504V0.799999H25.27V7.68C25.27 8.61867 25.094 9.42933 24.742 10.112C24.4007 10.784 23.9153 11.3013 23.286 11.664C22.6673 12.016 21.9367 12.192 21.094 12.192ZM27.9088 12V0.799999H29.9248L34.8688 10.112V0.799999H36.3088V12H34.3248L29.3488 2.752V12H27.9088ZM39.19 12V0.799999H45.91V2.112H40.71V5.52H45.19V6.8H40.71V10.688H45.91V12H39.19ZM50.849 12.192C50.0703 12.192 49.361 12.0907 48.721 11.888C48.081 11.6747 47.5423 11.3973 47.105 11.056L47.873 9.776C48.257 10.096 48.689 10.3573 49.169 10.56C49.649 10.7627 50.209 10.864 50.849 10.864C51.617 10.864 52.225 10.704 52.673 10.384C53.121 10.064 53.345 9.632 53.345 9.088C53.345 8.77867 53.281 8.50667 53.153 8.272C53.025 8.02667 52.7743 7.792 52.401 7.568C52.0383 7.33333 51.4997 7.08267 50.785 6.816C50.017 6.51733 49.4037 6.21867 48.945 5.92C48.4863 5.61067 48.1557 5.264 47.953 4.88C47.761 4.48533 47.665 4.02133 47.665 3.488C47.665 2.95467 47.809 2.47467 48.097 2.048C48.3957 1.61067 48.8277 1.264 49.393 1.008C49.969 0.741333 50.6623 0.608 51.473 0.608C52.1343 0.608 52.7263 0.677333 53.249 0.815999C53.7823 0.943999 54.2997 1.13067 54.801 1.376L54.241 2.672C53.8783 2.45867 53.4517 2.28267 52.961 2.144C52.481 1.99467 51.9743 1.92 51.441 1.92C50.737 1.92 50.1823 2.05867 49.777 2.336C49.3717 2.61333 49.169 2.97067 49.169 3.408C49.169 3.68533 49.2277 3.93067 49.345 4.144C49.4623 4.35733 49.6917 4.56533 50.033 4.768C50.385 4.97067 50.9077 5.2 51.601 5.456C52.433 5.76533 53.089 6.09067 53.569 6.432C54.0597 6.77333 54.4063 7.14667 54.609 7.552C54.8117 7.94667 54.913 8.4 54.913 8.912C54.913 9.60533 54.737 10.1973 54.385 10.688C54.0437 11.1787 53.5637 11.552 52.945 11.808C52.337 12.064 51.6383 12.192 50.849 12.192ZM59.9427 12.192C59.1641 12.192 58.4548 12.0907 57.8148 11.888C57.1748 11.6747 56.6361 11.3973 56.1988 11.056L56.9668 9.776C57.3508 10.096 57.7828 10.3573 58.2628 10.56C58.7428 10.7627 59.3028 10.864 59.9427 10.864C60.7108 10.864 61.3188 10.704 61.7668 10.384C62.2148 10.064 62.4388 9.632 62.4388 9.088C62.4388 8.77867 62.3748 8.50667 62.2468 8.272C62.1188 8.02667 61.8681 7.792 61.4948 7.568C61.1321 7.33333 60.5934 7.08267 59.8788 6.816C59.1108 6.51733 58.4974 6.21867 58.0388 5.92C57.5801 5.61067 57.2494 5.264 57.0468 4.88C56.8548 4.48533 56.7588 4.02133 56.7588 3.488C56.7588 2.95467 56.9028 2.47467 57.1908 2.048C57.4894 1.61067 57.9214 1.264 58.4868 1.008C59.0628 0.741333 59.7561 0.608 60.5668 0.608C61.2281 0.608 61.8201 0.677333 62.3428 0.815999C62.8761 0.943999 63.3934 1.13067 63.8948 1.376L63.3348 2.672C62.9721 2.45867 62.5454 2.28267 62.0548 2.144C61.5748 1.99467 61.0681 1.92 60.5348 1.92C59.8308 1.92 59.2761 2.05867 58.8708 2.336C58.4654 2.61333 58.2628 2.97067 58.2628 3.408C58.2628 3.68533 58.3214 3.93067 58.4388 4.144C58.5561 4.35733 58.7854 4.56533 59.1268 4.768C59.4788 4.97067 60.0014 5.2 60.6948 5.456C61.5268 5.76533 62.1828 6.09067 62.6628 6.432C63.1534 6.77333 63.5001 7.14667 63.7028 7.552C63.9054 7.94667 64.0068 8.4 64.0068 8.912C64.0068 9.60533 63.8308 10.1973 63.4788 10.688C63.1374 11.1787 62.6574 11.552 62.0388 11.808C61.4308 12.064 60.7321 12.192 59.9427 12.192ZM66.2525 12V0.799999H72.9725V2.112H67.7725V5.52H72.2525V6.8H67.7725V10.688H72.9725V12H66.2525Z" fill="white"/>
</svg>
