<svg width="399" height="21" viewBox="0 0 399 21" fill="none" xmlns="http://www.w3.org/2000/svg">
<path d="M0.34 20V1.8H3.616L11.65 16.932V1.8H13.99V20H10.766L2.68 4.972V20H0.34ZM23.82 20.312C21.8787 20.312 20.336 19.6967 19.192 18.466C18.0654 17.218 17.502 15.476 17.502 13.24C17.502 11.888 17.7534 10.6833 18.256 9.626C18.776 8.55133 19.4954 7.71067 20.414 7.104C21.3327 6.48 22.3987 6.168 23.612 6.168C24.912 6.168 25.9867 6.454 26.836 7.026C27.7027 7.58067 28.3527 8.33467 28.786 9.288C29.2194 10.2413 29.436 11.29 29.436 12.434C29.436 13.0407 29.41 13.63 29.358 14.202H19.894C20.05 15.4673 20.492 16.4553 21.22 17.166C21.948 17.8767 22.91 18.232 24.106 18.232C24.886 18.232 25.588 18.154 26.212 17.998C26.836 17.8247 27.434 17.608 28.006 17.348L28.552 19.35C27.928 19.6273 27.226 19.8527 26.446 20.026C25.666 20.2167 24.7907 20.312 23.82 20.312ZM19.868 12.304H27.278C27.278 10.9867 26.9487 9.97267 26.29 9.262C25.6314 8.55133 24.7214 8.196 23.56 8.196C22.5547 8.196 21.7227 8.55133 21.064 9.262C20.4054 9.95533 20.0067 10.9693 19.868 12.304ZM37.2866 20.312C35.9866 20.312 34.9553 19.8873 34.1926 19.038C33.4473 18.1713 33.0746 16.9407 33.0746 15.346V9.002H30.7346V6.974H33.1266L33.6206 2.71H35.4146V6.974H39.1586V9.002H35.4146V15.528C35.4146 16.5333 35.6226 17.2353 36.0386 17.634C36.4719 18.0327 36.9833 18.232 37.5726 18.232C38.0059 18.232 38.4133 18.1627 38.7946 18.024C39.1933 17.8853 39.5573 17.7207 39.8866 17.53L40.5366 19.402C40.1899 19.61 39.7219 19.8093 39.1326 20C38.5433 20.208 37.9279 20.312 37.2866 20.312ZM43.1486 20V9.002H41.0686V6.974H43.1486V5.388C43.1486 3.86267 43.5733 2.658 44.4226 1.774C45.2719 0.889999 46.3813 0.447999 47.7506 0.447999C48.4613 0.447999 49.0853 0.534666 49.6226 0.707999C50.1599 0.863999 50.6713 1.06333 51.1566 1.306L50.4546 3.282C50.0906 3.09133 49.7006 2.918 49.2846 2.762C48.8686 2.606 48.4093 2.528 47.9066 2.528C47.1786 2.528 46.5893 2.762 46.1386 3.23C45.7053 3.68067 45.4886 4.348 45.4886 5.232V6.974H49.4926V9.002H45.4886V20H43.1486ZM56.0357 20.312C55.2383 20.312 54.519 20.1647 53.8777 19.87C53.2363 19.558 52.725 19.064 52.3437 18.388C51.9797 17.712 51.7977 16.8367 51.7977 15.762V0.76H54.1377V15.528C54.1377 16.464 54.3283 17.1573 54.7097 17.608C55.1083 18.0587 55.6543 18.284 56.3477 18.284C56.677 18.284 56.9977 18.2493 57.3097 18.18C57.639 18.0933 57.9163 17.998 58.1417 17.894L58.7137 19.792C58.4017 19.9307 58.0117 20.052 57.5437 20.156C57.093 20.26 56.5903 20.312 56.0357 20.312ZM60.9159 20V6.48H63.2559V20H60.9159ZM62.0859 4.166C61.6353 4.166 61.2453 4.00133 60.9159 3.672C60.6039 3.34267 60.4479 2.96133 60.4479 2.528C60.4479 2.02533 60.5953 1.62667 60.8899 1.332C61.1846 1.03733 61.5833 0.89 62.0859 0.89C62.5366 0.89 62.9179 1.05467 63.2299 1.384C63.5593 1.696 63.7239 2.07733 63.7239 2.528C63.7239 3.01333 63.5766 3.412 63.2819 3.724C62.9873 4.01867 62.5886 4.166 62.0859 4.166ZM76.3079 20.234L71.7579 14.592L67.2599 20.182L65.5959 18.726L70.4059 13.136L65.7779 7.78L67.5979 6.194L71.7839 11.602L75.8919 6.298L77.6339 7.78L73.1359 13.032L78.0759 18.726L76.3079 20.234ZM93.2549 20.208C92.2669 20.208 91.4002 20.182 90.6549 20.13C89.9269 20.078 89.1989 20.0173 88.4709 19.948V1.852C89.2855 1.76533 90.0829 1.70467 90.8629 1.67C91.6429 1.618 92.5355 1.592 93.5409 1.592C95.1009 1.592 96.4442 1.83467 97.5709 2.32C98.7149 2.80533 99.6509 3.47267 100.379 4.322C101.124 5.17133 101.67 6.15933 102.017 7.286C102.381 8.39533 102.563 9.59133 102.563 10.874C102.563 12.1393 102.381 13.3353 102.017 14.462C101.653 15.5887 101.09 16.5853 100.327 17.452C99.5815 18.3013 98.6195 18.9773 97.4409 19.48C96.2795 19.9653 94.8842 20.208 93.2549 20.208ZM93.3329 18.05C94.8929 18.05 96.1669 17.7467 97.1549 17.14C98.1429 16.5333 98.8709 15.6927 99.3389 14.618C99.8069 13.526 100.041 12.278 100.041 10.874C100.041 9.626 99.8069 8.456 99.3389 7.364C98.8709 6.272 98.1515 5.39667 97.1809 4.738C96.2102 4.062 94.9709 3.724 93.4629 3.724C92.9602 3.724 92.5009 3.74133 92.0849 3.776C91.6689 3.79333 91.2875 3.81933 90.9409 3.854V17.92C91.3049 17.972 91.6862 18.0067 92.0849 18.024C92.4835 18.0413 92.8995 18.05 93.3329 18.05ZM111.342 20.312C109.4 20.312 107.858 19.6967 106.714 18.466C105.587 17.218 105.024 15.476 105.024 13.24C105.024 11.888 105.275 10.6833 105.778 9.626C106.298 8.55133 107.017 7.71067 107.936 7.104C108.854 6.48 109.92 6.168 111.134 6.168C112.434 6.168 113.508 6.454 114.358 7.026C115.224 7.58067 115.874 8.33467 116.308 9.288C116.741 10.2413 116.958 11.29 116.958 12.434C116.958 13.0407 116.932 13.63 116.88 14.202H107.416C107.572 15.4673 108.014 16.4553 108.742 17.166C109.47 17.8767 110.432 18.232 111.628 18.232C112.408 18.232 113.11 18.154 113.734 17.998C114.358 17.8247 114.956 17.608 115.528 17.348L116.074 19.35C115.45 19.6273 114.748 19.8527 113.968 20.026C113.188 20.2167 112.312 20.312 111.342 20.312ZM107.39 12.304H114.8C114.8 10.9867 114.47 9.97267 113.812 9.262C113.153 8.55133 112.243 8.196 111.082 8.196C110.076 8.196 109.244 8.55133 108.586 9.262C107.927 9.95533 107.528 10.9693 107.39 12.304ZM108.976 5.05L108.17 3.464L113.084 0.213999L114.176 2.398L108.976 5.05ZM125.536 20.312C124.253 20.312 123.127 20.0173 122.156 19.428C121.203 18.8213 120.466 17.9893 119.946 16.932C119.426 15.8573 119.166 14.6267 119.166 13.24C119.166 11.94 119.426 10.7527 119.946 9.678C120.483 8.60333 121.246 7.754 122.234 7.13C123.222 6.48867 124.383 6.168 125.718 6.168C126.481 6.168 127.148 6.23733 127.72 6.376C128.309 6.51467 128.873 6.714 129.41 6.974L128.708 8.95C128.223 8.70733 127.755 8.534 127.304 8.43C126.871 8.30867 126.385 8.248 125.848 8.248C124.635 8.248 123.612 8.69 122.78 9.574C121.965 10.4407 121.558 11.6453 121.558 13.188C121.558 14.124 121.731 14.9733 122.078 15.736C122.425 16.4987 122.901 17.1053 123.508 17.556C124.132 18.0067 124.86 18.232 125.692 18.232C126.351 18.232 126.914 18.1627 127.382 18.024C127.85 17.868 128.353 17.6513 128.89 17.374L129.618 19.35C129.081 19.6447 128.474 19.8787 127.798 20.052C127.139 20.2253 126.385 20.312 125.536 20.312ZM137.78 20.312C136.497 20.312 135.345 20.0173 134.322 19.428C133.299 18.8213 132.493 17.9893 131.904 16.932C131.332 15.8573 131.046 14.6267 131.046 13.24C131.046 11.784 131.341 10.5273 131.93 9.47C132.519 8.41267 133.325 7.598 134.348 7.026C135.371 6.454 136.515 6.168 137.78 6.168C139.045 6.168 140.181 6.454 141.186 7.026C142.209 7.598 143.015 8.41267 143.604 9.47C144.211 10.51 144.514 11.7493 144.514 13.188C144.514 14.6267 144.219 15.8833 143.63 16.958C143.041 18.0153 142.235 18.8387 141.212 19.428C140.207 20.0173 139.063 20.312 137.78 20.312ZM137.78 18.232C139.149 18.232 140.215 17.7727 140.978 16.854C141.741 15.918 142.122 14.7133 142.122 13.24C142.122 12.3387 141.931 11.5153 141.55 10.77C141.169 10.0073 140.649 9.40067 139.99 8.95C139.349 8.482 138.612 8.248 137.78 8.248C136.411 8.248 135.345 8.69867 134.582 9.6C133.819 10.5013 133.438 11.6973 133.438 13.188C133.438 14.0893 133.629 14.93 134.01 15.71C134.391 16.4727 134.903 17.088 135.544 17.556C136.203 18.0067 136.948 18.232 137.78 18.232ZM152.045 20.312C151.265 20.312 150.528 20.1473 149.835 19.818C149.142 19.4887 148.578 18.96 148.145 18.232C147.712 17.4867 147.495 16.4987 147.495 15.268V6.48H149.835V14.956C149.835 16.0133 150.06 16.828 150.511 17.4C150.962 17.9547 151.62 18.232 152.487 18.232C153.198 18.232 153.882 18.0933 154.541 17.816C155.217 17.5213 155.815 17.1313 156.335 16.646V6.48H158.675V16.49C158.675 17.2353 158.831 17.7293 159.143 17.972C159.472 18.1973 159.828 18.31 160.209 18.31L159.715 20.13C158.103 20.13 157.106 19.4887 156.725 18.206C156.118 18.83 155.416 19.3413 154.619 19.74C153.822 20.1213 152.964 20.312 152.045 20.312ZM166.423 20L160.989 7.104L163.121 6.22L167.723 17.348L172.325 6.22L174.327 7.104L168.867 20H166.423ZM181.572 20.312C179.631 20.312 178.088 19.6967 176.944 18.466C175.817 17.218 175.254 15.476 175.254 13.24C175.254 11.888 175.505 10.6833 176.008 9.626C176.528 8.55133 177.247 7.71067 178.166 7.104C179.085 6.48 180.151 6.168 181.364 6.168C182.664 6.168 183.739 6.454 184.588 7.026C185.455 7.58067 186.105 8.33467 186.538 9.288C186.971 10.2413 187.188 11.29 187.188 12.434C187.188 13.0407 187.162 13.63 187.11 14.202H177.646C177.802 15.4673 178.244 16.4553 178.972 17.166C179.7 17.8767 180.662 18.232 181.858 18.232C182.638 18.232 183.34 18.154 183.964 17.998C184.588 17.8247 185.186 17.608 185.758 17.348L186.304 19.35C185.68 19.6273 184.978 19.8527 184.198 20.026C183.418 20.2167 182.543 20.312 181.572 20.312ZM177.62 12.304H185.03C185.03 10.9867 184.701 9.97267 184.042 9.262C183.383 8.55133 182.473 8.196 181.312 8.196C180.307 8.196 179.475 8.55133 178.816 9.262C178.157 9.95533 177.759 10.9693 177.62 12.304ZM190.307 20V6.48H192.569V9.418C192.794 8.846 193.097 8.31733 193.479 7.832C193.86 7.32933 194.337 6.93067 194.909 6.636C195.481 6.324 196.148 6.168 196.911 6.168C197.171 6.168 197.431 6.18533 197.691 6.22C197.951 6.23733 198.167 6.272 198.341 6.324L197.639 8.742C197.309 8.60333 196.919 8.534 196.469 8.534C195.827 8.534 195.212 8.716 194.623 9.08C194.051 9.444 193.574 10.0073 193.193 10.77C192.829 11.5327 192.647 12.5033 192.647 13.682V20H190.307ZM205.931 20.312C204.631 20.312 203.6 19.8873 202.837 19.038C202.092 18.1713 201.719 16.9407 201.719 15.346V9.002H199.379V6.974H201.771L202.265 2.71H204.059V6.974H207.803V9.002H204.059V15.528C204.059 16.5333 204.267 17.2353 204.683 17.634C205.116 18.0327 205.628 18.232 206.217 18.232C206.65 18.232 207.058 18.1627 207.439 18.024C207.838 17.8853 208.202 17.7207 208.531 17.53L209.181 19.402C208.834 19.61 208.366 19.8093 207.777 20C207.188 20.208 206.572 20.312 205.931 20.312ZM216.433 20.312C214.492 20.312 212.949 19.6967 211.805 18.466C210.679 17.218 210.115 15.476 210.115 13.24C210.115 11.888 210.367 10.6833 210.869 9.626C211.389 8.55133 212.109 7.71067 213.027 7.104C213.946 6.48 215.012 6.168 216.225 6.168C217.525 6.168 218.6 6.454 219.449 7.026C220.316 7.58067 220.966 8.33467 221.399 9.288C221.833 10.2413 222.049 11.29 222.049 12.434C222.049 13.0407 222.023 13.63 221.971 14.202H212.507C212.663 15.4673 213.105 16.4553 213.833 17.166C214.561 17.8767 215.523 18.232 216.719 18.232C217.499 18.232 218.201 18.154 218.825 17.998C219.449 17.8247 220.047 17.608 220.619 17.348L221.165 19.35C220.541 19.6273 219.839 19.8527 219.059 20.026C218.279 20.2167 217.404 20.312 216.433 20.312ZM212.481 12.304H219.891C219.891 10.9867 219.562 9.97267 218.903 9.262C218.245 8.55133 217.335 8.196 216.173 8.196C215.168 8.196 214.336 8.55133 213.677 9.262C213.019 9.95533 212.62 10.9693 212.481 12.304ZM234.263 12.148V10.016H243.103V12.148H234.263ZM258.272 20.312C257.474 20.312 256.72 20.1733 256.01 19.896C255.316 19.6187 254.736 19.2547 254.268 18.804L255.464 16.906C255.81 17.27 256.226 17.5733 256.712 17.816C257.197 18.0587 257.691 18.18 258.194 18.18C259.026 18.18 259.684 17.8853 260.17 17.296C260.655 16.6893 260.898 15.6753 260.898 14.254V1.8H263.368V13.994C263.368 16.1953 262.9 17.7987 261.964 18.804C261.028 19.8093 259.797 20.312 258.272 20.312ZM271.939 20.312C271.159 20.312 270.423 20.1473 269.729 19.818C269.036 19.4887 268.473 18.96 268.039 18.232C267.606 17.4867 267.389 16.4987 267.389 15.268V6.48H269.729V14.956C269.729 16.0133 269.955 16.828 270.405 17.4C270.856 17.9547 271.515 18.232 272.381 18.232C273.092 18.232 273.777 18.0933 274.435 17.816C275.111 17.5213 275.709 17.1313 276.229 16.646V6.48H278.569V16.49C278.569 17.2353 278.725 17.7293 279.037 17.972C279.367 18.1973 279.722 18.31 280.103 18.31L279.609 20.13C277.997 20.13 277.001 19.4887 276.619 18.206C276.013 18.83 275.311 19.3413 274.513 19.74C273.716 20.1213 272.858 20.312 271.939 20.312ZM283.211 20V6.48H285.551V20H283.211ZM284.381 4.166C283.93 4.166 283.54 4.00133 283.211 3.672C282.899 3.34267 282.743 2.96133 282.743 2.528C282.743 2.02533 282.89 1.62667 283.185 1.332C283.48 1.03733 283.878 0.89 284.381 0.89C284.832 0.89 285.213 1.05467 285.525 1.384C285.854 1.696 286.019 2.07733 286.019 2.528C286.019 3.01333 285.872 3.412 285.577 3.724C285.282 4.01867 284.884 4.166 284.381 4.166ZM293.819 20.312C293.022 20.312 292.302 20.1647 291.661 19.87C291.02 19.558 290.508 19.064 290.127 18.388C289.763 17.712 289.581 16.8367 289.581 15.762V0.76H291.921V15.528C291.921 16.464 292.112 17.1573 292.493 17.608C292.892 18.0587 293.438 18.284 294.131 18.284C294.46 18.284 294.781 18.2493 295.093 18.18C295.422 18.0933 295.7 17.998 295.925 17.894L296.497 19.792C296.185 19.9307 295.795 20.052 295.327 20.156C294.876 20.26 294.374 20.312 293.819 20.312ZM302.553 20.312C301.756 20.312 301.037 20.1647 300.395 19.87C299.754 19.558 299.243 19.064 298.861 18.388C298.497 17.712 298.315 16.8367 298.315 15.762V0.76H300.655V15.528C300.655 16.464 300.846 17.1573 301.227 17.608C301.626 18.0587 302.172 18.284 302.865 18.284C303.195 18.284 303.515 18.2493 303.827 18.18C304.157 18.0933 304.434 17.998 304.659 17.894L305.231 19.792C304.919 19.9307 304.529 20.052 304.061 20.156C303.611 20.26 303.108 20.312 302.553 20.312ZM312.461 20.312C310.519 20.312 308.977 19.6967 307.833 18.466C306.706 17.218 306.143 15.476 306.143 13.24C306.143 11.888 306.394 10.6833 306.897 9.626C307.417 8.55133 308.136 7.71067 309.055 7.104C309.973 6.48 311.039 6.168 312.253 6.168C313.553 6.168 314.627 6.454 315.477 7.026C316.343 7.58067 316.993 8.33467 317.427 9.288C317.86 10.2413 318.077 11.29 318.077 12.434C318.077 13.0407 318.051 13.63 317.999 14.202H308.535C308.691 15.4673 309.133 16.4553 309.861 17.166C310.589 17.8767 311.551 18.232 312.747 18.232C313.527 18.232 314.229 18.154 314.853 17.998C315.477 17.8247 316.075 17.608 316.647 17.348L317.193 19.35C316.569 19.6273 315.867 19.8527 315.087 20.026C314.307 20.2167 313.431 20.312 312.461 20.312ZM308.509 12.304H315.919C315.919 10.9867 315.589 9.97267 314.931 9.262C314.272 8.55133 313.362 8.196 312.201 8.196C311.195 8.196 310.363 8.55133 309.705 9.262C309.046 9.95533 308.647 10.9693 308.509 12.304ZM325.927 20.312C324.627 20.312 323.596 19.8873 322.833 19.038C322.088 18.1713 321.715 16.9407 321.715 15.346V9.002H319.375V6.974H321.767L322.261 2.71H324.055V6.974H327.799V9.002H324.055V15.528C324.055 16.5333 324.263 17.2353 324.679 17.634C325.113 18.0327 325.624 18.232 326.213 18.232C326.647 18.232 327.054 18.1627 327.435 18.024C327.834 17.8853 328.198 17.7207 328.527 17.53L329.177 19.402C328.831 19.61 328.363 19.8093 327.773 20C327.184 20.208 326.569 20.312 325.927 20.312ZM339.532 20C339.48 19.688 339.454 19.3673 339.454 19.038C339.454 17.9113 339.645 16.906 340.026 16.022C340.425 15.1207 340.936 14.306 341.56 13.578C342.184 12.8327 342.843 12.148 343.536 11.524C344.247 10.8827 344.905 10.276 345.512 9.704C346.136 9.11467 346.647 8.52533 347.046 7.936C347.445 7.34667 347.644 6.73133 347.644 6.09C347.644 5.362 347.375 4.764 346.838 4.296C346.301 3.81067 345.607 3.568 344.758 3.568C344.03 3.568 343.363 3.71533 342.756 4.01C342.167 4.28733 341.612 4.66867 341.092 5.154L339.792 3.568C340.485 2.944 341.248 2.44133 342.08 2.06C342.929 1.67867 343.909 1.488 345.018 1.488C346.041 1.488 346.933 1.68733 347.696 2.086C348.459 2.46733 349.048 2.996 349.464 3.672C349.897 4.348 350.114 5.102 350.114 5.934C350.114 6.766 349.932 7.53733 349.568 8.248C349.204 8.95867 348.736 9.626 348.164 10.25C347.592 10.874 346.977 11.4807 346.318 12.07C345.659 12.642 345.027 13.2313 344.42 13.838C343.813 14.4447 343.293 15.0773 342.86 15.736C342.444 16.3947 342.184 17.1053 342.08 17.868H350.088V20H339.532ZM360.608 20.312C358.58 20.312 357.037 19.4887 355.98 17.842C354.923 16.178 354.394 13.8553 354.394 10.874C354.394 7.87533 354.931 5.56133 356.006 3.932C357.098 2.30267 358.649 1.488 360.66 1.488C362.688 1.488 364.231 2.31133 365.288 3.958C366.345 5.60467 366.874 7.92733 366.874 10.926C366.874 13.9247 366.328 16.2387 365.236 17.868C364.161 19.4973 362.619 20.312 360.608 20.312ZM360.634 18.18C361.414 18.18 362.081 17.9547 362.636 17.504C363.208 17.036 363.641 16.2733 363.936 15.216C364.248 14.1587 364.404 12.7373 364.404 10.952C364.404 8.56 364.066 6.74 363.39 5.492C362.731 4.244 361.813 3.62 360.634 3.62C359.854 3.62 359.178 3.854 358.606 4.322C358.051 4.77267 357.618 5.52667 357.306 6.584C357.011 7.624 356.864 9.04533 356.864 10.848C356.864 13.24 357.193 15.06 357.852 16.308C358.528 17.556 359.455 18.18 360.634 18.18ZM372.168 20V17.92H375.886V4.79L372.402 7.416L371.128 5.674L376.51 1.8H378.226V17.92H381.32V20H372.168ZM391.944 20.312C390.626 20.312 389.482 20.0867 388.512 19.636C387.541 19.1853 386.787 18.5787 386.25 17.816C385.73 17.036 385.47 16.178 385.47 15.242C385.47 14.1153 385.773 13.136 386.38 12.304C387.004 11.472 387.974 10.77 389.292 10.198C388.373 9.69533 387.662 9.11467 387.16 8.456C386.674 7.78 386.432 6.948 386.432 5.96C386.432 5.076 386.666 4.30467 387.134 3.646C387.602 2.97 388.234 2.44133 389.032 2.06C389.846 1.67867 390.748 1.488 391.736 1.488C392.81 1.488 393.755 1.68733 394.57 2.086C395.384 2.46733 396.017 2.996 396.468 3.672C396.936 4.348 397.17 5.102 397.17 5.934C397.17 6.99133 396.901 7.84933 396.364 8.508C395.826 9.16667 395.107 9.72133 394.206 10.172C395.488 10.7093 396.468 11.3853 397.144 12.2C397.82 12.9973 398.158 13.9593 398.158 15.086C398.158 16.126 397.889 17.0447 397.352 17.842C396.814 18.622 396.078 19.2287 395.142 19.662C394.206 20.0953 393.14 20.312 391.944 20.312ZM392.074 9.314C392.836 9.054 393.495 8.65533 394.05 8.118C394.622 7.58067 394.908 6.93067 394.908 6.168C394.908 5.37067 394.604 4.712 393.998 4.192C393.391 3.672 392.637 3.412 391.736 3.412C390.852 3.412 390.124 3.646 389.552 4.114C388.98 4.56467 388.694 5.16267 388.694 5.908C388.694 6.65333 388.997 7.32933 389.604 7.936C390.228 8.54267 391.051 9.002 392.074 9.314ZM391.97 18.232C393.079 18.232 393.989 17.946 394.7 17.374C395.41 16.7847 395.766 16.0393 395.766 15.138C395.766 14.306 395.393 13.5607 394.648 12.902C393.92 12.2433 392.906 11.68 391.606 11.212C390.947 11.368 390.332 11.6107 389.76 11.94C389.188 12.2693 388.728 12.6767 388.382 13.162C388.035 13.6473 387.862 14.202 387.862 14.826C387.862 15.4673 388.035 16.048 388.382 16.568C388.746 17.088 389.24 17.4953 389.864 17.79C390.488 18.0847 391.19 18.232 391.97 18.232Z" fill="white"/>
</svg>
