<svg width="121" height="21" viewBox="0 0 121 21" fill="none" xmlns="http://www.w3.org/2000/svg">
<path d="M9.44618 20.3243C8.04102 20.3243 6.78899 20.0721 5.69009 19.5676C4.59119 19.0452 3.65442 18.3426 2.87978 17.4599C2.12316 16.5592 1.53768 15.5143 1.12333 14.3253C0.727009 13.1364 0.528846 11.8663 0.528846 10.5152C0.528846 8.65967 0.880134 7.00231 1.58271 5.54311C2.3033 4.0659 3.33015 2.90394 4.66325 2.05724C5.99634 1.19253 7.59065 0.760177 9.44618 0.760177C10.8333 0.760177 12.0763 1.01238 13.1752 1.5168C14.2922 2.02121 15.2379 2.72379 16.0126 3.62453C16.7872 4.52527 17.3727 5.56112 17.769 6.73209C18.1834 7.90305 18.3905 9.16409 18.3905 10.5152C18.3905 11.8663 18.1834 13.1364 17.769 14.3253C17.3727 15.5143 16.7872 16.5592 16.0126 17.4599C15.2379 18.3426 14.3012 19.0452 13.2023 19.5676C12.1034 20.0721 10.8513 20.3243 9.44618 20.3243ZM9.44618 18.1084C10.8333 18.1084 11.9953 17.7752 12.932 17.1086C13.8688 16.4421 14.5714 15.5413 15.0398 14.4064C15.5262 13.2535 15.7694 11.9564 15.7694 10.5152C15.7694 9.5424 15.6253 8.60563 15.337 7.70489C15.0488 6.80415 14.6344 6.00249 14.094 5.29991C13.5536 4.57932 12.887 4.01185 12.0944 3.59751C11.3197 3.18317 10.437 2.976 9.44618 2.976C8.1311 2.976 6.99616 3.30927 6.04138 3.97582C5.10461 4.64237 4.38402 5.54311 3.8796 6.67804C3.3932 7.81298 3.15 9.09203 3.15 10.5152C3.15 11.488 3.28511 12.4338 3.55533 13.3525C3.84357 14.2533 4.25791 15.0639 4.79836 15.7845C5.3388 16.5051 5.99634 17.0726 6.77098 17.4869C7.56363 17.9013 8.45536 18.1084 9.44618 18.1084ZM33.1917 20.3243L30.8408 15.19C30.2463 13.911 29.4987 13.0012 28.598 12.4608C27.6972 11.9204 26.5443 11.6501 25.1391 11.6501H24.7338V20H22.1667V1.13849C23.1215 1.04841 24.0312 0.985362 24.8959 0.949332C25.7786 0.895288 26.7154 0.868266 27.7062 0.868266C30.0121 0.868266 31.7416 1.33665 32.8945 2.27342C34.0655 3.21019 34.6509 4.41718 34.6509 5.8944C34.6509 7.20948 34.2546 8.27235 33.462 9.08302C32.6873 9.87567 31.5614 10.4702 30.0842 10.8665C30.5706 11.0827 31.0029 11.3439 31.3813 11.6501C31.7596 11.9384 32.1199 12.3347 32.4621 12.8391C32.8224 13.3255 33.1827 13.965 33.543 14.7577L35.5967 19.1893L33.1917 20.3243ZM24.7338 9.48835H27.7062C29.0033 9.48835 30.0572 9.20012 30.8678 8.62364C31.6785 8.04717 32.0838 7.21849 32.0838 6.1376C32.0838 5.23686 31.7055 4.49825 30.9489 3.92178C30.1923 3.32729 29.1114 3.03004 27.7062 3.03004C27.0937 3.03004 26.5443 3.03905 26.0579 3.05707C25.5715 3.07508 25.1301 3.1021 24.7338 3.13813V9.48835ZM38.8445 20V1.08444H41.4116V20H38.8445ZM52.7444 20.3243C51.2852 20.3243 49.9882 19.946 48.8532 19.1893C47.7183 18.4327 46.8266 17.3608 46.178 15.9737C45.5295 14.5685 45.2052 12.9202 45.2052 11.0286C45.2052 9.01096 45.5475 7.2365 46.2321 5.70524C46.9166 4.15597 47.8984 2.94898 49.1775 2.08427C50.4746 1.20154 52.0328 0.760177 53.8523 0.760177C55.0233 0.760177 56.0682 0.904296 56.9869 1.19253C57.9057 1.48077 58.7704 1.85007 59.5811 2.30044L58.6353 4.4352C57.8787 4.02086 57.104 3.67858 56.3114 3.40835C55.5367 3.13813 54.672 3.00302 53.7172 3.00302C52.5823 3.00302 51.5735 3.30927 50.6907 3.92178C49.808 4.51627 49.1054 5.39899 48.583 6.56996C48.0786 7.74092 47.8264 9.1731 47.8264 10.8665C47.8264 12.3797 48.0606 13.6768 48.529 14.7577C48.9974 15.8206 49.6459 16.6402 50.4746 17.2167C51.3032 17.7932 52.258 18.0814 53.3389 18.0814C54.3478 18.0814 55.2395 17.8743 56.0141 17.4599C56.8068 17.0276 57.4283 16.5862 57.8787 16.1358V12.0014H53.9604V9.97475H60.3107V20H58.0408V18.1084C57.4103 18.6669 56.6446 19.1803 55.7439 19.6487C54.8432 20.0991 53.8433 20.3243 52.7444 20.3243ZM64.4945 20V1.08444H67.0616V20H64.4945ZM71.9361 20V1.08444H75.3409L83.6908 16.8114V1.08444H86.1228V20H82.772L74.3681 4.38116V20H71.9361ZM103.987 20.2702L101.879 14.8658H93.1237L91.0159 20.2162L88.8271 19.3244L96.2312 1.08444H99.0415L106.338 19.3244L103.987 20.2702ZM93.9343 12.704H101.041L97.5013 3.62453L93.9343 12.704ZM109.039 20V1.08444H111.606V17.7031H120.28V20H109.039Z" fill="white"/>
</svg>
