<svg width="170" height="16" viewBox="0 0 170 16" fill="none" xmlns="http://www.w3.org/2000/svg">
<path opacity="0.9" d="M0.44 12V0.832C0.877333 0.778666 1.35733 0.741333 1.88 0.719999C2.41333 0.688 2.96267 0.672 3.528 0.672C4.456 0.672 5.24533 0.821333 5.896 1.12C6.54667 1.408 7.04267 1.808 7.384 2.32C7.72533 2.832 7.896 3.41867 7.896 4.08C7.896 4.88 7.69867 5.55733 7.304 6.112C6.90933 6.66667 6.36 7.09333 5.656 7.392C4.952 7.68 4.136 7.824 3.208 7.824C2.76 7.824 2.344 7.808 1.96 7.776V12H0.44ZM3.4 6.56C4.34933 6.56 5.08533 6.34667 5.608 5.92C6.13067 5.49333 6.392 4.92267 6.392 4.208C6.392 3.51467 6.14133 2.96533 5.64 2.56C5.13867 2.15467 4.424 1.952 3.496 1.952C3.208 1.952 2.936 1.95733 2.68 1.968C2.424 1.97867 2.184 1.99467 1.96 2.016V6.48C2.13067 6.50133 2.33867 6.52267 2.584 6.544C2.82933 6.55467 3.10133 6.56 3.4 6.56ZM9.57688 12V3.68H10.9689V5.488C11.1075 5.136 11.2942 4.81067 11.5289 4.512C11.7635 4.20267 12.0569 3.95733 12.4089 3.776C12.7609 3.584 13.1715 3.488 13.6409 3.488C13.8009 3.488 13.9609 3.49867 14.1209 3.52C14.2809 3.53067 14.4142 3.552 14.5209 3.584L14.0889 5.072C13.8862 4.98667 13.6462 4.944 13.3689 4.944C12.9742 4.944 12.5955 5.056 12.2329 5.28C11.8809 5.504 11.5875 5.85067 11.3529 6.32C11.1289 6.78933 11.0169 7.38667 11.0169 8.112V12H9.57688ZM18.9871 12.192C18.1978 12.192 17.4885 12.0107 16.8591 11.648C16.2298 11.2747 15.7338 10.7627 15.3711 10.112C15.0191 9.45067 14.8431 8.69333 14.8431 7.84C14.8431 6.944 15.0245 6.17067 15.3871 5.52C15.7498 4.86933 16.2458 4.368 16.8751 4.016C17.5045 3.664 18.2085 3.488 18.9871 3.488C19.7658 3.488 20.4645 3.664 21.0831 4.016C21.7125 4.368 22.2085 4.86933 22.5711 5.52C22.9445 6.16 23.1311 6.92267 23.1311 7.808C23.1311 8.69333 22.9498 9.46667 22.5871 10.128C22.2245 10.7787 21.7285 11.2853 21.0991 11.648C20.4805 12.0107 19.7765 12.192 18.9871 12.192ZM18.9871 10.912C19.8298 10.912 20.4858 10.6293 20.9551 10.064C21.4245 9.488 21.6591 8.74667 21.6591 7.84C21.6591 7.28533 21.5418 6.77867 21.3071 6.32C21.0725 5.85067 20.7525 5.47733 20.3471 5.2C19.9525 4.912 19.4991 4.768 18.9871 4.768C18.1445 4.768 17.4885 5.04533 17.0191 5.6C16.5498 6.15467 16.3151 6.89067 16.3151 7.808C16.3151 8.36267 16.4325 8.88 16.6671 9.36C16.9018 9.82933 17.2165 10.208 17.6111 10.496C18.0165 10.7733 18.4751 10.912 18.9871 10.912ZM28.1016 15.712C27.611 15.712 27.131 15.6533 26.6616 15.536C26.203 15.4187 25.7923 15.2427 25.4296 15.008L25.9576 13.76C26.2136 13.9627 26.5123 14.128 26.8536 14.256C27.195 14.3947 27.611 14.464 28.1016 14.464C28.859 14.464 29.451 14.2613 29.8776 13.856C30.315 13.4613 30.5336 12.8267 30.5336 11.952V10.928C30.3203 11.184 30.011 11.4293 29.6056 11.664C29.211 11.888 28.7363 12 28.1816 12C27.5523 12 26.955 11.84 26.3896 11.52C25.8243 11.1893 25.3656 10.7093 25.0136 10.08C24.6616 9.45067 24.4856 8.69333 24.4856 7.808C24.4856 6.976 24.6563 6.23467 24.9976 5.584C25.3496 4.93333 25.819 4.42133 26.4056 4.048C26.9923 3.67467 27.6376 3.488 28.3416 3.488C28.811 3.488 29.2376 3.568 29.6216 3.728C30.0056 3.888 30.3363 4.08533 30.6136 4.32V3.68H31.9256V11.808C31.9256 12.7253 31.7656 13.472 31.4456 14.048C31.1256 14.624 30.6776 15.0453 30.1016 15.312C29.5363 15.5787 28.8696 15.712 28.1016 15.712ZM28.5016 10.72C28.9283 10.72 29.3123 10.624 29.6536 10.432C29.995 10.24 30.2723 10.016 30.4856 9.76V5.408C30.251 5.23733 29.9683 5.08267 29.6376 4.944C29.307 4.80533 28.923 4.736 28.4856 4.736C28.0483 4.736 27.6376 4.85333 27.2536 5.088C26.8696 5.32267 26.555 5.664 26.3096 6.112C26.075 6.54933 25.9576 7.088 25.9576 7.728C25.9576 8.336 26.075 8.864 26.3096 9.312C26.555 9.76 26.8696 10.1067 27.2536 10.352C27.6376 10.5973 28.0536 10.72 28.5016 10.72ZM34.405 12V3.68H35.797V5.488C35.9357 5.136 36.1223 4.81067 36.357 4.512C36.5917 4.20267 36.885 3.95733 37.237 3.776C37.589 3.584 37.9997 3.488 38.469 3.488C38.629 3.488 38.789 3.49867 38.949 3.52C39.109 3.53067 39.2423 3.552 39.349 3.584L38.917 5.072C38.7143 4.98667 38.4743 4.944 38.197 4.944C37.8023 4.944 37.4237 5.056 37.061 5.28C36.709 5.504 36.4157 5.85067 36.181 6.32C35.957 6.78933 35.845 7.38667 35.845 8.112V12H34.405ZM43.4953 12.192C42.8019 12.192 42.1726 12.016 41.6073 11.664C41.0419 11.312 40.5886 10.816 40.2473 10.176C39.9166 9.52533 39.7513 8.76267 39.7513 7.888C39.7513 7.056 39.9166 6.30933 40.2473 5.648C40.5886 4.98667 41.0526 4.464 41.6393 4.08C42.2366 3.68533 42.9193 3.488 43.6873 3.488C44.1673 3.488 44.5993 3.57333 44.9833 3.744C45.3779 3.904 45.7193 4.10667 46.0073 4.352V3.68H47.3193V9.984C47.3193 10.3893 47.4153 10.656 47.6073 10.784C47.8099 10.9013 48.0286 10.96 48.2633 10.96L47.9593 12.08C46.9353 12.08 46.3166 11.664 46.1033 10.832C45.8579 11.1733 45.5219 11.488 45.0953 11.776C44.6793 12.0533 44.1459 12.192 43.4953 12.192ZM43.8153 10.912C44.2206 10.912 44.6046 10.816 44.9673 10.624C45.3299 10.4213 45.6339 10.1707 45.8793 9.872V5.408C45.5913 5.20533 45.2713 5.04533 44.9193 4.928C44.5779 4.8 44.2153 4.736 43.8313 4.736C43.3193 4.736 42.8659 4.86933 42.4713 5.136C42.0873 5.392 41.7833 5.75467 41.5593 6.224C41.3353 6.68267 41.2233 7.22133 41.2233 7.84C41.2233 8.43733 41.3353 8.97067 41.5593 9.44C41.7833 9.89867 42.0926 10.2613 42.4873 10.528C42.8819 10.784 43.3246 10.912 43.8153 10.912ZM50.1863 12V3.68H51.5783V5.072C51.8769 4.624 52.2556 4.25067 52.7143 3.952C53.1729 3.64267 53.6956 3.488 54.2823 3.488C54.9436 3.488 55.4823 3.648 55.8983 3.968C56.3249 4.288 56.6236 4.71467 56.7943 5.248C57.1249 4.75733 57.5143 4.34133 57.9623 4C58.4209 3.65867 58.9863 3.488 59.6583 3.488C60.5649 3.488 61.2369 3.776 61.6743 4.352C62.1223 4.91733 62.3463 5.65867 62.3463 6.576V12H60.9063V6.688C60.9063 6.112 60.7729 5.648 60.5063 5.296C60.2396 4.93333 59.8716 4.752 59.4023 4.752C58.9223 4.752 58.4743 4.93333 58.0583 5.296C57.6529 5.648 57.2956 6.064 56.9862 6.544V12H55.5463V6.688C55.5463 6.112 55.4129 5.648 55.1463 5.296C54.8796 4.93333 54.5116 4.752 54.0423 4.752C53.5729 4.752 53.1303 4.928 52.7143 5.28C52.2983 5.62133 51.9356 6.02667 51.6263 6.496V12H50.1863ZM64.8269 12V3.68H66.2189V5.072C66.5175 4.624 66.8962 4.25067 67.3549 3.952C67.8135 3.64267 68.3362 3.488 68.9229 3.488C69.5842 3.488 70.1229 3.648 70.5389 3.968C70.9655 4.288 71.2642 4.71467 71.4349 5.248C71.7655 4.75733 72.1549 4.34133 72.6029 4C73.0615 3.65867 73.6269 3.488 74.2989 3.488C75.2055 3.488 75.8775 3.776 76.3149 4.352C76.7629 4.91733 76.9869 5.65867 76.9869 6.576V12H75.5469V6.688C75.5469 6.112 75.4135 5.648 75.1469 5.296C74.8802 4.93333 74.5122 4.752 74.0429 4.752C73.5629 4.752 73.1149 4.93333 72.6989 5.296C72.2935 5.648 71.9362 6.064 71.6269 6.544V12H70.1869V6.688C70.1869 6.112 70.0535 5.648 69.7869 5.296C69.5202 4.93333 69.1522 4.752 68.6829 4.752C68.2135 4.752 67.7709 4.928 67.3549 5.28C66.9389 5.62133 66.5762 6.02667 66.2669 6.496V12H64.8269ZM82.7955 12.192C81.6008 12.192 80.6515 11.8133 79.9475 11.056C79.2542 10.288 78.9075 9.216 78.9075 7.84C78.9075 7.008 79.0622 6.26667 79.3715 5.616C79.6915 4.95467 80.1342 4.43733 80.6995 4.064C81.2648 3.68 81.9208 3.488 82.6675 3.488C83.4675 3.488 84.1288 3.664 84.6515 4.016C85.1848 4.35733 85.5848 4.82133 85.8515 5.408C86.1182 5.99467 86.2515 6.64 86.2515 7.344C86.2515 7.71733 86.2355 8.08 86.2035 8.432H80.3795C80.4755 9.21067 80.7475 9.81867 81.1955 10.256C81.6435 10.6933 82.2355 10.912 82.9715 10.912C83.4515 10.912 83.8835 10.864 84.2675 10.768C84.6515 10.6613 85.0195 10.528 85.3715 10.368L85.7075 11.6C85.3235 11.7707 84.8915 11.9093 84.4115 12.016C83.9315 12.1333 83.3928 12.192 82.7955 12.192ZM80.3635 7.264H84.9235C84.9235 6.45333 84.7208 5.82933 84.3155 5.392C83.9102 4.95467 83.3502 4.736 82.6355 4.736C82.0168 4.736 81.5048 4.95467 81.0995 5.392C80.6942 5.81867 80.4488 6.44267 80.3635 7.264ZM90.4106 12.192C89.7813 12.192 89.2106 12.112 88.6986 11.952C88.1973 11.792 87.7813 11.584 87.4506 11.328L88.0586 10.128C88.336 10.3627 88.6826 10.56 89.0986 10.72C89.5253 10.8693 89.9786 10.944 90.4586 10.944C91.056 10.944 91.504 10.848 91.8026 10.656C92.112 10.4533 92.2666 10.1973 92.2666 9.888C92.2666 9.664 92.208 9.46667 92.0906 9.296C91.984 9.12533 91.7813 8.96 91.4826 8.8C91.184 8.62933 90.752 8.448 90.1866 8.256C89.408 7.98933 88.8213 7.67467 88.4266 7.312C88.0426 6.93867 87.8506 6.42667 87.8506 5.776C87.8506 5.136 88.128 4.59733 88.6826 4.16C89.248 3.712 90.0266 3.488 91.0186 3.488C91.552 3.488 92.0266 3.54667 92.4426 3.664C92.8586 3.77067 93.232 3.90933 93.5626 4.08L93.1626 5.264C92.8746 5.09333 92.544 4.95467 92.1706 4.848C91.808 4.74133 91.4026 4.688 90.9546 4.688C90.4 4.688 89.9786 4.8 89.6906 5.024C89.4026 5.248 89.2586 5.49333 89.2586 5.76C89.2586 6.016 89.3706 6.23467 89.5946 6.416C89.8186 6.59733 90.256 6.79467 90.9066 7.008C91.9626 7.36 92.6986 7.74933 93.1146 8.176C93.5306 8.60267 93.7386 9.136 93.7386 9.776C93.7386 10.5227 93.4346 11.1147 92.8266 11.552C92.2293 11.9787 91.424 12.192 90.4106 12.192ZM103.956 12.192C103.167 12.192 102.457 12.0107 101.828 11.648C101.199 11.2747 100.703 10.7627 100.34 10.112C99.9879 9.45067 99.8119 8.69333 99.8119 7.84C99.8119 6.944 99.9932 6.17067 100.356 5.52C100.719 4.86933 101.215 4.368 101.844 4.016C102.473 3.664 103.177 3.488 103.956 3.488C104.735 3.488 105.433 3.664 106.052 4.016C106.681 4.368 107.177 4.86933 107.54 5.52C107.913 6.16 108.1 6.92267 108.1 7.808C108.1 8.69333 107.919 9.46667 107.556 10.128C107.193 10.7787 106.697 11.2853 106.068 11.648C105.449 12.0107 104.745 12.192 103.956 12.192ZM103.956 10.912C104.799 10.912 105.455 10.6293 105.924 10.064C106.393 9.488 106.628 8.74667 106.628 7.84C106.628 7.28533 106.511 6.77867 106.276 6.32C106.041 5.85067 105.721 5.47733 105.316 5.2C104.921 4.912 104.468 4.768 103.956 4.768C103.113 4.768 102.457 5.04533 101.988 5.6C101.519 6.15467 101.284 6.89067 101.284 7.808C101.284 8.36267 101.401 8.88 101.636 9.36C101.871 9.82933 102.185 10.208 102.58 10.496C102.985 10.7733 103.444 10.912 103.956 10.912ZM110.014 12V3.68H111.406V5.488C111.545 5.136 111.732 4.81067 111.966 4.512C112.201 4.20267 112.494 3.95733 112.846 3.776C113.198 3.584 113.609 3.488 114.078 3.488C114.238 3.488 114.398 3.49867 114.558 3.52C114.718 3.53067 114.852 3.552 114.958 3.584L114.526 5.072C114.324 4.98667 114.084 4.944 113.806 4.944C113.412 4.944 113.033 5.056 112.67 5.28C112.318 5.504 112.025 5.85067 111.79 6.32C111.566 6.78933 111.454 7.38667 111.454 8.112V12H110.014ZM116.405 12V3.68H117.845V12H116.405ZM117.125 2.256C116.848 2.256 116.608 2.15467 116.405 1.952C116.213 1.74933 116.117 1.51467 116.117 1.248C116.117 0.938666 116.208 0.693333 116.389 0.511999C116.57 0.330666 116.816 0.24 117.125 0.24C117.402 0.24 117.637 0.341333 117.829 0.544C118.032 0.736 118.133 0.970666 118.133 1.248C118.133 1.54667 118.042 1.792 117.861 1.984C117.68 2.16533 117.434 2.256 117.125 2.256ZM123.461 15.712C122.97 15.712 122.49 15.6533 122.021 15.536C121.562 15.4187 121.152 15.2427 120.789 15.008L121.317 13.76C121.573 13.9627 121.872 14.128 122.213 14.256C122.554 14.3947 122.97 14.464 123.461 14.464C124.218 14.464 124.81 14.2613 125.237 13.856C125.674 13.4613 125.893 12.8267 125.893 11.952V10.928C125.68 11.184 125.37 11.4293 124.965 11.664C124.57 11.888 124.096 12 123.541 12C122.912 12 122.314 11.84 121.749 11.52C121.184 11.1893 120.725 10.7093 120.373 10.08C120.021 9.45067 119.845 8.69333 119.845 7.808C119.845 6.976 120.016 6.23467 120.357 5.584C120.709 4.93333 121.178 4.42133 121.765 4.048C122.352 3.67467 122.997 3.488 123.701 3.488C124.17 3.488 124.597 3.568 124.981 3.728C125.365 3.888 125.696 4.08533 125.973 4.32V3.68H127.285V11.808C127.285 12.7253 127.125 13.472 126.805 14.048C126.485 14.624 126.037 15.0453 125.461 15.312C124.896 15.5787 124.229 15.712 123.461 15.712ZM123.861 10.72C124.288 10.72 124.672 10.624 125.013 10.432C125.354 10.24 125.632 10.016 125.845 9.76V5.408C125.61 5.23733 125.328 5.08267 124.997 4.944C124.666 4.80533 124.282 4.736 123.845 4.736C123.408 4.736 122.997 4.85333 122.613 5.088C122.229 5.32267 121.914 5.664 121.669 6.112C121.434 6.54933 121.317 7.088 121.317 7.728C121.317 8.336 121.434 8.864 121.669 9.312C121.914 9.76 122.229 10.1067 122.613 10.352C122.997 10.5973 123.413 10.72 123.861 10.72ZM129.764 12V3.68H131.204V12H129.764ZM130.484 2.256C130.207 2.256 129.967 2.15467 129.764 1.952C129.572 1.74933 129.476 1.51467 129.476 1.248C129.476 0.938666 129.567 0.693333 129.748 0.511999C129.93 0.330666 130.175 0.24 130.484 0.24C130.762 0.24 130.996 0.341333 131.188 0.544C131.391 0.736 131.492 0.970666 131.492 1.248C131.492 1.54667 131.402 1.792 131.22 1.984C131.039 2.16533 130.794 2.256 130.484 2.256ZM133.764 12V3.68H135.156V5.072C135.455 4.624 135.834 4.25067 136.292 3.952C136.762 3.64267 137.316 3.488 137.956 3.488C138.895 3.488 139.594 3.77067 140.052 4.336C140.522 4.90133 140.756 5.648 140.756 6.576V12H139.316V6.736C139.316 6.13867 139.172 5.65867 138.884 5.296C138.607 4.93333 138.218 4.752 137.716 4.752C137.226 4.752 136.762 4.928 136.324 5.28C135.887 5.62133 135.514 6.02667 135.204 6.496V12H133.764ZM146.417 12.192C145.724 12.192 145.094 12.016 144.529 11.664C143.964 11.312 143.51 10.816 143.169 10.176C142.838 9.52533 142.673 8.76267 142.673 7.888C142.673 7.056 142.838 6.30933 143.169 5.648C143.51 4.98667 143.974 4.464 144.561 4.08C145.158 3.68533 145.841 3.488 146.609 3.488C147.089 3.488 147.521 3.57333 147.905 3.744C148.3 3.904 148.641 4.10667 148.929 4.352V3.68H150.241V9.984C150.241 10.3893 150.337 10.656 150.529 10.784C150.732 10.9013 150.95 10.96 151.185 10.96L150.881 12.08C149.857 12.08 149.238 11.664 149.025 10.832C148.78 11.1733 148.444 11.488 148.017 11.776C147.601 12.0533 147.068 12.192 146.417 12.192ZM146.737 10.912C147.142 10.912 147.526 10.816 147.889 10.624C148.252 10.4213 148.556 10.1707 148.801 9.872V5.408C148.513 5.20533 148.193 5.04533 147.841 4.928C147.5 4.8 147.137 4.736 146.753 4.736C146.241 4.736 145.788 4.86933 145.393 5.136C145.009 5.392 144.705 5.75467 144.481 6.224C144.257 6.68267 144.145 7.22133 144.145 7.84C144.145 8.43733 144.257 8.97067 144.481 9.44C144.705 9.89867 145.014 10.2613 145.409 10.528C145.804 10.784 146.246 10.912 146.737 10.912ZM155.828 12.192C155.348 12.192 154.895 12.0907 154.468 11.888C154.041 11.6853 153.695 11.36 153.428 10.912C153.161 10.4533 153.028 9.84533 153.028 9.088V3.68H154.468V8.896C154.468 9.54667 154.607 10.048 154.884 10.4C155.161 10.7413 155.567 10.912 156.1 10.912C156.537 10.912 156.959 10.8267 157.364 10.656C157.78 10.4747 158.148 10.2347 158.468 9.936V3.68H159.908V9.84C159.908 10.2987 160.004 10.6027 160.196 10.752C160.399 10.8907 160.617 10.96 160.852 10.96L160.548 12.08C159.556 12.08 158.943 11.6853 158.708 10.896C158.335 11.28 157.903 11.5947 157.412 11.84C156.921 12.0747 156.393 12.192 155.828 12.192ZM168.236 12.144L165.436 8.672L162.668 12.112L161.644 11.216L164.604 7.776L161.756 4.48L162.876 3.504L165.452 6.832L167.98 3.568L169.052 4.48L166.284 7.712L169.324 11.216L168.236 12.144Z" fill="#AAAAAA"/>
</svg>
