<svg width="68" height="14" viewBox="0 0 68 14" fill="none" xmlns="http://www.w3.org/2000/svg">
<path opacity="0.9" d="M4.224 13.192C3.44533 13.192 2.736 13.0907 2.096 12.888C1.456 12.6747 0.917333 12.3973 0.48 12.056L1.248 10.776C1.632 11.096 2.064 11.3573 2.544 11.56C3.024 11.7627 3.584 11.864 4.224 11.864C4.992 11.864 5.6 11.704 6.048 11.384C6.496 11.064 6.72 10.632 6.72 10.088C6.72 9.77867 6.656 9.50667 6.528 9.272C6.4 9.02667 6.14933 8.792 5.776 8.568C5.41333 8.33333 4.87467 8.08267 4.16 7.816C3.392 7.51733 2.77867 7.21867 2.32 6.92C1.86133 6.61067 1.53067 6.264 1.328 5.88C1.136 5.48533 1.04 5.02133 1.04 4.488C1.04 3.95467 1.184 3.47467 1.472 3.048C1.77067 2.61067 2.20267 2.264 2.768 2.008C3.344 1.74133 4.03733 1.608 4.848 1.608C5.50933 1.608 6.10133 1.67733 6.624 1.816C7.15733 1.944 7.67467 2.13067 8.176 2.376L7.616 3.672C7.25333 3.45867 6.82667 3.28267 6.336 3.144C5.856 2.99467 5.34933 2.92 4.816 2.92C4.112 2.92 3.55733 3.05867 3.152 3.336C2.74667 3.61333 2.544 3.97067 2.544 4.408C2.544 4.68533 2.60267 4.93067 2.72 5.144C2.83733 5.35733 3.06667 5.56533 3.408 5.768C3.76 5.97067 4.28267 6.2 4.976 6.456C5.808 6.76533 6.464 7.09067 6.944 7.432C7.43467 7.77333 7.78133 8.14667 7.984 8.552C8.18667 8.94667 8.288 9.4 8.288 9.912C8.288 10.6053 8.112 11.1973 7.76 11.688C7.41867 12.1787 6.93867 12.552 6.32 12.808C5.712 13.064 5.01333 13.192 4.224 13.192ZM13.7018 13.192C12.5071 13.192 11.5578 12.8133 10.8538 12.056C10.1604 11.288 9.81375 10.216 9.81375 8.84C9.81375 8.008 9.96842 7.26667 10.2778 6.616C10.5978 5.95467 11.0404 5.43733 11.6058 5.064C12.1711 4.68 12.8271 4.488 13.5738 4.488C14.3738 4.488 15.0351 4.664 15.5578 5.016C16.0911 5.35733 16.4911 5.82133 16.7578 6.408C17.0244 6.99467 17.1578 7.64 17.1578 8.344C17.1578 8.71733 17.1418 9.08 17.1098 9.432H11.2858C11.3818 10.2107 11.6538 10.8187 12.1018 11.256C12.5498 11.6933 13.1418 11.912 13.8778 11.912C14.3578 11.912 14.7898 11.864 15.1738 11.768C15.5578 11.6613 15.9258 11.528 16.2778 11.368L16.6138 12.6C16.2298 12.7707 15.7978 12.9093 15.3178 13.016C14.8378 13.1333 14.2991 13.192 13.7018 13.192ZM11.2698 8.264H15.8298C15.8298 7.45333 15.6271 6.82933 15.2218 6.392C14.8164 5.95467 14.2564 5.736 13.5418 5.736C12.9231 5.736 12.4111 5.95467 12.0058 6.392C11.6004 6.81867 11.3551 7.44267 11.2698 8.264ZM12.2458 3.8L11.7498 2.824L14.7738 0.823999L15.4458 2.168L12.2458 3.8ZM19.0769 13V4.68H20.4689V6.488C20.6075 6.136 20.7942 5.81067 21.0289 5.512C21.2635 5.20267 21.5569 4.95733 21.9089 4.776C22.2609 4.584 22.6715 4.488 23.1409 4.488C23.3009 4.488 23.4609 4.49867 23.6209 4.52C23.7809 4.53067 23.9142 4.552 24.0209 4.584L23.5889 6.072C23.3862 5.98667 23.1462 5.944 22.8689 5.944C22.4742 5.944 22.0955 6.056 21.7329 6.28C21.3809 6.504 21.0875 6.85067 20.8529 7.32C20.6289 7.78933 20.5169 8.38667 20.5169 9.112V13H19.0769ZM25.4675 13V4.68H26.9075V13H25.4675ZM26.1875 3.256C25.9102 3.256 25.6702 3.15467 25.4675 2.952C25.2755 2.74933 25.1795 2.51467 25.1795 2.248C25.1795 1.93867 25.2702 1.69333 25.4515 1.512C25.6328 1.33067 25.8782 1.24 26.1875 1.24C26.4648 1.24 26.6995 1.34133 26.8915 1.544C27.0942 1.736 27.1955 1.97067 27.1955 2.248C27.1955 2.54667 27.1048 2.792 26.9235 2.984C26.7422 3.16533 26.4968 3.256 26.1875 3.256ZM32.7955 13.192C31.6008 13.192 30.6515 12.8133 29.9475 12.056C29.2542 11.288 28.9075 10.216 28.9075 8.84C28.9075 8.008 29.0622 7.26667 29.3715 6.616C29.6915 5.95467 30.1342 5.43733 30.6995 5.064C31.2648 4.68 31.9208 4.488 32.6675 4.488C33.4675 4.488 34.1288 4.664 34.6515 5.016C35.1848 5.35733 35.5848 5.82133 35.8515 6.408C36.1182 6.99467 36.2515 7.64 36.2515 8.344C36.2515 8.71733 36.2355 9.08 36.2035 9.432H30.3795C30.4755 10.2107 30.7475 10.8187 31.1955 11.256C31.6435 11.6933 32.2355 11.912 32.9715 11.912C33.4515 11.912 33.8835 11.864 34.2675 11.768C34.6515 11.6613 35.0195 11.528 35.3715 11.368L35.7075 12.6C35.3235 12.7707 34.8915 12.9093 34.4115 13.016C33.9315 13.1333 33.3928 13.192 32.7955 13.192ZM30.3635 8.264H34.9235C34.9235 7.45333 34.7208 6.82933 34.3155 6.392C33.9102 5.95467 33.3502 5.736 32.6355 5.736C32.0168 5.736 31.5048 5.95467 31.0995 6.392C30.6942 6.81867 30.4488 7.44267 30.3635 8.264ZM40.4106 13.192C39.7813 13.192 39.2106 13.112 38.6986 12.952C38.1973 12.792 37.7813 12.584 37.4506 12.328L38.0586 11.128C38.336 11.3627 38.6826 11.56 39.0986 11.72C39.5253 11.8693 39.9786 11.944 40.4586 11.944C41.056 11.944 41.504 11.848 41.8026 11.656C42.112 11.4533 42.2666 11.1973 42.2666 10.888C42.2666 10.664 42.208 10.4667 42.0906 10.296C41.984 10.1253 41.7813 9.96 41.4826 9.8C41.184 9.62933 40.752 9.448 40.1866 9.256C39.408 8.98933 38.8213 8.67467 38.4266 8.312C38.0426 7.93867 37.8506 7.42667 37.8506 6.776C37.8506 6.136 38.128 5.59733 38.6826 5.16C39.248 4.712 40.0266 4.488 41.0186 4.488C41.552 4.488 42.0266 4.54667 42.4426 4.664C42.8586 4.77067 43.232 4.90933 43.5626 5.08L43.1626 6.264C42.8746 6.09333 42.544 5.95467 42.1706 5.848C41.808 5.74133 41.4026 5.688 40.9546 5.688C40.4 5.688 39.9786 5.8 39.6906 6.024C39.4026 6.248 39.2586 6.49333 39.2586 6.76C39.2586 7.016 39.3706 7.23467 39.5946 7.416C39.8186 7.59733 40.256 7.79467 40.9066 8.008C41.9626 8.36 42.6986 8.74933 43.1146 9.176C43.5306 9.60267 43.7386 10.136 43.7386 10.776C43.7386 11.5227 43.4346 12.1147 42.8266 12.552C42.2293 12.9787 41.424 13.192 40.4106 13.192ZM52.7719 13V3.144H49.3319V1.8H57.7319V3.144H54.2919V13H52.7719ZM62.1626 13L58.0506 2.2L59.5386 1.624L63.0586 11.336L66.5946 1.672L67.9706 2.2L63.8746 13H62.1626Z" fill="white"/>
</svg>
