<svg width="1381" height="43" viewBox="0 0 1381 43" fill="none" xmlns="http://www.w3.org/2000/svg">
<rect x="1.5" y="39.5" width="406" height="3" rx="1.5" fill="#E50914" stroke="#E50914"/>
<path d="M1.8 19V5H3.7V17.3H10.12V19H1.8ZM10.3333 8.96L9.87328 8.26C10.5666 7.78 10.9799 7.17333 11.1133 6.44C10.9933 6.49333 10.8533 6.52 10.6933 6.52C10.3199 6.52 10.0133 6.4 9.77328 6.16C9.53328 5.92 9.41328 5.61333 9.41328 5.24C9.41328 4.85333 9.53995 4.54667 9.79328 4.32C10.0466 4.08 10.3666 3.96 10.7533 3.96C11.2199 3.96 11.5999 4.11333 11.8933 4.42C12.1999 4.72667 12.3533 5.16667 12.3533 5.74C12.3533 6.35333 12.1733 6.96 11.8133 7.56C11.4666 8.14667 10.9733 8.61333 10.3333 8.96ZM18.7245 19.24C17.8579 19.24 17.0712 19.02 16.3645 18.58C15.6579 18.14 15.0912 17.52 14.6645 16.72C14.2512 15.9067 14.0445 14.9533 14.0445 13.86C14.0445 12.82 14.2512 11.8867 14.6645 11.06C15.0912 10.2333 15.6712 9.58 16.4045 9.1C17.1512 8.60667 18.0045 8.36 18.9645 8.36C19.5645 8.36 20.1045 8.46667 20.5845 8.68C21.0779 8.88 21.5045 9.13333 21.8645 9.44V8.6H23.5045V16.48C23.5045 16.9867 23.6245 17.32 23.8645 17.48C24.1179 17.6267 24.3912 17.7 24.6845 17.7L24.3045 19.1C23.0245 19.1 22.2512 18.58 21.9845 17.54C21.6779 17.9667 21.2579 18.36 20.7245 18.72C20.2045 19.0667 19.5379 19.24 18.7245 19.24ZM19.1245 17.64C19.6312 17.64 20.1112 17.52 20.5645 17.28C21.0179 17.0267 21.3979 16.7133 21.7045 16.34V10.76C21.3445 10.5067 20.9445 10.3067 20.5045 10.16C20.0779 10 19.6245 9.92 19.1445 9.92C18.5045 9.92 17.9379 10.0867 17.4445 10.42C16.9645 10.74 16.5845 11.1933 16.3045 11.78C16.0245 12.3533 15.8845 13.0267 15.8845 13.8C15.8845 14.5467 16.0245 15.2133 16.3045 15.8C16.5845 16.3733 16.9712 16.8267 17.4645 17.16C17.9579 17.48 18.5112 17.64 19.1245 17.64ZM16.7045 7.56L15.7645 6.08L18.6845 4.2H19.9645L22.8845 6.08L21.9445 7.56L19.3245 5.46L16.7045 7.56ZM30.713 23.64C30.0996 23.64 29.4996 23.5667 28.913 23.42C28.3396 23.2733 27.8263 23.0533 27.373 22.76L28.033 21.2C28.353 21.4533 28.7263 21.66 29.153 21.82C29.5796 21.9933 30.0996 22.08 30.713 22.08C31.6596 22.08 32.3996 21.8267 32.933 21.32C33.4796 20.8267 33.753 20.0333 33.753 18.94V17.66C33.4863 17.98 33.0996 18.2867 32.593 18.58C32.0996 18.86 31.5063 19 30.813 19C30.0263 19 29.2796 18.8 28.573 18.4C27.8663 17.9867 27.293 17.3867 26.853 16.6C26.413 15.8133 26.193 14.8667 26.193 13.76C26.193 12.72 26.4063 11.7933 26.833 10.98C27.273 10.1667 27.8596 9.52667 28.593 9.06C29.3263 8.59333 30.133 8.36 31.013 8.36C31.5996 8.36 32.133 8.46 32.613 8.66C33.093 8.86 33.5063 9.10667 33.853 9.4V8.6H35.493V18.76C35.493 19.9067 35.293 20.84 34.893 21.56C34.493 22.28 33.933 22.8067 33.213 23.14C32.5063 23.4733 31.673 23.64 30.713 23.64ZM31.213 17.4C31.7463 17.4 32.2263 17.28 32.653 17.04C33.0796 16.8 33.4263 16.52 33.693 16.2V10.76C33.3996 10.5467 33.0463 10.3533 32.633 10.18C32.2196 10.0067 31.7396 9.92 31.193 9.92C30.6463 9.92 30.133 10.0667 29.653 10.36C29.173 10.6533 28.7796 11.08 28.473 11.64C28.1796 12.1867 28.033 12.86 28.033 13.66C28.033 14.42 28.1796 15.08 28.473 15.64C28.7796 16.2 29.173 16.6333 29.653 16.94C30.133 17.2467 30.653 17.4 31.213 17.4ZM42.7522 19.24C41.2589 19.24 40.0722 18.7667 39.1922 17.82C38.3255 16.86 37.8922 15.52 37.8922 13.8C37.8922 12.76 38.0855 11.8333 38.4722 11.02C38.8722 10.1933 39.4255 9.54667 40.1322 9.08C40.8389 8.6 41.6589 8.36 42.5922 8.36C43.5922 8.36 44.4189 8.58 45.0722 9.02C45.7389 9.44667 46.2389 10.0267 46.5722 10.76C46.9055 11.4933 47.0722 12.3 47.0722 13.18C47.0722 13.6467 47.0522 14.1 47.0122 14.54H39.7322C39.8522 15.5133 40.1922 16.2733 40.7522 16.82C41.3122 17.3667 42.0522 17.64 42.9722 17.64C43.5722 17.64 44.1122 17.58 44.5922 17.46C45.0722 17.3267 45.5322 17.16 45.9722 16.96L46.3922 18.5C45.9122 18.7133 45.3722 18.8867 44.7722 19.02C44.1722 19.1667 43.4989 19.24 42.7522 19.24ZM39.7122 13.08H45.4122C45.4122 12.0667 45.1589 11.2867 44.6522 10.74C44.1455 10.1933 43.4455 9.92 42.5522 9.92C41.7789 9.92 41.1389 10.1933 40.6322 10.74C40.1255 11.2733 39.8189 12.0533 39.7122 13.08ZM59.4072 19.24C58.5539 19.24 57.7739 19.02 57.0672 18.58C56.3605 18.14 55.8005 17.52 55.3872 16.72C54.9739 15.9067 54.7672 14.9533 54.7672 13.86C54.7672 12.8067 54.9739 11.8667 55.3872 11.04C55.8139 10.2133 56.3739 9.56 57.0672 9.08C57.7739 8.6 58.5472 8.36 59.3872 8.36C60.0805 8.36 60.6739 8.5 61.1672 8.78C61.6739 9.06 62.0672 9.34667 62.3472 9.64V4.2H64.1472V16.48C64.1472 16.9867 64.2672 17.32 64.5072 17.48C64.7605 17.6267 65.0339 17.7 65.3272 17.7L64.9472 19.1C63.6805 19.1 62.9072 18.5933 62.6272 17.58C62.3339 17.9933 61.9205 18.3733 61.3872 18.72C60.8672 19.0667 60.2072 19.24 59.4072 19.24ZM59.8072 17.64C60.3005 17.64 60.7672 17.5267 61.2072 17.3C61.6605 17.06 62.0405 16.7533 62.3472 16.38V11.22C62.0939 10.9 61.7405 10.6067 61.2872 10.34C60.8339 10.06 60.3339 9.92 59.7872 9.92C59.1472 9.92 58.5872 10.0933 58.1072 10.44C57.6272 10.7867 57.2539 11.2533 56.9872 11.84C56.7339 12.4133 56.6072 13.0667 56.6072 13.8C56.6072 14.5333 56.7472 15.1933 57.0272 15.78C57.3072 16.3533 57.6872 16.8067 58.1672 17.14C58.6605 17.4733 59.2072 17.64 59.8072 17.64ZM67.8528 8.96L67.3928 8.26C68.0861 7.78 68.4995 7.17333 68.6328 6.44C68.5128 6.49333 68.3728 6.52 68.2128 6.52C67.8395 6.52 67.5328 6.4 67.2928 6.16C67.0528 5.92 66.9328 5.61333 66.9328 5.24C66.9328 4.85333 67.0595 4.54667 67.3128 4.32C67.5661 4.08 67.8861 3.96 68.2728 3.96C68.7395 3.96 69.1195 4.11333 69.4128 4.42C69.7195 4.72667 69.8728 5.16667 69.8728 5.74C69.8728 6.35333 69.6928 6.96 69.3328 7.56C68.9861 8.14667 68.4928 8.61333 67.8528 8.96ZM76.6441 19.24C75.6574 19.24 74.7707 19.0133 73.9841 18.56C73.1974 18.0933 72.5774 17.4533 72.1241 16.64C71.6841 15.8133 71.4641 14.8667 71.4641 13.8C71.4641 12.68 71.6907 11.7133 72.1441 10.9C72.5974 10.0867 73.2174 9.46 74.0041 9.02C74.7907 8.58 75.6707 8.36 76.6441 8.36C77.6174 8.36 78.4907 8.58 79.2641 9.02C80.0507 9.46 80.6707 10.0867 81.1241 10.9C81.5907 11.7 81.8241 12.6533 81.8241 13.76C81.8241 14.8667 81.5974 15.8333 81.1441 16.66C80.6907 17.4733 80.0707 18.1067 79.2841 18.56C78.5107 19.0133 77.6307 19.24 76.6441 19.24ZM76.6441 17.64C77.6974 17.64 78.5174 17.2867 79.1041 16.58C79.6907 15.86 79.9841 14.9333 79.9841 13.8C79.9841 13.1067 79.8374 12.4733 79.5441 11.9C79.2507 11.3133 78.8507 10.8467 78.3441 10.5C77.8507 10.14 77.2841 9.96 76.6441 9.96C75.5907 9.96 74.7707 10.3067 74.1841 11C73.5974 11.6933 73.3041 12.6133 73.3041 13.76C73.3041 14.4533 73.4507 15.1 73.7441 15.7C74.0374 16.2867 74.4307 16.76 74.9241 17.12C75.4307 17.4667 76.0041 17.64 76.6441 17.64ZM84.2172 19V8.6H85.9572V10.86C86.1305 10.42 86.3639 10.0133 86.6572 9.64C86.9505 9.25333 87.3172 8.94667 87.7572 8.72C88.1972 8.48 88.7105 8.36 89.2972 8.36C89.4972 8.36 89.6972 8.37333 89.8972 8.4C90.0972 8.41333 90.2639 8.44 90.3972 8.48L89.8572 10.34C89.6039 10.2333 89.3039 10.18 88.9572 10.18C88.4639 10.18 87.9905 10.32 87.5372 10.6C87.0972 10.88 86.7305 11.3133 86.4372 11.9C86.1572 12.4867 86.0172 13.2333 86.0172 14.14V19H84.2172ZM102.142 19.24C101.288 19.24 100.508 19.02 99.8016 18.58C99.0949 18.14 98.5349 17.52 98.1216 16.72C97.7082 15.9067 97.5016 14.9533 97.5016 13.86C97.5016 12.8067 97.7082 11.8667 98.1216 11.04C98.5482 10.2133 99.1082 9.56 99.8016 9.08C100.508 8.6 101.282 8.36 102.122 8.36C102.815 8.36 103.408 8.5 103.902 8.78C104.408 9.06 104.802 9.34667 105.082 9.64V4.2H106.882V16.48C106.882 16.9867 107.002 17.32 107.242 17.48C107.495 17.6267 107.768 17.7 108.062 17.7L107.682 19.1C106.415 19.1 105.642 18.5933 105.362 17.58C105.068 17.9933 104.655 18.3733 104.122 18.72C103.602 19.0667 102.942 19.24 102.142 19.24ZM102.542 17.64C103.035 17.64 103.502 17.5267 103.942 17.3C104.395 17.06 104.775 16.7533 105.082 16.38V11.22C104.828 10.9 104.475 10.6067 104.022 10.34C103.568 10.06 103.068 9.92 102.522 9.92C101.882 9.92 101.322 10.0933 100.842 10.44C100.362 10.7867 99.9882 11.2533 99.7216 11.84C99.4682 12.4133 99.3416 13.0667 99.3416 13.8C99.3416 14.5333 99.4816 15.1933 99.7616 15.78C100.042 16.3533 100.422 16.8067 100.902 17.14C101.395 17.4733 101.942 17.64 102.542 17.64ZM113.867 19.24C113.267 19.24 112.701 19.1133 112.167 18.86C111.634 18.6067 111.201 18.2 110.867 17.64C110.534 17.0667 110.367 16.3067 110.367 15.36V8.6H112.167V15.12C112.167 15.9333 112.341 16.56 112.687 17C113.034 17.4267 113.541 17.64 114.207 17.64C114.754 17.64 115.281 17.5333 115.787 17.32C116.307 17.0933 116.767 16.7933 117.167 16.42V8.6H118.967V16.3C118.967 16.8733 119.087 17.2533 119.327 17.44C119.581 17.6133 119.854 17.7 120.147 17.7L119.767 19.1C118.527 19.1 117.761 18.6067 117.467 17.62C117.001 18.1 116.461 18.4933 115.847 18.8C115.234 19.0933 114.574 19.24 113.867 19.24ZM132.734 19.24C131.747 19.24 130.88 19.0133 130.134 18.56C129.4 18.0933 128.834 17.4533 128.434 16.64C128.034 15.8133 127.834 14.8667 127.834 13.8C127.834 12.8 128.034 11.8867 128.434 11.06C128.847 10.2333 129.434 9.58 130.194 9.1C130.954 8.60667 131.847 8.36 132.874 8.36C133.46 8.36 133.974 8.41333 134.414 8.52C134.867 8.62667 135.3 8.78 135.714 8.98L135.174 10.5C134.8 10.3133 134.44 10.18 134.094 10.1C133.76 10.0067 133.387 9.96 132.974 9.96C132.04 9.96 131.254 10.3 130.614 10.98C129.987 11.6467 129.674 12.5733 129.674 13.76C129.674 14.48 129.807 15.1333 130.074 15.72C130.34 16.3067 130.707 16.7733 131.174 17.12C131.654 17.4667 132.214 17.64 132.854 17.64C133.36 17.64 133.794 17.5867 134.154 17.48C134.514 17.36 134.9 17.1933 135.314 16.98L135.874 18.5C135.46 18.7267 134.994 18.9067 134.474 19.04C133.967 19.1733 133.387 19.24 132.734 19.24ZM137.967 19V8.6H139.767V19H137.967ZM138.867 6.82C138.521 6.82 138.221 6.69333 137.967 6.44C137.727 6.18667 137.607 5.89333 137.607 5.56C137.607 5.17333 137.721 4.86667 137.947 4.64C138.174 4.41333 138.481 4.3 138.867 4.3C139.214 4.3 139.507 4.42667 139.747 4.68C140.001 4.92 140.127 5.21333 140.127 5.56C140.127 5.93333 140.014 6.24 139.787 6.48C139.561 6.70667 139.254 6.82 138.867 6.82ZM142.967 19V8.6H144.707V10.34C145.081 9.78 145.554 9.31333 146.127 8.94C146.714 8.55333 147.407 8.36 148.207 8.36C149.381 8.36 150.254 8.71333 150.827 9.42C151.414 10.1267 151.707 11.06 151.707 12.22V19H149.907V12.42C149.907 11.6733 149.727 11.0733 149.367 10.62C149.021 10.1667 148.534 9.94 147.907 9.94C147.294 9.94 146.714 10.16 146.167 10.6C145.621 11.0267 145.154 11.5333 144.767 12.12V19H142.967ZM158.963 19.24C157.47 19.24 156.283 18.7667 155.403 17.82C154.536 16.86 154.103 15.52 154.103 13.8C154.103 12.76 154.296 11.8333 154.683 11.02C155.083 10.1933 155.636 9.54667 156.343 9.08C157.05 8.6 157.87 8.36 158.803 8.36C159.803 8.36 160.63 8.58 161.283 9.02C161.95 9.44667 162.45 10.0267 162.783 10.76C163.116 11.4933 163.283 12.3 163.283 13.18C163.283 13.6467 163.263 14.1 163.223 14.54H155.943C156.063 15.5133 156.403 16.2733 156.963 16.82C157.523 17.3667 158.263 17.64 159.183 17.64C159.783 17.64 160.323 17.58 160.803 17.46C161.283 17.3267 161.743 17.16 162.183 16.96L162.603 18.5C162.123 18.7133 161.583 18.8867 160.983 19.02C160.383 19.1667 159.71 19.24 158.963 19.24ZM155.923 13.08H161.623C161.623 12.0667 161.37 11.2867 160.863 10.74C160.356 10.1933 159.656 9.92 158.763 9.92C157.99 9.92 157.35 10.1933 156.843 10.74C156.336 11.2733 156.03 12.0533 155.923 13.08ZM157.143 7.5L156.523 6.28L160.303 3.78L161.143 5.46L157.143 7.5ZM165.682 19V8.6H167.422V10.34C167.795 9.78 168.269 9.31333 168.842 8.94C169.415 8.55333 170.069 8.36 170.802 8.36C171.629 8.36 172.302 8.56 172.822 8.96C173.355 9.36 173.729 9.89333 173.942 10.56C174.355 9.94667 174.842 9.42667 175.402 9C175.975 8.57333 176.682 8.36 177.522 8.36C178.655 8.36 179.495 8.72 180.042 9.44C180.602 10.1467 180.882 11.0733 180.882 12.22V19H179.082V12.36C179.082 11.64 178.915 11.06 178.582 10.62C178.249 10.1667 177.789 9.94 177.202 9.94C176.602 9.94 176.042 10.1667 175.522 10.62C175.015 11.06 174.569 11.58 174.182 12.18V19H172.382V12.36C172.382 11.64 172.215 11.06 171.882 10.62C171.549 10.1667 171.089 9.94 170.502 9.94C169.915 9.94 169.362 10.16 168.842 10.6C168.322 11.0267 167.869 11.5333 167.482 12.12V19H165.682ZM187.963 19.24C187.096 19.24 186.309 19.02 185.603 18.58C184.896 18.14 184.329 17.52 183.903 16.72C183.489 15.9067 183.283 14.9533 183.283 13.86C183.283 12.82 183.489 11.8867 183.903 11.06C184.329 10.2333 184.909 9.58 185.643 9.1C186.389 8.60667 187.243 8.36 188.203 8.36C188.803 8.36 189.343 8.46667 189.823 8.68C190.316 8.88 190.743 9.13333 191.103 9.44V8.6H192.743V16.48C192.743 16.9867 192.863 17.32 193.103 17.48C193.356 17.6267 193.629 17.7 193.923 17.7L193.543 19.1C192.263 19.1 191.489 18.58 191.223 17.54C190.916 17.9667 190.496 18.36 189.963 18.72C189.443 19.0667 188.776 19.24 187.963 19.24ZM188.363 17.64C188.869 17.64 189.349 17.52 189.803 17.28C190.256 17.0267 190.636 16.7133 190.943 16.34V10.76C190.583 10.5067 190.183 10.3067 189.743 10.16C189.316 10 188.863 9.92 188.383 9.92C187.743 9.92 187.176 10.0867 186.683 10.42C186.203 10.74 185.823 11.1933 185.543 11.78C185.263 12.3533 185.123 13.0267 185.123 13.8C185.123 14.5467 185.263 15.2133 185.543 15.8C185.823 16.3733 186.209 16.8267 186.703 17.16C187.196 17.48 187.749 17.64 188.363 17.64ZM202.703 23.4V11.26C202.703 10.8067 202.589 10.4867 202.363 10.3C202.149 10.1 201.869 10 201.523 10L201.903 8.6C203.129 8.6 203.896 9.08667 204.203 10.06C204.336 9.86 204.549 9.62667 204.843 9.36C205.149 9.09333 205.523 8.86 205.963 8.66C206.416 8.46 206.929 8.36 207.503 8.36C208.303 8.36 209.049 8.57333 209.743 9C210.449 9.41333 211.016 10.02 211.443 10.82C211.869 11.6067 212.083 12.5667 212.083 13.7C212.083 14.8067 211.869 15.78 211.443 16.62C211.016 17.4467 210.456 18.0933 209.763 18.56C209.083 19.0133 208.343 19.24 207.543 19.24C206.929 19.24 206.356 19.12 205.823 18.88C205.289 18.6267 204.849 18.34 204.503 18.02V23.4H202.703ZM207.183 17.64C208.089 17.64 208.823 17.2867 209.383 16.58C209.956 15.86 210.243 14.92 210.243 13.76C210.243 12.96 210.096 12.2733 209.803 11.7C209.523 11.1267 209.143 10.6867 208.663 10.38C208.196 10.0733 207.676 9.92 207.103 9.92C206.529 9.92 206.009 10.0667 205.543 10.36C205.089 10.64 204.743 10.9467 204.503 11.28V16.4C204.849 16.76 205.249 17.06 205.703 17.3C206.156 17.5267 206.649 17.64 207.183 17.64ZM218.968 19.24C217.982 19.24 217.095 19.0133 216.308 18.56C215.522 18.0933 214.902 17.4533 214.448 16.64C214.008 15.8133 213.788 14.8667 213.788 13.8C213.788 12.68 214.015 11.7133 214.468 10.9C214.922 10.0867 215.542 9.46 216.328 9.02C217.115 8.58 217.995 8.36 218.968 8.36C219.942 8.36 220.815 8.58 221.588 9.02C222.375 9.46 222.995 10.0867 223.448 10.9C223.915 11.7 224.148 12.6533 224.148 13.76C224.148 14.8667 223.922 15.8333 223.468 16.66C223.015 17.4733 222.395 18.1067 221.608 18.56C220.835 19.0133 219.955 19.24 218.968 19.24ZM218.968 17.64C220.022 17.64 220.842 17.2867 221.428 16.58C222.015 15.86 222.308 14.9333 222.308 13.8C222.308 13.1067 222.162 12.4733 221.868 11.9C221.575 11.3133 221.175 10.8467 220.668 10.5C220.175 10.14 219.608 9.96 218.968 9.96C217.915 9.96 217.095 10.3067 216.508 11C215.922 11.6933 215.628 12.6133 215.628 13.76C215.628 14.4533 215.775 15.1 216.068 15.7C216.362 16.2867 216.755 16.76 217.248 17.12C217.755 17.4667 218.328 17.64 218.968 17.64ZM229.701 19.24C229.088 19.24 228.535 19.1267 228.041 18.9C227.548 18.66 227.155 18.28 226.861 17.76C226.581 17.24 226.441 16.5667 226.441 15.74V4.2H228.241V15.56C228.241 16.28 228.388 16.8133 228.681 17.16C228.988 17.5067 229.408 17.68 229.941 17.68C230.195 17.68 230.441 17.6533 230.681 17.6C230.935 17.5333 231.148 17.46 231.321 17.38L231.761 18.84C231.521 18.9467 231.221 19.04 230.861 19.12C230.515 19.2 230.128 19.24 229.701 19.24ZM237.543 19.24C236.556 19.24 235.669 19.0133 234.883 18.56C234.096 18.0933 233.476 17.4533 233.023 16.64C232.583 15.8133 232.363 14.8667 232.363 13.8C232.363 12.68 232.589 11.7133 233.043 10.9C233.496 10.0867 234.116 9.46 234.903 9.02C235.689 8.58 236.569 8.36 237.543 8.36C238.516 8.36 239.389 8.58 240.163 9.02C240.949 9.46 241.569 10.0867 242.023 10.9C242.489 11.7 242.723 12.6533 242.723 13.76C242.723 14.8667 242.496 15.8333 242.043 16.66C241.589 17.4733 240.969 18.1067 240.183 18.56C239.409 19.0133 238.529 19.24 237.543 19.24ZM237.543 17.64C238.596 17.64 239.416 17.2867 240.003 16.58C240.589 15.86 240.883 14.9333 240.883 13.8C240.883 13.1067 240.736 12.4733 240.443 11.9C240.149 11.3133 239.749 10.8467 239.243 10.5C238.749 10.14 238.183 9.96 237.543 9.96C236.489 9.96 235.669 10.3067 235.083 11C234.496 11.6933 234.202 12.6133 234.202 13.76C234.202 14.4533 234.349 15.1 234.643 15.7C234.936 16.2867 235.329 16.76 235.823 17.12C236.329 17.4667 236.903 17.64 237.543 17.64ZM245.116 19V8.6H246.856V10.34C247.229 9.78 247.702 9.31333 248.276 8.94C248.862 8.55333 249.556 8.36 250.356 8.36C251.529 8.36 252.402 8.71333 252.976 9.42C253.562 10.1267 253.856 11.06 253.856 12.22V19H252.056V12.42C252.056 11.6733 251.876 11.0733 251.516 10.62C251.169 10.1667 250.682 9.94 250.056 9.94C249.442 9.94 248.862 10.16 248.316 10.6C247.769 11.0267 247.302 11.5333 246.916 12.12V19H245.116ZM260.932 19.24C260.065 19.24 259.278 19.02 258.572 18.58C257.865 18.14 257.298 17.52 256.872 16.72C256.458 15.9067 256.252 14.9533 256.252 13.86C256.252 12.82 256.458 11.8867 256.872 11.06C257.298 10.2333 257.878 9.58 258.612 9.1C259.358 8.60667 260.212 8.36 261.172 8.36C261.772 8.36 262.312 8.46667 262.792 8.68C263.285 8.88 263.712 9.13333 264.072 9.44V8.6H265.712V16.48C265.712 16.9867 265.832 17.32 266.072 17.48C266.325 17.6267 266.598 17.7 266.892 17.7L266.512 19.1C265.232 19.1 264.458 18.58 264.192 17.54C263.885 17.9667 263.465 18.36 262.932 18.72C262.412 19.0667 261.745 19.24 260.932 19.24ZM261.332 17.64C261.838 17.64 262.318 17.52 262.772 17.28C263.225 17.0267 263.605 16.7133 263.912 16.34V10.76C263.552 10.5067 263.152 10.3067 262.712 10.16C262.285 10 261.832 9.92 261.352 9.92C260.712 9.92 260.145 10.0867 259.652 10.42C259.172 10.74 258.792 11.1933 258.512 11.78C258.232 12.3533 258.092 13.0267 258.092 13.8C258.092 14.5467 258.232 15.2133 258.512 15.8C258.792 16.3733 259.178 16.8267 259.672 17.16C260.165 17.48 260.718 17.64 261.332 17.64ZM269.295 19V8.6H271.095V19H269.295ZM270.195 6.82C269.849 6.82 269.549 6.69333 269.295 6.44C269.055 6.18667 268.935 5.89333 268.935 5.56C268.935 5.17333 269.049 4.86667 269.275 4.64C269.502 4.41333 269.809 4.3 270.195 4.3C270.542 4.3 270.835 4.42667 271.075 4.68C271.329 4.92 271.455 5.21333 271.455 5.56C271.455 5.93333 271.342 6.24 271.115 6.48C270.889 6.70667 270.582 6.82 270.195 6.82ZM277.095 19.24C276.309 19.24 275.595 19.14 274.955 18.94C274.329 18.74 273.809 18.48 273.395 18.16L274.155 16.66C274.502 16.9533 274.935 17.2 275.455 17.4C275.989 17.5867 276.555 17.68 277.155 17.68C277.902 17.68 278.462 17.56 278.835 17.32C279.222 17.0667 279.415 16.7467 279.415 16.36C279.415 16.08 279.342 15.8333 279.195 15.62C279.062 15.4067 278.809 15.2 278.435 15C278.062 14.7867 277.522 14.56 276.815 14.32C275.842 13.9867 275.109 13.5933 274.615 13.14C274.135 12.6733 273.895 12.0333 273.895 11.22C273.895 10.42 274.242 9.74667 274.935 9.2C275.642 8.64 276.615 8.36 277.855 8.36C278.522 8.36 279.115 8.43333 279.635 8.58C280.155 8.71333 280.622 8.88667 281.035 9.1L280.535 10.58C280.175 10.3667 279.762 10.1933 279.295 10.06C278.842 9.92667 278.335 9.86 277.775 9.86C277.082 9.86 276.555 10 276.195 10.28C275.835 10.56 275.655 10.8667 275.655 11.2C275.655 11.52 275.795 11.7933 276.075 12.02C276.355 12.2467 276.902 12.4933 277.715 12.76C279.035 13.2 279.955 13.6867 280.475 14.22C280.995 14.7533 281.255 15.42 281.255 16.22C281.255 17.1533 280.875 17.8933 280.115 18.44C279.369 18.9733 278.362 19.24 277.095 19.24ZM291.827 21.46C291 19.9933 290.354 18.54 289.887 17.1C289.42 15.6467 289.187 14.1467 289.187 12.6C289.187 10.9333 289.42 9.39333 289.887 7.98C290.367 6.55333 291.014 5.14 291.827 3.74L292.887 4.34C292.394 5.46 291.967 6.71333 291.607 8.1C291.26 9.47333 291.087 10.9733 291.087 12.6C291.087 14.2133 291.26 15.7067 291.607 17.08C291.967 18.4533 292.394 19.7133 292.887 20.86L291.827 21.46ZM294.383 23.64C293.57 23.64 292.89 23.4867 292.343 23.18L292.783 21.68C292.956 21.7867 293.17 21.88 293.423 21.96C293.663 22.04 293.91 22.08 294.163 22.08C295.296 22.08 295.863 21.3733 295.863 19.96V8.6H297.663V20.14C297.663 20.9533 297.516 21.6133 297.223 22.12C296.93 22.64 296.536 23.02 296.043 23.26C295.55 23.5133 294.996 23.64 294.383 23.64ZM296.723 6.82C296.376 6.82 296.076 6.69333 295.823 6.44C295.583 6.18667 295.463 5.89333 295.463 5.56C295.463 5.17333 295.576 4.86667 295.803 4.64C296.03 4.41333 296.336 4.3 296.723 4.3C297.07 4.3 297.363 4.42667 297.603 4.68C297.856 4.92 297.983 5.21333 297.983 5.56C297.983 5.93333 297.87 6.24 297.643 6.48C297.416 6.70667 297.11 6.82 296.723 6.82ZM304.258 19.24C303.658 19.24 303.091 19.1133 302.558 18.86C302.024 18.6067 301.591 18.2 301.258 17.64C300.924 17.0667 300.758 16.3067 300.758 15.36V8.6H302.558V15.12C302.558 15.9333 302.731 16.56 303.078 17C303.424 17.4267 303.931 17.64 304.598 17.64C305.144 17.64 305.671 17.5333 306.178 17.32C306.698 17.0933 307.158 16.7933 307.558 16.42V8.6H309.358V16.3C309.358 16.8733 309.478 17.2533 309.718 17.44C309.971 17.6133 310.244 17.7 310.538 17.7L310.158 19.1C308.918 19.1 308.151 18.6067 307.858 17.62C307.391 18.1 306.851 18.4933 306.238 18.8C305.624 19.0933 304.964 19.24 304.258 19.24ZM312.928 19V8.6H314.728V19H312.928ZM313.828 6.82C313.481 6.82 313.181 6.69333 312.928 6.44C312.688 6.18667 312.568 5.89333 312.568 5.56C312.568 5.17333 312.681 4.86667 312.908 4.64C313.135 4.41333 313.441 4.3 313.828 4.3C314.175 4.3 314.468 4.42667 314.708 4.68C314.961 4.92 315.088 5.21333 315.088 5.56C315.088 5.93333 314.975 6.24 314.748 6.48C314.521 6.70667 314.215 6.82 313.828 6.82ZM321.088 19.24C320.475 19.24 319.921 19.1267 319.428 18.9C318.935 18.66 318.541 18.28 318.248 17.76C317.968 17.24 317.828 16.5667 317.828 15.74V4.2H319.628V15.56C319.628 16.28 319.775 16.8133 320.068 17.16C320.375 17.5067 320.795 17.68 321.328 17.68C321.581 17.68 321.828 17.6533 322.068 17.6C322.321 17.5333 322.535 17.46 322.708 17.38L323.148 18.84C322.908 18.9467 322.608 19.04 322.248 19.12C321.901 19.2 321.515 19.24 321.088 19.24ZM327.807 19.24C327.194 19.24 326.64 19.1267 326.147 18.9C325.654 18.66 325.26 18.28 324.967 17.76C324.687 17.24 324.547 16.5667 324.547 15.74V4.2H326.347V15.56C326.347 16.28 326.494 16.8133 326.787 17.16C327.094 17.5067 327.514 17.68 328.047 17.68C328.3 17.68 328.547 17.6533 328.787 17.6C329.04 17.5333 329.254 17.46 329.427 17.38L329.867 18.84C329.627 18.9467 329.327 19.04 328.967 19.12C328.62 19.2 328.234 19.24 327.807 19.24ZM335.428 19.24C333.935 19.24 332.748 18.7667 331.868 17.82C331.001 16.86 330.568 15.52 330.568 13.8C330.568 12.76 330.761 11.8333 331.148 11.02C331.548 10.1933 332.101 9.54667 332.808 9.08C333.515 8.6 334.335 8.36 335.268 8.36C336.268 8.36 337.095 8.58 337.748 9.02C338.415 9.44667 338.915 10.0267 339.248 10.76C339.581 11.4933 339.748 12.3 339.748 13.18C339.748 13.6467 339.728 14.1 339.688 14.54H332.408C332.528 15.5133 332.868 16.2733 333.428 16.82C333.988 17.3667 334.728 17.64 335.648 17.64C336.248 17.64 336.788 17.58 337.268 17.46C337.748 17.3267 338.208 17.16 338.648 16.96L339.068 18.5C338.588 18.7133 338.048 18.8867 337.448 19.02C336.848 19.1667 336.175 19.24 335.428 19.24ZM332.388 13.08H338.088C338.088 12.0667 337.835 11.2867 337.328 10.74C336.821 10.1933 336.121 9.92 335.228 9.92C334.455 9.92 333.815 10.1933 333.308 10.74C332.801 11.2733 332.495 12.0533 332.388 13.08ZM345.787 19.24C344.787 19.24 343.994 18.9133 343.407 18.26C342.834 17.5933 342.547 16.6467 342.547 15.42V10.54H340.747V8.98H342.587L342.967 5.7H344.347V8.98H347.227V10.54H344.347V15.56C344.347 16.3333 344.507 16.8733 344.827 17.18C345.16 17.4867 345.554 17.64 346.007 17.64C346.34 17.64 346.654 17.5867 346.947 17.48C347.254 17.3733 347.534 17.2467 347.787 17.1L348.287 18.54C348.02 18.7 347.66 18.8533 347.207 19C346.754 19.16 346.28 19.24 345.787 19.24ZM356.252 19C356.212 18.76 356.192 18.5133 356.192 18.26C356.192 17.3933 356.339 16.62 356.632 15.94C356.939 15.2467 357.332 14.62 357.812 14.06C358.292 13.4867 358.799 12.96 359.332 12.48C359.879 11.9867 360.386 11.52 360.852 11.08C361.332 10.6267 361.726 10.1733 362.032 9.72C362.339 9.26667 362.492 8.79333 362.492 8.3C362.492 7.74 362.286 7.28 361.872 6.92C361.459 6.54667 360.926 6.36 360.272 6.36C359.712 6.36 359.199 6.47333 358.732 6.7C358.279 6.91333 357.852 7.20667 357.452 7.58L356.452 6.36C356.986 5.88 357.572 5.49333 358.212 5.2C358.866 4.90667 359.619 4.76 360.472 4.76C361.259 4.76 361.946 4.91333 362.532 5.22C363.119 5.51333 363.572 5.92 363.892 6.44C364.226 6.96 364.392 7.54 364.392 8.18C364.392 8.82 364.252 9.41333 363.972 9.96C363.692 10.5067 363.332 11.02 362.892 11.5C362.452 11.98 361.979 12.4467 361.472 12.9C360.966 13.34 360.479 13.7933 360.012 14.26C359.546 14.7267 359.146 15.2133 358.812 15.72C358.492 16.2267 358.292 16.7733 358.212 17.36H364.372V19H356.252ZM372.464 19.24C370.904 19.24 369.718 18.6067 368.904 17.34C368.091 16.06 367.684 14.2733 367.684 11.98C367.684 9.67333 368.098 7.89333 368.924 6.64C369.764 5.38667 370.958 4.76 372.504 4.76C374.064 4.76 375.251 5.39333 376.064 6.66C376.878 7.92667 377.284 9.71333 377.284 12.02C377.284 14.3267 376.864 16.1067 376.024 17.36C375.198 18.6133 374.011 19.24 372.464 19.24ZM372.484 17.6C373.084 17.6 373.598 17.4267 374.024 17.08C374.464 16.72 374.798 16.1333 375.024 15.32C375.264 14.5067 375.384 13.4133 375.384 12.04C375.384 10.2 375.124 8.8 374.604 7.84C374.098 6.88 373.391 6.4 372.484 6.4C371.884 6.4 371.364 6.58 370.924 6.94C370.498 7.28667 370.164 7.86667 369.924 8.68C369.698 9.48 369.584 10.5733 369.584 11.96C369.584 13.8 369.838 15.2 370.344 16.16C370.864 17.12 371.578 17.6 372.484 17.6ZM381.357 19V17.4H384.217V7.3L381.537 9.32L380.557 7.98L384.697 5H386.017V17.4H388.397V19H381.357ZM396.569 19.24C395.555 19.24 394.675 19.0667 393.929 18.72C393.182 18.3733 392.602 17.9067 392.189 17.32C391.789 16.72 391.589 16.06 391.589 15.34C391.589 14.4733 391.822 13.72 392.289 13.08C392.769 12.44 393.515 11.9 394.529 11.46C393.822 11.0733 393.275 10.6267 392.889 10.12C392.515 9.6 392.329 8.96 392.329 8.2C392.329 7.52 392.509 6.92667 392.869 6.42C393.229 5.9 393.715 5.49333 394.329 5.2C394.955 4.90667 395.649 4.76 396.409 4.76C397.235 4.76 397.962 4.91333 398.589 5.22C399.215 5.51333 399.702 5.92 400.049 6.44C400.409 6.96 400.589 7.54 400.589 8.18C400.589 8.99333 400.382 9.65333 399.969 10.16C399.555 10.6667 399.002 11.0933 398.309 11.44C399.295 11.8533 400.049 12.3733 400.569 13C401.089 13.6133 401.349 14.3533 401.349 15.22C401.349 16.02 401.142 16.7267 400.729 17.34C400.315 17.94 399.749 18.4067 399.029 18.74C398.309 19.0733 397.489 19.24 396.569 19.24ZM396.669 10.78C397.255 10.58 397.762 10.2733 398.189 9.86C398.629 9.44667 398.849 8.94667 398.849 8.36C398.849 7.74667 398.615 7.24 398.149 6.84C397.682 6.44 397.102 6.24 396.409 6.24C395.729 6.24 395.169 6.42 394.729 6.78C394.289 7.12667 394.069 7.58667 394.069 8.16C394.069 8.73333 394.302 9.25333 394.769 9.72C395.249 10.1867 395.882 10.54 396.669 10.78ZM396.589 17.64C397.442 17.64 398.142 17.42 398.689 16.98C399.235 16.5267 399.509 15.9533 399.509 15.26C399.509 14.62 399.222 14.0467 398.649 13.54C398.089 13.0333 397.309 12.6 396.309 12.24C395.802 12.36 395.329 12.5467 394.889 12.8C394.449 13.0533 394.095 13.3667 393.829 13.74C393.562 14.1133 393.429 14.54 393.429 15.02C393.429 15.5133 393.562 15.96 393.829 16.36C394.109 16.76 394.489 17.0733 394.969 17.3C395.449 17.5267 395.989 17.64 396.589 17.64ZM404.681 21.46L403.621 20.86C404.128 19.7133 404.554 18.4533 404.901 17.08C405.248 15.7067 405.421 14.2133 405.421 12.6C405.421 10.9733 405.248 9.47333 404.901 8.1C404.554 6.71333 404.128 5.46 403.621 4.34L404.681 3.74C405.508 5.14 406.154 6.55333 406.621 7.98C407.088 9.39333 407.321 10.9333 407.321 12.6C407.321 14.1467 407.088 15.6467 406.621 17.1C406.154 18.54 405.508 19.9933 404.681 21.46Z" fill="white"/>
<path opacity="0.4" d="M463.8 19V5H465.7V17.3H472.12V19H463.8ZM477.795 19.24C476.928 19.24 476.142 19.02 475.435 18.58C474.728 18.14 474.162 17.52 473.735 16.72C473.322 15.9067 473.115 14.9533 473.115 13.86C473.115 12.82 473.322 11.8867 473.735 11.06C474.162 10.2333 474.742 9.58 475.475 9.1C476.222 8.60667 477.075 8.36 478.035 8.36C478.635 8.36 479.175 8.46667 479.655 8.68C480.148 8.88 480.575 9.13333 480.935 9.44V8.6H482.575V16.48C482.575 16.9867 482.695 17.32 482.935 17.48C483.188 17.6267 483.462 17.7 483.755 17.7L483.375 19.1C482.095 19.1 481.322 18.58 481.055 17.54C480.748 17.9667 480.328 18.36 479.795 18.72C479.275 19.0667 478.608 19.24 477.795 19.24ZM478.195 17.64C478.702 17.64 479.182 17.52 479.635 17.28C480.088 17.0267 480.468 16.7133 480.775 16.34V10.76C480.415 10.5067 480.015 10.3067 479.575 10.16C479.148 10 478.695 9.92 478.215 9.92C477.575 9.92 477.008 10.0867 476.515 10.42C476.035 10.74 475.655 11.1933 475.375 11.78C475.095 12.3533 474.955 13.0267 474.955 13.8C474.955 14.5467 475.095 15.2133 475.375 15.8C475.655 16.3733 476.042 16.8267 476.535 17.16C477.028 17.48 477.582 17.64 478.195 17.64ZM492.155 19V8.6H493.895V10.34C494.268 9.78 494.741 9.31333 495.315 8.94C495.901 8.55333 496.595 8.36 497.395 8.36C498.568 8.36 499.441 8.71333 500.015 9.42C500.601 10.1267 500.895 11.06 500.895 12.22V19H499.095V12.42C499.095 11.6733 498.915 11.0733 498.555 10.62C498.208 10.1667 497.721 9.94 497.095 9.94C496.481 9.94 495.901 10.16 495.355 10.6C494.808 11.0267 494.341 11.5333 493.955 12.12V19H492.155ZM508.371 19.24C507.384 19.24 506.497 19.0133 505.711 18.56C504.924 18.0933 504.304 17.4533 503.851 16.64C503.411 15.8133 503.191 14.8667 503.191 13.8C503.191 12.68 503.417 11.7133 503.871 10.9C504.324 10.0867 504.944 9.46 505.731 9.02C506.517 8.58 507.397 8.36 508.371 8.36C509.344 8.36 510.217 8.58 510.991 9.02C511.777 9.46 512.397 10.0867 512.851 10.9C513.317 11.7 513.551 12.6533 513.551 13.76C513.551 14.8667 513.324 15.8333 512.871 16.66C512.417 17.4733 511.797 18.1067 511.011 18.56C510.237 19.0133 509.357 19.24 508.371 19.24ZM508.371 17.64C509.424 17.64 510.244 17.2867 510.831 16.58C511.417 15.86 511.711 14.9333 511.711 13.8C511.711 13.1067 511.564 12.4733 511.271 11.9C510.977 11.3133 510.577 10.8467 510.071 10.5C509.577 10.14 509.011 9.96 508.371 9.96C507.317 9.96 506.497 10.3067 505.911 11C505.324 11.6933 505.031 12.6133 505.031 13.76C505.031 14.4533 505.177 15.1 505.471 15.7C505.764 16.2867 506.157 16.76 506.651 17.12C507.157 17.4667 507.731 17.64 508.371 17.64ZM519.344 19.24C518.744 19.24 518.177 19.1133 517.644 18.86C517.11 18.6067 516.677 18.2 516.344 17.64C516.01 17.0667 515.844 16.3067 515.844 15.36V8.6H517.644V15.12C517.644 15.9333 517.817 16.56 518.164 17C518.51 17.4267 519.017 17.64 519.684 17.64C520.23 17.64 520.757 17.5333 521.264 17.32C521.784 17.0933 522.244 16.7933 522.644 16.42V8.6H524.444V16.3C524.444 16.8733 524.564 17.2533 524.804 17.44C525.057 17.6133 525.33 17.7 525.624 17.7L525.244 19.1C524.004 19.1 523.237 18.6067 522.944 17.62C522.477 18.1 521.937 18.4933 521.324 18.8C520.71 19.0933 520.05 19.24 519.344 19.24ZM530.403 19L526.223 9.08L527.863 8.4L531.403 16.96L534.943 8.4L536.483 9.08L532.283 19H530.403ZM542.057 19.24C540.564 19.24 539.377 18.7667 538.497 17.82C537.63 16.86 537.197 15.52 537.197 13.8C537.197 12.76 537.39 11.8333 537.777 11.02C538.177 10.1933 538.73 9.54667 539.437 9.08C540.144 8.6 540.964 8.36 541.897 8.36C542.897 8.36 543.724 8.58 544.377 9.02C545.044 9.44667 545.544 10.0267 545.877 10.76C546.21 11.4933 546.377 12.3 546.377 13.18C546.377 13.6467 546.357 14.1 546.317 14.54H539.037C539.157 15.5133 539.497 16.2733 540.057 16.82C540.617 17.3667 541.357 17.64 542.277 17.64C542.877 17.64 543.417 17.58 543.897 17.46C544.377 17.3267 544.837 17.16 545.277 16.96L545.697 18.5C545.217 18.7133 544.677 18.8867 544.077 19.02C543.477 19.1667 542.804 19.24 542.057 19.24ZM539.017 13.08H544.717C544.717 12.0667 544.464 11.2867 543.957 10.74C543.45 10.1933 542.75 9.92 541.857 9.92C541.084 9.92 540.444 10.1933 539.937 10.74C539.43 11.2733 539.124 12.0533 539.017 13.08ZM551.936 19.24C551.322 19.24 550.769 19.1267 550.276 18.9C549.782 18.66 549.389 18.28 549.096 17.76C548.816 17.24 548.676 16.5667 548.676 15.74V4.2H550.476V15.56C550.476 16.28 550.622 16.8133 550.916 17.16C551.222 17.5067 551.642 17.68 552.176 17.68C552.429 17.68 552.676 17.6533 552.916 17.6C553.169 17.5333 553.382 17.46 553.556 17.38L553.996 18.84C553.756 18.9467 553.456 19.04 553.096 19.12C552.749 19.2 552.362 19.24 551.936 19.24ZM558.655 19.24C558.041 19.24 557.488 19.1267 556.995 18.9C556.501 18.66 556.108 18.28 555.815 17.76C555.535 17.24 555.395 16.5667 555.395 15.74V4.2H557.195V15.56C557.195 16.28 557.341 16.8133 557.635 17.16C557.941 17.5067 558.361 17.68 558.895 17.68C559.148 17.68 559.395 17.6533 559.635 17.6C559.888 17.5333 560.101 17.46 560.275 17.38L560.715 18.84C560.475 18.9467 560.175 19.04 559.815 19.12C559.468 19.2 559.081 19.24 558.655 19.24ZM566.276 19.24C564.782 19.24 563.596 18.7667 562.716 17.82C561.849 16.86 561.416 15.52 561.416 13.8C561.416 12.76 561.609 11.8333 561.996 11.02C562.396 10.1933 562.949 9.54667 563.656 9.08C564.362 8.6 565.182 8.36 566.116 8.36C567.116 8.36 567.942 8.58 568.596 9.02C569.262 9.44667 569.762 10.0267 570.096 10.76C570.429 11.4933 570.596 12.3 570.596 13.18C570.596 13.6467 570.576 14.1 570.536 14.54H563.256C563.376 15.5133 563.716 16.2733 564.276 16.82C564.836 17.3667 565.576 17.64 566.496 17.64C567.096 17.64 567.636 17.58 568.116 17.46C568.596 17.3267 569.056 17.16 569.496 16.96L569.916 18.5C569.436 18.7133 568.896 18.8867 568.296 19.02C567.696 19.1667 567.022 19.24 566.276 19.24ZM563.236 13.08H568.936C568.936 12.0667 568.682 11.2867 568.176 10.74C567.669 10.1933 566.969 9.92 566.076 9.92C565.302 9.92 564.662 10.1933 564.156 10.74C563.649 11.2733 563.342 12.0533 563.236 13.08ZM581.771 19L577.591 9.08L579.231 8.4L582.771 16.96L586.311 8.4L587.851 9.08L583.651 19H581.771ZM593.244 19.24C592.377 19.24 591.591 19.02 590.884 18.58C590.177 18.14 589.611 17.52 589.184 16.72C588.771 15.9067 588.564 14.9533 588.564 13.86C588.564 12.82 588.771 11.8867 589.184 11.06C589.611 10.2333 590.191 9.58 590.924 9.1C591.671 8.60667 592.524 8.36 593.484 8.36C594.084 8.36 594.624 8.46667 595.104 8.68C595.597 8.88 596.024 9.13333 596.384 9.44V8.6H598.024V16.48C598.024 16.9867 598.144 17.32 598.384 17.48C598.637 17.6267 598.911 17.7 599.204 17.7L598.824 19.1C597.544 19.1 596.771 18.58 596.504 17.54C596.197 17.9667 595.777 18.36 595.244 18.72C594.724 19.0667 594.057 19.24 593.244 19.24ZM593.644 17.64C594.151 17.64 594.631 17.52 595.084 17.28C595.537 17.0267 595.917 16.7133 596.224 16.34V10.76C595.864 10.5067 595.464 10.3067 595.024 10.16C594.597 10 594.144 9.92 593.664 9.92C593.024 9.92 592.457 10.0867 591.964 10.42C591.484 10.74 591.104 11.1933 590.824 11.78C590.544 12.3533 590.404 13.0267 590.404 13.8C590.404 14.5467 590.544 15.2133 590.824 15.8C591.104 16.3733 591.491 16.8267 591.984 17.16C592.477 17.48 593.031 17.64 593.644 17.64ZM605.233 23.64C604.619 23.64 604.019 23.5667 603.433 23.42C602.859 23.2733 602.346 23.0533 601.893 22.76L602.553 21.2C602.873 21.4533 603.246 21.66 603.673 21.82C604.099 21.9933 604.619 22.08 605.233 22.08C606.179 22.08 606.919 21.8267 607.453 21.32C607.999 20.8267 608.273 20.0333 608.273 18.94V17.66C608.006 17.98 607.619 18.2867 607.113 18.58C606.619 18.86 606.026 19 605.333 19C604.546 19 603.799 18.8 603.093 18.4C602.386 17.9867 601.813 17.3867 601.373 16.6C600.933 15.8133 600.713 14.8667 600.713 13.76C600.713 12.72 600.926 11.7933 601.353 10.98C601.793 10.1667 602.379 9.52667 603.113 9.06C603.846 8.59333 604.653 8.36 605.533 8.36C606.119 8.36 606.653 8.46 607.133 8.66C607.613 8.86 608.026 9.10667 608.373 9.4V8.6H610.013V18.76C610.013 19.9067 609.813 20.84 609.413 21.56C609.013 22.28 608.453 22.8067 607.733 23.14C607.026 23.4733 606.193 23.64 605.233 23.64ZM605.733 17.4C606.266 17.4 606.746 17.28 607.173 17.04C607.599 16.8 607.946 16.52 608.213 16.2V10.76C607.919 10.5467 607.566 10.3533 607.153 10.18C606.739 10.0067 606.259 9.92 605.713 9.92C605.166 9.92 604.653 10.0667 604.173 10.36C603.693 10.6533 603.299 11.08 602.993 11.64C602.699 12.1867 602.553 12.86 602.553 13.66C602.553 14.42 602.699 15.08 602.993 15.64C603.299 16.2 603.693 16.6333 604.173 16.94C604.653 17.2467 605.173 17.4 605.733 17.4ZM616.512 19.24C615.912 19.24 615.345 19.1133 614.812 18.86C614.278 18.6067 613.845 18.2 613.512 17.64C613.178 17.0667 613.012 16.3067 613.012 15.36V8.6H614.812V15.12C614.812 15.9333 614.985 16.56 615.332 17C615.678 17.4267 616.185 17.64 616.852 17.64C617.398 17.64 617.925 17.5333 618.432 17.32C618.952 17.0933 619.412 16.7933 619.812 16.42V8.6H621.612V16.3C621.612 16.8733 621.732 17.2533 621.972 17.44C622.225 17.6133 622.498 17.7 622.792 17.7L622.412 19.1C621.172 19.1 620.405 18.6067 620.112 17.62C619.645 18.1 619.105 18.4933 618.492 18.8C617.878 19.0933 617.218 19.24 616.512 19.24ZM629.147 19.24C627.653 19.24 626.467 18.7667 625.587 17.82C624.72 16.86 624.287 15.52 624.287 13.8C624.287 12.76 624.48 11.8333 624.867 11.02C625.267 10.1933 625.82 9.54667 626.527 9.08C627.233 8.6 628.053 8.36 628.987 8.36C629.987 8.36 630.813 8.58 631.467 9.02C632.133 9.44667 632.633 10.0267 632.967 10.76C633.3 11.4933 633.467 12.3 633.467 13.18C633.467 13.6467 633.447 14.1 633.407 14.54H626.127C626.247 15.5133 626.587 16.2733 627.147 16.82C627.707 17.3667 628.447 17.64 629.367 17.64C629.967 17.64 630.507 17.58 630.987 17.46C631.467 17.3267 631.927 17.16 632.367 16.96L632.787 18.5C632.307 18.7133 631.767 18.8867 631.167 19.02C630.567 19.1667 629.893 19.24 629.147 19.24ZM626.107 13.08H631.807C631.807 12.0667 631.553 11.2867 631.047 10.74C630.54 10.1933 629.84 9.92 628.947 9.92C628.173 9.92 627.533 10.1933 627.027 10.74C626.52 11.2733 626.213 12.0533 626.107 13.08ZM642.062 19V10.54H640.462V8.98H642.062V7.76C642.062 6.58667 642.388 5.66 643.042 4.98C643.695 4.3 644.548 3.96 645.602 3.96C646.148 3.96 646.628 4.02667 647.042 4.16C647.455 4.28 647.848 4.43333 648.222 4.62L647.682 6.14C647.402 5.99333 647.102 5.86 646.782 5.74C646.462 5.62 646.108 5.56 645.722 5.56C645.162 5.56 644.708 5.74 644.362 6.1C644.028 6.44667 643.862 6.96 643.862 7.64V8.98H646.942V10.54H643.862V19H642.062ZM648.815 19V8.6H650.555V10.86C650.728 10.42 650.962 10.0133 651.255 9.64C651.548 9.25333 651.915 8.94667 652.355 8.72C652.795 8.48 653.308 8.36 653.895 8.36C654.095 8.36 654.295 8.37333 654.495 8.4C654.695 8.41333 654.862 8.44 654.995 8.48L654.455 10.34C654.202 10.2333 653.902 10.18 653.555 10.18C653.062 10.18 652.588 10.32 652.135 10.6C651.695 10.88 651.328 11.3133 651.035 11.9C650.755 12.4867 650.615 13.2333 650.615 14.14V19H648.815ZM660.178 19.24C659.311 19.24 658.524 19.02 657.818 18.58C657.111 18.14 656.544 17.52 656.118 16.72C655.704 15.9067 655.498 14.9533 655.498 13.86C655.498 12.82 655.704 11.8867 656.118 11.06C656.544 10.2333 657.124 9.58 657.858 9.1C658.604 8.60667 659.458 8.36 660.418 8.36C661.018 8.36 661.558 8.46667 662.038 8.68C662.531 8.88 662.958 9.13333 663.318 9.44V8.6H664.958V16.48C664.958 16.9867 665.078 17.32 665.318 17.48C665.571 17.6267 665.844 17.7 666.138 17.7L665.758 19.1C664.478 19.1 663.704 18.58 663.438 17.54C663.131 17.9667 662.711 18.36 662.178 18.72C661.658 19.0667 660.991 19.24 660.178 19.24ZM660.578 17.64C661.084 17.64 661.564 17.52 662.018 17.28C662.471 17.0267 662.851 16.7133 663.158 16.34V10.76C662.798 10.5067 662.398 10.3067 661.958 10.16C661.531 10 661.078 9.92 660.598 9.92C659.958 9.92 659.391 10.0867 658.898 10.42C658.418 10.74 658.038 11.1933 657.758 11.78C657.478 12.3533 657.338 13.0267 657.338 13.8C657.338 14.5467 657.478 15.2133 657.758 15.8C658.038 16.3733 658.424 16.8267 658.918 17.16C659.411 17.48 659.964 17.64 660.578 17.64ZM668.541 19V8.6H670.281V10.34C670.655 9.78 671.128 9.31333 671.701 8.94C672.288 8.55333 672.981 8.36 673.781 8.36C674.955 8.36 675.828 8.71333 676.401 9.42C676.988 10.1267 677.281 11.06 677.281 12.22V19H675.481V12.42C675.481 11.6733 675.301 11.0733 674.941 10.62C674.595 10.1667 674.108 9.94 673.481 9.94C672.868 9.94 672.288 10.16 671.741 10.6C671.195 11.0267 670.728 11.5333 670.341 12.12V19H668.541ZM684.577 19.24C683.591 19.24 682.724 19.0133 681.977 18.56C681.244 18.0933 680.677 17.4533 680.277 16.64C679.877 15.8133 679.677 14.8667 679.677 13.8C679.677 12.8 679.877 11.8867 680.277 11.06C680.691 10.2333 681.277 9.58 682.037 9.1C682.797 8.60667 683.691 8.36 684.717 8.36C685.304 8.36 685.817 8.41333 686.257 8.52C686.711 8.62667 687.144 8.78 687.557 8.98L687.017 10.5C686.644 10.3133 686.284 10.18 685.937 10.1C685.604 10.0067 685.231 9.96 684.817 9.96C683.884 9.96 683.097 10.3 682.457 10.98C681.831 11.6467 681.517 12.5733 681.517 13.76C681.517 14.48 681.651 15.1333 681.917 15.72C682.184 16.3067 682.551 16.7733 683.017 17.12C683.497 17.4667 684.057 17.64 684.697 17.64C685.204 17.64 685.637 17.5867 685.997 17.48C686.357 17.36 686.744 17.1933 687.157 16.98L687.717 18.5C687.304 18.7267 686.837 18.9067 686.317 19.04C685.811 19.1733 685.231 19.24 684.577 19.24ZM683.997 23.88C683.637 23.88 683.291 23.8467 682.957 23.78C682.624 23.7133 682.304 23.6133 681.997 23.48L682.477 22.22C682.917 22.4467 683.397 22.56 683.917 22.56C684.264 22.56 684.551 22.5 684.777 22.38C685.004 22.26 685.117 22.0733 685.117 21.82C685.117 21.58 684.957 21.3667 684.637 21.18C684.331 20.9933 683.737 20.9 682.857 20.9L683.557 19H684.917L684.497 20.18C685.164 20.18 685.704 20.3267 686.117 20.62C686.531 20.9267 686.737 21.3733 686.737 21.96C686.737 22.4533 686.511 22.8933 686.057 23.28C685.604 23.68 684.917 23.88 683.997 23.88ZM693.596 19.24C692.729 19.24 691.942 19.02 691.236 18.58C690.529 18.14 689.962 17.52 689.536 16.72C689.122 15.9067 688.916 14.9533 688.916 13.86C688.916 12.82 689.122 11.8867 689.536 11.06C689.962 10.2333 690.542 9.58 691.276 9.1C692.022 8.60667 692.876 8.36 693.836 8.36C694.436 8.36 694.976 8.46667 695.456 8.68C695.949 8.88 696.376 9.13333 696.736 9.44V8.6H698.376V16.48C698.376 16.9867 698.496 17.32 698.736 17.48C698.989 17.6267 699.262 17.7 699.556 17.7L699.176 19.1C697.896 19.1 697.122 18.58 696.856 17.54C696.549 17.9667 696.129 18.36 695.596 18.72C695.076 19.0667 694.409 19.24 693.596 19.24ZM693.996 17.64C694.502 17.64 694.982 17.52 695.436 17.28C695.889 17.0267 696.269 16.7133 696.576 16.34V10.76C696.216 10.5067 695.816 10.3067 695.376 10.16C694.949 10 694.496 9.92 694.016 9.92C693.376 9.92 692.809 10.0867 692.316 10.42C691.836 10.74 691.456 11.1933 691.176 11.78C690.896 12.3533 690.756 13.0267 690.756 13.8C690.756 14.5467 690.896 15.2133 691.176 15.8C691.456 16.3733 691.842 16.8267 692.336 17.16C692.829 17.48 693.382 17.64 693.996 17.64ZM701.959 19V8.6H703.759V19H701.959ZM702.859 6.82C702.513 6.82 702.213 6.69333 701.959 6.44C701.719 6.18667 701.599 5.89333 701.599 5.56C701.599 5.17333 701.713 4.86667 701.939 4.64C702.166 4.41333 702.473 4.3 702.859 4.3C703.206 4.3 703.499 4.42667 703.739 4.68C703.993 4.92 704.119 5.21333 704.119 5.56C704.119 5.93333 704.006 6.24 703.779 6.48C703.553 6.70667 703.246 6.82 702.859 6.82ZM709.759 19.24C708.973 19.24 708.259 19.14 707.619 18.94C706.993 18.74 706.473 18.48 706.059 18.16L706.819 16.66C707.166 16.9533 707.599 17.2 708.119 17.4C708.653 17.5867 709.219 17.68 709.819 17.68C710.566 17.68 711.126 17.56 711.499 17.32C711.886 17.0667 712.079 16.7467 712.079 16.36C712.079 16.08 712.006 15.8333 711.859 15.62C711.726 15.4067 711.473 15.2 711.099 15C710.726 14.7867 710.186 14.56 709.479 14.32C708.506 13.9867 707.773 13.5933 707.279 13.14C706.799 12.6733 706.559 12.0333 706.559 11.22C706.559 10.42 706.906 9.74667 707.599 9.2C708.306 8.64 709.279 8.36 710.519 8.36C711.186 8.36 711.779 8.43333 712.299 8.58C712.819 8.71333 713.286 8.88667 713.699 9.1L713.199 10.58C712.839 10.3667 712.426 10.1933 711.959 10.06C711.506 9.92667 710.999 9.86 710.439 9.86C709.746 9.86 709.219 10 708.859 10.28C708.499 10.56 708.319 10.8667 708.319 11.2C708.319 11.52 708.459 11.7933 708.739 12.02C709.019 12.2467 709.566 12.4933 710.379 12.76C711.699 13.2 712.619 13.6867 713.139 14.22C713.659 14.7533 713.919 15.42 713.919 16.22C713.919 17.1533 713.539 17.8933 712.779 18.44C712.033 18.9733 711.026 19.24 709.759 19.24ZM720.475 19.24C718.982 19.24 717.795 18.7667 716.915 17.82C716.048 16.86 715.615 15.52 715.615 13.8C715.615 12.76 715.808 11.8333 716.195 11.02C716.595 10.1933 717.148 9.54667 717.855 9.08C718.562 8.6 719.382 8.36 720.315 8.36C721.315 8.36 722.142 8.58 722.795 9.02C723.462 9.44667 723.962 10.0267 724.295 10.76C724.628 11.4933 724.795 12.3 724.795 13.18C724.795 13.6467 724.775 14.1 724.735 14.54H717.455C717.575 15.5133 717.915 16.2733 718.475 16.82C719.035 17.3667 719.775 17.64 720.695 17.64C721.295 17.64 721.835 17.58 722.315 17.46C722.795 17.3267 723.255 17.16 723.695 16.96L724.115 18.5C723.635 18.7133 723.095 18.8867 722.495 19.02C721.895 19.1667 721.222 19.24 720.475 19.24ZM717.435 13.08H723.135C723.135 12.0667 722.882 11.2867 722.375 10.74C721.868 10.1933 721.168 9.92 720.275 9.92C719.502 9.92 718.862 10.1933 718.355 10.74C717.848 11.2733 717.542 12.0533 717.435 13.08ZM735.37 21.46C734.543 19.9933 733.897 18.54 733.43 17.1C732.963 15.6467 732.73 14.1467 732.73 12.6C732.73 10.9333 732.963 9.39333 733.43 7.98C733.91 6.55333 734.557 5.14 735.37 3.74L736.43 4.34C735.937 5.46 735.51 6.71333 735.15 8.1C734.803 9.47333 734.63 10.9733 734.63 12.6C734.63 14.2133 734.803 15.7067 735.15 17.08C735.51 18.4533 735.937 19.7133 736.43 20.86L735.37 21.46ZM737.926 23.64C737.113 23.64 736.433 23.4867 735.886 23.18L736.326 21.68C736.499 21.7867 736.713 21.88 736.966 21.96C737.206 22.04 737.453 22.08 737.706 22.08C738.839 22.08 739.406 21.3733 739.406 19.96V8.6H741.206V20.14C741.206 20.9533 741.059 21.6133 740.766 22.12C740.473 22.64 740.079 23.02 739.586 23.26C739.093 23.5133 738.539 23.64 737.926 23.64ZM740.266 6.82C739.919 6.82 739.619 6.69333 739.366 6.44C739.126 6.18667 739.006 5.89333 739.006 5.56C739.006 5.17333 739.119 4.86667 739.346 4.64C739.573 4.41333 739.879 4.3 740.266 4.3C740.613 4.3 740.906 4.42667 741.146 4.68C741.399 4.92 741.526 5.21333 741.526 5.56C741.526 5.93333 741.413 6.24 741.186 6.48C740.959 6.70667 740.653 6.82 740.266 6.82ZM747.801 19.24C747.201 19.24 746.634 19.1133 746.101 18.86C745.567 18.6067 745.134 18.2 744.801 17.64C744.467 17.0667 744.301 16.3067 744.301 15.36V8.6H746.101V15.12C746.101 15.9333 746.274 16.56 746.621 17C746.967 17.4267 747.474 17.64 748.141 17.64C748.687 17.64 749.214 17.5333 749.721 17.32C750.241 17.0933 750.701 16.7933 751.101 16.42V8.6H752.901V16.3C752.901 16.8733 753.021 17.2533 753.261 17.44C753.514 17.6133 753.787 17.7 754.081 17.7L753.701 19.1C752.461 19.1 751.694 18.6067 751.401 17.62C750.934 18.1 750.394 18.4933 749.781 18.8C749.167 19.0933 748.507 19.24 747.801 19.24ZM756.471 19V8.6H758.271V19H756.471ZM757.371 6.82C757.024 6.82 756.724 6.69333 756.471 6.44C756.231 6.18667 756.111 5.89333 756.111 5.56C756.111 5.17333 756.224 4.86667 756.451 4.64C756.678 4.41333 756.984 4.3 757.371 4.3C757.718 4.3 758.011 4.42667 758.251 4.68C758.504 4.92 758.631 5.21333 758.631 5.56C758.631 5.93333 758.518 6.24 758.291 6.48C758.064 6.70667 757.758 6.82 757.371 6.82ZM761.471 19V8.6H763.211V10.34C763.584 9.78 764.058 9.31333 764.631 8.94C765.218 8.55333 765.911 8.36 766.711 8.36C767.884 8.36 768.758 8.71333 769.331 9.42C769.918 10.1267 770.211 11.06 770.211 12.22V19H768.411V12.42C768.411 11.6733 768.231 11.0733 767.871 10.62C767.524 10.1667 767.038 9.94 766.411 9.94C765.798 9.94 765.218 10.16 764.671 10.6C764.124 11.0267 763.658 11.5333 763.271 12.12V19H761.471ZM779.463 19C779.423 18.76 779.403 18.5133 779.403 18.26C779.403 17.3933 779.55 16.62 779.843 15.94C780.15 15.2467 780.543 14.62 781.023 14.06C781.503 13.4867 782.01 12.96 782.543 12.48C783.09 11.9867 783.596 11.52 784.063 11.08C784.543 10.6267 784.936 10.1733 785.243 9.72C785.55 9.26667 785.703 8.79333 785.703 8.3C785.703 7.74 785.496 7.28 785.083 6.92C784.67 6.54667 784.136 6.36 783.483 6.36C782.923 6.36 782.41 6.47333 781.943 6.7C781.49 6.91333 781.063 7.20667 780.663 7.58L779.663 6.36C780.196 5.88 780.783 5.49333 781.423 5.2C782.076 4.90667 782.83 4.76 783.683 4.76C784.47 4.76 785.156 4.91333 785.743 5.22C786.33 5.51333 786.783 5.92 787.103 6.44C787.436 6.96 787.603 7.54 787.603 8.18C787.603 8.82 787.463 9.41333 787.183 9.96C786.903 10.5067 786.543 11.02 786.103 11.5C785.663 11.98 785.19 12.4467 784.683 12.9C784.176 13.34 783.69 13.7933 783.223 14.26C782.756 14.7267 782.356 15.2133 782.023 15.72C781.703 16.2267 781.503 16.7733 781.423 17.36H787.583V19H779.463ZM795.675 19.24C794.115 19.24 792.929 18.6067 792.115 17.34C791.302 16.06 790.895 14.2733 790.895 11.98C790.895 9.67333 791.309 7.89333 792.135 6.64C792.975 5.38667 794.169 4.76 795.715 4.76C797.275 4.76 798.462 5.39333 799.275 6.66C800.089 7.92667 800.495 9.71333 800.495 12.02C800.495 14.3267 800.075 16.1067 799.235 17.36C798.409 18.6133 797.222 19.24 795.675 19.24ZM795.695 17.6C796.295 17.6 796.809 17.4267 797.235 17.08C797.675 16.72 798.009 16.1333 798.235 15.32C798.475 14.5067 798.595 13.4133 798.595 12.04C798.595 10.2 798.335 8.8 797.815 7.84C797.309 6.88 796.602 6.4 795.695 6.4C795.095 6.4 794.575 6.58 794.135 6.94C793.709 7.28667 793.375 7.86667 793.135 8.68C792.909 9.48 792.795 10.5733 792.795 11.96C792.795 13.8 793.049 15.2 793.555 16.16C794.075 17.12 794.789 17.6 795.695 17.6ZM804.568 19V17.4H807.428V7.3L804.748 9.32L803.768 7.98L807.908 5H809.228V17.4H811.608V19H804.568ZM819.78 19.24C818.766 19.24 817.886 19.0667 817.14 18.72C816.393 18.3733 815.813 17.9067 815.4 17.32C815 16.72 814.8 16.06 814.8 15.34C814.8 14.4733 815.033 13.72 815.5 13.08C815.98 12.44 816.726 11.9 817.74 11.46C817.033 11.0733 816.486 10.6267 816.1 10.12C815.726 9.6 815.54 8.96 815.54 8.2C815.54 7.52 815.72 6.92667 816.08 6.42C816.44 5.9 816.926 5.49333 817.54 5.2C818.166 4.90667 818.86 4.76 819.62 4.76C820.446 4.76 821.173 4.91333 821.8 5.22C822.426 5.51333 822.913 5.92 823.26 6.44C823.62 6.96 823.8 7.54 823.8 8.18C823.8 8.99333 823.593 9.65333 823.18 10.16C822.766 10.6667 822.213 11.0933 821.52 11.44C822.506 11.8533 823.26 12.3733 823.78 13C824.3 13.6133 824.56 14.3533 824.56 15.22C824.56 16.02 824.353 16.7267 823.94 17.34C823.526 17.94 822.96 18.4067 822.24 18.74C821.52 19.0733 820.7 19.24 819.78 19.24ZM819.88 10.78C820.466 10.58 820.973 10.2733 821.4 9.86C821.84 9.44667 822.06 8.94667 822.06 8.36C822.06 7.74667 821.826 7.24 821.36 6.84C820.893 6.44 820.313 6.24 819.62 6.24C818.94 6.24 818.38 6.42 817.94 6.78C817.5 7.12667 817.28 7.58667 817.28 8.16C817.28 8.73333 817.513 9.25333 817.98 9.72C818.46 10.1867 819.093 10.54 819.88 10.78ZM819.8 17.64C820.653 17.64 821.353 17.42 821.9 16.98C822.446 16.5267 822.72 15.9533 822.72 15.26C822.72 14.62 822.433 14.0467 821.86 13.54C821.3 13.0333 820.52 12.6 819.52 12.24C819.013 12.36 818.54 12.5467 818.1 12.8C817.66 13.0533 817.306 13.3667 817.04 13.74C816.773 14.1133 816.64 14.54 816.64 15.02C816.64 15.5133 816.773 15.96 817.04 16.36C817.32 16.76 817.7 17.0733 818.18 17.3C818.66 17.5267 819.2 17.64 819.8 17.64ZM827.892 21.46L826.832 20.86C827.339 19.7133 827.765 18.4533 828.112 17.08C828.459 15.7067 828.632 14.2133 828.632 12.6C828.632 10.9733 828.459 9.47333 828.112 8.1C827.765 6.71333 827.339 5.46 826.832 4.34L827.892 3.74C828.719 5.14 829.365 6.55333 829.832 7.98C830.299 9.39333 830.532 10.9333 830.532 12.6C830.532 14.1467 830.299 15.6467 829.832 17.1C829.365 18.54 828.719 19.9933 827.892 21.46Z" fill="white"/>
<path opacity="0.4" d="M890.48 19.16C889.72 19.16 889.053 19.14 888.48 19.1C887.92 19.06 887.36 19.0133 886.8 18.96V5.04C887.427 4.97333 888.04 4.92667 888.64 4.9C889.24 4.86 889.927 4.84 890.7 4.84C891.9 4.84 892.933 5.02667 893.8 5.4C894.68 5.77333 895.4 6.28667 895.96 6.94C896.533 7.59333 896.953 8.35333 897.22 9.22C897.5 10.0733 897.64 10.9933 897.64 11.98C897.64 12.9533 897.5 13.8733 897.22 14.74C896.94 15.6067 896.507 16.3733 895.92 17.04C895.347 17.6933 894.607 18.2133 893.7 18.6C892.807 18.9733 891.733 19.16 890.48 19.16ZM890.54 17.5C891.74 17.5 892.72 17.2667 893.48 16.8C894.24 16.3333 894.8 15.6867 895.16 14.86C895.52 14.02 895.7 13.06 895.7 11.98C895.7 11.02 895.52 10.12 895.16 9.28C894.8 8.44 894.247 7.76667 893.5 7.26C892.753 6.74 891.8 6.48 890.64 6.48C890.253 6.48 889.9 6.49333 889.58 6.52C889.26 6.53333 888.967 6.55333 888.7 6.58V17.4C888.98 17.44 889.273 17.4667 889.58 17.48C889.887 17.4933 890.207 17.5 890.54 17.5ZM900.233 19V8.6H902.033V19H900.233ZM901.133 6.82C900.786 6.82 900.486 6.69333 900.233 6.44C899.993 6.18667 899.873 5.89333 899.873 5.56C899.873 5.17333 899.986 4.86667 900.213 4.64C900.439 4.41333 900.746 4.3 901.133 4.3C901.479 4.3 901.773 4.42667 902.013 4.68C902.266 4.92 902.393 5.21333 902.393 5.56C902.393 5.93333 902.279 6.24 902.053 6.48C901.826 6.70667 901.519 6.82 901.133 6.82ZM905.233 19V8.6H906.973V10.86C907.146 10.42 907.379 10.0133 907.673 9.64C907.966 9.25333 908.333 8.94667 908.773 8.72C909.213 8.48 909.726 8.36 910.313 8.36C910.513 8.36 910.713 8.37333 910.913 8.4C911.113 8.41333 911.279 8.44 911.413 8.48L910.873 10.34C910.619 10.2333 910.319 10.18 909.973 10.18C909.479 10.18 909.006 10.32 908.553 10.6C908.113 10.88 907.746 11.3133 907.453 11.9C907.173 12.4867 907.033 13.2333 907.033 14.14V19H905.233ZM916.776 19.24C915.282 19.24 914.096 18.7667 913.216 17.82C912.349 16.86 911.916 15.52 911.916 13.8C911.916 12.76 912.109 11.8333 912.496 11.02C912.896 10.1933 913.449 9.54667 914.156 9.08C914.862 8.6 915.682 8.36 916.616 8.36C917.616 8.36 918.442 8.58 919.096 9.02C919.762 9.44667 920.262 10.0267 920.596 10.76C920.929 11.4933 921.096 12.3 921.096 13.18C921.096 13.6467 921.076 14.1 921.036 14.54H913.756C913.876 15.5133 914.216 16.2733 914.776 16.82C915.336 17.3667 916.076 17.64 916.996 17.64C917.596 17.64 918.136 17.58 918.616 17.46C919.096 17.3267 919.556 17.16 919.996 16.96L920.416 18.5C919.936 18.7133 919.396 18.8867 918.796 19.02C918.196 19.1667 917.522 19.24 916.776 19.24ZM913.736 13.08H919.436C919.436 12.0667 919.182 11.2867 918.676 10.74C918.169 10.1933 917.469 9.92 916.576 9.92C915.802 9.92 915.162 10.1933 914.656 10.74C914.149 11.2733 913.842 12.0533 913.736 13.08ZM927.695 19.24C926.708 19.24 925.841 19.0133 925.095 18.56C924.361 18.0933 923.795 17.4533 923.395 16.64C922.995 15.8133 922.795 14.8667 922.795 13.8C922.795 12.8 922.995 11.8867 923.395 11.06C923.808 10.2333 924.395 9.58 925.155 9.1C925.915 8.60667 926.808 8.36 927.835 8.36C928.421 8.36 928.935 8.41333 929.375 8.52C929.828 8.62667 930.261 8.78 930.675 8.98L930.135 10.5C929.761 10.3133 929.401 10.18 929.055 10.1C928.721 10.0067 928.348 9.96 927.935 9.96C927.001 9.96 926.215 10.3 925.575 10.98C924.948 11.6467 924.635 12.5733 924.635 13.76C924.635 14.48 924.768 15.1333 925.035 15.72C925.301 16.3067 925.668 16.7733 926.135 17.12C926.615 17.4667 927.175 17.64 927.815 17.64C928.321 17.64 928.755 17.5867 929.115 17.48C929.475 17.36 929.861 17.1933 930.275 16.98L930.835 18.5C930.421 18.7267 929.955 18.9067 929.435 19.04C928.928 19.1733 928.348 19.24 927.695 19.24ZM936.568 19.24C935.568 19.24 934.775 18.9133 934.188 18.26C933.615 17.5933 933.328 16.6467 933.328 15.42V10.54H931.528V8.98H933.368L933.748 5.7H935.128V8.98H938.008V10.54H935.128V15.56C935.128 16.3333 935.288 16.8733 935.608 17.18C935.941 17.4867 936.335 17.64 936.788 17.64C937.121 17.64 937.435 17.5867 937.728 17.48C938.035 17.3733 938.315 17.2467 938.568 17.1L939.068 18.54C938.801 18.7 938.441 18.8533 937.988 19C937.535 19.16 937.061 19.24 936.568 19.24ZM940.877 19V8.6H942.677V19H940.877ZM941.777 6.82C941.431 6.82 941.131 6.69333 940.877 6.44C940.637 6.18667 940.517 5.89333 940.517 5.56C940.517 5.17333 940.631 4.86667 940.857 4.64C941.084 4.41333 941.391 4.3 941.777 4.3C942.124 4.3 942.417 4.42667 942.657 4.68C942.911 4.92 943.037 5.21333 943.037 5.56C943.037 5.93333 942.924 6.24 942.697 6.48C942.471 6.70667 942.164 6.82 941.777 6.82ZM950.257 19.24C949.271 19.24 948.384 19.0133 947.597 18.56C946.811 18.0933 946.191 17.4533 945.737 16.64C945.297 15.8133 945.077 14.8667 945.077 13.8C945.077 12.68 945.304 11.7133 945.757 10.9C946.211 10.0867 946.831 9.46 947.617 9.02C948.404 8.58 949.284 8.36 950.257 8.36C951.231 8.36 952.104 8.58 952.877 9.02C953.664 9.46 954.284 10.0867 954.737 10.9C955.204 11.7 955.437 12.6533 955.437 13.76C955.437 14.8667 955.211 15.8333 954.757 16.66C954.304 17.4733 953.684 18.1067 952.897 18.56C952.124 19.0133 951.244 19.24 950.257 19.24ZM950.257 17.64C951.311 17.64 952.131 17.2867 952.717 16.58C953.304 15.86 953.597 14.9333 953.597 13.8C953.597 13.1067 953.451 12.4733 953.157 11.9C952.864 11.3133 952.464 10.8467 951.957 10.5C951.464 10.14 950.897 9.96 950.257 9.96C949.204 9.96 948.384 10.3067 947.797 11C947.211 11.6933 946.917 12.6133 946.917 13.76C946.917 14.4533 947.064 15.1 947.357 15.7C947.651 16.2867 948.044 16.76 948.537 17.12C949.044 17.4667 949.617 17.64 950.257 17.64ZM957.83 19V8.6H959.57V10.34C959.944 9.78 960.417 9.31333 960.99 8.94C961.577 8.55333 962.27 8.36 963.07 8.36C964.244 8.36 965.117 8.71333 965.69 9.42C966.277 10.1267 966.57 11.06 966.57 12.22V19H964.77V12.42C964.77 11.6733 964.59 11.0733 964.23 10.62C963.884 10.1667 963.397 9.94 962.77 9.94C962.157 9.94 961.577 10.16 961.03 10.6C960.484 11.0267 960.017 11.5333 959.63 12.12V19H957.83ZM981.243 19.24C980.029 19.24 978.956 18.9533 978.023 18.38C977.089 17.7933 976.363 16.9667 975.843 15.9C975.323 14.82 975.063 13.54 975.063 12.06C975.063 10.6333 975.323 9.37333 975.843 8.28C976.376 7.17333 977.123 6.31333 978.083 5.7C979.056 5.07333 980.189 4.76 981.483 4.76C982.149 4.76 982.756 4.82667 983.303 4.96C983.849 5.08 984.363 5.25333 984.843 5.48L984.263 7.08C983.849 6.88 983.423 6.72 982.983 6.6C982.556 6.48 982.049 6.42 981.463 6.42C980.609 6.42 979.843 6.64 979.163 7.08C978.496 7.52 977.969 8.15333 977.583 8.98C977.196 9.80667 977.002 10.8067 977.002 11.98C977.002 13.1 977.189 14.08 977.563 14.92C977.949 15.76 978.476 16.4133 979.143 16.88C979.823 17.3467 980.596 17.58 981.463 17.58C982.116 17.58 982.683 17.5 983.163 17.34C983.643 17.18 984.109 16.9733 984.563 16.72L985.143 18.3C984.649 18.5667 984.083 18.7933 983.443 18.98C982.816 19.1533 982.083 19.24 981.243 19.24ZM990.912 19.24C990.045 19.24 989.259 19.02 988.552 18.58C987.845 18.14 987.279 17.52 986.852 16.72C986.439 15.9067 986.232 14.9533 986.232 13.86C986.232 12.82 986.439 11.8867 986.852 11.06C987.279 10.2333 987.859 9.58 988.592 9.1C989.339 8.60667 990.192 8.36 991.152 8.36C991.752 8.36 992.292 8.46667 992.772 8.68C993.265 8.88 993.692 9.13333 994.052 9.44V8.6H995.692V16.48C995.692 16.9867 995.812 17.32 996.052 17.48C996.305 17.6267 996.579 17.7 996.872 17.7L996.492 19.1C995.212 19.1 994.439 18.58 994.172 17.54C993.865 17.9667 993.445 18.36 992.912 18.72C992.392 19.0667 991.725 19.24 990.912 19.24ZM991.312 17.64C991.819 17.64 992.299 17.52 992.752 17.28C993.205 17.0267 993.585 16.7133 993.892 16.34V10.76C993.532 10.5067 993.132 10.3067 992.692 10.16C992.265 10 991.812 9.92 991.332 9.92C990.692 9.92 990.125 10.0867 989.632 10.42C989.152 10.74 988.772 11.1933 988.492 11.78C988.212 12.3533 988.072 13.0267 988.072 13.8C988.072 14.5467 988.212 15.2133 988.492 15.8C988.772 16.3733 989.159 16.8267 989.652 17.16C990.145 17.48 990.699 17.64 991.312 17.64ZM999.276 19V8.6H1001.02V10.34C1001.39 9.78 1001.86 9.31333 1002.44 8.94C1003.02 8.55333 1003.72 8.36 1004.52 8.36C1005.69 8.36 1006.56 8.71333 1007.14 9.42C1007.72 10.1267 1008.02 11.06 1008.02 12.22V19H1006.22V12.42C1006.22 11.6733 1006.04 11.0733 1005.68 10.62C1005.33 10.1667 1004.84 9.94 1004.22 9.94C1003.6 9.94 1003.02 10.16 1002.48 10.6C1001.93 11.0267 1001.46 11.5333 1001.08 12.12V19H999.276ZM1011.11 19V8.6H1012.85V10.34C1013.23 9.78 1013.7 9.31333 1014.27 8.94C1014.86 8.55333 1015.55 8.36 1016.35 8.36C1017.53 8.36 1018.4 8.71333 1018.97 9.42C1019.56 10.1267 1019.85 11.06 1019.85 12.22V19H1018.05V12.42C1018.05 11.6733 1017.87 11.0733 1017.51 10.62C1017.17 10.1667 1016.68 9.94 1016.05 9.94C1015.44 9.94 1014.86 10.16 1014.31 10.6C1013.77 11.0267 1013.3 11.5333 1012.91 12.12V19H1011.11ZM1027.11 19.24C1025.61 19.24 1024.43 18.7667 1023.55 17.82C1022.68 16.86 1022.25 15.52 1022.25 13.8C1022.25 12.76 1022.44 11.8333 1022.83 11.02C1023.23 10.1933 1023.78 9.54667 1024.49 9.08C1025.19 8.6 1026.01 8.36 1026.95 8.36C1027.95 8.36 1028.77 8.58 1029.43 9.02C1030.09 9.44667 1030.59 10.0267 1030.93 10.76C1031.26 11.4933 1031.43 12.3 1031.43 13.18C1031.43 13.6467 1031.41 14.1 1031.37 14.54H1024.09C1024.21 15.5133 1024.55 16.2733 1025.11 16.82C1025.67 17.3667 1026.41 17.64 1027.33 17.64C1027.93 17.64 1028.47 17.58 1028.95 17.46C1029.43 17.3267 1029.89 17.16 1030.33 16.96L1030.75 18.5C1030.27 18.7133 1029.73 18.8867 1029.13 19.02C1028.53 19.1667 1027.85 19.24 1027.11 19.24ZM1024.07 13.08H1029.77C1029.77 12.0667 1029.51 11.2867 1029.01 10.74C1028.5 10.1933 1027.8 9.92 1026.91 9.92C1026.13 9.92 1025.49 10.1933 1024.99 10.74C1024.48 11.2733 1024.17 12.0533 1024.07 13.08ZM1036.63 19.24C1035.84 19.24 1035.13 19.14 1034.49 18.94C1033.86 18.74 1033.34 18.48 1032.93 18.16L1033.69 16.66C1034.03 16.9533 1034.47 17.2 1034.99 17.4C1035.52 17.5867 1036.09 17.68 1036.69 17.68C1037.43 17.68 1037.99 17.56 1038.37 17.32C1038.75 17.0667 1038.95 16.7467 1038.95 16.36C1038.95 16.08 1038.87 15.8333 1038.73 15.62C1038.59 15.4067 1038.34 15.2 1037.97 15C1037.59 14.7867 1037.05 14.56 1036.35 14.32C1035.37 13.9867 1034.64 13.5933 1034.15 13.14C1033.67 12.6733 1033.43 12.0333 1033.43 11.22C1033.43 10.42 1033.77 9.74667 1034.47 9.2C1035.17 8.64 1036.15 8.36 1037.39 8.36C1038.05 8.36 1038.65 8.43333 1039.17 8.58C1039.69 8.71333 1040.15 8.88667 1040.57 9.1L1040.07 10.58C1039.71 10.3667 1039.29 10.1933 1038.83 10.06C1038.37 9.92667 1037.87 9.86 1037.31 9.86C1036.61 9.86 1036.09 10 1035.73 10.28C1035.37 10.56 1035.19 10.8667 1035.19 11.2C1035.19 11.52 1035.33 11.7933 1035.61 12.02C1035.89 12.2467 1036.43 12.4933 1037.25 12.76C1038.57 13.2 1039.49 13.6867 1040.01 14.22C1040.53 14.7533 1040.79 15.42 1040.79 16.22C1040.79 17.1533 1040.41 17.8933 1039.65 18.44C1038.9 18.9733 1037.89 19.24 1036.63 19.24ZM1051.36 21.46C1050.53 19.9933 1049.88 18.54 1049.42 17.1C1048.95 15.6467 1048.72 14.1467 1048.72 12.6C1048.72 10.9333 1048.95 9.39333 1049.42 7.98C1049.9 6.55333 1050.54 5.14 1051.36 3.74L1052.42 4.34C1051.92 5.46 1051.5 6.71333 1051.14 8.1C1050.79 9.47333 1050.62 10.9733 1050.62 12.6C1050.62 14.2133 1050.79 15.7067 1051.14 17.08C1051.5 18.4533 1051.92 19.7133 1052.42 20.86L1051.36 21.46ZM1055.17 19V8.6H1056.91V10.34C1057.29 9.78 1057.76 9.31333 1058.33 8.94C1058.91 8.55333 1059.56 8.36 1060.29 8.36C1061.12 8.36 1061.79 8.56 1062.31 8.96C1062.85 9.36 1063.22 9.89333 1063.43 10.56C1063.85 9.94667 1064.33 9.42667 1064.89 9C1065.47 8.57333 1066.17 8.36 1067.01 8.36C1068.15 8.36 1068.99 8.72 1069.53 9.44C1070.09 10.1467 1070.37 11.0733 1070.37 12.22V19H1068.57V12.36C1068.57 11.64 1068.41 11.06 1068.07 10.62C1067.74 10.1667 1067.28 9.94 1066.69 9.94C1066.09 9.94 1065.53 10.1667 1065.01 10.62C1064.51 11.06 1064.06 11.58 1063.67 12.18V19H1061.87V12.36C1061.87 11.64 1061.71 11.06 1061.37 10.62C1061.04 10.1667 1060.58 9.94 1059.99 9.94C1059.41 9.94 1058.85 10.16 1058.33 10.6C1057.81 11.0267 1057.36 11.5333 1056.97 12.12V19H1055.17ZM1077.46 19.24C1076.59 19.24 1075.8 19.02 1075.1 18.58C1074.39 18.14 1073.82 17.52 1073.4 16.72C1072.98 15.9067 1072.78 14.9533 1072.78 13.86C1072.78 12.82 1072.98 11.8867 1073.4 11.06C1073.82 10.2333 1074.4 9.58 1075.14 9.1C1075.88 8.60667 1076.74 8.36 1077.7 8.36C1078.3 8.36 1078.84 8.46667 1079.32 8.68C1079.81 8.88 1080.24 9.13333 1080.6 9.44V8.6H1082.24V16.48C1082.24 16.9867 1082.36 17.32 1082.6 17.48C1082.85 17.6267 1083.12 17.7 1083.42 17.7L1083.04 19.1C1081.76 19.1 1080.98 18.58 1080.72 17.54C1080.41 17.9667 1079.99 18.36 1079.46 18.72C1078.94 19.0667 1078.27 19.24 1077.46 19.24ZM1077.86 17.64C1078.36 17.64 1078.84 17.52 1079.3 17.28C1079.75 17.0267 1080.13 16.7133 1080.44 16.34V10.76C1080.08 10.5067 1079.68 10.3067 1079.24 10.16C1078.81 10 1078.36 9.92 1077.88 9.92C1077.24 9.92 1076.67 10.0867 1076.18 10.42C1075.7 10.74 1075.32 11.1933 1075.04 11.78C1074.76 12.3533 1074.62 13.0267 1074.62 13.8C1074.62 14.5467 1074.76 15.2133 1075.04 15.8C1075.32 16.3733 1075.7 16.8267 1076.2 17.16C1076.69 17.48 1077.24 17.64 1077.86 17.64ZM1085.82 19V8.6H1087.62V19H1085.82ZM1086.72 6.82C1086.37 6.82 1086.07 6.69333 1085.82 6.44C1085.58 6.18667 1085.46 5.89333 1085.46 5.56C1085.46 5.17333 1085.57 4.86667 1085.8 4.64C1086.03 4.41333 1086.33 4.3 1086.72 4.3C1087.07 4.3 1087.36 4.42667 1087.6 4.68C1087.85 4.92 1087.98 5.21333 1087.98 5.56C1087.98 5.93333 1087.87 6.24 1087.64 6.48C1087.41 6.70667 1087.11 6.82 1086.72 6.82ZM1096.97 19C1096.93 18.76 1096.91 18.5133 1096.91 18.26C1096.91 17.3933 1097.06 16.62 1097.35 15.94C1097.66 15.2467 1098.05 14.62 1098.53 14.06C1099.01 13.4867 1099.52 12.96 1100.05 12.48C1100.6 11.9867 1101.11 11.52 1101.57 11.08C1102.05 10.6267 1102.45 10.1733 1102.75 9.72C1103.06 9.26667 1103.21 8.79333 1103.21 8.3C1103.21 7.74 1103.01 7.28 1102.59 6.92C1102.18 6.54667 1101.65 6.36 1100.99 6.36C1100.43 6.36 1099.92 6.47333 1099.45 6.7C1099 6.91333 1098.57 7.20667 1098.17 7.58L1097.17 6.36C1097.71 5.88 1098.29 5.49333 1098.93 5.2C1099.59 4.90667 1100.34 4.76 1101.19 4.76C1101.98 4.76 1102.67 4.91333 1103.25 5.22C1103.84 5.51333 1104.29 5.92 1104.61 6.44C1104.95 6.96 1105.11 7.54 1105.11 8.18C1105.11 8.82 1104.97 9.41333 1104.69 9.96C1104.41 10.5067 1104.05 11.02 1103.61 11.5C1103.17 11.98 1102.7 12.4467 1102.19 12.9C1101.69 13.34 1101.2 13.7933 1100.73 14.26C1100.27 14.7267 1099.87 15.2133 1099.53 15.72C1099.21 16.2267 1099.01 16.7733 1098.93 17.36H1105.09V19H1096.97ZM1113.19 19.24C1111.63 19.24 1110.44 18.6067 1109.63 17.34C1108.81 16.06 1108.41 14.2733 1108.41 11.98C1108.41 9.67333 1108.82 7.89333 1109.65 6.64C1110.49 5.38667 1111.68 4.76 1113.23 4.76C1114.79 4.76 1115.97 5.39333 1116.79 6.66C1117.6 7.92667 1118.01 9.71333 1118.01 12.02C1118.01 14.3267 1117.59 16.1067 1116.75 17.36C1115.92 18.6133 1114.73 19.24 1113.19 19.24ZM1113.21 17.6C1113.81 17.6 1114.32 17.4267 1114.75 17.08C1115.19 16.72 1115.52 16.1333 1115.75 15.32C1115.99 14.5067 1116.11 13.4133 1116.11 12.04C1116.11 10.2 1115.85 8.8 1115.33 7.84C1114.82 6.88 1114.11 6.4 1113.21 6.4C1112.61 6.4 1112.09 6.58 1111.65 6.94C1111.22 7.28667 1110.89 7.86667 1110.65 8.68C1110.42 9.48 1110.31 10.5733 1110.31 11.96C1110.31 13.8 1110.56 15.2 1111.07 16.16C1111.59 17.12 1112.3 17.6 1113.21 17.6ZM1122.08 19V17.4H1124.94V7.3L1122.26 9.32L1121.28 7.98L1125.42 5H1126.74V17.4H1129.12V19H1122.08ZM1137.29 19.24C1136.28 19.24 1135.4 19.0667 1134.65 18.72C1133.9 18.3733 1133.32 17.9067 1132.91 17.32C1132.51 16.72 1132.31 16.06 1132.31 15.34C1132.31 14.4733 1132.54 13.72 1133.01 13.08C1133.49 12.44 1134.24 11.9 1135.25 11.46C1134.54 11.0733 1134 10.6267 1133.61 10.12C1133.24 9.6 1133.05 8.96 1133.05 8.2C1133.05 7.52 1133.23 6.92667 1133.59 6.42C1133.95 5.9 1134.44 5.49333 1135.05 5.2C1135.68 4.90667 1136.37 4.76 1137.13 4.76C1137.96 4.76 1138.68 4.91333 1139.31 5.22C1139.94 5.51333 1140.42 5.92 1140.77 6.44C1141.13 6.96 1141.31 7.54 1141.31 8.18C1141.31 8.99333 1141.1 9.65333 1140.69 10.16C1140.28 10.6667 1139.72 11.0933 1139.03 11.44C1140.02 11.8533 1140.77 12.3733 1141.29 13C1141.81 13.6133 1142.07 14.3533 1142.07 15.22C1142.07 16.02 1141.86 16.7267 1141.45 17.34C1141.04 17.94 1140.47 18.4067 1139.75 18.74C1139.03 19.0733 1138.21 19.24 1137.29 19.24ZM1137.39 10.78C1137.98 10.58 1138.48 10.2733 1138.91 9.86C1139.35 9.44667 1139.57 8.94667 1139.57 8.36C1139.57 7.74667 1139.34 7.24 1138.87 6.84C1138.4 6.44 1137.82 6.24 1137.13 6.24C1136.45 6.24 1135.89 6.42 1135.45 6.78C1135.01 7.12667 1134.79 7.58667 1134.79 8.16C1134.79 8.73333 1135.02 9.25333 1135.49 9.72C1135.97 10.1867 1136.6 10.54 1137.39 10.78ZM1137.31 17.64C1138.16 17.64 1138.86 17.42 1139.41 16.98C1139.96 16.5267 1140.23 15.9533 1140.23 15.26C1140.23 14.62 1139.94 14.0467 1139.37 13.54C1138.81 13.0333 1138.03 12.6 1137.03 12.24C1136.52 12.36 1136.05 12.5467 1135.61 12.8C1135.17 13.0533 1134.82 13.3667 1134.55 13.74C1134.28 14.1133 1134.15 14.54 1134.15 15.02C1134.15 15.5133 1134.28 15.96 1134.55 16.36C1134.83 16.76 1135.21 17.0733 1135.69 17.3C1136.17 17.5267 1136.71 17.64 1137.31 17.64ZM1145.4 21.46L1144.34 20.86C1144.85 19.7133 1145.28 18.4533 1145.62 17.08C1145.97 15.7067 1146.14 14.2133 1146.14 12.6C1146.14 10.9733 1145.97 9.47333 1145.62 8.1C1145.28 6.71333 1144.85 5.46 1144.34 4.34L1145.4 3.74C1146.23 5.14 1146.88 6.55333 1147.34 7.98C1147.81 9.39333 1148.04 10.9333 1148.04 12.6C1148.04 14.1467 1147.81 15.6467 1147.34 17.1C1146.88 18.54 1146.23 19.9933 1145.4 21.46Z" fill="white"/>
<path opacity="0.4" d="M1212.84 19.16C1212.03 19.16 1211.25 19.14 1210.52 19.1C1209.8 19.06 1209.23 19.0133 1208.8 18.96V5.04C1209.27 4.98667 1209.85 4.94 1210.54 4.9C1211.23 4.86 1212.03 4.84 1212.92 4.84C1214.63 4.84 1215.94 5.16667 1216.86 5.82C1217.78 6.46 1218.24 7.33333 1218.24 8.44C1218.24 9.17333 1218.04 9.8 1217.64 10.32C1217.25 10.8267 1216.69 11.2467 1215.94 11.58C1216.85 11.9 1217.53 12.3467 1218 12.92C1218.47 13.48 1218.7 14.1733 1218.7 15C1218.7 16.2667 1218.2 17.28 1217.2 18.04C1216.2 18.7867 1214.75 19.16 1212.84 19.16ZM1210.7 11.04H1212.9C1213.95 11.04 1214.79 10.82 1215.4 10.38C1216.03 9.94 1216.34 9.37333 1216.34 8.68C1216.34 7.93333 1216.03 7.36667 1215.42 6.98C1214.81 6.58 1213.97 6.38 1212.9 6.38C1212.46 6.38 1212.06 6.39333 1211.7 6.42C1211.34 6.43333 1211.01 6.45333 1210.7 6.48V11.04ZM1212.98 17.58C1214.17 17.58 1215.09 17.3667 1215.76 16.94C1216.43 16.5133 1216.76 15.8933 1216.76 15.08C1216.76 14.28 1216.43 13.6533 1215.78 13.2C1215.13 12.7467 1214.19 12.52 1212.98 12.52H1210.7V17.46C1211.41 17.54 1212.17 17.58 1212.98 17.58ZM1225.58 19.24C1224.59 19.24 1223.7 19.0133 1222.92 18.56C1222.13 18.0933 1221.51 17.4533 1221.06 16.64C1220.62 15.8133 1220.4 14.8667 1220.4 13.8C1220.4 12.68 1220.62 11.7133 1221.08 10.9C1221.53 10.0867 1222.15 9.46 1222.94 9.02C1223.72 8.58 1224.6 8.36 1225.58 8.36C1226.55 8.36 1227.42 8.58 1228.2 9.02C1228.98 9.46 1229.6 10.0867 1230.06 10.9C1230.52 11.7 1230.76 12.6533 1230.76 13.76C1230.76 14.8667 1230.53 15.8333 1230.08 16.66C1229.62 17.4733 1229 18.1067 1228.22 18.56C1227.44 19.0133 1226.56 19.24 1225.58 19.24ZM1225.58 17.64C1226.63 17.64 1227.45 17.2867 1228.04 16.58C1228.62 15.86 1228.92 14.9333 1228.92 13.8C1228.92 13.1067 1228.77 12.4733 1228.48 11.9C1228.18 11.3133 1227.78 10.8467 1227.28 10.5C1226.78 10.14 1226.22 9.96 1225.58 9.96C1224.52 9.96 1223.7 10.3067 1223.12 11C1222.53 11.6933 1222.24 12.6133 1222.24 13.76C1222.24 14.4533 1222.38 15.1 1222.68 15.7C1222.97 16.2867 1223.36 16.76 1223.86 17.12C1224.36 17.4667 1224.94 17.64 1225.58 17.64ZM1236.31 19.24C1235.7 19.24 1235.14 19.1267 1234.65 18.9C1234.16 18.66 1233.76 18.28 1233.47 17.76C1233.19 17.24 1233.05 16.5667 1233.05 15.74V4.2H1234.85V15.56C1234.85 16.28 1235 16.8133 1235.29 17.16C1235.6 17.5067 1236.02 17.68 1236.55 17.68C1236.8 17.68 1237.05 17.6533 1237.29 17.6C1237.54 17.5333 1237.76 17.46 1237.93 17.38L1238.37 18.84C1238.13 18.9467 1237.83 19.04 1237.47 19.12C1237.12 19.2 1236.74 19.24 1236.31 19.24ZM1243.03 19.24C1242.42 19.24 1241.86 19.1267 1241.37 18.9C1240.88 18.66 1240.48 18.28 1240.19 17.76C1239.91 17.24 1239.77 16.5667 1239.77 15.74V4.2H1241.57V15.56C1241.57 16.28 1241.72 16.8133 1242.01 17.16C1242.32 17.5067 1242.74 17.68 1243.27 17.68C1243.52 17.68 1243.77 17.6533 1244.01 17.6C1244.26 17.5333 1244.48 17.46 1244.65 17.38L1245.09 18.84C1244.85 18.9467 1244.55 19.04 1244.19 19.12C1243.84 19.2 1243.46 19.24 1243.03 19.24ZM1246.24 23.64C1245.84 23.64 1245.49 23.6 1245.18 23.52C1244.89 23.44 1244.66 23.3467 1244.48 23.24L1244.88 21.74C1245.04 21.8333 1245.24 21.9133 1245.48 21.98C1245.72 22.0467 1245.99 22.08 1246.28 22.08C1246.84 22.08 1247.34 21.9 1247.78 21.54C1248.22 21.18 1248.64 20.4733 1249.04 19.42L1249.5 18.22H1248.54L1244.48 9.08L1246.08 8.36L1249.96 17.02L1252.98 8.44L1254.64 9.08L1250.82 19.52C1250.44 20.5867 1250.02 21.42 1249.56 22.02C1249.11 22.62 1248.61 23.04 1248.06 23.28C1247.52 23.52 1246.91 23.64 1246.24 23.64ZM1258.63 19L1255.35 9.08L1257.01 8.5L1259.69 16.96L1262.13 9.34H1264.07L1266.45 16.96L1269.11 8.5L1270.71 9.08L1267.41 19H1265.43L1263.03 11.26L1260.61 19H1258.63ZM1277 19.24C1276.02 19.24 1275.13 19.0133 1274.34 18.56C1273.56 18.0933 1272.94 17.4533 1272.48 16.64C1272.04 15.8133 1271.82 14.8667 1271.82 13.8C1271.82 12.68 1272.05 11.7133 1272.5 10.9C1272.96 10.0867 1273.58 9.46 1274.36 9.02C1275.15 8.58 1276.03 8.36 1277 8.36C1277.98 8.36 1278.85 8.58 1279.62 9.02C1280.41 9.46 1281.03 10.0867 1281.48 10.9C1281.95 11.7 1282.18 12.6533 1282.18 13.76C1282.18 14.8667 1281.96 15.8333 1281.5 16.66C1281.05 17.4733 1280.43 18.1067 1279.64 18.56C1278.87 19.0133 1277.99 19.24 1277 19.24ZM1277 17.64C1278.06 17.64 1278.88 17.2867 1279.46 16.58C1280.05 15.86 1280.34 14.9333 1280.34 13.8C1280.34 13.1067 1280.2 12.4733 1279.9 11.9C1279.61 11.3133 1279.21 10.8467 1278.7 10.5C1278.21 10.14 1277.64 9.96 1277 9.96C1275.95 9.96 1275.13 10.3067 1274.54 11C1273.96 11.6933 1273.66 12.6133 1273.66 13.76C1273.66 14.4533 1273.81 15.1 1274.1 15.7C1274.4 16.2867 1274.79 16.76 1275.28 17.12C1275.79 17.4667 1276.36 17.64 1277 17.64ZM1288.96 19.24C1287.97 19.24 1287.08 19.0133 1286.3 18.56C1285.51 18.0933 1284.89 17.4533 1284.44 16.64C1284 15.8133 1283.78 14.8667 1283.78 13.8C1283.78 12.68 1284 11.7133 1284.46 10.9C1284.91 10.0867 1285.53 9.46 1286.32 9.02C1287.1 8.58 1287.98 8.36 1288.96 8.36C1289.93 8.36 1290.8 8.58 1291.58 9.02C1292.36 9.46 1292.98 10.0867 1293.44 10.9C1293.9 11.7 1294.14 12.6533 1294.14 13.76C1294.14 14.8667 1293.91 15.8333 1293.46 16.66C1293 17.4733 1292.38 18.1067 1291.6 18.56C1290.82 19.0133 1289.94 19.24 1288.96 19.24ZM1288.96 17.64C1290.01 17.64 1290.83 17.2867 1291.42 16.58C1292 15.86 1292.3 14.9333 1292.3 13.8C1292.3 13.1067 1292.15 12.4733 1291.86 11.9C1291.56 11.3133 1291.16 10.8467 1290.66 10.5C1290.16 10.14 1289.6 9.96 1288.96 9.96C1287.9 9.96 1287.08 10.3067 1286.5 11C1285.91 11.6933 1285.62 12.6133 1285.62 13.76C1285.62 14.4533 1285.76 15.1 1286.06 15.7C1286.35 16.2867 1286.74 16.76 1287.24 17.12C1287.74 17.4667 1288.32 17.64 1288.96 17.64ZM1300.47 19.24C1299.62 19.24 1298.84 19.02 1298.13 18.58C1297.42 18.14 1296.86 17.52 1296.45 16.72C1296.04 15.9067 1295.83 14.9533 1295.83 13.86C1295.83 12.8067 1296.04 11.8667 1296.45 11.04C1296.88 10.2133 1297.44 9.56 1298.13 9.08C1298.84 8.6 1299.61 8.36 1300.45 8.36C1301.14 8.36 1301.74 8.5 1302.23 8.78C1302.74 9.06 1303.13 9.34667 1303.41 9.64V4.2H1305.21V16.48C1305.21 16.9867 1305.33 17.32 1305.57 17.48C1305.82 17.6267 1306.1 17.7 1306.39 17.7L1306.01 19.1C1304.74 19.1 1303.97 18.5933 1303.69 17.58C1303.4 17.9933 1302.98 18.3733 1302.45 18.72C1301.93 19.0667 1301.27 19.24 1300.47 19.24ZM1300.87 17.64C1301.36 17.64 1301.83 17.5267 1302.27 17.3C1302.72 17.06 1303.1 16.7533 1303.41 16.38V11.22C1303.16 10.9 1302.8 10.6067 1302.35 10.34C1301.9 10.06 1301.4 9.92 1300.85 9.92C1300.21 9.92 1299.65 10.0933 1299.17 10.44C1298.69 10.7867 1298.32 11.2533 1298.05 11.84C1297.8 12.4133 1297.67 13.0667 1297.67 13.8C1297.67 14.5333 1297.81 15.1933 1298.09 15.78C1298.37 16.3533 1298.75 16.8067 1299.23 17.14C1299.72 17.4733 1300.27 17.64 1300.87 17.64ZM1320.37 19.24C1319.16 19.24 1318.08 18.9533 1317.15 18.38C1316.22 17.7933 1315.49 16.9667 1314.97 15.9C1314.45 14.82 1314.19 13.54 1314.19 12.06C1314.19 10.6333 1314.45 9.37333 1314.97 8.28C1315.5 7.17333 1316.25 6.31333 1317.21 5.7C1318.18 5.07333 1319.32 4.76 1320.61 4.76C1321.28 4.76 1321.88 4.82667 1322.43 4.96C1322.98 5.08 1323.49 5.25333 1323.97 5.48L1323.39 7.08C1322.98 6.88 1322.55 6.72 1322.11 6.6C1321.68 6.48 1321.18 6.42 1320.59 6.42C1319.74 6.42 1318.97 6.64 1318.29 7.08C1317.62 7.52 1317.1 8.15333 1316.71 8.98C1316.32 9.80667 1316.13 10.8067 1316.13 11.98C1316.13 13.1 1316.32 14.08 1316.69 14.92C1317.08 15.76 1317.6 16.4133 1318.27 16.88C1318.95 17.3467 1319.72 17.58 1320.59 17.58C1321.24 17.58 1321.81 17.5 1322.29 17.34C1322.77 17.18 1323.24 16.9733 1323.69 16.72L1324.27 18.3C1323.78 18.5667 1323.21 18.7933 1322.57 18.98C1321.94 19.1533 1321.21 19.24 1320.37 19.24ZM1329.44 19.24C1328.82 19.24 1328.27 19.1267 1327.78 18.9C1327.28 18.66 1326.89 18.28 1326.6 17.76C1326.32 17.24 1326.18 16.5667 1326.18 15.74V4.2H1327.98V15.56C1327.98 16.28 1328.12 16.8133 1328.42 17.16C1328.72 17.5067 1329.14 17.68 1329.68 17.68C1329.93 17.68 1330.18 17.6533 1330.42 17.6C1330.67 17.5333 1330.88 17.46 1331.06 17.38L1331.5 18.84C1331.26 18.9467 1330.96 19.04 1330.6 19.12C1330.25 19.2 1329.86 19.24 1329.44 19.24ZM1336.88 19.24C1336.01 19.24 1335.22 19.02 1334.52 18.58C1333.81 18.14 1333.24 17.52 1332.82 16.72C1332.4 15.9067 1332.2 14.9533 1332.2 13.86C1332.2 12.82 1332.4 11.8867 1332.82 11.06C1333.24 10.2333 1333.82 9.58 1334.56 9.1C1335.3 8.60667 1336.16 8.36 1337.12 8.36C1337.72 8.36 1338.26 8.46667 1338.74 8.68C1339.23 8.88 1339.66 9.13333 1340.02 9.44V8.6H1341.66V16.48C1341.66 16.9867 1341.78 17.32 1342.02 17.48C1342.27 17.6267 1342.54 17.7 1342.84 17.7L1342.46 19.1C1341.18 19.1 1340.4 18.58 1340.14 17.54C1339.83 17.9667 1339.41 18.36 1338.88 18.72C1338.36 19.0667 1337.69 19.24 1336.88 19.24ZM1337.28 17.64C1337.78 17.64 1338.26 17.52 1338.72 17.28C1339.17 17.0267 1339.55 16.7133 1339.86 16.34V10.76C1339.5 10.5067 1339.1 10.3067 1338.66 10.16C1338.23 10 1337.78 9.92 1337.3 9.92C1336.66 9.92 1336.09 10.0867 1335.6 10.42C1335.12 10.74 1334.74 11.1933 1334.46 11.78C1334.18 12.3533 1334.04 13.0267 1334.04 13.8C1334.04 14.5467 1334.18 15.2133 1334.46 15.8C1334.74 16.3733 1335.12 16.8267 1335.62 17.16C1336.11 17.48 1336.66 17.64 1337.28 17.64ZM1348.04 19.24C1347.25 19.24 1346.54 19.14 1345.9 18.94C1345.27 18.74 1344.75 18.48 1344.34 18.16L1345.1 16.66C1345.45 16.9533 1345.88 17.2 1346.4 17.4C1346.93 17.5867 1347.5 17.68 1348.1 17.68C1348.85 17.68 1349.41 17.56 1349.78 17.32C1350.17 17.0667 1350.36 16.7467 1350.36 16.36C1350.36 16.08 1350.29 15.8333 1350.14 15.62C1350.01 15.4067 1349.75 15.2 1349.38 15C1349.01 14.7867 1348.47 14.56 1347.76 14.32C1346.79 13.9867 1346.05 13.5933 1345.56 13.14C1345.08 12.6733 1344.84 12.0333 1344.84 11.22C1344.84 10.42 1345.19 9.74667 1345.88 9.2C1346.59 8.64 1347.56 8.36 1348.8 8.36C1349.47 8.36 1350.06 8.43333 1350.58 8.58C1351.1 8.71333 1351.57 8.88667 1351.98 9.1L1351.48 10.58C1351.12 10.3667 1350.71 10.1933 1350.24 10.06C1349.79 9.92667 1349.28 9.86 1348.72 9.86C1348.03 9.86 1347.5 10 1347.14 10.28C1346.78 10.56 1346.6 10.8667 1346.6 11.2C1346.6 11.52 1346.74 11.7933 1347.02 12.02C1347.3 12.2467 1347.85 12.4933 1348.66 12.76C1349.98 13.2 1350.9 13.6867 1351.42 14.22C1351.94 14.7533 1352.2 15.42 1352.2 16.22C1352.2 17.1533 1351.82 17.8933 1351.06 18.44C1350.31 18.9733 1349.31 19.24 1348.04 19.24ZM1357.4 19.24C1356.61 19.24 1355.9 19.14 1355.26 18.94C1354.63 18.74 1354.11 18.48 1353.7 18.16L1354.46 16.66C1354.8 16.9533 1355.24 17.2 1355.76 17.4C1356.29 17.5867 1356.86 17.68 1357.46 17.68C1358.2 17.68 1358.76 17.56 1359.14 17.32C1359.52 17.0667 1359.72 16.7467 1359.72 16.36C1359.72 16.08 1359.64 15.8333 1359.5 15.62C1359.36 15.4067 1359.11 15.2 1358.74 15C1358.36 14.7867 1357.82 14.56 1357.12 14.32C1356.14 13.9867 1355.41 13.5933 1354.92 13.14C1354.44 12.6733 1354.2 12.0333 1354.2 11.22C1354.2 10.42 1354.54 9.74667 1355.24 9.2C1355.94 8.64 1356.92 8.36 1358.16 8.36C1358.82 8.36 1359.42 8.43333 1359.94 8.58C1360.46 8.71333 1360.92 8.88667 1361.34 9.1L1360.84 10.58C1360.48 10.3667 1360.06 10.1933 1359.6 10.06C1359.14 9.92667 1358.64 9.86 1358.08 9.86C1357.38 9.86 1356.86 10 1356.5 10.28C1356.14 10.56 1355.96 10.8667 1355.96 11.2C1355.96 11.52 1356.1 11.7933 1356.38 12.02C1356.66 12.2467 1357.2 12.4933 1358.02 12.76C1359.34 13.2 1360.26 13.6867 1360.78 14.22C1361.3 14.7533 1361.56 15.42 1361.56 16.22C1361.56 17.1533 1361.18 17.8933 1360.42 18.44C1359.67 18.9733 1358.66 19.24 1357.4 19.24ZM1363.95 19V8.6H1365.75V19H1363.95ZM1364.85 6.82C1364.5 6.82 1364.2 6.69333 1363.95 6.44C1363.71 6.18667 1363.59 5.89333 1363.59 5.56C1363.59 5.17333 1363.7 4.86667 1363.93 4.64C1364.16 4.41333 1364.46 4.3 1364.85 4.3C1365.2 4.3 1365.49 4.42667 1365.73 4.68C1365.98 4.92 1366.11 5.21333 1366.11 5.56C1366.11 5.93333 1366 6.24 1365.77 6.48C1365.54 6.70667 1365.24 6.82 1364.85 6.82ZM1375.83 23.4V17.94C1375.55 18.2333 1375.16 18.5267 1374.65 18.82C1374.16 19.1 1373.58 19.24 1372.91 19.24C1372.11 19.24 1371.35 19.0333 1370.63 18.62C1369.92 18.2067 1369.35 17.6 1368.91 16.8C1368.47 15.9867 1368.25 15 1368.25 13.84C1368.25 12.7467 1368.47 11.7933 1368.91 10.98C1369.35 10.1533 1369.94 9.51333 1370.67 9.06C1371.4 8.59333 1372.21 8.36 1373.09 8.36C1373.69 8.36 1374.23 8.46667 1374.71 8.68C1375.2 8.88 1375.63 9.13333 1375.99 9.44V8.6H1377.63V23.4H1375.83ZM1373.31 17.64C1373.84 17.64 1374.33 17.5133 1374.77 17.26C1375.21 17.0067 1375.56 16.7133 1375.83 16.38V10.76C1375.47 10.5067 1375.07 10.3067 1374.63 10.16C1374.2 10 1373.75 9.92 1373.27 9.92C1372.7 9.92 1372.17 10.0733 1371.69 10.38C1371.21 10.6867 1370.82 11.1267 1370.53 11.7C1370.24 12.2733 1370.09 12.9667 1370.09 13.78C1370.09 14.58 1370.24 15.2733 1370.53 15.86C1370.84 16.4333 1371.24 16.8733 1371.73 17.18C1372.22 17.4867 1372.75 17.64 1373.31 17.64ZM1384.23 19.24C1383.63 19.24 1383.06 19.1133 1382.53 18.86C1381.99 18.6067 1381.56 18.2 1381.23 17.64C1380.89 17.0667 1380.73 16.3067 1380.73 15.36V8.6H1382.53V15.12C1382.53 15.9333 1382.7 16.56 1383.05 17C1383.39 17.4267 1383.9 17.64 1384.57 17.64C1385.11 17.64 1385.64 17.5333 1386.15 17.32C1386.67 17.0933 1387.13 16.7933 1387.53 16.42V8.6H1389.33V16.3C1389.33 16.8733 1389.45 17.2533 1389.69 17.44C1389.94 17.6133 1390.21 17.7 1390.51 17.7L1390.13 19.1C1388.89 19.1 1388.12 18.6067 1387.83 17.62C1387.36 18.1 1386.82 18.4933 1386.21 18.8C1385.59 19.0933 1384.93 19.24 1384.23 19.24ZM1396.86 19.24C1395.37 19.24 1394.18 18.7667 1393.3 17.82C1392.43 16.86 1392 15.52 1392 13.8C1392 12.76 1392.19 11.8333 1392.58 11.02C1392.98 10.1933 1393.53 9.54667 1394.24 9.08C1394.95 8.6 1395.77 8.36 1396.7 8.36C1397.7 8.36 1398.53 8.58 1399.18 9.02C1399.85 9.44667 1400.35 10.0267 1400.68 10.76C1401.01 11.4933 1401.18 12.3 1401.18 13.18C1401.18 13.6467 1401.16 14.1 1401.12 14.54H1393.84C1393.96 15.5133 1394.3 16.2733 1394.86 16.82C1395.42 17.3667 1396.16 17.64 1397.08 17.64C1397.68 17.64 1398.22 17.58 1398.7 17.46C1399.18 17.3267 1399.64 17.16 1400.08 16.96L1400.5 18.5C1400.02 18.7133 1399.48 18.8867 1398.88 19.02C1398.28 19.1667 1397.61 19.24 1396.86 19.24ZM1393.82 13.08H1399.52C1399.52 12.0667 1399.27 11.2867 1398.76 10.74C1398.25 10.1933 1397.55 9.92 1396.66 9.92C1395.89 9.92 1395.25 10.1933 1394.74 10.74C1394.23 11.2733 1393.93 12.0533 1393.82 13.08ZM1406.38 19.24C1405.59 19.24 1404.88 19.14 1404.24 18.94C1403.61 18.74 1403.09 18.48 1402.68 18.16L1403.44 16.66C1403.79 16.9533 1404.22 17.2 1404.74 17.4C1405.27 17.5867 1405.84 17.68 1406.44 17.68C1407.19 17.68 1407.75 17.56 1408.12 17.32C1408.51 17.0667 1408.7 16.7467 1408.7 16.36C1408.7 16.08 1408.63 15.8333 1408.48 15.62C1408.35 15.4067 1408.09 15.2 1407.72 15C1407.35 14.7867 1406.81 14.56 1406.1 14.32C1405.13 13.9867 1404.39 13.5933 1403.9 13.14C1403.42 12.6733 1403.18 12.0333 1403.18 11.22C1403.18 10.42 1403.53 9.74667 1404.22 9.2C1404.93 8.64 1405.9 8.36 1407.14 8.36C1407.81 8.36 1408.4 8.43333 1408.92 8.58C1409.44 8.71333 1409.91 8.88667 1410.32 9.1L1409.82 10.58C1409.46 10.3667 1409.05 10.1933 1408.58 10.06C1408.13 9.92667 1407.62 9.86 1407.06 9.86C1406.37 9.86 1405.84 10 1405.48 10.28C1405.12 10.56 1404.94 10.8667 1404.94 11.2C1404.94 11.52 1405.08 11.7933 1405.36 12.02C1405.64 12.2467 1406.19 12.4933 1407 12.76C1408.32 13.2 1409.24 13.6867 1409.76 14.22C1410.28 14.7533 1410.54 15.42 1410.54 16.22C1410.54 17.1533 1410.16 17.8933 1409.4 18.44C1408.65 18.9733 1407.65 19.24 1406.38 19.24ZM1421.11 21.46C1420.29 19.9933 1419.64 18.54 1419.17 17.1C1418.71 15.6467 1418.47 14.1467 1418.47 12.6C1418.47 10.9333 1418.71 9.39333 1419.17 7.98C1419.65 6.55333 1420.3 5.14 1421.11 3.74L1422.17 4.34C1421.68 5.46 1421.25 6.71333 1420.89 8.1C1420.55 9.47333 1420.37 10.9733 1420.37 12.6C1420.37 14.2133 1420.55 15.7067 1420.89 17.08C1421.25 18.4533 1421.68 19.7133 1422.17 20.86L1421.11 21.46ZM1424.93 19V8.6H1426.67V10.34C1427.04 9.78 1427.51 9.31333 1428.09 8.94C1428.66 8.55333 1429.31 8.36 1430.05 8.36C1430.87 8.36 1431.55 8.56 1432.07 8.96C1432.6 9.36 1432.97 9.89333 1433.19 10.56C1433.6 9.94667 1434.09 9.42667 1434.65 9C1435.22 8.57333 1435.93 8.36 1436.77 8.36C1437.9 8.36 1438.74 8.72 1439.29 9.44C1439.85 10.1467 1440.13 11.0733 1440.13 12.22V19H1438.33V12.36C1438.33 11.64 1438.16 11.06 1437.83 10.62C1437.49 10.1667 1437.03 9.94 1436.45 9.94C1435.85 9.94 1435.29 10.1667 1434.77 10.62C1434.26 11.06 1433.81 11.58 1433.43 12.18V19H1431.63V12.36C1431.63 11.64 1431.46 11.06 1431.13 10.62C1430.79 10.1667 1430.33 9.94 1429.75 9.94C1429.16 9.94 1428.61 10.16 1428.09 10.6C1427.57 11.0267 1427.11 11.5333 1426.73 12.12V19H1424.93ZM1447.21 19.24C1446.34 19.24 1445.56 19.02 1444.85 18.58C1444.14 18.14 1443.58 17.52 1443.15 16.72C1442.74 15.9067 1442.53 14.9533 1442.53 13.86C1442.53 12.82 1442.74 11.8867 1443.15 11.06C1443.58 10.2333 1444.16 9.58 1444.89 9.1C1445.64 8.60667 1446.49 8.36 1447.45 8.36C1448.05 8.36 1448.59 8.46667 1449.07 8.68C1449.56 8.88 1449.99 9.13333 1450.35 9.44V8.6H1451.99V16.48C1451.99 16.9867 1452.11 17.32 1452.35 17.48C1452.6 17.6267 1452.88 17.7 1453.17 17.7L1452.79 19.1C1451.51 19.1 1450.74 18.58 1450.47 17.54C1450.16 17.9667 1449.74 18.36 1449.21 18.72C1448.69 19.0667 1448.02 19.24 1447.21 19.24ZM1447.61 17.64C1448.12 17.64 1448.6 17.52 1449.05 17.28C1449.5 17.0267 1449.88 16.7133 1450.19 16.34V10.76C1449.83 10.5067 1449.43 10.3067 1448.99 10.16C1448.56 10 1448.11 9.92 1447.63 9.92C1446.99 9.92 1446.42 10.0867 1445.93 10.42C1445.45 10.74 1445.07 11.1933 1444.79 11.78C1444.51 12.3533 1444.37 13.0267 1444.37 13.8C1444.37 14.5467 1444.51 15.2133 1444.79 15.8C1445.07 16.3733 1445.46 16.8267 1445.95 17.16C1446.44 17.48 1447 17.64 1447.61 17.64ZM1455.57 19V8.6H1457.37V19H1455.57ZM1456.47 6.82C1456.13 6.82 1455.83 6.69333 1455.57 6.44C1455.33 6.18667 1455.21 5.89333 1455.21 5.56C1455.21 5.17333 1455.33 4.86667 1455.55 4.64C1455.78 4.41333 1456.09 4.3 1456.47 4.3C1456.82 4.3 1457.11 4.42667 1457.35 4.68C1457.61 4.92 1457.73 5.21333 1457.73 5.56C1457.73 5.93333 1457.62 6.24 1457.39 6.48C1457.17 6.70667 1456.86 6.82 1456.47 6.82ZM1466.73 19C1466.69 18.76 1466.67 18.5133 1466.67 18.26C1466.67 17.3933 1466.82 16.62 1467.11 15.94C1467.42 15.2467 1467.81 14.62 1468.29 14.06C1468.77 13.4867 1469.28 12.96 1469.81 12.48C1470.36 11.9867 1470.86 11.52 1471.33 11.08C1471.81 10.6267 1472.2 10.1733 1472.51 9.72C1472.82 9.26667 1472.97 8.79333 1472.97 8.3C1472.97 7.74 1472.76 7.28 1472.35 6.92C1471.94 6.54667 1471.4 6.36 1470.75 6.36C1470.19 6.36 1469.68 6.47333 1469.21 6.7C1468.76 6.91333 1468.33 7.20667 1467.93 7.58L1466.93 6.36C1467.46 5.88 1468.05 5.49333 1468.69 5.2C1469.34 4.90667 1470.1 4.76 1470.95 4.76C1471.74 4.76 1472.42 4.91333 1473.01 5.22C1473.6 5.51333 1474.05 5.92 1474.37 6.44C1474.7 6.96 1474.87 7.54 1474.87 8.18C1474.87 8.82 1474.73 9.41333 1474.45 9.96C1474.17 10.5067 1473.81 11.02 1473.37 11.5C1472.93 11.98 1472.46 12.4467 1471.95 12.9C1471.44 13.34 1470.96 13.7933 1470.49 14.26C1470.02 14.7267 1469.62 15.2133 1469.29 15.72C1468.97 16.2267 1468.77 16.7733 1468.69 17.36H1474.85V19H1466.73ZM1482.94 19.24C1481.38 19.24 1480.19 18.6067 1479.38 17.34C1478.57 16.06 1478.16 14.2733 1478.16 11.98C1478.16 9.67333 1478.57 7.89333 1479.4 6.64C1480.24 5.38667 1481.43 4.76 1482.98 4.76C1484.54 4.76 1485.73 5.39333 1486.54 6.66C1487.35 7.92667 1487.76 9.71333 1487.76 12.02C1487.76 14.3267 1487.34 16.1067 1486.5 17.36C1485.67 18.6133 1484.49 19.24 1482.94 19.24ZM1482.96 17.6C1483.56 17.6 1484.07 17.4267 1484.5 17.08C1484.94 16.72 1485.27 16.1333 1485.5 15.32C1485.74 14.5067 1485.86 13.4133 1485.86 12.04C1485.86 10.2 1485.6 8.8 1485.08 7.84C1484.57 6.88 1483.87 6.4 1482.96 6.4C1482.36 6.4 1481.84 6.58 1481.4 6.94C1480.97 7.28667 1480.64 7.86667 1480.4 8.68C1480.17 9.48 1480.06 10.5733 1480.06 11.96C1480.06 13.8 1480.31 15.2 1480.82 16.16C1481.34 17.12 1482.05 17.6 1482.96 17.6ZM1491.83 19V17.4H1494.69V7.3L1492.01 9.32L1491.03 7.98L1495.17 5H1496.49V17.4H1498.87V19H1491.83ZM1507.05 19.24C1506.03 19.24 1505.15 19.0667 1504.41 18.72C1503.66 18.3733 1503.08 17.9067 1502.67 17.32C1502.27 16.72 1502.07 16.06 1502.07 15.34C1502.07 14.4733 1502.3 13.72 1502.77 13.08C1503.25 12.44 1503.99 11.9 1505.01 11.46C1504.3 11.0733 1503.75 10.6267 1503.37 10.12C1502.99 9.6 1502.81 8.96 1502.81 8.2C1502.81 7.52 1502.99 6.92667 1503.35 6.42C1503.71 5.9 1504.19 5.49333 1504.81 5.2C1505.43 4.90667 1506.13 4.76 1506.89 4.76C1507.71 4.76 1508.44 4.91333 1509.07 5.22C1509.69 5.51333 1510.18 5.92 1510.53 6.44C1510.89 6.96 1511.07 7.54 1511.07 8.18C1511.07 8.99333 1510.86 9.65333 1510.45 10.16C1510.03 10.6667 1509.48 11.0933 1508.79 11.44C1509.77 11.8533 1510.53 12.3733 1511.05 13C1511.57 13.6133 1511.83 14.3533 1511.83 15.22C1511.83 16.02 1511.62 16.7267 1511.21 17.34C1510.79 17.94 1510.23 18.4067 1509.51 18.74C1508.79 19.0733 1507.97 19.24 1507.05 19.24ZM1507.15 10.78C1507.73 10.58 1508.24 10.2733 1508.67 9.86C1509.11 9.44667 1509.33 8.94667 1509.33 8.36C1509.33 7.74667 1509.09 7.24 1508.63 6.84C1508.16 6.44 1507.58 6.24 1506.89 6.24C1506.21 6.24 1505.65 6.42 1505.21 6.78C1504.77 7.12667 1504.55 7.58667 1504.55 8.16C1504.55 8.73333 1504.78 9.25333 1505.25 9.72C1505.73 10.1867 1506.36 10.54 1507.15 10.78ZM1507.07 17.64C1507.92 17.64 1508.62 17.42 1509.17 16.98C1509.71 16.5267 1509.99 15.9533 1509.99 15.26C1509.99 14.62 1509.7 14.0467 1509.13 13.54C1508.57 13.0333 1507.79 12.6 1506.79 12.24C1506.28 12.36 1505.81 12.5467 1505.37 12.8C1504.93 13.0533 1504.57 13.3667 1504.31 13.74C1504.04 14.1133 1503.91 14.54 1503.91 15.02C1503.91 15.5133 1504.04 15.96 1504.31 16.36C1504.59 16.76 1504.97 17.0733 1505.45 17.3C1505.93 17.5267 1506.47 17.64 1507.07 17.64ZM1515.16 21.46L1514.1 20.86C1514.6 19.7133 1515.03 18.4533 1515.38 17.08C1515.72 15.7067 1515.9 14.2133 1515.9 12.6C1515.9 10.9733 1515.72 9.47333 1515.38 8.1C1515.03 6.71333 1514.6 5.46 1514.1 4.34L1515.16 3.74C1515.98 5.14 1516.63 6.55333 1517.1 7.98C1517.56 9.39333 1517.8 10.9333 1517.8 12.6C1517.8 14.1467 1517.56 15.6467 1517.1 17.1C1516.63 18.54 1515.98 19.9933 1515.16 21.46Z" fill="white"/>
</svg>
