<svg width="130" height="62" viewBox="0 0 130 62" fill="none" xmlns="http://www.w3.org/2000/svg">
<g clip-path="url(#clip0_0_21)">
<path d="M8.23685 60.132C7.41552 60.132 6.71885 59.9597 6.14685 59.615C5.57485 59.2703 5.14218 58.7973 4.84885 58.196C4.55552 57.5947 4.40885 56.9127 4.40885 56.15C4.40885 55.4093 4.55918 54.7383 4.85985 54.137C5.16052 53.5357 5.59685 53.059 6.16885 52.707C6.74085 52.3477 7.43385 52.168 8.24785 52.168C9.07652 52.168 9.77319 52.3403 10.3379 52.685C10.9099 53.0297 11.3425 53.5027 11.6359 54.104C11.9365 54.7053 12.0869 55.3873 12.0869 56.15C12.0869 56.8833 11.9365 57.5543 11.6359 58.163C11.3352 58.7643 10.8952 59.2447 10.3159 59.604C9.74385 59.956 9.05085 60.132 8.23685 60.132ZM8.24785 59.439C8.90785 59.439 9.46152 59.2997 9.90885 59.021C10.3635 58.735 10.7045 58.3463 10.9319 57.855C11.1665 57.3563 11.2839 56.788 11.2839 56.15C11.2839 55.5047 11.1665 54.9363 10.9319 54.445C10.6972 53.9537 10.3525 53.5687 9.89785 53.29C9.45052 53.004 8.90052 52.861 8.24785 52.861C7.59519 52.861 7.04152 53.004 6.58685 53.29C6.13219 53.5687 5.78752 53.9573 5.55285 54.456C5.32552 54.9473 5.21185 55.512 5.21185 56.15C5.21185 56.788 5.32919 57.3563 5.56385 57.855C5.79852 58.3463 6.13952 58.735 6.58685 59.021C7.04152 59.2997 7.59519 59.439 8.24785 59.439ZM8.39085 58.614C7.97285 58.614 7.60252 58.515 7.27985 58.317C6.95719 58.119 6.70419 57.8367 6.52085 57.47C6.33752 57.096 6.24585 56.656 6.24585 56.15C6.24585 55.6587 6.33752 55.226 6.52085 54.852C6.70419 54.4707 6.96452 54.1737 7.30185 53.961C7.63919 53.7483 8.03152 53.642 8.47885 53.642C8.71352 53.642 8.93352 53.6677 9.13885 53.719C9.35152 53.7703 9.55685 53.8437 9.75485 53.939L9.44685 54.753C9.29285 54.6723 9.13519 54.61 8.97385 54.566C8.81985 54.5147 8.65119 54.489 8.46785 54.489C8.09385 54.489 7.78585 54.632 7.54385 54.918C7.30185 55.1967 7.18085 55.5963 7.18085 56.117C7.18085 56.6157 7.30185 57.0153 7.54385 57.316C7.78585 57.6167 8.09385 57.767 8.46785 57.767C8.66585 57.767 8.84919 57.7377 9.01785 57.679C9.18652 57.613 9.36252 57.5287 9.54585 57.426L9.83185 58.229C9.63385 58.3463 9.41385 58.4417 9.17185 58.515C8.93719 58.581 8.67685 58.614 8.39085 58.614ZM18.084 60V59.12H19.657V53.565L18.183 54.676L17.644 53.939L19.921 52.3H20.647V59.12H21.956V60H18.084ZM25.9997 60.132C25.5744 60.132 25.193 60.0587 24.8557 59.912C24.5184 59.758 24.2104 59.5453 23.9317 59.274L24.5807 58.537C25.0207 58.999 25.512 59.23 26.0547 59.23C26.3554 59.23 26.634 59.131 26.8907 58.933C27.1474 58.7277 27.3527 58.4087 27.5067 57.976C27.668 57.5433 27.7487 56.986 27.7487 56.304C27.5214 56.5093 27.2684 56.6817 26.9897 56.821C26.711 56.9603 26.4104 57.03 26.0877 57.03C25.699 57.03 25.3287 56.942 24.9767 56.766C24.632 56.5827 24.3497 56.3187 24.1297 55.974C23.917 55.622 23.8107 55.1893 23.8107 54.676C23.8107 54.214 23.9134 53.7923 24.1187 53.411C24.3314 53.0297 24.6247 52.729 24.9987 52.509C25.3727 52.2817 25.8054 52.168 26.2967 52.168C26.678 52.168 27.0044 52.2267 27.2757 52.344C27.547 52.4613 27.7744 52.6153 27.9577 52.806C28.1337 52.9893 28.2804 53.2057 28.3977 53.455C28.5224 53.697 28.614 54.0197 28.6727 54.423C28.7314 54.819 28.7607 55.336 28.7607 55.974C28.7607 56.9493 28.6397 57.745 28.3977 58.361C28.1557 58.9697 27.8257 59.417 27.4077 59.703C26.997 59.989 26.5277 60.132 25.9997 60.132ZM26.2527 56.216C26.5314 56.216 26.799 56.1463 27.0557 56.007C27.3197 55.8677 27.5507 55.699 27.7487 55.501V55.171C27.7487 54.4743 27.613 53.9463 27.3417 53.587C27.0777 53.2277 26.7184 53.048 26.2637 53.048C25.8457 53.048 25.49 53.1947 25.1967 53.488C24.9107 53.774 24.7677 54.1553 24.7677 54.632C24.7677 54.962 24.8374 55.248 24.9767 55.49C25.116 55.7247 25.2957 55.9043 25.5157 56.029C25.743 56.1537 25.9887 56.216 26.2527 56.216ZM32.5954 60.132C32.1701 60.132 31.7887 60.0587 31.4514 59.912C31.1141 59.758 30.8061 59.5453 30.5274 59.274L31.1764 58.537C31.6164 58.999 32.1077 59.23 32.6504 59.23C32.9511 59.23 33.2297 59.131 33.4864 58.933C33.7431 58.7277 33.9484 58.4087 34.1024 57.976C34.2637 57.5433 34.3444 56.986 34.3444 56.304C34.1171 56.5093 33.8641 56.6817 33.5854 56.821C33.3067 56.9603 33.0061 57.03 32.6834 57.03C32.2947 57.03 31.9244 56.942 31.5724 56.766C31.2277 56.5827 30.9454 56.3187 30.7254 55.974C30.5127 55.622 30.4064 55.1893 30.4064 54.676C30.4064 54.214 30.5091 53.7923 30.7144 53.411C30.9271 53.0297 31.2204 52.729 31.5944 52.509C31.9684 52.2817 32.4011 52.168 32.8924 52.168C33.2737 52.168 33.6001 52.2267 33.8714 52.344C34.1427 52.4613 34.3701 52.6153 34.5534 52.806C34.7294 52.9893 34.8761 53.2057 34.9934 53.455C35.1181 53.697 35.2097 54.0197 35.2684 54.423C35.3271 54.819 35.3564 55.336 35.3564 55.974C35.3564 56.9493 35.2354 57.745 34.9934 58.361C34.7514 58.9697 34.4214 59.417 34.0034 59.703C33.5927 59.989 33.1234 60.132 32.5954 60.132ZM32.8484 56.216C33.1271 56.216 33.3947 56.1463 33.6514 56.007C33.9154 55.8677 34.1464 55.699 34.3444 55.501V55.171C34.3444 54.4743 34.2087 53.9463 33.9374 53.587C33.6734 53.2277 33.3141 53.048 32.8594 53.048C32.4414 53.048 32.0857 53.1947 31.7924 53.488C31.5064 53.774 31.3634 54.1553 31.3634 54.632C31.3634 54.962 31.4331 55.248 31.5724 55.49C31.7117 55.7247 31.8914 55.9043 32.1114 56.029C32.3387 56.1537 32.5844 56.216 32.8484 56.216ZM38.4321 60C38.4321 59.1567 38.4871 58.4087 38.5971 57.756C38.7144 57.096 38.8794 56.502 39.0921 55.974C39.3121 55.446 39.5834 54.9583 39.9061 54.511C40.2288 54.0637 40.5991 53.6273 41.0171 53.202H37.3101V52.3H42.1941V53.092C41.6881 53.5833 41.2664 54.0637 40.9291 54.533C40.5918 54.995 40.3204 55.4863 40.1151 56.007C39.9098 56.5203 39.7631 57.1033 39.6751 57.756C39.5871 58.4013 39.5431 59.1493 39.5431 60H38.4321ZM44.3128 56.678V55.776H48.0528V56.678H44.3128ZM50.4465 60C50.4245 59.868 50.4135 59.7323 50.4135 59.593C50.4135 59.1163 50.4942 58.691 50.6555 58.317C50.8242 57.9357 51.0405 57.591 51.3045 57.283C51.5685 56.9677 51.8472 56.678 52.1405 56.414C52.4412 56.1427 52.7198 55.886 52.9765 55.644C53.2405 55.3947 53.4568 55.1453 53.6255 54.896C53.7942 54.6467 53.8785 54.3863 53.8785 54.115C53.8785 53.807 53.7648 53.554 53.5375 53.356C53.3102 53.1507 53.0168 53.048 52.6575 53.048C52.3495 53.048 52.0672 53.1103 51.8105 53.235C51.5612 53.3523 51.3265 53.5137 51.1065 53.719L50.5565 53.048C50.8498 52.784 51.1725 52.5713 51.5245 52.41C51.8838 52.2487 52.2982 52.168 52.7675 52.168C53.2002 52.168 53.5778 52.2523 53.9005 52.421C54.2232 52.5823 54.4725 52.806 54.6485 53.092C54.8318 53.378 54.9235 53.697 54.9235 54.049C54.9235 54.401 54.8465 54.7273 54.6925 55.028C54.5385 55.3287 54.3405 55.611 54.0985 55.875C53.8565 56.139 53.5962 56.3957 53.3175 56.645C53.0388 56.887 52.7712 57.1363 52.5145 57.393C52.2578 57.6497 52.0378 57.9173 51.8545 58.196C51.6785 58.4747 51.5685 58.7753 51.5245 59.098H54.9125V60H50.4465ZM59.3632 60.132C58.5052 60.132 57.8526 59.7837 57.4052 59.087C56.9579 58.383 56.7342 57.4003 56.7342 56.139C56.7342 54.8703 56.9616 53.8913 57.4162 53.202C57.8782 52.5127 58.5346 52.168 59.3852 52.168C60.2432 52.168 60.8959 52.5163 61.3432 53.213C61.7906 53.9097 62.0142 54.8923 62.0142 56.161C62.0142 57.4297 61.7832 58.4087 61.3212 59.098C60.8666 59.7873 60.2139 60.132 59.3632 60.132ZM59.3742 59.23C59.7042 59.23 59.9866 59.1347 60.2212 58.944C60.4632 58.746 60.6466 58.4233 60.7712 57.976C60.9032 57.5287 60.9692 56.9273 60.9692 56.172C60.9692 55.16 60.8262 54.39 60.5402 53.862C60.2616 53.334 59.8729 53.07 59.3742 53.07C59.0442 53.07 58.7582 53.169 58.5162 53.367C58.2816 53.5577 58.0982 53.8767 57.9662 54.324C57.8416 54.764 57.7792 55.3653 57.7792 56.128C57.7792 57.14 57.9186 57.91 58.1972 58.438C58.4832 58.966 58.8756 59.23 59.3742 59.23ZM64.2539 60V59.12H65.8269V53.565L64.3529 54.676L63.8139 53.939L66.0909 52.3H66.8169V59.12H68.1259V60H64.2539ZM72.6206 60.132C72.0633 60.132 71.5793 60.0367 71.1686 59.846C70.758 59.6553 70.439 59.3987 70.2116 59.076C69.9916 58.746 69.8816 58.383 69.8816 57.987C69.8816 57.5103 70.01 57.096 70.2666 56.744C70.5306 56.392 70.9413 56.095 71.4986 55.853C71.11 55.6403 70.8093 55.3947 70.5966 55.116C70.3913 54.83 70.2886 54.478 70.2886 54.06C70.2886 53.686 70.3876 53.3597 70.5856 53.081C70.7836 52.795 71.0513 52.5713 71.3886 52.41C71.7333 52.2487 72.1146 52.168 72.5326 52.168C72.9873 52.168 73.387 52.2523 73.7316 52.421C74.0763 52.5823 74.344 52.806 74.5346 53.092C74.7326 53.378 74.8316 53.697 74.8316 54.049C74.8316 54.4963 74.718 54.8593 74.4906 55.138C74.2633 55.4167 73.959 55.6513 73.5776 55.842C74.1203 56.0693 74.5346 56.3553 74.8206 56.7C75.1066 57.0373 75.2496 57.4443 75.2496 57.921C75.2496 58.361 75.136 58.7497 74.9086 59.087C74.6813 59.417 74.3696 59.6737 73.9736 59.857C73.5776 60.0403 73.1266 60.132 72.6206 60.132ZM72.6756 55.479C72.9983 55.369 73.277 55.2003 73.5116 54.973C73.7536 54.7457 73.8746 54.4707 73.8746 54.148C73.8746 53.8107 73.7463 53.532 73.4896 53.312C73.233 53.092 72.914 52.982 72.5326 52.982C72.1586 52.982 71.8506 53.081 71.6086 53.279C71.3666 53.4697 71.2456 53.7227 71.2456 54.038C71.2456 54.3533 71.374 54.6393 71.6306 54.896C71.8946 55.1527 72.243 55.347 72.6756 55.479ZM72.6316 59.252C73.101 59.252 73.486 59.131 73.7866 58.889C74.0873 58.6397 74.2376 58.3243 74.2376 57.943C74.2376 57.591 74.08 57.2757 73.7646 56.997C73.4566 56.7183 73.0276 56.48 72.4776 56.282C72.199 56.348 71.9386 56.4507 71.6966 56.59C71.4546 56.7293 71.2603 56.9017 71.1136 57.107C70.967 57.3123 70.8936 57.547 70.8936 57.811C70.8936 58.0823 70.967 58.328 71.1136 58.548C71.2676 58.768 71.4766 58.9403 71.7406 59.065C72.0046 59.1897 72.3016 59.252 72.6316 59.252ZM80.1492 60V52.3H81.5352L84.9342 58.702V52.3H85.9242V60H84.5602L81.1392 53.642V60H80.1492ZM90.083 60.132C89.2617 60.132 88.609 59.8717 88.125 59.351C87.6484 58.823 87.41 58.086 87.41 57.14C87.41 56.568 87.5164 56.0583 87.729 55.611C87.949 55.1563 88.2534 54.8007 88.642 54.544C89.0307 54.28 89.4817 54.148 89.995 54.148C90.545 54.148 90.9997 54.269 91.359 54.511C91.7257 54.7457 92.0007 55.0647 92.184 55.468C92.3674 55.8713 92.459 56.315 92.459 56.799C92.459 57.0557 92.448 57.305 92.426 57.547H88.422C88.488 58.0823 88.675 58.5003 88.983 58.801C89.291 59.1017 89.698 59.252 90.204 59.252C90.534 59.252 90.831 59.219 91.095 59.153C91.359 59.0797 91.612 58.988 91.854 58.878L92.085 59.725C91.821 59.8423 91.524 59.9377 91.194 60.011C90.864 60.0917 90.4937 60.132 90.083 60.132ZM88.411 56.744H91.546C91.546 56.1867 91.4067 55.7577 91.128 55.457C90.8494 55.1563 90.4644 55.006 89.973 55.006C89.5477 55.006 89.1957 55.1563 88.917 55.457C88.6384 55.7503 88.4697 56.1793 88.411 56.744ZM95.7804 60.132C95.2304 60.132 94.7941 59.9523 94.4714 59.593C94.1561 59.2263 93.9984 58.7057 93.9984 58.031V55.347H93.0084V54.489H94.0204L94.2294 52.685H94.9884V54.489H96.5724V55.347H94.9884V58.108C94.9884 58.5333 95.0764 58.8303 95.2524 58.999C95.4358 59.1677 95.6521 59.252 95.9014 59.252C96.0848 59.252 96.2571 59.2227 96.4184 59.164C96.5871 59.1053 96.7411 59.0357 96.8804 58.955L97.1554 59.747C97.0088 59.835 96.8108 59.9193 96.5614 60C96.3121 60.088 96.0518 60.132 95.7804 60.132ZM98.2605 60V55.347H97.3805V54.489H98.2605V53.818C98.2605 53.1727 98.4402 52.663 98.7995 52.289C99.1588 51.915 99.6282 51.728 100.208 51.728C100.508 51.728 100.772 51.7647 101 51.838C101.227 51.904 101.443 51.9883 101.649 52.091L101.352 52.927C101.198 52.8463 101.033 52.773 100.857 52.707C100.681 52.641 100.486 52.608 100.274 52.608C99.9655 52.608 99.7162 52.707 99.5255 52.905C99.3422 53.0957 99.2505 53.378 99.2505 53.752V54.489H100.945V55.347H99.2505V60H98.2605ZM103.713 60.132C103.375 60.132 103.071 60.0697 102.8 59.945C102.528 59.813 102.312 59.604 102.151 59.318C101.997 59.032 101.92 58.6617 101.92 58.207V51.86H102.91V58.108C102.91 58.504 102.99 58.7973 103.152 58.988C103.32 59.1787 103.551 59.274 103.845 59.274C103.984 59.274 104.12 59.2593 104.252 59.23C104.391 59.1933 104.508 59.153 104.604 59.109L104.846 59.912C104.714 59.9707 104.549 60.022 104.351 60.066C104.16 60.11 103.947 60.132 103.713 60.132ZM105.777 60V54.28H106.767V60H105.777ZM106.272 53.301C106.082 53.301 105.917 53.2313 105.777 53.092C105.645 52.9527 105.579 52.7913 105.579 52.608C105.579 52.3953 105.642 52.2267 105.766 52.102C105.891 51.9773 106.06 51.915 106.272 51.915C106.463 51.915 106.624 51.9847 106.756 52.124C106.896 52.256 106.965 52.4173 106.965 52.608C106.965 52.8133 106.903 52.982 106.778 53.114C106.654 53.2387 106.485 53.301 106.272 53.301ZM112.289 60.099L110.364 57.712L108.461 60.077L107.757 59.461L109.792 57.096L107.834 54.83L108.604 54.159L110.375 56.447L112.113 54.203L112.85 54.83L110.947 57.052L113.037 59.461L112.289 60.099ZM114.016 61.76L113.477 61.452C113.771 61.078 114.005 60.7003 114.181 60.319C114.365 59.9377 114.504 59.5013 114.599 59.01L115.567 59.285C115.494 59.8423 115.318 60.33 115.039 60.748C114.768 61.166 114.427 61.5033 114.016 61.76ZM120.733 60V52.3H121.778V60H120.733ZM123.652 60V54.28H124.609V55.237C124.815 54.929 125.075 54.6723 125.39 54.467C125.713 54.2543 126.094 54.148 126.534 54.148C127.18 54.148 127.66 54.3423 127.975 54.731C128.298 55.1197 128.459 55.633 128.459 56.271V60H127.469V56.381C127.469 55.9703 127.37 55.6403 127.172 55.391C126.982 55.1417 126.714 55.017 126.369 55.017C126.032 55.017 125.713 55.138 125.412 55.38C125.112 55.6147 124.855 55.8933 124.642 56.216V60H123.652ZM132.472 60.132C131.93 60.132 131.453 60.0073 131.042 59.758C130.639 59.5013 130.327 59.1493 130.107 58.702C129.887 58.2473 129.777 57.7267 129.777 57.14C129.777 56.59 129.887 56.0877 130.107 55.633C130.335 55.1783 130.657 54.819 131.075 54.555C131.493 54.2837 131.985 54.148 132.549 54.148C132.872 54.148 133.154 54.1773 133.396 54.236C133.646 54.2947 133.884 54.379 134.111 54.489L133.814 55.325C133.609 55.2223 133.411 55.149 133.22 55.105C133.037 55.0537 132.832 55.028 132.604 55.028C132.091 55.028 131.658 55.215 131.306 55.589C130.962 55.9557 130.789 56.4653 130.789 57.118C130.789 57.514 130.863 57.8733 131.009 58.196C131.156 58.5187 131.358 58.7753 131.614 58.966C131.878 59.1567 132.186 59.252 132.538 59.252C132.817 59.252 133.055 59.2227 133.253 59.164C133.451 59.098 133.664 59.0063 133.891 58.889L134.199 59.725C133.972 59.8497 133.715 59.9487 133.429 60.022C133.151 60.0953 132.832 60.132 132.472 60.132ZM136.121 60.132C135.923 60.132 135.75 60.0587 135.604 59.912C135.457 59.7653 135.384 59.593 135.384 59.395C135.384 59.1677 135.45 58.988 135.582 58.856C135.714 58.724 135.893 58.658 136.121 58.658C136.311 58.658 136.48 58.7313 136.627 58.878C136.781 59.0247 136.858 59.197 136.858 59.395C136.858 59.615 136.788 59.7947 136.649 59.934C136.509 60.066 136.333 60.132 136.121 60.132Z" fill="#999999"/>
<path d="M14.432 19.156C13.7993 19.156 13.223 19.0737 12.703 18.909C12.183 18.7357 11.7453 18.5103 11.39 18.233L12.014 17.193C12.326 17.453 12.677 17.6653 13.067 17.83C13.457 17.9947 13.912 18.077 14.432 18.077C15.056 18.077 15.55 17.947 15.914 17.687C16.278 17.427 16.46 17.076 16.46 16.634C16.46 16.3827 16.408 16.1617 16.304 15.971C16.2 15.7717 15.9963 15.581 15.693 15.399C15.3983 15.2083 14.9607 15.0047 14.38 14.788C13.756 14.5453 13.2577 14.3027 12.885 14.06C12.5123 13.8087 12.2437 13.527 12.079 13.215C11.923 12.8943 11.845 12.5173 11.845 12.084C11.845 11.6507 11.962 11.2607 12.196 10.914C12.4387 10.5587 12.7897 10.277 13.249 10.069C13.717 9.85233 14.2803 9.744 14.939 9.744C15.4763 9.744 15.9573 9.80033 16.382 9.913C16.8153 10.017 17.2357 10.1687 17.643 10.368L17.188 11.421C16.8933 11.2477 16.5467 11.1047 16.148 10.992C15.758 10.8707 15.3463 10.81 14.913 10.81C14.341 10.81 13.8903 10.9227 13.561 11.148C13.2317 11.3733 13.067 11.6637 13.067 12.019C13.067 12.2443 13.1147 12.4437 13.21 12.617C13.3053 12.7903 13.4917 12.9593 13.769 13.124C14.055 13.2887 14.4797 13.475 15.043 13.683C15.719 13.9343 16.252 14.1987 16.642 14.476C17.0407 14.7533 17.3223 15.0567 17.487 15.386C17.6517 15.7067 17.734 16.075 17.734 16.491C17.734 17.0543 17.591 17.5353 17.305 17.934C17.0277 18.3327 16.6377 18.636 16.135 18.844C15.641 19.052 15.0733 19.156 14.432 19.156ZM22.1327 19.156C21.162 19.156 20.3907 18.8483 19.8187 18.233C19.2553 17.609 18.9737 16.738 18.9737 15.62C18.9737 14.944 19.0993 14.3417 19.3507 13.813C19.6107 13.2757 19.9703 12.8553 20.4297 12.552C20.889 12.24 21.422 12.084 22.0287 12.084C22.6787 12.084 23.216 12.227 23.6407 12.513C24.074 12.7903 24.399 13.1673 24.6157 13.644C24.8323 14.1207 24.9407 14.645 24.9407 15.217C24.9407 15.5203 24.9277 15.815 24.9017 16.101H20.1697C20.2477 16.7337 20.4687 17.2277 20.8327 17.583C21.1967 17.9383 21.6777 18.116 22.2757 18.116C22.6657 18.116 23.0167 18.077 23.3287 17.999C23.6407 17.9123 23.9397 17.804 24.2257 17.674L24.4987 18.675C24.1867 18.8137 23.8357 18.9263 23.4457 19.013C23.0557 19.1083 22.618 19.156 22.1327 19.156ZM20.1567 15.152H23.8617C23.8617 14.4933 23.697 13.9863 23.3677 13.631C23.0383 13.2757 22.5833 13.098 22.0027 13.098C21.5 13.098 21.084 13.2757 20.7547 13.631C20.4253 13.9777 20.226 14.4847 20.1567 15.152ZM26.5 19V12.24H27.631V13.709C27.7436 13.423 27.8953 13.1587 28.086 12.916C28.2766 12.6647 28.515 12.4653 28.801 12.318C29.087 12.162 29.4206 12.084 29.802 12.084C29.932 12.084 30.062 12.0927 30.192 12.11C30.322 12.1187 30.4303 12.136 30.517 12.162L30.166 13.371C30.0013 13.3017 29.8063 13.267 29.581 13.267C29.2603 13.267 28.9526 13.358 28.658 13.54C28.372 13.722 28.1336 14.0037 27.943 14.385C27.761 14.7663 27.67 15.2517 27.67 15.841V19H26.5ZM33.4993 19L30.7823 12.552L31.8483 12.11L34.1493 17.674L36.4503 12.11L37.4513 12.552L34.7213 19H33.4993ZM38.624 19V12.24H39.794V19H38.624ZM39.209 11.083C38.9837 11.083 38.7887 11.0007 38.624 10.836C38.468 10.6713 38.39 10.4807 38.39 10.264C38.39 10.0127 38.4637 9.81333 38.611 9.666C38.7583 9.51867 38.9577 9.445 39.209 9.445C39.4343 9.445 39.625 9.52733 39.781 9.692C39.9457 9.848 40.028 10.0387 40.028 10.264C40.028 10.5067 39.9543 10.706 39.807 10.862C39.6597 11.0093 39.4603 11.083 39.209 11.083ZM44.604 19.156C43.9627 19.156 43.3993 19.0087 42.914 18.714C42.4373 18.4107 42.069 17.9947 41.809 17.466C41.549 16.9287 41.419 16.3133 41.419 15.62C41.419 14.97 41.549 14.3763 41.809 13.839C42.0777 13.3017 42.459 12.877 42.953 12.565C43.447 12.2443 44.0277 12.084 44.695 12.084C45.0763 12.084 45.41 12.1187 45.696 12.188C45.9907 12.2573 46.2723 12.357 46.541 12.487L46.19 13.475C45.9473 13.3537 45.7133 13.267 45.488 13.215C45.2713 13.1543 45.0287 13.124 44.76 13.124C44.1533 13.124 43.642 13.345 43.226 13.787C42.8187 14.2203 42.615 14.8227 42.615 15.594C42.615 16.062 42.7017 16.4867 42.875 16.868C43.0483 17.2493 43.2867 17.5527 43.59 17.778C43.902 18.0033 44.266 18.116 44.682 18.116C45.0113 18.116 45.293 18.0813 45.527 18.012C45.761 17.934 46.0123 17.8257 46.281 17.687L46.645 18.675C46.3763 18.8223 46.073 18.9393 45.735 19.026C45.4057 19.1127 45.0287 19.156 44.604 19.156ZM50.5829 19.156C49.6122 19.156 48.8409 18.8483 48.2689 18.233C47.7055 17.609 47.4239 16.738 47.4239 15.62C47.4239 14.944 47.5495 14.3417 47.8009 13.813C48.0609 13.2757 48.4205 12.8553 48.8799 12.552C49.3392 12.24 49.8722 12.084 50.4789 12.084C51.1289 12.084 51.6662 12.227 52.0909 12.513C52.5242 12.7903 52.8492 13.1673 53.0659 13.644C53.2825 14.1207 53.3909 14.645 53.3909 15.217C53.3909 15.5203 53.3779 15.815 53.3519 16.101H48.6199C48.6979 16.7337 48.9189 17.2277 49.2829 17.583C49.6469 17.9383 50.1279 18.116 50.7259 18.116C51.1159 18.116 51.4669 18.077 51.7789 17.999C52.0909 17.9123 52.3899 17.804 52.6759 17.674L52.9489 18.675C52.6369 18.8137 52.2859 18.9263 51.8959 19.013C51.5059 19.1083 51.0682 19.156 50.5829 19.156ZM48.6069 15.152H52.3119C52.3119 14.4933 52.1472 13.9863 51.8179 13.631C51.4885 13.2757 51.0335 13.098 50.4529 13.098C49.9502 13.098 49.5342 13.2757 49.2049 13.631C48.8755 13.9777 48.6762 14.4847 48.6069 15.152ZM62.4746 19.156C61.686 19.156 60.9883 18.9697 60.3816 18.597C59.775 18.2157 59.3026 17.6783 58.9646 16.985C58.6266 16.283 58.4576 15.451 58.4576 14.489C58.4576 13.5617 58.6266 12.7427 58.9646 12.032C59.3113 11.3127 59.7966 10.7537 60.4206 10.355C61.0533 9.94767 61.79 9.744 62.6306 9.744C63.064 9.744 63.4583 9.78733 63.8136 9.874C64.169 9.952 64.5026 10.0647 64.8146 10.212L64.4376 11.252C64.169 11.122 63.8916 11.018 63.6056 10.94C63.3283 10.862 62.999 10.823 62.6176 10.823C62.063 10.823 61.5646 10.966 61.1226 11.252C60.6893 11.538 60.347 11.9497 60.0956 12.487C59.8443 13.0243 59.7186 13.6743 59.7186 14.437C59.7186 15.165 59.84 15.802 60.0826 16.348C60.334 16.894 60.6763 17.3187 61.1096 17.622C61.5516 17.9253 62.0543 18.077 62.6176 18.077C63.0423 18.077 63.4106 18.025 63.7226 17.921C64.0346 17.817 64.338 17.6827 64.6326 17.518L65.0096 18.545C64.689 18.7183 64.3206 18.8657 63.9046 18.987C63.4973 19.0997 63.0206 19.156 62.4746 19.156ZM69.0198 19.156C68.3785 19.156 67.8021 19.0087 67.2908 18.714C66.7795 18.4107 66.3765 17.9947 66.0818 17.466C65.7958 16.9287 65.6528 16.3133 65.6528 15.62C65.6528 14.892 65.8001 14.2637 66.0948 13.735C66.3895 13.2063 66.7925 12.799 67.3038 12.513C67.8151 12.227 68.3871 12.084 69.0198 12.084C69.6525 12.084 70.2201 12.227 70.7228 12.513C71.2341 12.799 71.6371 13.2063 71.9318 13.735C72.2351 14.255 72.3868 14.8747 72.3868 15.594C72.3868 16.3133 72.2395 16.9417 71.9448 17.479C71.6501 18.0077 71.2471 18.4193 70.7358 18.714C70.2331 19.0087 69.6611 19.156 69.0198 19.156ZM69.0198 18.116C69.7045 18.116 70.2375 17.8863 70.6188 17.427C71.0001 16.959 71.1908 16.3567 71.1908 15.62C71.1908 15.1693 71.0955 14.7577 70.9048 14.385C70.7141 14.0037 70.4541 13.7003 70.1248 13.475C69.8041 13.241 69.4358 13.124 69.0198 13.124C68.3351 13.124 67.8021 13.3493 67.4208 13.8C67.0395 14.2507 66.8488 14.8487 66.8488 15.594C66.8488 16.0447 66.9441 16.465 67.1348 16.855C67.3255 17.2363 67.5811 17.544 67.9018 17.778C68.2311 18.0033 68.6038 18.116 69.0198 18.116ZM76.5033 19.156C75.9487 19.156 75.4417 19.013 74.9823 18.727C74.523 18.441 74.159 18.038 73.8903 17.518C73.6217 16.9893 73.4873 16.3697 73.4873 15.659C73.4873 14.9743 73.6217 14.3633 73.8903 13.826C74.1677 13.2887 74.5317 12.864 74.9823 12.552C75.4417 12.24 75.9443 12.084 76.4903 12.084C76.941 12.084 77.3267 12.175 77.6473 12.357C77.9767 12.539 78.2323 12.7253 78.4143 12.916V9.38H79.5843V17.362C79.5843 17.6913 79.6623 17.908 79.8183 18.012C79.983 18.1073 80.1607 18.155 80.3513 18.155L80.1043 19.065C79.281 19.065 78.7783 18.7357 78.5963 18.077C78.4057 18.3457 78.137 18.5927 77.7903 18.818C77.4523 19.0433 77.0233 19.156 76.5033 19.156ZM76.7633 18.116C77.084 18.116 77.3873 18.0423 77.6733 17.895C77.968 17.739 78.215 17.5397 78.4143 17.297V13.943C78.2497 13.735 78.02 13.5443 77.7253 13.371C77.4307 13.189 77.1057 13.098 76.7503 13.098C76.3343 13.098 75.9703 13.2107 75.6583 13.436C75.3463 13.6613 75.1037 13.9647 74.9303 14.346C74.7657 14.7187 74.6833 15.1433 74.6833 15.62C74.6833 16.0967 74.7743 16.5257 74.9563 16.907C75.1383 17.2797 75.3853 17.5743 75.6973 17.791C76.018 18.0077 76.3733 18.116 76.7633 18.116ZM84.492 19.156C83.5214 19.156 82.75 18.8483 82.178 18.233C81.6147 17.609 81.333 16.738 81.333 15.62C81.333 14.944 81.4587 14.3417 81.71 13.813C81.97 13.2757 82.3297 12.8553 82.789 12.552C83.2484 12.24 83.7814 12.084 84.388 12.084C85.038 12.084 85.5754 12.227 86 12.513C86.4334 12.7903 86.7584 13.1673 86.975 13.644C87.1917 14.1207 87.3 14.645 87.3 15.217C87.3 15.5203 87.287 15.815 87.261 16.101H82.529C82.607 16.7337 82.828 17.2277 83.192 17.583C83.556 17.9383 84.037 18.116 84.635 18.116C85.025 18.116 85.376 18.077 85.688 17.999C86 17.9123 86.299 17.804 86.585 17.674L86.858 18.675C86.546 18.8137 86.195 18.9263 85.805 19.013C85.415 19.1083 84.9774 19.156 84.492 19.156ZM82.516 15.152H86.221C86.221 14.4933 86.0564 13.9863 85.727 13.631C85.3977 13.2757 84.9427 13.098 84.362 13.098C83.8594 13.098 83.4434 13.2757 83.114 13.631C82.7847 13.9777 82.5854 14.4847 82.516 15.152Z" fill="#999999"/>
<rect x="5.5" y="0.5" width="90" height="29" stroke="#999999"/>
</g>
<defs>
<clipPath id="clip0_0_21">
<rect width="130" height="62" fill="white"/>
</clipPath>
</defs>
</svg>
